<?xml version="1.0" encoding="UTF-8" standalone="no"?>
<!DOCTYPE svg PUBLIC "-//W3C//DTD SVG 1.1//EN"
 "http://www.w3.org/Graphics/SVG/1.1/DTD/svg11.dtd">
<!-- Generated by graphviz version 12.2.1 (20241206.2353)
 -->
<!-- Title: DamagePickup.cpp Pages: 1 -->
<svg width="371pt" height="208pt"
 viewBox="0.00 0.00 371.38 208.00" xmlns="http://www.w3.org/2000/svg" xmlns:xlink="http://www.w3.org/1999/xlink">
<g id="graph0" class="graph" transform="scale(1 1) rotate(0) translate(4 204)">
<title>DamagePickup.cpp</title>
<!-- Node1 -->
<g id="Node000001" class="node">
<title>Node1</title>
<g id="a_Node000001"><a xlink:title=" ">
<polygon fill="#999999" stroke="#666666" points="264.25,-200 162.75,-200 162.75,-180 264.25,-180 264.25,-200"/>
<text text-anchor="middle" x="213.5" y="-186.5" font-family="Arial" font-size="10.00">DamagePickup.cpp</text>
</a>
</g>
</g>
<!-- Node2 -->
<g id="Node000002" class="node">
<title>Node2</title>
<g id="a_Node000002"><a xlink:href="_damage_pickup_8h.html" target="_top" xlink:title=" ">
<polygon fill="white" stroke="#666666" points="188,-138 97,-138 97,-118 188,-118 188,-138"/>
<text text-anchor="middle" x="142.5" y="-124.5" font-family="Arial" font-size="10.00">DamagePickup.h</text>
</a>
</g>
</g>
<!-- Node1&#45;&gt;Node2 -->
<g id="edge1_Node000001_Node000002" class="edge">
<title>Node1&#45;&gt;Node2</title>
<g id="a_edge1_Node000001_Node000002"><a xlink:title=" ">
<path fill="none" stroke="#63b8ff" d="M202.41,-179.62C191.61,-170.5 174.98,-156.45 161.97,-145.46"/>
<polygon fill="#63b8ff" stroke="#63b8ff" points="164.34,-142.87 154.44,-139.09 159.82,-148.22 164.34,-142.87"/>
</a>
</g>
</g>
<!-- Node8 -->
<g id="Node000008" class="node">
<title>Node8</title>
<g id="a_Node000008"><a xlink:title=" ">
<polygon fill="#e0e0e0" stroke="#999999" points="363.38,-144 205.62,-144 205.62,-112 363.38,-112 363.38,-144"/>
<text text-anchor="start" x="213.62" y="-130.5" font-family="Arial" font-size="10.00">MultiplayerShooter</text>
<text text-anchor="middle" x="284.5" y="-118.5" font-family="Arial" font-size="10.00">/MainCharacter/MainCharacter.h</text>
</a>
</g>
</g>
<!-- Node1&#45;&gt;Node8 -->
<g id="edge8_Node000001_Node000008" class="edge">
<title>Node1&#45;&gt;Node8</title>
<g id="a_edge8_Node000001_Node000008"><a xlink:title=" ">
<path fill="none" stroke="#63b8ff" d="M224.59,-179.62C233.48,-172.11 246.33,-161.26 257.85,-151.52"/>
<polygon fill="#63b8ff" stroke="#63b8ff" points="259.77,-154.48 265.15,-145.35 255.25,-149.13 259.77,-154.48"/>
</a>
</g>
</g>
<!-- Node3 -->
<g id="Node000003" class="node">
<title>Node3</title>
<g id="a_Node000003"><a xlink:title=" ">
<polygon fill="#e0e0e0" stroke="#999999" points="79,-20 0,-20 0,0 79,0 79,-20"/>
<text text-anchor="middle" x="39.5" y="-6.5" font-family="Arial" font-size="10.00">CoreMinimal.h</text>
</a>
</g>
</g>
<!-- Node2&#45;&gt;Node3 -->
<g id="edge2_Node000002_Node000003" class="edge">
<title>Node2&#45;&gt;Node3</title>
<g id="a_edge2_Node000002_Node000003"><a xlink:title=" ">
<path fill="none" stroke="#63b8ff" d="M134.07,-117.51C116.86,-98.12 77.44,-53.72 55.31,-28.8"/>
<polygon fill="#63b8ff" stroke="#63b8ff" points="58.02,-26.59 48.76,-21.43 52.78,-31.23 58.02,-26.59"/>
</a>
</g>
</g>
<!-- Node4 -->
<g id="Node000004" class="node">
<title>Node4</title>
<g id="a_Node000004"><a xlink:href="_pickup_8h.html" target="_top" xlink:title=" ">
<polygon fill="white" stroke="#666666" points="169.62,-76 115.38,-76 115.38,-56 169.62,-56 169.62,-76"/>
<text text-anchor="middle" x="142.5" y="-62.5" font-family="Arial" font-size="10.00">Pickup.h</text>
</a>
</g>
</g>
<!-- Node2&#45;&gt;Node4 -->
<g id="edge3_Node000002_Node000004" class="edge">
<title>Node2&#45;&gt;Node4</title>
<g id="a_edge3_Node000002_Node000004"><a xlink:title=" ">
<path fill="none" stroke="#63b8ff" d="M142.5,-117.62C142.5,-109.56 142.5,-97.65 142.5,-87.41"/>
<polygon fill="#63b8ff" stroke="#63b8ff" points="146,-87.63 142.5,-77.63 139,-87.63 146,-87.63"/>
</a>
</g>
</g>
<!-- Node7 -->
<g id="Node000007" class="node">
<title>Node7</title>
<g id="a_Node000007"><a xlink:title=" ">
<polygon fill="#e0e0e0" stroke="#999999" points="324.88,-76 188.12,-76 188.12,-56 324.88,-56 324.88,-76"/>
<text text-anchor="middle" x="256.5" y="-62.5" font-family="Arial" font-size="10.00">DamagePickup.generated.h</text>
</a>
</g>
</g>
<!-- Node2&#45;&gt;Node7 -->
<g id="edge7_Node000002_Node000007" class="edge">
<title>Node2&#45;&gt;Node7</title>
<g id="a_edge7_Node000002_Node000007"><a xlink:title=" ">
<path fill="none" stroke="#63b8ff" d="M160.31,-117.62C178.63,-107.98 207.42,-92.83 228.74,-81.61"/>
<polygon fill="#63b8ff" stroke="#63b8ff" points="230.25,-84.77 237.47,-77.01 226.99,-78.57 230.25,-84.77"/>
</a>
</g>
</g>
<!-- Node4&#45;&gt;Node3 -->
<g id="edge4_Node000004_Node000003" class="edge">
<title>Node4&#45;&gt;Node3</title>
<g id="a_edge4_Node000004_Node000003"><a xlink:title=" ">
<path fill="none" stroke="#63b8ff" d="M124.56,-55.59C108.85,-47.36 85.77,-35.26 67.61,-25.74"/>
<polygon fill="#63b8ff" stroke="#63b8ff" points="69.4,-22.73 58.92,-21.18 66.15,-28.93 69.4,-22.73"/>
</a>
</g>
</g>
<!-- Node5 -->
<g id="Node000005" class="node">
<title>Node5</title>
<g id="a_Node000005"><a xlink:title=" ">
<polygon fill="#e0e0e0" stroke="#999999" points="222.25,-20 96.75,-20 96.75,0 222.25,0 222.25,-20"/>
<text text-anchor="middle" x="159.5" y="-6.5" font-family="Arial" font-size="10.00">GameFramework/Actor.h</text>
</a>
</g>
</g>
<!-- Node4&#45;&gt;Node5 -->
<g id="edge5_Node000004_Node000005" class="edge">
<title>Node4&#45;&gt;Node5</title>
<g id="a_edge5_Node000004_Node000005"><a xlink:title=" ">
<path fill="none" stroke="#63b8ff" d="M145.46,-55.59C147.58,-48.86 150.52,-39.53 153.16,-31.15"/>
<polygon fill="#63b8ff" stroke="#63b8ff" points="156.45,-32.33 156.12,-21.74 149.78,-30.23 156.45,-32.33"/>
</a>
</g>
</g>
<!-- Node6 -->
<g id="Node000006" class="node">
<title>Node6</title>
<g id="a_Node000006"><a xlink:title=" ">
<polygon fill="#e0e0e0" stroke="#999999" points="340.5,-20 240.5,-20 240.5,0 340.5,0 340.5,-20"/>
<text text-anchor="middle" x="290.5" y="-6.5" font-family="Arial" font-size="10.00">Pickup.generated.h</text>
</a>
</g>
</g>
<!-- Node4&#45;&gt;Node6 -->
<g id="edge6_Node000004_Node000006" class="edge">
<title>Node4&#45;&gt;Node6</title>
<g id="a_edge6_Node000004_Node000006"><a xlink:title=" ">
<path fill="none" stroke="#63b8ff" d="M168.28,-55.59C191.9,-46.97 227.14,-34.12 253.72,-24.42"/>
<polygon fill="#63b8ff" stroke="#63b8ff" points="254.9,-27.71 263.1,-21 252.5,-21.14 254.9,-27.71"/>
</a>
</g>
</g>
</g>
</svg>
