<?xml version="1.0" encoding="UTF-8" standalone="no"?>
<!DOCTYPE svg PUBLIC "-//W3C//DTD SVG 1.1//EN"
 "http://www.w3.org/Graphics/SVG/1.1/DTD/svg11.dtd">
<!-- Generated by graphviz version 12.2.1 (20241206.2353)
 -->
<!-- Title: HealthPickup.h Pages: 1 -->
<svg width="352pt" height="152pt"
 viewBox="0.00 0.00 351.75 152.00" xmlns="http://www.w3.org/2000/svg" xmlns:xlink="http://www.w3.org/1999/xlink">
<g id="graph0" class="graph" transform="scale(1 1) rotate(0) translate(4 148)">
<title>HealthPickup.h</title>
<!-- Node1 -->
<g id="Node000001" class="node">
<title>Node1</title>
<g id="a_Node000001"><a xlink:title=" ">
<polygon fill="#999999" stroke="#666666" points="189.88,-144 107.12,-144 107.12,-124 189.88,-124 189.88,-144"/>
<text text-anchor="middle" x="148.5" y="-130.5" font-family="Arial" font-size="10.00">HealthPickup.h</text>
</a>
</g>
</g>
<!-- Node2 -->
<g id="Node000002" class="node">
<title>Node2</title>
<g id="a_Node000002"><a xlink:title=" ">
<polygon fill="#e0e0e0" stroke="#999999" points="79,-20 0,-20 0,0 79,0 79,-20"/>
<text text-anchor="middle" x="39.5" y="-6.5" font-family="Arial" font-size="10.00">CoreMinimal.h</text>
</a>
</g>
</g>
<!-- Node1&#45;&gt;Node2 -->
<g id="edge1_Node000001_Node000002" class="edge">
<title>Node1&#45;&gt;Node2</title>
<g id="a_edge1_Node000001_Node000002"><a xlink:title=" ">
<path fill="none" stroke="#63b8ff" d="M134.38,-123.71C122.19,-115.28 104.54,-102.05 91.5,-88 74.76,-69.96 59.5,-46.07 49.9,-29.72"/>
<polygon fill="#63b8ff" stroke="#63b8ff" points="53.21,-28.45 45.21,-21.5 47.14,-31.92 53.21,-28.45"/>
</a>
</g>
</g>
<!-- Node3 -->
<g id="Node000003" class="node">
<title>Node3</title>
<g id="a_Node000003"><a xlink:href="_pickup_8h.html" target="_top" xlink:title=" ">
<polygon fill="white" stroke="#666666" points="197,-88 100,-88 100,-56 197,-56 197,-88"/>
<text text-anchor="start" x="108" y="-74.5" font-family="Arial" font-size="10.00">MultiplayerShooter</text>
<text text-anchor="middle" x="148.5" y="-62.5" font-family="Arial" font-size="10.00">/Pickups/Pickup.h</text>
</a>
</g>
</g>
<!-- Node1&#45;&gt;Node3 -->
<g id="edge2_Node000001_Node000003" class="edge">
<title>Node1&#45;&gt;Node3</title>
<g id="a_edge2_Node000001_Node000003"><a xlink:title=" ">
<path fill="none" stroke="#63b8ff" d="M148.5,-123.62C148.5,-117.1 148.5,-108.05 148.5,-99.4"/>
<polygon fill="#63b8ff" stroke="#63b8ff" points="152,-99.65 148.5,-89.65 145,-99.65 152,-99.65"/>
</a>
</g>
</g>
<!-- Node6 -->
<g id="Node000006" class="node">
<title>Node6</title>
<g id="a_Node000006"><a xlink:title=" ">
<polygon fill="#e0e0e0" stroke="#999999" points="343.75,-82 215.25,-82 215.25,-62 343.75,-62 343.75,-82"/>
<text text-anchor="middle" x="279.5" y="-68.5" font-family="Arial" font-size="10.00">HealthPickup.generated.h</text>
</a>
</g>
</g>
<!-- Node1&#45;&gt;Node6 -->
<g id="edge6_Node000001_Node000006" class="edge">
<title>Node1&#45;&gt;Node6</title>
<g id="a_edge6_Node000001_Node000006"><a xlink:title=" ">
<path fill="none" stroke="#63b8ff" d="M168.97,-123.62C190.41,-113.81 224.32,-98.27 248.93,-87"/>
<polygon fill="#63b8ff" stroke="#63b8ff" points="250.16,-90.29 257.8,-82.94 247.25,-83.92 250.16,-90.29"/>
</a>
</g>
</g>
<!-- Node3&#45;&gt;Node2 -->
<g id="edge3_Node000003_Node000002" class="edge">
<title>Node3&#45;&gt;Node2</title>
<g id="a_edge3_Node000003_Node000002"><a xlink:title=" ">
<path fill="none" stroke="#63b8ff" d="M120.43,-55.55C103.87,-46.43 83.02,-34.96 66.63,-25.93"/>
<polygon fill="#63b8ff" stroke="#63b8ff" points="68.37,-22.89 57.92,-21.14 64.99,-29.03 68.37,-22.89"/>
</a>
</g>
</g>
<!-- Node4 -->
<g id="Node000004" class="node">
<title>Node4</title>
<g id="a_Node000004"><a xlink:title=" ">
<polygon fill="#e0e0e0" stroke="#999999" points="222.25,-20 96.75,-20 96.75,0 222.25,0 222.25,-20"/>
<text text-anchor="middle" x="159.5" y="-6.5" font-family="Arial" font-size="10.00">GameFramework/Actor.h</text>
</a>
</g>
</g>
<!-- Node3&#45;&gt;Node4 -->
<g id="edge4_Node000003_Node000004" class="edge">
<title>Node3&#45;&gt;Node4</title>
<g id="a_edge4_Node000003_Node000004"><a xlink:title=" ">
<path fill="none" stroke="#63b8ff" d="M151.33,-55.55C152.67,-48.26 154.28,-39.45 155.72,-31.6"/>
<polygon fill="#63b8ff" stroke="#63b8ff" points="159.14,-32.36 157.5,-21.9 152.26,-31.1 159.14,-32.36"/>
</a>
</g>
</g>
<!-- Node5 -->
<g id="Node000005" class="node">
<title>Node5</title>
<g id="a_Node000005"><a xlink:title=" ">
<polygon fill="#e0e0e0" stroke="#999999" points="340.5,-20 240.5,-20 240.5,0 340.5,0 340.5,-20"/>
<text text-anchor="middle" x="290.5" y="-6.5" font-family="Arial" font-size="10.00">Pickup.generated.h</text>
</a>
</g>
</g>
<!-- Node3&#45;&gt;Node5 -->
<g id="edge5_Node000003_Node000005" class="edge">
<title>Node3&#45;&gt;Node5</title>
<g id="a_edge5_Node000003_Node000005"><a xlink:title=" ">
<path fill="none" stroke="#63b8ff" d="M185.07,-55.55C207.56,-46.04 236.14,-33.97 257.87,-24.79"/>
<polygon fill="#63b8ff" stroke="#63b8ff" points="258.99,-28.11 266.84,-21 256.27,-21.67 258.99,-28.11"/>
</a>
</g>
</g>
</g>
</svg>
