<?xml version="1.0" encoding="UTF-8" standalone="no"?>
<!DOCTYPE svg PUBLIC "-//W3C//DTD SVG 1.1//EN"
 "http://www.w3.org/Graphics/SVG/1.1/DTD/svg11.dtd">
<!-- Generated by graphviz version 12.2.1 (20241206.2353)
 -->
<!-- Title: HealthPickup.cpp Pages: 1 -->
<svg width="836pt" height="220pt"
 viewBox="0.00 0.00 835.62 220.00" xmlns="http://www.w3.org/2000/svg" xmlns:xlink="http://www.w3.org/1999/xlink">
<g id="graph0" class="graph" transform="scale(1 1) rotate(0) translate(4 216)">
<title>HealthPickup.cpp</title>
<!-- Node1 -->
<g id="Node000001" class="node">
<title>Node1</title>
<g id="a_Node000001"><a xlink:title=" ">
<polygon fill="#999999" stroke="#666666" points="518.12,-212 424.88,-212 424.88,-192 518.12,-192 518.12,-212"/>
<text text-anchor="middle" x="471.5" y="-198.5" font-family="Arial" font-size="10.00">HealthPickup.cpp</text>
</a>
</g>
</g>
<!-- Node2 -->
<g id="Node000002" class="node">
<title>Node2</title>
<g id="a_Node000002"><a xlink:href="_health_pickup_8h.html" target="_top" xlink:title=" ">
<polygon fill="white" stroke="#666666" points="189.88,-150 107.12,-150 107.12,-130 189.88,-130 189.88,-150"/>
<text text-anchor="middle" x="148.5" y="-136.5" font-family="Arial" font-size="10.00">HealthPickup.h</text>
</a>
</g>
</g>
<!-- Node1&#45;&gt;Node2 -->
<g id="edge1_Node000001_Node000002" class="edge">
<title>Node1&#45;&gt;Node2</title>
<g id="a_edge1_Node000001_Node000002"><a xlink:title=" ">
<path fill="none" stroke="#63b8ff" d="M424.77,-195.15C370.12,-187.89 277.12,-174.19 198.5,-156 195.31,-155.26 192.03,-154.43 188.74,-153.56"/>
<polygon fill="#63b8ff" stroke="#63b8ff" points="189.71,-150.19 179.14,-150.85 187.81,-156.93 189.71,-150.19"/>
</a>
</g>
</g>
<!-- Node8 -->
<g id="Node000008" class="node">
<title>Node8</title>
<g id="a_Node000008"><a xlink:title=" ">
<polygon fill="#e0e0e0" stroke="#999999" points="365.38,-156 207.62,-156 207.62,-124 365.38,-124 365.38,-156"/>
<text text-anchor="start" x="215.62" y="-142.5" font-family="Arial" font-size="10.00">MultiplayerShooter</text>
<text text-anchor="middle" x="286.5" y="-130.5" font-family="Arial" font-size="10.00">/MainCharacter/MainCharacter.h</text>
</a>
</g>
</g>
<!-- Node1&#45;&gt;Node8 -->
<g id="edge8_Node000001_Node000008" class="edge">
<title>Node1&#45;&gt;Node8</title>
<g id="a_edge8_Node000001_Node000008"><a xlink:title=" ">
<path fill="none" stroke="#63b8ff" d="M442.59,-191.62C416.57,-183.19 377.54,-170.53 345.01,-159.98"/>
<polygon fill="#63b8ff" stroke="#63b8ff" points="346.29,-156.71 335.7,-156.96 344.13,-163.37 346.29,-156.71"/>
</a>
</g>
</g>
<!-- Node9 -->
<g id="Node000009" class="node">
<title>Node9</title>
<g id="a_Node000009"><a xlink:title=" ">
<polygon fill="#e0e0e0" stroke="#999999" points="559.75,-156 383.25,-156 383.25,-124 559.75,-124 559.75,-156"/>
<text text-anchor="start" x="391.25" y="-142.5" font-family="Arial" font-size="10.00">MultiplayerShooter</text>
<text text-anchor="middle" x="471.5" y="-130.5" font-family="Arial" font-size="10.00">/ActorComponents/BuffComponent.h</text>
</a>
</g>
</g>
<!-- Node1&#45;&gt;Node9 -->
<g id="edge9_Node000001_Node000009" class="edge">
<title>Node1&#45;&gt;Node9</title>
<g id="a_edge9_Node000001_Node000009"><a xlink:title=" ">
<path fill="none" stroke="#63b8ff" d="M471.5,-191.62C471.5,-185.1 471.5,-176.05 471.5,-167.4"/>
<polygon fill="#63b8ff" stroke="#63b8ff" points="475,-167.65 471.5,-157.65 468,-167.65 475,-167.65"/>
</a>
</g>
</g>
<!-- Node10 -->
<g id="Node000010" class="node">
<title>Node10</title>
<g id="a_Node000010"><a xlink:title=" ">
<polygon fill="#e0e0e0" stroke="#999999" points="701.5,-150 577.5,-150 577.5,-130 701.5,-130 701.5,-150"/>
<text text-anchor="middle" x="639.5" y="-136.5" font-family="Arial" font-size="10.00">NiagaraFunctionLibrary.h</text>
</a>
</g>
</g>
<!-- Node1&#45;&gt;Node10 -->
<g id="edge10_Node000001_Node000010" class="edge">
<title>Node1&#45;&gt;Node10</title>
<g id="a_edge10_Node000001_Node000010"><a xlink:title=" ">
<path fill="none" stroke="#63b8ff" d="M497.75,-191.62C525.9,-181.57 570.82,-165.53 602.54,-154.2"/>
<polygon fill="#63b8ff" stroke="#63b8ff" points="603.49,-157.58 611.73,-150.92 601.14,-150.98 603.49,-157.58"/>
</a>
</g>
</g>
<!-- Node11 -->
<g id="Node000011" class="node">
<title>Node11</title>
<g id="a_Node000011"><a xlink:title=" ">
<polygon fill="#e0e0e0" stroke="#999999" points="827.62,-150 719.38,-150 719.38,-130 827.62,-130 827.62,-150"/>
<text text-anchor="middle" x="773.5" y="-136.5" font-family="Arial" font-size="10.00">NiagaraComponent.h</text>
</a>
</g>
</g>
<!-- Node1&#45;&gt;Node11 -->
<g id="edge11_Node000001_Node000011" class="edge">
<title>Node1&#45;&gt;Node11</title>
<g id="a_edge11_Node000001_Node000011"><a xlink:title=" ">
<path fill="none" stroke="#63b8ff" d="M518.34,-192.86C566.63,-184.31 644.01,-170.17 710.5,-156 714.83,-155.08 719.32,-154.08 723.81,-153.06"/>
<polygon fill="#63b8ff" stroke="#63b8ff" points="724.49,-156.5 733.44,-150.83 722.91,-149.68 724.49,-156.5"/>
</a>
</g>
</g>
<!-- Node3 -->
<g id="Node000003" class="node">
<title>Node3</title>
<g id="a_Node000003"><a xlink:title=" ">
<polygon fill="#e0e0e0" stroke="#999999" points="79,-20 0,-20 0,0 79,0 79,-20"/>
<text text-anchor="middle" x="39.5" y="-6.5" font-family="Arial" font-size="10.00">CoreMinimal.h</text>
</a>
</g>
</g>
<!-- Node2&#45;&gt;Node3 -->
<g id="edge2_Node000002_Node000003" class="edge">
<title>Node2&#45;&gt;Node3</title>
<g id="a_edge2_Node000002_Node000003"><a xlink:title=" ">
<path fill="none" stroke="#63b8ff" d="M136.36,-129.62C124.24,-119.93 105.47,-104.01 91.5,-88 75.47,-69.63 60.25,-46.12 50.46,-29.93"/>
<polygon fill="#63b8ff" stroke="#63b8ff" points="53.49,-28.18 45.38,-21.35 47.47,-31.74 53.49,-28.18"/>
</a>
</g>
</g>
<!-- Node4 -->
<g id="Node000004" class="node">
<title>Node4</title>
<g id="a_Node000004"><a xlink:href="_pickup_8h.html" target="_top" xlink:title=" ">
<polygon fill="white" stroke="#666666" points="197,-88 100,-88 100,-56 197,-56 197,-88"/>
<text text-anchor="start" x="108" y="-74.5" font-family="Arial" font-size="10.00">MultiplayerShooter</text>
<text text-anchor="middle" x="148.5" y="-62.5" font-family="Arial" font-size="10.00">/Pickups/Pickup.h</text>
</a>
</g>
</g>
<!-- Node2&#45;&gt;Node4 -->
<g id="edge3_Node000002_Node000004" class="edge">
<title>Node2&#45;&gt;Node4</title>
<g id="a_edge3_Node000002_Node000004"><a xlink:title=" ">
<path fill="none" stroke="#63b8ff" d="M148.5,-129.54C148.5,-121.72 148.5,-110.22 148.5,-99.63"/>
<polygon fill="#63b8ff" stroke="#63b8ff" points="152,-99.81 148.5,-89.81 145,-99.81 152,-99.81"/>
</a>
</g>
</g>
<!-- Node7 -->
<g id="Node000007" class="node">
<title>Node7</title>
<g id="a_Node000007"><a xlink:title=" ">
<polygon fill="#e0e0e0" stroke="#999999" points="343.75,-82 215.25,-82 215.25,-62 343.75,-62 343.75,-82"/>
<text text-anchor="middle" x="279.5" y="-68.5" font-family="Arial" font-size="10.00">HealthPickup.generated.h</text>
</a>
</g>
</g>
<!-- Node2&#45;&gt;Node7 -->
<g id="edge7_Node000002_Node000007" class="edge">
<title>Node2&#45;&gt;Node7</title>
<g id="a_edge7_Node000002_Node000007"><a xlink:title=" ">
<path fill="none" stroke="#63b8ff" d="M167.27,-129.54C189.06,-118.57 225.25,-100.33 250.62,-87.55"/>
<polygon fill="#63b8ff" stroke="#63b8ff" points="252.06,-90.74 259.41,-83.12 248.91,-84.49 252.06,-90.74"/>
</a>
</g>
</g>
<!-- Node4&#45;&gt;Node3 -->
<g id="edge4_Node000004_Node000003" class="edge">
<title>Node4&#45;&gt;Node3</title>
<g id="a_edge4_Node000004_Node000003"><a xlink:title=" ">
<path fill="none" stroke="#63b8ff" d="M120.43,-55.55C103.87,-46.43 83.02,-34.96 66.63,-25.93"/>
<polygon fill="#63b8ff" stroke="#63b8ff" points="68.37,-22.89 57.92,-21.14 64.99,-29.03 68.37,-22.89"/>
</a>
</g>
</g>
<!-- Node5 -->
<g id="Node000005" class="node">
<title>Node5</title>
<g id="a_Node000005"><a xlink:title=" ">
<polygon fill="#e0e0e0" stroke="#999999" points="222.25,-20 96.75,-20 96.75,0 222.25,0 222.25,-20"/>
<text text-anchor="middle" x="159.5" y="-6.5" font-family="Arial" font-size="10.00">GameFramework/Actor.h</text>
</a>
</g>
</g>
<!-- Node4&#45;&gt;Node5 -->
<g id="edge5_Node000004_Node000005" class="edge">
<title>Node4&#45;&gt;Node5</title>
<g id="a_edge5_Node000004_Node000005"><a xlink:title=" ">
<path fill="none" stroke="#63b8ff" d="M151.33,-55.55C152.67,-48.26 154.28,-39.45 155.72,-31.6"/>
<polygon fill="#63b8ff" stroke="#63b8ff" points="159.14,-32.36 157.5,-21.9 152.26,-31.1 159.14,-32.36"/>
</a>
</g>
</g>
<!-- Node6 -->
<g id="Node000006" class="node">
<title>Node6</title>
<g id="a_Node000006"><a xlink:title=" ">
<polygon fill="#e0e0e0" stroke="#999999" points="340.5,-20 240.5,-20 240.5,0 340.5,0 340.5,-20"/>
<text text-anchor="middle" x="290.5" y="-6.5" font-family="Arial" font-size="10.00">Pickup.generated.h</text>
</a>
</g>
</g>
<!-- Node4&#45;&gt;Node6 -->
<g id="edge6_Node000004_Node000006" class="edge">
<title>Node4&#45;&gt;Node6</title>
<g id="a_edge6_Node000004_Node000006"><a xlink:title=" ">
<path fill="none" stroke="#63b8ff" d="M185.07,-55.55C207.56,-46.04 236.14,-33.97 257.87,-24.79"/>
<polygon fill="#63b8ff" stroke="#63b8ff" points="258.99,-28.11 266.84,-21 256.27,-21.67 258.99,-28.11"/>
</a>
</g>
</g>
</g>
</svg>
