<?xml version="1.0" encoding="UTF-8" standalone="no"?>
<!DOCTYPE svg PUBLIC "-//W3C//DTD SVG 1.1//EN"
 "http://www.w3.org/Graphics/SVG/1.1/DTD/svg11.dtd">
<!-- Generated by graphviz version 12.2.1 (20241206.2353)
 -->
<!-- Title: PickupSpawnPoint.cpp Pages: 1 -->
<svg width="956pt" height="208pt"
 viewBox="0.00 0.00 956.12 208.00" xmlns="http://www.w3.org/2000/svg" xmlns:xlink="http://www.w3.org/1999/xlink">
<g id="graph0" class="graph" transform="scale(1 1) rotate(0) translate(4 204)">
<title>PickupSpawnPoint.cpp</title>
<!-- Node1 -->
<g id="Node000001" class="node">
<title>Node1</title>
<g id="a_Node000001"><a xlink:title=" ">
<polygon fill="#999999" stroke="#666666" points="544.88,-200 427.62,-200 427.62,-180 544.88,-180 544.88,-200"/>
<text text-anchor="middle" x="486.25" y="-186.5" font-family="Arial" font-size="10.00">PickupSpawnPoint.cpp</text>
</a>
</g>
</g>
<!-- Node2 -->
<g id="Node000002" class="node">
<title>Node2</title>
<g id="a_Node000002"><a xlink:href="_pickup_spawn_point_8h.html" target="_top" xlink:title=" ">
<polygon fill="white" stroke="#666666" points="179.62,-76 72.88,-76 72.88,-56 179.62,-56 179.62,-76"/>
<text text-anchor="middle" x="126.25" y="-62.5" font-family="Arial" font-size="10.00">PickupSpawnPoint.h</text>
</a>
</g>
</g>
<!-- Node1&#45;&gt;Node2 -->
<g id="edge1_Node000001_Node000002" class="edge">
<title>Node1&#45;&gt;Node2</title>
<g id="a_edge1_Node000001_Node000002"><a xlink:title=" ">
<path fill="none" stroke="#63b8ff" d="M430.15,-179.54C390.23,-172.01 335.67,-160.05 289.25,-144 239.29,-126.72 184.3,-98.72 152.66,-81.67"/>
<polygon fill="#63b8ff" stroke="#63b8ff" points="154.66,-78.77 144.2,-77.07 151.31,-84.92 154.66,-78.77"/>
</a>
</g>
</g>
<!-- Node6 -->
<g id="Node000006" class="node">
<title>Node6</title>
<g id="a_Node000006"><a xlink:href="_damage_pickup_8h.html" target="_top" xlink:title=" ">
<polygon fill="white" stroke="#666666" points="388.75,-138 297.75,-138 297.75,-118 388.75,-118 388.75,-138"/>
<text text-anchor="middle" x="343.25" y="-124.5" font-family="Arial" font-size="10.00">DamagePickup.h</text>
</a>
</g>
</g>
<!-- Node1&#45;&gt;Node6 -->
<g id="edge5_Node000001_Node000006" class="edge">
<title>Node1&#45;&gt;Node6</title>
<g id="a_edge5_Node000001_Node000006"><a xlink:title=" ">
<path fill="none" stroke="#63b8ff" d="M463.91,-179.62C440.29,-169.72 402.82,-153.99 375.9,-142.7"/>
<polygon fill="#63b8ff" stroke="#63b8ff" points="377.41,-139.54 366.83,-138.89 374.7,-145.99 377.41,-139.54"/>
</a>
</g>
</g>
<!-- Node7 -->
<g id="Node000007" class="node">
<title>Node7</title>
<g id="a_Node000007"><a xlink:href="_pickup_8h.html" target="_top" xlink:title=" ">
<polygon fill="white" stroke="#666666" points="444.38,-76 390.12,-76 390.12,-56 444.38,-56 444.38,-76"/>
<text text-anchor="middle" x="417.25" y="-62.5" font-family="Arial" font-size="10.00">Pickup.h</text>
</a>
</g>
</g>
<!-- Node1&#45;&gt;Node7 -->
<g id="edge16_Node000001_Node000007" class="edge">
<title>Node1&#45;&gt;Node7</title>
<g id="a_edge16_Node000001_Node000007"><a xlink:title=" ">
<path fill="none" stroke="#63b8ff" d="M471.81,-179.65C460.46,-171.55 445.14,-158.83 436.25,-144 425.86,-126.67 421.14,-103.9 419,-87.63"/>
<polygon fill="#63b8ff" stroke="#63b8ff" points="422.48,-87.27 417.94,-77.7 415.52,-88.02 422.48,-87.27"/>
</a>
</g>
</g>
<!-- Node10 -->
<g id="Node000010" class="node">
<title>Node10</title>
<g id="a_Node000010"><a xlink:href="_health_pickup_8h.html" target="_top" xlink:title=" ">
<polygon fill="white" stroke="#666666" points="527.62,-138 444.88,-138 444.88,-118 527.62,-118 527.62,-138"/>
<text text-anchor="middle" x="486.25" y="-124.5" font-family="Arial" font-size="10.00">HealthPickup.h</text>
</a>
</g>
</g>
<!-- Node1&#45;&gt;Node10 -->
<g id="edge12_Node000001_Node000010" class="edge">
<title>Node1&#45;&gt;Node10</title>
<g id="a_edge12_Node000001_Node000010"><a xlink:title=" ">
<path fill="none" stroke="#63b8ff" d="M486.25,-179.62C486.25,-171.56 486.25,-159.65 486.25,-149.41"/>
<polygon fill="#63b8ff" stroke="#63b8ff" points="489.75,-149.63 486.25,-139.63 482.75,-149.63 489.75,-149.63"/>
</a>
</g>
</g>
<!-- Node12 -->
<g id="Node000012" class="node">
<title>Node12</title>
<g id="a_Node000012"><a xlink:href="_speed_pickup_8h.html" target="_top" xlink:title=" ">
<polygon fill="white" stroke="#666666" points="627.25,-138 545.25,-138 545.25,-118 627.25,-118 627.25,-138"/>
<text text-anchor="middle" x="586.25" y="-124.5" font-family="Arial" font-size="10.00">SpeedPickup.h</text>
</a>
</g>
</g>
<!-- Node1&#45;&gt;Node12 -->
<g id="edge17_Node000001_Node000012" class="edge">
<title>Node1&#45;&gt;Node12</title>
<g id="a_edge17_Node000001_Node000012"><a xlink:title=" ">
<path fill="none" stroke="#63b8ff" d="M501.88,-179.62C517.65,-170.16 542.28,-155.38 560.87,-144.23"/>
<polygon fill="#63b8ff" stroke="#63b8ff" points="562.66,-147.23 569.44,-139.09 559.06,-141.23 562.66,-147.23"/>
</a>
</g>
</g>
<!-- Node14 -->
<g id="Node000014" class="node">
<title>Node14</title>
<g id="a_Node000014"><a xlink:title=" ">
<polygon fill="#e0e0e0" stroke="#999999" points="778.75,-138 645.75,-138 645.75,-118 778.75,-118 778.75,-138"/>
<text text-anchor="middle" x="712.25" y="-124.5" font-family="Arial" font-size="10.00">Kismet/GameplayStatics.h</text>
</a>
</g>
</g>
<!-- Node1&#45;&gt;Node14 -->
<g id="edge21_Node000001_Node000014" class="edge">
<title>Node1&#45;&gt;Node14</title>
<g id="a_edge21_Node000001_Node000014"><a xlink:title=" ">
<path fill="none" stroke="#63b8ff" d="M521.81,-179.56C560.61,-169.26 622.87,-152.73 665.57,-141.39"/>
<polygon fill="#63b8ff" stroke="#63b8ff" points="666.29,-144.82 675.06,-138.87 664.5,-138.06 666.29,-144.82"/>
</a>
</g>
</g>
<!-- Node15 -->
<g id="Node000015" class="node">
<title>Node15</title>
<g id="a_Node000015"><a xlink:title=" ">
<polygon fill="#e0e0e0" stroke="#999999" points="948.12,-144 796.38,-144 796.38,-112 948.12,-112 948.12,-144"/>
<text text-anchor="start" x="804.38" y="-130.5" font-family="Arial" font-size="10.00">MultiplayerShooter</text>
<text text-anchor="middle" x="872.25" y="-118.5" font-family="Arial" font-size="10.00">/GameMode/MainGameMode.h</text>
</a>
</g>
</g>
<!-- Node1&#45;&gt;Node15 -->
<g id="edge22_Node000001_Node000015" class="edge">
<title>Node1&#45;&gt;Node15</title>
<g id="a_edge22_Node000001_Node000015"><a xlink:title=" ">
<path fill="none" stroke="#63b8ff" d="M545.35,-180.71C603.85,-172.38 696.26,-158.92 785.16,-144.48"/>
<polygon fill="#63b8ff" stroke="#63b8ff" points="785.46,-147.98 794.77,-142.91 784.33,-141.07 785.46,-147.98"/>
</a>
</g>
</g>
<!-- Node3 -->
<g id="Node000003" class="node">
<title>Node3</title>
<g id="a_Node000003"><a xlink:title=" ">
<polygon fill="#e0e0e0" stroke="#999999" points="511.75,-20 432.75,-20 432.75,0 511.75,0 511.75,-20"/>
<text text-anchor="middle" x="472.25" y="-6.5" font-family="Arial" font-size="10.00">CoreMinimal.h</text>
</a>
</g>
</g>
<!-- Node2&#45;&gt;Node3 -->
<g id="edge2_Node000002_Node000003" class="edge">
<title>Node2&#45;&gt;Node3</title>
<g id="a_edge2_Node000002_Node000003"><a xlink:title=" ">
<path fill="none" stroke="#63b8ff" d="M180.03,-57.06C247.95,-47 362.17,-29.95 421.35,-20.26"/>
<polygon fill="#63b8ff" stroke="#63b8ff" points="421.64,-23.76 430.93,-18.67 420.49,-16.85 421.64,-23.76"/>
</a>
</g>
</g>
<!-- Node4 -->
<g id="Node000004" class="node">
<title>Node4</title>
<g id="a_Node000004"><a xlink:title=" ">
<polygon fill="#e0e0e0" stroke="#999999" points="296,-20 170.5,-20 170.5,0 296,0 296,-20"/>
<text text-anchor="middle" x="233.25" y="-6.5" font-family="Arial" font-size="10.00">GameFramework/Actor.h</text>
</a>
</g>
</g>
<!-- Node2&#45;&gt;Node4 -->
<g id="edge3_Node000002_Node000004" class="edge">
<title>Node2&#45;&gt;Node4</title>
<g id="a_edge3_Node000002_Node000004"><a xlink:title=" ">
<path fill="none" stroke="#63b8ff" d="M144.89,-55.59C161.28,-47.32 185.41,-35.14 204.31,-25.6"/>
<polygon fill="#63b8ff" stroke="#63b8ff" points="205.76,-28.79 213.12,-21.16 202.61,-22.54 205.76,-28.79"/>
</a>
</g>
</g>
<!-- Node5 -->
<g id="Node000005" class="node">
<title>Node5</title>
<g id="a_Node000005"><a xlink:title=" ">
<polygon fill="#e0e0e0" stroke="#999999" points="152.5,-20 0,-20 0,0 152.5,0 152.5,-20"/>
<text text-anchor="middle" x="76.25" y="-6.5" font-family="Arial" font-size="10.00">PickupSpawnPoint.generated.h</text>
</a>
</g>
</g>
<!-- Node2&#45;&gt;Node5 -->
<g id="edge4_Node000002_Node000005" class="edge">
<title>Node2&#45;&gt;Node5</title>
<g id="a_edge4_Node000002_Node000005"><a xlink:title=" ">
<path fill="none" stroke="#63b8ff" d="M117.54,-55.59C110.66,-48.16 100.86,-37.58 92.53,-28.58"/>
<polygon fill="#63b8ff" stroke="#63b8ff" points="95.25,-26.37 85.89,-21.41 90.11,-31.12 95.25,-26.37"/>
</a>
</g>
</g>
<!-- Node6&#45;&gt;Node3 -->
<g id="edge6_Node000006_Node000003" class="edge">
<title>Node6&#45;&gt;Node3</title>
<g id="a_edge6_Node000006_Node000003"><a xlink:title=" ">
<path fill="none" stroke="#63b8ff" d="M346.19,-117.56C351.22,-102.74 362.77,-73.9 381.25,-56 395.51,-42.19 414.84,-31.82 432.01,-24.54"/>
<polygon fill="#63b8ff" stroke="#63b8ff" points="432.97,-27.93 440.96,-20.96 430.37,-21.43 432.97,-27.93"/>
</a>
</g>
</g>
<!-- Node6&#45;&gt;Node7 -->
<g id="edge7_Node000006_Node000007" class="edge">
<title>Node6&#45;&gt;Node7</title>
<g id="a_edge7_Node000006_Node000007"><a xlink:title=" ">
<path fill="none" stroke="#63b8ff" d="M354.81,-117.62C366.17,-108.41 383.74,-94.17 397.35,-83.14"/>
<polygon fill="#63b8ff" stroke="#63b8ff" points="399.27,-86.08 404.84,-77.07 394.86,-80.65 399.27,-86.08"/>
</a>
</g>
</g>
<!-- Node9 -->
<g id="Node000009" class="node">
<title>Node9</title>
<g id="a_Node000009"><a xlink:title=" ">
<polygon fill="#e0e0e0" stroke="#999999" points="334.62,-76 197.88,-76 197.88,-56 334.62,-56 334.62,-76"/>
<text text-anchor="middle" x="266.25" y="-62.5" font-family="Arial" font-size="10.00">DamagePickup.generated.h</text>
</a>
</g>
</g>
<!-- Node6&#45;&gt;Node9 -->
<g id="edge11_Node000006_Node000009" class="edge">
<title>Node6&#45;&gt;Node9</title>
<g id="a_edge11_Node000006_Node000009"><a xlink:title=" ">
<path fill="none" stroke="#63b8ff" d="M331.22,-117.62C319.47,-108.47 301.33,-94.34 287.21,-83.33"/>
<polygon fill="#63b8ff" stroke="#63b8ff" points="289.43,-80.63 279.39,-77.24 285.13,-86.15 289.43,-80.63"/>
</a>
</g>
</g>
<!-- Node7&#45;&gt;Node3 -->
<g id="edge8_Node000007_Node000003" class="edge">
<title>Node7&#45;&gt;Node3</title>
<g id="a_edge8_Node000007_Node000003"><a xlink:title=" ">
<path fill="none" stroke="#63b8ff" d="M426.83,-55.59C434.48,-48.08 445.41,-37.35 454.63,-28.3"/>
<polygon fill="#63b8ff" stroke="#63b8ff" points="457.02,-30.86 461.7,-21.36 452.11,-25.87 457.02,-30.86"/>
</a>
</g>
</g>
<!-- Node7&#45;&gt;Node4 -->
<g id="edge9_Node000007_Node000004" class="edge">
<title>Node7&#45;&gt;Node4</title>
<g id="a_edge9_Node000007_Node000004"><a xlink:title=" ">
<path fill="none" stroke="#63b8ff" d="M389.7,-56.92C359.67,-48.1 311.22,-33.88 276.19,-23.6"/>
<polygon fill="#63b8ff" stroke="#63b8ff" points="277.36,-20.3 266.78,-20.84 275.39,-27.01 277.36,-20.3"/>
</a>
</g>
</g>
<!-- Node8 -->
<g id="Node000008" class="node">
<title>Node8</title>
<g id="a_Node000008"><a xlink:title=" ">
<polygon fill="#e0e0e0" stroke="#999999" points="414.25,-20 314.25,-20 314.25,0 414.25,0 414.25,-20"/>
<text text-anchor="middle" x="364.25" y="-6.5" font-family="Arial" font-size="10.00">Pickup.generated.h</text>
</a>
</g>
</g>
<!-- Node7&#45;&gt;Node8 -->
<g id="edge10_Node000007_Node000008" class="edge">
<title>Node7&#45;&gt;Node8</title>
<g id="a_edge10_Node000007_Node000008"><a xlink:title=" ">
<path fill="none" stroke="#63b8ff" d="M408.02,-55.59C400.65,-48.08 390.12,-37.35 381.23,-28.3"/>
<polygon fill="#63b8ff" stroke="#63b8ff" points="383.94,-26.06 374.44,-21.38 378.94,-30.97 383.94,-26.06"/>
</a>
</g>
</g>
<!-- Node10&#45;&gt;Node3 -->
<g id="edge13_Node000010_Node000003" class="edge">
<title>Node10&#45;&gt;Node3</title>
<g id="a_edge13_Node000010_Node000003"><a xlink:title=" ">
<path fill="none" stroke="#63b8ff" d="M485.1,-117.51C482.85,-98.81 477.78,-56.82 474.73,-31.51"/>
<polygon fill="#63b8ff" stroke="#63b8ff" points="478.23,-31.31 473.55,-21.8 471.28,-32.15 478.23,-31.31"/>
</a>
</g>
</g>
<!-- Node10&#45;&gt;Node7 -->
<g id="edge14_Node000010_Node000007" class="edge">
<title>Node10&#45;&gt;Node7</title>
<g id="a_edge14_Node000010_Node000007"><a xlink:title=" ">
<path fill="none" stroke="#63b8ff" d="M475.47,-117.62C464.98,-108.5 448.81,-94.45 436.18,-83.46"/>
<polygon fill="#63b8ff" stroke="#63b8ff" points="438.71,-81.03 428.87,-77.11 434.12,-86.31 438.71,-81.03"/>
</a>
</g>
</g>
<!-- Node11 -->
<g id="Node000011" class="node">
<title>Node11</title>
<g id="a_Node000011"><a xlink:title=" ">
<polygon fill="#e0e0e0" stroke="#999999" points="628.5,-76 500,-76 500,-56 628.5,-56 628.5,-76"/>
<text text-anchor="middle" x="564.25" y="-62.5" font-family="Arial" font-size="10.00">HealthPickup.generated.h</text>
</a>
</g>
</g>
<!-- Node10&#45;&gt;Node11 -->
<g id="edge15_Node000010_Node000011" class="edge">
<title>Node10&#45;&gt;Node11</title>
<g id="a_edge15_Node000010_Node000011"><a xlink:title=" ">
<path fill="none" stroke="#63b8ff" d="M498.44,-117.62C510.46,-108.38 529.07,-94.07 543.43,-83.01"/>
<polygon fill="#63b8ff" stroke="#63b8ff" points="545.16,-86.1 550.95,-77.23 540.89,-80.55 545.16,-86.1"/>
</a>
</g>
</g>
<!-- Node12&#45;&gt;Node3 -->
<g id="edge18_Node000012_Node000003" class="edge">
<title>Node12&#45;&gt;Node3</title>
<g id="a_edge18_Node000012_Node000003"><a xlink:title=" ">
<path fill="none" stroke="#63b8ff" d="M617.47,-117.58C623.99,-115.68 630.84,-113.73 637.25,-112 704.34,-93.87 828.74,-108.54 783.25,-56 750.24,-17.87 602.66,-11.34 523.25,-10.66"/>
<polygon fill="#63b8ff" stroke="#63b8ff" points="523.58,-7.16 513.56,-10.61 523.54,-14.16 523.58,-7.16"/>
</a>
</g>
</g>
<!-- Node12&#45;&gt;Node7 -->
<g id="edge19_Node000012_Node000007" class="edge">
<title>Node12&#45;&gt;Node7</title>
<g id="a_edge19_Node000012_Node000007"><a xlink:title=" ">
<path fill="none" stroke="#63b8ff" d="M559.84,-117.62C531.53,-107.57 486.34,-91.53 454.43,-80.2"/>
<polygon fill="#63b8ff" stroke="#63b8ff" points="455.77,-76.96 445.18,-76.91 453.43,-83.56 455.77,-76.96"/>
</a>
</g>
</g>
<!-- Node13 -->
<g id="Node000013" class="node">
<title>Node13</title>
<g id="a_Node000013"><a xlink:title=" ">
<polygon fill="#e0e0e0" stroke="#999999" points="774.12,-76 646.38,-76 646.38,-56 774.12,-56 774.12,-76"/>
<text text-anchor="middle" x="710.25" y="-62.5" font-family="Arial" font-size="10.00">SpeedPickup.generated.h</text>
</a>
</g>
</g>
<!-- Node12&#45;&gt;Node13 -->
<g id="edge20_Node000012_Node000013" class="edge">
<title>Node12&#45;&gt;Node13</title>
<g id="a_edge20_Node000012_Node000013"><a xlink:title=" ">
<path fill="none" stroke="#63b8ff" d="M605.62,-117.62C625.74,-107.89 657.44,-92.55 680.68,-81.31"/>
<polygon fill="#63b8ff" stroke="#63b8ff" points="682.17,-84.47 689.65,-76.97 679.12,-78.17 682.17,-84.47"/>
</a>
</g>
</g>
</g>
</svg>
