<?xml version="1.0" encoding="UTF-8" standalone="no"?>
<!DOCTYPE svg PUBLIC "-//W3C//DTD SVG 1.1//EN"
 "http://www.w3.org/Graphics/SVG/1.1/DTD/svg11.dtd">
<!-- Generated by graphviz version 12.2.1 (20241206.2353)
 -->
<!-- Title: PickupSpawnPoint.h Pages: 1 -->
<svg width="401pt" height="84pt"
 viewBox="0.00 0.00 400.75 84.00" xmlns="http://www.w3.org/2000/svg" xmlns:xlink="http://www.w3.org/1999/xlink">
<g id="graph0" class="graph" transform="scale(1 1) rotate(0) translate(4 80)">
<title>PickupSpawnPoint.h</title>
<!-- Node1 -->
<g id="Node000001" class="node">
<title>Node1</title>
<g id="a_Node000001"><a xlink:title=" ">
<polygon fill="#999999" stroke="#666666" points="212.88,-76 106.12,-76 106.12,-56 212.88,-56 212.88,-76"/>
<text text-anchor="middle" x="159.5" y="-62.5" font-family="Arial" font-size="10.00">PickupSpawnPoint.h</text>
</a>
</g>
</g>
<!-- Node2 -->
<g id="Node000002" class="node">
<title>Node2</title>
<g id="a_Node000002"><a xlink:title=" ">
<polygon fill="#e0e0e0" stroke="#999999" points="79,-20 0,-20 0,0 79,0 79,-20"/>
<text text-anchor="middle" x="39.5" y="-6.5" font-family="Arial" font-size="10.00">CoreMinimal.h</text>
</a>
</g>
</g>
<!-- Node1&#45;&gt;Node2 -->
<g id="edge1_Node000001_Node000002" class="edge">
<title>Node1&#45;&gt;Node2</title>
<g id="a_edge1_Node000001_Node000002"><a xlink:title=" ">
<path fill="none" stroke="#63b8ff" d="M138.6,-55.59C119.87,-47.17 92.14,-34.69 70.78,-25.07"/>
<polygon fill="#63b8ff" stroke="#63b8ff" points="72.5,-22.01 61.95,-21.1 69.63,-28.4 72.5,-22.01"/>
</a>
</g>
</g>
<!-- Node3 -->
<g id="Node000003" class="node">
<title>Node3</title>
<g id="a_Node000003"><a xlink:title=" ">
<polygon fill="#e0e0e0" stroke="#999999" points="222.25,-20 96.75,-20 96.75,0 222.25,0 222.25,-20"/>
<text text-anchor="middle" x="159.5" y="-6.5" font-family="Arial" font-size="10.00">GameFramework/Actor.h</text>
</a>
</g>
</g>
<!-- Node1&#45;&gt;Node3 -->
<g id="edge2_Node000001_Node000003" class="edge">
<title>Node1&#45;&gt;Node3</title>
<g id="a_edge2_Node000001_Node000003"><a xlink:title=" ">
<path fill="none" stroke="#63b8ff" d="M159.5,-55.59C159.5,-49.01 159.5,-39.96 159.5,-31.73"/>
<polygon fill="#63b8ff" stroke="#63b8ff" points="163,-31.81 159.5,-21.81 156,-31.81 163,-31.81"/>
</a>
</g>
</g>
<!-- Node4 -->
<g id="Node000004" class="node">
<title>Node4</title>
<g id="a_Node000004"><a xlink:title=" ">
<polygon fill="#e0e0e0" stroke="#999999" points="392.75,-20 240.25,-20 240.25,0 392.75,0 392.75,-20"/>
<text text-anchor="middle" x="316.5" y="-6.5" font-family="Arial" font-size="10.00">PickupSpawnPoint.generated.h</text>
</a>
</g>
</g>
<!-- Node1&#45;&gt;Node4 -->
<g id="edge3_Node000001_Node000004" class="edge">
<title>Node1&#45;&gt;Node4</title>
<g id="a_edge3_Node000001_Node000004"><a xlink:title=" ">
<path fill="none" stroke="#63b8ff" d="M186.85,-55.59C212.13,-46.9 249.96,-33.89 278.23,-24.16"/>
<polygon fill="#63b8ff" stroke="#63b8ff" points="279.19,-27.53 287.51,-20.97 276.91,-20.91 279.19,-27.53"/>
</a>
</g>
</g>
</g>
</svg>
