<?xml version="1.0" encoding="UTF-8" standalone="no"?>
<!DOCTYPE svg PUBLIC "-//W3C//DTD SVG 1.1//EN"
 "http://www.w3.org/Graphics/SVG/1.1/DTD/svg11.dtd">
<!-- Generated by graphviz version 12.2.1 (20241206.2353)
 -->
<!-- Title: Pickup.h Pages: 1 -->
<svg width="478pt" height="140pt"
 viewBox="0.00 0.00 478.12 140.00" xmlns="http://www.w3.org/2000/svg" xmlns:xlink="http://www.w3.org/1999/xlink">
<g id="graph0" class="graph" transform="scale(1 1) rotate(0) translate(4 136)">
<title>Pickup.h</title>
<!-- Node1 -->
<g id="Node000001" class="node">
<title>Node1</title>
<g id="a_Node000001"><a xlink:title=" ">
<polygon fill="#999999" stroke="#666666" points="273.88,-132 219.62,-132 219.62,-112 273.88,-112 273.88,-132"/>
<text text-anchor="middle" x="246.75" y="-118.5" font-family="Arial" font-size="10.00">Pickup.h</text>
</a>
</g>
</g>
<!-- Node2 -->
<g id="Node000002" class="node">
<title>Node2</title>
<g id="a_Node000002"><a xlink:href="_damage_pickup_8h.html" target="_top" xlink:title=" ">
<polygon fill="white" stroke="#666666" points="149.25,-76 58.25,-76 58.25,-56 149.25,-56 149.25,-76"/>
<text text-anchor="middle" x="103.75" y="-62.5" font-family="Arial" font-size="10.00">DamagePickup.h</text>
</a>
</g>
</g>
<!-- Node1&#45;&gt;Node2 -->
<g id="edge1_Node000001_Node000002" class="edge">
<title>Node1&#45;&gt;Node2</title>
<g id="a_edge1_Node000001_Node000002"><a xlink:title=" ">
<path fill="none" stroke="#63b8ff" d="M211.09,-107.53C185.49,-97.87 151.64,-85.08 128.85,-76.48"/>
<polygon fill="#63b8ff" stroke="#63b8ff" points="209.83,-110.8 220.43,-111.06 212.31,-104.25 209.83,-110.8"/>
</a>
</g>
</g>
<!-- Node4 -->
<g id="Node000004" class="node">
<title>Node4</title>
<g id="a_Node000004"><a xlink:href="_pickup_spawn_point_8cpp.html" target="_top" xlink:title=" ">
<polygon fill="white" stroke="#666666" points="236.38,-20 119.12,-20 119.12,0 236.38,0 236.38,-20"/>
<text text-anchor="middle" x="177.75" y="-6.5" font-family="Arial" font-size="10.00">PickupSpawnPoint.cpp</text>
</a>
</g>
</g>
<!-- Node1&#45;&gt;Node4 -->
<g id="edge8_Node000001_Node000004" class="edge">
<title>Node1&#45;&gt;Node4</title>
<g id="a_edge8_Node000001_Node000004"><a xlink:title=" ">
<path fill="none" stroke="#63b8ff" d="M223.44,-104.61C213.97,-96.89 203.65,-86.97 196.75,-76 185.61,-58.28 180.78,-33.78 178.86,-20.49"/>
<polygon fill="#63b8ff" stroke="#63b8ff" points="221.21,-107.31 231.27,-110.62 225.47,-101.76 221.21,-107.31"/>
</a>
</g>
</g>
<!-- Node5 -->
<g id="Node000005" class="node">
<title>Node5</title>
<g id="a_Node000005"><a xlink:href="_health_pickup_8h.html" target="_top" xlink:title=" ">
<polygon fill="white" stroke="#666666" points="288.12,-76 205.38,-76 205.38,-56 288.12,-56 288.12,-76"/>
<text text-anchor="middle" x="246.75" y="-62.5" font-family="Arial" font-size="10.00">HealthPickup.h</text>
</a>
</g>
</g>
<!-- Node1&#45;&gt;Node5 -->
<g id="edge4_Node000001_Node000005" class="edge">
<title>Node1&#45;&gt;Node5</title>
<g id="a_edge4_Node000001_Node000005"><a xlink:title=" ">
<path fill="none" stroke="#63b8ff" d="M246.75,-100.13C246.75,-91.9 246.75,-82.85 246.75,-76.3"/>
<polygon fill="#63b8ff" stroke="#63b8ff" points="243.25,-100.08 246.75,-110.08 250.25,-100.08 243.25,-100.08"/>
</a>
</g>
</g>
<!-- Node7 -->
<g id="Node000007" class="node">
<title>Node7</title>
<g id="a_Node000007"><a xlink:href="_pickup_8cpp.html" target="_top" xlink:title=" ">
<polygon fill="white" stroke="#666666" points="470.12,-76 405.38,-76 405.38,-56 470.12,-56 470.12,-76"/>
<text text-anchor="middle" x="437.75" y="-62.5" font-family="Arial" font-size="10.00">Pickup.cpp</text>
</a>
</g>
</g>
<!-- Node1&#45;&gt;Node7 -->
<g id="edge7_Node000001_Node000007" class="edge">
<title>Node1&#45;&gt;Node7</title>
<g id="a_edge7_Node000001_Node000007"><a xlink:title=" ">
<path fill="none" stroke="#63b8ff" d="M284.91,-110.21C320.06,-100.27 371.67,-85.68 404.99,-76.26"/>
<polygon fill="#63b8ff" stroke="#63b8ff" points="284.24,-106.76 275.57,-112.85 286.15,-113.5 284.24,-106.76"/>
</a>
</g>
</g>
<!-- Node8 -->
<g id="Node000008" class="node">
<title>Node8</title>
<g id="a_Node000008"><a xlink:href="_speed_pickup_8h.html" target="_top" xlink:title=" ">
<polygon fill="white" stroke="#666666" points="387.75,-76 305.75,-76 305.75,-56 387.75,-56 387.75,-76"/>
<text text-anchor="middle" x="346.75" y="-62.5" font-family="Arial" font-size="10.00">SpeedPickup.h</text>
</a>
</g>
</g>
<!-- Node1&#45;&gt;Node8 -->
<g id="edge9_Node000001_Node000008" class="edge">
<title>Node1&#45;&gt;Node8</title>
<g id="a_edge9_Node000001_Node000008"><a xlink:title=" ">
<path fill="none" stroke="#63b8ff" d="M273.88,-106.35C291.49,-96.84 313.9,-84.74 329.2,-76.48"/>
<polygon fill="#63b8ff" stroke="#63b8ff" points="272.64,-103.04 265.5,-110.87 275.96,-109.2 272.64,-103.04"/>
</a>
</g>
</g>
<!-- Node3 -->
<g id="Node000003" class="node">
<title>Node3</title>
<g id="a_Node000003"><a xlink:href="_damage_pickup_8cpp.html" target="_top" xlink:title=" ">
<polygon fill="white" stroke="#666666" points="101.5,-20 0,-20 0,0 101.5,0 101.5,-20"/>
<text text-anchor="middle" x="50.75" y="-6.5" font-family="Arial" font-size="10.00">DamagePickup.cpp</text>
</a>
</g>
</g>
<!-- Node2&#45;&gt;Node3 -->
<g id="edge2_Node000002_Node000003" class="edge">
<title>Node2&#45;&gt;Node3</title>
<g id="a_edge2_Node000002_Node000003"><a xlink:title=" ">
<path fill="none" stroke="#63b8ff" d="M86.64,-47.57C77.74,-38.5 67.22,-27.78 59.88,-20.3"/>
<polygon fill="#63b8ff" stroke="#63b8ff" points="83.96,-49.83 93.46,-54.51 88.95,-44.93 83.96,-49.83"/>
</a>
</g>
</g>
<!-- Node2&#45;&gt;Node4 -->
<g id="edge3_Node000002_Node000004" class="edge">
<title>Node2&#45;&gt;Node4</title>
<g id="a_edge3_Node000002_Node000004"><a xlink:title=" ">
<path fill="none" stroke="#63b8ff" d="M125.74,-48.95C138.54,-39.61 154.23,-28.16 165.01,-20.3"/>
<polygon fill="#63b8ff" stroke="#63b8ff" points="123.88,-45.98 117.86,-54.7 128,-51.63 123.88,-45.98"/>
</a>
</g>
</g>
<!-- Node5&#45;&gt;Node4 -->
<g id="edge6_Node000005_Node000004" class="edge">
<title>Node5&#45;&gt;Node4</title>
<g id="a_edge6_Node000005_Node000004"><a xlink:title=" ">
<path fill="none" stroke="#63b8ff" d="M225.9,-48.68C214.02,-39.39 199.58,-28.09 189.63,-20.3"/>
<polygon fill="#63b8ff" stroke="#63b8ff" points="223.51,-51.25 233.54,-54.66 227.82,-45.74 223.51,-51.25"/>
</a>
</g>
</g>
<!-- Node6 -->
<g id="Node000006" class="node">
<title>Node6</title>
<g id="a_Node000006"><a xlink:href="_health_pickup_8cpp.html" target="_top" xlink:title=" ">
<polygon fill="white" stroke="#666666" points="347.38,-20 254.12,-20 254.12,0 347.38,0 347.38,-20"/>
<text text-anchor="middle" x="300.75" y="-6.5" font-family="Arial" font-size="10.00">HealthPickup.cpp</text>
</a>
</g>
</g>
<!-- Node5&#45;&gt;Node6 -->
<g id="edge5_Node000005_Node000006" class="edge">
<title>Node5&#45;&gt;Node6</title>
<g id="a_edge5_Node000005_Node000006"><a xlink:title=" ">
<path fill="none" stroke="#63b8ff" d="M264.18,-47.57C273.25,-38.5 283.97,-27.78 291.45,-20.3"/>
<polygon fill="#63b8ff" stroke="#63b8ff" points="261.82,-44.98 257.23,-54.52 266.77,-49.93 261.82,-44.98"/>
</a>
</g>
</g>
<!-- Node8&#45;&gt;Node4 -->
<g id="edge10_Node000008_Node000004" class="edge">
<title>Node8&#45;&gt;Node4</title>
<g id="a_edge10_Node000008_Node000004"><a xlink:title=" ">
<path fill="none" stroke="#63b8ff" d="M306.62,-52.18C276.16,-42.44 234.95,-29.28 207.42,-20.48"/>
<polygon fill="#63b8ff" stroke="#63b8ff" points="305.28,-55.42 315.87,-55.13 307.41,-48.76 305.28,-55.42"/>
</a>
</g>
</g>
<!-- Node9 -->
<g id="Node000009" class="node">
<title>Node9</title>
<g id="a_Node000009"><a xlink:href="_speed_pickup_8cpp.html" target="_top" xlink:title=" ">
<polygon fill="white" stroke="#666666" points="458,-20 365.5,-20 365.5,0 458,0 458,-20"/>
<text text-anchor="middle" x="411.75" y="-6.5" font-family="Arial" font-size="10.00">SpeedPickup.cpp</text>
</a>
</g>
</g>
<!-- Node8&#45;&gt;Node9 -->
<g id="edge11_Node000008_Node000009" class="edge">
<title>Node8&#45;&gt;Node9</title>
<g id="a_edge11_Node000008_Node000009"><a xlink:title=" ">
<path fill="none" stroke="#63b8ff" d="M366.73,-48.4C377.85,-39.17 391.28,-28.01 400.56,-20.3"/>
<polygon fill="#63b8ff" stroke="#63b8ff" points="364.69,-45.54 359.24,-54.63 369.16,-50.93 364.69,-45.54"/>
</a>
</g>
</g>
</g>
</svg>
