<?xml version="1.0" encoding="UTF-8" standalone="no"?>
<!DOCTYPE svg PUBLIC "-//W3C//DTD SVG 1.1//EN"
 "http://www.w3.org/Graphics/SVG/1.1/DTD/svg11.dtd">
<!-- Generated by graphviz version 12.2.1 (20241206.2353)
 -->
<!-- Title: APickup Pages: 1 -->
<!--zoomable 460 -->

<svg id="main" version="1.1" xmlns="http://www.w3.org/2000/svg" xmlns:xlink="http://www.w3.org/1999/xlink" xml:space="preserve" onload="init(evt)">

<style type="text/css"><![CDATA[
.node, .edge {opacity: 0.7;}
.node.selected, .edge.selected {opacity: 1;}
.edge:hover path { stroke: red; }
.edge:hover polygon { stroke: red; fill: red; }
]]></style>

<defs>
  <circle id="rim" cx="0" cy="0" r="7"/>
  <circle id="rim2" cx="0" cy="0" r="3.5"/>
  <g id="zoomPlus">
    <use xlink:href="#rim" fill="#404040"><set attributeName="fill" to="#808080" begin="zoomplus.mouseover" end="zoomplus.mouseout"/></use>
    <path d="M-4,0h8M0,-4v8" fill="none" stroke="white" stroke-width="1.5" pointer-events="none"/>
  </g>
  <g id="zoomMin">
    <use xlink:href="#rim" fill="#404040"><set attributeName="fill" to="#808080" begin="zoomminus.mouseover" end="zoomminus.mouseout"/></use>
    <path d="M-4,0h8" fill="none" stroke="white" stroke-width="1.5" pointer-events="none"/>
  </g>
  <g id="arrowUp" transform="translate(30 24)">
    <use xlink:href="#rim"/>
    <path pointer-events="none" fill="none" stroke="white" stroke-width="1.5" d="M0,-3.0v7 M-2.5,-0.5L0,-3.0L2.5,-0.5"/>
  </g>
  <g id="arrowRight" transform="rotate(90) translate(36 -43)">
    <use xlink:href="#rim"/>
    <path pointer-events="none" fill="none" stroke="white" stroke-width="1.5" d="M0,-3.0v7 M-2.5,-0.5L0,-3.0L2.5,-0.5"/>
  </g>
  <g id="arrowDown" transform="rotate(180) translate(-30 -48)">
    <use xlink:href="#rim"/>
    <path pointer-events="none" fill="none" stroke="white" stroke-width="1.5" d="M0,-3.0v7 M-2.5,-0.5L0,-3.0L2.5,-0.5"/>
  </g>
  <g id="arrowLeft" transform="rotate(270) translate(-36 17)">
    <use xlink:href="#rim"/>
    <path pointer-events="none" fill="none" stroke="white" stroke-width="1.5" d="M0,-3.0v7 M-2.5,-0.5L0,-3.0L2.5,-0.5"/>
  </g>
  <g id="resetDef">
    <use xlink:href="#rim2" fill="#404040"><set attributeName="fill" to="#808080" begin="reset.mouseover" end="reset.mouseout"/></use>
  </g>
</defs>
<script type="application/ecmascript">
var viewWidth = 347;
var viewHeight = 460;
var sectionId = 'dynsection-0';
</script>
<script type="application/ecmascript" xlink:href="svg.min.js"/>
<svg id="graph" class="graph">
<g id="viewport">
<title>APickup</title>
<!-- Node1 -->
<g id="Node000001" class="node">
<title>Node1</title>
<g id="a_Node000001"><a xlink:title=" ">
<polygon fill="#999999" stroke="none" points="239,-364 100.25,-364 100.25,-136 239,-136 239,-364"/>
<text text-anchor="start" x="151.25" y="-350.5" font-family="Arial" font-size="10.00">APickup</text>
<text text-anchor="start" x="105.75" y="-334.5" font-family="Arial" font-size="10.00">&#45;</text>
<text text-anchor="start" x="114.25" y="-334.5" font-family="Arial" font-size="10.00">BindOverlapTimer</text>
<text text-anchor="start" x="105.75" y="-318.5" font-family="Arial" font-size="10.00">&#45;</text>
<text text-anchor="start" x="114.25" y="-318.5" font-family="Arial" font-size="10.00">BindOverlapTime</text>
<text text-anchor="start" x="105.75" y="-302.5" font-family="Arial" font-size="10.00">&#45;</text>
<text text-anchor="start" x="114.25" y="-302.5" font-family="Arial" font-size="10.00">OverlapSphere</text>
<text text-anchor="start" x="105.75" y="-286.5" font-family="Arial" font-size="10.00">&#45;</text>
<text text-anchor="start" x="114.25" y="-286.5" font-family="Arial" font-size="10.00">PickupSound</text>
<text text-anchor="start" x="105.75" y="-270.5" font-family="Arial" font-size="10.00">&#45;</text>
<text text-anchor="start" x="114.25" y="-270.5" font-family="Arial" font-size="10.00">PickupMesh</text>
<text text-anchor="start" x="105.75" y="-254.5" font-family="Arial" font-size="10.00">&#45;</text>
<text text-anchor="start" x="114.25" y="-254.5" font-family="Arial" font-size="10.00">PickupEffectComponent</text>
<text text-anchor="start" x="105.75" y="-238.5" font-family="Arial" font-size="10.00">&#45;</text>
<text text-anchor="start" x="114.25" y="-238.5" font-family="Arial" font-size="10.00">PickupEffect</text>
<text text-anchor="start" x="104.25" y="-222.5" font-family="Arial" font-size="10.00">+</text>
<text text-anchor="start" x="114.25" y="-222.5" font-family="Arial" font-size="10.00">APickup()</text>
<text text-anchor="start" x="104.25" y="-206.5" font-family="Arial" font-size="10.00">+</text>
<text text-anchor="start" x="114.25" y="-206.5" font-family="Arial" font-size="10.00">Tick()</text>
<text text-anchor="start" x="104.25" y="-190.5" font-family="Arial" font-size="10.00">+</text>
<text text-anchor="start" x="114.25" y="-190.5" font-family="Arial" font-size="10.00">Destroyed()</text>
<text text-anchor="start" x="104.62" y="-174.5" font-family="Arial" font-size="10.00">#</text>
<text text-anchor="start" x="114.25" y="-174.5" font-family="Arial" font-size="10.00">BeginPlay()</text>
<text text-anchor="start" x="104.62" y="-158.5" font-family="Arial" font-size="10.00">#</text>
<text text-anchor="start" x="114.25" y="-158.5" font-family="Arial" font-size="10.00">OnSphereOverlap()</text>
<text text-anchor="start" x="105.75" y="-142.5" font-family="Arial" font-size="10.00">&#45;</text>
<text text-anchor="start" x="114.25" y="-142.5" font-family="Arial" font-size="10.00">BindOverlapTimerFinished()</text>
<polygon fill="#666666" stroke="#666666" points="100.25,-346 100.25,-346 239,-346 239,-346 100.25,-346"/>
<polygon fill="#666666" stroke="#666666" points="100.25,-234 100.25,-234 112.25,-234 112.25,-234 100.25,-234"/>
<polygon fill="#666666" stroke="#666666" points="112.25,-234 112.25,-234 239,-234 239,-234 112.25,-234"/>
<polygon fill="none" stroke="#666666" points="100.25,-136 100.25,-364 239,-364 239,-136 100.25,-136"/>
</a>
</g>
</g>
<!-- Node3 -->
<g id="Node000003" class="node">
<title>Node3</title>
<g id="a_Node000003"><a xlink:href="class_a_damage_pickup.html" target="_top" xlink:title=" ">
<polygon fill="white" stroke="none" points="101.25,-92 0,-92 0,-8 101.25,-8 101.25,-92"/>
<text text-anchor="start" x="13.88" y="-78.5" font-family="Arial" font-size="10.00">ADamagePickup</text>
<text text-anchor="start" x="4" y="-62.5" font-family="Arial" font-size="10.00">+</text>
<text text-anchor="start" x="14" y="-62.5" font-family="Arial" font-size="10.00">Name</text>
<text text-anchor="start" x="4" y="-46.5" font-family="Arial" font-size="10.00">+</text>
<text text-anchor="start" x="14" y="-46.5" font-family="Arial" font-size="10.00">BaseDamageBuff</text>
<text text-anchor="start" x="4" y="-30.5" font-family="Arial" font-size="10.00">+</text>
<text text-anchor="start" x="14" y="-30.5" font-family="Arial" font-size="10.00">DamageBuffTime</text>
<text text-anchor="start" x="4.38" y="-14.5" font-family="Arial" font-size="10.00">#</text>
<text text-anchor="start" x="14" y="-14.5" font-family="Arial" font-size="10.00">OnSphereOverlap()</text>
<polygon fill="#666666" stroke="#666666" points="0,-74 0,-74 101.25,-74 101.25,-74 0,-74"/>
<polygon fill="#666666" stroke="#666666" points="0,-26 0,-26 12,-26 12,-26 0,-26"/>
<polygon fill="#666666" stroke="#666666" points="12,-26 12,-26 101.25,-26 101.25,-26 12,-26"/>
<polygon fill="none" stroke="#666666" points="0,-8 0,-92 101.25,-92 101.25,-8 0,-8"/>
</a>
</g>
</g>
<!-- Node1&#45;&gt;Node3 -->
<g id="edge2_Node000001_Node000003" class="edge">
<title>Node1&#45;&gt;Node3</title>
<g id="a_edge2_Node000001_Node000003"><a xlink:title=" ">
<path fill="none" stroke="#63b8ff" d="M96.04,-126.56C88.59,-114.18 81.46,-102.31 75.15,-91.8"/>
<polygon fill="none" stroke="#63b8ff" points="92.85,-128.05 101,-134.82 98.85,-124.45 92.85,-128.05"/>
</a>
</g>
</g>
<!-- Node4 -->
<g id="Node000004" class="node">
<title>Node4</title>
<g id="a_Node000004"><a xlink:href="class_a_health_pickup.html" target="_top" xlink:title=" ">
<polygon fill="white" stroke="none" points="220.25,-100 119,-100 119,0 220.25,0 220.25,-100"/>
<text text-anchor="start" x="137" y="-86.5" font-family="Arial" font-size="10.00">AHealthPickup</text>
<text text-anchor="start" x="123" y="-70.5" font-family="Arial" font-size="10.00">+</text>
<text text-anchor="start" x="133" y="-70.5" font-family="Arial" font-size="10.00">Name</text>
<text text-anchor="start" x="123" y="-54.5" font-family="Arial" font-size="10.00">+</text>
<text text-anchor="start" x="133" y="-54.5" font-family="Arial" font-size="10.00">HealAmount</text>
<text text-anchor="start" x="123" y="-38.5" font-family="Arial" font-size="10.00">+</text>
<text text-anchor="start" x="133" y="-38.5" font-family="Arial" font-size="10.00">HealingTime</text>
<text text-anchor="start" x="123" y="-22.5" font-family="Arial" font-size="10.00">+</text>
<text text-anchor="start" x="133" y="-22.5" font-family="Arial" font-size="10.00">AHealthPickup()</text>
<text text-anchor="start" x="123.38" y="-6.5" font-family="Arial" font-size="10.00">#</text>
<text text-anchor="start" x="133" y="-6.5" font-family="Arial" font-size="10.00">OnSphereOverlap()</text>
<polygon fill="#666666" stroke="#666666" points="119,-82 119,-82 220.25,-82 220.25,-82 119,-82"/>
<polygon fill="#666666" stroke="#666666" points="119,-34 119,-34 131,-34 131,-34 119,-34"/>
<polygon fill="#666666" stroke="#666666" points="131,-34 131,-34 220.25,-34 220.25,-34 131,-34"/>
<polygon fill="none" stroke="#666666" points="119,0 119,-100 220.25,-100 220.25,0 119,0"/>
</a>
</g>
</g>
<!-- Node1&#45;&gt;Node4 -->
<g id="edge3_Node000001_Node000004" class="edge">
<title>Node1&#45;&gt;Node4</title>
<g id="a_edge3_Node000001_Node000004"><a xlink:title=" ">
<path fill="none" stroke="#63b8ff" d="M169.62,-124.64C169.62,-116.01 169.62,-107.66 169.62,-99.86"/>
<polygon fill="none" stroke="#63b8ff" points="166.13,-124.61 169.63,-134.61 173.13,-124.61 166.13,-124.61"/>
</a>
</g>
</g>
<!-- Node5 -->
<g id="Node000005" class="node">
<title>Node5</title>
<g id="a_Node000005"><a xlink:href="class_a_speed_pickup.html" target="_top" xlink:title=" ">
<polygon fill="white" stroke="none" points="339.25,-100 238,-100 238,0 339.25,0 339.25,-100"/>
<text text-anchor="start" x="256.38" y="-86.5" font-family="Arial" font-size="10.00">ASpeedPickup</text>
<text text-anchor="start" x="242" y="-70.5" font-family="Arial" font-size="10.00">+</text>
<text text-anchor="start" x="252" y="-70.5" font-family="Arial" font-size="10.00">Name</text>
<text text-anchor="start" x="242" y="-54.5" font-family="Arial" font-size="10.00">+</text>
<text text-anchor="start" x="252" y="-54.5" font-family="Arial" font-size="10.00">BaseSpeedBuff</text>
<text text-anchor="start" x="242" y="-38.5" font-family="Arial" font-size="10.00">+</text>
<text text-anchor="start" x="252" y="-38.5" font-family="Arial" font-size="10.00">CrouchSpeedBuff</text>
<text text-anchor="start" x="242" y="-22.5" font-family="Arial" font-size="10.00">+</text>
<text text-anchor="start" x="252" y="-22.5" font-family="Arial" font-size="10.00">SpeedBuffTime</text>
<text text-anchor="start" x="242.38" y="-6.5" font-family="Arial" font-size="10.00">#</text>
<text text-anchor="start" x="252" y="-6.5" font-family="Arial" font-size="10.00">OnSphereOverlap()</text>
<polygon fill="#666666" stroke="#666666" points="238,-82 238,-82 339.25,-82 339.25,-82 238,-82"/>
<polygon fill="#666666" stroke="#666666" points="238,-18 238,-18 250,-18 250,-18 238,-18"/>
<polygon fill="#666666" stroke="#666666" points="250,-18 250,-18 339.25,-18 339.25,-18 250,-18"/>
<polygon fill="none" stroke="#666666" points="238,0 238,-100 339.25,-100 339.25,0 238,0"/>
</a>
</g>
</g>
<!-- Node1&#45;&gt;Node5 -->
<g id="edge4_Node000001_Node000005" class="edge">
<title>Node1&#45;&gt;Node5</title>
<g id="a_edge4_Node000001_Node000005"><a xlink:title=" ">
<path fill="none" stroke="#63b8ff" d="M243.32,-126.39C248.87,-117.14 254.26,-108.18 259.26,-99.86"/>
<polygon fill="none" stroke="#63b8ff" points="240.4,-124.45 238.25,-134.82 246.4,-128.05 240.4,-124.45"/>
</a>
</g>
</g>
<!-- Node2 -->
<g id="Node000002" class="node">
<title>Node2</title>
<g id="a_Node000002"><a xlink:title=" ">
<polygon fill="white" stroke="none" points="188.62,-452 150.62,-452 150.62,-400 188.62,-400 188.62,-452"/>
<text text-anchor="start" x="154.62" y="-438.5" font-family="Arial" font-size="10.00">AActor</text>
<text text-anchor="start" x="168.12" y="-422.5" font-family="Arial" font-size="10.00"> </text>
<text text-anchor="start" x="168.12" y="-406.5" font-family="Arial" font-size="10.00"> </text>
<polygon fill="#666666" stroke="#666666" points="150.62,-434 150.62,-434 188.62,-434 188.62,-434 150.62,-434"/>
<polygon fill="#666666" stroke="#666666" points="150.62,-418 150.62,-418 188.62,-418 188.62,-418 150.62,-418"/>
<polygon fill="none" stroke="#666666" points="150.62,-400 150.62,-452 188.62,-452 188.62,-400 150.62,-400"/>
</a>
</g>
</g>
<!-- Node2&#45;&gt;Node1 -->
<g id="edge1_Node000001_Node000002" class="edge">
<title>Node2&#45;&gt;Node1</title>
<g id="a_edge1_Node000001_Node000002"><a xlink:title=" ">
<path fill="none" stroke="#63b8ff" d="M169.62,-388.72C169.62,-381.03 169.62,-372.53 169.62,-363.64"/>
<polygon fill="none" stroke="#63b8ff" points="166.13,-388.56 169.63,-398.56 173.13,-388.56 166.13,-388.56"/>
</a>
</g>
</g>
</g>
</svg>

<g id="navigator" transform="translate(0 0)" fill="#404254">
  <rect fill="#f2f5e9" fill-opacity="0.5" stroke="#606060" stroke-width=".5" x="0" y="0" width="60" height="60"/>
  <use id="zoomplus" xlink:href="#zoomPlus" x="17" y="9" onmousedown="handleZoom(evt,'in')"/>
  <use id="zoomminus" xlink:href="#zoomMin" x="42" y="9" onmousedown="handleZoom(evt,'out')"/>
  <use id="reset" xlink:href="#resetDef" x="30" y="36" onmousedown="handleReset()"/>
   <use id="arrowup" xlink:href="#arrowUp" x="0" y="0" onmousedown="handlePan(0,-1)"/>
  <use id="arrowright" xlink:href="#arrowRight" x="0" y="0" onmousedown="handlePan(1,0)"/>
  <use id="arrowdown" xlink:href="#arrowDown" x="0" y="0" onmousedown="handlePan(0,1)"/>
  <use id="arrowleft" xlink:href="#arrowLeft" x="0" y="0" onmousedown="handlePan(-1,0)"/>
</g>
<svg viewBox="0 0 15 15" width="100%" height="30px" preserveAspectRatio="xMaxYMin meet">
 <g id="arrow_out" transform="scale(0.3 0.3)">
  <a xlink:href="class_a_pickup__inherit__graph_org.svg" target="_base">
   <rect id="button" ry="5" rx="5" y="6" x="6" height="38" width="38"
        fill="#f2f5e9" fill-opacity="0.5" stroke="#606060" stroke-width="1.0"/>
   <path id="arrow"
     d="M 11.500037,31.436501 C 11.940474,20.09759 22.043105,11.32322 32.158766,21.979434 L 37.068811,17.246167 C 37.068811,17.246167 37.088388,32 37.088388,32 L 22.160133,31.978069 C 22.160133,31.978069 26.997745,27.140456 26.997745,27.140456 C 18.528582,18.264221 13.291696,25.230495 11.500037,31.436501 z"
     style="fill:#404040;"/>
  </a>
 </g>
</svg>

<style type='text/css'>
<![CDATA[
[data-mouse-over-selected='false'] { opacity: 0.7; }
[data-mouse-over-selected='true']  { opacity: 1.0; }
]]>
</style>
<script type="application/ecmascript"><![CDATA[
document.addEventListener('DOMContentLoaded', (event) => {
  highlightEdges();
  highlightAdjacentNodes();
});
]]></script>
</svg>
