<?xml version="1.0" encoding="UTF-8" standalone="no"?>
<!DOCTYPE svg PUBLIC "-//W3C//DTD SVG 1.1//EN"
 "http://www.w3.org/Graphics/SVG/1.1/DTD/svg11.dtd">
<!-- Generated by graphviz version 12.2.1 (20241206.2353)
 -->
<!-- Title: APickupSpawnPoint Pages: 1 -->
<!--zoomable 553 -->

<svg id="main" version="1.1" xmlns="http://www.w3.org/2000/svg" xmlns:xlink="http://www.w3.org/1999/xlink" xml:space="preserve" onload="init(evt)">

<style type="text/css"><![CDATA[
.node, .edge {opacity: 0.7;}
.node.selected, .edge.selected {opacity: 1;}
.edge:hover path { stroke: red; }
.edge:hover polygon { stroke: red; fill: red; }
]]></style>

<defs>
  <circle id="rim" cx="0" cy="0" r="7"/>
  <circle id="rim2" cx="0" cy="0" r="3.5"/>
  <g id="zoomPlus">
    <use xlink:href="#rim" fill="#404040"><set attributeName="fill" to="#808080" begin="zoomplus.mouseover" end="zoomplus.mouseout"/></use>
    <path d="M-4,0h8M0,-4v8" fill="none" stroke="white" stroke-width="1.5" pointer-events="none"/>
  </g>
  <g id="zoomMin">
    <use xlink:href="#rim" fill="#404040"><set attributeName="fill" to="#808080" begin="zoomminus.mouseover" end="zoomminus.mouseout"/></use>
    <path d="M-4,0h8" fill="none" stroke="white" stroke-width="1.5" pointer-events="none"/>
  </g>
  <g id="arrowUp" transform="translate(30 24)">
    <use xlink:href="#rim"/>
    <path pointer-events="none" fill="none" stroke="white" stroke-width="1.5" d="M0,-3.0v7 M-2.5,-0.5L0,-3.0L2.5,-0.5"/>
  </g>
  <g id="arrowRight" transform="rotate(90) translate(36 -43)">
    <use xlink:href="#rim"/>
    <path pointer-events="none" fill="none" stroke="white" stroke-width="1.5" d="M0,-3.0v7 M-2.5,-0.5L0,-3.0L2.5,-0.5"/>
  </g>
  <g id="arrowDown" transform="rotate(180) translate(-30 -48)">
    <use xlink:href="#rim"/>
    <path pointer-events="none" fill="none" stroke="white" stroke-width="1.5" d="M0,-3.0v7 M-2.5,-0.5L0,-3.0L2.5,-0.5"/>
  </g>
  <g id="arrowLeft" transform="rotate(270) translate(-36 17)">
    <use xlink:href="#rim"/>
    <path pointer-events="none" fill="none" stroke="white" stroke-width="1.5" d="M0,-3.0v7 M-2.5,-0.5L0,-3.0L2.5,-0.5"/>
  </g>
  <g id="resetDef">
    <use xlink:href="#rim2" fill="#404040"><set attributeName="fill" to="#808080" begin="reset.mouseover" end="reset.mouseout"/></use>
  </g>
</defs>
<script type="application/ecmascript">
var viewWidth = 231;
var viewHeight = 553;
var sectionId = 'dynsection-1';
</script>
<script type="application/ecmascript" xlink:href="svg.min.js"/>
<svg id="graph" class="graph">
<g id="viewport">
<title>APickupSpawnPoint</title>
<!-- Node1 -->
<g id="Node000001" class="node">
<title>Node1</title>
<g id="a_Node000001"><a xlink:title=" ">
<polygon fill="#999999" stroke="none" points="145.5,-180 0,-180 0,0 145.5,0 145.5,-180"/>
<text text-anchor="start" x="28.12" y="-166.5" font-family="Arial" font-size="10.00">APickupSpawnPoint</text>
<text text-anchor="start" x="4.38" y="-150.5" font-family="Arial" font-size="10.00">#</text>
<text text-anchor="start" x="14" y="-150.5" font-family="Arial" font-size="10.00">PickupClasses</text>
<text text-anchor="start" x="5.5" y="-134.5" font-family="Arial" font-size="10.00">&#45;</text>
<text text-anchor="start" x="14" y="-134.5" font-family="Arial" font-size="10.00">SpawnPickupTimer</text>
<text text-anchor="start" x="5.5" y="-118.5" font-family="Arial" font-size="10.00">&#45;</text>
<text text-anchor="start" x="14" y="-118.5" font-family="Arial" font-size="10.00">SpawnPickupTimeMin</text>
<text text-anchor="start" x="5.5" y="-102.5" font-family="Arial" font-size="10.00">&#45;</text>
<text text-anchor="start" x="14" y="-102.5" font-family="Arial" font-size="10.00">SpawnPickupTimeMax</text>
<text text-anchor="start" x="4" y="-86.5" font-family="Arial" font-size="10.00">+</text>
<text text-anchor="start" x="14" y="-86.5" font-family="Arial" font-size="10.00">APickupSpawnPoint()</text>
<text text-anchor="start" x="4" y="-70.5" font-family="Arial" font-size="10.00">+</text>
<text text-anchor="start" x="14" y="-70.5" font-family="Arial" font-size="10.00">Tick()</text>
<text text-anchor="start" x="4.38" y="-54.5" font-family="Arial" font-size="10.00">#</text>
<text text-anchor="start" x="14" y="-54.5" font-family="Arial" font-size="10.00">BeginPlay()</text>
<text text-anchor="start" x="4.38" y="-38.5" font-family="Arial" font-size="10.00">#</text>
<text text-anchor="start" x="14" y="-38.5" font-family="Arial" font-size="10.00">SpawnPickup()</text>
<text text-anchor="start" x="4.38" y="-22.5" font-family="Arial" font-size="10.00">#</text>
<text text-anchor="start" x="14" y="-22.5" font-family="Arial" font-size="10.00">SpawnPickupTimerFinished()</text>
<text text-anchor="start" x="4.38" y="-6.5" font-family="Arial" font-size="10.00">#</text>
<text text-anchor="start" x="14" y="-6.5" font-family="Arial" font-size="10.00">StartSpawnPickupTimer()</text>
<polygon fill="#666666" stroke="#666666" points="0,-162 0,-162 145.5,-162 145.5,-162 0,-162"/>
<polygon fill="#666666" stroke="#666666" points="0,-98 0,-98 12,-98 12,-98 0,-98"/>
<polygon fill="#666666" stroke="#666666" points="12,-98 12,-98 145.5,-98 145.5,-98 12,-98"/>
<polygon fill="none" stroke="#666666" points="0,0 0,-180 145.5,-180 145.5,0 0,0"/>
</a>
</g>
</g>
<!-- Node2 -->
<g id="Node000002" class="node">
<title>Node2</title>
<g id="a_Node000002"><a xlink:title=" ">
<polygon fill="white" stroke="none" points="87.75,-545 49.75,-545 49.75,-493 87.75,-493 87.75,-545"/>
<text text-anchor="start" x="53.75" y="-531.5" font-family="Arial" font-size="10.00">AActor</text>
<text text-anchor="start" x="67.25" y="-515.5" font-family="Arial" font-size="10.00"> </text>
<text text-anchor="start" x="67.25" y="-499.5" font-family="Arial" font-size="10.00"> </text>
<polygon fill="#666666" stroke="#666666" points="49.75,-527 49.75,-527 87.75,-527 87.75,-527 49.75,-527"/>
<polygon fill="#666666" stroke="#666666" points="49.75,-511 49.75,-511 87.75,-511 87.75,-511 49.75,-511"/>
<polygon fill="none" stroke="#666666" points="49.75,-493 49.75,-545 87.75,-545 87.75,-493 49.75,-493"/>
</a>
</g>
</g>
<!-- Node2&#45;&gt;Node1 -->
<g id="edge1_Node000001_Node000002" class="edge">
<title>Node2&#45;&gt;Node1</title>
<g id="a_edge1_Node000001_Node000002"><a xlink:title=" ">
<path fill="none" stroke="#63b8ff" d="M69.09,-481.74C69.71,-415.47 71.04,-273.06 71.92,-179.7"/>
<polygon fill="none" stroke="#63b8ff" points="65.59,-481.65 69,-491.68 72.59,-481.72 65.59,-481.65"/>
</a>
</g>
</g>
<!-- Node3 -->
<g id="Node000003" class="node">
<title>Node3</title>
<g id="a_Node000003"><a xlink:href="class_a_pickup.html" target="_top" xlink:title=" ">
<polygon fill="white" stroke="none" points="223.12,-456 84.38,-456 84.38,-228 223.12,-228 223.12,-456"/>
<text text-anchor="start" x="135.38" y="-442.5" font-family="Arial" font-size="10.00">APickup</text>
<text text-anchor="start" x="89.88" y="-426.5" font-family="Arial" font-size="10.00">&#45;</text>
<text text-anchor="start" x="98.38" y="-426.5" font-family="Arial" font-size="10.00">BindOverlapTimer</text>
<text text-anchor="start" x="89.88" y="-410.5" font-family="Arial" font-size="10.00">&#45;</text>
<text text-anchor="start" x="98.38" y="-410.5" font-family="Arial" font-size="10.00">BindOverlapTime</text>
<text text-anchor="start" x="89.88" y="-394.5" font-family="Arial" font-size="10.00">&#45;</text>
<text text-anchor="start" x="98.38" y="-394.5" font-family="Arial" font-size="10.00">OverlapSphere</text>
<text text-anchor="start" x="89.88" y="-378.5" font-family="Arial" font-size="10.00">&#45;</text>
<text text-anchor="start" x="98.38" y="-378.5" font-family="Arial" font-size="10.00">PickupSound</text>
<text text-anchor="start" x="89.88" y="-362.5" font-family="Arial" font-size="10.00">&#45;</text>
<text text-anchor="start" x="98.38" y="-362.5" font-family="Arial" font-size="10.00">PickupMesh</text>
<text text-anchor="start" x="89.88" y="-346.5" font-family="Arial" font-size="10.00">&#45;</text>
<text text-anchor="start" x="98.38" y="-346.5" font-family="Arial" font-size="10.00">PickupEffectComponent</text>
<text text-anchor="start" x="89.88" y="-330.5" font-family="Arial" font-size="10.00">&#45;</text>
<text text-anchor="start" x="98.38" y="-330.5" font-family="Arial" font-size="10.00">PickupEffect</text>
<text text-anchor="start" x="88.38" y="-314.5" font-family="Arial" font-size="10.00">+</text>
<text text-anchor="start" x="98.38" y="-314.5" font-family="Arial" font-size="10.00">APickup()</text>
<text text-anchor="start" x="88.38" y="-298.5" font-family="Arial" font-size="10.00">+</text>
<text text-anchor="start" x="98.38" y="-298.5" font-family="Arial" font-size="10.00">Tick()</text>
<text text-anchor="start" x="88.38" y="-282.5" font-family="Arial" font-size="10.00">+</text>
<text text-anchor="start" x="98.38" y="-282.5" font-family="Arial" font-size="10.00">Destroyed()</text>
<text text-anchor="start" x="88.75" y="-266.5" font-family="Arial" font-size="10.00">#</text>
<text text-anchor="start" x="98.38" y="-266.5" font-family="Arial" font-size="10.00">BeginPlay()</text>
<text text-anchor="start" x="88.75" y="-250.5" font-family="Arial" font-size="10.00">#</text>
<text text-anchor="start" x="98.38" y="-250.5" font-family="Arial" font-size="10.00">OnSphereOverlap()</text>
<text text-anchor="start" x="89.88" y="-234.5" font-family="Arial" font-size="10.00">&#45;</text>
<text text-anchor="start" x="98.38" y="-234.5" font-family="Arial" font-size="10.00">BindOverlapTimerFinished()</text>
<polygon fill="#666666" stroke="#666666" points="84.38,-438 84.38,-438 223.12,-438 223.12,-438 84.38,-438"/>
<polygon fill="#666666" stroke="#666666" points="84.38,-326 84.38,-326 96.38,-326 96.38,-326 84.38,-326"/>
<polygon fill="#666666" stroke="#666666" points="96.38,-326 96.38,-326 223.12,-326 223.12,-326 96.38,-326"/>
<polygon fill="none" stroke="#666666" points="84.38,-228 84.38,-456 223.12,-456 223.12,-228 84.38,-228"/>
</a>
</g>
</g>
<!-- Node2&#45;&gt;Node3 -->
<g id="edge3_Node000003_Node000002" class="edge">
<title>Node2&#45;&gt;Node3</title>
<g id="a_edge3_Node000003_Node000002"><a xlink:title=" ">
<path fill="none" stroke="#63b8ff" d="M85.71,-483.08C89.71,-474.84 94.2,-465.61 98.9,-455.92"/>
<polygon fill="none" stroke="#63b8ff" points="82.63,-481.41 81.41,-491.94 88.93,-484.47 82.63,-481.41"/>
</a>
</g>
</g>
<!-- Node3&#45;&gt;Node1 -->
<g id="edge2_Node000001_Node000003" class="edge">
<title>Node3&#45;&gt;Node1</title>
<g id="a_edge2_Node000001_Node000003"><a xlink:title=" ">
<path fill="none" stroke="#63b8ff" d="M117.16,-228.07C113.27,-216.06 109.33,-203.91 105.49,-192.05"/>
<polygon fill="none" stroke="#63b8ff" points="105.51,-192.1 99.85,-187.62 101.81,-180.68 107.46,-185.16 105.51,-192.1"/>
</a>
</g>
<text text-anchor="middle" x="150.2" y="-200.5" font-family="Arial" font-size="10.00" fill="grey"> #SpawnedPickup</text>
</g>
</g>
</svg>

<g id="navigator" transform="translate(0 0)" fill="#404254">
  <rect fill="#f2f5e9" fill-opacity="0.5" stroke="#606060" stroke-width=".5" x="0" y="0" width="60" height="60"/>
  <use id="zoomplus" xlink:href="#zoomPlus" x="17" y="9" onmousedown="handleZoom(evt,'in')"/>
  <use id="zoomminus" xlink:href="#zoomMin" x="42" y="9" onmousedown="handleZoom(evt,'out')"/>
  <use id="reset" xlink:href="#resetDef" x="30" y="36" onmousedown="handleReset()"/>
   <use id="arrowup" xlink:href="#arrowUp" x="0" y="0" onmousedown="handlePan(0,-1)"/>
  <use id="arrowright" xlink:href="#arrowRight" x="0" y="0" onmousedown="handlePan(1,0)"/>
  <use id="arrowdown" xlink:href="#arrowDown" x="0" y="0" onmousedown="handlePan(0,1)"/>
  <use id="arrowleft" xlink:href="#arrowLeft" x="0" y="0" onmousedown="handlePan(-1,0)"/>
</g>
<svg viewBox="0 0 15 15" width="100%" height="30px" preserveAspectRatio="xMaxYMin meet">
 <g id="arrow_out" transform="scale(0.3 0.3)">
  <a xlink:href="class_a_pickup_spawn_point__coll__graph_org.svg" target="_base">
   <rect id="button" ry="5" rx="5" y="6" x="6" height="38" width="38"
        fill="#f2f5e9" fill-opacity="0.5" stroke="#606060" stroke-width="1.0"/>
   <path id="arrow"
     d="M 11.500037,31.436501 C 11.940474,20.09759 22.043105,11.32322 32.158766,21.979434 L 37.068811,17.246167 C 37.068811,17.246167 37.088388,32 37.088388,32 L 22.160133,31.978069 C 22.160133,31.978069 26.997745,27.140456 26.997745,27.140456 C 18.528582,18.264221 13.291696,25.230495 11.500037,31.436501 z"
     style="fill:#404040;"/>
  </a>
 </g>
</svg>

<style type='text/css'>
<![CDATA[
[data-mouse-over-selected='false'] { opacity: 0.7; }
[data-mouse-over-selected='true']  { opacity: 1.0; }
]]>
</style>
<script type="application/ecmascript"><![CDATA[
document.addEventListener('DOMContentLoaded', (event) => {
  highlightEdges();
  highlightAdjacentNodes();
});
]]></script>
</svg>
