<?xml version="1.0" encoding="UTF-8" standalone="no"?>
<!DOCTYPE svg PUBLIC "-//W3C//DTD SVG 1.1//EN"
 "http://www.w3.org/Graphics/SVG/1.1/DTD/svg11.dtd">
<!-- Generated by graphviz version 12.2.1 (20241206.2353)
 -->
<!-- Title: ASpeedPickup Pages: 1 -->
<svg width="147pt" height="460pt"
 viewBox="0.00 0.00 146.75 460.00" xmlns="http://www.w3.org/2000/svg" xmlns:xlink="http://www.w3.org/1999/xlink">
<g id="graph0" class="graph" transform="scale(1 1) rotate(0) translate(4 456)">
<title>ASpeedPickup</title>
<!-- Node1 -->
<g id="Node000001" class="node">
<title>Node1</title>
<g id="a_Node000001"><a xlink:title=" ">
<polygon fill="#999999" stroke="none" points="120,-100 18.75,-100 18.75,0 120,0 120,-100"/>
<text text-anchor="start" x="37.12" y="-86.5" font-family="Arial" font-size="10.00">ASpeedPickup</text>
<text text-anchor="start" x="22.75" y="-70.5" font-family="Arial" font-size="10.00">+</text>
<text text-anchor="start" x="32.75" y="-70.5" font-family="Arial" font-size="10.00">Name</text>
<text text-anchor="start" x="22.75" y="-54.5" font-family="Arial" font-size="10.00">+</text>
<text text-anchor="start" x="32.75" y="-54.5" font-family="Arial" font-size="10.00">BaseSpeedBuff</text>
<text text-anchor="start" x="22.75" y="-38.5" font-family="Arial" font-size="10.00">+</text>
<text text-anchor="start" x="32.75" y="-38.5" font-family="Arial" font-size="10.00">CrouchSpeedBuff</text>
<text text-anchor="start" x="22.75" y="-22.5" font-family="Arial" font-size="10.00">+</text>
<text text-anchor="start" x="32.75" y="-22.5" font-family="Arial" font-size="10.00">SpeedBuffTime</text>
<text text-anchor="start" x="23.12" y="-6.5" font-family="Arial" font-size="10.00">#</text>
<text text-anchor="start" x="32.75" y="-6.5" font-family="Arial" font-size="10.00">OnSphereOverlap()</text>
<polygon fill="#666666" stroke="#666666" points="18.75,-82 18.75,-82 120,-82 120,-82 18.75,-82"/>
<polygon fill="#666666" stroke="#666666" points="18.75,-18 18.75,-18 30.75,-18 30.75,-18 18.75,-18"/>
<polygon fill="#666666" stroke="#666666" points="30.75,-18 30.75,-18 120,-18 120,-18 30.75,-18"/>
<polygon fill="none" stroke="#666666" points="18.75,0 18.75,-100 120,-100 120,0 18.75,0"/>
</a>
</g>
</g>
<!-- Node2 -->
<g id="Node000002" class="node">
<title>Node2</title>
<g id="a_Node000002"><a xlink:href="class_a_pickup.html" target="_top" xlink:title=" ">
<polygon fill="white" stroke="none" points="138.75,-364 0,-364 0,-136 138.75,-136 138.75,-364"/>
<text text-anchor="start" x="51" y="-350.5" font-family="Arial" font-size="10.00">APickup</text>
<text text-anchor="start" x="5.5" y="-334.5" font-family="Arial" font-size="10.00">&#45;</text>
<text text-anchor="start" x="14" y="-334.5" font-family="Arial" font-size="10.00">BindOverlapTimer</text>
<text text-anchor="start" x="5.5" y="-318.5" font-family="Arial" font-size="10.00">&#45;</text>
<text text-anchor="start" x="14" y="-318.5" font-family="Arial" font-size="10.00">BindOverlapTime</text>
<text text-anchor="start" x="5.5" y="-302.5" font-family="Arial" font-size="10.00">&#45;</text>
<text text-anchor="start" x="14" y="-302.5" font-family="Arial" font-size="10.00">OverlapSphere</text>
<text text-anchor="start" x="5.5" y="-286.5" font-family="Arial" font-size="10.00">&#45;</text>
<text text-anchor="start" x="14" y="-286.5" font-family="Arial" font-size="10.00">PickupSound</text>
<text text-anchor="start" x="5.5" y="-270.5" font-family="Arial" font-size="10.00">&#45;</text>
<text text-anchor="start" x="14" y="-270.5" font-family="Arial" font-size="10.00">PickupMesh</text>
<text text-anchor="start" x="5.5" y="-254.5" font-family="Arial" font-size="10.00">&#45;</text>
<text text-anchor="start" x="14" y="-254.5" font-family="Arial" font-size="10.00">PickupEffectComponent</text>
<text text-anchor="start" x="5.5" y="-238.5" font-family="Arial" font-size="10.00">&#45;</text>
<text text-anchor="start" x="14" y="-238.5" font-family="Arial" font-size="10.00">PickupEffect</text>
<text text-anchor="start" x="4" y="-222.5" font-family="Arial" font-size="10.00">+</text>
<text text-anchor="start" x="14" y="-222.5" font-family="Arial" font-size="10.00">APickup()</text>
<text text-anchor="start" x="4" y="-206.5" font-family="Arial" font-size="10.00">+</text>
<text text-anchor="start" x="14" y="-206.5" font-family="Arial" font-size="10.00">Tick()</text>
<text text-anchor="start" x="4" y="-190.5" font-family="Arial" font-size="10.00">+</text>
<text text-anchor="start" x="14" y="-190.5" font-family="Arial" font-size="10.00">Destroyed()</text>
<text text-anchor="start" x="4.38" y="-174.5" font-family="Arial" font-size="10.00">#</text>
<text text-anchor="start" x="14" y="-174.5" font-family="Arial" font-size="10.00">BeginPlay()</text>
<text text-anchor="start" x="4.38" y="-158.5" font-family="Arial" font-size="10.00">#</text>
<text text-anchor="start" x="14" y="-158.5" font-family="Arial" font-size="10.00">OnSphereOverlap()</text>
<text text-anchor="start" x="5.5" y="-142.5" font-family="Arial" font-size="10.00">&#45;</text>
<text text-anchor="start" x="14" y="-142.5" font-family="Arial" font-size="10.00">BindOverlapTimerFinished()</text>
<polygon fill="#666666" stroke="#666666" points="0,-346 0,-346 138.75,-346 138.75,-346 0,-346"/>
<polygon fill="#666666" stroke="#666666" points="0,-234 0,-234 12,-234 12,-234 0,-234"/>
<polygon fill="#666666" stroke="#666666" points="12,-234 12,-234 138.75,-234 138.75,-234 12,-234"/>
<polygon fill="none" stroke="#666666" points="0,-136 0,-364 138.75,-364 138.75,-136 0,-136"/>
</a>
</g>
</g>
<!-- Node2&#45;&gt;Node1 -->
<g id="edge1_Node000001_Node000002" class="edge">
<title>Node2&#45;&gt;Node1</title>
<g id="a_edge1_Node000001_Node000002"><a xlink:title=" ">
<path fill="none" stroke="#63b8ff" d="M69.38,-124.64C69.38,-116.01 69.38,-107.66 69.38,-99.86"/>
<polygon fill="none" stroke="#63b8ff" points="65.88,-124.61 69.38,-134.61 72.88,-124.61 65.88,-124.61"/>
</a>
</g>
</g>
<!-- Node3 -->
<g id="Node000003" class="node">
<title>Node3</title>
<g id="a_Node000003"><a xlink:title=" ">
<polygon fill="white" stroke="none" points="88.38,-452 50.38,-452 50.38,-400 88.38,-400 88.38,-452"/>
<text text-anchor="start" x="54.38" y="-438.5" font-family="Arial" font-size="10.00">AActor</text>
<text text-anchor="start" x="67.88" y="-422.5" font-family="Arial" font-size="10.00"> </text>
<text text-anchor="start" x="67.88" y="-406.5" font-family="Arial" font-size="10.00"> </text>
<polygon fill="#666666" stroke="#666666" points="50.38,-434 50.38,-434 88.38,-434 88.38,-434 50.38,-434"/>
<polygon fill="#666666" stroke="#666666" points="50.38,-418 50.38,-418 88.38,-418 88.38,-418 50.38,-418"/>
<polygon fill="none" stroke="#666666" points="50.38,-400 50.38,-452 88.38,-452 88.38,-400 50.38,-400"/>
</a>
</g>
</g>
<!-- Node3&#45;&gt;Node2 -->
<g id="edge2_Node000002_Node000003" class="edge">
<title>Node3&#45;&gt;Node2</title>
<g id="a_edge2_Node000002_Node000003"><a xlink:title=" ">
<path fill="none" stroke="#63b8ff" d="M69.38,-388.72C69.38,-381.03 69.38,-372.53 69.38,-363.64"/>
<polygon fill="none" stroke="#63b8ff" points="65.88,-388.56 69.38,-398.56 72.88,-388.56 65.88,-388.56"/>
</a>
</g>
</g>
</g>
</svg>
