<?xml version="1.0" encoding="UTF-8" standalone="no"?>
<!DOCTYPE svg PUBLIC "-//W3C//DTD SVG 1.1//EN"
 "http://www.w3.org/Graphics/SVG/1.1/DTD/svg11.dtd">
<!-- Generated by graphviz version 12.2.1 (20241206.2353)
 -->
<!-- Title: APickup::OnSphereOverlap Pages: 1 -->
<svg width="456pt" height="40pt"
 viewBox="0.00 0.00 455.75 40.00" xmlns="http://www.w3.org/2000/svg" xmlns:xlink="http://www.w3.org/1999/xlink">
<g id="graph0" class="graph" transform="scale(1 1) rotate(0) translate(4 36)">
<title>APickup::OnSphereOverlap</title>
<!-- Node1 -->
<g id="Node000001" class="node">
<title>Node1</title>
<g id="a_Node000001"><a xlink:title=" ">
<polygon fill="#999999" stroke="#666666" points="447.75,-26 311.75,-26 311.75,-6 447.75,-6 447.75,-26"/>
<text text-anchor="middle" x="379.75" y="-12.5" font-family="Arial" font-size="10.00">APickup::OnSphereOverlap</text>
</a>
</g>
</g>
<!-- Node2 -->
<g id="Node000002" class="node">
<title>Node2</title>
<g id="a_Node000002"><a xlink:href="class_a_pickup.html#aa3853da12c7771140235f7224dcccd78" target="_top" xlink:title=" ">
<polygon fill="white" stroke="#666666" points="275.75,-32 139,-32 139,0 275.75,0 275.75,-32"/>
<text text-anchor="start" x="147" y="-18.5" font-family="Arial" font-size="10.00">APickup::BindOverlapTimer</text>
<text text-anchor="middle" x="207.38" y="-6.5" font-family="Arial" font-size="10.00">Finished</text>
</a>
</g>
</g>
<!-- Node1&#45;&gt;Node2 -->
<g id="edge1_Node000001_Node000002" class="edge">
<title>Node1&#45;&gt;Node2</title>
<g id="a_edge1_Node000001_Node000002"><a xlink:title=" ">
<path fill="none" stroke="#63b8ff" d="M300.13,-16C292.09,-16 283.97,-16 276.06,-16"/>
<polygon fill="#63b8ff" stroke="#63b8ff" points="299.9,-19.5 309.9,-16 299.9,-12.5 299.9,-19.5"/>
</a>
</g>
</g>
<!-- Node3 -->
<g id="Node000003" class="node">
<title>Node3</title>
<g id="a_Node000003"><a xlink:href="class_a_pickup.html#ae8d20a4382a67d16f814e434e6463e87" target="_top" xlink:title=" ">
<polygon fill="white" stroke="#666666" points="103,-26 0,-26 0,-6 103,-6 103,-26"/>
<text text-anchor="middle" x="51.5" y="-12.5" font-family="Arial" font-size="10.00">APickup::BeginPlay</text>
</a>
</g>
</g>
<!-- Node2&#45;&gt;Node3 -->
<g id="edge2_Node000002_Node000003" class="edge">
<title>Node2&#45;&gt;Node3</title>
<g id="a_edge2_Node000002_Node000003"><a xlink:title=" ">
<path fill="none" stroke="#63b8ff" d="M127.62,-16C119.35,-16 111.11,-16 103.28,-16"/>
<polygon fill="#63b8ff" stroke="#63b8ff" points="127.37,-19.5 137.37,-16 127.37,-12.5 127.37,-19.5"/>
</a>
</g>
</g>
</g>
</svg>
