<?xml version="1.0" encoding="UTF-8" standalone="no"?>
<!DOCTYPE svg PUBLIC "-//W3C//DTD SVG 1.1//EN"
 "http://www.w3.org/Graphics/SVG/1.1/DTD/svg11.dtd">
<!-- Generated by graphviz version 12.2.1 (20241206.2353)
 -->
<!-- Title: APickupSpawnPoint Pages: 1 -->
<svg width="231pt" height="553pt"
 viewBox="0.00 0.00 231.12 553.00" xmlns="http://www.w3.org/2000/svg" xmlns:xlink="http://www.w3.org/1999/xlink">
<g id="graph0" class="graph" transform="scale(1 1) rotate(0) translate(4 549)">
<title>APickupSpawnPoint</title>
<!-- Node1 -->
<g id="Node000001" class="node">
<title>Node1</title>
<g id="a_Node000001"><a xlink:title=" ">
<polygon fill="#999999" stroke="none" points="145.5,-180 0,-180 0,0 145.5,0 145.5,-180"/>
<text text-anchor="start" x="28.12" y="-166.5" font-family="Arial" font-size="10.00">APickupSpawnPoint</text>
<text text-anchor="start" x="4.38" y="-150.5" font-family="Arial" font-size="10.00">#</text>
<text text-anchor="start" x="14" y="-150.5" font-family="Arial" font-size="10.00">PickupClasses</text>
<text text-anchor="start" x="5.5" y="-134.5" font-family="Arial" font-size="10.00">&#45;</text>
<text text-anchor="start" x="14" y="-134.5" font-family="Arial" font-size="10.00">SpawnPickupTimer</text>
<text text-anchor="start" x="5.5" y="-118.5" font-family="Arial" font-size="10.00">&#45;</text>
<text text-anchor="start" x="14" y="-118.5" font-family="Arial" font-size="10.00">SpawnPickupTimeMin</text>
<text text-anchor="start" x="5.5" y="-102.5" font-family="Arial" font-size="10.00">&#45;</text>
<text text-anchor="start" x="14" y="-102.5" font-family="Arial" font-size="10.00">SpawnPickupTimeMax</text>
<text text-anchor="start" x="4" y="-86.5" font-family="Arial" font-size="10.00">+</text>
<text text-anchor="start" x="14" y="-86.5" font-family="Arial" font-size="10.00">APickupSpawnPoint()</text>
<text text-anchor="start" x="4" y="-70.5" font-family="Arial" font-size="10.00">+</text>
<text text-anchor="start" x="14" y="-70.5" font-family="Arial" font-size="10.00">Tick()</text>
<text text-anchor="start" x="4.38" y="-54.5" font-family="Arial" font-size="10.00">#</text>
<text text-anchor="start" x="14" y="-54.5" font-family="Arial" font-size="10.00">BeginPlay()</text>
<text text-anchor="start" x="4.38" y="-38.5" font-family="Arial" font-size="10.00">#</text>
<text text-anchor="start" x="14" y="-38.5" font-family="Arial" font-size="10.00">SpawnPickup()</text>
<text text-anchor="start" x="4.38" y="-22.5" font-family="Arial" font-size="10.00">#</text>
<text text-anchor="start" x="14" y="-22.5" font-family="Arial" font-size="10.00">SpawnPickupTimerFinished()</text>
<text text-anchor="start" x="4.38" y="-6.5" font-family="Arial" font-size="10.00">#</text>
<text text-anchor="start" x="14" y="-6.5" font-family="Arial" font-size="10.00">StartSpawnPickupTimer()</text>
<polygon fill="#666666" stroke="#666666" points="0,-162 0,-162 145.5,-162 145.5,-162 0,-162"/>
<polygon fill="#666666" stroke="#666666" points="0,-98 0,-98 12,-98 12,-98 0,-98"/>
<polygon fill="#666666" stroke="#666666" points="12,-98 12,-98 145.5,-98 145.5,-98 12,-98"/>
<polygon fill="none" stroke="#666666" points="0,0 0,-180 145.5,-180 145.5,0 0,0"/>
</a>
</g>
</g>
<!-- Node2 -->
<g id="Node000002" class="node">
<title>Node2</title>
<g id="a_Node000002"><a xlink:title=" ">
<polygon fill="white" stroke="none" points="87.75,-545 49.75,-545 49.75,-493 87.75,-493 87.75,-545"/>
<text text-anchor="start" x="53.75" y="-531.5" font-family="Arial" font-size="10.00">AActor</text>
<text text-anchor="start" x="67.25" y="-515.5" font-family="Arial" font-size="10.00"> </text>
<text text-anchor="start" x="67.25" y="-499.5" font-family="Arial" font-size="10.00"> </text>
<polygon fill="#666666" stroke="#666666" points="49.75,-527 49.75,-527 87.75,-527 87.75,-527 49.75,-527"/>
<polygon fill="#666666" stroke="#666666" points="49.75,-511 49.75,-511 87.75,-511 87.75,-511 49.75,-511"/>
<polygon fill="none" stroke="#666666" points="49.75,-493 49.75,-545 87.75,-545 87.75,-493 49.75,-493"/>
</a>
</g>
</g>
<!-- Node2&#45;&gt;Node1 -->
<g id="edge1_Node000001_Node000002" class="edge">
<title>Node2&#45;&gt;Node1</title>
<g id="a_edge1_Node000001_Node000002"><a xlink:title=" ">
<path fill="none" stroke="#63b8ff" d="M69.09,-481.74C69.71,-415.47 71.04,-273.06 71.92,-179.7"/>
<polygon fill="none" stroke="#63b8ff" points="65.59,-481.65 69,-491.68 72.59,-481.72 65.59,-481.65"/>
</a>
</g>
</g>
<!-- Node3 -->
<g id="Node000003" class="node">
<title>Node3</title>
<g id="a_Node000003"><a xlink:href="class_a_pickup.html" target="_top" xlink:title=" ">
<polygon fill="white" stroke="none" points="223.12,-456 84.38,-456 84.38,-228 223.12,-228 223.12,-456"/>
<text text-anchor="start" x="135.38" y="-442.5" font-family="Arial" font-size="10.00">APickup</text>
<text text-anchor="start" x="89.88" y="-426.5" font-family="Arial" font-size="10.00">&#45;</text>
<text text-anchor="start" x="98.38" y="-426.5" font-family="Arial" font-size="10.00">BindOverlapTimer</text>
<text text-anchor="start" x="89.88" y="-410.5" font-family="Arial" font-size="10.00">&#45;</text>
<text text-anchor="start" x="98.38" y="-410.5" font-family="Arial" font-size="10.00">BindOverlapTime</text>
<text text-anchor="start" x="89.88" y="-394.5" font-family="Arial" font-size="10.00">&#45;</text>
<text text-anchor="start" x="98.38" y="-394.5" font-family="Arial" font-size="10.00">OverlapSphere</text>
<text text-anchor="start" x="89.88" y="-378.5" font-family="Arial" font-size="10.00">&#45;</text>
<text text-anchor="start" x="98.38" y="-378.5" font-family="Arial" font-size="10.00">PickupSound</text>
<text text-anchor="start" x="89.88" y="-362.5" font-family="Arial" font-size="10.00">&#45;</text>
<text text-anchor="start" x="98.38" y="-362.5" font-family="Arial" font-size="10.00">PickupMesh</text>
<text text-anchor="start" x="89.88" y="-346.5" font-family="Arial" font-size="10.00">&#45;</text>
<text text-anchor="start" x="98.38" y="-346.5" font-family="Arial" font-size="10.00">PickupEffectComponent</text>
<text text-anchor="start" x="89.88" y="-330.5" font-family="Arial" font-size="10.00">&#45;</text>
<text text-anchor="start" x="98.38" y="-330.5" font-family="Arial" font-size="10.00">PickupEffect</text>
<text text-anchor="start" x="88.38" y="-314.5" font-family="Arial" font-size="10.00">+</text>
<text text-anchor="start" x="98.38" y="-314.5" font-family="Arial" font-size="10.00">APickup()</text>
<text text-anchor="start" x="88.38" y="-298.5" font-family="Arial" font-size="10.00">+</text>
<text text-anchor="start" x="98.38" y="-298.5" font-family="Arial" font-size="10.00">Tick()</text>
<text text-anchor="start" x="88.38" y="-282.5" font-family="Arial" font-size="10.00">+</text>
<text text-anchor="start" x="98.38" y="-282.5" font-family="Arial" font-size="10.00">Destroyed()</text>
<text text-anchor="start" x="88.75" y="-266.5" font-family="Arial" font-size="10.00">#</text>
<text text-anchor="start" x="98.38" y="-266.5" font-family="Arial" font-size="10.00">BeginPlay()</text>
<text text-anchor="start" x="88.75" y="-250.5" font-family="Arial" font-size="10.00">#</text>
<text text-anchor="start" x="98.38" y="-250.5" font-family="Arial" font-size="10.00">OnSphereOverlap()</text>
<text text-anchor="start" x="89.88" y="-234.5" font-family="Arial" font-size="10.00">&#45;</text>
<text text-anchor="start" x="98.38" y="-234.5" font-family="Arial" font-size="10.00">BindOverlapTimerFinished()</text>
<polygon fill="#666666" stroke="#666666" points="84.38,-438 84.38,-438 223.12,-438 223.12,-438 84.38,-438"/>
<polygon fill="#666666" stroke="#666666" points="84.38,-326 84.38,-326 96.38,-326 96.38,-326 84.38,-326"/>
<polygon fill="#666666" stroke="#666666" points="96.38,-326 96.38,-326 223.12,-326 223.12,-326 96.38,-326"/>
<polygon fill="none" stroke="#666666" points="84.38,-228 84.38,-456 223.12,-456 223.12,-228 84.38,-228"/>
</a>
</g>
</g>
<!-- Node2&#45;&gt;Node3 -->
<g id="edge3_Node000003_Node000002" class="edge">
<title>Node2&#45;&gt;Node3</title>
<g id="a_edge3_Node000003_Node000002"><a xlink:title=" ">
<path fill="none" stroke="#63b8ff" d="M85.71,-483.08C89.71,-474.84 94.2,-465.61 98.9,-455.92"/>
<polygon fill="none" stroke="#63b8ff" points="82.63,-481.41 81.41,-491.94 88.93,-484.47 82.63,-481.41"/>
</a>
</g>
</g>
<!-- Node3&#45;&gt;Node1 -->
<g id="edge2_Node000001_Node000003" class="edge">
<title>Node3&#45;&gt;Node1</title>
<g id="a_edge2_Node000001_Node000003"><a xlink:title=" ">
<path fill="none" stroke="#63b8ff" d="M117.16,-228.07C113.27,-216.06 109.33,-203.91 105.49,-192.05"/>
<polygon fill="none" stroke="#63b8ff" points="105.51,-192.1 99.85,-187.62 101.81,-180.68 107.46,-185.16 105.51,-192.1"/>
</a>
</g>
<text text-anchor="middle" x="150.2" y="-200.5" font-family="Arial" font-size="10.00" fill="grey"> #SpawnedPickup</text>
</g>
</g>
</svg>
