<?xml version="1.0" encoding="UTF-8" standalone="no"?>
<!DOCTYPE svg PUBLIC "-//W3C//DTD SVG 1.1//EN"
 "http://www.w3.org/Graphics/SVG/1.1/DTD/svg11.dtd">
<!-- Generated by graphviz version 12.2.1 (20241206.2353)
 -->
<!-- Title: APickupSpawnPoint::StartSpawnPickupTimer Pages: 1 -->
<svg width="451pt" height="62pt"
 viewBox="0.00 0.00 450.50 62.00" xmlns="http://www.w3.org/2000/svg" xmlns:xlink="http://www.w3.org/1999/xlink">

<svg id="main" version="1.1" xmlns="http://www.w3.org/2000/svg" xmlns:xlink="http://www.w3.org/1999/xlink" xml:space="preserve">

<style type="text/css"><![CDATA[
.node, .edge {opacity: 0.7;}
.node.selected, .edge.selected {opacity: 1;}
.edge:hover path { stroke: red; }
.edge:hover polygon { stroke: red; fill: red; }
]]></style>
<script type="application/ecmascript" xlink:href="svg.min.js"/>
<svg id="graph" class="graph">
<g id="graph0" class="graph" transform="scale(1 1) rotate(0) translate(4 58)">
<title>APickupSpawnPoint::StartSpawnPickupTimer</title>
<!-- Node1 -->
<g id="Node000001" class="node">
<title>Node1</title>
<g id="a_Node000001"><a xlink:title=" ">
<polygon fill="#999999" stroke="#666666" points="121.75,-32 0,-32 0,0 121.75,0 121.75,-32"/>
<text text-anchor="start" x="8" y="-18.5" font-family="Arial" font-size="10.00">APickupSpawnPoint::</text>
<text text-anchor="middle" x="60.88" y="-6.5" font-family="Arial" font-size="10.00">StartSpawnPickupTimer</text>
</a>
</g>
</g>
<!-- Node2 -->
<g id="Node000002" class="node">
<title>Node2</title>
<g id="a_Node000002"><a xlink:href="class_a_pickup_spawn_point.html#a95e0f3f39e010b2150defbd852441661" target="_top" xlink:title=" ">
<polygon fill="white" stroke="#666666" points="295.25,-54 157.75,-54 157.75,-22 295.25,-22 295.25,-54"/>
<text text-anchor="start" x="165.75" y="-40.5" font-family="Arial" font-size="10.00">APickupSpawnPoint::</text>
<text text-anchor="middle" x="226.5" y="-28.5" font-family="Arial" font-size="10.00">SpawnPickupTimerFinished</text>
</a>
</g>
</g>
<!-- Node1&#45;&gt;Node2 -->
<g id="edge1_Node000001_Node000002" class="edge">
<title>Node1&#45;&gt;Node2</title>
<g id="a_edge1_Node000001_Node000002"><a xlink:title=" ">
<path fill="none" stroke="#63b8ff" d="M121.87,-24.07C129.84,-25.14 138.1,-26.25 146.32,-27.35"/>
<polygon fill="#63b8ff" stroke="#63b8ff" points="145.61,-30.79 155.99,-28.65 146.54,-23.85 145.61,-30.79"/>
</a>
</g>
</g>
<!-- Node3 -->
<g id="Node000003" class="node">
<title>Node3</title>
<g id="a_Node000003"><a xlink:href="class_a_pickup_spawn_point.html#a001dc948b03105ab7d05ed184af4abf9" target="_top" xlink:title=" ">
<polygon fill="white" stroke="#666666" points="442.5,-32 331.25,-32 331.25,0 442.5,0 442.5,-32"/>
<text text-anchor="start" x="339.25" y="-18.5" font-family="Arial" font-size="10.00">APickupSpawnPoint::</text>
<text text-anchor="middle" x="386.88" y="-6.5" font-family="Arial" font-size="10.00">SpawnPickup</text>
</a>
</g>
</g>
<!-- Node2&#45;&gt;Node3 -->
<g id="edge2_Node000002_Node000003" class="edge">
<title>Node2&#45;&gt;Node3</title>
<g id="a_edge2_Node000002_Node000003"><a xlink:title=" ">
<path fill="none" stroke="#63b8ff" d="M295.58,-28.54C303.68,-27.42 311.93,-26.27 319.99,-25.15"/>
<polygon fill="#63b8ff" stroke="#63b8ff" points="320.3,-28.64 329.72,-23.8 319.33,-21.71 320.3,-28.64"/>
</a>
</g>
</g>
<!-- Node3&#45;&gt;Node1 -->
<g id="edge3_Node000003_Node000001" class="edge">
<title>Node3&#45;&gt;Node1</title>
<g id="a_edge3_Node000003_Node000001"><a xlink:title=" ">
<path fill="none" stroke="#63b8ff" d="M330.77,-13.88C319.05,-13.52 306.74,-13.19 295.25,-13 234.15,-11.99 218.85,-12.04 157.75,-13 149.94,-13.12 141.78,-13.3 133.65,-13.51"/>
<polygon fill="#63b8ff" stroke="#63b8ff" points="133.63,-10.01 123.73,-13.78 133.82,-17.01 133.63,-10.01"/>
</a>
</g>
</g>
</g>
</svg>
</svg>

<style type='text/css'>
<![CDATA[
[data-mouse-over-selected='false'] { opacity: 0.7; }
[data-mouse-over-selected='true']  { opacity: 1.0; }
]]>
</style>
<script type="application/ecmascript"><![CDATA[
document.addEventListener('DOMContentLoaded', (event) => {
  highlightEdges();
  highlightAdjacentNodes();
});
]]></script>
</svg>
