<?xml version="1.0" encoding="UTF-8" standalone="no"?>
<!DOCTYPE svg PUBLIC "-//W3C//DTD SVG 1.1//EN"
 "http://www.w3.org/Graphics/SVG/1.1/DTD/svg11.dtd">
<!-- Generated by graphviz version 12.2.1 (20241206.2353)
 -->
<!-- Title: APickupSpawnPoint::SpawnPickup Pages: 1 -->
<svg width="451pt" height="62pt"
 viewBox="0.00 0.00 450.50 62.00" xmlns="http://www.w3.org/2000/svg" xmlns:xlink="http://www.w3.org/1999/xlink">
<g id="graph0" class="graph" transform="scale(1 1) rotate(0) translate(4 58)">
<title>APickupSpawnPoint::SpawnPickup</title>
<!-- Node1 -->
<g id="Node000001" class="node">
<title>Node1</title>
<g id="a_Node000001"><a xlink:title=" ">
<polygon fill="#999999" stroke="#666666" points="111.25,-32 0,-32 0,0 111.25,0 111.25,-32"/>
<text text-anchor="start" x="8" y="-18.5" font-family="Arial" font-size="10.00">APickupSpawnPoint::</text>
<text text-anchor="middle" x="55.62" y="-6.5" font-family="Arial" font-size="10.00">SpawnPickup</text>
</a>
</g>
</g>
<!-- Node2 -->
<g id="Node000002" class="node">
<title>Node2</title>
<g id="a_Node000002"><a xlink:href="class_a_pickup_spawn_point.html#af0bf24b834398d646efdc4bbe69835a9" target="_top" xlink:title=" ">
<polygon fill="white" stroke="#666666" points="269,-54 147.25,-54 147.25,-22 269,-22 269,-54"/>
<text text-anchor="start" x="155.25" y="-40.5" font-family="Arial" font-size="10.00">APickupSpawnPoint::</text>
<text text-anchor="middle" x="208.12" y="-28.5" font-family="Arial" font-size="10.00">StartSpawnPickupTimer</text>
</a>
</g>
</g>
<!-- Node1&#45;&gt;Node2 -->
<g id="edge1_Node000001_Node000002" class="edge">
<title>Node1&#45;&gt;Node2</title>
<g id="a_edge1_Node000001_Node000002"><a xlink:title=" ">
<path fill="none" stroke="#63b8ff" d="M111.38,-24C119.21,-25.15 127.36,-26.34 135.45,-27.52"/>
<polygon fill="#63b8ff" stroke="#63b8ff" points="134.91,-30.98 145.31,-28.96 135.92,-24.05 134.91,-30.98"/>
</a>
</g>
</g>
<!-- Node3 -->
<g id="Node000003" class="node">
<title>Node3</title>
<g id="a_Node000003"><a xlink:href="class_a_pickup_spawn_point.html#a95e0f3f39e010b2150defbd852441661" target="_top" xlink:title=" ">
<polygon fill="white" stroke="#666666" points="442.5,-32 305,-32 305,0 442.5,0 442.5,-32"/>
<text text-anchor="start" x="313" y="-18.5" font-family="Arial" font-size="10.00">APickupSpawnPoint::</text>
<text text-anchor="middle" x="373.75" y="-6.5" font-family="Arial" font-size="10.00">SpawnPickupTimerFinished</text>
</a>
</g>
</g>
<!-- Node2&#45;&gt;Node3 -->
<g id="edge2_Node000002_Node000003" class="edge">
<title>Node2&#45;&gt;Node3</title>
<g id="a_edge2_Node000002_Node000003"><a xlink:title=" ">
<path fill="none" stroke="#63b8ff" d="M269.12,-29.93C277.09,-28.86 285.35,-27.75 293.57,-26.65"/>
<polygon fill="#63b8ff" stroke="#63b8ff" points="293.79,-30.15 303.24,-25.35 292.86,-23.21 293.79,-30.15"/>
</a>
</g>
</g>
<!-- Node3&#45;&gt;Node1 -->
<g id="edge3_Node000003_Node000001" class="edge">
<title>Node3&#45;&gt;Node1</title>
<g id="a_edge3_Node000003_Node000001"><a xlink:title=" ">
<path fill="none" stroke="#63b8ff" d="M304.67,-13.75C292.78,-13.44 280.53,-13.17 269,-13 214.89,-12.22 201.35,-12.1 147.25,-13 139.44,-13.13 131.25,-13.32 123.13,-13.55"/>
<polygon fill="#63b8ff" stroke="#63b8ff" points="123.14,-10.04 113.24,-13.84 123.34,-17.04 123.14,-10.04"/>
</a>
</g>
</g>
</g>
</svg>
