<?xml version="1.0" encoding="UTF-8" standalone="no"?>
<!DOCTYPE svg PUBLIC "-//W3C//DTD SVG 1.1//EN"
 "http://www.w3.org/Graphics/SVG/1.1/DTD/svg11.dtd">
<!-- Generated by graphviz version 12.2.1 (20241206.2353)
 -->
<!-- Title: APickupSpawnPoint::BeginPlay Pages: 1 -->
<svg width="598pt" height="62pt"
 viewBox="0.00 0.00 597.75 62.00" xmlns="http://www.w3.org/2000/svg" xmlns:xlink="http://www.w3.org/1999/xlink">
<g id="graph0" class="graph" transform="scale(1 1) rotate(0) translate(4 58)">
<title>APickupSpawnPoint::BeginPlay</title>
<!-- Node1 -->
<g id="Node000001" class="node">
<title>Node1</title>
<g id="a_Node000001"><a xlink:title=" ">
<polygon fill="#999999" stroke="#666666" points="111.25,-32 0,-32 0,0 111.25,0 111.25,-32"/>
<text text-anchor="start" x="8" y="-18.5" font-family="Arial" font-size="10.00">APickupSpawnPoint::</text>
<text text-anchor="middle" x="55.62" y="-6.5" font-family="Arial" font-size="10.00">BeginPlay</text>
</a>
</g>
</g>
<!-- Node2 -->
<g id="Node000002" class="node">
<title>Node2</title>
<g id="a_Node000002"><a xlink:href="class_a_pickup_spawn_point.html#af0bf24b834398d646efdc4bbe69835a9" target="_top" xlink:title=" ">
<polygon fill="white" stroke="#666666" points="269,-32 147.25,-32 147.25,0 269,0 269,-32"/>
<text text-anchor="start" x="155.25" y="-18.5" font-family="Arial" font-size="10.00">APickupSpawnPoint::</text>
<text text-anchor="middle" x="208.12" y="-6.5" font-family="Arial" font-size="10.00">StartSpawnPickupTimer</text>
</a>
</g>
</g>
<!-- Node1&#45;&gt;Node2 -->
<g id="edge1_Node000001_Node000002" class="edge">
<title>Node1&#45;&gt;Node2</title>
<g id="a_edge1_Node000001_Node000002"><a xlink:title=" ">
<path fill="none" stroke="#63b8ff" d="M111.38,-16C119.21,-16 127.36,-16 135.45,-16"/>
<polygon fill="#63b8ff" stroke="#63b8ff" points="135.3,-19.5 145.3,-16 135.3,-12.5 135.3,-19.5"/>
</a>
</g>
</g>
<!-- Node3 -->
<g id="Node000003" class="node">
<title>Node3</title>
<g id="a_Node000003"><a xlink:href="class_a_pickup_spawn_point.html#a95e0f3f39e010b2150defbd852441661" target="_top" xlink:title=" ">
<polygon fill="white" stroke="#666666" points="442.5,-54 305,-54 305,-22 442.5,-22 442.5,-54"/>
<text text-anchor="start" x="313" y="-40.5" font-family="Arial" font-size="10.00">APickupSpawnPoint::</text>
<text text-anchor="middle" x="373.75" y="-28.5" font-family="Arial" font-size="10.00">SpawnPickupTimerFinished</text>
</a>
</g>
</g>
<!-- Node2&#45;&gt;Node3 -->
<g id="edge2_Node000002_Node000003" class="edge">
<title>Node2&#45;&gt;Node3</title>
<g id="a_edge2_Node000002_Node000003"><a xlink:title=" ">
<path fill="none" stroke="#63b8ff" d="M269.12,-24.07C277.09,-25.14 285.35,-26.25 293.57,-27.35"/>
<polygon fill="#63b8ff" stroke="#63b8ff" points="292.86,-30.79 303.24,-28.65 293.79,-23.85 292.86,-30.79"/>
</a>
</g>
</g>
<!-- Node4 -->
<g id="Node000004" class="node">
<title>Node4</title>
<g id="a_Node000004"><a xlink:href="class_a_pickup_spawn_point.html#a001dc948b03105ab7d05ed184af4abf9" target="_top" xlink:title=" ">
<polygon fill="white" stroke="#666666" points="589.75,-32 478.5,-32 478.5,0 589.75,0 589.75,-32"/>
<text text-anchor="start" x="486.5" y="-18.5" font-family="Arial" font-size="10.00">APickupSpawnPoint::</text>
<text text-anchor="middle" x="534.12" y="-6.5" font-family="Arial" font-size="10.00">SpawnPickup</text>
</a>
</g>
</g>
<!-- Node3&#45;&gt;Node4 -->
<g id="edge3_Node000003_Node000004" class="edge">
<title>Node3&#45;&gt;Node4</title>
<g id="a_edge3_Node000003_Node000004"><a xlink:title=" ">
<path fill="none" stroke="#63b8ff" d="M442.83,-28.54C450.93,-27.42 459.18,-26.27 467.24,-25.15"/>
<polygon fill="#63b8ff" stroke="#63b8ff" points="467.55,-28.64 476.97,-23.8 466.58,-21.71 467.55,-28.64"/>
</a>
</g>
</g>
<!-- Node4&#45;&gt;Node2 -->
<g id="edge4_Node000004_Node000002" class="edge">
<title>Node4&#45;&gt;Node2</title>
<g id="a_edge4_Node000004_Node000002"><a xlink:title=" ">
<path fill="none" stroke="#63b8ff" d="M478.02,-13.88C466.3,-13.52 453.99,-13.19 442.5,-13 381.4,-11.99 366.1,-12.04 305,-13 297.19,-13.12 289.03,-13.3 280.9,-13.51"/>
<polygon fill="#63b8ff" stroke="#63b8ff" points="280.88,-10.01 270.98,-13.78 281.07,-17.01 280.88,-10.01"/>
</a>
</g>
</g>
</g>
</svg>
