<?xml version="1.0" encoding="UTF-8" standalone="no"?>
<!DOCTYPE svg PUBLIC "-//W3C//DTD SVG 1.1//EN"
 "http://www.w3.org/Graphics/SVG/1.1/DTD/svg11.dtd">
<!-- Generated by graphviz version 12.2.1 (20241206.2353)
 -->
<!-- Title: APickupSpawnPoint::StartSpawnPickupTimer Pages: 1 -->
<svg width="451pt" height="112pt"
 viewBox="0.00 0.00 450.50 112.00" xmlns="http://www.w3.org/2000/svg" xmlns:xlink="http://www.w3.org/1999/xlink">
<g id="graph0" class="graph" transform="scale(1 1) rotate(0) translate(4 108)">
<title>APickupSpawnPoint::StartSpawnPickupTimer</title>
<!-- Node1 -->
<g id="Node000001" class="node">
<title>Node1</title>
<g id="a_Node000001"><a xlink:title=" ">
<polygon fill="#999999" stroke="#666666" points="442.5,-54 320.75,-54 320.75,-22 442.5,-22 442.5,-54"/>
<text text-anchor="start" x="328.75" y="-40.5" font-family="Arial" font-size="10.00">APickupSpawnPoint::</text>
<text text-anchor="middle" x="381.62" y="-28.5" font-family="Arial" font-size="10.00">StartSpawnPickupTimer</text>
</a>
</g>
</g>
<!-- Node2 -->
<g id="Node000002" class="node">
<title>Node2</title>
<g id="a_Node000002"><a xlink:href="class_a_pickup_spawn_point.html#aad4900ade96050324280c0e542c63f4d" target="_top" xlink:title=" ">
<polygon fill="white" stroke="#666666" points="284.75,-104 173.5,-104 173.5,-72 284.75,-72 284.75,-104"/>
<text text-anchor="start" x="181.5" y="-90.5" font-family="Arial" font-size="10.00">APickupSpawnPoint::</text>
<text text-anchor="middle" x="229.12" y="-78.5" font-family="Arial" font-size="10.00">BeginPlay</text>
</a>
</g>
</g>
<!-- Node1&#45;&gt;Node2 -->
<g id="edge1_Node000001_Node000002" class="edge">
<title>Node1&#45;&gt;Node2</title>
<g id="a_edge1_Node000001_Node000002"><a xlink:title=" ">
<path fill="none" stroke="#63b8ff" d="M320.66,-57.92C307.1,-62.43 292.85,-67.16 279.77,-71.51"/>
<polygon fill="#63b8ff" stroke="#63b8ff" points="321.52,-61.32 329.91,-54.85 319.32,-54.68 321.52,-61.32"/>
</a>
</g>
</g>
<!-- Node3 -->
<g id="Node000003" class="node">
<title>Node3</title>
<g id="a_Node000003"><a xlink:href="class_a_pickup_spawn_point.html#a001dc948b03105ab7d05ed184af4abf9" target="_top" xlink:title=" ">
<polygon fill="white" stroke="#666666" points="284.75,-54 173.5,-54 173.5,-22 284.75,-22 284.75,-54"/>
<text text-anchor="start" x="181.5" y="-40.5" font-family="Arial" font-size="10.00">APickupSpawnPoint::</text>
<text text-anchor="middle" x="229.12" y="-28.5" font-family="Arial" font-size="10.00">SpawnPickup</text>
</a>
</g>
</g>
<!-- Node1&#45;&gt;Node3 -->
<g id="edge2_Node000001_Node000003" class="edge">
<title>Node1&#45;&gt;Node3</title>
<g id="a_edge2_Node000001_Node000003"><a xlink:title=" ">
<path fill="none" stroke="#63b8ff" d="M309.01,-38C300.98,-38 292.9,-38 285.13,-38"/>
<polygon fill="#63b8ff" stroke="#63b8ff" points="308.76,-41.5 318.76,-38 308.76,-34.5 308.76,-41.5"/>
</a>
</g>
</g>
<!-- Node4 -->
<g id="Node000004" class="node">
<title>Node4</title>
<g id="a_Node000004"><a xlink:href="class_a_pickup_spawn_point.html#a95e0f3f39e010b2150defbd852441661" target="_top" xlink:title=" ">
<polygon fill="white" stroke="#666666" points="137.5,-32 0,-32 0,0 137.5,0 137.5,-32"/>
<text text-anchor="start" x="8" y="-18.5" font-family="Arial" font-size="10.00">APickupSpawnPoint::</text>
<text text-anchor="middle" x="68.75" y="-6.5" font-family="Arial" font-size="10.00">SpawnPickupTimerFinished</text>
</a>
</g>
</g>
<!-- Node3&#45;&gt;Node4 -->
<g id="edge3_Node000003_Node000004" class="edge">
<title>Node3&#45;&gt;Node4</title>
<g id="a_edge3_Node000003_Node000004"><a xlink:title=" ">
<path fill="none" stroke="#63b8ff" d="M161.81,-28.79C153.94,-27.69 145.89,-26.58 138,-25.48"/>
<polygon fill="#63b8ff" stroke="#63b8ff" points="161.29,-32.25 171.68,-30.16 162.26,-25.32 161.29,-32.25"/>
</a>
</g>
</g>
<!-- Node4&#45;&gt;Node1 -->
<g id="edge4_Node000004_Node000001" class="edge">
<title>Node4&#45;&gt;Node1</title>
<g id="a_edge4_Node000004_Node000001"><a xlink:title=" ">
<path fill="none" stroke="#63b8ff" d="M149.29,-9.55C189.97,-7.61 240.17,-7.28 284.75,-13 298.74,-14.79 313.61,-18 327.35,-21.54"/>
<polygon fill="#63b8ff" stroke="#63b8ff" points="149.12,-6.06 139.32,-10.08 149.49,-13.05 149.12,-6.06"/>
</a>
</g>
</g>
</g>
</svg>
