<?xml version="1.0" encoding="UTF-8" standalone="no"?>
<!DOCTYPE svg PUBLIC "-//W3C//DTD SVG 1.1//EN"
 "http://www.w3.org/Graphics/SVG/1.1/DTD/svg11.dtd">
<!-- Generated by graphviz version 12.2.1 (20241206.2353)
 -->
<!-- Title: APickupSpawnPoint::SpawnPickupTimerFinished Pages: 1 -->
<svg width="451pt" height="62pt"
 viewBox="0.00 0.00 450.50 62.00" xmlns="http://www.w3.org/2000/svg" xmlns:xlink="http://www.w3.org/1999/xlink">

<svg id="main" version="1.1" xmlns="http://www.w3.org/2000/svg" xmlns:xlink="http://www.w3.org/1999/xlink" xml:space="preserve">

<style type="text/css"><![CDATA[
.node, .edge {opacity: 0.7;}
.node.selected, .edge.selected {opacity: 1;}
.edge:hover path { stroke: red; }
.edge:hover polygon { stroke: red; fill: red; }
]]></style>
<script type="application/ecmascript" xlink:href="svg.min.js"/>
<svg id="graph" class="graph">
<g id="graph0" class="graph" transform="scale(1 1) rotate(0) translate(4 58)">
<title>APickupSpawnPoint::SpawnPickupTimerFinished</title>
<!-- Node1 -->
<g id="Node000001" class="node">
<title>Node1</title>
<g id="a_Node000001"><a xlink:title=" ">
<polygon fill="#999999" stroke="#666666" points="137.5,-32 0,-32 0,0 137.5,0 137.5,-32"/>
<text text-anchor="start" x="8" y="-18.5" font-family="Arial" font-size="10.00">APickupSpawnPoint::</text>
<text text-anchor="middle" x="68.75" y="-6.5" font-family="Arial" font-size="10.00">SpawnPickupTimerFinished</text>
</a>
</g>
</g>
<!-- Node2 -->
<g id="Node000002" class="node">
<title>Node2</title>
<g id="a_Node000002"><a xlink:href="class_a_pickup_spawn_point.html#a001dc948b03105ab7d05ed184af4abf9" target="_top" xlink:title=" ">
<polygon fill="white" stroke="#666666" points="284.75,-54 173.5,-54 173.5,-22 284.75,-22 284.75,-54"/>
<text text-anchor="start" x="181.5" y="-40.5" font-family="Arial" font-size="10.00">APickupSpawnPoint::</text>
<text text-anchor="middle" x="229.12" y="-28.5" font-family="Arial" font-size="10.00">SpawnPickup</text>
</a>
</g>
</g>
<!-- Node1&#45;&gt;Node2 -->
<g id="edge1_Node000001_Node000002" class="edge">
<title>Node1&#45;&gt;Node2</title>
<g id="a_edge1_Node000001_Node000002"><a xlink:title=" ">
<path fill="none" stroke="#63b8ff" d="M137.83,-25.46C145.93,-26.58 154.18,-27.73 162.24,-28.85"/>
<polygon fill="#63b8ff" stroke="#63b8ff" points="161.58,-32.29 171.97,-30.2 162.55,-25.36 161.58,-32.29"/>
</a>
</g>
</g>
<!-- Node3 -->
<g id="Node000003" class="node">
<title>Node3</title>
<g id="a_Node000003"><a xlink:href="class_a_pickup_spawn_point.html#af0bf24b834398d646efdc4bbe69835a9" target="_top" xlink:title=" ">
<polygon fill="white" stroke="#666666" points="442.5,-32 320.75,-32 320.75,0 442.5,0 442.5,-32"/>
<text text-anchor="start" x="328.75" y="-18.5" font-family="Arial" font-size="10.00">APickupSpawnPoint::</text>
<text text-anchor="middle" x="381.62" y="-6.5" font-family="Arial" font-size="10.00">StartSpawnPickupTimer</text>
</a>
</g>
</g>
<!-- Node2&#45;&gt;Node3 -->
<g id="edge2_Node000002_Node000003" class="edge">
<title>Node2&#45;&gt;Node3</title>
<g id="a_edge2_Node000002_Node000003"><a xlink:title=" ">
<path fill="none" stroke="#63b8ff" d="M284.88,-30C292.71,-28.85 300.86,-27.66 308.95,-26.48"/>
<polygon fill="#63b8ff" stroke="#63b8ff" points="309.42,-29.95 318.81,-25.04 308.41,-23.02 309.42,-29.95"/>
</a>
</g>
</g>
<!-- Node3&#45;&gt;Node1 -->
<g id="edge3_Node000003_Node000001" class="edge">
<title>Node3&#45;&gt;Node1</title>
<g id="a_edge3_Node000003_Node000001"><a xlink:title=" ">
<path fill="none" stroke="#63b8ff" d="M320.28,-13.82C308.5,-13.48 296.24,-13.18 284.75,-13 235.31,-12.23 222.94,-12.29 173.5,-13 165.66,-13.11 157.49,-13.27 149.33,-13.46"/>
<polygon fill="#63b8ff" stroke="#63b8ff" points="149.25,-9.97 139.34,-13.71 149.43,-16.96 149.25,-9.97"/>
</a>
</g>
</g>
</g>
</svg>
</svg>

<style type='text/css'>
<![CDATA[
[data-mouse-over-selected='false'] { opacity: 0.7; }
[data-mouse-over-selected='true']  { opacity: 1.0; }
]]>
</style>
<script type="application/ecmascript"><![CDATA[
document.addEventListener('DOMContentLoaded', (event) => {
  highlightEdges();
  highlightAdjacentNodes();
});
]]></script>
</svg>
