<?xml version="1.0" encoding="UTF-8" standalone="no"?>
<!DOCTYPE svg PUBLIC "-//W3C//DTD SVG 1.1//EN"
 "http://www.w3.org/Graphics/SVG/1.1/DTD/svg11.dtd">
<!-- Generated by graphviz version 12.2.1 (20241206.2353)
 -->
<!-- Title: APickup Pages: 1 -->
<svg width="147pt" height="324pt"
 viewBox="0.00 0.00 146.75 324.00" xmlns="http://www.w3.org/2000/svg" xmlns:xlink="http://www.w3.org/1999/xlink">
<g id="graph0" class="graph" transform="scale(1 1) rotate(0) translate(4 320)">
<title>APickup</title>
<!-- Node1 -->
<g id="Node000001" class="node">
<title>Node1</title>
<g id="a_Node000001"><a xlink:title=" ">
<polygon fill="#999999" stroke="none" points="138.75,-228 0,-228 0,0 138.75,0 138.75,-228"/>
<text text-anchor="start" x="51" y="-214.5" font-family="Arial" font-size="10.00">APickup</text>
<text text-anchor="start" x="5.5" y="-198.5" font-family="Arial" font-size="10.00">&#45;</text>
<text text-anchor="start" x="14" y="-198.5" font-family="Arial" font-size="10.00">BindOverlapTimer</text>
<text text-anchor="start" x="5.5" y="-182.5" font-family="Arial" font-size="10.00">&#45;</text>
<text text-anchor="start" x="14" y="-182.5" font-family="Arial" font-size="10.00">BindOverlapTime</text>
<text text-anchor="start" x="5.5" y="-166.5" font-family="Arial" font-size="10.00">&#45;</text>
<text text-anchor="start" x="14" y="-166.5" font-family="Arial" font-size="10.00">OverlapSphere</text>
<text text-anchor="start" x="5.5" y="-150.5" font-family="Arial" font-size="10.00">&#45;</text>
<text text-anchor="start" x="14" y="-150.5" font-family="Arial" font-size="10.00">PickupSound</text>
<text text-anchor="start" x="5.5" y="-134.5" font-family="Arial" font-size="10.00">&#45;</text>
<text text-anchor="start" x="14" y="-134.5" font-family="Arial" font-size="10.00">PickupMesh</text>
<text text-anchor="start" x="5.5" y="-118.5" font-family="Arial" font-size="10.00">&#45;</text>
<text text-anchor="start" x="14" y="-118.5" font-family="Arial" font-size="10.00">PickupEffectComponent</text>
<text text-anchor="start" x="5.5" y="-102.5" font-family="Arial" font-size="10.00">&#45;</text>
<text text-anchor="start" x="14" y="-102.5" font-family="Arial" font-size="10.00">PickupEffect</text>
<text text-anchor="start" x="4" y="-86.5" font-family="Arial" font-size="10.00">+</text>
<text text-anchor="start" x="14" y="-86.5" font-family="Arial" font-size="10.00">APickup()</text>
<text text-anchor="start" x="4" y="-70.5" font-family="Arial" font-size="10.00">+</text>
<text text-anchor="start" x="14" y="-70.5" font-family="Arial" font-size="10.00">Tick()</text>
<text text-anchor="start" x="4" y="-54.5" font-family="Arial" font-size="10.00">+</text>
<text text-anchor="start" x="14" y="-54.5" font-family="Arial" font-size="10.00">Destroyed()</text>
<text text-anchor="start" x="4.38" y="-38.5" font-family="Arial" font-size="10.00">#</text>
<text text-anchor="start" x="14" y="-38.5" font-family="Arial" font-size="10.00">BeginPlay()</text>
<text text-anchor="start" x="4.38" y="-22.5" font-family="Arial" font-size="10.00">#</text>
<text text-anchor="start" x="14" y="-22.5" font-family="Arial" font-size="10.00">OnSphereOverlap()</text>
<text text-anchor="start" x="5.5" y="-6.5" font-family="Arial" font-size="10.00">&#45;</text>
<text text-anchor="start" x="14" y="-6.5" font-family="Arial" font-size="10.00">BindOverlapTimerFinished()</text>
<polygon fill="#666666" stroke="#666666" points="0,-210 0,-210 138.75,-210 138.75,-210 0,-210"/>
<polygon fill="#666666" stroke="#666666" points="0,-98 0,-98 12,-98 12,-98 0,-98"/>
<polygon fill="#666666" stroke="#666666" points="12,-98 12,-98 138.75,-98 138.75,-98 12,-98"/>
<polygon fill="none" stroke="#666666" points="0,0 0,-228 138.75,-228 138.75,0 0,0"/>
</a>
</g>
</g>
<!-- Node2 -->
<g id="Node000002" class="node">
<title>Node2</title>
<g id="a_Node000002"><a xlink:title=" ">
<polygon fill="white" stroke="none" points="88.38,-316 50.38,-316 50.38,-264 88.38,-264 88.38,-316"/>
<text text-anchor="start" x="54.38" y="-302.5" font-family="Arial" font-size="10.00">AActor</text>
<text text-anchor="start" x="67.88" y="-286.5" font-family="Arial" font-size="10.00"> </text>
<text text-anchor="start" x="67.88" y="-270.5" font-family="Arial" font-size="10.00"> </text>
<polygon fill="#666666" stroke="#666666" points="50.38,-298 50.38,-298 88.38,-298 88.38,-298 50.38,-298"/>
<polygon fill="#666666" stroke="#666666" points="50.38,-282 50.38,-282 88.38,-282 88.38,-282 50.38,-282"/>
<polygon fill="none" stroke="#666666" points="50.38,-264 50.38,-316 88.38,-316 88.38,-264 50.38,-264"/>
</a>
</g>
</g>
<!-- Node2&#45;&gt;Node1 -->
<g id="edge1_Node000001_Node000002" class="edge">
<title>Node2&#45;&gt;Node1</title>
<g id="a_edge1_Node000001_Node000002"><a xlink:title=" ">
<path fill="none" stroke="#63b8ff" d="M69.38,-252.72C69.38,-245.03 69.38,-236.53 69.38,-227.64"/>
<polygon fill="none" stroke="#63b8ff" points="65.88,-252.56 69.38,-262.56 72.88,-252.56 65.88,-252.56"/>
</a>
</g>
</g>
</g>
</svg>
