<?xml version="1.0" encoding="UTF-8" standalone="no"?>
<!DOCTYPE svg PUBLIC "-//W3C//DTD SVG 1.1//EN"
 "http://www.w3.org/Graphics/SVG/1.1/DTD/svg11.dtd">
<!-- Generated by graphviz version 12.2.1 (20241206.2353)
 -->
<!-- Title: Graphical Class Hierarchy Pages: 1 -->
<svg width="321pt" height="104pt"
 viewBox="0.00 0.00 320.75 104.00" xmlns="http://www.w3.org/2000/svg" xmlns:xlink="http://www.w3.org/1999/xlink">
<g id="graph0" class="graph" transform="scale(1 1) rotate(0) translate(4 100)">
<title>Graphical Class Hierarchy</title>
<!-- Node0 -->
<g id="Node000000" class="node">
<title>Node0</title>
<g id="a_Node000000"><a xlink:title=" ">
<polygon fill="#e0e0e0" stroke="#999999" points="46,-39 0,-39 0,-19 46,-19 46,-39"/>
<text text-anchor="middle" x="23" y="-25.5" font-family="Arial" font-size="10.00">AActor</text>
</a>
</g>
</g>
<!-- Node1 -->
<g id="Node000001" class="node">
<title>Node1</title>
<g id="a_Node000001"><a xlink:href="class_a_pickup.html" target="_top" xlink:title=" ">
<polygon fill="white" stroke="#666666" points="161,-58 108.25,-58 108.25,-38 161,-38 161,-58"/>
<text text-anchor="middle" x="134.62" y="-44.5" font-family="Arial" font-size="10.00">APickup</text>
</a>
</g>
</g>
<!-- Node0&#45;&gt;Node1 -->
<g id="edge1_Node000000_Node000001" class="edge">
<title>Node0&#45;&gt;Node1</title>
<g id="a_edge1_Node000000_Node000001"><a xlink:title=" ">
<path fill="none" stroke="#63b8ff" d="M57.67,-34.84C73.92,-37.65 93.11,-40.98 108.14,-43.58"/>
<polygon fill="#63b8ff" stroke="#63b8ff" points="58.39,-31.41 47.94,-33.15 57.2,-38.31 58.39,-31.41"/>
</a>
</g>
</g>
<!-- Node5 -->
<g id="Node000005" class="node">
<title>Node5</title>
<g id="a_Node000005"><a xlink:href="class_a_pickup_spawn_point.html" target="_top" xlink:title=" ">
<polygon fill="white" stroke="#666666" points="187.25,-20 82,-20 82,0 187.25,0 187.25,-20"/>
<text text-anchor="middle" x="134.62" y="-6.5" font-family="Arial" font-size="10.00">APickupSpawnPoint</text>
</a>
</g>
</g>
<!-- Node0&#45;&gt;Node5 -->
<g id="edge5_Node000000_Node000005" class="edge">
<title>Node0&#45;&gt;Node5</title>
<g id="a_edge5_Node000000_Node000005"><a xlink:title=" ">
<path fill="none" stroke="#63b8ff" d="M57.78,-23.15C65.39,-21.83 73.63,-20.4 81.79,-18.98"/>
<polygon fill="#63b8ff" stroke="#63b8ff" points="57.2,-19.69 47.94,-24.85 58.39,-26.59 57.2,-19.69"/>
</a>
</g>
</g>
<!-- Node2 -->
<g id="Node000002" class="node">
<title>Node2</title>
<g id="a_Node000002"><a xlink:href="class_a_damage_pickup.html" target="_top" xlink:title=" ">
<polygon fill="white" stroke="#666666" points="312.75,-96 223.25,-96 223.25,-76 312.75,-76 312.75,-96"/>
<text text-anchor="middle" x="268" y="-82.5" font-family="Arial" font-size="10.00">ADamagePickup</text>
</a>
</g>
</g>
<!-- Node1&#45;&gt;Node2 -->
<g id="edge2_Node000001_Node000002" class="edge">
<title>Node1&#45;&gt;Node2</title>
<g id="a_edge2_Node000001_Node000002"><a xlink:title=" ">
<path fill="none" stroke="#63b8ff" d="M172.14,-58.56C190.51,-63.87 212.69,-70.29 230.99,-75.58"/>
<polygon fill="#63b8ff" stroke="#63b8ff" points="173.3,-55.25 162.72,-55.84 171.35,-61.98 173.3,-55.25"/>
</a>
</g>
</g>
<!-- Node3 -->
<g id="Node000003" class="node">
<title>Node3</title>
<g id="a_Node000003"><a xlink:href="class_a_health_pickup.html" target="_top" xlink:title=" ">
<polygon fill="white" stroke="#666666" points="308.62,-58 227.38,-58 227.38,-38 308.62,-38 308.62,-58"/>
<text text-anchor="middle" x="268" y="-44.5" font-family="Arial" font-size="10.00">AHealthPickup</text>
</a>
</g>
</g>
<!-- Node1&#45;&gt;Node3 -->
<g id="edge3_Node000001_Node000003" class="edge">
<title>Node1&#45;&gt;Node3</title>
<g id="a_edge3_Node000001_Node000003"><a xlink:title=" ">
<path fill="none" stroke="#63b8ff" d="M172.43,-48C189.4,-48 209.59,-48 226.94,-48"/>
<polygon fill="#63b8ff" stroke="#63b8ff" points="172.78,-44.5 162.78,-48 172.78,-51.5 172.78,-44.5"/>
</a>
</g>
</g>
<!-- Node4 -->
<g id="Node000004" class="node">
<title>Node4</title>
<g id="a_Node000004"><a xlink:href="class_a_speed_pickup.html" target="_top" xlink:title=" ">
<polygon fill="white" stroke="#666666" points="308.25,-20 227.75,-20 227.75,0 308.25,0 308.25,-20"/>
<text text-anchor="middle" x="268" y="-6.5" font-family="Arial" font-size="10.00">ASpeedPickup</text>
</a>
</g>
</g>
<!-- Node1&#45;&gt;Node4 -->
<g id="edge4_Node000001_Node000004" class="edge">
<title>Node1&#45;&gt;Node4</title>
<g id="a_edge4_Node000001_Node000004"><a xlink:title=" ">
<path fill="none" stroke="#63b8ff" d="M172.14,-37.44C190.51,-32.13 212.69,-25.71 230.99,-20.42"/>
<polygon fill="#63b8ff" stroke="#63b8ff" points="171.35,-34.02 162.72,-40.16 173.3,-40.75 171.35,-34.02"/>
</a>
</g>
</g>
</g>
</svg>
