<?xml version="1.0" encoding="UTF-8" standalone="no"?>
<!DOCTYPE svg PUBLIC "-//W3C//DTD SVG 1.1//EN"
 "http://www.w3.org/Graphics/SVG/1.1/DTD/svg11.dtd">
<!-- Generated by graphviz version 12.2.1 (20241206.2353)
 -->
<!-- Title: LobbyGameMode.cpp Pages: 1 -->
<svg width="1600pt" height="164pt"
 viewBox="0.00 0.00 1600.00 164.00" xmlns="http://www.w3.org/2000/svg" xmlns:xlink="http://www.w3.org/1999/xlink">
<g id="graph0" class="graph" transform="scale(1 1) rotate(0) translate(4 160)">
<title>LobbyGameMode.cpp</title>
<!-- Node1 -->
<g id="Node000001" class="node">
<title>Node1</title>
<g id="a_Node000001"><a xlink:title=" ">
<polygon fill="#999999" stroke="#666666" points="911.12,-156 799.88,-156 799.88,-136 911.12,-136 911.12,-156"/>
<text text-anchor="middle" x="855.5" y="-142.5" font-family="Arial" font-size="10.00">LobbyGameMode.cpp</text>
</a>
</g>
</g>
<!-- Node2 -->
<g id="Node000002" class="node">
<title>Node2</title>
<g id="a_Node000002"><a xlink:href="_lobby_game_mode_8h.html" target="_top" xlink:title=" ">
<polygon fill="white" stroke="#666666" points="269.88,-88 169.12,-88 169.12,-68 269.88,-68 269.88,-88"/>
<text text-anchor="middle" x="219.5" y="-74.5" font-family="Arial" font-size="10.00">LobbyGameMode.h</text>
</a>
</g>
</g>
<!-- Node1&#45;&gt;Node2 -->
<g id="edge1_Node000001_Node000002" class="edge">
<title>Node1&#45;&gt;Node2</title>
<g id="a_edge1_Node000001_Node000002"><a xlink:title=" ">
<path fill="none" stroke="#63b8ff" d="M799.62,-145.4C695.94,-145.09 467.22,-139.49 279.5,-100 270.71,-98.15 261.45,-95.36 252.91,-92.41"/>
<polygon fill="#63b8ff" stroke="#63b8ff" points="254.2,-89.15 243.6,-89.02 251.8,-95.73 254.2,-89.15"/>
</a>
</g>
</g>
<!-- Node7 -->
<g id="Node000007" class="node">
<title>Node7</title>
<g id="a_Node000007"><a xlink:title=" ">
<polygon fill="#e0e0e0" stroke="#999999" points="462.62,-88 288.38,-88 288.38,-68 462.62,-68 462.62,-88"/>
<text text-anchor="middle" x="375.5" y="-74.5" font-family="Arial" font-size="10.00">GameFramework/GameStateBase.h</text>
</a>
</g>
</g>
<!-- Node1&#45;&gt;Node7 -->
<g id="edge6_Node000001_Node000007" class="edge">
<title>Node1&#45;&gt;Node7</title>
<g id="a_edge6_Node000001_Node000007"><a xlink:title=" ">
<path fill="none" stroke="#63b8ff" d="M799.61,-140.19C724.65,-133.35 587.52,-119.44 471.5,-100 456.48,-97.48 440.27,-94.17 425.52,-90.92"/>
<polygon fill="#63b8ff" stroke="#63b8ff" points="426.57,-87.57 416.04,-88.79 425.03,-94.4 426.57,-87.57"/>
</a>
</g>
</g>
<!-- Node8 -->
<g id="Node000008" class="node">
<title>Node8</title>
<g id="a_Node000008"><a xlink:title=" ">
<polygon fill="#e0e0e0" stroke="#999999" points="562.5,-88 480.5,-88 480.5,-68 562.5,-68 562.5,-88"/>
<text text-anchor="middle" x="521.5" y="-74.5" font-family="Arial" font-size="10.00">Engine/World.h</text>
</a>
</g>
</g>
<!-- Node1&#45;&gt;Node8 -->
<g id="edge7_Node000001_Node000008" class="edge">
<title>Node1&#45;&gt;Node8</title>
<g id="a_edge7_Node000001_Node000008"><a xlink:title=" ">
<path fill="none" stroke="#63b8ff" d="M799.4,-140.13C741.49,-134.17 648.92,-122.04 571.5,-100 564.77,-98.08 557.74,-95.51 551.14,-92.82"/>
<polygon fill="#63b8ff" stroke="#63b8ff" points="552.54,-89.62 541.97,-88.89 549.78,-96.05 552.54,-89.62"/>
</a>
</g>
</g>
<!-- Node9 -->
<g id="Node000009" class="node">
<title>Node9</title>
<g id="a_Node000009"><a xlink:title=" ">
<polygon fill="#e0e0e0" stroke="#999999" points="668.12,-88 580.88,-88 580.88,-68 668.12,-68 668.12,-88"/>
<text text-anchor="middle" x="624.5" y="-74.5" font-family="Arial" font-size="10.00">Engine/Engine.h</text>
</a>
</g>
</g>
<!-- Node1&#45;&gt;Node9 -->
<g id="edge8_Node000001_Node000009" class="edge">
<title>Node1&#45;&gt;Node9</title>
<g id="a_edge8_Node000001_Node000009"><a xlink:title=" ">
<path fill="none" stroke="#63b8ff" d="M811.53,-135.56C775.22,-127.36 722.54,-114.55 677.5,-100 670.7,-97.8 663.52,-95.18 656.72,-92.54"/>
<polygon fill="#63b8ff" stroke="#63b8ff" points="658.43,-89.45 647.85,-89 655.84,-95.95 658.43,-89.45"/>
</a>
</g>
</g>
<!-- Node10 -->
<g id="Node000010" class="node">
<title>Node10</title>
<g id="a_Node000010"><a xlink:title=" ">
<polygon fill="#e0e0e0" stroke="#999999" points="858.5,-88 686.5,-88 686.5,-68 858.5,-68 858.5,-88"/>
<text text-anchor="middle" x="772.5" y="-74.5" font-family="Arial" font-size="10.00">GameFramework/PlayerController.h</text>
</a>
</g>
</g>
<!-- Node1&#45;&gt;Node10 -->
<g id="edge9_Node000001_Node000010" class="edge">
<title>Node1&#45;&gt;Node10</title>
<g id="a_edge9_Node000001_Node000010"><a xlink:title=" ">
<path fill="none" stroke="#63b8ff" d="M843.61,-135.54C830.42,-125.06 808.9,-107.95 792.99,-95.29"/>
<polygon fill="#63b8ff" stroke="#63b8ff" points="795.56,-92.87 785.55,-89.38 791.2,-98.34 795.56,-92.87"/>
</a>
</g>
</g>
<!-- Node11 -->
<g id="Node000011" class="node">
<title>Node11</title>
<g id="a_Node000011"><a xlink:title=" ">
<polygon fill="#e0e0e0" stroke="#999999" points="1002.25,-88 876.75,-88 876.75,-68 1002.25,-68 1002.25,-88"/>
<text text-anchor="middle" x="939.5" y="-74.5" font-family="Arial" font-size="10.00">GameFramework/Actor.h</text>
</a>
</g>
</g>
<!-- Node1&#45;&gt;Node11 -->
<g id="edge10_Node000001_Node000011" class="edge">
<title>Node1&#45;&gt;Node11</title>
<g id="a_edge10_Node000001_Node000011"><a xlink:title=" ">
<path fill="none" stroke="#63b8ff" d="M867.54,-135.54C880.88,-125.06 902.66,-107.95 918.77,-95.29"/>
<polygon fill="#63b8ff" stroke="#63b8ff" points="920.6,-98.3 926.3,-89.37 916.27,-92.8 920.6,-98.3"/>
</a>
</g>
</g>
<!-- Node12 -->
<g id="Node000012" class="node">
<title>Node12</title>
<g id="a_Node000012"><a xlink:title=" ">
<polygon fill="#e0e0e0" stroke="#999999" points="1174.88,-88 1020.12,-88 1020.12,-68 1174.88,-68 1174.88,-88"/>
<text text-anchor="middle" x="1097.5" y="-74.5" font-family="Arial" font-size="10.00">Components/InputComponent.h</text>
</a>
</g>
</g>
<!-- Node1&#45;&gt;Node12 -->
<g id="edge11_Node000001_Node000012" class="edge">
<title>Node1&#45;&gt;Node12</title>
<g id="a_edge11_Node000001_Node000012"><a xlink:title=" ">
<path fill="none" stroke="#63b8ff" d="M890.17,-135.54C932.67,-123.95 1004.82,-104.28 1051.81,-91.46"/>
<polygon fill="#63b8ff" stroke="#63b8ff" points="1052.7,-94.84 1061.43,-88.84 1050.86,-88.09 1052.7,-94.84"/>
</a>
</g>
</g>
<!-- Node13 -->
<g id="Node000013" class="node">
<title>Node13</title>
<g id="a_Node000013"><a xlink:title=" ">
<polygon fill="#e0e0e0" stroke="#999999" points="1326,-88 1193,-88 1193,-68 1326,-68 1326,-88"/>
<text text-anchor="middle" x="1259.5" y="-74.5" font-family="Arial" font-size="10.00">Kismet/GameplayStatics.h</text>
</a>
</g>
</g>
<!-- Node1&#45;&gt;Node13 -->
<g id="edge12_Node000001_Node000013" class="edge">
<title>Node1&#45;&gt;Node13</title>
<g id="a_edge12_Node000001_Node000013"><a xlink:title=" ">
<path fill="none" stroke="#63b8ff" d="M911.6,-139.6C977.22,-132.76 1088.92,-119.46 1183.5,-100 1194.86,-97.66 1207.03,-94.57 1218.23,-91.48"/>
<polygon fill="#63b8ff" stroke="#63b8ff" points="1218.91,-94.92 1227.58,-88.83 1217,-88.19 1218.91,-94.92"/>
</a>
</g>
</g>
<!-- Node14 -->
<g id="Node000014" class="node">
<title>Node14</title>
<g id="a_Node000014"><a xlink:title=" ">
<polygon fill="#e0e0e0" stroke="#999999" points="1441,-94 1344,-94 1344,-62 1441,-62 1441,-94"/>
<text text-anchor="start" x="1352" y="-80.5" font-family="Arial" font-size="10.00">MultiplayerShooter</text>
<text text-anchor="middle" x="1392.5" y="-68.5" font-family="Arial" font-size="10.00">/HUD/MainHUD.h</text>
</a>
</g>
</g>
<!-- Node1&#45;&gt;Node14 -->
<g id="edge13_Node000001_Node000014" class="edge">
<title>Node1&#45;&gt;Node14</title>
<g id="a_edge13_Node000001_Node000014"><a xlink:title=" ">
<path fill="none" stroke="#63b8ff" d="M911.31,-144.44C1001.57,-142.49 1184.7,-134.23 1335.5,-100 1338.29,-99.37 1341.13,-98.63 1343.97,-97.82"/>
<polygon fill="#63b8ff" stroke="#63b8ff" points="1344.95,-101.19 1353.45,-94.86 1342.86,-94.5 1344.95,-101.19"/>
</a>
</g>
</g>
<!-- Node15 -->
<g id="Node000015" class="node">
<title>Node15</title>
<g id="a_Node000015"><a xlink:title=" ">
<polygon fill="#e0e0e0" stroke="#999999" points="1592,-100 1459,-100 1459,-56 1592,-56 1592,-100"/>
<text text-anchor="start" x="1467" y="-86.5" font-family="Arial" font-size="10.00">MultiplayerShooter</text>
<text text-anchor="start" x="1467" y="-74.5" font-family="Arial" font-size="10.00">/PlayerController/MyPlayer</text>
<text text-anchor="middle" x="1525.5" y="-62.5" font-family="Arial" font-size="10.00">Controller.h</text>
</a>
</g>
</g>
<!-- Node1&#45;&gt;Node15 -->
<g id="edge14_Node000001_Node000015" class="edge">
<title>Node1&#45;&gt;Node15</title>
<g id="a_edge14_Node000001_Node000015"><a xlink:title=" ">
<path fill="none" stroke="#63b8ff" d="M911.33,-144.44C1015.34,-142.61 1245.83,-134.82 1447.49,-100.37"/>
<polygon fill="#63b8ff" stroke="#63b8ff" points="1447.85,-103.86 1457.1,-98.7 1446.65,-96.96 1447.85,-103.86"/>
</a>
</g>
</g>
<!-- Node3 -->
<g id="Node000003" class="node">
<title>Node3</title>
<g id="a_Node000003"><a xlink:title=" ">
<polygon fill="#e0e0e0" stroke="#999999" points="79,-20 0,-20 0,0 79,0 79,-20"/>
<text text-anchor="middle" x="39.5" y="-6.5" font-family="Arial" font-size="10.00">CoreMinimal.h</text>
</a>
</g>
</g>
<!-- Node2&#45;&gt;Node3 -->
<g id="edge2_Node000002_Node000003" class="edge">
<title>Node2&#45;&gt;Node3</title>
<g id="a_edge2_Node000002_Node000003"><a xlink:title=" ">
<path fill="none" stroke="#63b8ff" d="M193.71,-67.54C162.83,-56.22 110.92,-37.19 75.95,-24.37"/>
<polygon fill="#63b8ff" stroke="#63b8ff" points="77.26,-21.12 66.66,-20.96 74.85,-27.69 77.26,-21.12"/>
</a>
</g>
</g>
<!-- Node4 -->
<g id="Node000004" class="node">
<title>Node4</title>
<g id="a_Node000004"><a xlink:title=" ">
<polygon fill="#e0e0e0" stroke="#999999" points="197.88,-20 97.12,-20 97.12,0 197.88,0 197.88,-20"/>
<text text-anchor="middle" x="147.5" y="-6.5" font-family="Arial" font-size="10.00">Sound/SoundCue.h</text>
</a>
</g>
</g>
<!-- Node2&#45;&gt;Node4 -->
<g id="edge3_Node000002_Node000004" class="edge">
<title>Node2&#45;&gt;Node4</title>
<g id="a_edge3_Node000002_Node000004"><a xlink:title=" ">
<path fill="none" stroke="#63b8ff" d="M209.18,-67.54C197.96,-57.25 179.77,-40.58 166.05,-28.01"/>
<polygon fill="#63b8ff" stroke="#63b8ff" points="168.65,-25.64 158.91,-21.46 163.92,-30.8 168.65,-25.64"/>
</a>
</g>
</g>
<!-- Node5 -->
<g id="Node000005" class="node">
<title>Node5</title>
<g id="a_Node000005"><a xlink:title=" ">
<polygon fill="#e0e0e0" stroke="#999999" points="368.75,-20 216.25,-20 216.25,0 368.75,0 368.75,-20"/>
<text text-anchor="middle" x="292.5" y="-6.5" font-family="Arial" font-size="10.00">GameFramework/GameMode.h</text>
</a>
</g>
</g>
<!-- Node2&#45;&gt;Node5 -->
<g id="edge4_Node000002_Node000005" class="edge">
<title>Node2&#45;&gt;Node5</title>
<g id="a_edge4_Node000002_Node000005"><a xlink:title=" ">
<path fill="none" stroke="#63b8ff" d="M229.96,-67.54C241.34,-57.25 259.78,-40.58 273.69,-28.01"/>
<polygon fill="#63b8ff" stroke="#63b8ff" points="275.87,-30.76 280.94,-21.45 271.17,-25.56 275.87,-30.76"/>
</a>
</g>
</g>
<!-- Node6 -->
<g id="Node000006" class="node">
<title>Node6</title>
<g id="a_Node000006"><a xlink:title=" ">
<polygon fill="#e0e0e0" stroke="#999999" points="533.75,-20 387.25,-20 387.25,0 533.75,0 533.75,-20"/>
<text text-anchor="middle" x="460.5" y="-6.5" font-family="Arial" font-size="10.00">LobbyGameMode.generated.h</text>
</a>
</g>
</g>
<!-- Node2&#45;&gt;Node6 -->
<g id="edge5_Node000002_Node000006" class="edge">
<title>Node2&#45;&gt;Node6</title>
<g id="a_edge5_Node000002_Node000006"><a xlink:title=" ">
<path fill="none" stroke="#63b8ff" d="M244.73,-67.58C255.39,-63.76 267.97,-59.44 279.5,-56 321.96,-43.32 370.74,-31.34 406.96,-22.93"/>
<polygon fill="#63b8ff" stroke="#63b8ff" points="407.34,-26.44 416.3,-20.78 405.77,-19.61 407.34,-26.44"/>
</a>
</g>
</g>
</g>
</svg>
