<?xml version="1.0" encoding="UTF-8" standalone="no"?>
<!DOCTYPE svg PUBLIC "-//W3C//DTD SVG 1.1//EN"
 "http://www.w3.org/Graphics/SVG/1.1/DTD/svg11.dtd">
<!-- Generated by graphviz version 12.2.1 (20241206.2353)
 -->
<!-- Title: MainGameMode.h Pages: 1 -->
<svg width="536pt" height="84pt"
 viewBox="0.00 0.00 536.12 84.00" xmlns="http://www.w3.org/2000/svg" xmlns:xlink="http://www.w3.org/1999/xlink">
<g id="graph0" class="graph" transform="scale(1 1) rotate(0) translate(4 80)">
<title>MainGameMode.h</title>
<!-- Node1 -->
<g id="Node000001" class="node">
<title>Node1</title>
<g id="a_Node000001"><a xlink:title=" ">
<polygon fill="#999999" stroke="#666666" points="267.25,-76 171.75,-76 171.75,-56 267.25,-56 267.25,-76"/>
<text text-anchor="middle" x="219.5" y="-62.5" font-family="Arial" font-size="10.00">MainGameMode.h</text>
</a>
</g>
</g>
<!-- Node2 -->
<g id="Node000002" class="node">
<title>Node2</title>
<g id="a_Node000002"><a xlink:title=" ">
<polygon fill="#e0e0e0" stroke="#999999" points="79,-20 0,-20 0,0 79,0 79,-20"/>
<text text-anchor="middle" x="39.5" y="-6.5" font-family="Arial" font-size="10.00">CoreMinimal.h</text>
</a>
</g>
</g>
<!-- Node1&#45;&gt;Node2 -->
<g id="edge1_Node000001_Node000002" class="edge">
<title>Node1&#45;&gt;Node2</title>
<g id="a_edge1_Node000001_Node000002"><a xlink:title=" ">
<path fill="none" stroke="#63b8ff" d="M188.15,-55.59C158.77,-46.78 114.64,-33.54 82.09,-23.78"/>
<polygon fill="#63b8ff" stroke="#63b8ff" points="83.13,-20.44 72.55,-20.91 81.12,-27.14 83.13,-20.44"/>
</a>
</g>
</g>
<!-- Node3 -->
<g id="Node000003" class="node">
<title>Node3</title>
<g id="a_Node000003"><a xlink:title=" ">
<polygon fill="#e0e0e0" stroke="#999999" points="197.88,-20 97.12,-20 97.12,0 197.88,0 197.88,-20"/>
<text text-anchor="middle" x="147.5" y="-6.5" font-family="Arial" font-size="10.00">Sound/SoundCue.h</text>
</a>
</g>
</g>
<!-- Node1&#45;&gt;Node3 -->
<g id="edge2_Node000001_Node000003" class="edge">
<title>Node1&#45;&gt;Node3</title>
<g id="a_edge2_Node000001_Node000003"><a xlink:title=" ">
<path fill="none" stroke="#63b8ff" d="M206.96,-55.59C196.53,-47.77 181.45,-36.46 169.09,-27.19"/>
<polygon fill="#63b8ff" stroke="#63b8ff" points="171.21,-24.41 161.11,-21.21 167.01,-30.01 171.21,-24.41"/>
</a>
</g>
</g>
<!-- Node4 -->
<g id="Node000004" class="node">
<title>Node4</title>
<g id="a_Node000004"><a xlink:title=" ">
<polygon fill="#e0e0e0" stroke="#999999" points="368.75,-20 216.25,-20 216.25,0 368.75,0 368.75,-20"/>
<text text-anchor="middle" x="292.5" y="-6.5" font-family="Arial" font-size="10.00">GameFramework/GameMode.h</text>
</a>
</g>
</g>
<!-- Node1&#45;&gt;Node4 -->
<g id="edge3_Node000001_Node000004" class="edge">
<title>Node1&#45;&gt;Node4</title>
<g id="a_edge3_Node000001_Node000004"><a xlink:title=" ">
<path fill="none" stroke="#63b8ff" d="M232.22,-55.59C242.89,-47.7 258.38,-36.24 270.98,-26.92"/>
<polygon fill="#63b8ff" stroke="#63b8ff" points="272.76,-29.96 278.71,-21.2 268.59,-24.33 272.76,-29.96"/>
</a>
</g>
</g>
<!-- Node5 -->
<g id="Node000005" class="node">
<title>Node5</title>
<g id="a_Node000005"><a xlink:title=" ">
<polygon fill="#e0e0e0" stroke="#999999" points="528.12,-20 386.88,-20 386.88,0 528.12,0 528.12,-20"/>
<text text-anchor="middle" x="457.5" y="-6.5" font-family="Arial" font-size="10.00">MainGameMode.generated.h</text>
</a>
</g>
</g>
<!-- Node1&#45;&gt;Node5 -->
<g id="edge4_Node000001_Node000005" class="edge">
<title>Node1&#45;&gt;Node5</title>
<g id="a_edge4_Node000001_Node000005"><a xlink:title=" ">
<path fill="none" stroke="#63b8ff" d="M261.23,-55.53C301.12,-46.48 361.43,-32.8 404.67,-22.99"/>
<polygon fill="#63b8ff" stroke="#63b8ff" points="405.37,-26.42 414.34,-20.79 403.82,-19.59 405.37,-26.42"/>
</a>
</g>
</g>
</g>
</svg>
