<?xml version="1.0" encoding="UTF-8" standalone="no"?>
<!DOCTYPE svg PUBLIC "-//W3C//DTD SVG 1.1//EN"
 "http://www.w3.org/Graphics/SVG/1.1/DTD/svg11.dtd">
<!-- Generated by graphviz version 12.2.1 (20241206.2353)
 -->
<!-- Title: MainGameMode.cpp Pages: 1 -->
<svg width="1894pt" height="164pt"
 viewBox="0.00 0.00 1893.50 164.00" xmlns="http://www.w3.org/2000/svg" xmlns:xlink="http://www.w3.org/1999/xlink">
<g id="graph0" class="graph" transform="scale(1 1) rotate(0) translate(4 160)">
<title>MainGameMode.cpp</title>
<!-- Node1 -->
<g id="Node000001" class="node">
<title>Node1</title>
<g id="a_Node000001"><a xlink:title=" ">
<polygon fill="#999999" stroke="#666666" points="1011.5,-156 905.5,-156 905.5,-136 1011.5,-136 1011.5,-156"/>
<text text-anchor="middle" x="958.5" y="-142.5" font-family="Arial" font-size="10.00">MainGameMode.cpp</text>
</a>
</g>
</g>
<!-- Node2 -->
<g id="Node000002" class="node">
<title>Node2</title>
<g id="a_Node000002"><a xlink:href="_main_game_mode_8h.html" target="_top" xlink:title=" ">
<polygon fill="white" stroke="#666666" points="267.25,-88 171.75,-88 171.75,-68 267.25,-68 267.25,-88"/>
<text text-anchor="middle" x="219.5" y="-74.5" font-family="Arial" font-size="10.00">MainGameMode.h</text>
</a>
</g>
</g>
<!-- Node1&#45;&gt;Node2 -->
<g id="edge1_Node000001_Node000002" class="edge">
<title>Node1&#45;&gt;Node2</title>
<g id="a_edge1_Node000001_Node000002"><a xlink:title=" ">
<path fill="none" stroke="#63b8ff" d="M905.05,-143.45C766.15,-139.11 396.27,-125.46 276.5,-100 268.13,-98.22 259.34,-95.46 251.24,-92.52"/>
<polygon fill="#63b8ff" stroke="#63b8ff" points="252.72,-89.34 242.13,-89.02 250.21,-95.87 252.72,-89.34"/>
</a>
</g>
</g>
<!-- Node7 -->
<g id="Node000007" class="node">
<title>Node7</title>
<g id="a_Node000007"><a xlink:title=" ">
<polygon fill="#e0e0e0" stroke="#999999" points="385.88,-88 285.12,-88 285.12,-68 385.88,-68 385.88,-88"/>
<text text-anchor="middle" x="335.5" y="-74.5" font-family="Arial" font-size="10.00">ModuleDescriptor.h</text>
</a>
</g>
</g>
<!-- Node1&#45;&gt;Node7 -->
<g id="edge6_Node000001_Node000007" class="edge">
<title>Node1&#45;&gt;Node7</title>
<g id="a_edge6_Node000001_Node000007"><a xlink:title=" ">
<path fill="none" stroke="#63b8ff" d="M905.35,-145.37C804.55,-145.06 579.16,-139.51 394.5,-100 385.85,-98.15 376.74,-95.35 368.34,-92.4"/>
<polygon fill="#63b8ff" stroke="#63b8ff" points="369.8,-89.21 359.21,-89.02 367.37,-95.78 369.8,-89.21"/>
</a>
</g>
</g>
<!-- Node8 -->
<g id="Node000008" class="node">
<title>Node8</title>
<g id="a_Node000008"><a xlink:title=" ">
<polygon fill="#e0e0e0" stroke="#999999" points="561.38,-94 403.62,-94 403.62,-62 561.38,-62 561.38,-94"/>
<text text-anchor="start" x="411.62" y="-80.5" font-family="Arial" font-size="10.00">MultiplayerShooter</text>
<text text-anchor="middle" x="482.5" y="-68.5" font-family="Arial" font-size="10.00">/MainCharacter/MainCharacter.h</text>
</a>
</g>
</g>
<!-- Node1&#45;&gt;Node8 -->
<g id="edge7_Node000001_Node000008" class="edge">
<title>Node1&#45;&gt;Node8</title>
<g id="a_edge7_Node000001_Node000008"><a xlink:title=" ">
<path fill="none" stroke="#63b8ff" d="M905.18,-140.83C830.12,-134.51 689.2,-120.97 570.5,-100 565.03,-99.03 559.4,-97.93 553.75,-96.76"/>
<polygon fill="#63b8ff" stroke="#63b8ff" points="554.89,-93.42 544.38,-94.73 553.41,-100.27 554.89,-93.42"/>
</a>
</g>
</g>
<!-- Node9 -->
<g id="Node000009" class="node">
<title>Node9</title>
<g id="a_Node000009"><a xlink:title=" ">
<polygon fill="#e0e0e0" stroke="#999999" points="713.75,-100 579.25,-100 579.25,-56 713.75,-56 713.75,-100"/>
<text text-anchor="start" x="587.25" y="-86.5" font-family="Arial" font-size="10.00">MultiplayerShooter</text>
<text text-anchor="start" x="587.25" y="-74.5" font-family="Arial" font-size="10.00">/PlayerController/MYPlayer</text>
<text text-anchor="middle" x="646.5" y="-62.5" font-family="Arial" font-size="10.00">Controller.h</text>
</a>
</g>
</g>
<!-- Node1&#45;&gt;Node9 -->
<g id="edge8_Node000001_Node000009" class="edge">
<title>Node1&#45;&gt;Node9</title>
<g id="a_edge8_Node000001_Node000009"><a xlink:title=" ">
<path fill="none" stroke="#63b8ff" d="M905.05,-135.98C859.69,-128.04 792.65,-115.68 724.91,-100.24"/>
<polygon fill="#63b8ff" stroke="#63b8ff" points="726.04,-96.91 715.51,-98.07 724.47,-103.73 726.04,-96.91"/>
</a>
</g>
</g>
<!-- Node10 -->
<g id="Node000010" class="node">
<title>Node10</title>
<g id="a_Node000010"><a xlink:title=" ">
<polygon fill="#e0e0e0" stroke="#999999" points="865,-88 732,-88 732,-68 865,-68 865,-88"/>
<text text-anchor="middle" x="798.5" y="-74.5" font-family="Arial" font-size="10.00">Kismet/GameplayStatics.h</text>
</a>
</g>
</g>
<!-- Node1&#45;&gt;Node10 -->
<g id="edge9_Node000001_Node000010" class="edge">
<title>Node1&#45;&gt;Node10</title>
<g id="a_edge9_Node000001_Node000010"><a xlink:title=" ">
<path fill="none" stroke="#63b8ff" d="M935.58,-135.54C908.37,-124.32 862.78,-105.52 831.71,-92.7"/>
<polygon fill="#63b8ff" stroke="#63b8ff" points="833.36,-89.59 822.78,-89.02 830.69,-96.06 833.36,-89.59"/>
</a>
</g>
</g>
<!-- Node11 -->
<g id="Node000011" class="node">
<title>Node11</title>
<g id="a_Node000011"><a xlink:title=" ">
<polygon fill="#e0e0e0" stroke="#999999" points="1034,-88 883,-88 883,-68 1034,-68 1034,-88"/>
<text text-anchor="middle" x="958.5" y="-74.5" font-family="Arial" font-size="10.00">GameFramework/PlayerStart.h</text>
</a>
</g>
</g>
<!-- Node1&#45;&gt;Node11 -->
<g id="edge10_Node000001_Node000011" class="edge">
<title>Node1&#45;&gt;Node11</title>
<g id="a_edge10_Node000001_Node000011"><a xlink:title=" ">
<path fill="none" stroke="#63b8ff" d="M958.5,-135.54C958.5,-126.23 958.5,-111.7 958.5,-99.7"/>
<polygon fill="#63b8ff" stroke="#63b8ff" points="962,-99.95 958.5,-89.95 955,-99.95 962,-99.95"/>
</a>
</g>
</g>
<!-- Node12 -->
<g id="Node000012" class="node">
<title>Node12</title>
<g id="a_Node000012"><a xlink:title=" ">
<polygon fill="#e0e0e0" stroke="#999999" points="1202.62,-94 1052.38,-94 1052.38,-62 1202.62,-62 1202.62,-94"/>
<text text-anchor="start" x="1060.38" y="-80.5" font-family="Arial" font-size="10.00">MultiplayerShooter</text>
<text text-anchor="middle" x="1127.5" y="-68.5" font-family="Arial" font-size="10.00">/GameState/MainGameState.h</text>
</a>
</g>
</g>
<!-- Node1&#45;&gt;Node12 -->
<g id="edge11_Node000001_Node000012" class="edge">
<title>Node1&#45;&gt;Node12</title>
<g id="a_edge11_Node000001_Node000012"><a xlink:title=" ">
<path fill="none" stroke="#63b8ff" d="M982.71,-135.54C1007.29,-125.95 1046.06,-110.81 1077.3,-98.61"/>
<polygon fill="#63b8ff" stroke="#63b8ff" points="1078.54,-101.88 1086.59,-94.98 1076,-95.36 1078.54,-101.88"/>
</a>
</g>
</g>
<!-- Node13 -->
<g id="Node000013" class="node">
<title>Node13</title>
<g id="a_Node000013"><a xlink:title=" ">
<polygon fill="#e0e0e0" stroke="#999999" points="1374.12,-94 1220.88,-94 1220.88,-62 1374.12,-62 1374.12,-94"/>
<text text-anchor="start" x="1228.88" y="-80.5" font-family="Arial" font-size="10.00">MultiplayerShooter</text>
<text text-anchor="middle" x="1297.5" y="-68.5" font-family="Arial" font-size="10.00">/PlayerState/MainPlayerState.h</text>
</a>
</g>
</g>
<!-- Node1&#45;&gt;Node13 -->
<g id="edge12_Node000001_Node000013" class="edge">
<title>Node1&#45;&gt;Node13</title>
<g id="a_edge12_Node000001_Node000013"><a xlink:title=" ">
<path fill="none" stroke="#63b8ff" d="M1012,-136.5C1063.33,-128.1 1142.96,-114.45 1211.5,-100 1216.07,-99.04 1220.76,-98.01 1225.49,-96.94"/>
<polygon fill="#63b8ff" stroke="#63b8ff" points="1226.1,-100.39 1235.06,-94.73 1224.53,-93.57 1226.1,-100.39"/>
</a>
</g>
</g>
<!-- Node14 -->
<g id="Node000014" class="node">
<title>Node14</title>
<g id="a_Node000014"><a xlink:title=" ">
<polygon fill="#e0e0e0" stroke="#999999" points="1556.38,-88 1392.62,-88 1392.62,-68 1556.38,-68 1556.38,-88"/>
<text text-anchor="middle" x="1474.5" y="-74.5" font-family="Arial" font-size="10.00">GameFramework/GameSession.h</text>
</a>
</g>
</g>
<!-- Node1&#45;&gt;Node14 -->
<g id="edge13_Node000001_Node000014" class="edge">
<title>Node1&#45;&gt;Node14</title>
<g id="a_edge13_Node000001_Node000014"><a xlink:title=" ">
<path fill="none" stroke="#63b8ff" d="M1011.79,-141.44C1092.57,-135.58 1250.69,-122.27 1383.5,-100 1397.88,-97.59 1413.4,-94.28 1427.47,-91"/>
<polygon fill="#63b8ff" stroke="#63b8ff" points="1428,-94.47 1436.92,-88.75 1426.38,-87.66 1428,-94.47"/>
</a>
</g>
</g>
<!-- Node15 -->
<g id="Node000015" class="node">
<title>Node15</title>
<g id="a_Node000015"><a xlink:title=" ">
<polygon fill="#e0e0e0" stroke="#999999" points="1743,-94 1574,-94 1574,-62 1743,-62 1743,-94"/>
<text text-anchor="start" x="1582" y="-80.5" font-family="Arial" font-size="10.00">MultiplayerShooter</text>
<text text-anchor="middle" x="1658.5" y="-68.5" font-family="Arial" font-size="10.00">/Database/BuffDatabaseManager.h</text>
</a>
</g>
</g>
<!-- Node1&#45;&gt;Node15 -->
<g id="edge14_Node000001_Node000015" class="edge">
<title>Node1&#45;&gt;Node15</title>
<g id="a_edge14_Node000001_Node000015"><a xlink:title=" ">
<path fill="none" stroke="#63b8ff" d="M1011.98,-143.69C1118.07,-140.52 1362.48,-130.28 1565.5,-100 1571.85,-99.05 1578.4,-97.91 1584.96,-96.66"/>
<polygon fill="#63b8ff" stroke="#63b8ff" points="1585.36,-100.15 1594.47,-94.75 1583.98,-93.28 1585.36,-100.15"/>
</a>
</g>
</g>
<!-- Node16 -->
<g id="Node000016" class="node">
<title>Node16</title>
<g id="a_Node000016"><a xlink:title=" ">
<polygon fill="#e0e0e0" stroke="#999999" points="1885.5,-94 1761.5,-94 1761.5,-62 1885.5,-62 1885.5,-94"/>
<text text-anchor="start" x="1769.5" y="-80.5" font-family="Arial" font-size="10.00">MultiplayerShooter</text>
<text text-anchor="middle" x="1823.5" y="-68.5" font-family="Arial" font-size="10.00">/Pickups/HealthPickup.h</text>
</a>
</g>
</g>
<!-- Node1&#45;&gt;Node16 -->
<g id="edge15_Node000001_Node000016" class="edge">
<title>Node1&#45;&gt;Node16</title>
<g id="a_edge15_Node000001_Node000016"><a xlink:title=" ">
<path fill="none" stroke="#63b8ff" d="M1011.81,-143.58C1165.82,-139.24 1609.5,-124.86 1752.5,-100 1756.86,-99.24 1761.34,-98.31 1765.82,-97.26"/>
<polygon fill="#63b8ff" stroke="#63b8ff" points="1766.59,-100.67 1775.42,-94.82 1764.87,-93.89 1766.59,-100.67"/>
</a>
</g>
</g>
<!-- Node3 -->
<g id="Node000003" class="node">
<title>Node3</title>
<g id="a_Node000003"><a xlink:title=" ">
<polygon fill="#e0e0e0" stroke="#999999" points="79,-20 0,-20 0,0 79,0 79,-20"/>
<text text-anchor="middle" x="39.5" y="-6.5" font-family="Arial" font-size="10.00">CoreMinimal.h</text>
</a>
</g>
</g>
<!-- Node2&#45;&gt;Node3 -->
<g id="edge2_Node000002_Node000003" class="edge">
<title>Node2&#45;&gt;Node3</title>
<g id="a_edge2_Node000002_Node000003"><a xlink:title=" ">
<path fill="none" stroke="#63b8ff" d="M193.71,-67.54C162.83,-56.22 110.92,-37.19 75.95,-24.37"/>
<polygon fill="#63b8ff" stroke="#63b8ff" points="77.26,-21.12 66.66,-20.96 74.85,-27.69 77.26,-21.12"/>
</a>
</g>
</g>
<!-- Node4 -->
<g id="Node000004" class="node">
<title>Node4</title>
<g id="a_Node000004"><a xlink:title=" ">
<polygon fill="#e0e0e0" stroke="#999999" points="197.88,-20 97.12,-20 97.12,0 197.88,0 197.88,-20"/>
<text text-anchor="middle" x="147.5" y="-6.5" font-family="Arial" font-size="10.00">Sound/SoundCue.h</text>
</a>
</g>
</g>
<!-- Node2&#45;&gt;Node4 -->
<g id="edge3_Node000002_Node000004" class="edge">
<title>Node2&#45;&gt;Node4</title>
<g id="a_edge3_Node000002_Node000004"><a xlink:title=" ">
<path fill="none" stroke="#63b8ff" d="M209.18,-67.54C197.96,-57.25 179.77,-40.58 166.05,-28.01"/>
<polygon fill="#63b8ff" stroke="#63b8ff" points="168.65,-25.64 158.91,-21.46 163.92,-30.8 168.65,-25.64"/>
</a>
</g>
</g>
<!-- Node5 -->
<g id="Node000005" class="node">
<title>Node5</title>
<g id="a_Node000005"><a xlink:title=" ">
<polygon fill="#e0e0e0" stroke="#999999" points="368.75,-20 216.25,-20 216.25,0 368.75,0 368.75,-20"/>
<text text-anchor="middle" x="292.5" y="-6.5" font-family="Arial" font-size="10.00">GameFramework/GameMode.h</text>
</a>
</g>
</g>
<!-- Node2&#45;&gt;Node5 -->
<g id="edge4_Node000002_Node000005" class="edge">
<title>Node2&#45;&gt;Node5</title>
<g id="a_edge4_Node000002_Node000005"><a xlink:title=" ">
<path fill="none" stroke="#63b8ff" d="M229.96,-67.54C241.34,-57.25 259.78,-40.58 273.69,-28.01"/>
<polygon fill="#63b8ff" stroke="#63b8ff" points="275.87,-30.76 280.94,-21.45 271.17,-25.56 275.87,-30.76"/>
</a>
</g>
</g>
<!-- Node6 -->
<g id="Node000006" class="node">
<title>Node6</title>
<g id="a_Node000006"><a xlink:title=" ">
<polygon fill="#e0e0e0" stroke="#999999" points="528.12,-20 386.88,-20 386.88,0 528.12,0 528.12,-20"/>
<text text-anchor="middle" x="457.5" y="-6.5" font-family="Arial" font-size="10.00">MainGameMode.generated.h</text>
</a>
</g>
</g>
<!-- Node2&#45;&gt;Node6 -->
<g id="edge5_Node000002_Node000006" class="edge">
<title>Node2&#45;&gt;Node6</title>
<g id="a_edge5_Node000002_Node000006"><a xlink:title=" ">
<path fill="none" stroke="#63b8ff" d="M243.43,-67.52C253.55,-63.69 265.51,-59.38 276.5,-56 318.43,-43.11 366.68,-31.26 402.81,-22.96"/>
<polygon fill="#63b8ff" stroke="#63b8ff" points="403.16,-26.46 412.14,-20.83 401.61,-19.64 403.16,-26.46"/>
</a>
</g>
</g>
</g>
</svg>
