<?xml version="1.0" encoding="UTF-8" standalone="no"?>
<!DOCTYPE svg PUBLIC "-//W3C//DTD SVG 1.1//EN"
 "http://www.w3.org/Graphics/SVG/1.1/DTD/svg11.dtd">
<!-- Generated by graphviz version 12.2.1 (20241206.2353)
 -->
<!-- Title: AMainGameMode::GetMusicAudioComponent Pages: 1 -->
<svg width="595pt" height="142pt"
 viewBox="0.00 0.00 595.25 142.00" xmlns="http://www.w3.org/2000/svg" xmlns:xlink="http://www.w3.org/1999/xlink">
<g id="graph0" class="graph" transform="scale(1 1) rotate(0) translate(4 138)">
<title>AMainGameMode::GetMusicAudioComponent</title>
<!-- Node1 -->
<g id="Node000001" class="node">
<title>Node1</title>
<g id="a_Node000001"><a xlink:title=" ">
<polygon fill="#999999" stroke="#666666" points="166.75,-83 0,-83 0,-51 166.75,-51 166.75,-83"/>
<text text-anchor="start" x="8" y="-69.5" font-family="Arial" font-size="10.00">AMainGameMode::GetMusicAudio</text>
<text text-anchor="middle" x="83.38" y="-57.5" font-family="Arial" font-size="10.00">Component</text>
</a>
</g>
</g>
<!-- Node1&#45;&gt;Node1 -->
<g id="edge2_Node000001_Node000001" class="edge">
<title>Node1&#45;&gt;Node1</title>
<g id="a_edge2_Node000001_Node000001"><a xlink:title=" ">
<path fill="none" stroke="#63b8ff" d="M46.17,-83.44C39.23,-92.58 51.63,-101 83.38,-101 100.98,-101 112.64,-98.41 118.34,-94.54"/>
<polygon fill="#63b8ff" stroke="#63b8ff" points="121.74,-95.42 120.28,-84.93 114.88,-94.04 121.74,-95.42"/>
</a>
</g>
</g>
<!-- Node2 -->
<g id="Node000002" class="node">
<title>Node2</title>
<g id="a_Node000002"><a xlink:href="class_a_main_game_mode.html#adcc0f620c93ea4cef3b00ca95dea68e7" target="_top" xlink:title=" ">
<polygon fill="white" stroke="#666666" points="363.88,-134 219.62,-134 219.62,-114 363.88,-114 363.88,-134"/>
<text text-anchor="middle" x="291.75" y="-120.5" font-family="Arial" font-size="10.00">AMainGameMode::BeginPlay</text>
</a>
</g>
</g>
<!-- Node1&#45;&gt;Node2 -->
<g id="edge1_Node000001_Node000002" class="edge">
<title>Node1&#45;&gt;Node2</title>
<g id="a_edge1_Node000001_Node000002"><a xlink:title=" ">
<path fill="none" stroke="#63b8ff" d="M143.06,-83.43C162.1,-88.74 183.31,-94.64 202.75,-100 215.27,-103.45 228.79,-107.15 241.39,-110.59"/>
<polygon fill="#63b8ff" stroke="#63b8ff" points="240.16,-113.88 250.72,-113.13 242,-107.13 240.16,-113.88"/>
</a>
</g>
</g>
<!-- Node3 -->
<g id="Node000003" class="node">
<title>Node3</title>
<g id="a_Node000003"><a xlink:href="class_a_main_game_mode.html#aac3b82e6acfa520c65769ca3c2f60c2b" target="_top" xlink:title=" ">
<polygon fill="white" stroke="#666666" points="587.25,-58 416.75,-58 416.75,-38 587.25,-38 587.25,-58"/>
<text text-anchor="middle" x="502" y="-44.5" font-family="Arial" font-size="10.00">AMainGameMode::HandleHighPing</text>
</a>
</g>
</g>
<!-- Node1&#45;&gt;Node3 -->
<g id="edge3_Node000001_Node000003" class="edge">
<title>Node1&#45;&gt;Node3</title>
<g id="a_edge3_Node000001_Node000003"><a xlink:title=" ">
<path fill="none" stroke="#63b8ff" d="M167.23,-70.46C226.74,-72.11 308.81,-72.65 380.75,-67 398.47,-65.61 417.52,-63.08 435.12,-60.32"/>
<polygon fill="#63b8ff" stroke="#63b8ff" points="435.64,-63.78 444.95,-58.72 434.51,-56.87 435.64,-63.78"/>
</a>
</g>
</g>
<!-- Node4 -->
<g id="Node000004" class="node">
<title>Node4</title>
<g id="a_Node000004"><a xlink:href="class_a_main_game_mode.html#a9ce74e01903ba5be1fe712f629b2aa77" target="_top" xlink:title=" ">
<polygon fill="white" stroke="#666666" points="380.75,-58 202.75,-58 202.75,-38 380.75,-38 380.75,-58"/>
<text text-anchor="middle" x="291.75" y="-44.5" font-family="Arial" font-size="10.00">AMainGameMode::OnMatchStateSet</text>
</a>
</g>
</g>
<!-- Node1&#45;&gt;Node4 -->
<g id="edge4_Node000001_Node000004" class="edge">
<title>Node1&#45;&gt;Node4</title>
<g id="a_edge4_Node000001_Node000004"><a xlink:title=" ">
<path fill="none" stroke="#63b8ff" d="M167.13,-59.38C175.05,-58.65 183.15,-57.91 191.21,-57.16"/>
<polygon fill="#63b8ff" stroke="#63b8ff" points="191.43,-60.66 201.07,-56.26 190.79,-53.69 191.43,-60.66"/>
</a>
</g>
</g>
<!-- Node5 -->
<g id="Node000005" class="node">
<title>Node5</title>
<g id="a_Node000005"><a xlink:href="class_a_main_game_mode.html#a801f2a355cc703b4311b08db58d0ed9b" target="_top" xlink:title=" ">
<polygon fill="white" stroke="#666666" points="363.5,-20 220,-20 220,0 363.5,0 363.5,-20"/>
<text text-anchor="middle" x="291.75" y="-6.5" font-family="Arial" font-size="10.00">AMainGameMode::PostLogin</text>
</a>
</g>
</g>
<!-- Node1&#45;&gt;Node5 -->
<g id="edge5_Node000001_Node000005" class="edge">
<title>Node1&#45;&gt;Node5</title>
<g id="a_edge5_Node000001_Node000005"><a xlink:title=" ">
<path fill="none" stroke="#63b8ff" d="M131.86,-50.58C153.36,-43.45 179.19,-35.31 202.75,-29 210.64,-26.89 218.97,-24.85 227.24,-22.93"/>
<polygon fill="#63b8ff" stroke="#63b8ff" points="227.97,-26.36 236.95,-20.75 226.43,-19.53 227.97,-26.36"/>
</a>
</g>
</g>
<!-- Node5&#45;&gt;Node3 -->
<g id="edge6_Node000005_Node000003" class="edge">
<title>Node5&#45;&gt;Node3</title>
<g id="a_edge6_Node000005_Node000003"><a xlink:title=" ">
<path fill="none" stroke="#63b8ff" d="M350.21,-20.48C375.7,-25.14 405.9,-30.65 432.55,-35.51"/>
<polygon fill="#63b8ff" stroke="#63b8ff" points="431.78,-38.93 442.24,-37.28 433.03,-32.04 431.78,-38.93"/>
</a>
</g>
</g>
</g>
</svg>
