<?xml version="1.0" encoding="UTF-8" standalone="no"?>
<!DOCTYPE svg PUBLIC "-//W3C//DTD SVG 1.1//EN"
 "http://www.w3.org/Graphics/SVG/1.1/DTD/svg11.dtd">
<!-- Generated by graphviz version 12.2.1 (20241206.2353)
 -->
<!-- Title: AMainGameMode::HandleHighPing Pages: 1 -->
<svg width="561pt" height="71pt"
 viewBox="0.00 0.00 560.75 71.00" xmlns="http://www.w3.org/2000/svg" xmlns:xlink="http://www.w3.org/1999/xlink">
<g id="graph0" class="graph" transform="scale(1 1) rotate(0) translate(4 67)">
<title>AMainGameMode::HandleHighPing</title>
<!-- Node1 -->
<g id="Node000001" class="node">
<title>Node1</title>
<g id="a_Node000001"><a xlink:title=" ">
<polygon fill="#999999" stroke="#666666" points="552.75,-39 382.25,-39 382.25,-19 552.75,-19 552.75,-39"/>
<text text-anchor="middle" x="467.5" y="-25.5" font-family="Arial" font-size="10.00">AMainGameMode::HandleHighPing</text>
</a>
</g>
</g>
<!-- Node2 -->
<g id="Node000002" class="node">
<title>Node2</title>
<g id="a_Node000002"><a xlink:href="class_a_main_game_mode.html#ad1f68127027609b6b9083e860ffdeaf1" target="_top" xlink:title=" ">
<polygon fill="white" stroke="#666666" points="166.75,-45 0,-45 0,-13 166.75,-13 166.75,-45"/>
<text text-anchor="start" x="8" y="-31.5" font-family="Arial" font-size="10.00">AMainGameMode::GetMusicAudio</text>
<text text-anchor="middle" x="83.38" y="-19.5" font-family="Arial" font-size="10.00">Component</text>
</a>
</g>
</g>
<!-- Node1&#45;&gt;Node2 -->
<g id="edge1_Node000001_Node000002" class="edge">
<title>Node1&#45;&gt;Node2</title>
<g id="a_edge1_Node000001_Node000002"><a xlink:title=" ">
<path fill="none" stroke="#63b8ff" d="M370.69,-29C308.04,-29 227.03,-29 167.18,-29"/>
<polygon fill="#63b8ff" stroke="#63b8ff" points="370.65,-32.5 380.65,-29 370.65,-25.5 370.65,-32.5"/>
</a>
</g>
</g>
<!-- Node3 -->
<g id="Node000003" class="node">
<title>Node3</title>
<g id="a_Node000003"><a xlink:href="class_a_main_game_mode.html#a801f2a355cc703b4311b08db58d0ed9b" target="_top" xlink:title=" ">
<polygon fill="white" stroke="#666666" points="346.25,-20 202.75,-20 202.75,0 346.25,0 346.25,-20"/>
<text text-anchor="middle" x="274.5" y="-6.5" font-family="Arial" font-size="10.00">AMainGameMode::PostLogin</text>
</a>
</g>
</g>
<!-- Node1&#45;&gt;Node3 -->
<g id="edge3_Node000001_Node000003" class="edge">
<title>Node1&#45;&gt;Node3</title>
<g id="a_edge3_Node000001_Node000003"><a xlink:title=" ">
<path fill="none" stroke="#63b8ff" d="M370.53,-19.45C362.48,-18.65 354.44,-17.85 346.62,-17.08"/>
<polygon fill="#63b8ff" stroke="#63b8ff" points="370.09,-22.93 380.38,-20.43 370.78,-15.96 370.09,-22.93"/>
</a>
</g>
</g>
<!-- Node2&#45;&gt;Node2 -->
<g id="edge2_Node000002_Node000002" class="edge">
<title>Node2&#45;&gt;Node2</title>
<g id="a_edge2_Node000002_Node000002"><a xlink:title=" ">
<path fill="none" stroke="#63b8ff" d="M115.23,-56.71C109.91,-60.48 99.3,-63 83.38,-63 54.26,-63 42.88,-54.58 49.25,-45.44"/>
<polygon fill="#63b8ff" stroke="#63b8ff" points="118.65,-57.42 117.2,-46.93 111.79,-56.04 118.65,-57.42"/>
</a>
</g>
</g>
<!-- Node3&#45;&gt;Node2 -->
<g id="edge4_Node000003_Node000002" class="edge">
<title>Node3&#45;&gt;Node2</title>
<g id="a_edge4_Node000003_Node000002"><a xlink:title=" ">
<path fill="none" stroke="#63b8ff" d="M191.07,-18.28C183.08,-19.08 174.97,-19.9 166.98,-20.7"/>
<polygon fill="#63b8ff" stroke="#63b8ff" points="191.16,-21.79 200.76,-17.31 190.46,-14.82 191.16,-21.79"/>
</a>
</g>
</g>
</g>
</svg>
