<?xml version="1.0" encoding="UTF-8" standalone="no"?>
<!DOCTYPE svg PUBLIC "-//W3C//DTD SVG 1.1//EN"
 "http://www.w3.org/Graphics/SVG/1.1/DTD/svg11.dtd">
<!-- Generated by graphviz version 12.2.1 (20241206.2353)
 -->
<!-- Title: ALobbyGameMode::GetMusicAudioComponent Pages: 1 -->
<svg width="523pt" height="40pt"
 viewBox="0.00 0.00 522.50 40.00" xmlns="http://www.w3.org/2000/svg" xmlns:xlink="http://www.w3.org/1999/xlink">
<g id="graph0" class="graph" transform="scale(1 1) rotate(0) translate(4 36)">
<title>ALobbyGameMode::GetMusicAudioComponent</title>
<!-- Node1 -->
<g id="Node000001" class="node">
<title>Node1</title>
<g id="a_Node000001"><a xlink:title=" ">
<polygon fill="#999999" stroke="#666666" points="147.25,-32 0,-32 0,0 147.25,0 147.25,-32"/>
<text text-anchor="start" x="8" y="-18.5" font-family="Arial" font-size="10.00">ALobbyGameMode::GetMusic</text>
<text text-anchor="middle" x="73.62" y="-6.5" font-family="Arial" font-size="10.00">AudioComponent</text>
</a>
</g>
</g>
<!-- Node2 -->
<g id="Node000002" class="node">
<title>Node2</title>
<g id="a_Node000002"><a xlink:href="class_a_lobby_game_mode.html#ab2de961239226c61f47880ced33f6759" target="_top" xlink:title=" ">
<polygon fill="white" stroke="#666666" points="335.75,-26 183.25,-26 183.25,-6 335.75,-6 335.75,-26"/>
<text text-anchor="middle" x="259.5" y="-12.5" font-family="Arial" font-size="10.00">ALobbyGameMode::SetupInput</text>
</a>
</g>
</g>
<!-- Node1&#45;&gt;Node2 -->
<g id="edge1_Node000001_Node000002" class="edge">
<title>Node1&#45;&gt;Node2</title>
<g id="a_edge1_Node000001_Node000002"><a xlink:title=" ">
<path fill="none" stroke="#63b8ff" d="M147.56,-16C155.47,-16 163.57,-16 171.62,-16"/>
<polygon fill="#63b8ff" stroke="#63b8ff" points="171.42,-19.5 181.42,-16 171.42,-12.5 171.42,-19.5"/>
</a>
</g>
</g>
<!-- Node3 -->
<g id="Node000003" class="node">
<title>Node3</title>
<g id="a_Node000003"><a xlink:href="class_a_lobby_game_mode.html#a66e89fff0e95625705fc9f5734e11a50" target="_top" xlink:title=" ">
<polygon fill="white" stroke="#666666" points="514.5,-32 371.75,-32 371.75,0 514.5,0 514.5,-32"/>
<text text-anchor="start" x="379.75" y="-18.5" font-family="Arial" font-size="10.00">ALobbyGameMode::TravelTo</text>
<text text-anchor="middle" x="443.12" y="-6.5" font-family="Arial" font-size="10.00">Level</text>
</a>
</g>
</g>
<!-- Node2&#45;&gt;Node3 -->
<g id="edge2_Node000002_Node000003" class="edge">
<title>Node2&#45;&gt;Node3</title>
<g id="a_edge2_Node000002_Node000003"><a xlink:title=" ">
<path fill="none" stroke="#63b8ff" d="M336.21,-16C344.06,-16 352.06,-16 359.97,-16"/>
<polygon fill="#63b8ff" stroke="#63b8ff" points="359.96,-19.5 369.96,-16 359.96,-12.5 359.96,-19.5"/>
</a>
</g>
</g>
</g>
</svg>
