<?xml version="1.0" encoding="UTF-8" standalone="no"?>
<!DOCTYPE svg PUBLIC "-//W3C//DTD SVG 1.1//EN"
 "http://www.w3.org/Graphics/SVG/1.1/DTD/svg11.dtd">
<!-- Generated by graphviz version 12.2.1 (20241206.2353)
 -->
<!-- Title: Graphical Class Hierarchy Pages: 1 -->
<svg width="216pt" height="66pt"
 viewBox="0.00 0.00 216.25 66.00" xmlns="http://www.w3.org/2000/svg" xmlns:xlink="http://www.w3.org/1999/xlink">
<g id="graph0" class="graph" transform="scale(1 1) rotate(0) translate(4 62)">
<title>Graphical Class Hierarchy</title>
<!-- Node0 -->
<g id="Node000000" class="node">
<title>Node0</title>
<g id="a_Node000000"><a xlink:title=" ">
<polygon fill="#e0e0e0" stroke="#999999" points="73,-39 0,-39 0,-19 73,-19 73,-39"/>
<text text-anchor="middle" x="36.5" y="-25.5" font-family="Arial" font-size="10.00">AGameMode</text>
</a>
</g>
</g>
<!-- Node1 -->
<g id="Node000001" class="node">
<title>Node1</title>
<g id="a_Node000001"><a xlink:href="class_a_lobby_game_mode.html" target="_top" xlink:title=" ">
<polygon fill="white" stroke="#666666" points="208.25,-58 109,-58 109,-38 208.25,-38 208.25,-58"/>
<text text-anchor="middle" x="158.62" y="-44.5" font-family="Arial" font-size="10.00">ALobbyGameMode</text>
</a>
</g>
</g>
<!-- Node0&#45;&gt;Node1 -->
<g id="edge1_Node000000_Node000001" class="edge">
<title>Node0&#45;&gt;Node1</title>
<g id="a_edge1_Node000000_Node000001"><a xlink:title=" ">
<path fill="none" stroke="#63b8ff" d="M84.34,-36.41C92.41,-37.68 100.81,-39.01 108.93,-40.3"/>
<polygon fill="#63b8ff" stroke="#63b8ff" points="85.14,-32.99 74.71,-34.89 84.04,-39.91 85.14,-32.99"/>
</a>
</g>
</g>
<!-- Node2 -->
<g id="Node000002" class="node">
<title>Node2</title>
<g id="a_Node000002"><a xlink:href="class_a_main_game_mode.html" target="_top" xlink:title=" ">
<polygon fill="white" stroke="#666666" points="205.62,-20 111.62,-20 111.62,0 205.62,0 205.62,-20"/>
<text text-anchor="middle" x="158.62" y="-6.5" font-family="Arial" font-size="10.00">AMainGameMode</text>
</a>
</g>
</g>
<!-- Node0&#45;&gt;Node2 -->
<g id="edge2_Node000000_Node000002" class="edge">
<title>Node0&#45;&gt;Node2</title>
<g id="a_edge2_Node000000_Node000002"><a xlink:title=" ">
<path fill="none" stroke="#63b8ff" d="M84.45,-21.57C93.22,-20.19 102.38,-18.74 111.13,-17.35"/>
<polygon fill="#63b8ff" stroke="#63b8ff" points="84.04,-18.09 74.71,-23.11 85.14,-25.01 84.04,-18.09"/>
</a>
</g>
</g>
</g>
</svg>
