<?xml version="1.0" encoding="UTF-8" standalone="no"?>
<!DOCTYPE svg PUBLIC "-//W3C//DTD SVG 1.1//EN"
 "http://www.w3.org/Graphics/SVG/1.1/DTD/svg11.dtd">
<!-- Generated by graphviz version 12.2.1 (20241206.2353)
 -->
<!-- Title: BuffDatabaseManager.h Pages: 1 -->
<svg width="734pt" height="96pt"
 viewBox="0.00 0.00 733.88 96.00" xmlns="http://www.w3.org/2000/svg" xmlns:xlink="http://www.w3.org/1999/xlink">
<g id="graph0" class="graph" transform="scale(1 1) rotate(0) translate(4 92)">
<title>BuffDatabaseManager.h</title>
<!-- Node1 -->
<g id="Node000001" class="node">
<title>Node1</title>
<g id="a_Node000001"><a xlink:title=" ">
<polygon fill="#999999" stroke="#666666" points="379,-88 258,-88 258,-68 379,-68 379,-88"/>
<text text-anchor="middle" x="318.5" y="-74.5" font-family="Arial" font-size="10.00">BuffDatabaseManager.h</text>
</a>
</g>
</g>
<!-- Node2 -->
<g id="Node000002" class="node">
<title>Node2</title>
<g id="a_Node000002"><a xlink:title=" ">
<polygon fill="#e0e0e0" stroke="#999999" points="79,-26 0,-26 0,-6 79,-6 79,-26"/>
<text text-anchor="middle" x="39.5" y="-12.5" font-family="Arial" font-size="10.00">CoreMinimal.h</text>
</a>
</g>
</g>
<!-- Node1&#45;&gt;Node2 -->
<g id="edge1_Node000001_Node000002" class="edge">
<title>Node1&#45;&gt;Node2</title>
<g id="a_edge1_Node000001_Node000002"><a xlink:title=" ">
<path fill="none" stroke="#63b8ff" d="M261.42,-67.53C214.66,-59.37 146.92,-46.61 88.5,-32 85.57,-31.27 82.55,-30.46 79.52,-29.62"/>
<polygon fill="#63b8ff" stroke="#63b8ff" points="80.67,-26.31 70.09,-26.89 78.72,-33.03 80.67,-26.31"/>
</a>
</g>
</g>
<!-- Node3 -->
<g id="Node000003" class="node">
<title>Node3</title>
<g id="a_Node000003"><a xlink:title=" ">
<polygon fill="#e0e0e0" stroke="#999999" points="227.88,-26 97.12,-26 97.12,-6 227.88,-6 227.88,-26"/>
<text text-anchor="middle" x="162.5" y="-12.5" font-family="Arial" font-size="10.00">UObject/NoExportTypes.h</text>
</a>
</g>
</g>
<!-- Node1&#45;&gt;Node3 -->
<g id="edge2_Node000001_Node000003" class="edge">
<title>Node1&#45;&gt;Node3</title>
<g id="a_edge2_Node000001_Node000003"><a xlink:title=" ">
<path fill="none" stroke="#63b8ff" d="M294.12,-67.62C268.21,-57.66 227,-41.81 197.6,-30.5"/>
<polygon fill="#63b8ff" stroke="#63b8ff" points="198.96,-27.27 188.37,-26.95 196.45,-33.81 198.96,-27.27"/>
</a>
</g>
</g>
<!-- Node4 -->
<g id="Node000004" class="node">
<title>Node4</title>
<g id="a_Node000004"><a xlink:title=" ">
<polygon fill="#e0e0e0" stroke="#999999" points="391.38,-26 245.62,-26 245.62,-6 391.38,-6 391.38,-26"/>
<text text-anchor="middle" x="318.5" y="-12.5" font-family="Arial" font-size="10.00">SQLiteDatabaseConnection.h</text>
</a>
</g>
</g>
<!-- Node1&#45;&gt;Node4 -->
<g id="edge3_Node000001_Node000004" class="edge">
<title>Node1&#45;&gt;Node4</title>
<g id="a_edge3_Node000001_Node000004"><a xlink:title=" ">
<path fill="none" stroke="#63b8ff" d="M318.5,-67.62C318.5,-59.56 318.5,-47.65 318.5,-37.41"/>
<polygon fill="#63b8ff" stroke="#63b8ff" points="322,-37.63 318.5,-27.63 315,-37.63 322,-37.63"/>
</a>
</g>
</g>
<!-- Node5 -->
<g id="Node000005" class="node">
<title>Node5</title>
<g id="a_Node000005"><a xlink:title=" ">
<polygon fill="#e0e0e0" stroke="#999999" points="541.25,-32 409.75,-32 409.75,0 541.25,0 541.25,-32"/>
<text text-anchor="start" x="417.75" y="-18.5" font-family="Arial" font-size="10.00">SQLiteCore/Public/Include</text>
<text text-anchor="middle" x="475.5" y="-6.5" font-family="Arial" font-size="10.00">SQLite.h</text>
</a>
</g>
</g>
<!-- Node1&#45;&gt;Node5 -->
<g id="edge4_Node000001_Node000005" class="edge">
<title>Node1&#45;&gt;Node5</title>
<g id="a_edge4_Node000001_Node000005"><a xlink:title=" ">
<path fill="none" stroke="#63b8ff" d="M343.03,-67.62C364.73,-59.33 397.09,-46.96 424.4,-36.53"/>
<polygon fill="#63b8ff" stroke="#63b8ff" points="425.46,-39.87 433.55,-33.03 422.96,-33.33 425.46,-39.87"/>
</a>
</g>
</g>
<!-- Node6 -->
<g id="Node000006" class="node">
<title>Node6</title>
<g id="a_Node000006"><a xlink:title=" ">
<polygon fill="#e0e0e0" stroke="#999999" points="725.88,-26 559.12,-26 559.12,-6 725.88,-6 725.88,-26"/>
<text text-anchor="middle" x="642.5" y="-12.5" font-family="Arial" font-size="10.00">BuffDatabaseManager.generated.h</text>
</a>
</g>
</g>
<!-- Node1&#45;&gt;Node6 -->
<g id="edge5_Node000001_Node000006" class="edge">
<title>Node1&#45;&gt;Node6</title>
<g id="a_edge5_Node000001_Node000006"><a xlink:title=" ">
<path fill="none" stroke="#63b8ff" d="M369.48,-67.56C426.52,-57 518.94,-39.88 580.22,-28.53"/>
<polygon fill="#63b8ff" stroke="#63b8ff" points="580.6,-32.02 589.79,-26.76 579.32,-25.14 580.6,-32.02"/>
</a>
</g>
</g>
</g>
</svg>
