<?xml version="1.0" encoding="UTF-8" standalone="no"?>
<!DOCTYPE svg PUBLIC "-//W3C//DTD SVG 1.1//EN"
 "http://www.w3.org/Graphics/SVG/1.1/DTD/svg11.dtd">
<!-- Generated by graphviz version 12.2.1 (20241206.2353)
 -->
<!-- Title: UBuffDatabaseManager Pages: 1 -->
<svg width="120pt" height="180pt"
 viewBox="0.00 0.00 120.25 180.00" xmlns="http://www.w3.org/2000/svg" xmlns:xlink="http://www.w3.org/1999/xlink">
<g id="graph0" class="graph" transform="scale(1 1) rotate(0) translate(4 176)">
<title>UBuffDatabaseManager</title>
<!-- Node1 -->
<g id="Node000001" class="node">
<title>Node1</title>
<g id="a_Node000001"><a xlink:title=" ">
<polygon fill="#999999" stroke="none" points="112.25,-84 0,-84 0,0 112.25,0 112.25,-84"/>
<text text-anchor="start" x="4" y="-70.5" font-family="Arial" font-size="10.00">UBuffDatabaseManager</text>
<text text-anchor="start" x="16.69" y="-54.5" font-family="Arial" font-size="10.00">&#45;</text>
<text text-anchor="start" x="36.38" y="-54.5" font-family="Arial" font-size="10.00">Database</text>
<text text-anchor="start" x="16.69" y="-38.5" font-family="Arial" font-size="10.00">&#45;</text>
<text text-anchor="start" x="36.38" y="-38.5" font-family="Arial" font-size="10.00">Instance</text>
<text text-anchor="start" x="15.19" y="-22.5" font-family="Arial" font-size="10.00">+</text>
<text text-anchor="start" x="36.38" y="-22.5" font-family="Arial" font-size="10.00">LoadBuffs()</text>
<text text-anchor="start" x="15.19" y="-6.5" font-family="Arial" font-size="10.00">+</text>
<text text-anchor="start" x="36.38" y="-6.5" font-family="Arial" font-size="10.00">Get()</text>
<polygon fill="#666666" stroke="#666666" points="0,-66 0,-66 112.25,-66 112.25,-66 0,-66"/>
<polygon fill="#666666" stroke="#666666" points="0,-34 0,-34 34.38,-34 34.38,-34 0,-34"/>
<polygon fill="#666666" stroke="#666666" points="34.38,-34 34.38,-34 112.25,-34 112.25,-34 34.38,-34"/>
<polygon fill="none" stroke="#666666" points="0,0 0,-84 112.25,-84 112.25,0 0,0"/>
</a>
</g>
</g>
<!-- Node2 -->
<g id="Node000002" class="node">
<title>Node2</title>
<g id="a_Node000002"><a xlink:title=" ">
<polygon fill="white" stroke="none" points="78.12,-172 34.12,-172 34.12,-120 78.12,-120 78.12,-172"/>
<text text-anchor="start" x="38.12" y="-158.5" font-family="Arial" font-size="10.00">UObject</text>
<text text-anchor="start" x="54.62" y="-142.5" font-family="Arial" font-size="10.00"> </text>
<text text-anchor="start" x="54.62" y="-126.5" font-family="Arial" font-size="10.00"> </text>
<polygon fill="#666666" stroke="#666666" points="34.12,-154 34.12,-154 78.12,-154 78.12,-154 34.12,-154"/>
<polygon fill="#666666" stroke="#666666" points="34.12,-138 34.12,-138 78.12,-138 78.12,-138 34.12,-138"/>
<polygon fill="none" stroke="#666666" points="34.12,-120 34.12,-172 78.12,-172 78.12,-120 34.12,-120"/>
</a>
</g>
</g>
<!-- Node2&#45;&gt;Node1 -->
<g id="edge1_Node000001_Node000002" class="edge">
<title>Node2&#45;&gt;Node1</title>
<g id="a_edge1_Node000001_Node000002"><a xlink:title=" ">
<path fill="none" stroke="#63b8ff" d="M56.12,-108.77C56.12,-100.75 56.12,-92.19 56.12,-83.99"/>
<polygon fill="none" stroke="#63b8ff" points="52.63,-108.53 56.13,-118.53 59.63,-108.53 52.63,-108.53"/>
</a>
</g>
</g>
</g>
</svg>
