<?xml version="1.0" encoding="UTF-8" standalone="no"?>
<!DOCTYPE svg PUBLIC "-//W3C//DTD SVG 1.1//EN"
 "http://www.w3.org/Graphics/SVG/1.1/DTD/svg11.dtd">
<!-- Generated by graphviz version 12.2.1 (20241206.2353)
 -->
<!-- Title: MainCharacter.h Pages: 1 -->
<svg width="1112pt" height="96pt"
 viewBox="0.00 0.00 1112.38 96.00" xmlns="http://www.w3.org/2000/svg" xmlns:xlink="http://www.w3.org/1999/xlink">
<g id="graph0" class="graph" transform="scale(1 1) rotate(0) translate(4 92)">
<title>MainCharacter.h</title>
<!-- Node1 -->
<g id="Node000001" class="node">
<title>Node1</title>
<g id="a_Node000001"><a xlink:title=" ">
<polygon fill="#999999" stroke="#666666" points="516.5,-88 428.5,-88 428.5,-68 516.5,-68 516.5,-88"/>
<text text-anchor="middle" x="472.5" y="-74.5" font-family="Arial" font-size="10.00">MainCharacter.h</text>
</a>
</g>
</g>
<!-- Node2 -->
<g id="Node000002" class="node">
<title>Node2</title>
<g id="a_Node000002"><a xlink:title=" ">
<polygon fill="#e0e0e0" stroke="#999999" points="79,-26 0,-26 0,-6 79,-6 79,-26"/>
<text text-anchor="middle" x="39.5" y="-12.5" font-family="Arial" font-size="10.00">CoreMinimal.h</text>
</a>
</g>
</g>
<!-- Node1&#45;&gt;Node2 -->
<g id="edge1_Node000001_Node000002" class="edge">
<title>Node1&#45;&gt;Node2</title>
<g id="a_edge1_Node000001_Node000002"><a xlink:title=" ">
<path fill="none" stroke="#63b8ff" d="M428.18,-74.51C356.1,-69.87 209.27,-57.91 87.5,-32 84.3,-31.32 81,-30.52 77.71,-29.64"/>
<polygon fill="#63b8ff" stroke="#63b8ff" points="78.71,-26.29 68.13,-26.88 76.77,-33.01 78.71,-26.29"/>
</a>
</g>
</g>
<!-- Node3 -->
<g id="Node000003" class="node">
<title>Node3</title>
<g id="a_Node000003"><a xlink:title=" ">
<polygon fill="#e0e0e0" stroke="#999999" points="242,-26 97,-26 97,-6 242,-6 242,-26"/>
<text text-anchor="middle" x="169.5" y="-12.5" font-family="Arial" font-size="10.00">GameFramework/Character.h</text>
</a>
</g>
</g>
<!-- Node1&#45;&gt;Node3 -->
<g id="edge2_Node000001_Node000003" class="edge">
<title>Node1&#45;&gt;Node3</title>
<g id="a_edge2_Node000001_Node000003"><a xlink:title=" ">
<path fill="none" stroke="#63b8ff" d="M428.12,-68.21C375.34,-57.76 287.04,-40.28 228.54,-28.69"/>
<polygon fill="#63b8ff" stroke="#63b8ff" points="229.23,-25.26 218.74,-26.75 227.87,-32.13 229.23,-25.26"/>
</a>
</g>
</g>
<!-- Node4 -->
<g id="Node000004" class="node">
<title>Node4</title>
<g id="a_Node000004"><a xlink:title=" ">
<polygon fill="#e0e0e0" stroke="#999999" points="381.38,-32 259.62,-32 259.62,0 381.38,0 381.38,-32"/>
<text text-anchor="start" x="267.62" y="-18.5" font-family="Arial" font-size="10.00">MultiplayerShooter</text>
<text text-anchor="middle" x="320.5" y="-6.5" font-family="Arial" font-size="10.00">/Types/TurningInPlace.h</text>
</a>
</g>
</g>
<!-- Node1&#45;&gt;Node4 -->
<g id="edge3_Node000001_Node000004" class="edge">
<title>Node1&#45;&gt;Node4</title>
<g id="a_edge3_Node000001_Node000004"><a xlink:title=" ">
<path fill="none" stroke="#63b8ff" d="M448.75,-67.62C427.84,-59.37 396.69,-47.07 370.33,-36.67"/>
<polygon fill="#63b8ff" stroke="#63b8ff" points="371.74,-33.46 361.15,-33.05 369.17,-39.97 371.74,-33.46"/>
</a>
</g>
</g>
<!-- Node5 -->
<g id="Node000005" class="node">
<title>Node5</title>
<g id="a_Node000005"><a xlink:title=" ">
<polygon fill="#e0e0e0" stroke="#999999" points="545.75,-26 399.25,-26 399.25,-6 545.75,-6 545.75,-26"/>
<text text-anchor="middle" x="472.5" y="-12.5" font-family="Arial" font-size="10.00">Camera/CameraComponent.h</text>
</a>
</g>
</g>
<!-- Node1&#45;&gt;Node5 -->
<g id="edge4_Node000001_Node000005" class="edge">
<title>Node1&#45;&gt;Node5</title>
<g id="a_edge4_Node000001_Node000005"><a xlink:title=" ">
<path fill="none" stroke="#63b8ff" d="M472.5,-67.62C472.5,-59.56 472.5,-47.65 472.5,-37.41"/>
<polygon fill="#63b8ff" stroke="#63b8ff" points="476,-37.63 472.5,-27.63 469,-37.63 476,-37.63"/>
</a>
</g>
</g>
<!-- Node6 -->
<g id="Node000006" class="node">
<title>Node6</title>
<g id="a_Node000006"><a xlink:title=" ">
<polygon fill="#e0e0e0" stroke="#999999" points="740.75,-32 564.25,-32 564.25,0 740.75,0 740.75,-32"/>
<text text-anchor="start" x="572.25" y="-18.5" font-family="Arial" font-size="10.00">MultiplayerShooter</text>
<text text-anchor="middle" x="652.5" y="-6.5" font-family="Arial" font-size="10.00">/ActorComponents/BuffComponent.h</text>
</a>
</g>
</g>
<!-- Node1&#45;&gt;Node6 -->
<g id="edge5_Node000001_Node000006" class="edge">
<title>Node1&#45;&gt;Node6</title>
<g id="a_edge5_Node000001_Node000006"><a xlink:title=" ">
<path fill="none" stroke="#63b8ff" d="M500.62,-67.62C525.83,-59.22 563.59,-46.64 595.15,-36.12"/>
<polygon fill="#63b8ff" stroke="#63b8ff" points="596.21,-39.45 604.59,-32.97 594,-32.81 596.21,-39.45"/>
</a>
</g>
</g>
<!-- Node7 -->
<g id="Node000007" class="node">
<title>Node7</title>
<g id="a_Node000007"><a xlink:title=" ">
<polygon fill="#e0e0e0" stroke="#999999" points="952.38,-32 758.62,-32 758.62,0 952.38,0 952.38,-32"/>
<text text-anchor="start" x="766.62" y="-18.5" font-family="Arial" font-size="10.00">MultiplayerShooter</text>
<text text-anchor="middle" x="855.5" y="-6.5" font-family="Arial" font-size="10.00">/ActorComponents/CombatComponent.h</text>
</a>
</g>
</g>
<!-- Node1&#45;&gt;Node7 -->
<g id="edge6_Node000001_Node000007" class="edge">
<title>Node1&#45;&gt;Node7</title>
<g id="a_edge6_Node000001_Node000007"><a xlink:title=" ">
<path fill="none" stroke="#63b8ff" d="M516.81,-70.06C572.74,-61.3 670.84,-45.93 747.12,-33.98"/>
<polygon fill="#63b8ff" stroke="#63b8ff" points="747.38,-37.48 756.71,-32.48 746.29,-30.57 747.38,-37.48"/>
</a>
</g>
</g>
<!-- Node8 -->
<g id="Node000008" class="node">
<title>Node8</title>
<g id="a_Node000008"><a xlink:title=" ">
<polygon fill="#e0e0e0" stroke="#999999" points="1104.38,-26 970.62,-26 970.62,-6 1104.38,-6 1104.38,-26"/>
<text text-anchor="middle" x="1037.5" y="-12.5" font-family="Arial" font-size="10.00">MainCharacter.generated.h</text>
</a>
</g>
</g>
<!-- Node1&#45;&gt;Node8 -->
<g id="edge7_Node000001_Node000008" class="edge">
<title>Node1&#45;&gt;Node8</title>
<g id="a_edge7_Node000001_Node000008"><a xlink:title=" ">
<path fill="none" stroke="#63b8ff" d="M516.85,-74.46C602.9,-69.18 798.43,-55.53 961.5,-32 968.23,-31.03 975.27,-29.86 982.23,-28.6"/>
<polygon fill="#63b8ff" stroke="#63b8ff" points="982.76,-32.06 991.94,-26.78 981.46,-25.18 982.76,-32.06"/>
</a>
</g>
</g>
</g>
</svg>
