<?xml version="1.0" encoding="UTF-8" standalone="no"?>
<!DOCTYPE svg PUBLIC "-//W3C//DTD SVG 1.1//EN"
 "http://www.w3.org/Graphics/SVG/1.1/DTD/svg11.dtd">
<!-- Generated by graphviz version 12.2.1 (20241206.2353)
 -->
<!-- Title: MainCharacter.cpp Pages: 1 -->
<!--zoomable 176 -->

<svg id="main" version="1.1" xmlns="http://www.w3.org/2000/svg" xmlns:xlink="http://www.w3.org/1999/xlink" xml:space="preserve" onload="init(evt)">

<style type="text/css"><![CDATA[
.node, .edge {opacity: 0.7;}
.node.selected, .edge.selected {opacity: 1;}
.edge:hover path { stroke: red; }
.edge:hover polygon { stroke: red; fill: red; }
]]></style>

<defs>
  <circle id="rim" cx="0" cy="0" r="7"/>
  <circle id="rim2" cx="0" cy="0" r="3.5"/>
  <g id="zoomPlus">
    <use xlink:href="#rim" fill="#404040"><set attributeName="fill" to="#808080" begin="zoomplus.mouseover" end="zoomplus.mouseout"/></use>
    <path d="M-4,0h8M0,-4v8" fill="none" stroke="white" stroke-width="1.5" pointer-events="none"/>
  </g>
  <g id="zoomMin">
    <use xlink:href="#rim" fill="#404040"><set attributeName="fill" to="#808080" begin="zoomminus.mouseover" end="zoomminus.mouseout"/></use>
    <path d="M-4,0h8" fill="none" stroke="white" stroke-width="1.5" pointer-events="none"/>
  </g>
  <g id="arrowUp" transform="translate(30 24)">
    <use xlink:href="#rim"/>
    <path pointer-events="none" fill="none" stroke="white" stroke-width="1.5" d="M0,-3.0v7 M-2.5,-0.5L0,-3.0L2.5,-0.5"/>
  </g>
  <g id="arrowRight" transform="rotate(90) translate(36 -43)">
    <use xlink:href="#rim"/>
    <path pointer-events="none" fill="none" stroke="white" stroke-width="1.5" d="M0,-3.0v7 M-2.5,-0.5L0,-3.0L2.5,-0.5"/>
  </g>
  <g id="arrowDown" transform="rotate(180) translate(-30 -48)">
    <use xlink:href="#rim"/>
    <path pointer-events="none" fill="none" stroke="white" stroke-width="1.5" d="M0,-3.0v7 M-2.5,-0.5L0,-3.0L2.5,-0.5"/>
  </g>
  <g id="arrowLeft" transform="rotate(270) translate(-36 17)">
    <use xlink:href="#rim"/>
    <path pointer-events="none" fill="none" stroke="white" stroke-width="1.5" d="M0,-3.0v7 M-2.5,-0.5L0,-3.0L2.5,-0.5"/>
  </g>
  <g id="resetDef">
    <use xlink:href="#rim2" fill="#404040"><set attributeName="fill" to="#808080" begin="reset.mouseover" end="reset.mouseout"/></use>
  </g>
</defs>
<script type="application/ecmascript">
var viewWidth = 4731;
var viewHeight = 176;
var sectionId = 'dynsection-0';
</script>
<script type="application/ecmascript" xlink:href="svg.min.js"/>
<svg id="graph" class="graph">
<g id="viewport">
<title>MainCharacter.cpp</title>
<!-- Node1 -->
<g id="Node000001" class="node">
<title>Node1</title>
<g id="a_Node000001"><a xlink:title=" ">
<polygon fill="#999999" stroke="#666666" points="2524.75,-168 2426.25,-168 2426.25,-148 2524.75,-148 2524.75,-168"/>
<text text-anchor="middle" x="2475.5" y="-154.5" font-family="Arial" font-size="10.00">MainCharacter.cpp</text>
</a>
</g>
</g>
<!-- Node2 -->
<g id="Node000002" class="node">
<title>Node2</title>
<g id="a_Node000002"><a xlink:href="_main_character_8h.html" target="_top" xlink:title=" ">
<polygon fill="white" stroke="#666666" points="602.5,-100 514.5,-100 514.5,-80 602.5,-80 602.5,-100"/>
<text text-anchor="middle" x="558.5" y="-86.5" font-family="Arial" font-size="10.00">MainCharacter.h</text>
</a>
</g>
</g>
<!-- Node1&#45;&gt;Node2 -->
<g id="edge1_Node000001_Node000002" class="edge">
<title>Node1&#45;&gt;Node2</title>
<g id="a_edge1_Node000001_Node000002"><a xlink:title=" ">
<path fill="none" stroke="#63b8ff" d="M2425.83,-157.2C2170.52,-158.03 1003.92,-159.12 645.5,-112 630.91,-110.08 615.21,-106.71 601.22,-103.22"/>
<polygon fill="#63b8ff" stroke="#63b8ff" points="602.44,-99.92 591.89,-100.8 600.69,-106.7 602.44,-99.92"/>
</a>
</g>
</g>
<!-- Node6 -->
<g id="Node000006" class="node">
<title>Node6</title>
<g id="a_Node000006"><a xlink:title=" ">
<polygon fill="#e0e0e0" stroke="#999999" points="697.75,-26 551.25,-26 551.25,-6 697.75,-6 697.75,-26"/>
<text text-anchor="middle" x="624.5" y="-12.5" font-family="Arial" font-size="10.00">Camera/CameraComponent.h</text>
</a>
</g>
</g>
<!-- Node1&#45;&gt;Node6 -->
<g id="edge11_Node000001_Node000006" class="edge">
<title>Node1&#45;&gt;Node6</title>
<g id="a_edge11_Node000001_Node000006"><a xlink:title=" ">
<path fill="none" stroke="#63b8ff" d="M2426.09,-157.11C2165.05,-157.49 952.25,-156.83 791.5,-112 734.06,-95.98 675.39,-56 645.23,-33.34"/>
<polygon fill="#63b8ff" stroke="#63b8ff" points="647.41,-30.6 637.34,-27.3 643.16,-36.16 647.41,-30.6"/>
</a>
</g>
</g>
<!-- Node7 -->
<g id="Node000007" class="node">
<title>Node7</title>
<g id="a_Node000007"><a xlink:title=" ">
<polygon fill="#e0e0e0" stroke="#999999" points="892.75,-32 716.25,-32 716.25,0 892.75,0 892.75,-32"/>
<text text-anchor="start" x="724.25" y="-18.5" font-family="Arial" font-size="10.00">MultiplayerShooter</text>
<text text-anchor="middle" x="804.5" y="-6.5" font-family="Arial" font-size="10.00">/ActorComponents/BuffComponent.h</text>
</a>
</g>
</g>
<!-- Node1&#45;&gt;Node7 -->
<g id="edge30_Node000001_Node000007" class="edge">
<title>Node1&#45;&gt;Node7</title>
<g id="a_edge30_Node000001_Node000007"><a xlink:title=" ">
<path fill="none" stroke="#63b8ff" d="M2425.77,-156.57C2152.18,-154.06 841.45,-140.59 811.5,-112 793.53,-94.85 794.24,-65.13 797.89,-43.48"/>
<polygon fill="#63b8ff" stroke="#63b8ff" points="801.28,-44.4 799.82,-33.91 794.41,-43.02 801.28,-44.4"/>
</a>
</g>
</g>
<!-- Node8 -->
<g id="Node000008" class="node">
<title>Node8</title>
<g id="a_Node000008"><a xlink:title=" ">
<polygon fill="#e0e0e0" stroke="#999999" points="1104.38,-32 910.62,-32 910.62,0 1104.38,0 1104.38,-32"/>
<text text-anchor="start" x="918.62" y="-18.5" font-family="Arial" font-size="10.00">MultiplayerShooter</text>
<text text-anchor="middle" x="1007.5" y="-6.5" font-family="Arial" font-size="10.00">/ActorComponents/CombatComponent.h</text>
</a>
</g>
</g>
<!-- Node1&#45;&gt;Node8 -->
<g id="edge16_Node000001_Node000008" class="edge">
<title>Node1&#45;&gt;Node8</title>
<g id="a_edge16_Node000001_Node000008"><a xlink:title=" ">
<path fill="none" stroke="#63b8ff" d="M2426.16,-156.59C2154.68,-154.24 854.13,-141.43 825.5,-112 811.86,-97.98 813.68,-83.58 825.5,-68 835.92,-54.26 868.47,-43.2 903.23,-34.94"/>
<polygon fill="#63b8ff" stroke="#63b8ff" points="903.61,-38.44 912.58,-32.81 902.05,-31.62 903.61,-38.44"/>
</a>
</g>
</g>
<!-- Node10 -->
<g id="Node000010" class="node">
<title>Node10</title>
<g id="a_Node000010"><a xlink:title=" ">
<polygon fill="#e0e0e0" stroke="#999999" points="934.88,-100 834.12,-100 834.12,-80 934.88,-80 934.88,-100"/>
<text text-anchor="middle" x="884.5" y="-86.5" font-family="Arial" font-size="10.00">NetworkMessage.h</text>
</a>
</g>
</g>
<!-- Node1&#45;&gt;Node10 -->
<g id="edge9_Node000001_Node000010" class="edge">
<title>Node1&#45;&gt;Node10</title>
<g id="a_edge9_Node000001_Node000010"><a xlink:title=" ">
<path fill="none" stroke="#63b8ff" d="M2425.91,-156.45C2179.5,-153.57 1092.72,-139.44 944.5,-112 935.34,-110.31 925.71,-107.45 916.9,-104.37"/>
<polygon fill="#63b8ff" stroke="#63b8ff" points="918.3,-101.16 907.7,-100.97 915.86,-107.72 918.3,-101.16"/>
</a>
</g>
</g>
<!-- Node11 -->
<g id="Node000011" class="node">
<title>Node11</title>
<g id="a_Node000011"><a xlink:title=" ">
<polygon fill="#e0e0e0" stroke="#999999" points="1151.62,-100 953.38,-100 953.38,-80 1151.62,-80 1151.62,-100"/>
<text text-anchor="middle" x="1052.5" y="-86.5" font-family="Arial" font-size="10.00">GameFramework/SpringArmComponent.h</text>
</a>
</g>
</g>
<!-- Node1&#45;&gt;Node11 -->
<g id="edge10_Node000001_Node000011" class="edge">
<title>Node1&#45;&gt;Node11</title>
<g id="a_edge10_Node000001_Node000011"><a xlink:title=" ">
<path fill="none" stroke="#63b8ff" d="M2425.76,-156.35C2217.23,-153.46 1412.58,-140.64 1160.5,-112 1141.96,-109.89 1121.85,-106.34 1104.06,-102.75"/>
<polygon fill="#63b8ff" stroke="#63b8ff" points="1105.02,-99.37 1094.52,-100.76 1103.6,-106.22 1105.02,-99.37"/>
</a>
</g>
</g>
<!-- Node12 -->
<g id="Node000012" class="node">
<title>Node12</title>
<g id="a_Node000012"><a xlink:title=" ">
<polygon fill="#e0e0e0" stroke="#999999" points="1351.75,-106 1169.25,-106 1169.25,-74 1351.75,-74 1351.75,-106"/>
<text text-anchor="start" x="1177.25" y="-92.5" font-family="Arial" font-size="10.00">GameFramework/CharacterMovement</text>
<text text-anchor="middle" x="1260.5" y="-80.5" font-family="Arial" font-size="10.00">Component.h</text>
</a>
</g>
</g>
<!-- Node1&#45;&gt;Node12 -->
<g id="edge12_Node000001_Node000012" class="edge">
<title>Node1&#45;&gt;Node12</title>
<g id="a_edge12_Node000001_Node000012"><a xlink:title=" ">
<path fill="none" stroke="#63b8ff" d="M2425.87,-156.1C2238.1,-152.51 1571.14,-138.18 1360.5,-112 1353.05,-111.07 1345.33,-109.88 1337.63,-108.53"/>
<polygon fill="#63b8ff" stroke="#63b8ff" points="1338.36,-105.11 1327.89,-106.73 1337.09,-111.99 1338.36,-105.11"/>
</a>
</g>
</g>
<!-- Node13 -->
<g id="Node000013" class="node">
<title>Node13</title>
<g id="a_Node000013"><a xlink:title=" ">
<polygon fill="#e0e0e0" stroke="#999999" points="1533.38,-100 1369.62,-100 1369.62,-80 1533.38,-80 1533.38,-100"/>
<text text-anchor="middle" x="1451.5" y="-86.5" font-family="Arial" font-size="10.00">Components/WidgetComponent.h</text>
</a>
</g>
</g>
<!-- Node1&#45;&gt;Node13 -->
<g id="edge13_Node000001_Node000013" class="edge">
<title>Node1&#45;&gt;Node13</title>
<g id="a_edge13_Node000001_Node000013"><a xlink:title=" ">
<path fill="none" stroke="#63b8ff" d="M2425.83,-155.78C2258.41,-151.47 1715.59,-135.95 1542.5,-112 1527.55,-109.93 1511.43,-106.59 1496.98,-103.17"/>
<polygon fill="#63b8ff" stroke="#63b8ff" points="1497.81,-99.77 1487.27,-100.8 1496.15,-106.57 1497.81,-99.77"/>
</a>
</g>
</g>
<!-- Node14 -->
<g id="Node000014" class="node">
<title>Node14</title>
<g id="a_Node000014"><a xlink:title=" ">
<polygon fill="#e0e0e0" stroke="#999999" points="1659.62,-100 1551.38,-100 1551.38,-80 1659.62,-80 1659.62,-100"/>
<text text-anchor="middle" x="1605.5" y="-86.5" font-family="Arial" font-size="10.00">Net/UnrealNetwork.h</text>
</a>
</g>
</g>
<!-- Node1&#45;&gt;Node14 -->
<g id="edge14_Node000001_Node000014" class="edge">
<title>Node1&#45;&gt;Node14</title>
<g id="a_edge14_Node000001_Node000014"><a xlink:title=" ">
<path fill="none" stroke="#63b8ff" d="M2425.93,-155.96C2273.77,-152.5 1814.86,-139.95 1668.5,-112 1658.92,-110.17 1648.79,-107.26 1639.52,-104.17"/>
<polygon fill="#63b8ff" stroke="#63b8ff" points="1640.76,-100.9 1630.17,-100.89 1638.45,-107.51 1640.76,-100.9"/>
</a>
</g>
</g>
<!-- Node15 -->
<g id="Node000015" class="node">
<title>Node15</title>
<g id="a_Node000015"><a xlink:title=" ">
<polygon fill="#e0e0e0" stroke="#999999" points="1823.38,-106 1677.62,-106 1677.62,-74 1823.38,-74 1823.38,-106"/>
<text text-anchor="start" x="1685.62" y="-92.5" font-family="Arial" font-size="10.00">MultiplayerShooter</text>
<text text-anchor="middle" x="1750.5" y="-80.5" font-family="Arial" font-size="10.00">/BaseWeapon/BaseWeapon.h</text>
</a>
</g>
</g>
<!-- Node1&#45;&gt;Node15 -->
<g id="edge15_Node000001_Node000015" class="edge">
<title>Node1&#45;&gt;Node15</title>
<g id="a_edge15_Node000001_Node000015"><a xlink:title=" ">
<path fill="none" stroke="#63b8ff" d="M2425.94,-156.57C2317.6,-154.98 2051.78,-147.45 1832.5,-112 1827.02,-111.11 1821.37,-110.03 1815.72,-108.83"/>
<polygon fill="#63b8ff" stroke="#63b8ff" points="1816.91,-105.51 1806.38,-106.73 1815.37,-112.34 1816.91,-105.51"/>
</a>
</g>
</g>
<!-- Node16 -->
<g id="Node000016" class="node">
<title>Node16</title>
<g id="a_Node000016"><a xlink:title=" ">
<polygon fill="#e0e0e0" stroke="#999999" points="1989.5,-100 1841.5,-100 1841.5,-80 1989.5,-80 1989.5,-100"/>
<text text-anchor="middle" x="1915.5" y="-86.5" font-family="Arial" font-size="10.00">UObject/ConstructorHelpers.h</text>
</a>
</g>
</g>
<!-- Node1&#45;&gt;Node16 -->
<g id="edge17_Node000001_Node000016" class="edge">
<title>Node1&#45;&gt;Node16</title>
<g id="a_edge17_Node000001_Node000016"><a xlink:title=" ">
<path fill="none" stroke="#63b8ff" d="M2425.84,-154.77C2338.91,-150.33 2153.72,-138.41 1999.5,-112 1986.32,-109.74 1972.16,-106.52 1959.29,-103.27"/>
<polygon fill="#63b8ff" stroke="#63b8ff" points="1960.39,-99.94 1949.83,-100.82 1958.63,-106.72 1960.39,-99.94"/>
</a>
</g>
</g>
<!-- Node17 -->
<g id="Node000017" class="node">
<title>Node17</title>
<g id="a_Node000017"><a xlink:title=" ">
<polygon fill="#e0e0e0" stroke="#999999" points="2177,-100 2008,-100 2008,-80 2177,-80 2177,-100"/>
<text text-anchor="middle" x="2092.5" y="-86.5" font-family="Arial" font-size="10.00">Components/CapsuleComponent.h</text>
</a>
</g>
</g>
<!-- Node1&#45;&gt;Node17 -->
<g id="edge18_Node000001_Node000017" class="edge">
<title>Node1&#45;&gt;Node17</title>
<g id="a_edge18_Node000001_Node000017"><a xlink:title=" ">
<path fill="none" stroke="#63b8ff" d="M2425.98,-150.29C2368.29,-142.25 2270.19,-127.85 2186.5,-112 2172.37,-109.32 2157.12,-106.08 2143.11,-102.94"/>
<polygon fill="#63b8ff" stroke="#63b8ff" points="2144.18,-99.6 2133.65,-100.8 2142.63,-106.42 2144.18,-99.6"/>
</a>
</g>
</g>
<!-- Node18 -->
<g id="Node000018" class="node">
<title>Node18</title>
<g id="a_Node000018"><a xlink:title=" ">
<polygon fill="#e0e0e0" stroke="#999999" points="2334,-100 2195,-100 2195,-80 2334,-80 2334,-100"/>
<text text-anchor="middle" x="2264.5" y="-86.5" font-family="Arial" font-size="10.00">Kismet/KismetMathLibrary.h</text>
</a>
</g>
</g>
<!-- Node1&#45;&gt;Node18 -->
<g id="edge19_Node000001_Node000018" class="edge">
<title>Node1&#45;&gt;Node18</title>
<g id="a_edge19_Node000001_Node000018"><a xlink:title=" ">
<path fill="none" stroke="#63b8ff" d="M2445.27,-147.54C2408.6,-136.08 2346.63,-116.69 2305.64,-103.87"/>
<polygon fill="#63b8ff" stroke="#63b8ff" points="2306.71,-100.54 2296.12,-100.89 2304.62,-107.22 2306.71,-100.54"/>
</a>
</g>
</g>
<!-- Node19 -->
<g id="Node000019" class="node">
<title>Node19</title>
<g id="a_Node000019"><a xlink:title=" ">
<polygon fill="#e0e0e0" stroke="#999999" points="2460.62,-106 2352.38,-106 2352.38,-74 2460.62,-74 2460.62,-106"/>
<text text-anchor="start" x="2360.38" y="-92.5" font-family="Arial" font-size="10.00">MultiplayerShooter</text>
<text text-anchor="middle" x="2406.5" y="-80.5" font-family="Arial" font-size="10.00">/MultiplayerShooter.h</text>
</a>
</g>
</g>
<!-- Node1&#45;&gt;Node19 -->
<g id="edge20_Node000001_Node000019" class="edge">
<title>Node1&#45;&gt;Node19</title>
<g id="a_edge20_Node000001_Node000019"><a xlink:title=" ">
<path fill="none" stroke="#63b8ff" d="M2465.61,-147.54C2456.56,-138.88 2442.78,-125.7 2430.81,-114.25"/>
<polygon fill="#63b8ff" stroke="#63b8ff" points="2433.24,-111.73 2423.59,-107.35 2428.4,-116.79 2433.24,-111.73"/>
</a>
</g>
</g>
<!-- Node20 -->
<g id="Node000020" class="node">
<title>Node20</title>
<g id="a_Node000020"><a xlink:title=" ">
<polygon fill="#e0e0e0" stroke="#999999" points="2612,-112 2479,-112 2479,-68 2612,-68 2612,-112"/>
<text text-anchor="start" x="2487" y="-98.5" font-family="Arial" font-size="10.00">MultiplayerShooter</text>
<text text-anchor="start" x="2487" y="-86.5" font-family="Arial" font-size="10.00">/PlayerController/MyPlayer</text>
<text text-anchor="middle" x="2545.5" y="-74.5" font-family="Arial" font-size="10.00">Controller.h</text>
</a>
</g>
</g>
<!-- Node1&#45;&gt;Node20 -->
<g id="edge21_Node000001_Node000020" class="edge">
<title>Node1&#45;&gt;Node20</title>
<g id="a_edge21_Node000001_Node000020"><a xlink:title=" ">
<path fill="none" stroke="#63b8ff" d="M2485.53,-147.54C2493.17,-140.34 2504.11,-130.02 2514.57,-120.17"/>
<polygon fill="#63b8ff" stroke="#63b8ff" points="2516.8,-122.87 2521.67,-113.47 2511.99,-117.78 2516.8,-122.87"/>
</a>
</g>
</g>
<!-- Node21 -->
<g id="Node000021" class="node">
<title>Node21</title>
<g id="a_Node000021"><a xlink:title=" ">
<polygon fill="#e0e0e0" stroke="#999999" points="2781.38,-106 2629.62,-106 2629.62,-74 2781.38,-74 2781.38,-106"/>
<text text-anchor="start" x="2637.62" y="-92.5" font-family="Arial" font-size="10.00">MultiplayerShooter</text>
<text text-anchor="middle" x="2705.5" y="-80.5" font-family="Arial" font-size="10.00">/GameMode/MainGameMode.h</text>
</a>
</g>
</g>
<!-- Node1&#45;&gt;Node21 -->
<g id="edge22_Node000001_Node000021" class="edge">
<title>Node1&#45;&gt;Node21</title>
<g id="a_edge22_Node000001_Node000021"><a xlink:title=" ">
<path fill="none" stroke="#63b8ff" d="M2508.45,-147.54C2542.85,-137.67 2597.67,-121.94 2640.77,-109.57"/>
<polygon fill="#63b8ff" stroke="#63b8ff" points="2641.63,-112.97 2650.28,-106.85 2639.7,-106.24 2641.63,-112.97"/>
</a>
</g>
</g>
<!-- Node22 -->
<g id="Node000022" class="node">
<title>Node22</title>
<g id="a_Node000022"><a xlink:title=" ">
<polygon fill="#e0e0e0" stroke="#999999" points="2885.75,-100 2799.25,-100 2799.25,-80 2885.75,-80 2885.75,-100"/>
<text text-anchor="middle" x="2842.5" y="-86.5" font-family="Arial" font-size="10.00">TimerManager.h</text>
</a>
</g>
</g>
<!-- Node1&#45;&gt;Node22 -->
<g id="edge23_Node000001_Node000022" class="edge">
<title>Node1&#45;&gt;Node22</title>
<g id="a_edge23_Node000001_Node000022"><a xlink:title=" ">
<path fill="none" stroke="#63b8ff" d="M2525.08,-153.64C2587.77,-148.55 2698.61,-136.73 2790.5,-112 2797.66,-110.07 2805.16,-107.44 2812.16,-104.68"/>
<polygon fill="#63b8ff" stroke="#63b8ff" points="2813.34,-107.98 2821.24,-100.92 2810.66,-101.51 2813.34,-107.98"/>
</a>
</g>
</g>
<!-- Node23 -->
<g id="Node000023" class="node">
<title>Node23</title>
<g id="a_Node000023"><a xlink:title=" ">
<polygon fill="#e0e0e0" stroke="#999999" points="3053.62,-100 2903.38,-100 2903.38,-80 3053.62,-80 3053.62,-100"/>
<text text-anchor="middle" x="2978.5" y="-86.5" font-family="Arial" font-size="10.00">Components/BoxComponent.h</text>
</a>
</g>
</g>
<!-- Node1&#45;&gt;Node23 -->
<g id="edge24_Node000001_Node000023" class="edge">
<title>Node1&#45;&gt;Node23</title>
<g id="a_edge24_Node000001_Node000023"><a xlink:title=" ">
<path fill="none" stroke="#63b8ff" d="M2525.16,-153.89C2603.92,-148.47 2762.14,-135.54 2894.5,-112 2907.55,-109.68 2921.57,-106.47 2934.36,-103.25"/>
<polygon fill="#63b8ff" stroke="#63b8ff" points="2934.94,-106.71 2943.74,-100.83 2933.19,-99.94 2934.94,-106.71"/>
</a>
</g>
</g>
<!-- Node24 -->
<g id="Node000024" class="node">
<title>Node24</title>
<g id="a_Node000024"><a xlink:title=" ">
<polygon fill="#e0e0e0" stroke="#999999" points="3225.5,-100 3071.5,-100 3071.5,-80 3225.5,-80 3225.5,-100"/>
<text text-anchor="middle" x="3148.5" y="-86.5" font-family="Arial" font-size="10.00">Components/EditableTextBox.h</text>
</a>
</g>
</g>
<!-- Node1&#45;&gt;Node24 -->
<g id="edge25_Node000001_Node000024" class="edge">
<title>Node1&#45;&gt;Node24</title>
<g id="a_edge25_Node000001_Node000024"><a xlink:title=" ">
<path fill="none" stroke="#63b8ff" d="M2524.91,-155.93C2626.29,-153.13 2864.92,-143.48 3062.5,-112 3076.25,-109.81 3091.05,-106.54 3104.42,-103.22"/>
<polygon fill="#63b8ff" stroke="#63b8ff" points="3104.98,-106.69 3113.8,-100.83 3103.25,-99.91 3104.98,-106.69"/>
</a>
</g>
</g>
<!-- Node25 -->
<g id="Node000025" class="node">
<title>Node25</title>
<g id="a_Node000025"><a xlink:title=" ">
<polygon fill="#e0e0e0" stroke="#999999" points="3391.88,-106 3243.12,-106 3243.12,-74 3391.88,-74 3391.88,-106"/>
<text text-anchor="start" x="3251.12" y="-92.5" font-family="Arial" font-size="10.00">Components/MultiLineEditable</text>
<text text-anchor="middle" x="3317.5" y="-80.5" font-family="Arial" font-size="10.00">TextBox.h</text>
</a>
</g>
</g>
<!-- Node1&#45;&gt;Node25 -->
<g id="edge26_Node000001_Node000025" class="edge">
<title>Node1&#45;&gt;Node25</title>
<g id="a_edge26_Node000001_Node000025"><a xlink:title=" ">
<path fill="none" stroke="#63b8ff" d="M2525.13,-157.28C2646.8,-157.27 2969.36,-153.03 3234.5,-112 3240.05,-111.14 3245.77,-110.08 3251.49,-108.89"/>
<polygon fill="#63b8ff" stroke="#63b8ff" points="3251.95,-112.37 3260.96,-106.8 3250.44,-105.54 3251.95,-112.37"/>
</a>
</g>
</g>
<!-- Node26 -->
<g id="Node000026" class="node">
<title>Node26</title>
<g id="a_Node000026"><a xlink:title=" ">
<polygon fill="#e0e0e0" stroke="#999999" points="3573.38,-100 3409.62,-100 3409.62,-80 3573.38,-80 3573.38,-100"/>
<text text-anchor="middle" x="3491.5" y="-86.5" font-family="Arial" font-size="10.00">Components/SphereComponent.h</text>
</a>
</g>
</g>
<!-- Node1&#45;&gt;Node26 -->
<g id="edge27_Node000001_Node000026" class="edge">
<title>Node1&#45;&gt;Node26</title>
<g id="a_edge27_Node000001_Node000026"><a xlink:title=" ">
<path fill="none" stroke="#63b8ff" d="M2525.17,-157.68C2664.18,-158.93 3068.65,-157.99 3400.5,-112 3415.45,-109.93 3431.57,-106.58 3446.02,-103.17"/>
<polygon fill="#63b8ff" stroke="#63b8ff" points="3446.85,-106.57 3455.73,-100.8 3445.18,-99.77 3446.85,-106.57"/>
</a>
</g>
</g>
<!-- Node27 -->
<g id="Node000027" class="node">
<title>Node27</title>
<g id="a_Node000027"><a xlink:title=" ">
<polygon fill="#e0e0e0" stroke="#999999" points="3745.12,-106 3591.88,-106 3591.88,-74 3745.12,-74 3745.12,-106"/>
<text text-anchor="start" x="3599.88" y="-92.5" font-family="Arial" font-size="10.00">MultiplayerShooter</text>
<text text-anchor="middle" x="3668.5" y="-80.5" font-family="Arial" font-size="10.00">/PlayerState/MainPlayerState.h</text>
</a>
</g>
</g>
<!-- Node1&#45;&gt;Node27 -->
<g id="edge28_Node000001_Node000027" class="edge">
<title>Node1&#45;&gt;Node27</title>
<g id="a_edge28_Node000001_Node000027"><a xlink:title=" ">
<path fill="none" stroke="#63b8ff" d="M2525.12,-156.29C2712.08,-153.43 3373.94,-141.4 3582.5,-112 3588.59,-111.14 3594.87,-110.04 3601.14,-108.79"/>
<polygon fill="#63b8ff" stroke="#63b8ff" points="3601.84,-112.22 3610.89,-106.72 3600.38,-105.37 3601.84,-112.22"/>
</a>
</g>
</g>
<!-- Node28 -->
<g id="Node000028" class="node">
<title>Node28</title>
<g id="a_Node000028"><a xlink:title=" ">
<polygon fill="#e0e0e0" stroke="#999999" points="3942.25,-112 3762.75,-112 3762.75,-68 3942.25,-68 3942.25,-112"/>
<text text-anchor="start" x="3770.75" y="-98.5" font-family="Arial" font-size="10.00">MultiplayerShooter</text>
<text text-anchor="start" x="3770.75" y="-86.5" font-family="Arial" font-size="10.00">/ActorComponents/LagCompensation</text>
<text text-anchor="middle" x="3852.5" y="-74.5" font-family="Arial" font-size="10.00">Component.h</text>
</a>
</g>
</g>
<!-- Node1&#45;&gt;Node28 -->
<g id="edge29_Node000001_Node000028" class="edge">
<title>Node1&#45;&gt;Node28</title>
<g id="a_edge29_Node000001_Node000028"><a xlink:title=" ">
<path fill="none" stroke="#63b8ff" d="M2524.93,-156.42C2726.42,-153.9 3487.27,-142.59 3750.93,-112.3"/>
<polygon fill="#63b8ff" stroke="#63b8ff" points="3751.34,-115.78 3760.85,-111.12 3750.51,-108.83 3751.34,-115.78"/>
</a>
</g>
</g>
<!-- Node29 -->
<g id="Node000029" class="node">
<title>Node29</title>
<g id="a_Node000029"><a xlink:title=" ">
<polygon fill="#e0e0e0" stroke="#999999" points="4057,-106 3960,-106 3960,-74 4057,-74 4057,-106"/>
<text text-anchor="start" x="3968" y="-92.5" font-family="Arial" font-size="10.00">MultiplayerShooter</text>
<text text-anchor="middle" x="4008.5" y="-80.5" font-family="Arial" font-size="10.00">/HUD/Chat.h</text>
</a>
</g>
</g>
<!-- Node1&#45;&gt;Node29 -->
<g id="edge31_Node000001_Node000029" class="edge">
<title>Node1&#45;&gt;Node29</title>
<g id="a_edge31_Node000001_Node000029"><a xlink:title=" ">
<path fill="none" stroke="#63b8ff" d="M2524.9,-156.44C2765.54,-153.57 3809.15,-139.63 3951.5,-112 3954.65,-111.39 3957.87,-110.62 3961.07,-109.75"/>
<polygon fill="#63b8ff" stroke="#63b8ff" points="3961.91,-113.16 3970.45,-106.89 3959.86,-106.46 3961.91,-113.16"/>
</a>
</g>
</g>
<!-- Node30 -->
<g id="Node000030" class="node">
<title>Node30</title>
<g id="a_Node000030"><a xlink:title=" ">
<polygon fill="#e0e0e0" stroke="#999999" points="4188.25,-100 4074.75,-100 4074.75,-80 4188.25,-80 4188.25,-100"/>
<text text-anchor="middle" x="4131.5" y="-86.5" font-family="Arial" font-size="10.00">Components/Widget.h</text>
</a>
</g>
</g>
<!-- Node1&#45;&gt;Node30 -->
<g id="edge32_Node000001_Node000030" class="edge">
<title>Node1&#45;&gt;Node30</title>
<g id="a_edge32_Node000001_Node000030"><a xlink:title=" ">
<path fill="none" stroke="#63b8ff" d="M2524.92,-156.44C2776.79,-153.46 3911.7,-138.63 4066.5,-112 4076.58,-110.27 4087.25,-107.32 4096.96,-104.17"/>
<polygon fill="#63b8ff" stroke="#63b8ff" points="4098.08,-107.48 4106.4,-100.93 4095.81,-100.86 4098.08,-107.48"/>
</a>
</g>
</g>
<!-- Node31 -->
<g id="Node000031" class="node">
<title>Node31</title>
<g id="a_Node000031"><a xlink:title=" ">
<polygon fill="#e0e0e0" stroke="#999999" points="4339,-100 4206,-100 4206,-80 4339,-80 4339,-100"/>
<text text-anchor="middle" x="4272.5" y="-86.5" font-family="Arial" font-size="10.00">Kismet/GameplayStatics.h</text>
</a>
</g>
</g>
<!-- Node1&#45;&gt;Node31 -->
<g id="edge33_Node000001_Node000031" class="edge">
<title>Node1&#45;&gt;Node31</title>
<g id="a_edge33_Node000001_Node000031"><a xlink:title=" ">
<path fill="none" stroke="#63b8ff" d="M2525,-156.44C2789.3,-153.32 4028.57,-137.46 4197.5,-112 4209.66,-110.17 4222.64,-106.99 4234.33,-103.65"/>
<polygon fill="#63b8ff" stroke="#63b8ff" points="4235.05,-107.09 4243.62,-100.87 4233.04,-100.38 4235.05,-107.09"/>
</a>
</g>
</g>
<!-- Node32 -->
<g id="Node000032" class="node">
<title>Node32</title>
<g id="a_Node000032"><a xlink:title=" ">
<polygon fill="#e0e0e0" stroke="#999999" points="4537.62,-106 4357.38,-106 4357.38,-74 4537.62,-74 4537.62,-106"/>
<text text-anchor="start" x="4365.38" y="-92.5" font-family="Arial" font-size="10.00">MultiplayerShooter</text>
<text text-anchor="middle" x="4447.5" y="-80.5" font-family="Arial" font-size="10.00">/ActorComponents/ChatComponent.h</text>
</a>
</g>
</g>
<!-- Node1&#45;&gt;Node32 -->
<g id="edge34_Node000001_Node000032" class="edge">
<title>Node1&#45;&gt;Node32</title>
<g id="a_edge34_Node000001_Node000032"><a xlink:title=" ">
<path fill="none" stroke="#63b8ff" d="M2525.03,-157.05C2783.56,-157.12 3980.41,-155.09 4348.5,-112 4356.15,-111.1 4364.08,-109.9 4371.98,-108.52"/>
<polygon fill="#63b8ff" stroke="#63b8ff" points="4372.4,-112 4381.59,-106.74 4371.12,-105.12 4372.4,-112"/>
</a>
</g>
</g>
<!-- Node33 -->
<g id="Node000033" class="node">
<title>Node33</title>
<g id="a_Node000033"><a xlink:title=" ">
<polygon fill="#e0e0e0" stroke="#999999" points="4722.88,-106 4556.12,-106 4556.12,-74 4722.88,-74 4722.88,-106"/>
<text text-anchor="start" x="4564.12" y="-92.5" font-family="Arial" font-size="10.00">MultiplayerShooter</text>
<text text-anchor="middle" x="4639.5" y="-80.5" font-family="Arial" font-size="10.00">/Persistence/SettingsSaveGame.h</text>
</a>
</g>
</g>
<!-- Node1&#45;&gt;Node33 -->
<g id="edge35_Node000001_Node000033" class="edge">
<title>Node1&#45;&gt;Node33</title>
<g id="a_edge35_Node000001_Node000033"><a xlink:title=" ">
<path fill="none" stroke="#63b8ff" d="M2525.21,-157.27C2800.18,-158.56 4137.33,-162.13 4546.5,-112 4553.45,-111.15 4560.65,-110 4567.82,-108.69"/>
<polygon fill="#63b8ff" stroke="#63b8ff" points="4568.4,-112.14 4577.54,-106.78 4567.05,-105.27 4568.4,-112.14"/>
</a>
</g>
</g>
<!-- Node3 -->
<g id="Node000003" class="node">
<title>Node3</title>
<g id="a_Node000003"><a xlink:title=" ">
<polygon fill="#e0e0e0" stroke="#999999" points="533,-26 454,-26 454,-6 533,-6 533,-26"/>
<text text-anchor="middle" x="493.5" y="-12.5" font-family="Arial" font-size="10.00">CoreMinimal.h</text>
</a>
</g>
</g>
<!-- Node2&#45;&gt;Node3 -->
<g id="edge2_Node000002_Node000003" class="edge">
<title>Node2&#45;&gt;Node3</title>
<g id="a_edge2_Node000002_Node000003"><a xlink:title=" ">
<path fill="none" stroke="#63b8ff" d="M550,-79.59C539.73,-68.21 522.22,-48.81 509.41,-34.62"/>
<polygon fill="#63b8ff" stroke="#63b8ff" points="512.11,-32.39 502.81,-27.31 506.91,-37.08 512.11,-32.39"/>
</a>
</g>
</g>
<!-- Node4 -->
<g id="Node000004" class="node">
<title>Node4</title>
<g id="a_Node000004"><a xlink:title=" ">
<polygon fill="#e0e0e0" stroke="#999999" points="145,-26 0,-26 0,-6 145,-6 145,-26"/>
<text text-anchor="middle" x="72.5" y="-12.5" font-family="Arial" font-size="10.00">GameFramework/Character.h</text>
</a>
</g>
</g>
<!-- Node2&#45;&gt;Node4 -->
<g id="edge3_Node000002_Node000004" class="edge">
<title>Node2&#45;&gt;Node4</title>
<g id="a_edge3_Node000002_Node000004"><a xlink:title=" ">
<path fill="none" stroke="#63b8ff" d="M514.06,-83.39C439.42,-73.81 284.2,-53.29 153.5,-32 146.82,-30.91 139.84,-29.71 132.9,-28.48"/>
<polygon fill="#63b8ff" stroke="#63b8ff" points="133.65,-25.06 123.19,-26.73 132.41,-31.95 133.65,-25.06"/>
</a>
</g>
</g>
<!-- Node5 -->
<g id="Node000005" class="node">
<title>Node5</title>
<g id="a_Node000005"><a xlink:title=" ">
<polygon fill="#e0e0e0" stroke="#999999" points="284.38,-32 162.62,-32 162.62,0 284.38,0 284.38,-32"/>
<text text-anchor="start" x="170.62" y="-18.5" font-family="Arial" font-size="10.00">MultiplayerShooter</text>
<text text-anchor="middle" x="223.5" y="-6.5" font-family="Arial" font-size="10.00">/Types/TurningInPlace.h</text>
</a>
</g>
</g>
<!-- Node2&#45;&gt;Node5 -->
<g id="edge4_Node000002_Node000005" class="edge">
<title>Node2&#45;&gt;Node5</title>
<g id="a_edge4_Node000002_Node000005"><a xlink:title=" ">
<path fill="none" stroke="#63b8ff" d="M514.36,-79.51C458.77,-67.56 362.49,-46.87 296.02,-32.59"/>
<polygon fill="#63b8ff" stroke="#63b8ff" points="296.79,-29.17 286.28,-30.49 295.32,-36.02 296.79,-29.17"/>
</a>
</g>
</g>
<!-- Node2&#45;&gt;Node6 -->
<g id="edge5_Node000002_Node000006" class="edge">
<title>Node2&#45;&gt;Node6</title>
<g id="a_edge5_Node000002_Node000006"><a xlink:title=" ">
<path fill="none" stroke="#63b8ff" d="M567.13,-79.59C577.56,-68.21 595.34,-48.81 608.35,-34.62"/>
<polygon fill="#63b8ff" stroke="#63b8ff" points="610.88,-37.04 615.06,-27.3 605.72,-32.31 610.88,-37.04"/>
</a>
</g>
</g>
<!-- Node2&#45;&gt;Node7 -->
<g id="edge6_Node000002_Node000007" class="edge">
<title>Node2&#45;&gt;Node7</title>
<g id="a_edge6_Node000002_Node000007"><a xlink:title=" ">
<path fill="none" stroke="#63b8ff" d="M590.91,-79.51C628.92,-68.39 692.82,-49.69 740.84,-35.63"/>
<polygon fill="#63b8ff" stroke="#63b8ff" points="741.69,-39.03 750.31,-32.86 739.73,-32.31 741.69,-39.03"/>
</a>
</g>
</g>
<!-- Node2&#45;&gt;Node8 -->
<g id="edge7_Node000002_Node000008" class="edge">
<title>Node2&#45;&gt;Node8</title>
<g id="a_edge7_Node000002_Node000008"><a xlink:title=" ">
<path fill="none" stroke="#63b8ff" d="M602.78,-81.9C671.31,-70.91 805.04,-49.47 900,-34.24"/>
<polygon fill="#63b8ff" stroke="#63b8ff" points="900.28,-37.74 909.6,-32.7 899.17,-30.83 900.28,-37.74"/>
</a>
</g>
</g>
<!-- Node9 -->
<g id="Node000009" class="node">
<title>Node9</title>
<g id="a_Node000009"><a xlink:title=" ">
<polygon fill="#e0e0e0" stroke="#999999" points="436.38,-26 302.62,-26 302.62,-6 436.38,-6 436.38,-26"/>
<text text-anchor="middle" x="369.5" y="-12.5" font-family="Arial" font-size="10.00">MainCharacter.generated.h</text>
</a>
</g>
</g>
<!-- Node2&#45;&gt;Node9 -->
<g id="edge8_Node000002_Node000009" class="edge">
<title>Node2&#45;&gt;Node9</title>
<g id="a_edge8_Node000002_Node000009"><a xlink:title=" ">
<path fill="none" stroke="#63b8ff" d="M533.79,-79.59C500.82,-67.03 442.25,-44.72 404.68,-30.4"/>
<polygon fill="#63b8ff" stroke="#63b8ff" points="406.22,-27.24 395.63,-26.95 403.73,-33.78 406.22,-27.24"/>
</a>
</g>
</g>
</g>
</svg>

<g id="navigator" transform="translate(0 0)" fill="#404254">
  <rect fill="#f2f5e9" fill-opacity="0.5" stroke="#606060" stroke-width=".5" x="0" y="0" width="60" height="60"/>
  <use id="zoomplus" xlink:href="#zoomPlus" x="17" y="9" onmousedown="handleZoom(evt,'in')"/>
  <use id="zoomminus" xlink:href="#zoomMin" x="42" y="9" onmousedown="handleZoom(evt,'out')"/>
  <use id="reset" xlink:href="#resetDef" x="30" y="36" onmousedown="handleReset()"/>
   <use id="arrowup" xlink:href="#arrowUp" x="0" y="0" onmousedown="handlePan(0,-1)"/>
  <use id="arrowright" xlink:href="#arrowRight" x="0" y="0" onmousedown="handlePan(1,0)"/>
  <use id="arrowdown" xlink:href="#arrowDown" x="0" y="0" onmousedown="handlePan(0,1)"/>
  <use id="arrowleft" xlink:href="#arrowLeft" x="0" y="0" onmousedown="handlePan(-1,0)"/>
</g>
<svg viewBox="0 0 15 15" width="100%" height="30px" preserveAspectRatio="xMaxYMin meet">
 <g id="arrow_out" transform="scale(0.3 0.3)">
  <a xlink:href="_main_character_8cpp__incl_org.svg" target="_base">
   <rect id="button" ry="5" rx="5" y="6" x="6" height="38" width="38"
        fill="#f2f5e9" fill-opacity="0.5" stroke="#606060" stroke-width="1.0"/>
   <path id="arrow"
     d="M 11.500037,31.436501 C 11.940474,20.09759 22.043105,11.32322 32.158766,21.979434 L 37.068811,17.246167 C 37.068811,17.246167 37.088388,32 37.088388,32 L 22.160133,31.978069 C 22.160133,31.978069 26.997745,27.140456 26.997745,27.140456 C 18.528582,18.264221 13.291696,25.230495 11.500037,31.436501 z"
     style="fill:#404040;"/>
  </a>
 </g>
</svg>

<style type='text/css'>
<![CDATA[
[data-mouse-over-selected='false'] { opacity: 0.7; }
[data-mouse-over-selected='true']  { opacity: 1.0; }
]]>
</style>
<script type="application/ecmascript"><![CDATA[
document.addEventListener('DOMContentLoaded', (event) => {
  highlightEdges();
  highlightAdjacentNodes();
});
]]></script>
</svg>
