<?xml version="1.0" encoding="UTF-8" standalone="no"?>
<!DOCTYPE svg PUBLIC "-//W3C//DTD SVG 1.1//EN"
 "http://www.w3.org/Graphics/SVG/1.1/DTD/svg11.dtd">
<!-- Generated by graphviz version 12.2.1 (20241206.2353)
 -->
<!-- Title: MyAnimInstance.cpp Pages: 1 -->
<svg width="1642pt" height="164pt"
 viewBox="0.00 0.00 1642.12 164.00" xmlns="http://www.w3.org/2000/svg" xmlns:xlink="http://www.w3.org/1999/xlink">
<g id="graph0" class="graph" transform="scale(1 1) rotate(0) translate(4 160)">
<title>MyAnimInstance.cpp</title>
<!-- Node1 -->
<g id="Node000001" class="node">
<title>Node1</title>
<g id="a_Node000001"><a xlink:title=" ">
<polygon fill="#999999" stroke="#666666" points="1276.38,-156 1168.12,-156 1168.12,-136 1276.38,-136 1276.38,-156"/>
<text text-anchor="middle" x="1222.25" y="-142.5" font-family="Arial" font-size="10.00">MyAnimInstance.cpp</text>
</a>
</g>
</g>
<!-- Node2 -->
<g id="Node000002" class="node">
<title>Node2</title>
<g id="a_Node000002"><a xlink:href="_my_anim_instance_8h.html" target="_top" xlink:title=" ">
<polygon fill="white" stroke="#666666" points="1113.12,-94 1015.38,-94 1015.38,-74 1113.12,-74 1113.12,-94"/>
<text text-anchor="middle" x="1064.25" y="-80.5" font-family="Arial" font-size="10.00">MyAnimInstance.h</text>
</a>
</g>
</g>
<!-- Node1&#45;&gt;Node2 -->
<g id="edge1_Node000001_Node000002" class="edge">
<title>Node1&#45;&gt;Node2</title>
<g id="a_edge1_Node000001_Node000002"><a xlink:title=" ">
<path fill="none" stroke="#63b8ff" d="M1197.56,-135.62C1171.2,-125.62 1129.21,-109.67 1099.4,-98.35"/>
<polygon fill="#63b8ff" stroke="#63b8ff" points="1101.03,-95.22 1090.44,-94.95 1098.55,-101.77 1101.03,-95.22"/>
</a>
</g>
</g>
<!-- Node7 -->
<g id="Node000007" class="node">
<title>Node7</title>
<g id="a_Node000007"><a xlink:href="_main_character_8h.html" target="_top" xlink:title=" ">
<polygon fill="white" stroke="#666666" points="756.25,-94 668.25,-94 668.25,-74 756.25,-74 756.25,-94"/>
<text text-anchor="middle" x="712.25" y="-80.5" font-family="Arial" font-size="10.00">MainCharacter.h</text>
</a>
</g>
</g>
<!-- Node1&#45;&gt;Node7 -->
<g id="edge6_Node000001_Node000007" class="edge">
<title>Node1&#45;&gt;Node7</title>
<g id="a_edge6_Node000001_Node000007"><a xlink:title=" ">
<path fill="none" stroke="#63b8ff" d="M1167.67,-138.58C1069.91,-127.08 865.99,-103.09 767.64,-91.52"/>
<polygon fill="#63b8ff" stroke="#63b8ff" points="768.31,-88.07 757.97,-90.38 767.5,-95.02 768.31,-88.07"/>
</a>
</g>
</g>
<!-- Node13 -->
<g id="Node000013" class="node">
<title>Node13</title>
<g id="a_Node000013"><a xlink:title=" ">
<polygon fill="#e0e0e0" stroke="#999999" points="1313.5,-100 1131,-100 1131,-68 1313.5,-68 1313.5,-100"/>
<text text-anchor="start" x="1139" y="-86.5" font-family="Arial" font-size="10.00">GameFramework/CharacterMovement</text>
<text text-anchor="middle" x="1222.25" y="-74.5" font-family="Arial" font-size="10.00">Component.h</text>
</a>
</g>
</g>
<!-- Node1&#45;&gt;Node13 -->
<g id="edge14_Node000001_Node000013" class="edge">
<title>Node1&#45;&gt;Node13</title>
<g id="a_edge14_Node000001_Node000013"><a xlink:title=" ">
<path fill="none" stroke="#63b8ff" d="M1222.25,-135.62C1222.25,-129.1 1222.25,-120.05 1222.25,-111.4"/>
<polygon fill="#63b8ff" stroke="#63b8ff" points="1225.75,-111.65 1222.25,-101.65 1218.75,-111.65 1225.75,-111.65"/>
</a>
</g>
</g>
<!-- Node14 -->
<g id="Node000014" class="node">
<title>Node14</title>
<g id="a_Node000014"><a xlink:title=" ">
<polygon fill="#e0e0e0" stroke="#999999" points="1470.75,-94 1331.75,-94 1331.75,-74 1470.75,-74 1470.75,-94"/>
<text text-anchor="middle" x="1401.25" y="-80.5" font-family="Arial" font-size="10.00">Kismet/KismetMathLibrary.h</text>
</a>
</g>
</g>
<!-- Node1&#45;&gt;Node14 -->
<g id="edge15_Node000001_Node000014" class="edge">
<title>Node1&#45;&gt;Node14</title>
<g id="a_edge15_Node000001_Node000014"><a xlink:title=" ">
<path fill="none" stroke="#63b8ff" d="M1250.22,-135.62C1280.34,-125.53 1328.49,-109.39 1362.31,-98.05"/>
<polygon fill="#63b8ff" stroke="#63b8ff" points="1363.38,-101.39 1371.75,-94.89 1361.15,-94.75 1363.38,-101.39"/>
</a>
</g>
</g>
<!-- Node15 -->
<g id="Node000015" class="node">
<title>Node15</title>
<g id="a_Node000015"><a xlink:title=" ">
<polygon fill="#e0e0e0" stroke="#999999" points="1634.12,-100 1488.38,-100 1488.38,-68 1634.12,-68 1634.12,-100"/>
<text text-anchor="start" x="1496.38" y="-86.5" font-family="Arial" font-size="10.00">MultiplayerShooter</text>
<text text-anchor="middle" x="1561.25" y="-74.5" font-family="Arial" font-size="10.00">/BaseWeapon/BaseWeapon.h</text>
</a>
</g>
</g>
<!-- Node1&#45;&gt;Node15 -->
<g id="edge16_Node000001_Node000015" class="edge">
<title>Node1&#45;&gt;Node15</title>
<g id="a_edge16_Node000001_Node000015"><a xlink:title=" ">
<path fill="none" stroke="#63b8ff" d="M1276.64,-135.68C1326.42,-127.12 1402.45,-113.94 1476.98,-100.58"/>
<polygon fill="#63b8ff" stroke="#63b8ff" points="1477.25,-104.09 1486.47,-98.87 1476.01,-97.2 1477.25,-104.09"/>
</a>
</g>
</g>
<!-- Node3 -->
<g id="Node000003" class="node">
<title>Node3</title>
<g id="a_Node000003"><a xlink:title=" ">
<polygon fill="#e0e0e0" stroke="#999999" points="1103.75,-26 1024.75,-26 1024.75,-6 1103.75,-6 1103.75,-26"/>
<text text-anchor="middle" x="1064.25" y="-12.5" font-family="Arial" font-size="10.00">CoreMinimal.h</text>
</a>
</g>
</g>
<!-- Node2&#45;&gt;Node3 -->
<g id="edge2_Node000002_Node000003" class="edge">
<title>Node2&#45;&gt;Node3</title>
<g id="a_edge2_Node000002_Node000003"><a xlink:title=" ">
<path fill="none" stroke="#63b8ff" d="M1064.25,-73.54C1064.25,-64.23 1064.25,-49.7 1064.25,-37.7"/>
<polygon fill="#63b8ff" stroke="#63b8ff" points="1067.75,-37.95 1064.25,-27.95 1060.75,-37.95 1067.75,-37.95"/>
</a>
</g>
</g>
<!-- Node4 -->
<g id="Node000004" class="node">
<title>Node4</title>
<g id="a_Node000004"><a xlink:title=" ">
<polygon fill="#e0e0e0" stroke="#999999" points="1413.62,-26 1282.88,-26 1282.88,-6 1413.62,-6 1413.62,-26"/>
<text text-anchor="middle" x="1348.25" y="-12.5" font-family="Arial" font-size="10.00">Animation/AnimInstance.h</text>
</a>
</g>
</g>
<!-- Node2&#45;&gt;Node4 -->
<g id="edge3_Node000002_Node000004" class="edge">
<title>Node2&#45;&gt;Node4</title>
<g id="a_edge3_Node000002_Node000004"><a xlink:title=" ">
<path fill="none" stroke="#63b8ff" d="M1100.1,-73.54C1107.42,-71.66 1115.07,-69.74 1122.25,-68 1180.45,-53.91 1247.4,-38.96 1293.23,-28.91"/>
<polygon fill="#63b8ff" stroke="#63b8ff" points="1293.91,-32.35 1302.93,-26.79 1292.41,-25.51 1293.91,-32.35"/>
</a>
</g>
</g>
<!-- Node5 -->
<g id="Node000005" class="node">
<title>Node5</title>
<g id="a_Node000005"><a xlink:title=" ">
<polygon fill="#e0e0e0" stroke="#999999" points="1007.12,-32 885.38,-32 885.38,0 1007.12,0 1007.12,-32"/>
<text text-anchor="start" x="893.38" y="-18.5" font-family="Arial" font-size="10.00">MultiplayerShooter</text>
<text text-anchor="middle" x="946.25" y="-6.5" font-family="Arial" font-size="10.00">/Types/TurningInPlace.h</text>
</a>
</g>
</g>
<!-- Node2&#45;&gt;Node5 -->
<g id="edge4_Node000002_Node000005" class="edge">
<title>Node2&#45;&gt;Node5</title>
<g id="a_edge4_Node000002_Node000005"><a xlink:title=" ">
<path fill="none" stroke="#63b8ff" d="M1047.34,-73.54C1030.73,-64.25 1004.82,-49.76 983.4,-37.78"/>
<polygon fill="#63b8ff" stroke="#63b8ff" points="985.36,-34.87 974.93,-33.04 981.95,-40.98 985.36,-34.87"/>
</a>
</g>
</g>
<!-- Node6 -->
<g id="Node000006" class="node">
<title>Node6</title>
<g id="a_Node000006"><a xlink:title=" ">
<polygon fill="#e0e0e0" stroke="#999999" points="1265,-26 1121.5,-26 1121.5,-6 1265,-6 1265,-26"/>
<text text-anchor="middle" x="1193.25" y="-12.5" font-family="Arial" font-size="10.00">MyAnimInstance.generated.h</text>
</a>
</g>
</g>
<!-- Node2&#45;&gt;Node6 -->
<g id="edge5_Node000002_Node000006" class="edge">
<title>Node2&#45;&gt;Node6</title>
<g id="a_edge5_Node000002_Node000006"><a xlink:title=" ">
<path fill="none" stroke="#63b8ff" d="M1082.73,-73.54C1104.19,-62.57 1139.83,-44.33 1164.82,-31.55"/>
<polygon fill="#63b8ff" stroke="#63b8ff" points="1166.15,-34.8 1173.45,-27.13 1162.96,-28.57 1166.15,-34.8"/>
</a>
</g>
</g>
<!-- Node7&#45;&gt;Node3 -->
<g id="edge7_Node000007_Node000003" class="edge">
<title>Node7&#45;&gt;Node3</title>
<g id="a_edge7_Node000007_Node000003"><a xlink:title=" ">
<path fill="none" stroke="#63b8ff" d="M756.68,-77.48C816.24,-69.65 925.03,-53.8 1016.25,-32 1019.21,-31.29 1022.26,-30.5 1025.31,-29.66"/>
<polygon fill="#63b8ff" stroke="#63b8ff" points="1026.19,-33.05 1034.8,-26.88 1024.22,-26.33 1026.19,-33.05"/>
</a>
</g>
</g>
<!-- Node7&#45;&gt;Node5 -->
<g id="edge9_Node000007_Node000005" class="edge">
<title>Node7&#45;&gt;Node5</title>
<g id="a_edge9_Node000007_Node000005"><a xlink:title=" ">
<path fill="none" stroke="#63b8ff" d="M745.78,-73.54C780.84,-63.65 836.78,-47.88 880.67,-35.5"/>
<polygon fill="#63b8ff" stroke="#63b8ff" points="881.42,-38.92 890.09,-32.84 879.52,-32.18 881.42,-38.92"/>
</a>
</g>
</g>
<!-- Node8 -->
<g id="Node000008" class="node">
<title>Node8</title>
<g id="a_Node000008"><a xlink:title=" ">
<polygon fill="#e0e0e0" stroke="#999999" points="702.75,-26 557.75,-26 557.75,-6 702.75,-6 702.75,-26"/>
<text text-anchor="middle" x="630.25" y="-12.5" font-family="Arial" font-size="10.00">GameFramework/Character.h</text>
</a>
</g>
</g>
<!-- Node7&#45;&gt;Node8 -->
<g id="edge8_Node000007_Node000008" class="edge">
<title>Node7&#45;&gt;Node8</title>
<g id="a_edge8_Node000007_Node000008"><a xlink:title=" ">
<path fill="none" stroke="#63b8ff" d="M700.5,-73.54C687.59,-63.15 666.61,-46.27 650.93,-33.65"/>
<polygon fill="#63b8ff" stroke="#63b8ff" points="653.14,-30.93 643.16,-27.39 648.75,-36.38 653.14,-30.93"/>
</a>
</g>
</g>
<!-- Node9 -->
<g id="Node000009" class="node">
<title>Node9</title>
<g id="a_Node000009"><a xlink:title=" ">
<polygon fill="#e0e0e0" stroke="#999999" points="867.5,-26 721,-26 721,-6 867.5,-6 867.5,-26"/>
<text text-anchor="middle" x="794.25" y="-12.5" font-family="Arial" font-size="10.00">Camera/CameraComponent.h</text>
</a>
</g>
</g>
<!-- Node7&#45;&gt;Node9 -->
<g id="edge10_Node000007_Node000009" class="edge">
<title>Node7&#45;&gt;Node9</title>
<g id="a_edge10_Node000007_Node000009"><a xlink:title=" ">
<path fill="none" stroke="#63b8ff" d="M724,-73.54C736.91,-63.15 757.89,-46.27 773.57,-33.65"/>
<polygon fill="#63b8ff" stroke="#63b8ff" points="775.75,-36.38 781.34,-27.39 771.36,-30.93 775.75,-36.38"/>
</a>
</g>
</g>
<!-- Node10 -->
<g id="Node000010" class="node">
<title>Node10</title>
<g id="a_Node000010"><a xlink:title=" ">
<polygon fill="#e0e0e0" stroke="#999999" points="176.5,-32 0,-32 0,0 176.5,0 176.5,-32"/>
<text text-anchor="start" x="8" y="-18.5" font-family="Arial" font-size="10.00">MultiplayerShooter</text>
<text text-anchor="middle" x="88.25" y="-6.5" font-family="Arial" font-size="10.00">/ActorComponents/BuffComponent.h</text>
</a>
</g>
</g>
<!-- Node7&#45;&gt;Node10 -->
<g id="edge11_Node000007_Node000010" class="edge">
<title>Node7&#45;&gt;Node10</title>
<g id="a_edge11_Node000007_Node000010"><a xlink:title=" ">
<path fill="none" stroke="#63b8ff" d="M668.08,-79.58C579.23,-72.52 372.29,-55.14 188.03,-32.31"/>
<polygon fill="#63b8ff" stroke="#63b8ff" points="188.63,-28.85 178.27,-31.09 187.76,-35.8 188.63,-28.85"/>
</a>
</g>
</g>
<!-- Node11 -->
<g id="Node000011" class="node">
<title>Node11</title>
<g id="a_Node000011"><a xlink:title=" ">
<polygon fill="#e0e0e0" stroke="#999999" points="388.12,-32 194.38,-32 194.38,0 388.12,0 388.12,-32"/>
<text text-anchor="start" x="202.38" y="-18.5" font-family="Arial" font-size="10.00">MultiplayerShooter</text>
<text text-anchor="middle" x="291.25" y="-6.5" font-family="Arial" font-size="10.00">/ActorComponents/CombatComponent.h</text>
</a>
</g>
</g>
<!-- Node7&#45;&gt;Node11 -->
<g id="edge12_Node000007_Node000011" class="edge">
<title>Node7&#45;&gt;Node11</title>
<g id="a_edge12_Node000007_Node000011"><a xlink:title=" ">
<path fill="none" stroke="#63b8ff" d="M667.99,-76.06C604.79,-66.15 486.69,-47.64 399.5,-33.97"/>
<polygon fill="#63b8ff" stroke="#63b8ff" points="400.14,-30.53 389.72,-32.44 399.06,-37.44 400.14,-30.53"/>
</a>
</g>
</g>
<!-- Node12 -->
<g id="Node000012" class="node">
<title>Node12</title>
<g id="a_Node000012"><a xlink:title=" ">
<polygon fill="#e0e0e0" stroke="#999999" points="540.12,-26 406.38,-26 406.38,-6 540.12,-6 540.12,-26"/>
<text text-anchor="middle" x="473.25" y="-12.5" font-family="Arial" font-size="10.00">MainCharacter.generated.h</text>
</a>
</g>
</g>
<!-- Node7&#45;&gt;Node12 -->
<g id="edge13_Node000007_Node000012" class="edge">
<title>Node7&#45;&gt;Node12</title>
<g id="a_edge13_Node000007_Node000012"><a xlink:title=" ">
<path fill="none" stroke="#63b8ff" d="M678.01,-73.54C636.03,-61.95 564.78,-42.28 518.37,-29.46"/>
<polygon fill="#63b8ff" stroke="#63b8ff" points="519.46,-26.13 508.89,-26.84 517.6,-32.88 519.46,-26.13"/>
</a>
</g>
</g>
</g>
</svg>
