<?xml version="1.0" encoding="UTF-8" standalone="no"?>
<!DOCTYPE svg PUBLIC "-//W3C//DTD SVG 1.1//EN"
 "http://www.w3.org/Graphics/SVG/1.1/DTD/svg11.dtd">
<!-- Generated by graphviz version 12.2.1 (20241206.2353)
 -->
<!-- Title: AMainCharacter::MulticastFire Pages: 1 -->
<!--zoomable 143 -->

<svg id="main" version="1.1" xmlns="http://www.w3.org/2000/svg" xmlns:xlink="http://www.w3.org/1999/xlink" xml:space="preserve" onload="init(evt)">

<style type="text/css"><![CDATA[
.node, .edge {opacity: 0.7;}
.node.selected, .edge.selected {opacity: 1;}
.edge:hover path { stroke: red; }
.edge:hover polygon { stroke: red; fill: red; }
]]></style>

<defs>
  <circle id="rim" cx="0" cy="0" r="7"/>
  <circle id="rim2" cx="0" cy="0" r="3.5"/>
  <g id="zoomPlus">
    <use xlink:href="#rim" fill="#404040"><set attributeName="fill" to="#808080" begin="zoomplus.mouseover" end="zoomplus.mouseout"/></use>
    <path d="M-4,0h8M0,-4v8" fill="none" stroke="white" stroke-width="1.5" pointer-events="none"/>
  </g>
  <g id="zoomMin">
    <use xlink:href="#rim" fill="#404040"><set attributeName="fill" to="#808080" begin="zoomminus.mouseover" end="zoomminus.mouseout"/></use>
    <path d="M-4,0h8" fill="none" stroke="white" stroke-width="1.5" pointer-events="none"/>
  </g>
  <g id="arrowUp" transform="translate(30 24)">
    <use xlink:href="#rim"/>
    <path pointer-events="none" fill="none" stroke="white" stroke-width="1.5" d="M0,-3.0v7 M-2.5,-0.5L0,-3.0L2.5,-0.5"/>
  </g>
  <g id="arrowRight" transform="rotate(90) translate(36 -43)">
    <use xlink:href="#rim"/>
    <path pointer-events="none" fill="none" stroke="white" stroke-width="1.5" d="M0,-3.0v7 M-2.5,-0.5L0,-3.0L2.5,-0.5"/>
  </g>
  <g id="arrowDown" transform="rotate(180) translate(-30 -48)">
    <use xlink:href="#rim"/>
    <path pointer-events="none" fill="none" stroke="white" stroke-width="1.5" d="M0,-3.0v7 M-2.5,-0.5L0,-3.0L2.5,-0.5"/>
  </g>
  <g id="arrowLeft" transform="rotate(270) translate(-36 17)">
    <use xlink:href="#rim"/>
    <path pointer-events="none" fill="none" stroke="white" stroke-width="1.5" d="M0,-3.0v7 M-2.5,-0.5L0,-3.0L2.5,-0.5"/>
  </g>
  <g id="resetDef">
    <use xlink:href="#rim2" fill="#404040"><set attributeName="fill" to="#808080" begin="reset.mouseover" end="reset.mouseout"/></use>
  </g>
</defs>
<script type="application/ecmascript">
var viewWidth = 684;
var viewHeight = 143;
var sectionId = 'dynsection-31';
</script>
<script type="application/ecmascript" xlink:href="svg.min.js"/>
<svg id="graph" class="graph">
<g id="viewport">
<title>AMainCharacter::MulticastFire</title>
<!-- Node1 -->
<g id="Node000001" class="node">
<title>Node1</title>
<g id="a_Node000001"><a xlink:title=" ">
<polygon fill="#999999" stroke="#666666" points="148.75,-48 0,-48 0,-28 148.75,-28 148.75,-48"/>
<text text-anchor="middle" x="74.38" y="-34.5" font-family="Arial" font-size="10.00">AMainCharacter::MulticastFire</text>
</a>
</g>
</g>
<!-- Node1&#45;&gt;Node1 -->
<g id="edge5_Node000001_Node000001" class="edge">
<title>Node1&#45;&gt;Node1</title>
<g id="a_edge5_Node000001_Node000001"><a xlink:title=" ">
<path fill="none" stroke="#63b8ff" d="M47.05,-48.34C35.37,-56.98 44.48,-66 74.38,-66 91.19,-66 101.43,-63.14 105.1,-59.11"/>
<polygon fill="#63b8ff" stroke="#63b8ff" points="108.5,-58.27 102.16,-49.78 101.82,-60.37 108.5,-58.27"/>
</a>
</g>
</g>
<!-- Node2 -->
<g id="Node000002" class="node">
<title>Node2</title>
<g id="a_Node000002"><a xlink:href="class_a_main_character.html#a9d0b7a05e0580099815730100ad9bfb6" target="_top" xlink:title="Elimination.">
<polygon fill="white" stroke="#666666" points="302.38,-70 190.38,-70 190.38,-50 302.38,-50 302.38,-70"/>
<text text-anchor="middle" x="246.38" y="-56.5" font-family="Arial" font-size="10.00">AMainCharacter::Elim</text>
</a>
</g>
</g>
<!-- Node1&#45;&gt;Node2 -->
<g id="edge1_Node000001_Node000002" class="edge">
<title>Node1&#45;&gt;Node2</title>
<g id="a_edge1_Node000001_Node000002"><a xlink:title=" ">
<path fill="none" stroke="#63b8ff" d="M148.95,-47.52C158.82,-48.8 168.9,-50.1 178.64,-51.36"/>
<polygon fill="#63b8ff" stroke="#63b8ff" points="178.02,-54.81 188.39,-52.62 178.92,-47.87 178.02,-54.81"/>
</a>
</g>
</g>
<!-- Node5 -->
<g id="Node000005" class="node">
<title>Node5</title>
<g id="a_Node000005"><a xlink:href="class_a_main_character.html#a0d4eb83adaa4bae05412bdc575f9c50b" target="_top" xlink:title=" ">
<polygon fill="white" stroke="#666666" points="308,-32 184.75,-32 184.75,0 308,0 308,-32"/>
<text text-anchor="start" x="192.75" y="-18.5" font-family="Arial" font-size="10.00">AMainCharacter::OnRep</text>
<text text-anchor="middle" x="246.38" y="-6.5" font-family="Arial" font-size="10.00">_ReplicatedMovement</text>
</a>
</g>
</g>
<!-- Node1&#45;&gt;Node5 -->
<g id="edge6_Node000001_Node000005" class="edge">
<title>Node1&#45;&gt;Node5</title>
<g id="a_edge6_Node000001_Node000005"><a xlink:title=" ">
<path fill="none" stroke="#63b8ff" d="M148.95,-28.48C157,-27.44 165.19,-26.38 173.23,-25.34"/>
<polygon fill="#63b8ff" stroke="#63b8ff" points="173.48,-28.83 182.95,-24.08 172.58,-21.89 173.48,-28.83"/>
</a>
</g>
</g>
<!-- Node3 -->
<g id="Node000003" class="node">
<title>Node3</title>
<g id="a_Node000003"><a xlink:href="class_a_main_character.html#aea17dde5a15443622f0bf918c57cce6f" target="_top" xlink:title=" ">
<polygon fill="white" stroke="#666666" points="493.5,-135 356.75,-135 356.75,-103 493.5,-103 493.5,-135"/>
<text text-anchor="start" x="364.75" y="-121.5" font-family="Arial" font-size="10.00">AMainCharacter::ElimTimer</text>
<text text-anchor="middle" x="425.12" y="-109.5" font-family="Arial" font-size="10.00">Finished</text>
</a>
</g>
</g>
<!-- Node2&#45;&gt;Node3 -->
<g id="edge2_Node000002_Node000003" class="edge">
<title>Node2&#45;&gt;Node3</title>
<g id="a_edge2_Node000002_Node000003"><a xlink:title=" ">
<path fill="none" stroke="#63b8ff" d="M276.03,-70.39C295.21,-77.26 321.05,-86.38 344,-94 349.09,-95.69 354.38,-97.41 359.69,-99.12"/>
<polygon fill="#63b8ff" stroke="#63b8ff" points="358.56,-102.43 369.15,-102.13 360.69,-95.76 358.56,-102.43"/>
</a>
</g>
</g>
<!-- Node4 -->
<g id="Node000004" class="node">
<title>Node4</title>
<g id="a_Node000004"><a xlink:href="class_a_main_character.html#a5691a3d428c1f9d6f6ed3d28cb29df10" target="_top" xlink:title=" ">
<polygon fill="white" stroke="#666666" points="503.62,-67 346.62,-67 346.62,-47 503.62,-47 503.62,-67"/>
<text text-anchor="middle" x="425.12" y="-53.5" font-family="Arial" font-size="10.00">AMainCharacter::Multicast_Elim</text>
</a>
</g>
</g>
<!-- Node2&#45;&gt;Node4 -->
<g id="edge3_Node000002_Node000004" class="edge">
<title>Node2&#45;&gt;Node4</title>
<g id="a_edge3_Node000002_Node000004"><a xlink:title=" ">
<path fill="none" stroke="#63b8ff" d="M302.81,-59.06C313.03,-58.89 323.94,-58.7 334.86,-58.52"/>
<polygon fill="#63b8ff" stroke="#63b8ff" points="334.77,-62.02 344.71,-58.35 334.65,-55.02 334.77,-62.02"/>
</a>
</g>
</g>
<!-- Node4&#45;&gt;Node4 -->
<g id="edge4_Node000004_Node000004" class="edge">
<title>Node4&#45;&gt;Node4</title>
<g id="a_edge4_Node000004_Node000004"><a xlink:title=" ">
<path fill="none" stroke="#63b8ff" d="M396.72,-67.34C384.59,-75.98 394.05,-85 425.12,-85 442.6,-85 453.24,-82.14 457.05,-78.11"/>
<polygon fill="#63b8ff" stroke="#63b8ff" points="460.43,-77.19 454,-68.78 453.78,-79.37 460.43,-77.19"/>
</a>
</g>
</g>
<!-- Node6 -->
<g id="Node000006" class="node">
<title>Node6</title>
<g id="a_Node000006"><a xlink:href="class_a_main_character.html#ad664d0ab39058e928e96c8abf84f36bf" target="_top" xlink:title=" ">
<polygon fill="white" stroke="#666666" points="506.25,-26 344,-26 344,-6 506.25,-6 506.25,-26"/>
<text text-anchor="middle" x="425.12" y="-12.5" font-family="Arial" font-size="10.00">AMainCharacter::SimProxiesTurn</text>
</a>
</g>
</g>
<!-- Node5&#45;&gt;Node6 -->
<g id="edge7_Node000005_Node000006" class="edge">
<title>Node5&#45;&gt;Node6</title>
<g id="a_edge7_Node000005_Node000006"><a xlink:title=" ">
<path fill="none" stroke="#63b8ff" d="M308.2,-16C315.94,-16 323.99,-16 332.08,-16"/>
<polygon fill="#63b8ff" stroke="#63b8ff" points="332.01,-19.5 342.01,-16 332.01,-12.5 332.01,-19.5"/>
</a>
</g>
</g>
<!-- Node7 -->
<g id="Node000007" class="node">
<title>Node7</title>
<g id="a_Node000007"><a xlink:href="class_a_main_character.html#a9596fe587a29a2671db7db619b16b46d" target="_top" xlink:title=" ">
<polygon fill="white" stroke="#666666" points="676,-32 542.25,-32 542.25,0 676,0 676,-32"/>
<text text-anchor="start" x="550.25" y="-18.5" font-family="Arial" font-size="10.00">AMainCharacter::Calculate</text>
<text text-anchor="middle" x="609.12" y="-6.5" font-family="Arial" font-size="10.00">Speed</text>
</a>
</g>
</g>
<!-- Node6&#45;&gt;Node7 -->
<g id="edge8_Node000006_Node000007" class="edge">
<title>Node6&#45;&gt;Node7</title>
<g id="a_edge8_Node000006_Node000007"><a xlink:title=" ">
<path fill="none" stroke="#63b8ff" d="M506.75,-16C514.67,-16 522.7,-16 530.59,-16"/>
<polygon fill="#63b8ff" stroke="#63b8ff" points="530.51,-19.5 540.51,-16 530.51,-12.5 530.51,-19.5"/>
</a>
</g>
</g>
</g>
</svg>

<g id="navigator" transform="translate(0 0)" fill="#404254">
  <rect fill="#f2f5e9" fill-opacity="0.5" stroke="#606060" stroke-width=".5" x="0" y="0" width="60" height="60"/>
  <use id="zoomplus" xlink:href="#zoomPlus" x="17" y="9" onmousedown="handleZoom(evt,'in')"/>
  <use id="zoomminus" xlink:href="#zoomMin" x="42" y="9" onmousedown="handleZoom(evt,'out')"/>
  <use id="reset" xlink:href="#resetDef" x="30" y="36" onmousedown="handleReset()"/>
   <use id="arrowup" xlink:href="#arrowUp" x="0" y="0" onmousedown="handlePan(0,-1)"/>
  <use id="arrowright" xlink:href="#arrowRight" x="0" y="0" onmousedown="handlePan(1,0)"/>
  <use id="arrowdown" xlink:href="#arrowDown" x="0" y="0" onmousedown="handlePan(0,1)"/>
  <use id="arrowleft" xlink:href="#arrowLeft" x="0" y="0" onmousedown="handlePan(-1,0)"/>
</g>
<svg viewBox="0 0 15 15" width="100%" height="30px" preserveAspectRatio="xMaxYMin meet">
 <g id="arrow_out" transform="scale(0.3 0.3)">
  <a xlink:href="class_a_main_character_a501bd7ba0eb90bf0c1da39ec8496f6e0_cgraph_org.svg" target="_base">
   <rect id="button" ry="5" rx="5" y="6" x="6" height="38" width="38"
        fill="#f2f5e9" fill-opacity="0.5" stroke="#606060" stroke-width="1.0"/>
   <path id="arrow"
     d="M 11.500037,31.436501 C 11.940474,20.09759 22.043105,11.32322 32.158766,21.979434 L 37.068811,17.246167 C 37.068811,17.246167 37.088388,32 37.088388,32 L 22.160133,31.978069 C 22.160133,31.978069 26.997745,27.140456 26.997745,27.140456 C 18.528582,18.264221 13.291696,25.230495 11.500037,31.436501 z"
     style="fill:#404040;"/>
  </a>
 </g>
</svg>

<style type='text/css'>
<![CDATA[
[data-mouse-over-selected='false'] { opacity: 0.7; }
[data-mouse-over-selected='true']  { opacity: 1.0; }
]]>
</style>
<script type="application/ecmascript"><![CDATA[
document.addEventListener('DOMContentLoaded', (event) => {
  highlightEdges();
  highlightAdjacentNodes();
});
]]></script>
</svg>
