<?xml version="1.0" encoding="UTF-8" standalone="no"?>
<!DOCTYPE svg PUBLIC "-//W3C//DTD SVG 1.1//EN"
 "http://www.w3.org/Graphics/SVG/1.1/DTD/svg11.dtd">
<!-- Generated by graphviz version 12.2.1 (20241206.2353)
 -->
<!-- Title: AMainCharacter::OnRep_ReplicatedMovement Pages: 1 -->
<svg width="463pt" height="96pt"
 viewBox="0.00 0.00 463.25 96.00" xmlns="http://www.w3.org/2000/svg" xmlns:xlink="http://www.w3.org/1999/xlink">

<svg id="main" version="1.1" xmlns="http://www.w3.org/2000/svg" xmlns:xlink="http://www.w3.org/1999/xlink" xml:space="preserve">

<style type="text/css"><![CDATA[
.node, .edge {opacity: 0.7;}
.node.selected, .edge.selected {opacity: 1;}
.edge:hover path { stroke: red; }
.edge:hover polygon { stroke: red; fill: red; }
]]></style>
<script type="application/ecmascript" xlink:href="svg.min.js"/>
<svg id="graph" class="graph">
<g id="graph0" class="graph" transform="scale(1 1) rotate(0) translate(4 92)">
<title>AMainCharacter::OnRep_ReplicatedMovement</title>
<!-- Node1 -->
<g id="Node000001" class="node">
<title>Node1</title>
<g id="a_Node000001"><a xlink:title=" ">
<polygon fill="#999999" stroke="#666666" points="455.25,-54 332,-54 332,-22 455.25,-22 455.25,-54"/>
<text text-anchor="start" x="340" y="-40.5" font-family="Arial" font-size="10.00">AMainCharacter::OnRep</text>
<text text-anchor="middle" x="393.62" y="-28.5" font-family="Arial" font-size="10.00">_ReplicatedMovement</text>
</a>
</g>
</g>
<!-- Node2 -->
<g id="Node000002" class="node">
<title>Node2</title>
<g id="a_Node000002"><a xlink:href="class_a_main_character.html#a501bd7ba0eb90bf0c1da39ec8496f6e0" target="_top" xlink:title=" ">
<polygon fill="white" stroke="#666666" points="296,-70 147.25,-70 147.25,-50 296,-50 296,-70"/>
<text text-anchor="middle" x="221.62" y="-56.5" font-family="Arial" font-size="10.00">AMainCharacter::MulticastFire</text>
</a>
</g>
</g>
<!-- Node1&#45;&gt;Node2 -->
<g id="edge1_Node000001_Node000002" class="edge">
<title>Node1&#45;&gt;Node2</title>
<g id="a_edge1_Node000001_Node000002"><a xlink:title=" ">
<path fill="none" stroke="#63b8ff" d="M320.58,-47.32C312.6,-48.36 304.46,-49.41 296.46,-50.45"/>
<polygon fill="#63b8ff" stroke="#63b8ff" points="320.76,-50.83 330.23,-46.07 319.86,-43.89 320.76,-50.83"/>
</a>
</g>
</g>
<!-- Node3 -->
<g id="Node000003" class="node">
<title>Node3</title>
<g id="a_Node000003"><a xlink:href="class_a_main_character.html#a909b1b0adf502bef351cceca49e4eb68" target="_top" xlink:title=" ">
<polygon fill="white" stroke="#666666" points="286.62,-32 156.62,-32 156.62,0 286.62,0 286.62,-32"/>
<text text-anchor="start" x="164.62" y="-18.5" font-family="Arial" font-size="10.00">AMainCharacter::RotateIn</text>
<text text-anchor="middle" x="221.62" y="-6.5" font-family="Arial" font-size="10.00">Place</text>
</a>
</g>
</g>
<!-- Node1&#45;&gt;Node3 -->
<g id="edge3_Node000001_Node000003" class="edge">
<title>Node1&#45;&gt;Node3</title>
<g id="a_edge3_Node000001_Node000003"><a xlink:title=" ">
<path fill="none" stroke="#63b8ff" d="M320.36,-28.65C309.32,-27.22 297.98,-25.75 287.11,-24.35"/>
<polygon fill="#63b8ff" stroke="#63b8ff" points="319.86,-32.11 330.23,-29.93 320.76,-25.17 319.86,-32.11"/>
</a>
</g>
</g>
<!-- Node2&#45;&gt;Node2 -->
<g id="edge2_Node000002_Node000002" class="edge">
<title>Node2&#45;&gt;Node2</title>
<g id="a_edge2_Node000002_Node000002"><a xlink:title=" ">
<path fill="none" stroke="#63b8ff" d="M250.96,-81.44C247.19,-85.3 237.41,-88 221.62,-88 192.77,-88 183.98,-78.98 195.25,-70.34"/>
<polygon fill="#63b8ff" stroke="#63b8ff" points="254.35,-80.56 248.39,-71.8 247.59,-82.37 254.35,-80.56"/>
</a>
</g>
</g>
<!-- Node4 -->
<g id="Node000004" class="node">
<title>Node4</title>
<g id="a_Node000004"><a xlink:href="class_a_main_character.html#a44a6be77fb1c8617c144a85fc084ad2b" target="_top" xlink:title=" ">
<polygon fill="white" stroke="#666666" points="111.25,-26 0,-26 0,-6 111.25,-6 111.25,-26"/>
<text text-anchor="middle" x="55.62" y="-12.5" font-family="Arial" font-size="10.00">AMainCharacter::Tick</text>
</a>
</g>
</g>
<!-- Node3&#45;&gt;Node4 -->
<g id="edge4_Node000003_Node000004" class="edge">
<title>Node3&#45;&gt;Node4</title>
<g id="a_edge4_Node000003_Node000004"><a xlink:title=" ">
<path fill="none" stroke="#63b8ff" d="M145.05,-16C133.74,-16 122.27,-16 111.5,-16"/>
<polygon fill="#63b8ff" stroke="#63b8ff" points="144.77,-19.5 154.77,-16 144.76,-12.5 144.77,-19.5"/>
</a>
</g>
</g>
</g>
</svg>
</svg>

<style type='text/css'>
<![CDATA[
[data-mouse-over-selected='false'] { opacity: 0.7; }
[data-mouse-over-selected='true']  { opacity: 1.0; }
]]>
</style>
<script type="application/ecmascript"><![CDATA[
document.addEventListener('DOMContentLoaded', (event) => {
  highlightEdges();
  highlightAdjacentNodes();
});
]]></script>
</svg>
