<?xml version="1.0" encoding="UTF-8" standalone="no"?>
<!DOCTYPE svg PUBLIC "-//W3C//DTD SVG 1.1//EN"
 "http://www.w3.org/Graphics/SVG/1.1/DTD/svg11.dtd">
<!-- Generated by graphviz version 12.2.1 (20241206.2353)
 -->
<!-- Title: AMainCharacter::PlayHitReactMontage Pages: 1 -->
<svg width="533pt" height="78pt"
 viewBox="0.00 0.00 533.00 78.00" xmlns="http://www.w3.org/2000/svg" xmlns:xlink="http://www.w3.org/1999/xlink">
<g id="graph0" class="graph" transform="scale(1 1) rotate(0) translate(4 74)">
<title>AMainCharacter::PlayHitReactMontage</title>
<!-- Node1 -->
<g id="Node000001" class="node">
<title>Node1</title>
<g id="a_Node000001"><a xlink:title=" ">
<polygon fill="#999999" stroke="#666666" points="525,-48 374,-48 374,-16 525,-16 525,-48"/>
<text text-anchor="start" x="382" y="-34.5" font-family="Arial" font-size="10.00">AMainCharacter::PlayHitReact</text>
<text text-anchor="middle" x="449.5" y="-22.5" font-family="Arial" font-size="10.00">Montage</text>
</a>
</g>
</g>
<!-- Node2 -->
<g id="Node000002" class="node">
<title>Node2</title>
<g id="a_Node000002"><a xlink:href="class_a_main_character.html#a81b04850e2ddb2d233bfb612fe0c809e" target="_top" xlink:title=" ">
<polygon fill="white" stroke="#666666" points="317,-70 193.75,-70 193.75,-38 317,-38 317,-70"/>
<text text-anchor="start" x="201.75" y="-56.5" font-family="Arial" font-size="10.00">AMainCharacter::OnRep</text>
<text text-anchor="middle" x="255.38" y="-44.5" font-family="Arial" font-size="10.00">_Health</text>
</a>
</g>
</g>
<!-- Node1&#45;&gt;Node2 -->
<g id="edge1_Node000001_Node000002" class="edge">
<title>Node1&#45;&gt;Node2</title>
<g id="a_edge1_Node000001_Node000002"><a xlink:title=" ">
<path fill="none" stroke="#63b8ff" d="M362.64,-41.83C347.37,-43.58 331.75,-45.37 317.36,-47.02"/>
<polygon fill="#63b8ff" stroke="#63b8ff" points="362.63,-45.36 372.17,-40.74 361.83,-38.4 362.63,-45.36"/>
</a>
</g>
</g>
<!-- Node3 -->
<g id="Node000003" class="node">
<title>Node3</title>
<g id="a_Node000003"><a xlink:href="class_a_main_character.html#a33d3267c0046be93c39178a2ed3944b3" target="_top" xlink:title=" ">
<polygon fill="white" stroke="#666666" points="338,-20 172.75,-20 172.75,0 338,0 338,-20"/>
<text text-anchor="middle" x="255.38" y="-6.5" font-family="Arial" font-size="10.00">AMainCharacter::ReceiveDamage</text>
</a>
</g>
</g>
<!-- Node1&#45;&gt;Node3 -->
<g id="edge2_Node000001_Node000003" class="edge">
<title>Node1&#45;&gt;Node3</title>
<g id="a_edge2_Node000001_Node000003"><a xlink:title=" ">
<path fill="none" stroke="#63b8ff" d="M362.42,-22.14C354.41,-21.23 346.3,-20.3 338.32,-19.38"/>
<polygon fill="#63b8ff" stroke="#63b8ff" points="361.83,-25.6 372.17,-23.26 362.63,-18.64 361.83,-25.6"/>
</a>
</g>
</g>
<!-- Node4 -->
<g id="Node000004" class="node">
<title>Node4</title>
<g id="a_Node000004"><a xlink:href="class_a_main_character.html#a096ef46022cd84777b571482729ed02f" target="_top" xlink:title=" ">
<polygon fill="white" stroke="#666666" points="136.75,-20 0,-20 0,0 136.75,0 136.75,-20"/>
<text text-anchor="middle" x="68.38" y="-6.5" font-family="Arial" font-size="10.00">AMainCharacter::BeginPlay</text>
</a>
</g>
</g>
<!-- Node3&#45;&gt;Node4 -->
<g id="edge3_Node000003_Node000004" class="edge">
<title>Node3&#45;&gt;Node4</title>
<g id="a_edge3_Node000003_Node000004"><a xlink:title=" ">
<path fill="none" stroke="#63b8ff" d="M161.05,-10C152.99,-10 144.93,-10 137.13,-10"/>
<polygon fill="#63b8ff" stroke="#63b8ff" points="160.91,-13.5 170.91,-10 160.91,-6.5 160.91,-13.5"/>
</a>
</g>
</g>
</g>
</svg>
