<?xml version="1.0" encoding="UTF-8" standalone="no"?>
<!DOCTYPE svg PUBLIC "-//W3C//DTD SVG 1.1//EN"
 "http://www.w3.org/Graphics/SVG/1.1/DTD/svg11.dtd">
<!-- Generated by graphviz version 12.2.1 (20241206.2353)
 -->
<!-- Title: AMainCharacter::Elim Pages: 1 -->
<svg width="313pt" height="96pt"
 viewBox="0.00 0.00 313.00 96.00" xmlns="http://www.w3.org/2000/svg" xmlns:xlink="http://www.w3.org/1999/xlink">
<g id="graph0" class="graph" transform="scale(1 1) rotate(0) translate(4 92)">
<title>AMainCharacter::Elim</title>
<!-- Node1 -->
<g id="Node000001" class="node">
<title>Node1</title>
<g id="a_Node000001"><a xlink:title="Elimination.">
<polygon fill="#999999" stroke="#666666" points="112,-51 0,-51 0,-31 112,-31 112,-51"/>
<text text-anchor="middle" x="56" y="-37.5" font-family="Arial" font-size="10.00">AMainCharacter::Elim</text>
</a>
</g>
</g>
<!-- Node2 -->
<g id="Node000002" class="node">
<title>Node2</title>
<g id="a_Node000002"><a xlink:href="class_a_main_character.html#aea17dde5a15443622f0bf918c57cce6f" target="_top" xlink:title=" ">
<polygon fill="white" stroke="#666666" points="294.88,-88 158.12,-88 158.12,-56 294.88,-56 294.88,-88"/>
<text text-anchor="start" x="166.12" y="-74.5" font-family="Arial" font-size="10.00">AMainCharacter::ElimTimer</text>
<text text-anchor="middle" x="226.5" y="-62.5" font-family="Arial" font-size="10.00">Finished</text>
</a>
</g>
</g>
<!-- Node1&#45;&gt;Node2 -->
<g id="edge1_Node000001_Node000002" class="edge">
<title>Node1&#45;&gt;Node2</title>
<g id="a_edge1_Node000001_Node000002"><a xlink:title=" ">
<path fill="none" stroke="#63b8ff" d="M112.17,-51.15C123.23,-53.18 135.05,-55.36 146.72,-57.51"/>
<polygon fill="#63b8ff" stroke="#63b8ff" points="145.89,-60.91 156.36,-59.28 147.15,-54.03 145.89,-60.91"/>
</a>
</g>
</g>
<!-- Node3 -->
<g id="Node000003" class="node">
<title>Node3</title>
<g id="a_Node000003"><a xlink:href="class_a_main_character.html#a5691a3d428c1f9d6f6ed3d28cb29df10" target="_top" xlink:title=" ">
<polygon fill="white" stroke="#666666" points="305,-20 148,-20 148,0 305,0 305,-20"/>
<text text-anchor="middle" x="226.5" y="-6.5" font-family="Arial" font-size="10.00">AMainCharacter::Multicast_Elim</text>
</a>
</g>
</g>
<!-- Node1&#45;&gt;Node3 -->
<g id="edge2_Node000001_Node000003" class="edge">
<title>Node1&#45;&gt;Node3</title>
<g id="a_edge2_Node000001_Node000003"><a xlink:title=" ">
<path fill="none" stroke="#63b8ff" d="M112.17,-30.85C126.55,-28.2 142.22,-25.32 157.19,-22.57"/>
<polygon fill="#63b8ff" stroke="#63b8ff" points="157.78,-26.02 166.98,-20.77 156.51,-19.13 157.78,-26.02"/>
</a>
</g>
</g>
<!-- Node3&#45;&gt;Node3 -->
<g id="edge3_Node000003_Node000003" class="edge">
<title>Node3&#45;&gt;Node3</title>
<g id="a_edge3_Node000003_Node000003"><a xlink:title=" ">
<path fill="none" stroke="#63b8ff" d="M199.41,-20.34C187.83,-28.98 196.86,-38 226.5,-38 243.17,-38 253.32,-35.14 256.95,-31.11"/>
<polygon fill="#63b8ff" stroke="#63b8ff" points="260.36,-30.29 254.04,-21.78 253.68,-32.37 260.36,-30.29"/>
</a>
</g>
</g>
</g>
</svg>
