<?xml version="1.0" encoding="UTF-8" standalone="no"?>
<!DOCTYPE svg PUBLIC "-//W3C//DTD SVG 1.1//EN"
 "http://www.w3.org/Graphics/SVG/1.1/DTD/svg11.dtd">
<!-- Generated by graphviz version 12.2.1 (20241206.2353)
 -->
<!-- Title: AMainCharacter::ElimTimerFinished Pages: 1 -->
<svg width="478pt" height="52pt"
 viewBox="0.00 0.00 477.50 52.00" xmlns="http://www.w3.org/2000/svg" xmlns:xlink="http://www.w3.org/1999/xlink">

<svg id="main" version="1.1" xmlns="http://www.w3.org/2000/svg" xmlns:xlink="http://www.w3.org/1999/xlink" xml:space="preserve">

<style type="text/css"><![CDATA[
.node, .edge {opacity: 0.7;}
.node.selected, .edge.selected {opacity: 1;}
.edge:hover path { stroke: red; }
.edge:hover polygon { stroke: red; fill: red; }
]]></style>
<script type="application/ecmascript" xlink:href="svg.min.js"/>
<svg id="graph" class="graph">
<g id="graph0" class="graph" transform="scale(1 1) rotate(0) translate(4 48)">
<title>AMainCharacter::ElimTimerFinished</title>
<!-- Node1 -->
<g id="Node000001" class="node">
<title>Node1</title>
<g id="a_Node000001"><a xlink:title=" ">
<polygon fill="#999999" stroke="#666666" points="469.5,-32 332.75,-32 332.75,0 469.5,0 469.5,-32"/>
<text text-anchor="start" x="340.75" y="-18.5" font-family="Arial" font-size="10.00">AMainCharacter::ElimTimer</text>
<text text-anchor="middle" x="401.12" y="-6.5" font-family="Arial" font-size="10.00">Finished</text>
</a>
</g>
</g>
<!-- Node2 -->
<g id="Node000002" class="node">
<title>Node2</title>
<g id="a_Node000002"><a xlink:href="class_a_main_character.html#a9d0b7a05e0580099815730100ad9bfb6" target="_top" xlink:title="Elimination.">
<polygon fill="white" stroke="#666666" points="296.75,-26 184.75,-26 184.75,-6 296.75,-6 296.75,-26"/>
<text text-anchor="middle" x="240.75" y="-12.5" font-family="Arial" font-size="10.00">AMainCharacter::Elim</text>
</a>
</g>
</g>
<!-- Node1&#45;&gt;Node2 -->
<g id="edge1_Node000001_Node000002" class="edge">
<title>Node1&#45;&gt;Node2</title>
<g id="a_edge1_Node000001_Node000002"><a xlink:title=" ">
<path fill="none" stroke="#63b8ff" d="M321.12,-16C313.04,-16 304.96,-16 297.21,-16"/>
<polygon fill="#63b8ff" stroke="#63b8ff" points="320.99,-19.5 330.99,-16 320.99,-12.5 320.99,-19.5"/>
</a>
</g>
</g>
<!-- Node3 -->
<g id="Node000003" class="node">
<title>Node3</title>
<g id="a_Node000003"><a xlink:href="class_a_main_character.html#a501bd7ba0eb90bf0c1da39ec8496f6e0" target="_top" xlink:title=" ">
<polygon fill="white" stroke="#666666" points="148.75,-26 0,-26 0,-6 148.75,-6 148.75,-26"/>
<text text-anchor="middle" x="74.38" y="-12.5" font-family="Arial" font-size="10.00">AMainCharacter::MulticastFire</text>
</a>
</g>
</g>
<!-- Node2&#45;&gt;Node3 -->
<g id="edge2_Node000002_Node000003" class="edge">
<title>Node2&#45;&gt;Node3</title>
<g id="a_edge2_Node000002_Node000003"><a xlink:title=" ">
<path fill="none" stroke="#63b8ff" d="M173.14,-16C165.23,-16 157.11,-16 149.11,-16"/>
<polygon fill="#63b8ff" stroke="#63b8ff" points="173.04,-19.5 183.04,-16 173.04,-12.5 173.04,-19.5"/>
</a>
</g>
</g>
<!-- Node3&#45;&gt;Node3 -->
<g id="edge3_Node000003_Node000003" class="edge">
<title>Node3&#45;&gt;Node3</title>
<g id="a_edge3_Node000003_Node000003"><a xlink:title=" ">
<path fill="none" stroke="#63b8ff" d="M103.78,-37.44C99.99,-41.3 90.19,-44 74.38,-44 45.45,-44 36.64,-34.98 47.94,-26.34"/>
<polygon fill="#63b8ff" stroke="#63b8ff" points="107.17,-36.56 101.2,-27.8 100.4,-38.37 107.17,-36.56"/>
</a>
</g>
</g>
</g>
</svg>
</svg>

<style type='text/css'>
<![CDATA[
[data-mouse-over-selected='false'] { opacity: 0.7; }
[data-mouse-over-selected='true']  { opacity: 1.0; }
]]>
</style>
<script type="application/ecmascript"><![CDATA[
document.addEventListener('DOMContentLoaded', (event) => {
  highlightEdges();
  highlightAdjacentNodes();
});
]]></script>
</svg>
