<?xml version="1.0" encoding="UTF-8" standalone="no"?>
<!DOCTYPE svg PUBLIC "-//W3C//DTD SVG 1.1//EN"
 "http://www.w3.org/Graphics/SVG/1.1/DTD/svg11.dtd">
<!-- Generated by graphviz version 12.2.1 (20241206.2353)
 -->
<!-- Title: AMainCharacter::BeginPlay Pages: 1 -->
<svg width="557pt" height="146pt"
 viewBox="0.00 0.00 557.00 146.00" xmlns="http://www.w3.org/2000/svg" xmlns:xlink="http://www.w3.org/1999/xlink">
<g id="graph0" class="graph" transform="scale(1 1) rotate(0) translate(4 142)">
<title>AMainCharacter::BeginPlay</title>
<!-- Node1 -->
<g id="Node000001" class="node">
<title>Node1</title>
<g id="a_Node000001"><a xlink:title=" ">
<polygon fill="#999999" stroke="#666666" points="136.75,-62 0,-62 0,-42 136.75,-42 136.75,-62"/>
<text text-anchor="middle" x="68.38" y="-48.5" font-family="Arial" font-size="10.00">AMainCharacter::BeginPlay</text>
</a>
</g>
</g>
<!-- Node2 -->
<g id="Node000002" class="node">
<title>Node2</title>
<g id="a_Node000002"><a xlink:href="class_a_main_character.html#a4df727af98f00c25d8f7411e5dd6a9de" target="_top" xlink:title=" ">
<polygon fill="white" stroke="#666666" points="328.25,-116 182.5,-116 182.5,-84 328.25,-84 328.25,-116"/>
<text text-anchor="start" x="190.5" y="-102.5" font-family="Arial" font-size="10.00">AMainCharacter::EquipButton</text>
<text text-anchor="middle" x="255.38" y="-90.5" font-family="Arial" font-size="10.00">Pressed</text>
</a>
</g>
</g>
<!-- Node1&#45;&gt;Node2 -->
<g id="edge1_Node000001_Node000002" class="edge">
<title>Node1&#45;&gt;Node2</title>
<g id="a_edge1_Node000001_Node000002"><a xlink:title=" ">
<path fill="none" stroke="#63b8ff" d="M109.52,-62.42C130.16,-67.77 155.99,-74.47 180.1,-80.73"/>
<polygon fill="#63b8ff" stroke="#63b8ff" points="179.01,-84.06 189.57,-83.18 180.77,-77.29 179.01,-84.06"/>
</a>
</g>
</g>
<!-- Node4 -->
<g id="Node000004" class="node">
<title>Node4</title>
<g id="a_Node000004"><a xlink:href="class_a_main_character.html#a33d3267c0046be93c39178a2ed3944b3" target="_top" xlink:title=" ">
<polygon fill="white" stroke="#666666" points="338,-62 172.75,-62 172.75,-42 338,-42 338,-62"/>
<text text-anchor="middle" x="255.38" y="-48.5" font-family="Arial" font-size="10.00">AMainCharacter::ReceiveDamage</text>
</a>
</g>
</g>
<!-- Node1&#45;&gt;Node4 -->
<g id="edge4_Node000001_Node000004" class="edge">
<title>Node1&#45;&gt;Node4</title>
<g id="a_edge4_Node000001_Node000004"><a xlink:title=" ">
<path fill="none" stroke="#63b8ff" d="M137.21,-52C144.99,-52 153.02,-52 161.06,-52"/>
<polygon fill="#63b8ff" stroke="#63b8ff" points="160.9,-55.5 170.9,-52 160.9,-48.5 160.9,-55.5"/>
</a>
</g>
</g>
<!-- Node6 -->
<g id="Node000006" class="node">
<title>Node6</title>
<g id="a_Node000006"><a xlink:href="class_a_main_character.html#a489b2bbf70c72576dba98e67627a5a2e" target="_top" xlink:title=" ">
<polygon fill="white" stroke="#666666" points="549,-20 374,-20 374,0 549,0 549,-20"/>
<text text-anchor="middle" x="461.5" y="-6.5" font-family="Arial" font-size="10.00">AMainCharacter::UpdateHUDHealth</text>
</a>
</g>
</g>
<!-- Node1&#45;&gt;Node6 -->
<g id="edge7_Node000001_Node000006" class="edge">
<title>Node1&#45;&gt;Node6</title>
<g id="a_edge7_Node000001_Node000006"><a xlink:title=" ">
<path fill="none" stroke="#63b8ff" d="M120.48,-41.54C137.09,-38.43 155.65,-35.25 172.75,-33 235.62,-24.73 306.64,-19.02 362.39,-15.35"/>
<polygon fill="#63b8ff" stroke="#63b8ff" points="362.43,-18.86 372.18,-14.72 361.98,-11.87 362.43,-18.86"/>
</a>
</g>
</g>
<!-- Node3 -->
<g id="Node000003" class="node">
<title>Node3</title>
<g id="a_Node000003"><a xlink:href="class_a_main_character.html#af136e423dc50ae1dbf560911dd07d353" target="_top" xlink:title=" ">
<polygon fill="white" stroke="#666666" points="534.38,-120 388.62,-120 388.62,-88 534.38,-88 534.38,-120"/>
<text text-anchor="start" x="396.62" y="-106.5" font-family="Arial" font-size="10.00">AMainCharacter::ServerEquip</text>
<text text-anchor="middle" x="461.5" y="-94.5" font-family="Arial" font-size="10.00">ButtonPressed</text>
</a>
</g>
</g>
<!-- Node2&#45;&gt;Node3 -->
<g id="edge2_Node000002_Node000003" class="edge">
<title>Node2&#45;&gt;Node3</title>
<g id="a_edge2_Node000002_Node000003"><a xlink:title=" ">
<path fill="none" stroke="#63b8ff" d="M328.63,-101.42C344.23,-101.72 360.84,-102.05 376.83,-102.36"/>
<polygon fill="#63b8ff" stroke="#63b8ff" points="376.76,-105.86 386.83,-102.56 376.9,-98.86 376.76,-105.86"/>
</a>
</g>
</g>
<!-- Node3&#45;&gt;Node3 -->
<g id="edge3_Node000003_Node000003" class="edge">
<title>Node3&#45;&gt;Node3</title>
<g id="a_edge3_Node000003_Node000003"><a xlink:title=" ">
<path fill="none" stroke="#63b8ff" d="M424.7,-120.44C417.83,-129.58 430.1,-138 461.5,-138 478.92,-138 490.45,-135.41 496.09,-131.54"/>
<polygon fill="#63b8ff" stroke="#63b8ff" points="499.49,-132.42 498,-121.93 492.62,-131.05 499.49,-132.42"/>
</a>
</g>
</g>
<!-- Node5 -->
<g id="Node000005" class="node">
<title>Node5</title>
<g id="a_Node000005"><a xlink:href="class_a_main_character.html#a1be3a32212f8b037dd4eeae9720e2348" target="_top" xlink:title=" ">
<polygon fill="white" stroke="#666666" points="537,-70 386,-70 386,-38 537,-38 537,-70"/>
<text text-anchor="start" x="394" y="-56.5" font-family="Arial" font-size="10.00">AMainCharacter::PlayHitReact</text>
<text text-anchor="middle" x="461.5" y="-44.5" font-family="Arial" font-size="10.00">Montage</text>
</a>
</g>
</g>
<!-- Node4&#45;&gt;Node5 -->
<g id="edge5_Node000004_Node000005" class="edge">
<title>Node4&#45;&gt;Node5</title>
<g id="a_edge5_Node000004_Node000005"><a xlink:title=" ">
<path fill="none" stroke="#63b8ff" d="M338.22,-52.8C350.08,-52.92 362.31,-53.04 374.24,-53.15"/>
<polygon fill="#63b8ff" stroke="#63b8ff" points="374.02,-56.65 384.06,-53.25 374.09,-49.65 374.02,-56.65"/>
</a>
</g>
</g>
<!-- Node4&#45;&gt;Node6 -->
<g id="edge6_Node000004_Node000006" class="edge">
<title>Node4&#45;&gt;Node6</title>
<g id="a_edge6_Node000004_Node000006"><a xlink:title=" ">
<path fill="none" stroke="#63b8ff" d="M307.36,-41.51C335.11,-35.8 369.64,-28.69 398.89,-22.68"/>
<polygon fill="#63b8ff" stroke="#63b8ff" points="399.24,-26.18 408.33,-20.73 397.83,-19.32 399.24,-26.18"/>
</a>
</g>
</g>
</g>
</svg>
