<?xml version="1.0" encoding="UTF-8" standalone="no"?>
<!DOCTYPE svg PUBLIC "-//W3C//DTD SVG 1.1//EN"
 "http://www.w3.org/Graphics/SVG/1.1/DTD/svg11.dtd">
<!-- Generated by graphviz version 12.2.1 (20241206.2353)
 -->
<!-- Title: AMainCharacter::ReceiveDamage Pages: 1 -->
<svg width="384pt" height="78pt"
 viewBox="0.00 0.00 384.25 78.00" xmlns="http://www.w3.org/2000/svg" xmlns:xlink="http://www.w3.org/1999/xlink">
<g id="graph0" class="graph" transform="scale(1 1) rotate(0) translate(4 74)">
<title>AMainCharacter::ReceiveDamage</title>
<!-- Node1 -->
<g id="Node000001" class="node">
<title>Node1</title>
<g id="a_Node000001"><a xlink:title=" ">
<polygon fill="#999999" stroke="#666666" points="165.25,-42 0,-42 0,-22 165.25,-22 165.25,-42"/>
<text text-anchor="middle" x="82.62" y="-28.5" font-family="Arial" font-size="10.00">AMainCharacter::ReceiveDamage</text>
</a>
</g>
</g>
<!-- Node2 -->
<g id="Node000002" class="node">
<title>Node2</title>
<g id="a_Node000002"><a xlink:href="class_a_main_character.html#a1be3a32212f8b037dd4eeae9720e2348" target="_top" xlink:title=" ">
<polygon fill="white" stroke="#666666" points="364.25,-70 213.25,-70 213.25,-38 364.25,-38 364.25,-70"/>
<text text-anchor="start" x="221.25" y="-56.5" font-family="Arial" font-size="10.00">AMainCharacter::PlayHitReact</text>
<text text-anchor="middle" x="288.75" y="-44.5" font-family="Arial" font-size="10.00">Montage</text>
</a>
</g>
</g>
<!-- Node1&#45;&gt;Node2 -->
<g id="edge1_Node000001_Node000002" class="edge">
<title>Node1&#45;&gt;Node2</title>
<g id="a_edge1_Node000001_Node000002"><a xlink:title=" ">
<path fill="none" stroke="#63b8ff" d="M165.47,-40.82C177.33,-42.1 189.56,-43.42 201.49,-44.7"/>
<polygon fill="#63b8ff" stroke="#63b8ff" points="201,-48.17 211.32,-45.76 201.75,-41.21 201,-48.17"/>
</a>
</g>
</g>
<!-- Node3 -->
<g id="Node000003" class="node">
<title>Node3</title>
<g id="a_Node000003"><a xlink:href="class_a_main_character.html#a489b2bbf70c72576dba98e67627a5a2e" target="_top" xlink:title=" ">
<polygon fill="white" stroke="#666666" points="376.25,-20 201.25,-20 201.25,0 376.25,0 376.25,-20"/>
<text text-anchor="middle" x="288.75" y="-6.5" font-family="Arial" font-size="10.00">AMainCharacter::UpdateHUDHealth</text>
</a>
</g>
</g>
<!-- Node1&#45;&gt;Node3 -->
<g id="edge2_Node000001_Node000003" class="edge">
<title>Node1&#45;&gt;Node3</title>
<g id="a_edge2_Node000001_Node000003"><a xlink:title=" ">
<path fill="none" stroke="#63b8ff" d="M165.47,-23.18C173.39,-22.33 181.47,-21.45 189.53,-20.59"/>
<polygon fill="#63b8ff" stroke="#63b8ff" points="189.8,-24.08 199.37,-19.53 189.05,-17.12 189.8,-24.08"/>
</a>
</g>
</g>
</g>
</svg>
