<?xml version="1.0" encoding="UTF-8" standalone="no"?>
<!DOCTYPE svg PUBLIC "-//W3C//DTD SVG 1.1//EN"
 "http://www.w3.org/Graphics/SVG/1.1/DTD/svg11.dtd">
<!-- Generated by graphviz version 12.2.1 (20241206.2353)
 -->
<!-- Title: AMainCharacter Pages: 1 -->
<svg width="160pt" height="916pt"
 viewBox="0.00 0.00 160.25 916.00" xmlns="http://www.w3.org/2000/svg" xmlns:xlink="http://www.w3.org/1999/xlink">
<g id="graph0" class="graph" transform="scale(1 1) rotate(0) translate(4 912)">
<title>AMainCharacter</title>
<!-- Node1 -->
<g id="Node000001" class="node">
<title>Node1</title>
<g id="a_Node000001"><a xlink:title=" ">
<polygon fill="#999999" stroke="none" points="152.25,-820 0,-820 0,0 152.25,0 152.25,-820"/>
<text text-anchor="start" x="40.88" y="-806.5" font-family="Arial" font-size="10.00">AMainCharacter</text>
<text text-anchor="start" x="4" y="-790.5" font-family="Arial" font-size="10.00">+</text>
<text text-anchor="start" x="14" y="-790.5" font-family="Arial" font-size="10.00">bDisableGameplay</text>
<text text-anchor="start" x="4" y="-774.5" font-family="Arial" font-size="10.00">+</text>
<text text-anchor="start" x="14" y="-774.5" font-family="Arial" font-size="10.00">HitCollisionBoxes</text>
<text text-anchor="start" x="4" y="-758.5" font-family="Arial" font-size="10.00">+</text>
<text text-anchor="start" x="14" y="-758.5" font-family="Arial" font-size="10.00">LagCompensation</text>
<text text-anchor="start" x="4" y="-742.5" font-family="Arial" font-size="10.00">+</text>
<text text-anchor="start" x="14" y="-742.5" font-family="Arial" font-size="10.00">MouseSensitivity</text>
<text text-anchor="start" x="4" y="-726.5" font-family="Arial" font-size="10.00">+</text>
<text text-anchor="start" x="14" y="-726.5" font-family="Arial" font-size="10.00">StarterWeapon</text>
<text text-anchor="start" x="4" y="-710.5" font-family="Arial" font-size="10.00">+</text>
<text text-anchor="start" x="14" y="-710.5" font-family="Arial" font-size="10.00">FireWeaponMontage</text>
<text text-anchor="start" x="4" y="-694.5" font-family="Arial" font-size="10.00">+</text>
<text text-anchor="start" x="14" y="-694.5" font-family="Arial" font-size="10.00">HitReactMontage</text>
<text text-anchor="start" x="4" y="-678.5" font-family="Arial" font-size="10.00">+</text>
<text text-anchor="start" x="14" y="-678.5" font-family="Arial" font-size="10.00">ElimMontage</text>
<text text-anchor="start" x="4" y="-662.5" font-family="Arial" font-size="10.00">+</text>
<text text-anchor="start" x="14" y="-662.5" font-family="Arial" font-size="10.00">MainPlayerState</text>
<text text-anchor="start" x="4" y="-646.5" font-family="Arial" font-size="10.00">+</text>
<text text-anchor="start" x="14" y="-646.5" font-family="Arial" font-size="10.00">head</text>
<text text-anchor="start" x="14" y="-630.5" font-family="Arial" font-size="10.00">and 15 more...</text>
<text text-anchor="start" x="4.38" y="-614.5" font-family="Arial" font-size="10.00">#</text>
<text text-anchor="start" x="14" y="-614.5" font-family="Arial" font-size="10.00">OverlappingWeapon</text>
<text text-anchor="start" x="4.38" y="-598.5" font-family="Arial" font-size="10.00">#</text>
<text text-anchor="start" x="14" y="-598.5" font-family="Arial" font-size="10.00">AO_Yaw</text>
<text text-anchor="start" x="4.38" y="-582.5" font-family="Arial" font-size="10.00">#</text>
<text text-anchor="start" x="14" y="-582.5" font-family="Arial" font-size="10.00">InterpAO_Yaw</text>
<text text-anchor="start" x="4.38" y="-566.5" font-family="Arial" font-size="10.00">#</text>
<text text-anchor="start" x="14" y="-566.5" font-family="Arial" font-size="10.00">AO_Pitch</text>
<text text-anchor="start" x="4.38" y="-550.5" font-family="Arial" font-size="10.00">#</text>
<text text-anchor="start" x="14" y="-550.5" font-family="Arial" font-size="10.00">StartingAimRotation</text>
<text text-anchor="start" x="4.38" y="-534.5" font-family="Arial" font-size="10.00">#</text>
<text text-anchor="start" x="14" y="-534.5" font-family="Arial" font-size="10.00">TurningInPlace</text>
<text text-anchor="start" x="4.38" y="-518.5" font-family="Arial" font-size="10.00">#</text>
<text text-anchor="start" x="14" y="-518.5" font-family="Arial" font-size="10.00">CameraThreshold</text>
<text text-anchor="start" x="4.38" y="-502.5" font-family="Arial" font-size="10.00">#</text>
<text text-anchor="start" x="14" y="-502.5" font-family="Arial" font-size="10.00">bRotateRootBone</text>
<text text-anchor="start" x="4.38" y="-486.5" font-family="Arial" font-size="10.00">#</text>
<text text-anchor="start" x="14" y="-486.5" font-family="Arial" font-size="10.00">TurnThreshold</text>
<text text-anchor="start" x="4.38" y="-470.5" font-family="Arial" font-size="10.00">#</text>
<text text-anchor="start" x="14" y="-470.5" font-family="Arial" font-size="10.00">ProxyRotationLastFrame</text>
<text text-anchor="start" x="14" y="-454.5" font-family="Arial" font-size="10.00">and 10 more...</text>
<text text-anchor="start" x="5.5" y="-438.5" font-family="Arial" font-size="10.00">&#45;</text>
<text text-anchor="start" x="14" y="-438.5" font-family="Arial" font-size="10.00">CameraBoom</text>
<text text-anchor="start" x="5.5" y="-422.5" font-family="Arial" font-size="10.00">&#45;</text>
<text text-anchor="start" x="14" y="-422.5" font-family="Arial" font-size="10.00">FollowCamera</text>
<text text-anchor="start" x="5.5" y="-406.5" font-family="Arial" font-size="10.00">&#45;</text>
<text text-anchor="start" x="14" y="-406.5" font-family="Arial" font-size="10.00">OverheadWidget</text>
<text text-anchor="start" x="5.5" y="-390.5" font-family="Arial" font-size="10.00">&#45;</text>
<text text-anchor="start" x="14" y="-390.5" font-family="Arial" font-size="10.00">Combat</text>
<text text-anchor="start" x="5.5" y="-374.5" font-family="Arial" font-size="10.00">&#45;</text>
<text text-anchor="start" x="14" y="-374.5" font-family="Arial" font-size="10.00">Buff</text>
<text text-anchor="start" x="5.5" y="-358.5" font-family="Arial" font-size="10.00">&#45;</text>
<text text-anchor="start" x="14" y="-358.5" font-family="Arial" font-size="10.00">Chat</text>
<text text-anchor="start" x="4" y="-342.5" font-family="Arial" font-size="10.00">+</text>
<text text-anchor="start" x="14" y="-342.5" font-family="Arial" font-size="10.00">AMainCharacter()</text>
<text text-anchor="start" x="4" y="-326.5" font-family="Arial" font-size="10.00">+</text>
<text text-anchor="start" x="14" y="-326.5" font-family="Arial" font-size="10.00">Tick()</text>
<text text-anchor="start" x="4" y="-310.5" font-family="Arial" font-size="10.00">+</text>
<text text-anchor="start" x="14" y="-310.5" font-family="Arial" font-size="10.00">SetupPlayerInputComponent()</text>
<text text-anchor="start" x="4" y="-294.5" font-family="Arial" font-size="10.00">+</text>
<text text-anchor="start" x="14" y="-294.5" font-family="Arial" font-size="10.00">GetLifetimeReplicatedProps()</text>
<text text-anchor="start" x="4" y="-278.5" font-family="Arial" font-size="10.00">+</text>
<text text-anchor="start" x="14" y="-278.5" font-family="Arial" font-size="10.00">PostInitializeComponents()</text>
<text text-anchor="start" x="4" y="-262.5" font-family="Arial" font-size="10.00">+</text>
<text text-anchor="start" x="14" y="-262.5" font-family="Arial" font-size="10.00">MulticastFire()</text>
<text text-anchor="start" x="4" y="-246.5" font-family="Arial" font-size="10.00">+</text>
<text text-anchor="start" x="14" y="-246.5" font-family="Arial" font-size="10.00">OnRep_ReplicatedMovement()</text>
<text text-anchor="start" x="4" y="-230.5" font-family="Arial" font-size="10.00">+</text>
<text text-anchor="start" x="14" y="-230.5" font-family="Arial" font-size="10.00">Elim()</text>
<text text-anchor="start" x="4" y="-214.5" font-family="Arial" font-size="10.00">+</text>
<text text-anchor="start" x="14" y="-214.5" font-family="Arial" font-size="10.00">Multicast_Elim()</text>
<text text-anchor="start" x="4" y="-198.5" font-family="Arial" font-size="10.00">+</text>
<text text-anchor="start" x="14" y="-198.5" font-family="Arial" font-size="10.00">UpdateHUDHealth()</text>
<text text-anchor="start" x="14" y="-182.5" font-family="Arial" font-size="10.00">and 21 more...</text>
<text text-anchor="start" x="4.38" y="-166.5" font-family="Arial" font-size="10.00">#</text>
<text text-anchor="start" x="14" y="-166.5" font-family="Arial" font-size="10.00">BeginPlay()</text>
<text text-anchor="start" x="4.38" y="-150.5" font-family="Arial" font-size="10.00">#</text>
<text text-anchor="start" x="14" y="-150.5" font-family="Arial" font-size="10.00">MoveForward()</text>
<text text-anchor="start" x="4.38" y="-134.5" font-family="Arial" font-size="10.00">#</text>
<text text-anchor="start" x="14" y="-134.5" font-family="Arial" font-size="10.00">MoveRight()</text>
<text text-anchor="start" x="4.38" y="-118.5" font-family="Arial" font-size="10.00">#</text>
<text text-anchor="start" x="14" y="-118.5" font-family="Arial" font-size="10.00">Turn()</text>
<text text-anchor="start" x="4.38" y="-102.5" font-family="Arial" font-size="10.00">#</text>
<text text-anchor="start" x="14" y="-102.5" font-family="Arial" font-size="10.00">LookUp()</text>
<text text-anchor="start" x="4.38" y="-86.5" font-family="Arial" font-size="10.00">#</text>
<text text-anchor="start" x="14" y="-86.5" font-family="Arial" font-size="10.00">EquipButtonPressed()</text>
<text text-anchor="start" x="4.38" y="-70.5" font-family="Arial" font-size="10.00">#</text>
<text text-anchor="start" x="14" y="-70.5" font-family="Arial" font-size="10.00">CrouchButtonPressed()</text>
<text text-anchor="start" x="4.38" y="-54.5" font-family="Arial" font-size="10.00">#</text>
<text text-anchor="start" x="14" y="-54.5" font-family="Arial" font-size="10.00">AimButtonPressed()</text>
<text text-anchor="start" x="4.38" y="-38.5" font-family="Arial" font-size="10.00">#</text>
<text text-anchor="start" x="14" y="-38.5" font-family="Arial" font-size="10.00">AimButtonReleased()</text>
<text text-anchor="start" x="4.38" y="-22.5" font-family="Arial" font-size="10.00">#</text>
<text text-anchor="start" x="14" y="-22.5" font-family="Arial" font-size="10.00">AimOffset()</text>
<text text-anchor="start" x="14" y="-6.5" font-family="Arial" font-size="10.00">and 19 more...</text>
<polygon fill="#666666" stroke="#666666" points="0,-802 0,-802 152.25,-802 152.25,-802 0,-802"/>
<polygon fill="#666666" stroke="#666666" points="0,-354 0,-354 12,-354 12,-354 0,-354"/>
<polygon fill="#666666" stroke="#666666" points="12,-354 12,-354 152.25,-354 152.25,-354 12,-354"/>
<polygon fill="none" stroke="#666666" points="0,0 0,-820 152.25,-820 152.25,0 0,0"/>
</a>
</g>
</g>
<!-- Node2 -->
<g id="Node000002" class="node">
<title>Node2</title>
<g id="a_Node000002"><a xlink:title=" ">
<polygon fill="white" stroke="none" points="104.88,-908 47.38,-908 47.38,-856 104.88,-856 104.88,-908"/>
<text text-anchor="start" x="51.38" y="-894.5" font-family="Arial" font-size="10.00">ACharacter</text>
<text text-anchor="start" x="74.62" y="-878.5" font-family="Arial" font-size="10.00"> </text>
<text text-anchor="start" x="74.62" y="-862.5" font-family="Arial" font-size="10.00"> </text>
<polygon fill="#666666" stroke="#666666" points="47.38,-890 47.38,-890 104.88,-890 104.88,-890 47.38,-890"/>
<polygon fill="#666666" stroke="#666666" points="47.38,-874 47.38,-874 104.88,-874 104.88,-874 47.38,-874"/>
<polygon fill="none" stroke="#666666" points="47.38,-856 47.38,-908 104.88,-908 104.88,-856 47.38,-856"/>
</a>
</g>
</g>
<!-- Node2&#45;&gt;Node1 -->
<g id="edge1_Node000001_Node000002" class="edge">
<title>Node2&#45;&gt;Node1</title>
<g id="a_edge1_Node000001_Node000002"><a xlink:title=" ">
<path fill="none" stroke="#63b8ff" d="M76.12,-844.57C76.12,-837.19 76.12,-828.86 76.12,-819.74"/>
<polygon fill="none" stroke="#63b8ff" points="72.63,-844.55 76.13,-854.55 79.63,-844.55 72.63,-844.55"/>
</a>
</g>
</g>
</g>
</svg>
