<?xml version="1.0" encoding="UTF-8" standalone="no"?>
<!DOCTYPE svg PUBLIC "-//W3C//DTD SVG 1.1//EN"
 "http://www.w3.org/Graphics/SVG/1.1/DTD/svg11.dtd">
<!-- Generated by graphviz version 12.2.1 (20241206.2353)
 -->
<!-- Title: AMainCharacter::Tick Pages: 1 -->
<svg width="843pt" height="198pt"
 viewBox="0.00 0.00 842.50 198.00" xmlns="http://www.w3.org/2000/svg" xmlns:xlink="http://www.w3.org/1999/xlink">
<g id="graph0" class="graph" transform="scale(1 1) rotate(0) translate(4 194)">
<title>AMainCharacter::Tick</title>
<!-- Node1 -->
<g id="Node000001" class="node">
<title>Node1</title>
<g id="a_Node000001"><a xlink:title=" ">
<polygon fill="#999999" stroke="#666666" points="111.25,-140 0,-140 0,-120 111.25,-120 111.25,-140"/>
<text text-anchor="middle" x="55.62" y="-126.5" font-family="Arial" font-size="10.00">AMainCharacter::Tick</text>
</a>
</g>
</g>
<!-- Node2 -->
<g id="Node000002" class="node">
<title>Node2</title>
<g id="a_Node000002"><a xlink:href="class_a_main_character.html#ac4fdce98dffe67af9794fa6d3a502d76" target="_top" xlink:title=" ">
<polygon fill="white" stroke="#666666" points="294.5,-190 147.25,-190 147.25,-158 294.5,-158 294.5,-190"/>
<text text-anchor="start" x="155.25" y="-176.5" font-family="Arial" font-size="10.00">AMainCharacter::HideCamera</text>
<text text-anchor="middle" x="220.88" y="-164.5" font-family="Arial" font-size="10.00">IfCharacterClose</text>
</a>
</g>
</g>
<!-- Node1&#45;&gt;Node2 -->
<g id="edge1_Node000001_Node000002" class="edge">
<title>Node1&#45;&gt;Node2</title>
<g id="a_edge1_Node000001_Node000002"><a xlink:title=" ">
<path fill="none" stroke="#63b8ff" d="M95.31,-140.43C111.01,-144.66 129.66,-149.69 147.69,-154.55"/>
<polygon fill="#63b8ff" stroke="#63b8ff" points="146.78,-157.92 157.35,-157.15 148.6,-151.17 146.78,-157.92"/>
</a>
</g>
</g>
<!-- Node3 -->
<g id="Node000003" class="node">
<title>Node3</title>
<g id="a_Node000003"><a xlink:href="class_a_main_character.html#a077ae7a65e9d30ec470d5f7b3a59579e" target="_top" xlink:title=" ">
<polygon fill="white" stroke="#666666" points="282.12,-140 159.62,-140 159.62,-120 282.12,-120 282.12,-140"/>
<text text-anchor="middle" x="220.88" y="-126.5" font-family="Arial" font-size="10.00">AMainCharacter::PollInit</text>
</a>
</g>
</g>
<!-- Node1&#45;&gt;Node3 -->
<g id="edge2_Node000001_Node000003" class="edge">
<title>Node1&#45;&gt;Node3</title>
<g id="a_edge2_Node000001_Node000003"><a xlink:title=" ">
<path fill="none" stroke="#63b8ff" d="M111.44,-130C123.21,-130 135.82,-130 148.13,-130"/>
<polygon fill="#63b8ff" stroke="#63b8ff" points="147.8,-133.5 157.8,-130 147.8,-126.5 147.8,-133.5"/>
</a>
</g>
</g>
<!-- Node4 -->
<g id="Node000004" class="node">
<title>Node4</title>
<g id="a_Node000004"><a xlink:href="class_a_main_character.html#a909b1b0adf502bef351cceca49e4eb68" target="_top" xlink:title=" ">
<polygon fill="white" stroke="#666666" points="285.88,-102 155.88,-102 155.88,-70 285.88,-70 285.88,-102"/>
<text text-anchor="start" x="163.88" y="-88.5" font-family="Arial" font-size="10.00">AMainCharacter::RotateIn</text>
<text text-anchor="middle" x="220.88" y="-76.5" font-family="Arial" font-size="10.00">Place</text>
</a>
</g>
</g>
<!-- Node1&#45;&gt;Node4 -->
<g id="edge3_Node000001_Node000004" class="edge">
<title>Node1&#45;&gt;Node4</title>
<g id="a_edge3_Node000001_Node000004"><a xlink:title=" ">
<path fill="none" stroke="#63b8ff" d="M95.31,-119.57C111.01,-115.34 129.66,-110.31 147.69,-105.45"/>
<polygon fill="#63b8ff" stroke="#63b8ff" points="148.6,-108.83 157.35,-102.85 146.78,-102.08 148.6,-108.83"/>
</a>
</g>
</g>
<!-- Node5 -->
<g id="Node000005" class="node">
<title>Node5</title>
<g id="a_Node000005"><a xlink:href="class_a_main_character.html#a6fa9a33c3dd4522ed81944aabc3114b8" target="_top" xlink:title=" ">
<polygon fill="white" stroke="#666666" points="466.5,-96 330.5,-96 330.5,-76 466.5,-76 466.5,-96"/>
<text text-anchor="middle" x="398.5" y="-82.5" font-family="Arial" font-size="10.00">AMainCharacter::AimOffset</text>
</a>
</g>
</g>
<!-- Node4&#45;&gt;Node5 -->
<g id="edge4_Node000004_Node000005" class="edge">
<title>Node4&#45;&gt;Node5</title>
<g id="a_edge4_Node000004_Node000005"><a xlink:title=" ">
<path fill="none" stroke="#63b8ff" d="M286.27,-86C296.88,-86 307.98,-86 318.89,-86"/>
<polygon fill="#63b8ff" stroke="#63b8ff" points="318.65,-89.5 328.65,-86 318.65,-82.5 318.65,-89.5"/>
</a>
</g>
</g>
<!-- Node6 -->
<g id="Node000006" class="node">
<title>Node6</title>
<g id="a_Node000006"><a xlink:href="class_a_main_character.html#a9294b45704fcfc1746e5f4c1433fcf0b" target="_top" xlink:title=" ">
<polygon fill="white" stroke="#666666" points="650.5,-146 516.75,-146 516.75,-114 650.5,-114 650.5,-146"/>
<text text-anchor="start" x="524.75" y="-132.5" font-family="Arial" font-size="10.00">AMainCharacter::Calculate</text>
<text text-anchor="middle" x="583.62" y="-120.5" font-family="Arial" font-size="10.00">AO_Pitch</text>
</a>
</g>
</g>
<!-- Node4&#45;&gt;Node6 -->
<g id="edge8_Node000004_Node000006" class="edge">
<title>Node4&#45;&gt;Node6</title>
<g id="a_edge8_Node000004_Node000006"><a xlink:title=" ">
<path fill="none" stroke="#63b8ff" d="M286.37,-98.09C300.86,-100.58 316.18,-103.04 330.5,-105 388.82,-112.98 455.07,-119.45 505.01,-123.81"/>
<polygon fill="#63b8ff" stroke="#63b8ff" points="504.6,-127.28 514.87,-124.66 505.21,-120.31 504.6,-127.28"/>
</a>
</g>
</g>
<!-- Node9 -->
<g id="Node000009" class="node">
<title>Node9</title>
<g id="a_Node000009"><a xlink:href="class_a_main_character.html#a0d4eb83adaa4bae05412bdc575f9c50b" target="_top" xlink:title=" ">
<polygon fill="white" stroke="#666666" points="460.12,-42 336.88,-42 336.88,-10 460.12,-10 460.12,-42"/>
<text text-anchor="start" x="344.88" y="-28.5" font-family="Arial" font-size="10.00">AMainCharacter::OnRep</text>
<text text-anchor="middle" x="398.5" y="-16.5" font-family="Arial" font-size="10.00">_ReplicatedMovement</text>
</a>
</g>
</g>
<!-- Node4&#45;&gt;Node9 -->
<g id="edge9_Node000004_Node000009" class="edge">
<title>Node4&#45;&gt;Node9</title>
<g id="a_edge9_Node000004_Node000009"><a xlink:title=" ">
<path fill="none" stroke="#63b8ff" d="M269.87,-69.6C291.07,-62.36 316.21,-53.77 338.55,-46.14"/>
<polygon fill="#63b8ff" stroke="#63b8ff" points="339.5,-49.51 347.83,-42.97 337.24,-42.89 339.5,-49.51"/>
</a>
</g>
</g>
<!-- Node5&#45;&gt;Node6 -->
<g id="edge5_Node000005_Node000006" class="edge">
<title>Node5&#45;&gt;Node6</title>
<g id="a_edge5_Node000005_Node000006"><a xlink:title=" ">
<path fill="none" stroke="#63b8ff" d="M442.9,-96.43C461.54,-100.91 483.91,-106.28 505.23,-111.4"/>
<polygon fill="#63b8ff" stroke="#63b8ff" points="504.24,-114.77 514.78,-113.7 505.88,-107.96 504.24,-114.77"/>
</a>
</g>
</g>
<!-- Node7 -->
<g id="Node000007" class="node">
<title>Node7</title>
<g id="a_Node000007"><a xlink:href="class_a_main_character.html#a9596fe587a29a2671db7db619b16b46d" target="_top" xlink:title=" ">
<polygon fill="white" stroke="#666666" points="834.5,-64 700.75,-64 700.75,-32 834.5,-32 834.5,-64"/>
<text text-anchor="start" x="708.75" y="-50.5" font-family="Arial" font-size="10.00">AMainCharacter::Calculate</text>
<text text-anchor="middle" x="767.62" y="-38.5" font-family="Arial" font-size="10.00">Speed</text>
</a>
</g>
</g>
<!-- Node5&#45;&gt;Node7 -->
<g id="edge6_Node000005_Node000007" class="edge">
<title>Node5&#45;&gt;Node7</title>
<g id="a_edge6_Node000005_Node000007"><a xlink:title=" ">
<path fill="none" stroke="#63b8ff" d="M466.75,-83.28C520.5,-80.61 597.67,-75.63 664.75,-67 672.72,-65.97 681.02,-64.73 689.28,-63.37"/>
<polygon fill="#63b8ff" stroke="#63b8ff" points="689.73,-66.84 699,-61.71 688.55,-59.94 689.73,-66.84"/>
</a>
</g>
</g>
<!-- Node8 -->
<g id="Node000008" class="node">
<title>Node8</title>
<g id="a_Node000008"><a xlink:href="class_a_main_character.html#a11a0d4e525d8b74552333de269a1e59d" target="_top" xlink:title=" ">
<polygon fill="white" stroke="#666666" points="656.12,-58 511.12,-58 511.12,-38 656.12,-38 656.12,-58"/>
<text text-anchor="middle" x="583.62" y="-44.5" font-family="Arial" font-size="10.00">AMainCharacter::TurnInPlace</text>
</a>
</g>
</g>
<!-- Node5&#45;&gt;Node8 -->
<g id="edge7_Node000005_Node000008" class="edge">
<title>Node5&#45;&gt;Node8</title>
<g id="a_edge7_Node000005_Node000008"><a xlink:title=" ">
<path fill="none" stroke="#63b8ff" d="M450.02,-75.52C472.04,-70.95 498.05,-65.55 521.17,-60.75"/>
<polygon fill="#63b8ff" stroke="#63b8ff" points="521.7,-64.22 530.78,-58.76 520.28,-57.36 521.7,-64.22"/>
</a>
</g>
</g>
<!-- Node10 -->
<g id="Node000010" class="node">
<title>Node10</title>
<g id="a_Node000010"><a xlink:href="class_a_main_character.html#ad664d0ab39058e928e96c8abf84f36bf" target="_top" xlink:title=" ">
<polygon fill="white" stroke="#666666" points="664.75,-20 502.5,-20 502.5,0 664.75,0 664.75,-20"/>
<text text-anchor="middle" x="583.62" y="-6.5" font-family="Arial" font-size="10.00">AMainCharacter::SimProxiesTurn</text>
</a>
</g>
</g>
<!-- Node9&#45;&gt;Node10 -->
<g id="edge10_Node000009_Node000010" class="edge">
<title>Node9&#45;&gt;Node10</title>
<g id="a_edge10_Node000009_Node000010"><a xlink:title=" ">
<path fill="none" stroke="#63b8ff" d="M460.48,-20.67C470.26,-19.82 480.56,-18.92 490.87,-18.02"/>
<polygon fill="#63b8ff" stroke="#63b8ff" points="490.87,-21.53 500.53,-17.17 490.26,-14.56 490.87,-21.53"/>
</a>
</g>
</g>
<!-- Node10&#45;&gt;Node7 -->
<g id="edge11_Node000010_Node000007" class="edge">
<title>Node10&#45;&gt;Node7</title>
<g id="a_edge11_Node000010_Node000007"><a xlink:title=" ">
<path fill="none" stroke="#63b8ff" d="M634.84,-20.48C651.73,-24.01 671,-28.03 689.48,-31.89"/>
<polygon fill="#63b8ff" stroke="#63b8ff" points="688.56,-35.28 699.07,-33.89 689.99,-28.42 688.56,-35.28"/>
</a>
</g>
</g>
</g>
</svg>
