<?xml version="1.0" encoding="UTF-8" standalone="no"?>
<!DOCTYPE svg PUBLIC "-//W3C//DTD SVG 1.1//EN"
 "http://www.w3.org/Graphics/SVG/1.1/DTD/svg11.dtd">
<!-- Generated by graphviz version 12.2.1 (20241206.2353)
 -->
<!-- Title: UMyAnimInstance Pages: 1 -->
<svg width="272pt" height="1193pt"
 viewBox="0.00 0.00 272.12 1193.00" xmlns="http://www.w3.org/2000/svg" xmlns:xlink="http://www.w3.org/1999/xlink">
<g id="graph0" class="graph" transform="scale(1 1) rotate(0) translate(4 1189)">
<title>UMyAnimInstance</title>
<!-- Node1 -->
<g id="Node000001" class="node">
<title>Node1</title>
<g id="a_Node000001"><a xlink:title=" ">
<polygon fill="#999999" stroke="none" points="144,-228 0,-228 0,0 144,0 144,-228"/>
<text text-anchor="start" x="31.5" y="-214.5" font-family="Arial" font-size="10.00">UMyAnimInstance</text>
<text text-anchor="start" x="5.5" y="-198.5" font-family="Arial" font-size="10.00">&#45;</text>
<text text-anchor="start" x="14" y="-198.5" font-family="Arial" font-size="10.00">Speed</text>
<text text-anchor="start" x="5.5" y="-182.5" font-family="Arial" font-size="10.00">&#45;</text>
<text text-anchor="start" x="14" y="-182.5" font-family="Arial" font-size="10.00">bIsInAir</text>
<text text-anchor="start" x="5.5" y="-166.5" font-family="Arial" font-size="10.00">&#45;</text>
<text text-anchor="start" x="14" y="-166.5" font-family="Arial" font-size="10.00">bIsAccelerating</text>
<text text-anchor="start" x="5.5" y="-150.5" font-family="Arial" font-size="10.00">&#45;</text>
<text text-anchor="start" x="14" y="-150.5" font-family="Arial" font-size="10.00">bWeaponEquipped</text>
<text text-anchor="start" x="5.5" y="-134.5" font-family="Arial" font-size="10.00">&#45;</text>
<text text-anchor="start" x="14" y="-134.5" font-family="Arial" font-size="10.00">bIsCrouched</text>
<text text-anchor="start" x="5.5" y="-118.5" font-family="Arial" font-size="10.00">&#45;</text>
<text text-anchor="start" x="14" y="-118.5" font-family="Arial" font-size="10.00">bAiming</text>
<text text-anchor="start" x="5.5" y="-102.5" font-family="Arial" font-size="10.00">&#45;</text>
<text text-anchor="start" x="14" y="-102.5" font-family="Arial" font-size="10.00">YawOffset</text>
<text text-anchor="start" x="5.5" y="-86.5" font-family="Arial" font-size="10.00">&#45;</text>
<text text-anchor="start" x="14" y="-86.5" font-family="Arial" font-size="10.00">Lean</text>
<text text-anchor="start" x="5.5" y="-70.5" font-family="Arial" font-size="10.00">&#45;</text>
<text text-anchor="start" x="14" y="-70.5" font-family="Arial" font-size="10.00">CharacterRotationLastFrame</text>
<text text-anchor="start" x="5.5" y="-54.5" font-family="Arial" font-size="10.00">&#45;</text>
<text text-anchor="start" x="14" y="-54.5" font-family="Arial" font-size="10.00">CharacterRotation</text>
<text text-anchor="start" x="14" y="-38.5" font-family="Arial" font-size="10.00">and 10 more...</text>
<text text-anchor="start" x="4" y="-22.5" font-family="Arial" font-size="10.00">+</text>
<text text-anchor="start" x="14" y="-22.5" font-family="Arial" font-size="10.00">NativeInitializeAnimation()</text>
<text text-anchor="start" x="4" y="-6.5" font-family="Arial" font-size="10.00">+</text>
<text text-anchor="start" x="14" y="-6.5" font-family="Arial" font-size="10.00">NativeUpdateAnimation()</text>
<polygon fill="#666666" stroke="#666666" points="0,-210 0,-210 144,-210 144,-210 0,-210"/>
<polygon fill="#666666" stroke="#666666" points="0,-34 0,-34 12,-34 12,-34 0,-34"/>
<polygon fill="#666666" stroke="#666666" points="12,-34 12,-34 144,-34 144,-34 12,-34"/>
<polygon fill="none" stroke="#666666" points="0,0 0,-228 144,-228 144,0 0,0"/>
</a>
</g>
</g>
<!-- Node2 -->
<g id="Node000002" class="node">
<title>Node2</title>
<g id="a_Node000002"><a xlink:title=" ">
<polygon fill="white" stroke="none" points="93.75,-712 18.25,-712 18.25,-660 93.75,-660 93.75,-712"/>
<text text-anchor="start" x="22.25" y="-698.5" font-family="Arial" font-size="10.00">UAnimInstance</text>
<text text-anchor="start" x="54.5" y="-682.5" font-family="Arial" font-size="10.00"> </text>
<text text-anchor="start" x="54.5" y="-666.5" font-family="Arial" font-size="10.00"> </text>
<polygon fill="#666666" stroke="#666666" points="18.25,-694 18.25,-694 93.75,-694 93.75,-694 18.25,-694"/>
<polygon fill="#666666" stroke="#666666" points="18.25,-678 18.25,-678 93.75,-678 93.75,-678 18.25,-678"/>
<polygon fill="none" stroke="#666666" points="18.25,-660 18.25,-712 93.75,-712 93.75,-660 18.25,-660"/>
</a>
</g>
</g>
<!-- Node2&#45;&gt;Node1 -->
<g id="edge1_Node000001_Node000002" class="edge">
<title>Node2&#45;&gt;Node1</title>
<g id="a_edge1_Node000001_Node000002"><a xlink:title=" ">
<path fill="none" stroke="#63b8ff" d="M57.02,-648.8C59.35,-565.69 65.17,-358.3 68.83,-227.86"/>
<polygon fill="none" stroke="#63b8ff" points="53.52,-648.53 56.74,-658.63 60.52,-648.73 53.52,-648.53"/>
</a>
</g>
</g>
<!-- Node3 -->
<g id="Node000003" class="node">
<title>Node3</title>
<g id="a_Node000003"><a xlink:href="class_a_main_character.html" target="_top" xlink:title=" ">
<polygon fill="white" stroke="none" points="264.12,-1096 111.88,-1096 111.88,-276 264.12,-276 264.12,-1096"/>
<text text-anchor="start" x="152.75" y="-1082.5" font-family="Arial" font-size="10.00">AMainCharacter</text>
<text text-anchor="start" x="115.88" y="-1066.5" font-family="Arial" font-size="10.00">+</text>
<text text-anchor="start" x="125.88" y="-1066.5" font-family="Arial" font-size="10.00">bDisableGameplay</text>
<text text-anchor="start" x="115.88" y="-1050.5" font-family="Arial" font-size="10.00">+</text>
<text text-anchor="start" x="125.88" y="-1050.5" font-family="Arial" font-size="10.00">HitCollisionBoxes</text>
<text text-anchor="start" x="115.88" y="-1034.5" font-family="Arial" font-size="10.00">+</text>
<text text-anchor="start" x="125.88" y="-1034.5" font-family="Arial" font-size="10.00">LagCompensation</text>
<text text-anchor="start" x="115.88" y="-1018.5" font-family="Arial" font-size="10.00">+</text>
<text text-anchor="start" x="125.88" y="-1018.5" font-family="Arial" font-size="10.00">MouseSensitivity</text>
<text text-anchor="start" x="115.88" y="-1002.5" font-family="Arial" font-size="10.00">+</text>
<text text-anchor="start" x="125.88" y="-1002.5" font-family="Arial" font-size="10.00">StarterWeapon</text>
<text text-anchor="start" x="115.88" y="-986.5" font-family="Arial" font-size="10.00">+</text>
<text text-anchor="start" x="125.88" y="-986.5" font-family="Arial" font-size="10.00">FireWeaponMontage</text>
<text text-anchor="start" x="115.88" y="-970.5" font-family="Arial" font-size="10.00">+</text>
<text text-anchor="start" x="125.88" y="-970.5" font-family="Arial" font-size="10.00">HitReactMontage</text>
<text text-anchor="start" x="115.88" y="-954.5" font-family="Arial" font-size="10.00">+</text>
<text text-anchor="start" x="125.88" y="-954.5" font-family="Arial" font-size="10.00">ElimMontage</text>
<text text-anchor="start" x="115.88" y="-938.5" font-family="Arial" font-size="10.00">+</text>
<text text-anchor="start" x="125.88" y="-938.5" font-family="Arial" font-size="10.00">MainPlayerState</text>
<text text-anchor="start" x="115.88" y="-922.5" font-family="Arial" font-size="10.00">+</text>
<text text-anchor="start" x="125.88" y="-922.5" font-family="Arial" font-size="10.00">head</text>
<text text-anchor="start" x="125.88" y="-906.5" font-family="Arial" font-size="10.00">and 15 more...</text>
<text text-anchor="start" x="116.25" y="-890.5" font-family="Arial" font-size="10.00">#</text>
<text text-anchor="start" x="125.88" y="-890.5" font-family="Arial" font-size="10.00">OverlappingWeapon</text>
<text text-anchor="start" x="116.25" y="-874.5" font-family="Arial" font-size="10.00">#</text>
<text text-anchor="start" x="125.88" y="-874.5" font-family="Arial" font-size="10.00">AO_Yaw</text>
<text text-anchor="start" x="116.25" y="-858.5" font-family="Arial" font-size="10.00">#</text>
<text text-anchor="start" x="125.88" y="-858.5" font-family="Arial" font-size="10.00">InterpAO_Yaw</text>
<text text-anchor="start" x="116.25" y="-842.5" font-family="Arial" font-size="10.00">#</text>
<text text-anchor="start" x="125.88" y="-842.5" font-family="Arial" font-size="10.00">AO_Pitch</text>
<text text-anchor="start" x="116.25" y="-826.5" font-family="Arial" font-size="10.00">#</text>
<text text-anchor="start" x="125.88" y="-826.5" font-family="Arial" font-size="10.00">StartingAimRotation</text>
<text text-anchor="start" x="116.25" y="-810.5" font-family="Arial" font-size="10.00">#</text>
<text text-anchor="start" x="125.88" y="-810.5" font-family="Arial" font-size="10.00">TurningInPlace</text>
<text text-anchor="start" x="116.25" y="-794.5" font-family="Arial" font-size="10.00">#</text>
<text text-anchor="start" x="125.88" y="-794.5" font-family="Arial" font-size="10.00">CameraThreshold</text>
<text text-anchor="start" x="116.25" y="-778.5" font-family="Arial" font-size="10.00">#</text>
<text text-anchor="start" x="125.88" y="-778.5" font-family="Arial" font-size="10.00">bRotateRootBone</text>
<text text-anchor="start" x="116.25" y="-762.5" font-family="Arial" font-size="10.00">#</text>
<text text-anchor="start" x="125.88" y="-762.5" font-family="Arial" font-size="10.00">TurnThreshold</text>
<text text-anchor="start" x="116.25" y="-746.5" font-family="Arial" font-size="10.00">#</text>
<text text-anchor="start" x="125.88" y="-746.5" font-family="Arial" font-size="10.00">ProxyRotationLastFrame</text>
<text text-anchor="start" x="125.88" y="-730.5" font-family="Arial" font-size="10.00">and 10 more...</text>
<text text-anchor="start" x="117.38" y="-714.5" font-family="Arial" font-size="10.00">&#45;</text>
<text text-anchor="start" x="125.88" y="-714.5" font-family="Arial" font-size="10.00">CameraBoom</text>
<text text-anchor="start" x="117.38" y="-698.5" font-family="Arial" font-size="10.00">&#45;</text>
<text text-anchor="start" x="125.88" y="-698.5" font-family="Arial" font-size="10.00">FollowCamera</text>
<text text-anchor="start" x="117.38" y="-682.5" font-family="Arial" font-size="10.00">&#45;</text>
<text text-anchor="start" x="125.88" y="-682.5" font-family="Arial" font-size="10.00">OverheadWidget</text>
<text text-anchor="start" x="117.38" y="-666.5" font-family="Arial" font-size="10.00">&#45;</text>
<text text-anchor="start" x="125.88" y="-666.5" font-family="Arial" font-size="10.00">Combat</text>
<text text-anchor="start" x="117.38" y="-650.5" font-family="Arial" font-size="10.00">&#45;</text>
<text text-anchor="start" x="125.88" y="-650.5" font-family="Arial" font-size="10.00">Buff</text>
<text text-anchor="start" x="117.38" y="-634.5" font-family="Arial" font-size="10.00">&#45;</text>
<text text-anchor="start" x="125.88" y="-634.5" font-family="Arial" font-size="10.00">Chat</text>
<text text-anchor="start" x="115.88" y="-618.5" font-family="Arial" font-size="10.00">+</text>
<text text-anchor="start" x="125.88" y="-618.5" font-family="Arial" font-size="10.00">AMainCharacter()</text>
<text text-anchor="start" x="115.88" y="-602.5" font-family="Arial" font-size="10.00">+</text>
<text text-anchor="start" x="125.88" y="-602.5" font-family="Arial" font-size="10.00">Tick()</text>
<text text-anchor="start" x="115.88" y="-586.5" font-family="Arial" font-size="10.00">+</text>
<text text-anchor="start" x="125.88" y="-586.5" font-family="Arial" font-size="10.00">SetupPlayerInputComponent()</text>
<text text-anchor="start" x="115.88" y="-570.5" font-family="Arial" font-size="10.00">+</text>
<text text-anchor="start" x="125.88" y="-570.5" font-family="Arial" font-size="10.00">GetLifetimeReplicatedProps()</text>
<text text-anchor="start" x="115.88" y="-554.5" font-family="Arial" font-size="10.00">+</text>
<text text-anchor="start" x="125.88" y="-554.5" font-family="Arial" font-size="10.00">PostInitializeComponents()</text>
<text text-anchor="start" x="115.88" y="-538.5" font-family="Arial" font-size="10.00">+</text>
<text text-anchor="start" x="125.88" y="-538.5" font-family="Arial" font-size="10.00">MulticastFire()</text>
<text text-anchor="start" x="115.88" y="-522.5" font-family="Arial" font-size="10.00">+</text>
<text text-anchor="start" x="125.88" y="-522.5" font-family="Arial" font-size="10.00">OnRep_ReplicatedMovement()</text>
<text text-anchor="start" x="115.88" y="-506.5" font-family="Arial" font-size="10.00">+</text>
<text text-anchor="start" x="125.88" y="-506.5" font-family="Arial" font-size="10.00">Elim()</text>
<text text-anchor="start" x="115.88" y="-490.5" font-family="Arial" font-size="10.00">+</text>
<text text-anchor="start" x="125.88" y="-490.5" font-family="Arial" font-size="10.00">Multicast_Elim()</text>
<text text-anchor="start" x="115.88" y="-474.5" font-family="Arial" font-size="10.00">+</text>
<text text-anchor="start" x="125.88" y="-474.5" font-family="Arial" font-size="10.00">UpdateHUDHealth()</text>
<text text-anchor="start" x="125.88" y="-458.5" font-family="Arial" font-size="10.00">and 21 more...</text>
<text text-anchor="start" x="116.25" y="-442.5" font-family="Arial" font-size="10.00">#</text>
<text text-anchor="start" x="125.88" y="-442.5" font-family="Arial" font-size="10.00">BeginPlay()</text>
<text text-anchor="start" x="116.25" y="-426.5" font-family="Arial" font-size="10.00">#</text>
<text text-anchor="start" x="125.88" y="-426.5" font-family="Arial" font-size="10.00">MoveForward()</text>
<text text-anchor="start" x="116.25" y="-410.5" font-family="Arial" font-size="10.00">#</text>
<text text-anchor="start" x="125.88" y="-410.5" font-family="Arial" font-size="10.00">MoveRight()</text>
<text text-anchor="start" x="116.25" y="-394.5" font-family="Arial" font-size="10.00">#</text>
<text text-anchor="start" x="125.88" y="-394.5" font-family="Arial" font-size="10.00">Turn()</text>
<text text-anchor="start" x="116.25" y="-378.5" font-family="Arial" font-size="10.00">#</text>
<text text-anchor="start" x="125.88" y="-378.5" font-family="Arial" font-size="10.00">LookUp()</text>
<text text-anchor="start" x="116.25" y="-362.5" font-family="Arial" font-size="10.00">#</text>
<text text-anchor="start" x="125.88" y="-362.5" font-family="Arial" font-size="10.00">EquipButtonPressed()</text>
<text text-anchor="start" x="116.25" y="-346.5" font-family="Arial" font-size="10.00">#</text>
<text text-anchor="start" x="125.88" y="-346.5" font-family="Arial" font-size="10.00">CrouchButtonPressed()</text>
<text text-anchor="start" x="116.25" y="-330.5" font-family="Arial" font-size="10.00">#</text>
<text text-anchor="start" x="125.88" y="-330.5" font-family="Arial" font-size="10.00">AimButtonPressed()</text>
<text text-anchor="start" x="116.25" y="-314.5" font-family="Arial" font-size="10.00">#</text>
<text text-anchor="start" x="125.88" y="-314.5" font-family="Arial" font-size="10.00">AimButtonReleased()</text>
<text text-anchor="start" x="116.25" y="-298.5" font-family="Arial" font-size="10.00">#</text>
<text text-anchor="start" x="125.88" y="-298.5" font-family="Arial" font-size="10.00">AimOffset()</text>
<text text-anchor="start" x="125.88" y="-282.5" font-family="Arial" font-size="10.00">and 19 more...</text>
<polygon fill="#666666" stroke="#666666" points="111.88,-1078 111.88,-1078 264.12,-1078 264.12,-1078 111.88,-1078"/>
<polygon fill="#666666" stroke="#666666" points="111.88,-630 111.88,-630 123.88,-630 123.88,-630 111.88,-630"/>
<polygon fill="#666666" stroke="#666666" points="123.88,-630 123.88,-630 264.12,-630 264.12,-630 123.88,-630"/>
<polygon fill="none" stroke="#666666" points="111.88,-276 111.88,-1096 264.12,-1096 264.12,-276 111.88,-276"/>
</a>
</g>
</g>
<!-- Node3&#45;&gt;Node1 -->
<g id="edge2_Node000001_Node000003" class="edge">
<title>Node3&#45;&gt;Node1</title>
<g id="a_edge2_Node000001_Node000003"><a xlink:title=" ">
<path fill="none" stroke="#63b8ff" d="M111.92,-311.16C106.87,-286.34 102.02,-262.52 97.55,-240.56"/>
<polygon fill="none" stroke="#63b8ff" points="97.54,-240.49 92.42,-235.41 95.15,-228.73 100.26,-233.82 97.54,-240.49"/>
</a>
</g>
<text text-anchor="middle" x="134.91" y="-248.5" font-family="Arial" font-size="10.00" fill="grey"> &#45;MainCharacter</text>
</g>
<!-- Node4 -->
<g id="Node000004" class="node">
<title>Node4</title>
<g id="a_Node000004"><a xlink:title=" ">
<polygon fill="white" stroke="none" points="216.75,-1185 159.25,-1185 159.25,-1133 216.75,-1133 216.75,-1185"/>
<text text-anchor="start" x="163.25" y="-1171.5" font-family="Arial" font-size="10.00">ACharacter</text>
<text text-anchor="start" x="186.5" y="-1155.5" font-family="Arial" font-size="10.00"> </text>
<text text-anchor="start" x="186.5" y="-1139.5" font-family="Arial" font-size="10.00"> </text>
<polygon fill="#666666" stroke="#666666" points="159.25,-1167 159.25,-1167 216.75,-1167 216.75,-1167 159.25,-1167"/>
<polygon fill="#666666" stroke="#666666" points="159.25,-1151 159.25,-1151 216.75,-1151 216.75,-1151 159.25,-1151"/>
<polygon fill="none" stroke="#666666" points="159.25,-1133 159.25,-1185 216.75,-1185 216.75,-1133 159.25,-1133"/>
</a>
</g>
</g>
<!-- Node4&#45;&gt;Node3 -->
<g id="edge3_Node000003_Node000004" class="edge">
<title>Node4&#45;&gt;Node3</title>
<g id="a_edge3_Node000003_Node000004"><a xlink:title=" ">
<path fill="none" stroke="#63b8ff" d="M188,-1121.53C188,-1113.9 188,-1105.26 188,-1095.78"/>
<polygon fill="none" stroke="#63b8ff" points="184.5,-1121.5 188,-1131.5 191.5,-1121.5 184.5,-1121.5"/>
</a>
</g>
</g>
</g>
</svg>
