<?xml version="1.0" encoding="UTF-8" standalone="no"?>
<!DOCTYPE svg PUBLIC "-//W3C//DTD SVG 1.1//EN"
 "http://www.w3.org/Graphics/SVG/1.1/DTD/svg11.dtd">
<!-- Generated by graphviz version 12.2.1 (20241206.2353)
 -->
<!-- Title: MultiplayerShooter/HUD/Announcement.h Pages: 1 -->
<svg width="413pt" height="120pt"
 viewBox="0.00 0.00 412.75 120.00" xmlns="http://www.w3.org/2000/svg" xmlns:xlink="http://www.w3.org/1999/xlink">
<g id="graph0" class="graph" transform="scale(1 1) rotate(0) translate(4 116)">
<title>MultiplayerShooter/HUD/Announcement.h</title>
<!-- Node1 -->
<g id="Node000001" class="node">
<title>Node1</title>
<g id="a_Node000001"><a xlink:title=" ">
<polygon fill="#999999" stroke="#666666" points="259.25,-112 141.25,-112 141.25,-80 259.25,-80 259.25,-112"/>
<text text-anchor="start" x="149.25" y="-98.5" font-family="Arial" font-size="10.00">MultiplayerShooter</text>
<text text-anchor="middle" x="200.25" y="-86.5" font-family="Arial" font-size="10.00">/HUD/Announcement.h</text>
</a>
</g>
</g>
<!-- Node2 -->
<g id="Node000002" class="node">
<title>Node2</title>
<g id="a_Node000002"><a xlink:href="_announcement_8cpp.html" target="_top" xlink:title=" ">
<polygon fill="white" stroke="#666666" points="128.5,-38 0,-38 0,-6 128.5,-6 128.5,-38"/>
<text text-anchor="start" x="8" y="-24.5" font-family="Arial" font-size="10.00">MultiplayerShooter</text>
<text text-anchor="middle" x="64.25" y="-12.5" font-family="Arial" font-size="10.00">/HUD/Announcement.cpp</text>
</a>
</g>
</g>
<!-- Node1&#45;&gt;Node2 -->
<g id="edge1_Node000001_Node000002" class="edge">
<title>Node1&#45;&gt;Node2</title>
<g id="a_edge1_Node000001_Node000002"><a xlink:title=" ">
<path fill="none" stroke="#63b8ff" d="M160.92,-74.18C139.36,-62.76 113.09,-48.85 93.38,-38.42"/>
<polygon fill="#63b8ff" stroke="#63b8ff" points="159.26,-77.26 169.74,-78.85 162.54,-71.07 159.26,-77.26"/>
</a>
</g>
</g>
<!-- Node3 -->
<g id="Node000003" class="node">
<title>Node3</title>
<g id="a_Node000003"><a xlink:href="_main_h_u_d_8cpp.html" target="_top" xlink:title=" ">
<polygon fill="white" stroke="#666666" points="253.62,-38 146.88,-38 146.88,-6 253.62,-6 253.62,-38"/>
<text text-anchor="start" x="154.88" y="-24.5" font-family="Arial" font-size="10.00">MultiplayerShooter</text>
<text text-anchor="middle" x="200.25" y="-12.5" font-family="Arial" font-size="10.00">/HUD/MainHUD.cpp</text>
</a>
</g>
</g>
<!-- Node1&#45;&gt;Node3 -->
<g id="edge2_Node000001_Node000003" class="edge">
<title>Node1&#45;&gt;Node3</title>
<g id="a_edge2_Node000001_Node000003"><a xlink:title=" ">
<path fill="none" stroke="#63b8ff" d="M200.25,-68.49C200.25,-58.3 200.25,-47.03 200.25,-38.25"/>
<polygon fill="#63b8ff" stroke="#63b8ff" points="196.75,-68.22 200.25,-78.22 203.75,-68.22 196.75,-68.22"/>
</a>
</g>
</g>
<!-- Node4 -->
<g id="Node000004" class="node">
<title>Node4</title>
<g id="a_Node000004"><a xlink:href="_my_player_controller_8cpp.html" target="_top" xlink:title=" ">
<polygon fill="white" stroke="#666666" points="404.75,-44 271.75,-44 271.75,0 404.75,0 404.75,-44"/>
<text text-anchor="start" x="279.75" y="-30.5" font-family="Arial" font-size="10.00">MultiplayerShooter</text>
<text text-anchor="start" x="279.75" y="-18.5" font-family="Arial" font-size="10.00">/PlayerController/MyPlayer</text>
<text text-anchor="middle" x="338.25" y="-6.5" font-family="Arial" font-size="10.00">Controller.cpp</text>
</a>
</g>
</g>
<!-- Node1&#45;&gt;Node4 -->
<g id="edge3_Node000001_Node000004" class="edge">
<title>Node1&#45;&gt;Node4</title>
<g id="a_edge3_Node000001_Node000004"><a xlink:title=" ">
<path fill="none" stroke="#63b8ff" d="M239.99,-74.27C257.92,-64.91 279.09,-53.87 297.18,-44.43"/>
<polygon fill="#63b8ff" stroke="#63b8ff" points="238.44,-71.13 231.2,-78.85 241.68,-77.33 238.44,-71.13"/>
</a>
</g>
</g>
</g>
</svg>
