<?xml version="1.0" encoding="UTF-8" standalone="no"?>
<!DOCTYPE svg PUBLIC "-//W3C//DTD SVG 1.1//EN"
 "http://www.w3.org/Graphics/SVG/1.1/DTD/svg11.dtd">
<!-- Generated by graphviz version 12.2.1 (20241206.2353)
 -->
<!-- Title: MultiplayerShooter/HUD/Announcement.h Pages: 1 -->
<svg width="375pt" height="96pt"
 viewBox="0.00 0.00 375.12 96.00" xmlns="http://www.w3.org/2000/svg" xmlns:xlink="http://www.w3.org/1999/xlink">
<g id="graph0" class="graph" transform="scale(1 1) rotate(0) translate(4 92)">
<title>MultiplayerShooter/HUD/Announcement.h</title>
<!-- Node1 -->
<g id="Node000001" class="node">
<title>Node1</title>
<g id="a_Node000001"><a xlink:title=" ">
<polygon fill="#999999" stroke="#666666" points="214.5,-88 96.5,-88 96.5,-56 214.5,-56 214.5,-88"/>
<text text-anchor="start" x="104.5" y="-74.5" font-family="Arial" font-size="10.00">MultiplayerShooter</text>
<text text-anchor="middle" x="155.5" y="-62.5" font-family="Arial" font-size="10.00">/HUD/Announcement.h</text>
</a>
</g>
</g>
<!-- Node2 -->
<g id="Node000002" class="node">
<title>Node2</title>
<g id="a_Node000002"><a xlink:title=" ">
<polygon fill="#e0e0e0" stroke="#999999" points="79,-20 0,-20 0,0 79,0 79,-20"/>
<text text-anchor="middle" x="39.5" y="-6.5" font-family="Arial" font-size="10.00">CoreMinimal.h</text>
</a>
</g>
</g>
<!-- Node1&#45;&gt;Node2 -->
<g id="edge1_Node000001_Node000002" class="edge">
<title>Node1&#45;&gt;Node2</title>
<g id="a_edge1_Node000001_Node000002"><a xlink:title=" ">
<path fill="none" stroke="#63b8ff" d="M125.63,-55.55C107.84,-46.35 85.39,-34.74 67.87,-25.68"/>
<polygon fill="#63b8ff" stroke="#63b8ff" points="69.52,-22.59 59.03,-21.1 66.31,-28.81 69.52,-22.59"/>
</a>
</g>
</g>
<!-- Node3 -->
<g id="Node000003" class="node">
<title>Node3</title>
<g id="a_Node000003"><a xlink:title=" ">
<polygon fill="#e0e0e0" stroke="#999999" points="214.12,-20 96.88,-20 96.88,0 214.12,0 214.12,-20"/>
<text text-anchor="middle" x="155.5" y="-6.5" font-family="Arial" font-size="10.00">Blueprint/UserWidget.h</text>
</a>
</g>
</g>
<!-- Node1&#45;&gt;Node3 -->
<g id="edge2_Node000001_Node000003" class="edge">
<title>Node1&#45;&gt;Node3</title>
<g id="a_edge2_Node000001_Node000003"><a xlink:title=" ">
<path fill="none" stroke="#63b8ff" d="M155.5,-55.55C155.5,-48.34 155.5,-39.66 155.5,-31.88"/>
<polygon fill="#63b8ff" stroke="#63b8ff" points="159,-31.92 155.5,-21.92 152,-31.92 159,-31.92"/>
</a>
</g>
</g>
<!-- Node4 -->
<g id="Node000004" class="node">
<title>Node4</title>
<g id="a_Node000004"><a xlink:title=" ">
<polygon fill="#e0e0e0" stroke="#999999" points="367.12,-20 231.88,-20 231.88,0 367.12,0 367.12,-20"/>
<text text-anchor="middle" x="299.5" y="-6.5" font-family="Arial" font-size="10.00">Announcement.generated.h</text>
</a>
</g>
</g>
<!-- Node1&#45;&gt;Node4 -->
<g id="edge3_Node000001_Node000004" class="edge">
<title>Node1&#45;&gt;Node4</title>
<g id="a_edge3_Node000001_Node000004"><a xlink:title=" ">
<path fill="none" stroke="#63b8ff" d="M192.58,-55.55C215.4,-46.04 244.38,-33.97 266.41,-24.79"/>
<polygon fill="#63b8ff" stroke="#63b8ff" points="267.64,-28.07 275.52,-20.99 264.95,-21.61 267.64,-28.07"/>
</a>
</g>
</g>
</g>
</svg>
