<?xml version="1.0" encoding="UTF-8" standalone="no"?>
<!DOCTYPE svg PUBLIC "-//W3C//DTD SVG 1.1//EN"
 "http://www.w3.org/Graphics/SVG/1.1/DTD/svg11.dtd">
<!-- Generated by graphviz version 12.2.1 (20241206.2353)
 -->
<!-- Title: MultiplayerShooter/BaseWeapon/BaseWeapon.cpp Pages: 1 -->
<svg width="2785pt" height="312pt"
 viewBox="0.00 0.00 2785.25 312.00" xmlns="http://www.w3.org/2000/svg" xmlns:xlink="http://www.w3.org/1999/xlink">
<g id="graph0" class="graph" transform="scale(1 1) rotate(0) translate(4 308)">
<title>MultiplayerShooter/BaseWeapon/BaseWeapon.cpp</title>
<!-- Node1 -->
<g id="Node000001" class="node">
<title>Node1</title>
<g id="a_Node000001"><a xlink:title=" ">
<polygon fill="#999999" stroke="#666666" points="2153,-304 1996.75,-304 1996.75,-272 2153,-272 2153,-304"/>
<text text-anchor="start" x="2004.75" y="-290.5" font-family="Arial" font-size="10.00">MultiplayerShooter</text>
<text text-anchor="middle" x="2074.88" y="-278.5" font-family="Arial" font-size="10.00">/BaseWeapon/BaseWeapon.cpp</text>
</a>
</g>
</g>
<!-- Node2 -->
<g id="Node000002" class="node">
<title>Node2</title>
<g id="a_Node000002"><a xlink:href="_base_weapon_8h.html" target="_top" xlink:title=" ">
<polygon fill="white" stroke="#666666" points="1638.88,-224 1556.88,-224 1556.88,-204 1638.88,-204 1638.88,-224"/>
<text text-anchor="middle" x="1597.88" y="-210.5" font-family="Arial" font-size="10.00">BaseWeapon.h</text>
</a>
</g>
</g>
<!-- Node1&#45;&gt;Node2 -->
<g id="edge1_Node000001_Node000002" class="edge">
<title>Node1&#45;&gt;Node2</title>
<g id="a_edge1_Node000001_Node000002"><a xlink:title=" ">
<path fill="none" stroke="#63b8ff" d="M1996.52,-284.17C1909.93,-279.55 1766.98,-267.46 1647.88,-236 1641.11,-234.21 1634.06,-231.69 1627.46,-229.02"/>
<polygon fill="#63b8ff" stroke="#63b8ff" points="1628.86,-225.81 1618.3,-225.07 1626.09,-232.24 1628.86,-225.81"/>
</a>
</g>
</g>
<!-- Node6 -->
<g id="Node000006" class="node">
<title>Node6</title>
<g id="a_Node000006"><a xlink:title=" ">
<polygon fill="#e0e0e0" stroke="#999999" points="1820.75,-224 1657,-224 1657,-204 1820.75,-204 1820.75,-224"/>
<text text-anchor="middle" x="1738.88" y="-210.5" font-family="Arial" font-size="10.00">Components/SphereComponent.h</text>
</a>
</g>
</g>
<!-- Node1&#45;&gt;Node6 -->
<g id="edge5_Node000001_Node000006" class="edge">
<title>Node1&#45;&gt;Node6</title>
<g id="a_edge5_Node000001_Node000006"><a xlink:title=" ">
<path fill="none" stroke="#63b8ff" d="M1998.36,-271.51C1950,-261.62 1886.21,-248.36 1829.88,-236 1817.01,-233.18 1803.15,-230.03 1790.22,-227.05"/>
<polygon fill="#63b8ff" stroke="#63b8ff" points="1791.16,-223.68 1780.62,-224.83 1789.58,-230.5 1791.16,-223.68"/>
</a>
</g>
</g>
<!-- Node7 -->
<g id="Node000007" class="node">
<title>Node7</title>
<g id="a_Node000007"><a xlink:title=" ">
<polygon fill="#e0e0e0" stroke="#999999" points="2002.75,-224 1839,-224 1839,-204 2002.75,-204 2002.75,-224"/>
<text text-anchor="middle" x="1920.88" y="-210.5" font-family="Arial" font-size="10.00">Components/WidgetComponent.h</text>
</a>
</g>
</g>
<!-- Node1&#45;&gt;Node7 -->
<g id="edge6_Node000001_Node000007" class="edge">
<title>Node1&#45;&gt;Node7</title>
<g id="a_edge6_Node000001_Node000007"><a xlink:title=" ">
<path fill="none" stroke="#63b8ff" d="M2041.84,-271.55C2014.96,-258.99 1977.34,-241.4 1951.22,-229.19"/>
<polygon fill="#63b8ff" stroke="#63b8ff" points="1953.05,-226.18 1942.5,-225.11 1950.08,-232.52 1953.05,-226.18"/>
</a>
</g>
</g>
<!-- Node8 -->
<g id="Node000008" class="node">
<title>Node8</title>
<g id="a_Node000008"><a xlink:href="_main_character_8h.html" target="_top" xlink:title=" ">
<polygon fill="white" stroke="#666666" points="656.75,-230 499,-230 499,-198 656.75,-198 656.75,-230"/>
<text text-anchor="start" x="507" y="-216.5" font-family="Arial" font-size="10.00">MultiplayerShooter</text>
<text text-anchor="middle" x="577.88" y="-204.5" font-family="Arial" font-size="10.00">/MainCharacter/MainCharacter.h</text>
</a>
</g>
</g>
<!-- Node1&#45;&gt;Node8 -->
<g id="edge7_Node000001_Node000008" class="edge">
<title>Node1&#45;&gt;Node8</title>
<g id="a_edge7_Node000001_Node000008"><a xlink:title=" ">
<path fill="none" stroke="#63b8ff" d="M1996.5,-283.23C1741.92,-270.99 939.08,-232.37 668.17,-219.34"/>
<polygon fill="#63b8ff" stroke="#63b8ff" points="668.5,-215.85 658.34,-218.87 668.16,-222.85 668.5,-215.85"/>
</a>
</g>
</g>
<!-- Node21 -->
<g id="Node000021" class="node">
<title>Node21</title>
<g id="a_Node000021"><a xlink:title=" ">
<polygon fill="#e0e0e0" stroke="#999999" points="2129,-224 2020.75,-224 2020.75,-204 2129,-204 2129,-224"/>
<text text-anchor="middle" x="2074.88" y="-210.5" font-family="Arial" font-size="10.00">Net/UnrealNetwork.h</text>
</a>
</g>
</g>
<!-- Node1&#45;&gt;Node21 -->
<g id="edge25_Node000001_Node000021" class="edge">
<title>Node1&#45;&gt;Node21</title>
<g id="a_edge25_Node000001_Node000021"><a xlink:title=" ">
<path fill="none" stroke="#63b8ff" d="M2074.88,-271.73C2074.88,-261.18 2074.88,-247.03 2074.88,-235.5"/>
<polygon fill="#63b8ff" stroke="#63b8ff" points="2078.38,-235.82 2074.88,-225.82 2071.38,-235.82 2078.38,-235.82"/>
</a>
</g>
</g>
<!-- Node22 -->
<g id="Node000022" class="node">
<title>Node22</title>
<g id="a_Node000022"><a xlink:title=" ">
<polygon fill="#e0e0e0" stroke="#999999" points="2255,-224 2146.75,-224 2146.75,-204 2255,-204 2255,-224"/>
<text text-anchor="middle" x="2200.88" y="-210.5" font-family="Arial" font-size="10.00">NiagaraComponent.h</text>
</a>
</g>
</g>
<!-- Node1&#45;&gt;Node22 -->
<g id="edge26_Node000001_Node000022" class="edge">
<title>Node1&#45;&gt;Node22</title>
<g id="a_edge26_Node000001_Node000022"><a xlink:title=" ">
<path fill="none" stroke="#63b8ff" d="M2101.91,-271.55C2123.31,-259.32 2153.04,-242.33 2174.32,-230.17"/>
<polygon fill="#63b8ff" stroke="#63b8ff" points="2176.04,-233.22 2182.99,-225.22 2172.57,-227.14 2176.04,-233.22"/>
</a>
</g>
</g>
<!-- Node23 -->
<g id="Node000023" class="node">
<title>Node23</title>
<g id="a_Node000023"><a xlink:title=" ">
<polygon fill="#e0e0e0" stroke="#999999" points="2364.75,-224 2273,-224 2273,-204 2364.75,-204 2364.75,-224"/>
<text text-anchor="middle" x="2318.88" y="-210.5" font-family="Arial" font-size="10.00">NiagaraSystem.h</text>
</a>
</g>
</g>
<!-- Node1&#45;&gt;Node23 -->
<g id="edge27_Node000001_Node000023" class="edge">
<title>Node1&#45;&gt;Node23</title>
<g id="a_edge27_Node000001_Node000023"><a xlink:title=" ">
<path fill="none" stroke="#63b8ff" d="M2138.35,-271.58C2175.25,-262.19 2222.5,-249.44 2263.88,-236 2270.83,-233.74 2278.19,-231.1 2285.19,-228.48"/>
<polygon fill="#63b8ff" stroke="#63b8ff" points="2286.28,-231.81 2294.36,-224.96 2283.77,-225.27 2286.28,-231.81"/>
</a>
</g>
</g>
<!-- Node24 -->
<g id="Node000024" class="node">
<title>Node24</title>
<g id="a_Node000024"><a xlink:title=" ">
<polygon fill="#e0e0e0" stroke="#999999" points="2506.88,-224 2382.88,-224 2382.88,-204 2506.88,-204 2506.88,-224"/>
<text text-anchor="middle" x="2444.88" y="-210.5" font-family="Arial" font-size="10.00">NiagaraFunctionLibrary.h</text>
</a>
</g>
</g>
<!-- Node1&#45;&gt;Node24 -->
<g id="edge28_Node000001_Node000024" class="edge">
<title>Node1&#45;&gt;Node24</title>
<g id="a_edge28_Node000001_Node000024"><a xlink:title=" ">
<path fill="none" stroke="#63b8ff" d="M2153.45,-276.2C2214.05,-267.25 2299.76,-253.22 2373.88,-236 2383.97,-233.65 2394.75,-230.7 2404.79,-227.76"/>
<polygon fill="#63b8ff" stroke="#63b8ff" points="2405.7,-231.14 2414.27,-224.91 2403.69,-224.44 2405.7,-231.14"/>
</a>
</g>
</g>
<!-- Node25 -->
<g id="Node000025" class="node">
<title>Node25</title>
<g id="a_Node000025"><a xlink:title=" ">
<polygon fill="#e0e0e0" stroke="#999999" points="2658.38,-224 2525.38,-224 2525.38,-204 2658.38,-204 2658.38,-224"/>
<text text-anchor="middle" x="2591.88" y="-210.5" font-family="Arial" font-size="10.00">Kismet/GameplayStatics.h</text>
</a>
</g>
</g>
<!-- Node1&#45;&gt;Node25 -->
<g id="edge29_Node000001_Node000025" class="edge">
<title>Node1&#45;&gt;Node25</title>
<g id="a_edge29_Node000001_Node000025"><a xlink:title=" ">
<path fill="none" stroke="#63b8ff" d="M2153.1,-281.62C2241.7,-274.68 2390.1,-260.5 2515.88,-236 2527.36,-233.76 2539.65,-230.68 2550.93,-227.56"/>
<polygon fill="#63b8ff" stroke="#63b8ff" points="2551.69,-230.98 2560.35,-224.88 2549.77,-224.25 2551.69,-230.98"/>
</a>
</g>
</g>
<!-- Node26 -->
<g id="Node000026" class="node">
<title>Node26</title>
<g id="a_Node000026"><a xlink:href="_my_player_controller_8h.html" target="_top" xlink:title=" ">
<polygon fill="white" stroke="#666666" points="1512.38,-236 1379.38,-236 1379.38,-192 1512.38,-192 1512.38,-236"/>
<text text-anchor="start" x="1387.38" y="-222.5" font-family="Arial" font-size="10.00">MultiplayerShooter</text>
<text text-anchor="start" x="1387.38" y="-210.5" font-family="Arial" font-size="10.00">/PlayerController/MyPlayer</text>
<text text-anchor="middle" x="1445.88" y="-198.5" font-family="Arial" font-size="10.00">Controller.h</text>
</a>
</g>
</g>
<!-- Node1&#45;&gt;Node26 -->
<g id="edge30_Node000001_Node000026" class="edge">
<title>Node1&#45;&gt;Node26</title>
<g id="a_edge30_Node000001_Node000026"><a xlink:title=" ">
<path fill="none" stroke="#63b8ff" d="M1996.43,-282.03C1893.19,-274.89 1706.25,-259.9 1547.88,-236 1540.01,-234.81 1531.83,-233.41 1523.69,-231.91"/>
<polygon fill="#63b8ff" stroke="#63b8ff" points="1524.59,-228.52 1514.12,-230.09 1523.29,-235.4 1524.59,-228.52"/>
</a>
</g>
</g>
<!-- Node30 -->
<g id="Node000030" class="node">
<title>Node30</title>
<g id="a_Node000030"><a xlink:title=" ">
<polygon fill="#e0e0e0" stroke="#999999" points="2777.25,-224 2676.5,-224 2676.5,-204 2777.25,-204 2777.25,-224"/>
<text text-anchor="middle" x="2726.88" y="-210.5" font-family="Arial" font-size="10.00">Sound/SoundCue.h</text>
</a>
</g>
</g>
<!-- Node1&#45;&gt;Node30 -->
<g id="edge35_Node000001_Node000030" class="edge">
<title>Node1&#45;&gt;Node30</title>
<g id="a_edge35_Node000001_Node000030"><a xlink:title=" ">
<path fill="none" stroke="#63b8ff" d="M2153.05,-286.61C2267.39,-284.63 2486.37,-275.42 2667.88,-236 2676.52,-234.12 2685.63,-231.32 2694.03,-228.36"/>
<polygon fill="#63b8ff" stroke="#63b8ff" points="2694.99,-231.74 2703.16,-224.99 2692.56,-225.18 2694.99,-231.74"/>
</a>
</g>
</g>
<!-- Node3 -->
<g id="Node000003" class="node">
<title>Node3</title>
<g id="a_Node000003"><a xlink:title=" ">
<polygon fill="#e0e0e0" stroke="#999999" points="1061.38,-20 982.38,-20 982.38,0 1061.38,0 1061.38,-20"/>
<text text-anchor="middle" x="1021.88" y="-6.5" font-family="Arial" font-size="10.00">CoreMinimal.h</text>
</a>
</g>
</g>
<!-- Node2&#45;&gt;Node3 -->
<g id="edge2_Node000002_Node000003" class="edge">
<title>Node2&#45;&gt;Node3</title>
<g id="a_edge2_Node000002_Node000003"><a xlink:title=" ">
<path fill="none" stroke="#63b8ff" d="M1595.65,-203.68C1591.1,-186.29 1579.32,-148.46 1557.88,-124 1519.99,-80.78 1502.26,-74.6 1447.88,-56 1379.66,-32.68 1170.45,-18.87 1072.92,-13.54"/>
<polygon fill="#63b8ff" stroke="#63b8ff" points="1073.28,-10.06 1063.11,-13.02 1072.9,-17.05 1073.28,-10.06"/>
</a>
</g>
</g>
<!-- Node4 -->
<g id="Node000004" class="node">
<title>Node4</title>
<g id="a_Node000004"><a xlink:title=" ">
<polygon fill="#e0e0e0" stroke="#999999" points="1897.62,-150 1772.12,-150 1772.12,-130 1897.62,-130 1897.62,-150"/>
<text text-anchor="middle" x="1834.88" y="-136.5" font-family="Arial" font-size="10.00">GameFramework/Actor.h</text>
</a>
</g>
</g>
<!-- Node2&#45;&gt;Node4 -->
<g id="edge3_Node000002_Node000004" class="edge">
<title>Node2&#45;&gt;Node4</title>
<g id="a_edge3_Node000002_Node000004"><a xlink:title=" ">
<path fill="none" stroke="#63b8ff" d="M1618.56,-203.59C1627.48,-199.73 1638.08,-195.37 1647.88,-192 1693.05,-176.43 1745.63,-162.44 1783.52,-153.07"/>
<polygon fill="#63b8ff" stroke="#63b8ff" points="1783.93,-156.57 1792.81,-150.8 1782.27,-149.77 1783.93,-156.57"/>
</a>
</g>
</g>
<!-- Node5 -->
<g id="Node000005" class="node">
<title>Node5</title>
<g id="a_Node000005"><a xlink:title=" ">
<polygon fill="#e0e0e0" stroke="#999999" points="1753.75,-150 1626,-150 1626,-130 1753.75,-130 1753.75,-150"/>
<text text-anchor="middle" x="1689.88" y="-136.5" font-family="Arial" font-size="10.00">BaseWeapon.generated.h</text>
</a>
</g>
</g>
<!-- Node2&#45;&gt;Node5 -->
<g id="edge4_Node000002_Node000005" class="edge">
<title>Node2&#45;&gt;Node5</title>
<g id="a_edge4_Node000002_Node000005"><a xlink:title=" ">
<path fill="none" stroke="#63b8ff" d="M1609.9,-203.59C1624.85,-191.89 1650.6,-171.73 1668.84,-157.46"/>
<polygon fill="#63b8ff" stroke="#63b8ff" points="1670.93,-160.27 1676.65,-151.35 1666.62,-154.75 1670.93,-160.27"/>
</a>
</g>
</g>
<!-- Node8&#45;&gt;Node3 -->
<g id="edge8_Node000008_Node000003" class="edge">
<title>Node8&#45;&gt;Node3</title>
<g id="a_edge8_Node000008_Node000003"><a xlink:title=" ">
<path fill="none" stroke="#63b8ff" d="M586.87,-197.8C593.39,-186.48 602.2,-170.54 608.88,-156 628.72,-112.8 609.42,-85.28 646.88,-56 696.12,-17.5 879.99,-11.39 970.66,-10.77"/>
<polygon fill="#63b8ff" stroke="#63b8ff" points="970.53,-14.27 980.51,-10.73 970.5,-7.27 970.53,-14.27"/>
</a>
</g>
</g>
<!-- Node9 -->
<g id="Node000009" class="node">
<title>Node9</title>
<g id="a_Node000009"><a xlink:title=" ">
<polygon fill="#e0e0e0" stroke="#999999" points="296.38,-150 151.38,-150 151.38,-130 296.38,-130 296.38,-150"/>
<text text-anchor="middle" x="223.88" y="-136.5" font-family="Arial" font-size="10.00">GameFramework/Character.h</text>
</a>
</g>
</g>
<!-- Node8&#45;&gt;Node9 -->
<g id="edge9_Node000008_Node000009" class="edge">
<title>Node8&#45;&gt;Node9</title>
<g id="a_edge9_Node000008_Node000009"><a xlink:title=" ">
<path fill="none" stroke="#63b8ff" d="M501.93,-197.55C435.9,-184.12 341.64,-164.95 281.61,-152.74"/>
<polygon fill="#63b8ff" stroke="#63b8ff" points="282.42,-149.34 271.92,-150.77 281.03,-156.2 282.42,-149.34"/>
</a>
</g>
</g>
<!-- Node10 -->
<g id="Node000010" class="node">
<title>Node10</title>
<g id="a_Node000010"><a xlink:href="_turning_in_place_8h.html" target="_top" xlink:title=" ">
<polygon fill="white" stroke="#666666" points="435.75,-156 314,-156 314,-124 435.75,-124 435.75,-156"/>
<text text-anchor="start" x="322" y="-142.5" font-family="Arial" font-size="10.00">MultiplayerShooter</text>
<text text-anchor="middle" x="374.88" y="-130.5" font-family="Arial" font-size="10.00">/Types/TurningInPlace.h</text>
</a>
</g>
</g>
<!-- Node8&#45;&gt;Node10 -->
<g id="edge10_Node000008_Node000010" class="edge">
<title>Node8&#45;&gt;Node10</title>
<g id="a_edge10_Node000008_Node000010"><a xlink:title=" ">
<path fill="none" stroke="#63b8ff" d="M534.33,-197.55C503.55,-186.64 462.09,-171.93 429.16,-160.26"/>
<polygon fill="#63b8ff" stroke="#63b8ff" points="430.37,-156.97 419.78,-156.93 428.03,-163.57 430.37,-156.97"/>
</a>
</g>
</g>
<!-- Node11 -->
<g id="Node000011" class="node">
<title>Node11</title>
<g id="a_Node000011"><a xlink:title=" ">
<polygon fill="#e0e0e0" stroke="#999999" points="600.12,-150 453.62,-150 453.62,-130 600.12,-130 600.12,-150"/>
<text text-anchor="middle" x="526.88" y="-136.5" font-family="Arial" font-size="10.00">Camera/CameraComponent.h</text>
</a>
</g>
</g>
<!-- Node8&#45;&gt;Node11 -->
<g id="edge11_Node000008_Node000011" class="edge">
<title>Node8&#45;&gt;Node11</title>
<g id="a_edge11_Node000008_Node000011"><a xlink:title=" ">
<path fill="none" stroke="#63b8ff" d="M567.06,-197.73C559.19,-186.62 548.49,-171.51 540.11,-159.68"/>
<polygon fill="#63b8ff" stroke="#63b8ff" points="542.98,-157.68 534.35,-151.55 537.27,-161.73 542.98,-157.68"/>
</a>
</g>
</g>
<!-- Node12 -->
<g id="Node000012" class="node">
<title>Node12</title>
<g id="a_Node000012"><a xlink:href="_buff_component_8h.html" target="_top" xlink:title=" ">
<polygon fill="white" stroke="#666666" points="1044.12,-156 867.62,-156 867.62,-124 1044.12,-124 1044.12,-156"/>
<text text-anchor="start" x="875.62" y="-142.5" font-family="Arial" font-size="10.00">MultiplayerShooter</text>
<text text-anchor="middle" x="955.88" y="-130.5" font-family="Arial" font-size="10.00">/ActorComponents/BuffComponent.h</text>
</a>
</g>
</g>
<!-- Node8&#45;&gt;Node12 -->
<g id="edge12_Node000008_Node000012" class="edge">
<title>Node8&#45;&gt;Node12</title>
<g id="a_edge12_Node000008_Node000012"><a xlink:title=" ">
<path fill="none" stroke="#63b8ff" d="M657.12,-197.91C717.36,-186.43 800.38,-170.62 863.62,-158.57"/>
<polygon fill="#63b8ff" stroke="#63b8ff" points="864.13,-162.04 873.3,-156.73 862.82,-155.16 864.13,-162.04"/>
</a>
</g>
</g>
<!-- Node15 -->
<g id="Node000015" class="node">
<title>Node15</title>
<g id="a_Node000015"><a xlink:href="_combat_component_8h.html" target="_top" xlink:title=" ">
<polygon fill="white" stroke="#666666" points="849.75,-156 656,-156 656,-124 849.75,-124 849.75,-156"/>
<text text-anchor="start" x="664" y="-142.5" font-family="Arial" font-size="10.00">MultiplayerShooter</text>
<text text-anchor="middle" x="752.88" y="-130.5" font-family="Arial" font-size="10.00">/ActorComponents/CombatComponent.h</text>
</a>
</g>
</g>
<!-- Node8&#45;&gt;Node15 -->
<g id="edge16_Node000008_Node000015" class="edge">
<title>Node8&#45;&gt;Node15</title>
<g id="a_edge16_Node000008_Node000015"><a xlink:title=" ">
<path fill="none" stroke="#63b8ff" d="M615.42,-197.55C641.6,-186.78 676.76,-172.32 704.96,-160.71"/>
<polygon fill="#63b8ff" stroke="#63b8ff" points="706.08,-164.04 714,-157 703.42,-157.56 706.08,-164.04"/>
</a>
</g>
</g>
<!-- Node20 -->
<g id="Node000020" class="node">
<title>Node20</title>
<g id="a_Node000020"><a xlink:title=" ">
<polygon fill="#e0e0e0" stroke="#999999" points="133.75,-150 0,-150 0,-130 133.75,-130 133.75,-150"/>
<text text-anchor="middle" x="66.88" y="-136.5" font-family="Arial" font-size="10.00">MainCharacter.generated.h</text>
</a>
</g>
</g>
<!-- Node8&#45;&gt;Node20 -->
<g id="edge24_Node000008_Node000020" class="edge">
<title>Node8&#45;&gt;Node20</title>
<g id="a_edge24_Node000008_Node000020"><a xlink:title=" ">
<path fill="none" stroke="#63b8ff" d="M498.88,-204.29C411.35,-194.27 266.15,-176.53 141.88,-156 135.58,-154.96 129.01,-153.78 122.48,-152.56"/>
<polygon fill="#63b8ff" stroke="#63b8ff" points="123.57,-149.2 113.09,-150.74 122.24,-156.07 123.57,-149.2"/>
</a>
</g>
</g>
<!-- Node12&#45;&gt;Node3 -->
<g id="edge13_Node000012_Node000003" class="edge">
<title>Node12&#45;&gt;Node3</title>
<g id="a_edge13_Node000012_Node000003"><a xlink:title=" ">
<path fill="none" stroke="#63b8ff" d="M1044.51,-124.88C1105.68,-114.22 1177.62,-99.53 1186.88,-88 1221.19,-45.28 1133.4,-25.11 1073.12,-16.54"/>
<polygon fill="#63b8ff" stroke="#63b8ff" points="1073.72,-13.09 1063.35,-15.23 1072.79,-20.03 1073.72,-13.09"/>
</a>
</g>
</g>
<!-- Node13 -->
<g id="Node000013" class="node">
<title>Node13</title>
<g id="a_Node000013"><a xlink:title=" ">
<polygon fill="#e0e0e0" stroke="#999999" points="1022,-82 865.75,-82 865.75,-62 1022,-62 1022,-82"/>
<text text-anchor="middle" x="943.88" y="-68.5" font-family="Arial" font-size="10.00">Components/ActorComponent.h</text>
</a>
</g>
</g>
<!-- Node12&#45;&gt;Node13 -->
<g id="edge14_Node000012_Node000013" class="edge">
<title>Node12&#45;&gt;Node13</title>
<g id="a_edge14_Node000012_Node000013"><a xlink:title=" ">
<path fill="none" stroke="#63b8ff" d="M953.09,-123.69C951.46,-114.7 949.37,-103.21 947.59,-93.44"/>
<polygon fill="#63b8ff" stroke="#63b8ff" points="951.07,-93.02 945.84,-83.81 944.18,-94.27 951.07,-93.02"/>
</a>
</g>
</g>
<!-- Node14 -->
<g id="Node000014" class="node">
<title>Node14</title>
<g id="a_Node000014"><a xlink:title=" ">
<polygon fill="#e0e0e0" stroke="#999999" points="1177.62,-82 1040.12,-82 1040.12,-62 1177.62,-62 1177.62,-82"/>
<text text-anchor="middle" x="1108.88" y="-68.5" font-family="Arial" font-size="10.00">BuffComponent.generated.h</text>
</a>
</g>
</g>
<!-- Node12&#45;&gt;Node14 -->
<g id="edge15_Node000012_Node000014" class="edge">
<title>Node12&#45;&gt;Node14</title>
<g id="a_edge15_Node000012_Node000014"><a xlink:title=" ">
<path fill="none" stroke="#63b8ff" d="M991.75,-123.53C1017.44,-112.44 1051.76,-97.64 1076.6,-86.92"/>
<polygon fill="#63b8ff" stroke="#63b8ff" points="1077.76,-90.23 1085.56,-83.06 1074.99,-83.81 1077.76,-90.23"/>
</a>
</g>
</g>
<!-- Node15&#45;&gt;Node3 -->
<g id="edge17_Node000015_Node000003" class="edge">
<title>Node15&#45;&gt;Node3</title>
<g id="a_edge17_Node000015_Node000003"><a xlink:title=" ">
<path fill="none" stroke="#63b8ff" d="M773.27,-123.59C786.4,-113.59 803.77,-100.18 818.88,-88 836.06,-74.14 837.32,-66.26 856.88,-56 892.78,-37.17 937.33,-25.62 971.09,-18.95"/>
<polygon fill="#63b8ff" stroke="#63b8ff" points="971.43,-22.44 980.61,-17.15 970.13,-15.57 971.43,-22.44"/>
</a>
</g>
</g>
<!-- Node15&#45;&gt;Node13 -->
<g id="edge18_Node000015_Node000013" class="edge">
<title>Node15&#45;&gt;Node13</title>
<g id="a_edge18_Node000015_Node000013"><a xlink:title=" ">
<path fill="none" stroke="#63b8ff" d="M797.66,-123.53C830.46,-112.19 874.5,-96.97 905.65,-86.21"/>
<polygon fill="#63b8ff" stroke="#63b8ff" points="906.76,-89.53 915.07,-82.95 904.47,-82.91 906.76,-89.53"/>
</a>
</g>
</g>
<!-- Node16 -->
<g id="Node000016" class="node">
<title>Node16</title>
<g id="a_Node000016"><a xlink:href="_main_h_u_d_8h.html" target="_top" xlink:title=" ">
<polygon fill="white" stroke="#666666" points="599.38,-88 502.38,-88 502.38,-56 599.38,-56 599.38,-88"/>
<text text-anchor="start" x="510.38" y="-74.5" font-family="Arial" font-size="10.00">MultiplayerShooter</text>
<text text-anchor="middle" x="550.88" y="-62.5" font-family="Arial" font-size="10.00">/HUD/MainHUD.h</text>
</a>
</g>
</g>
<!-- Node15&#45;&gt;Node16 -->
<g id="edge19_Node000015_Node000016" class="edge">
<title>Node15&#45;&gt;Node16</title>
<g id="a_edge19_Node000015_Node000016"><a xlink:title=" ">
<path fill="none" stroke="#63b8ff" d="M705.51,-123.53C676.62,-114.09 639.47,-101.95 608.83,-91.94"/>
<polygon fill="#63b8ff" stroke="#63b8ff" points="610.32,-88.74 599.73,-88.96 608.15,-95.39 610.32,-88.74"/>
</a>
</g>
</g>
<!-- Node19 -->
<g id="Node000019" class="node">
<title>Node19</title>
<g id="a_Node000019"><a xlink:title=" ">
<polygon fill="#e0e0e0" stroke="#999999" points="810.25,-82 655.5,-82 655.5,-62 810.25,-62 810.25,-82"/>
<text text-anchor="middle" x="732.88" y="-68.5" font-family="Arial" font-size="10.00">CombatComponent.generated.h</text>
</a>
</g>
</g>
<!-- Node15&#45;&gt;Node19 -->
<g id="edge23_Node000015_Node000019" class="edge">
<title>Node15&#45;&gt;Node19</title>
<g id="a_edge23_Node000015_Node000019"><a xlink:title=" ">
<path fill="none" stroke="#63b8ff" d="M748.24,-123.69C745.48,-114.6 741.95,-102.95 738.97,-93.12"/>
<polygon fill="#63b8ff" stroke="#63b8ff" points="742.39,-92.32 736.14,-83.76 735.69,-94.35 742.39,-92.32"/>
</a>
</g>
</g>
<!-- Node16&#45;&gt;Node3 -->
<g id="edge20_Node000016_Node000003" class="edge">
<title>Node16&#45;&gt;Node3</title>
<g id="a_edge20_Node000016_Node000003"><a xlink:title=" ">
<path fill="none" stroke="#63b8ff" d="M599.59,-58.77C604.4,-57.75 609.22,-56.81 613.88,-56 741.27,-33.9 893.03,-20.52 970.62,-14.6"/>
<polygon fill="#63b8ff" stroke="#63b8ff" points="970.75,-18.1 980.46,-13.86 970.23,-11.12 970.75,-18.1"/>
</a>
</g>
</g>
<!-- Node17 -->
<g id="Node000017" class="node">
<title>Node17</title>
<g id="a_Node000017"><a xlink:title=" ">
<polygon fill="#e0e0e0" stroke="#999999" points="545.25,-20 420.5,-20 420.5,0 545.25,0 545.25,-20"/>
<text text-anchor="middle" x="482.88" y="-6.5" font-family="Arial" font-size="10.00">GameFramework/HUD.h</text>
</a>
</g>
</g>
<!-- Node16&#45;&gt;Node17 -->
<g id="edge21_Node000016_Node000017" class="edge">
<title>Node16&#45;&gt;Node17</title>
<g id="a_edge21_Node000016_Node000017"><a xlink:title=" ">
<path fill="none" stroke="#63b8ff" d="M533.36,-55.55C523.72,-47.04 511.75,-36.48 501.88,-27.77"/>
<polygon fill="#63b8ff" stroke="#63b8ff" points="504.49,-25.4 494.67,-21.41 499.86,-30.65 504.49,-25.4"/>
</a>
</g>
</g>
<!-- Node18 -->
<g id="Node000018" class="node">
<title>Node18</title>
<g id="a_Node000018"><a xlink:title=" ">
<polygon fill="#e0e0e0" stroke="#999999" points="676.62,-20 563.12,-20 563.12,0 676.62,0 676.62,-20"/>
<text text-anchor="middle" x="619.88" y="-6.5" font-family="Arial" font-size="10.00">MainHUD.generated.h</text>
</a>
</g>
</g>
<!-- Node16&#45;&gt;Node18 -->
<g id="edge22_Node000016_Node000018" class="edge">
<title>Node16&#45;&gt;Node18</title>
<g id="a_edge22_Node000016_Node000018"><a xlink:title=" ">
<path fill="none" stroke="#63b8ff" d="M568.64,-55.55C578.43,-47.04 590.58,-36.48 600.59,-27.77"/>
<polygon fill="#63b8ff" stroke="#63b8ff" points="602.66,-30.6 607.91,-21.4 598.07,-25.32 602.66,-30.6"/>
</a>
</g>
</g>
<!-- Node26&#45;&gt;Node3 -->
<g id="edge31_Node000026_Node000003" class="edge">
<title>Node26&#45;&gt;Node3</title>
<g id="a_edge31_Node000026_Node000003"><a xlink:title=" ">
<path fill="none" stroke="#63b8ff" d="M1495.9,-191.53C1528.46,-174.51 1561.36,-149.43 1540.88,-124 1482.36,-51.38 1192.32,-22.97 1073.14,-14.25"/>
<polygon fill="#63b8ff" stroke="#63b8ff" points="1073.55,-10.77 1063.33,-13.55 1073.05,-17.75 1073.55,-10.77"/>
</a>
</g>
</g>
<!-- Node27 -->
<g id="Node000027" class="node">
<title>Node27</title>
<g id="a_Node000027"><a xlink:title=" ">
<polygon fill="#e0e0e0" stroke="#999999" points="1531.88,-150 1359.88,-150 1359.88,-130 1531.88,-130 1531.88,-150"/>
<text text-anchor="middle" x="1445.88" y="-136.5" font-family="Arial" font-size="10.00">GameFramework/PlayerController.h</text>
</a>
</g>
</g>
<!-- Node26&#45;&gt;Node27 -->
<g id="edge32_Node000026_Node000027" class="edge">
<title>Node26&#45;&gt;Node27</title>
<g id="a_edge32_Node000026_Node000027"><a xlink:title=" ">
<path fill="none" stroke="#63b8ff" d="M1445.88,-191.79C1445.88,-182.32 1445.88,-171.2 1445.88,-161.78"/>
<polygon fill="#63b8ff" stroke="#63b8ff" points="1449.38,-161.82 1445.88,-151.82 1442.38,-161.82 1449.38,-161.82"/>
</a>
</g>
</g>
<!-- Node28 -->
<g id="Node000028" class="node">
<title>Node28</title>
<g id="a_Node000028"><a xlink:title=" ">
<polygon fill="#e0e0e0" stroke="#999999" points="1170,-150 1061.75,-150 1061.75,-130 1170,-130 1170,-150"/>
<text text-anchor="middle" x="1115.88" y="-136.5" font-family="Arial" font-size="10.00">Sound/SoundClass.h</text>
</a>
</g>
</g>
<!-- Node26&#45;&gt;Node28 -->
<g id="edge33_Node000026_Node000028" class="edge">
<title>Node26&#45;&gt;Node28</title>
<g id="a_edge33_Node000026_Node000028"><a xlink:title=" ">
<path fill="none" stroke="#63b8ff" d="M1379.12,-199.2C1325.05,-187.92 1246.96,-171.37 1178.88,-156 1174.62,-155.04 1170.2,-154.02 1165.77,-152.99"/>
<polygon fill="#63b8ff" stroke="#63b8ff" points="1166.83,-149.65 1156.3,-150.77 1165.23,-156.46 1166.83,-149.65"/>
</a>
</g>
</g>
<!-- Node29 -->
<g id="Node000029" class="node">
<title>Node29</title>
<g id="a_Node000029"><a xlink:title=" ">
<polygon fill="#e0e0e0" stroke="#999999" points="1341.5,-150 1188.25,-150 1188.25,-130 1341.5,-130 1341.5,-150"/>
<text text-anchor="middle" x="1264.88" y="-136.5" font-family="Arial" font-size="10.00">MyPlayerController.generated.h</text>
</a>
</g>
</g>
<!-- Node26&#45;&gt;Node29 -->
<g id="edge34_Node000026_Node000029" class="edge">
<title>Node26&#45;&gt;Node29</title>
<g id="a_edge34_Node000026_Node000029"><a xlink:title=" ">
<path fill="none" stroke="#63b8ff" d="M1392.06,-191.59C1361.97,-179.62 1325.37,-165.06 1299.17,-154.64"/>
<polygon fill="#63b8ff" stroke="#63b8ff" points="1300.62,-151.45 1290.03,-151.01 1298.03,-157.96 1300.62,-151.45"/>
</a>
</g>
</g>
</g>
</svg>
