<?xml version="1.0" encoding="UTF-8" standalone="no"?>
<!DOCTYPE svg PUBLIC "-//W3C//DTD SVG 1.1//EN"
 "http://www.w3.org/Graphics/SVG/1.1/DTD/svg11.dtd">
<!-- Generated by graphviz version 12.2.1 (20241206.2353)
 -->
<!-- Title: MultiplayerShooter/ActorComponents/ChatComponent.cpp Pages: 1 -->
<svg width="1223pt" height="164pt"
 viewBox="0.00 0.00 1222.62 164.00" xmlns="http://www.w3.org/2000/svg" xmlns:xlink="http://www.w3.org/1999/xlink">
<g id="graph0" class="graph" transform="scale(1 1) rotate(0) translate(4 160)">
<title>MultiplayerShooter/ActorComponents/ChatComponent.cpp</title>
<!-- Node1 -->
<g id="Node000001" class="node">
<title>Node1</title>
<g id="a_Node000001"><a xlink:title=" ">
<polygon fill="#999999" stroke="#666666" points="851.5,-156 660.75,-156 660.75,-124 851.5,-124 851.5,-156"/>
<text text-anchor="start" x="668.75" y="-142.5" font-family="Arial" font-size="10.00">MultiplayerShooter</text>
<text text-anchor="middle" x="756.12" y="-130.5" font-family="Arial" font-size="10.00">/ActorComponents/ChatComponent.cpp</text>
</a>
</g>
</g>
<!-- Node2 -->
<g id="Node000002" class="node">
<title>Node2</title>
<g id="a_Node000002"><a xlink:href="_chat_component_8h.html" target="_top" xlink:title=" ">
<polygon fill="white" stroke="#666666" points="283.88,-82 188.38,-82 188.38,-62 283.88,-62 283.88,-82"/>
<text text-anchor="middle" x="236.12" y="-68.5" font-family="Arial" font-size="10.00">ChatComponent.h</text>
</a>
</g>
</g>
<!-- Node1&#45;&gt;Node2 -->
<g id="edge1_Node000001_Node000002" class="edge">
<title>Node1&#45;&gt;Node2</title>
<g id="a_edge1_Node000001_Node000002"><a xlink:title=" ">
<path fill="none" stroke="#63b8ff" d="M660.64,-132.62C566.6,-125.37 419.15,-111.39 293.12,-88 288.78,-87.19 284.28,-86.23 279.79,-85.19"/>
<polygon fill="#63b8ff" stroke="#63b8ff" points="280.81,-81.84 270.26,-82.84 279.13,-88.63 280.81,-81.84"/>
</a>
</g>
</g>
<!-- Node6 -->
<g id="Node000006" class="node">
<title>Node6</title>
<g id="a_Node000006"><a xlink:title=" ">
<polygon fill="#e0e0e0" stroke="#999999" points="474.12,-82 302.12,-82 302.12,-62 474.12,-62 474.12,-82"/>
<text text-anchor="middle" x="388.12" y="-68.5" font-family="Arial" font-size="10.00">GameFramework/PlayerController.h</text>
</a>
</g>
</g>
<!-- Node1&#45;&gt;Node6 -->
<g id="edge5_Node000001_Node000006" class="edge">
<title>Node1&#45;&gt;Node6</title>
<g id="a_edge5_Node000001_Node000006"><a xlink:title=" ">
<path fill="none" stroke="#63b8ff" d="M669.85,-123.53C603.19,-111.57 512.42,-95.29 452.13,-84.48"/>
<polygon fill="#63b8ff" stroke="#63b8ff" points="452.82,-81.05 442.36,-82.73 451.59,-87.94 452.82,-81.05"/>
</a>
</g>
</g>
<!-- Node7 -->
<g id="Node000007" class="node">
<title>Node7</title>
<g id="a_Node000007"><a xlink:href="_main_h_u_d_8h.html" target="_top" xlink:title=" ">
<polygon fill="white" stroke="#666666" points="589.62,-88 492.62,-88 492.62,-56 589.62,-56 589.62,-88"/>
<text text-anchor="start" x="500.62" y="-74.5" font-family="Arial" font-size="10.00">MultiplayerShooter</text>
<text text-anchor="middle" x="541.12" y="-62.5" font-family="Arial" font-size="10.00">/HUD/MainHUD.h</text>
</a>
</g>
</g>
<!-- Node1&#45;&gt;Node7 -->
<g id="edge6_Node000001_Node000007" class="edge">
<title>Node1&#45;&gt;Node7</title>
<g id="a_edge6_Node000001_Node000007"><a xlink:title=" ">
<path fill="none" stroke="#63b8ff" d="M705.72,-123.53C674.38,-113.91 633.93,-101.49 600.97,-91.37"/>
<polygon fill="#63b8ff" stroke="#63b8ff" points="602.14,-88.07 591.55,-88.48 600.09,-94.76 602.14,-88.07"/>
</a>
</g>
</g>
<!-- Node10 -->
<g id="Node000010" class="node">
<title>Node10</title>
<g id="a_Node000010"><a xlink:href="_chat_message_widget_8h.html" target="_top" xlink:title=" ">
<polygon fill="white" stroke="#666666" points="752.25,-88 608,-88 608,-56 752.25,-56 752.25,-88"/>
<text text-anchor="start" x="616" y="-74.5" font-family="Arial" font-size="10.00">MultiplayerShooter</text>
<text text-anchor="middle" x="680.12" y="-62.5" font-family="Arial" font-size="10.00">/HUD/ChatMessageWidget.h</text>
</a>
</g>
</g>
<!-- Node1&#45;&gt;Node10 -->
<g id="edge10_Node000001_Node000010" class="edge">
<title>Node1&#45;&gt;Node10</title>
<g id="a_edge10_Node000001_Node000010"><a xlink:title=" ">
<path fill="none" stroke="#63b8ff" d="M738.5,-123.69C728.97,-115.42 717.03,-105.05 706.43,-95.84"/>
<polygon fill="#63b8ff" stroke="#63b8ff" points="708.91,-93.36 699.06,-89.45 704.32,-98.65 708.91,-93.36"/>
</a>
</g>
</g>
<!-- Node13 -->
<g id="Node000013" class="node">
<title>Node13</title>
<g id="a_Node000013"><a xlink:title=" ">
<polygon fill="#e0e0e0" stroke="#999999" points="895.5,-82 770.75,-82 770.75,-62 895.5,-62 895.5,-82"/>
<text text-anchor="middle" x="833.12" y="-68.5" font-family="Arial" font-size="10.00">Components/ScrollBox.h</text>
</a>
</g>
</g>
<!-- Node1&#45;&gt;Node13 -->
<g id="edge14_Node000001_Node000013" class="edge">
<title>Node1&#45;&gt;Node13</title>
<g id="a_edge14_Node000001_Node000013"><a xlink:title=" ">
<path fill="none" stroke="#63b8ff" d="M773.98,-123.69C785.88,-113.5 801.51,-100.1 813.71,-89.64"/>
<polygon fill="#63b8ff" stroke="#63b8ff" points="815.79,-92.47 821.11,-83.3 811.24,-87.15 815.79,-92.47"/>
</a>
</g>
</g>
<!-- Node14 -->
<g id="Node000014" class="node">
<title>Node14</title>
<g id="a_Node000014"><a xlink:title=" ">
<polygon fill="#e0e0e0" stroke="#999999" points="995.12,-82 913.12,-82 913.12,-62 995.12,-62 995.12,-82"/>
<text text-anchor="middle" x="954.12" y="-68.5" font-family="Arial" font-size="10.00">Engine/World.h</text>
</a>
</g>
</g>
<!-- Node1&#45;&gt;Node14 -->
<g id="edge15_Node000001_Node000014" class="edge">
<title>Node1&#45;&gt;Node14</title>
<g id="a_edge15_Node000001_Node000014"><a xlink:title=" ">
<path fill="none" stroke="#63b8ff" d="M802.55,-123.53C836.7,-112.14 882.61,-96.84 914.92,-86.07"/>
<polygon fill="#63b8ff" stroke="#63b8ff" points="915.93,-89.42 924.31,-82.94 913.72,-82.78 915.93,-89.42"/>
</a>
</g>
</g>
<!-- Node15 -->
<g id="Node000015" class="node">
<title>Node15</title>
<g id="a_Node000015"><a xlink:title=" ">
<polygon fill="#e0e0e0" stroke="#999999" points="1099.38,-82 1012.88,-82 1012.88,-62 1099.38,-62 1099.38,-82"/>
<text text-anchor="middle" x="1056.12" y="-68.5" font-family="Arial" font-size="10.00">TimerManager.h</text>
</a>
</g>
</g>
<!-- Node1&#45;&gt;Node15 -->
<g id="edge16_Node000001_Node000015" class="edge">
<title>Node1&#45;&gt;Node15</title>
<g id="a_edge16_Node000001_Node000015"><a xlink:title=" ">
<path fill="none" stroke="#63b8ff" d="M839.44,-123.55C887.74,-114.17 949.6,-101.45 1004.12,-88 1007.29,-87.22 1010.55,-86.38 1013.83,-85.5"/>
<polygon fill="#63b8ff" stroke="#63b8ff" points="1014.72,-88.88 1023.43,-82.84 1012.85,-82.14 1014.72,-88.88"/>
</a>
</g>
</g>
<!-- Node16 -->
<g id="Node000016" class="node">
<title>Node16</title>
<g id="a_Node000016"><a xlink:href="_chat_8h.html" target="_top" xlink:title=" ">
<polygon fill="white" stroke="#666666" points="1214.62,-88 1117.62,-88 1117.62,-56 1214.62,-56 1214.62,-88"/>
<text text-anchor="start" x="1125.62" y="-74.5" font-family="Arial" font-size="10.00">MultiplayerShooter</text>
<text text-anchor="middle" x="1166.12" y="-62.5" font-family="Arial" font-size="10.00">/HUD/Chat.h</text>
</a>
</g>
</g>
<!-- Node1&#45;&gt;Node16 -->
<g id="edge17_Node000001_Node000016" class="edge">
<title>Node1&#45;&gt;Node16</title>
<g id="a_edge17_Node000001_Node000016"><a xlink:title=" ">
<path fill="none" stroke="#63b8ff" d="M851.85,-128C920.14,-119.48 1014.31,-106.39 1106,-88.3"/>
<polygon fill="#63b8ff" stroke="#63b8ff" points="1106.56,-91.75 1115.68,-86.36 1105.19,-84.89 1106.56,-91.75"/>
</a>
</g>
</g>
<!-- Node3 -->
<g id="Node000003" class="node">
<title>Node3</title>
<g id="a_Node000003"><a xlink:title=" ">
<polygon fill="#e0e0e0" stroke="#999999" points="694.62,-20 615.62,-20 615.62,0 694.62,0 694.62,-20"/>
<text text-anchor="middle" x="655.12" y="-6.5" font-family="Arial" font-size="10.00">CoreMinimal.h</text>
</a>
</g>
</g>
<!-- Node2&#45;&gt;Node3 -->
<g id="edge2_Node000002_Node000003" class="edge">
<title>Node2&#45;&gt;Node3</title>
<g id="a_edge2_Node000002_Node000003"><a xlink:title=" ">
<path fill="none" stroke="#63b8ff" d="M268.8,-61.54C276.71,-59.49 285.18,-57.49 293.12,-56 427.67,-30.72 466.28,-40.43 604.35,-20.32"/>
<polygon fill="#63b8ff" stroke="#63b8ff" points="604.48,-23.84 613.85,-18.91 603.45,-16.91 604.48,-23.84"/>
</a>
</g>
</g>
<!-- Node4 -->
<g id="Node000004" class="node">
<title>Node4</title>
<g id="a_Node000004"><a xlink:title=" ">
<polygon fill="#e0e0e0" stroke="#999999" points="156.25,-20 0,-20 0,0 156.25,0 156.25,-20"/>
<text text-anchor="middle" x="78.12" y="-6.5" font-family="Arial" font-size="10.00">Components/ActorComponent.h</text>
</a>
</g>
</g>
<!-- Node2&#45;&gt;Node4 -->
<g id="edge3_Node000002_Node000004" class="edge">
<title>Node2&#45;&gt;Node4</title>
<g id="a_edge3_Node000002_Node000004"><a xlink:title=" ">
<path fill="none" stroke="#63b8ff" d="M211.44,-61.62C185.08,-51.62 143.08,-35.67 113.28,-24.35"/>
<polygon fill="#63b8ff" stroke="#63b8ff" points="114.91,-21.22 104.31,-20.95 112.42,-27.77 114.91,-21.22"/>
</a>
</g>
</g>
<!-- Node5 -->
<g id="Node000005" class="node">
<title>Node5</title>
<g id="a_Node000005"><a xlink:title=" ">
<polygon fill="#e0e0e0" stroke="#999999" points="315.75,-20 174.5,-20 174.5,0 315.75,0 315.75,-20"/>
<text text-anchor="middle" x="245.12" y="-6.5" font-family="Arial" font-size="10.00">ChatComponent.generated.h</text>
</a>
</g>
</g>
<!-- Node2&#45;&gt;Node5 -->
<g id="edge4_Node000002_Node000005" class="edge">
<title>Node2&#45;&gt;Node5</title>
<g id="a_edge4_Node000002_Node000005"><a xlink:title=" ">
<path fill="none" stroke="#63b8ff" d="M237.53,-61.62C238.74,-53.56 240.53,-41.65 242.06,-31.41"/>
<polygon fill="#63b8ff" stroke="#63b8ff" points="245.51,-32.02 243.53,-21.61 238.59,-30.98 245.51,-32.02"/>
</a>
</g>
</g>
<!-- Node7&#45;&gt;Node3 -->
<g id="edge7_Node000007_Node000003" class="edge">
<title>Node7&#45;&gt;Node3</title>
<g id="a_edge7_Node000007_Node000003"><a xlink:title=" ">
<path fill="none" stroke="#63b8ff" d="M570.48,-55.55C587.97,-46.35 610.03,-34.74 627.24,-25.68"/>
<polygon fill="#63b8ff" stroke="#63b8ff" points="628.69,-28.87 635.91,-21.11 625.43,-22.67 628.69,-28.87"/>
</a>
</g>
</g>
<!-- Node8 -->
<g id="Node000008" class="node">
<title>Node8</title>
<g id="a_Node000008"><a xlink:title=" ">
<polygon fill="#e0e0e0" stroke="#999999" points="466.5,-20 341.75,-20 341.75,0 466.5,0 466.5,-20"/>
<text text-anchor="middle" x="404.12" y="-6.5" font-family="Arial" font-size="10.00">GameFramework/HUD.h</text>
</a>
</g>
</g>
<!-- Node7&#45;&gt;Node8 -->
<g id="edge8_Node000007_Node000008" class="edge">
<title>Node7&#45;&gt;Node8</title>
<g id="a_edge8_Node000007_Node000008"><a xlink:title=" ">
<path fill="none" stroke="#63b8ff" d="M505.84,-55.55C484.24,-46.09 456.82,-34.08 435.89,-24.91"/>
<polygon fill="#63b8ff" stroke="#63b8ff" points="437.56,-21.82 426.99,-21.02 434.75,-28.23 437.56,-21.82"/>
</a>
</g>
</g>
<!-- Node9 -->
<g id="Node000009" class="node">
<title>Node9</title>
<g id="a_Node000009"><a xlink:title=" ">
<polygon fill="#e0e0e0" stroke="#999999" points="597.88,-20 484.38,-20 484.38,0 597.88,0 597.88,-20"/>
<text text-anchor="middle" x="541.12" y="-6.5" font-family="Arial" font-size="10.00">MainHUD.generated.h</text>
</a>
</g>
</g>
<!-- Node7&#45;&gt;Node9 -->
<g id="edge9_Node000007_Node000009" class="edge">
<title>Node7&#45;&gt;Node9</title>
<g id="a_edge9_Node000007_Node000009"><a xlink:title=" ">
<path fill="none" stroke="#63b8ff" d="M541.12,-55.55C541.12,-48.34 541.12,-39.66 541.12,-31.88"/>
<polygon fill="#63b8ff" stroke="#63b8ff" points="544.63,-31.92 541.13,-21.92 537.63,-31.92 544.63,-31.92"/>
</a>
</g>
</g>
<!-- Node10&#45;&gt;Node3 -->
<g id="edge11_Node000010_Node000003" class="edge">
<title>Node10&#45;&gt;Node3</title>
<g id="a_edge11_Node000010_Node000003"><a xlink:title=" ">
<path fill="none" stroke="#63b8ff" d="M673.69,-55.55C670.54,-48 666.72,-38.82 663.36,-30.77"/>
<polygon fill="#63b8ff" stroke="#63b8ff" points="666.7,-29.69 659.63,-21.81 660.24,-32.38 666.7,-29.69"/>
</a>
</g>
</g>
<!-- Node11 -->
<g id="Node000011" class="node">
<title>Node11</title>
<g id="a_Node000011"><a xlink:title=" ">
<polygon fill="#e0e0e0" stroke="#999999" points="1055.75,-20 938.5,-20 938.5,0 1055.75,0 1055.75,-20"/>
<text text-anchor="middle" x="997.12" y="-6.5" font-family="Arial" font-size="10.00">Blueprint/UserWidget.h</text>
</a>
</g>
</g>
<!-- Node10&#45;&gt;Node11 -->
<g id="edge12_Node000010_Node000011" class="edge">
<title>Node10&#45;&gt;Node11</title>
<g id="a_edge12_Node000010_Node000011"><a xlink:title=" ">
<path fill="none" stroke="#63b8ff" d="M752.45,-57.31C807.95,-46.81 883.7,-32.47 936.15,-22.54"/>
<polygon fill="#63b8ff" stroke="#63b8ff" points="936.64,-26.01 945.81,-20.71 935.34,-19.13 936.64,-26.01"/>
</a>
</g>
</g>
<!-- Node12 -->
<g id="Node000012" class="node">
<title>Node12</title>
<g id="a_Node000012"><a xlink:title=" ">
<polygon fill="#e0e0e0" stroke="#999999" points="873.88,-20 712.38,-20 712.38,0 873.88,0 873.88,-20"/>
<text text-anchor="middle" x="793.12" y="-6.5" font-family="Arial" font-size="10.00">ChatMessageWidget.generated.h</text>
</a>
</g>
</g>
<!-- Node10&#45;&gt;Node12 -->
<g id="edge13_Node000010_Node000012" class="edge">
<title>Node10&#45;&gt;Node12</title>
<g id="a_edge13_Node000010_Node000012"><a xlink:title=" ">
<path fill="none" stroke="#63b8ff" d="M709.23,-55.55C726.55,-46.35 748.42,-34.74 765.49,-25.68"/>
<polygon fill="#63b8ff" stroke="#63b8ff" points="766.88,-28.9 774.07,-21.12 763.6,-22.72 766.88,-28.9"/>
</a>
</g>
</g>
<!-- Node16&#45;&gt;Node3 -->
<g id="edge18_Node000016_Node000003" class="edge">
<title>Node16&#45;&gt;Node3</title>
<g id="a_edge18_Node000016_Node000003"><a xlink:title=" ">
<path fill="none" stroke="#63b8ff" d="M1117.2,-57.74C1114.14,-57.1 1111.1,-56.51 1108.12,-56 933.7,-25.9 884.16,-43.91 706.24,-20.3"/>
<polygon fill="#63b8ff" stroke="#63b8ff" points="706.77,-16.84 696.39,-18.97 705.83,-23.78 706.77,-16.84"/>
</a>
</g>
</g>
<!-- Node16&#45;&gt;Node11 -->
<g id="edge19_Node000016_Node000011" class="edge">
<title>Node16&#45;&gt;Node11</title>
<g id="a_edge19_Node000016_Node000011"><a xlink:title=" ">
<path fill="none" stroke="#63b8ff" d="M1122.6,-55.55C1095.3,-45.86 1060.48,-33.49 1034.44,-24.25"/>
<polygon fill="#63b8ff" stroke="#63b8ff" points="1035.89,-21.05 1025.3,-21 1033.55,-27.65 1035.89,-21.05"/>
</a>
</g>
</g>
<!-- Node17 -->
<g id="Node000017" class="node">
<title>Node17</title>
<g id="a_Node000017"><a xlink:title=" ">
<polygon fill="#e0e0e0" stroke="#999999" points="1211.62,-20 1120.62,-20 1120.62,0 1211.62,0 1211.62,-20"/>
<text text-anchor="middle" x="1166.12" y="-6.5" font-family="Arial" font-size="10.00">Chat.generated.h</text>
</a>
</g>
</g>
<!-- Node16&#45;&gt;Node17 -->
<g id="edge20_Node000016_Node000017" class="edge">
<title>Node16&#45;&gt;Node17</title>
<g id="a_edge20_Node000016_Node000017"><a xlink:title=" ">
<path fill="none" stroke="#63b8ff" d="M1166.12,-55.55C1166.12,-48.34 1166.12,-39.66 1166.12,-31.88"/>
<polygon fill="#63b8ff" stroke="#63b8ff" points="1169.63,-31.92 1166.13,-21.92 1162.63,-31.92 1169.63,-31.92"/>
</a>
</g>
</g>
</g>
</svg>
