<?xml version="1.0" encoding="UTF-8" standalone="no"?>
<!DOCTYPE svg PUBLIC "-//W3C//DTD SVG 1.1//EN"
 "http://www.w3.org/Graphics/SVG/1.1/DTD/svg11.dtd">
<!-- Generated by graphviz version 12.2.1 (20241206.2353)
 -->
<!-- Title: MultiplayerShooter/HUD/CharacterOverlay.cpp Pages: 1 -->
<svg width="386pt" height="152pt"
 viewBox="0.00 0.00 386.38 152.00" xmlns="http://www.w3.org/2000/svg" xmlns:xlink="http://www.w3.org/1999/xlink">
<g id="graph0" class="graph" transform="scale(1 1) rotate(0) translate(4 148)">
<title>MultiplayerShooter/HUD/CharacterOverlay.cpp</title>
<!-- Node1 -->
<g id="Node000001" class="node">
<title>Node1</title>
<g id="a_Node000001"><a xlink:title=" ">
<polygon fill="#999999" stroke="#666666" points="225,-144 86,-144 86,-112 225,-112 225,-144"/>
<text text-anchor="start" x="94" y="-130.5" font-family="Arial" font-size="10.00">MultiplayerShooter</text>
<text text-anchor="middle" x="155.5" y="-118.5" font-family="Arial" font-size="10.00">/HUD/CharacterOverlay.cpp</text>
</a>
</g>
</g>
<!-- Node2 -->
<g id="Node000002" class="node">
<title>Node2</title>
<g id="a_Node000002"><a xlink:href="_character_overlay_8h.html" target="_top" xlink:title=" ">
<polygon fill="white" stroke="#666666" points="205.5,-76 105.5,-76 105.5,-56 205.5,-56 205.5,-76"/>
<text text-anchor="middle" x="155.5" y="-62.5" font-family="Arial" font-size="10.00">CharacterOverlay.h</text>
</a>
</g>
</g>
<!-- Node1&#45;&gt;Node2 -->
<g id="edge1_Node000001_Node000002" class="edge">
<title>Node1&#45;&gt;Node2</title>
<g id="a_edge1_Node000001_Node000002"><a xlink:title=" ">
<path fill="none" stroke="#63b8ff" d="M155.5,-111.55C155.5,-104.34 155.5,-95.66 155.5,-87.88"/>
<polygon fill="#63b8ff" stroke="#63b8ff" points="159,-87.92 155.5,-77.92 152,-87.92 159,-87.92"/>
</a>
</g>
</g>
<!-- Node3 -->
<g id="Node000003" class="node">
<title>Node3</title>
<g id="a_Node000003"><a xlink:title=" ">
<polygon fill="#e0e0e0" stroke="#999999" points="79,-20 0,-20 0,0 79,0 79,-20"/>
<text text-anchor="middle" x="39.5" y="-6.5" font-family="Arial" font-size="10.00">CoreMinimal.h</text>
</a>
</g>
</g>
<!-- Node2&#45;&gt;Node3 -->
<g id="edge2_Node000002_Node000003" class="edge">
<title>Node2&#45;&gt;Node3</title>
<g id="a_edge2_Node000002_Node000003"><a xlink:title=" ">
<path fill="none" stroke="#63b8ff" d="M135.29,-55.59C117.27,-47.21 90.63,-34.8 70.02,-25.21"/>
<polygon fill="#63b8ff" stroke="#63b8ff" points="71.78,-22.17 61.24,-21.12 68.82,-28.51 71.78,-22.17"/>
</a>
</g>
</g>
<!-- Node4 -->
<g id="Node000004" class="node">
<title>Node4</title>
<g id="a_Node000004"><a xlink:title=" ">
<polygon fill="#e0e0e0" stroke="#999999" points="214.12,-20 96.88,-20 96.88,0 214.12,0 214.12,-20"/>
<text text-anchor="middle" x="155.5" y="-6.5" font-family="Arial" font-size="10.00">Blueprint/UserWidget.h</text>
</a>
</g>
</g>
<!-- Node2&#45;&gt;Node4 -->
<g id="edge3_Node000002_Node000004" class="edge">
<title>Node2&#45;&gt;Node4</title>
<g id="a_edge3_Node000002_Node000004"><a xlink:title=" ">
<path fill="none" stroke="#63b8ff" d="M155.5,-55.59C155.5,-49.01 155.5,-39.96 155.5,-31.73"/>
<polygon fill="#63b8ff" stroke="#63b8ff" points="159,-31.81 155.5,-21.81 152,-31.81 159,-31.81"/>
</a>
</g>
</g>
<!-- Node5 -->
<g id="Node000005" class="node">
<title>Node5</title>
<g id="a_Node000005"><a xlink:title=" ">
<polygon fill="#e0e0e0" stroke="#999999" points="378.38,-20 232.62,-20 232.62,0 378.38,0 378.38,-20"/>
<text text-anchor="middle" x="305.5" y="-6.5" font-family="Arial" font-size="10.00">CharacterOverlay.generated.h</text>
</a>
</g>
</g>
<!-- Node2&#45;&gt;Node5 -->
<g id="edge4_Node000002_Node000005" class="edge">
<title>Node2&#45;&gt;Node5</title>
<g id="a_edge4_Node000002_Node000005"><a xlink:title=" ">
<path fill="none" stroke="#63b8ff" d="M181.63,-55.59C205.68,-46.94 241.6,-34 268.58,-24.29"/>
<polygon fill="#63b8ff" stroke="#63b8ff" points="269.52,-27.67 277.74,-20.99 267.15,-21.09 269.52,-27.67"/>
</a>
</g>
</g>
</g>
</svg>
