<?xml version="1.0" encoding="UTF-8" standalone="no"?>
<!DOCTYPE svg PUBLIC "-//W3C//DTD SVG 1.1//EN"
 "http://www.w3.org/Graphics/SVG/1.1/DTD/svg11.dtd">
<!-- Generated by graphviz version 12.2.1 (20241206.2353)
 -->
<!-- Title: MultiplayerShooter/Pickups/DamagePickup.cpp Pages: 1 -->
<!--zoomable 300 -->

<svg id="main" version="1.1" xmlns="http://www.w3.org/2000/svg" xmlns:xlink="http://www.w3.org/1999/xlink" xml:space="preserve" onload="init(evt)">

<style type="text/css"><![CDATA[
.node, .edge {opacity: 0.7;}
.node.selected, .edge.selected {opacity: 1;}
.edge:hover path { stroke: red; }
.edge:hover polygon { stroke: red; fill: red; }
]]></style>

<defs>
  <circle id="rim" cx="0" cy="0" r="7"/>
  <circle id="rim2" cx="0" cy="0" r="3.5"/>
  <g id="zoomPlus">
    <use xlink:href="#rim" fill="#404040"><set attributeName="fill" to="#808080" begin="zoomplus.mouseover" end="zoomplus.mouseout"/></use>
    <path d="M-4,0h8M0,-4v8" fill="none" stroke="white" stroke-width="1.5" pointer-events="none"/>
  </g>
  <g id="zoomMin">
    <use xlink:href="#rim" fill="#404040"><set attributeName="fill" to="#808080" begin="zoomminus.mouseover" end="zoomminus.mouseout"/></use>
    <path d="M-4,0h8" fill="none" stroke="white" stroke-width="1.5" pointer-events="none"/>
  </g>
  <g id="arrowUp" transform="translate(30 24)">
    <use xlink:href="#rim"/>
    <path pointer-events="none" fill="none" stroke="white" stroke-width="1.5" d="M0,-3.0v7 M-2.5,-0.5L0,-3.0L2.5,-0.5"/>
  </g>
  <g id="arrowRight" transform="rotate(90) translate(36 -43)">
    <use xlink:href="#rim"/>
    <path pointer-events="none" fill="none" stroke="white" stroke-width="1.5" d="M0,-3.0v7 M-2.5,-0.5L0,-3.0L2.5,-0.5"/>
  </g>
  <g id="arrowDown" transform="rotate(180) translate(-30 -48)">
    <use xlink:href="#rim"/>
    <path pointer-events="none" fill="none" stroke="white" stroke-width="1.5" d="M0,-3.0v7 M-2.5,-0.5L0,-3.0L2.5,-0.5"/>
  </g>
  <g id="arrowLeft" transform="rotate(270) translate(-36 17)">
    <use xlink:href="#rim"/>
    <path pointer-events="none" fill="none" stroke="white" stroke-width="1.5" d="M0,-3.0v7 M-2.5,-0.5L0,-3.0L2.5,-0.5"/>
  </g>
  <g id="resetDef">
    <use xlink:href="#rim2" fill="#404040"><set attributeName="fill" to="#808080" begin="reset.mouseover" end="reset.mouseout"/></use>
  </g>
</defs>
<script type="application/ecmascript">
var viewWidth = 1384;
var viewHeight = 300;
var sectionId = 'dynsection-0';
</script>
<script type="application/ecmascript" xlink:href="svg.min.js"/>
<svg id="graph" class="graph">
<g id="viewport">
<title>MultiplayerShooter/Pickups/DamagePickup.cpp</title>
<!-- Node1 -->
<g id="Node000001" class="node">
<title>Node1</title>
<g id="a_Node000001"><a xlink:title=" ">
<polygon fill="#999999" stroke="#666666" points="576.12,-292 433.38,-292 433.38,-260 576.12,-260 576.12,-292"/>
<text text-anchor="start" x="441.38" y="-278.5" font-family="Arial" font-size="10.00">MultiplayerShooter</text>
<text text-anchor="middle" x="504.75" y="-266.5" font-family="Arial" font-size="10.00">/Pickups/DamagePickup.cpp</text>
</a>
</g>
</g>
<!-- Node2 -->
<g id="Node000002" class="node">
<title>Node2</title>
<g id="a_Node000002"><a xlink:href="_damage_pickup_8h.html" target="_top" xlink:title=" ">
<polygon fill="white" stroke="#666666" points="276.25,-150 185.25,-150 185.25,-130 276.25,-130 276.25,-150"/>
<text text-anchor="middle" x="230.75" y="-136.5" font-family="Arial" font-size="10.00">DamagePickup.h</text>
</a>
</g>
</g>
<!-- Node1&#45;&gt;Node2 -->
<g id="edge1_Node000001_Node000002" class="edge">
<title>Node1&#45;&gt;Node2</title>
<g id="a_edge1_Node000001_Node000002"><a xlink:title=" ">
<path fill="none" stroke="#63b8ff" d="M473.32,-259.63C419.91,-233.51 312.17,-180.82 260.17,-155.39"/>
<polygon fill="#63b8ff" stroke="#63b8ff" points="261.83,-152.31 251.31,-151.06 258.76,-158.59 261.83,-152.31"/>
</a>
</g>
</g>
<!-- Node8 -->
<g id="Node000008" class="node">
<title>Node8</title>
<g id="a_Node000008"><a xlink:href="_main_character_8h.html" target="_top" xlink:title=" ">
<polygon fill="white" stroke="#666666" points="746.62,-224 588.88,-224 588.88,-192 746.62,-192 746.62,-224"/>
<text text-anchor="start" x="596.88" y="-210.5" font-family="Arial" font-size="10.00">MultiplayerShooter</text>
<text text-anchor="middle" x="667.75" y="-198.5" font-family="Arial" font-size="10.00">/MainCharacter/MainCharacter.h</text>
</a>
</g>
</g>
<!-- Node1&#45;&gt;Node8 -->
<g id="edge8_Node000001_Node000008" class="edge">
<title>Node1&#45;&gt;Node8</title>
<g id="a_edge8_Node000001_Node000008"><a xlink:title=" ">
<path fill="none" stroke="#63b8ff" d="M542.97,-259.53C565.67,-250.33 594.69,-238.58 619.03,-228.73"/>
<polygon fill="#63b8ff" stroke="#63b8ff" points="620.13,-232.06 628.09,-225.06 617.51,-225.57 620.13,-232.06"/>
</a>
</g>
</g>
<!-- Node3 -->
<g id="Node000003" class="node">
<title>Node3</title>
<g id="a_Node000003"><a xlink:title=" ">
<polygon fill="#e0e0e0" stroke="#999999" points="495.25,-20 416.25,-20 416.25,0 495.25,0 495.25,-20"/>
<text text-anchor="middle" x="455.75" y="-6.5" font-family="Arial" font-size="10.00">CoreMinimal.h</text>
</a>
</g>
</g>
<!-- Node2&#45;&gt;Node3 -->
<g id="edge2_Node000002_Node000003" class="edge">
<title>Node2&#45;&gt;Node3</title>
<g id="a_edge2_Node000002_Node000003"><a xlink:title=" ">
<path fill="none" stroke="#63b8ff" d="M222.25,-129.73C208.12,-113.18 183.12,-78.22 201.75,-56 227.09,-25.77 337.85,-15.84 404.45,-12.58"/>
<polygon fill="#63b8ff" stroke="#63b8ff" points="404.6,-16.08 414.43,-12.13 404.29,-9.08 404.6,-16.08"/>
</a>
</g>
</g>
<!-- Node4 -->
<g id="Node000004" class="node">
<title>Node4</title>
<g id="a_Node000004"><a xlink:href="_pickup_8h.html" target="_top" xlink:title=" ">
<polygon fill="white" stroke="#666666" points="154.88,-82 100.62,-82 100.62,-62 154.88,-62 154.88,-82"/>
<text text-anchor="middle" x="127.75" y="-68.5" font-family="Arial" font-size="10.00">Pickup.h</text>
</a>
</g>
</g>
<!-- Node2&#45;&gt;Node4 -->
<g id="edge3_Node000002_Node000004" class="edge">
<title>Node2&#45;&gt;Node4</title>
<g id="a_edge3_Node000002_Node000004"><a xlink:title=" ">
<path fill="none" stroke="#63b8ff" d="M215.99,-129.54C199.32,-118.86 171.92,-101.31 152.07,-88.59"/>
<polygon fill="#63b8ff" stroke="#63b8ff" points="154.06,-85.7 143.75,-83.26 150.29,-91.6 154.06,-85.7"/>
</a>
</g>
</g>
<!-- Node7 -->
<g id="Node000007" class="node">
<title>Node7</title>
<g id="a_Node000007"><a xlink:title=" ">
<polygon fill="#e0e0e0" stroke="#999999" points="347.12,-82 210.38,-82 210.38,-62 347.12,-62 347.12,-82"/>
<text text-anchor="middle" x="278.75" y="-68.5" font-family="Arial" font-size="10.00">DamagePickup.generated.h</text>
</a>
</g>
</g>
<!-- Node2&#45;&gt;Node7 -->
<g id="edge7_Node000002_Node000007" class="edge">
<title>Node2&#45;&gt;Node7</title>
<g id="a_edge7_Node000002_Node000007"><a xlink:title=" ">
<path fill="none" stroke="#63b8ff" d="M237.63,-129.54C244.83,-119.64 256.32,-103.84 265.32,-91.46"/>
<polygon fill="#63b8ff" stroke="#63b8ff" points="267.94,-93.81 271,-83.66 262.28,-89.69 267.94,-93.81"/>
</a>
</g>
</g>
<!-- Node4&#45;&gt;Node3 -->
<g id="edge4_Node000004_Node000003" class="edge">
<title>Node4&#45;&gt;Node3</title>
<g id="a_edge4_Node000004_Node000003"><a xlink:title=" ">
<path fill="none" stroke="#63b8ff" d="M150.92,-61.63C156.67,-59.55 162.88,-57.52 168.75,-56 249.83,-35.03 346.49,-22.33 404.39,-15.99"/>
<polygon fill="#63b8ff" stroke="#63b8ff" points="404.71,-19.48 414.28,-14.94 403.97,-12.52 404.71,-19.48"/>
</a>
</g>
</g>
<!-- Node5 -->
<g id="Node000005" class="node">
<title>Node5</title>
<g id="a_Node000005"><a xlink:title=" ">
<polygon fill="#e0e0e0" stroke="#999999" points="125.5,-20 0,-20 0,0 125.5,0 125.5,-20"/>
<text text-anchor="middle" x="62.75" y="-6.5" font-family="Arial" font-size="10.00">GameFramework/Actor.h</text>
</a>
</g>
</g>
<!-- Node4&#45;&gt;Node5 -->
<g id="edge5_Node000004_Node000005" class="edge">
<title>Node4&#45;&gt;Node5</title>
<g id="a_edge5_Node000004_Node000005"><a xlink:title=" ">
<path fill="none" stroke="#63b8ff" d="M117.59,-61.62C107.81,-52.59 92.78,-38.72 80.93,-27.78"/>
<polygon fill="#63b8ff" stroke="#63b8ff" points="83.46,-25.35 73.73,-21.14 78.71,-30.49 83.46,-25.35"/>
</a>
</g>
</g>
<!-- Node6 -->
<g id="Node000006" class="node">
<title>Node6</title>
<g id="a_Node000006"><a xlink:title=" ">
<polygon fill="#e0e0e0" stroke="#999999" points="243.75,-20 143.75,-20 143.75,0 243.75,0 243.75,-20"/>
<text text-anchor="middle" x="193.75" y="-6.5" font-family="Arial" font-size="10.00">Pickup.generated.h</text>
</a>
</g>
</g>
<!-- Node4&#45;&gt;Node6 -->
<g id="edge6_Node000004_Node000006" class="edge">
<title>Node4&#45;&gt;Node6</title>
<g id="a_edge6_Node000004_Node000006"><a xlink:title=" ">
<path fill="none" stroke="#63b8ff" d="M138.06,-61.62C148,-52.59 163.26,-38.72 175.29,-27.78"/>
<polygon fill="#63b8ff" stroke="#63b8ff" points="177.56,-30.45 182.61,-21.13 172.85,-25.27 177.56,-30.45"/>
</a>
</g>
</g>
<!-- Node8&#45;&gt;Node3 -->
<g id="edge9_Node000008_Node000003" class="edge">
<title>Node8&#45;&gt;Node3</title>
<g id="a_edge9_Node000008_Node000003"><a xlink:title=" ">
<path fill="none" stroke="#63b8ff" d="M588.63,-205.18C507.02,-201.43 387.68,-190.1 358.75,-156 321.72,-112.36 392.22,-54.13 431.68,-26.63"/>
<polygon fill="#63b8ff" stroke="#63b8ff" points="433.39,-29.7 439.7,-21.18 429.46,-23.91 433.39,-29.7"/>
</a>
</g>
</g>
<!-- Node9 -->
<g id="Node000009" class="node">
<title>Node9</title>
<g id="a_Node000009"><a xlink:title=" ">
<polygon fill="#e0e0e0" stroke="#999999" points="513.25,-150 368.25,-150 368.25,-130 513.25,-130 513.25,-150"/>
<text text-anchor="middle" x="440.75" y="-136.5" font-family="Arial" font-size="10.00">GameFramework/Character.h</text>
</a>
</g>
</g>
<!-- Node8&#45;&gt;Node9 -->
<g id="edge10_Node000008_Node000009" class="edge">
<title>Node8&#45;&gt;Node9</title>
<g id="a_edge10_Node000008_Node000009"><a xlink:title=" ">
<path fill="none" stroke="#63b8ff" d="M614.53,-191.53C574.86,-179.99 521.36,-164.44 484.25,-153.65"/>
<polygon fill="#63b8ff" stroke="#63b8ff" points="485.32,-150.31 474.74,-150.88 483.37,-157.04 485.32,-150.31"/>
</a>
</g>
</g>
<!-- Node10 -->
<g id="Node000010" class="node">
<title>Node10</title>
<g id="a_Node000010"><a xlink:href="_turning_in_place_8h.html" target="_top" xlink:title=" ">
<polygon fill="white" stroke="#666666" points="652.62,-156 530.88,-156 530.88,-124 652.62,-124 652.62,-156"/>
<text text-anchor="start" x="538.88" y="-142.5" font-family="Arial" font-size="10.00">MultiplayerShooter</text>
<text text-anchor="middle" x="591.75" y="-130.5" font-family="Arial" font-size="10.00">/Types/TurningInPlace.h</text>
</a>
</g>
</g>
<!-- Node8&#45;&gt;Node10 -->
<g id="edge11_Node000008_Node000010" class="edge">
<title>Node8&#45;&gt;Node10</title>
<g id="a_edge11_Node000008_Node000010"><a xlink:title=" ">
<path fill="none" stroke="#63b8ff" d="M650.12,-191.69C640.6,-183.42 628.65,-173.05 618.05,-163.84"/>
<polygon fill="#63b8ff" stroke="#63b8ff" points="620.53,-161.36 610.69,-157.45 615.94,-166.65 620.53,-161.36"/>
</a>
</g>
</g>
<!-- Node11 -->
<g id="Node000011" class="node">
<title>Node11</title>
<g id="a_Node000011"><a xlink:title=" ">
<polygon fill="#e0e0e0" stroke="#999999" points="817,-150 670.5,-150 670.5,-130 817,-130 817,-150"/>
<text text-anchor="middle" x="743.75" y="-136.5" font-family="Arial" font-size="10.00">Camera/CameraComponent.h</text>
</a>
</g>
</g>
<!-- Node8&#45;&gt;Node11 -->
<g id="edge12_Node000008_Node000011" class="edge">
<title>Node8&#45;&gt;Node11</title>
<g id="a_edge12_Node000008_Node000011"><a xlink:title=" ">
<path fill="none" stroke="#63b8ff" d="M685.38,-191.69C697.12,-181.5 712.54,-168.1 724.59,-157.64"/>
<polygon fill="#63b8ff" stroke="#63b8ff" points="726.62,-160.51 731.88,-151.31 722.03,-155.22 726.62,-160.51"/>
</a>
</g>
</g>
<!-- Node12 -->
<g id="Node000012" class="node">
<title>Node12</title>
<g id="a_Node000012"><a xlink:href="_buff_component_8h.html" target="_top" xlink:title=" ">
<polygon fill="white" stroke="#666666" points="1012,-156 835.5,-156 835.5,-124 1012,-124 1012,-156"/>
<text text-anchor="start" x="843.5" y="-142.5" font-family="Arial" font-size="10.00">MultiplayerShooter</text>
<text text-anchor="middle" x="923.75" y="-130.5" font-family="Arial" font-size="10.00">/ActorComponents/BuffComponent.h</text>
</a>
</g>
</g>
<!-- Node8&#45;&gt;Node12 -->
<g id="edge13_Node000008_Node000012" class="edge">
<title>Node8&#45;&gt;Node12</title>
<g id="a_edge13_Node000008_Node000012"><a xlink:title=" ">
<path fill="none" stroke="#63b8ff" d="M727.77,-191.53C765.11,-181.9 813.32,-169.47 852.58,-159.35"/>
<polygon fill="#63b8ff" stroke="#63b8ff" points="853.39,-162.75 862.2,-156.87 851.64,-155.98 853.39,-162.75"/>
</a>
</g>
</g>
<!-- Node15 -->
<g id="Node000015" class="node">
<title>Node15</title>
<g id="a_Node000015"><a xlink:href="_combat_component_8h.html" target="_top" xlink:title=" ">
<polygon fill="white" stroke="#666666" points="1223.62,-156 1029.88,-156 1029.88,-124 1223.62,-124 1223.62,-156"/>
<text text-anchor="start" x="1037.88" y="-142.5" font-family="Arial" font-size="10.00">MultiplayerShooter</text>
<text text-anchor="middle" x="1126.75" y="-130.5" font-family="Arial" font-size="10.00">/ActorComponents/CombatComponent.h</text>
</a>
</g>
</g>
<!-- Node8&#45;&gt;Node15 -->
<g id="edge17_Node000008_Node000015" class="edge">
<title>Node8&#45;&gt;Node15</title>
<g id="a_edge17_Node000008_Node000015"><a xlink:title=" ">
<path fill="none" stroke="#63b8ff" d="M746.92,-195.62C821.82,-184.85 934.87,-168.59 1018.17,-156.61"/>
<polygon fill="#63b8ff" stroke="#63b8ff" points="1018.56,-160.09 1027.96,-155.2 1017.57,-153.16 1018.56,-160.09"/>
</a>
</g>
</g>
<!-- Node20 -->
<g id="Node000020" class="node">
<title>Node20</title>
<g id="a_Node000020"><a xlink:title=" ">
<polygon fill="#e0e0e0" stroke="#999999" points="1375.62,-150 1241.88,-150 1241.88,-130 1375.62,-130 1375.62,-150"/>
<text text-anchor="middle" x="1308.75" y="-136.5" font-family="Arial" font-size="10.00">MainCharacter.generated.h</text>
</a>
</g>
</g>
<!-- Node8&#45;&gt;Node20 -->
<g id="edge25_Node000008_Node000020" class="edge">
<title>Node8&#45;&gt;Node20</title>
<g id="a_edge25_Node000008_Node000020"><a xlink:title=" ">
<path fill="none" stroke="#63b8ff" d="M747.12,-202.47C856.73,-195.61 1060.43,-180.71 1232.75,-156 1239.65,-155.01 1246.88,-153.81 1254.01,-152.52"/>
<polygon fill="#63b8ff" stroke="#63b8ff" points="1254.41,-156 1263.59,-150.71 1253.12,-149.12 1254.41,-156"/>
</a>
</g>
</g>
<!-- Node12&#45;&gt;Node3 -->
<g id="edge14_Node000012_Node000003" class="edge">
<title>Node12&#45;&gt;Node3</title>
<g id="a_edge14_Node000012_Node000003"><a xlink:title=" ">
<path fill="none" stroke="#63b8ff" d="M843.46,-123.52C798.32,-114.29 741.09,-101.72 690.75,-88 619.57,-68.6 538.07,-40.55 492.17,-24.21"/>
<polygon fill="#63b8ff" stroke="#63b8ff" points="493.59,-21 483,-20.92 491.23,-27.59 493.59,-21"/>
</a>
</g>
</g>
<!-- Node13 -->
<g id="Node000013" class="node">
<title>Node13</title>
<g id="a_Node000013"><a xlink:title=" ">
<polygon fill="#e0e0e0" stroke="#999999" points="1011.88,-82 855.62,-82 855.62,-62 1011.88,-62 1011.88,-82"/>
<text text-anchor="middle" x="933.75" y="-68.5" font-family="Arial" font-size="10.00">Components/ActorComponent.h</text>
</a>
</g>
</g>
<!-- Node12&#45;&gt;Node13 -->
<g id="edge15_Node000012_Node000013" class="edge">
<title>Node12&#45;&gt;Node13</title>
<g id="a_edge15_Node000012_Node000013"><a xlink:title=" ">
<path fill="none" stroke="#63b8ff" d="M926.07,-123.69C927.43,-114.7 929.17,-103.21 930.65,-93.44"/>
<polygon fill="#63b8ff" stroke="#63b8ff" points="934.07,-94.22 932.11,-83.81 927.15,-93.18 934.07,-94.22"/>
</a>
</g>
</g>
<!-- Node14 -->
<g id="Node000014" class="node">
<title>Node14</title>
<g id="a_Node000014"><a xlink:title=" ">
<polygon fill="#e0e0e0" stroke="#999999" points="837.5,-82 700,-82 700,-62 837.5,-62 837.5,-82"/>
<text text-anchor="middle" x="768.75" y="-68.5" font-family="Arial" font-size="10.00">BuffComponent.generated.h</text>
</a>
</g>
</g>
<!-- Node12&#45;&gt;Node14 -->
<g id="edge16_Node000012_Node000014" class="edge">
<title>Node12&#45;&gt;Node14</title>
<g id="a_edge16_Node000012_Node000014"><a xlink:title=" ">
<path fill="none" stroke="#63b8ff" d="M887.41,-123.53C861.38,-112.44 826.61,-97.64 801.45,-86.92"/>
<polygon fill="#63b8ff" stroke="#63b8ff" points="802.93,-83.75 792.36,-83.05 800.19,-90.19 802.93,-83.75"/>
</a>
</g>
</g>
<!-- Node15&#45;&gt;Node3 -->
<g id="edge18_Node000015_Node000003" class="edge">
<title>Node15&#45;&gt;Node3</title>
<g id="a_edge18_Node000015_Node000003"><a xlink:title=" ">
<path fill="none" stroke="#63b8ff" d="M1106.07,-123.57C1092.75,-113.55 1075.12,-100.15 1059.75,-88 1042.16,-74.1 1041.54,-64.39 1020.75,-56 928.24,-18.69 627.87,-12.25 506.91,-11.19"/>
<polygon fill="#63b8ff" stroke="#63b8ff" points="506.98,-7.69 496.95,-11.11 506.93,-14.69 506.98,-7.69"/>
</a>
</g>
</g>
<!-- Node15&#45;&gt;Node13 -->
<g id="edge19_Node000015_Node000013" class="edge">
<title>Node15&#45;&gt;Node13</title>
<g id="a_edge19_Node000015_Node000013"><a xlink:title=" ">
<path fill="none" stroke="#63b8ff" d="M1081.5,-123.53C1048.21,-112.14 1003.46,-96.84 971.96,-86.07"/>
<polygon fill="#63b8ff" stroke="#63b8ff" points="973.44,-82.87 962.85,-82.95 971.18,-89.5 973.44,-82.87"/>
</a>
</g>
</g>
<!-- Node16 -->
<g id="Node000016" class="node">
<title>Node16</title>
<g id="a_Node000016"><a xlink:href="_main_h_u_d_8h.html" target="_top" xlink:title=" ">
<polygon fill="white" stroke="#666666" points="1165.25,-88 1068.25,-88 1068.25,-56 1165.25,-56 1165.25,-88"/>
<text text-anchor="start" x="1076.25" y="-74.5" font-family="Arial" font-size="10.00">MultiplayerShooter</text>
<text text-anchor="middle" x="1116.75" y="-62.5" font-family="Arial" font-size="10.00">/HUD/MainHUD.h</text>
</a>
</g>
</g>
<!-- Node15&#45;&gt;Node16 -->
<g id="edge20_Node000015_Node000016" class="edge">
<title>Node15&#45;&gt;Node16</title>
<g id="a_edge20_Node000015_Node000016"><a xlink:title=" ">
<path fill="none" stroke="#63b8ff" d="M1124.43,-123.69C1123.35,-116.53 1122.02,-107.79 1120.78,-99.59"/>
<polygon fill="#63b8ff" stroke="#63b8ff" points="1124.24,-99.08 1119.28,-89.72 1117.32,-100.13 1124.24,-99.08"/>
</a>
</g>
</g>
<!-- Node19 -->
<g id="Node000019" class="node">
<title>Node19</title>
<g id="a_Node000019"><a xlink:title=" ">
<polygon fill="#e0e0e0" stroke="#999999" points="1338.12,-82 1183.38,-82 1183.38,-62 1338.12,-62 1338.12,-82"/>
<text text-anchor="middle" x="1260.75" y="-68.5" font-family="Arial" font-size="10.00">CombatComponent.generated.h</text>
</a>
</g>
</g>
<!-- Node15&#45;&gt;Node19 -->
<g id="edge24_Node000015_Node000019" class="edge">
<title>Node15&#45;&gt;Node19</title>
<g id="a_edge24_Node000015_Node000019"><a xlink:title=" ">
<path fill="none" stroke="#63b8ff" d="M1158.17,-123.53C1180.27,-112.64 1209.65,-98.17 1231.3,-87.5"/>
<polygon fill="#63b8ff" stroke="#63b8ff" points="1232.76,-90.69 1240.19,-83.13 1229.67,-84.41 1232.76,-90.69"/>
</a>
</g>
</g>
<!-- Node16&#45;&gt;Node3 -->
<g id="edge21_Node000016_Node000003" class="edge">
<title>Node16&#45;&gt;Node3</title>
<g id="a_edge21_Node000016_Node000003"><a xlink:title=" ">
<path fill="none" stroke="#63b8ff" d="M1068.06,-58.6C1063.25,-57.62 1058.42,-56.73 1053.75,-56 852.91,-24.74 610.62,-14.99 506.9,-12.12"/>
<polygon fill="#63b8ff" stroke="#63b8ff" points="507.14,-8.62 497.05,-11.86 506.95,-15.62 507.14,-8.62"/>
</a>
</g>
</g>
<!-- Node17 -->
<g id="Node000017" class="node">
<title>Node17</title>
<g id="a_Node000017"><a xlink:title=" ">
<polygon fill="#e0e0e0" stroke="#999999" points="1110.12,-20 985.38,-20 985.38,0 1110.12,0 1110.12,-20"/>
<text text-anchor="middle" x="1047.75" y="-6.5" font-family="Arial" font-size="10.00">GameFramework/HUD.h</text>
</a>
</g>
</g>
<!-- Node16&#45;&gt;Node17 -->
<g id="edge22_Node000016_Node000017" class="edge">
<title>Node16&#45;&gt;Node17</title>
<g id="a_edge22_Node000016_Node000017"><a xlink:title=" ">
<path fill="none" stroke="#63b8ff" d="M1098.98,-55.55C1089.2,-47.04 1077.05,-36.48 1067.03,-27.77"/>
<polygon fill="#63b8ff" stroke="#63b8ff" points="1069.55,-25.32 1059.71,-21.4 1064.96,-30.6 1069.55,-25.32"/>
</a>
</g>
</g>
<!-- Node18 -->
<g id="Node000018" class="node">
<title>Node18</title>
<g id="a_Node000018"><a xlink:title=" ">
<polygon fill="#e0e0e0" stroke="#999999" points="1241.5,-20 1128,-20 1128,0 1241.5,0 1241.5,-20"/>
<text text-anchor="middle" x="1184.75" y="-6.5" font-family="Arial" font-size="10.00">MainHUD.generated.h</text>
</a>
</g>
</g>
<!-- Node16&#45;&gt;Node18 -->
<g id="edge23_Node000016_Node000018" class="edge">
<title>Node16&#45;&gt;Node18</title>
<g id="a_edge23_Node000016_Node000018"><a xlink:title=" ">
<path fill="none" stroke="#63b8ff" d="M1134.26,-55.55C1143.9,-47.04 1155.88,-36.48 1165.75,-27.77"/>
<polygon fill="#63b8ff" stroke="#63b8ff" points="1167.77,-30.65 1172.95,-21.41 1163.14,-25.4 1167.77,-30.65"/>
</a>
</g>
</g>
</g>
</svg>

<g id="navigator" transform="translate(0 0)" fill="#404254">
  <rect fill="#f2f5e9" fill-opacity="0.5" stroke="#606060" stroke-width=".5" x="0" y="0" width="60" height="60"/>
  <use id="zoomplus" xlink:href="#zoomPlus" x="17" y="9" onmousedown="handleZoom(evt,'in')"/>
  <use id="zoomminus" xlink:href="#zoomMin" x="42" y="9" onmousedown="handleZoom(evt,'out')"/>
  <use id="reset" xlink:href="#resetDef" x="30" y="36" onmousedown="handleReset()"/>
   <use id="arrowup" xlink:href="#arrowUp" x="0" y="0" onmousedown="handlePan(0,-1)"/>
  <use id="arrowright" xlink:href="#arrowRight" x="0" y="0" onmousedown="handlePan(1,0)"/>
  <use id="arrowdown" xlink:href="#arrowDown" x="0" y="0" onmousedown="handlePan(0,1)"/>
  <use id="arrowleft" xlink:href="#arrowLeft" x="0" y="0" onmousedown="handlePan(-1,0)"/>
</g>
<svg viewBox="0 0 15 15" width="100%" height="30px" preserveAspectRatio="xMaxYMin meet">
 <g id="arrow_out" transform="scale(0.3 0.3)">
  <a xlink:href="_damage_pickup_8cpp__incl_org.svg" target="_base">
   <rect id="button" ry="5" rx="5" y="6" x="6" height="38" width="38"
        fill="#f2f5e9" fill-opacity="0.5" stroke="#606060" stroke-width="1.0"/>
   <path id="arrow"
     d="M 11.500037,31.436501 C 11.940474,20.09759 22.043105,11.32322 32.158766,21.979434 L 37.068811,17.246167 C 37.068811,17.246167 37.088388,32 37.088388,32 L 22.160133,31.978069 C 22.160133,31.978069 26.997745,27.140456 26.997745,27.140456 C 18.528582,18.264221 13.291696,25.230495 11.500037,31.436501 z"
     style="fill:#404040;"/>
  </a>
 </g>
</svg>

<style type='text/css'>
<![CDATA[
[data-mouse-over-selected='false'] { opacity: 0.7; }
[data-mouse-over-selected='true']  { opacity: 1.0; }
]]>
</style>
<script type="application/ecmascript"><![CDATA[
document.addEventListener('DOMContentLoaded', (event) => {
  highlightEdges();
  highlightAdjacentNodes();
});
]]></script>
</svg>
