<?xml version="1.0" encoding="UTF-8" standalone="no"?>
<!DOCTYPE svg PUBLIC "-//W3C//DTD SVG 1.1//EN"
 "http://www.w3.org/Graphics/SVG/1.1/DTD/svg11.dtd">
<!-- Generated by graphviz version 12.2.1 (20241206.2353)
 -->
<!-- Title: MultiplayerShooter/ActorComponents/LagCompensationComponent.cpp Pages: 1 -->
<svg width="1784pt" height="312pt"
 viewBox="0.00 0.00 1784.38 312.00" xmlns="http://www.w3.org/2000/svg" xmlns:xlink="http://www.w3.org/1999/xlink">
<g id="graph0" class="graph" transform="scale(1 1) rotate(0) translate(4 308)">
<title>MultiplayerShooter/ActorComponents/LagCompensationComponent.cpp</title>
<!-- Node1 -->
<g id="Node000001" class="node">
<title>Node1</title>
<g id="a_Node000001"><a xlink:title=" ">
<polygon fill="#999999" stroke="#666666" points="548.25,-304 368.75,-304 368.75,-260 548.25,-260 548.25,-304"/>
<text text-anchor="start" x="376.75" y="-290.5" font-family="Arial" font-size="10.00">MultiplayerShooter</text>
<text text-anchor="start" x="376.75" y="-278.5" font-family="Arial" font-size="10.00">/ActorComponents/LagCompensation</text>
<text text-anchor="middle" x="458.5" y="-266.5" font-family="Arial" font-size="10.00">Component.cpp</text>
</a>
</g>
</g>
<!-- Node2 -->
<g id="Node000002" class="node">
<title>Node2</title>
<g id="a_Node000002"><a xlink:href="_lag_compensation_component_8h.html" target="_top" xlink:title=" ">
<polygon fill="white" stroke="#666666" points="275.12,-150 121.88,-150 121.88,-130 275.12,-130 275.12,-150"/>
<text text-anchor="middle" x="198.5" y="-136.5" font-family="Arial" font-size="10.00">LagCompensationComponent.h</text>
</a>
</g>
</g>
<!-- Node1&#45;&gt;Node2 -->
<g id="edge1_Node000001_Node000002" class="edge">
<title>Node1&#45;&gt;Node2</title>
<g id="a_edge1_Node000001_Node000002"><a xlink:title=" ">
<path fill="none" stroke="#63b8ff" d="M368.56,-274.02C299.05,-266.53 211.02,-251.77 188.5,-224 174.18,-206.35 181.12,-179.23 188.67,-160.84"/>
<polygon fill="#63b8ff" stroke="#63b8ff" points="191.82,-162.37 192.76,-151.81 185.45,-159.48 191.82,-162.37"/>
</a>
</g>
</g>
<!-- Node6 -->
<g id="Node000006" class="node">
<title>Node6</title>
<g id="a_Node000006"><a xlink:title=" ">
<polygon fill="#e0e0e0" stroke="#999999" points="347.62,-218 197.38,-218 197.38,-198 347.62,-198 347.62,-218"/>
<text text-anchor="middle" x="272.5" y="-204.5" font-family="Arial" font-size="10.00">Components/BoxComponent.h</text>
</a>
</g>
</g>
<!-- Node1&#45;&gt;Node6 -->
<g id="edge5_Node000001_Node000006" class="edge">
<title>Node1&#45;&gt;Node6</title>
<g id="a_edge5_Node000001_Node000006"><a xlink:title=" ">
<path fill="none" stroke="#63b8ff" d="M403.2,-259.59C372.14,-247.57 334.33,-232.93 307.38,-222.5"/>
<polygon fill="#63b8ff" stroke="#63b8ff" points="308.91,-219.34 298.32,-218.99 306.38,-225.87 308.91,-219.34"/>
</a>
</g>
</g>
<!-- Node7 -->
<g id="Node000007" class="node">
<title>Node7</title>
<g id="a_Node000007"><a xlink:href="_main_character_8h.html" target="_top" xlink:title=" ">
<polygon fill="white" stroke="#666666" points="889.38,-224 731.62,-224 731.62,-192 889.38,-192 889.38,-224"/>
<text text-anchor="start" x="739.62" y="-210.5" font-family="Arial" font-size="10.00">MultiplayerShooter</text>
<text text-anchor="middle" x="810.5" y="-198.5" font-family="Arial" font-size="10.00">/MainCharacter/MainCharacter.h</text>
</a>
</g>
</g>
<!-- Node1&#45;&gt;Node7 -->
<g id="edge6_Node000001_Node000007" class="edge">
<title>Node1&#45;&gt;Node7</title>
<g id="a_edge6_Node000001_Node000007"><a xlink:title=" ">
<path fill="none" stroke="#63b8ff" d="M548.69,-262.55C602.51,-251.54 670.5,-237.64 723.71,-226.75"/>
<polygon fill="#63b8ff" stroke="#63b8ff" points="724.25,-230.22 733.34,-224.78 722.84,-223.36 724.25,-230.22"/>
</a>
</g>
</g>
<!-- Node19 -->
<g id="Node000019" class="node">
<title>Node19</title>
<g id="a_Node000019"><a xlink:title=" ">
<polygon fill="#e0e0e0" stroke="#999999" points="513.38,-218 403.62,-218 403.62,-198 513.38,-198 513.38,-218"/>
<text text-anchor="middle" x="458.5" y="-204.5" font-family="Arial" font-size="10.00">DrawDebugHelpers.h</text>
</a>
</g>
</g>
<!-- Node1&#45;&gt;Node19 -->
<g id="edge24_Node000001_Node000019" class="edge">
<title>Node1&#45;&gt;Node19</title>
<g id="a_edge24_Node000001_Node000019"><a xlink:title=" ">
<path fill="none" stroke="#63b8ff" d="M458.5,-259.79C458.5,-250.32 458.5,-239.2 458.5,-229.78"/>
<polygon fill="#63b8ff" stroke="#63b8ff" points="462,-229.82 458.5,-219.82 455,-229.82 462,-229.82"/>
</a>
</g>
</g>
<!-- Node20 -->
<g id="Node000020" class="node">
<title>Node20</title>
<g id="a_Node000020"><a xlink:title=" ">
<polygon fill="#e0e0e0" stroke="#999999" points="664,-218 531,-218 531,-198 664,-198 664,-218"/>
<text text-anchor="middle" x="597.5" y="-204.5" font-family="Arial" font-size="10.00">Kismet/GameplayStatics.h</text>
</a>
</g>
</g>
<!-- Node1&#45;&gt;Node20 -->
<g id="edge25_Node000001_Node000020" class="edge">
<title>Node1&#45;&gt;Node20</title>
<g id="a_edge25_Node000001_Node000020"><a xlink:title=" ">
<path fill="none" stroke="#63b8ff" d="M499.83,-259.59C522.21,-248 549.29,-233.97 569.26,-223.63"/>
<polygon fill="#63b8ff" stroke="#63b8ff" points="570.65,-226.85 577.92,-219.14 567.43,-220.64 570.65,-226.85"/>
</a>
</g>
</g>
<!-- Node21 -->
<g id="Node000021" class="node">
<title>Node21</title>
<g id="a_Node000021"><a xlink:href="_base_weapon_8h.html" target="_top" xlink:title=" ">
<polygon fill="white" stroke="#666666" points="1594.38,-224 1448.62,-224 1448.62,-192 1594.38,-192 1594.38,-224"/>
<text text-anchor="start" x="1456.62" y="-210.5" font-family="Arial" font-size="10.00">MultiplayerShooter</text>
<text text-anchor="middle" x="1521.5" y="-198.5" font-family="Arial" font-size="10.00">/BaseWeapon/BaseWeapon.h</text>
</a>
</g>
</g>
<!-- Node1&#45;&gt;Node21 -->
<g id="edge26_Node000001_Node000021" class="edge">
<title>Node1&#45;&gt;Node21</title>
<g id="a_edge26_Node000001_Node000021"><a xlink:title=" ">
<path fill="none" stroke="#63b8ff" d="M548.67,-274.89C751.18,-261.18 1239.7,-228.09 1436.87,-214.73"/>
<polygon fill="#63b8ff" stroke="#63b8ff" points="1437.05,-218.23 1446.79,-214.06 1436.58,-211.24 1437.05,-218.23"/>
</a>
</g>
</g>
<!-- Node24 -->
<g id="Node000024" class="node">
<title>Node24</title>
<g id="a_Node000024"><a xlink:href="_multiplayer_shooter_8h.html" target="_top" xlink:title=" ">
<polygon fill="white" stroke="#666666" points="363.62,-88 255.38,-88 255.38,-56 363.62,-56 363.62,-88"/>
<text text-anchor="start" x="263.38" y="-74.5" font-family="Arial" font-size="10.00">MultiplayerShooter</text>
<text text-anchor="middle" x="309.5" y="-62.5" font-family="Arial" font-size="10.00">/MultiplayerShooter.h</text>
</a>
</g>
</g>
<!-- Node1&#45;&gt;Node24 -->
<g id="edge30_Node000001_Node000024" class="edge">
<title>Node1&#45;&gt;Node24</title>
<g id="a_edge30_Node000001_Node000024"><a xlink:title=" ">
<path fill="none" stroke="#63b8ff" d="M430.45,-259.5C418.51,-249.51 404.95,-236.98 394.5,-224 362.24,-183.93 335.15,-130.02 320.72,-98.63"/>
<polygon fill="#63b8ff" stroke="#63b8ff" points="323.92,-97.21 316.61,-89.54 317.54,-100.09 323.92,-97.21"/>
</a>
</g>
</g>
<!-- Node3 -->
<g id="Node000003" class="node">
<title>Node3</title>
<g id="a_Node000003"><a xlink:title=" ">
<polygon fill="#e0e0e0" stroke="#999999" points="799,-20 720,-20 720,0 799,0 799,-20"/>
<text text-anchor="middle" x="759.5" y="-6.5" font-family="Arial" font-size="10.00">CoreMinimal.h</text>
</a>
</g>
</g>
<!-- Node2&#45;&gt;Node3 -->
<g id="edge2_Node000002_Node000003" class="edge">
<title>Node2&#45;&gt;Node3</title>
<g id="a_edge2_Node000002_Node000003"><a xlink:title=" ">
<path fill="none" stroke="#63b8ff" d="M200.87,-129.53C205.88,-111.67 219.4,-73.25 246.5,-56 284.86,-31.58 586.22,-17.55 708.35,-12.82"/>
<polygon fill="#63b8ff" stroke="#63b8ff" points="708.23,-16.33 718.08,-12.45 707.96,-9.34 708.23,-16.33"/>
</a>
</g>
</g>
<!-- Node4 -->
<g id="Node000004" class="node">
<title>Node4</title>
<g id="a_Node000004"><a xlink:title=" ">
<polygon fill="#e0e0e0" stroke="#999999" points="537.62,-82 381.38,-82 381.38,-62 537.62,-62 537.62,-82"/>
<text text-anchor="middle" x="459.5" y="-68.5" font-family="Arial" font-size="10.00">Components/ActorComponent.h</text>
</a>
</g>
</g>
<!-- Node2&#45;&gt;Node4 -->
<g id="edge3_Node000002_Node000004" class="edge">
<title>Node2&#45;&gt;Node4</title>
<g id="a_edge3_Node000002_Node000004"><a xlink:title=" ">
<path fill="none" stroke="#63b8ff" d="M235.89,-129.54C282.02,-117.88 360.53,-98.03 411.19,-85.22"/>
<polygon fill="#63b8ff" stroke="#63b8ff" points="411.87,-88.65 420.71,-82.81 410.15,-81.87 411.87,-88.65"/>
</a>
</g>
</g>
<!-- Node5 -->
<g id="Node000005" class="node">
<title>Node5</title>
<g id="a_Node000005"><a xlink:title=" ">
<polygon fill="#e0e0e0" stroke="#999999" points="199,-82 0,-82 0,-62 199,-62 199,-82"/>
<text text-anchor="middle" x="99.5" y="-68.5" font-family="Arial" font-size="10.00">LagCompensationComponent.generated.h</text>
</a>
</g>
</g>
<!-- Node2&#45;&gt;Node5 -->
<g id="edge4_Node000002_Node000005" class="edge">
<title>Node2&#45;&gt;Node5</title>
<g id="a_edge4_Node000002_Node000005"><a xlink:title=" ">
<path fill="none" stroke="#63b8ff" d="M184.32,-129.54C168.36,-118.91 142.2,-101.47 123.14,-88.76"/>
<polygon fill="#63b8ff" stroke="#63b8ff" points="125.18,-85.91 114.92,-83.28 121.3,-91.74 125.18,-85.91"/>
</a>
</g>
</g>
<!-- Node7&#45;&gt;Node3 -->
<g id="edge7_Node000007_Node000003" class="edge">
<title>Node7&#45;&gt;Node3</title>
<g id="a_edge7_Node000007_Node000003"><a xlink:title=" ">
<path fill="none" stroke="#63b8ff" d="M798.95,-191.77C792.18,-182.04 784.08,-168.89 779.5,-156 764.44,-113.64 760.64,-60.58 759.73,-31.84"/>
<polygon fill="#63b8ff" stroke="#63b8ff" points="763.24,-31.91 759.52,-21.98 756.24,-32.06 763.24,-31.91"/>
</a>
</g>
</g>
<!-- Node8 -->
<g id="Node000008" class="node">
<title>Node8</title>
<g id="a_Node000008"><a xlink:title=" ">
<polygon fill="#e0e0e0" stroke="#999999" points="933,-150 788,-150 788,-130 933,-130 933,-150"/>
<text text-anchor="middle" x="860.5" y="-136.5" font-family="Arial" font-size="10.00">GameFramework/Character.h</text>
</a>
</g>
</g>
<!-- Node7&#45;&gt;Node8 -->
<g id="edge8_Node000007_Node000008" class="edge">
<title>Node7&#45;&gt;Node8</title>
<g id="a_edge8_Node000007_Node000008"><a xlink:title=" ">
<path fill="none" stroke="#63b8ff" d="M822.1,-191.69C829.44,-182 838.98,-169.41 846.71,-159.2"/>
<polygon fill="#63b8ff" stroke="#63b8ff" points="849.28,-161.61 852.53,-151.52 843.7,-157.38 849.28,-161.61"/>
</a>
</g>
</g>
<!-- Node9 -->
<g id="Node000009" class="node">
<title>Node9</title>
<g id="a_Node000009"><a xlink:href="_turning_in_place_8h.html" target="_top" xlink:title=" ">
<polygon fill="white" stroke="#666666" points="1072.38,-156 950.62,-156 950.62,-124 1072.38,-124 1072.38,-156"/>
<text text-anchor="start" x="958.62" y="-142.5" font-family="Arial" font-size="10.00">MultiplayerShooter</text>
<text text-anchor="middle" x="1011.5" y="-130.5" font-family="Arial" font-size="10.00">/Types/TurningInPlace.h</text>
</a>
</g>
</g>
<!-- Node7&#45;&gt;Node9 -->
<g id="edge9_Node000007_Node000009" class="edge">
<title>Node7&#45;&gt;Node9</title>
<g id="a_edge9_Node000007_Node000009"><a xlink:title=" ">
<path fill="none" stroke="#63b8ff" d="M857.63,-191.53C886.25,-182.13 923.02,-170.05 953.43,-160.07"/>
<polygon fill="#63b8ff" stroke="#63b8ff" points="954.47,-163.41 962.88,-156.96 952.29,-156.76 954.47,-163.41"/>
</a>
</g>
</g>
<!-- Node10 -->
<g id="Node000010" class="node">
<title>Node10</title>
<g id="a_Node000010"><a xlink:title=" ">
<polygon fill="#e0e0e0" stroke="#999999" points="1236.75,-150 1090.25,-150 1090.25,-130 1236.75,-130 1236.75,-150"/>
<text text-anchor="middle" x="1163.5" y="-136.5" font-family="Arial" font-size="10.00">Camera/CameraComponent.h</text>
</a>
</g>
</g>
<!-- Node7&#45;&gt;Node10 -->
<g id="edge10_Node000007_Node000010" class="edge">
<title>Node7&#45;&gt;Node10</title>
<g id="a_edge10_Node000007_Node000010"><a xlink:title=" ">
<path fill="none" stroke="#63b8ff" d="M889.72,-192.19C953.88,-180.19 1042.99,-163.53 1101.9,-152.52"/>
<polygon fill="#63b8ff" stroke="#63b8ff" points="1102.23,-156.02 1111.41,-150.74 1100.94,-149.14 1102.23,-156.02"/>
</a>
</g>
</g>
<!-- Node11 -->
<g id="Node000011" class="node">
<title>Node11</title>
<g id="a_Node000011"><a xlink:href="_buff_component_8h.html" target="_top" xlink:title=" ">
<polygon fill="white" stroke="#666666" points="579.75,-156 403.25,-156 403.25,-124 579.75,-124 579.75,-156"/>
<text text-anchor="start" x="411.25" y="-142.5" font-family="Arial" font-size="10.00">MultiplayerShooter</text>
<text text-anchor="middle" x="491.5" y="-130.5" font-family="Arial" font-size="10.00">/ActorComponents/BuffComponent.h</text>
</a>
</g>
</g>
<!-- Node7&#45;&gt;Node11 -->
<g id="edge11_Node000007_Node000011" class="edge">
<title>Node7&#45;&gt;Node11</title>
<g id="a_edge11_Node000007_Node000011"><a xlink:title=" ">
<path fill="none" stroke="#63b8ff" d="M735.71,-191.53C688.28,-181.71 626.79,-168.99 577.37,-158.77"/>
<polygon fill="#63b8ff" stroke="#63b8ff" points="578.36,-155.4 567.86,-156.8 576.94,-162.25 578.36,-155.4"/>
</a>
</g>
</g>
<!-- Node13 -->
<g id="Node000013" class="node">
<title>Node13</title>
<g id="a_Node000013"><a xlink:href="_combat_component_8h.html" target="_top" xlink:title=" ">
<polygon fill="white" stroke="#666666" points="1448.38,-156 1254.62,-156 1254.62,-124 1448.38,-124 1448.38,-156"/>
<text text-anchor="start" x="1262.62" y="-142.5" font-family="Arial" font-size="10.00">MultiplayerShooter</text>
<text text-anchor="middle" x="1351.5" y="-130.5" font-family="Arial" font-size="10.00">/ActorComponents/CombatComponent.h</text>
</a>
</g>
</g>
<!-- Node7&#45;&gt;Node13 -->
<g id="edge15_Node000007_Node000013" class="edge">
<title>Node7&#45;&gt;Node13</title>
<g id="a_edge15_Node000007_Node000013"><a xlink:title=" ">
<path fill="none" stroke="#63b8ff" d="M889.55,-198.31C974.3,-188.85 1113.12,-173 1242.86,-156.32"/>
<polygon fill="#63b8ff" stroke="#63b8ff" points="1243.21,-159.81 1252.68,-155.06 1242.32,-152.87 1243.21,-159.81"/>
</a>
</g>
</g>
<!-- Node18 -->
<g id="Node000018" class="node">
<title>Node18</title>
<g id="a_Node000018"><a xlink:title=" ">
<polygon fill="#e0e0e0" stroke="#999999" points="731.38,-150 597.62,-150 597.62,-130 731.38,-130 731.38,-150"/>
<text text-anchor="middle" x="664.5" y="-136.5" font-family="Arial" font-size="10.00">MainCharacter.generated.h</text>
</a>
</g>
</g>
<!-- Node7&#45;&gt;Node18 -->
<g id="edge23_Node000007_Node000018" class="edge">
<title>Node7&#45;&gt;Node18</title>
<g id="a_edge23_Node000007_Node000018"><a xlink:title=" ">
<path fill="none" stroke="#63b8ff" d="M776.27,-191.53C751.86,-180.49 719.3,-165.77 695.62,-155.07"/>
<polygon fill="#63b8ff" stroke="#63b8ff" points="697.36,-152.01 686.81,-151.08 694.48,-158.39 697.36,-152.01"/>
</a>
</g>
</g>
<!-- Node11&#45;&gt;Node3 -->
<g id="edge12_Node000011_Node000003" class="edge">
<title>Node11&#45;&gt;Node3</title>
<g id="a_edge12_Node000011_Node000003"><a xlink:title=" ">
<path fill="none" stroke="#63b8ff" d="M580.25,-123.82C628.41,-114.37 682.16,-101.48 702.5,-88 724.1,-73.69 740.52,-48.28 750.06,-30.58"/>
<polygon fill="#63b8ff" stroke="#63b8ff" points="753.09,-32.34 754.53,-21.84 746.86,-29.15 753.09,-32.34"/>
</a>
</g>
</g>
<!-- Node11&#45;&gt;Node4 -->
<g id="edge13_Node000011_Node000004" class="edge">
<title>Node11&#45;&gt;Node4</title>
<g id="a_edge13_Node000011_Node000004"><a xlink:title=" ">
<path fill="none" stroke="#63b8ff" d="M484.08,-123.69C479.57,-114.4 473.77,-102.44 468.94,-92.47"/>
<polygon fill="#63b8ff" stroke="#63b8ff" points="472.19,-91.15 464.68,-83.68 465.89,-94.2 472.19,-91.15"/>
</a>
</g>
</g>
<!-- Node12 -->
<g id="Node000012" class="node">
<title>Node12</title>
<g id="a_Node000012"><a xlink:title=" ">
<polygon fill="#e0e0e0" stroke="#999999" points="693.25,-82 555.75,-82 555.75,-62 693.25,-62 693.25,-82"/>
<text text-anchor="middle" x="624.5" y="-68.5" font-family="Arial" font-size="10.00">BuffComponent.generated.h</text>
</a>
</g>
</g>
<!-- Node11&#45;&gt;Node12 -->
<g id="edge14_Node000011_Node000012" class="edge">
<title>Node11&#45;&gt;Node12</title>
<g id="a_edge14_Node000011_Node000012"><a xlink:title=" ">
<path fill="none" stroke="#63b8ff" d="M522.68,-123.53C544.62,-112.64 573.78,-98.17 595.27,-87.5"/>
<polygon fill="#63b8ff" stroke="#63b8ff" points="596.68,-90.71 604.08,-83.13 593.57,-84.44 596.68,-90.71"/>
</a>
</g>
</g>
<!-- Node13&#45;&gt;Node3 -->
<g id="edge16_Node000013_Node000003" class="edge">
<title>Node13&#45;&gt;Node3</title>
<g id="a_edge16_Node000013_Node000003"><a xlink:title=" ">
<path fill="none" stroke="#63b8ff" d="M1280.09,-123.56C1158.88,-97.35 915.79,-44.79 810.29,-21.98"/>
<polygon fill="#63b8ff" stroke="#63b8ff" points="811.31,-18.62 800.8,-19.93 809.83,-25.46 811.31,-18.62"/>
</a>
</g>
</g>
<!-- Node13&#45;&gt;Node4 -->
<g id="edge17_Node000013_Node000004" class="edge">
<title>Node13&#45;&gt;Node4</title>
<g id="a_edge17_Node000013_Node000004"><a xlink:title=" ">
<path fill="none" stroke="#63b8ff" d="M1254.21,-124.89C1251.28,-124.57 1248.37,-124.28 1245.5,-124 935.85,-94.18 855.66,-122.49 546.5,-88 537.72,-87.02 528.48,-85.72 519.43,-84.3"/>
<polygon fill="#63b8ff" stroke="#63b8ff" points="520.06,-80.85 509.62,-82.68 518.92,-87.76 520.06,-80.85"/>
</a>
</g>
</g>
<!-- Node14 -->
<g id="Node000014" class="node">
<title>Node14</title>
<g id="a_Node000014"><a xlink:href="_main_h_u_d_8h.html" target="_top" xlink:title=" ">
<polygon fill="white" stroke="#666666" points="1602,-88 1505,-88 1505,-56 1602,-56 1602,-88"/>
<text text-anchor="start" x="1513" y="-74.5" font-family="Arial" font-size="10.00">MultiplayerShooter</text>
<text text-anchor="middle" x="1553.5" y="-62.5" font-family="Arial" font-size="10.00">/HUD/MainHUD.h</text>
</a>
</g>
</g>
<!-- Node13&#45;&gt;Node14 -->
<g id="edge18_Node000013_Node000014" class="edge">
<title>Node13&#45;&gt;Node14</title>
<g id="a_edge18_Node000013_Node000014"><a xlink:title=" ">
<path fill="none" stroke="#63b8ff" d="M1398.86,-123.53C1427.75,-114.09 1464.9,-101.95 1495.54,-91.94"/>
<polygon fill="#63b8ff" stroke="#63b8ff" points="1496.23,-95.39 1504.65,-88.96 1494.06,-88.74 1496.23,-95.39"/>
</a>
</g>
</g>
<!-- Node17 -->
<g id="Node000017" class="node">
<title>Node17</title>
<g id="a_Node000017"><a xlink:title=" ">
<polygon fill="#e0e0e0" stroke="#999999" points="1428.88,-82 1274.12,-82 1274.12,-62 1428.88,-62 1428.88,-82"/>
<text text-anchor="middle" x="1351.5" y="-68.5" font-family="Arial" font-size="10.00">CombatComponent.generated.h</text>
</a>
</g>
</g>
<!-- Node13&#45;&gt;Node17 -->
<g id="edge22_Node000013_Node000017" class="edge">
<title>Node13&#45;&gt;Node17</title>
<g id="a_edge22_Node000013_Node000017"><a xlink:title=" ">
<path fill="none" stroke="#63b8ff" d="M1351.5,-123.69C1351.5,-114.8 1351.5,-103.46 1351.5,-93.77"/>
<polygon fill="#63b8ff" stroke="#63b8ff" points="1355,-93.83 1351.5,-83.83 1348,-93.83 1355,-93.83"/>
</a>
</g>
</g>
<!-- Node14&#45;&gt;Node3 -->
<g id="edge19_Node000014_Node000003" class="edge">
<title>Node14&#45;&gt;Node3</title>
<g id="a_edge19_Node000014_Node000003"><a xlink:title=" ">
<path fill="none" stroke="#63b8ff" d="M1504.82,-58.53C1500,-57.56 1495.17,-56.69 1490.5,-56 1237.33,-18.36 930.33,-12.09 810.69,-11.13"/>
<polygon fill="#63b8ff" stroke="#63b8ff" points="810.91,-7.63 800.88,-11.06 810.86,-14.63 810.91,-7.63"/>
</a>
</g>
</g>
<!-- Node15 -->
<g id="Node000015" class="node">
<title>Node15</title>
<g id="a_Node000015"><a xlink:title=" ">
<polygon fill="#e0e0e0" stroke="#999999" points="1683.88,-20 1559.12,-20 1559.12,0 1683.88,0 1683.88,-20"/>
<text text-anchor="middle" x="1621.5" y="-6.5" font-family="Arial" font-size="10.00">GameFramework/HUD.h</text>
</a>
</g>
</g>
<!-- Node14&#45;&gt;Node15 -->
<g id="edge20_Node000014_Node000015" class="edge">
<title>Node14&#45;&gt;Node15</title>
<g id="a_edge20_Node000014_Node000015"><a xlink:title=" ">
<path fill="none" stroke="#63b8ff" d="M1571.01,-55.55C1580.65,-47.04 1592.63,-36.48 1602.5,-27.77"/>
<polygon fill="#63b8ff" stroke="#63b8ff" points="1604.52,-30.65 1609.7,-21.41 1599.89,-25.4 1604.52,-30.65"/>
</a>
</g>
</g>
<!-- Node16 -->
<g id="Node000016" class="node">
<title>Node16</title>
<g id="a_Node000016"><a xlink:title=" ">
<polygon fill="#e0e0e0" stroke="#999999" points="1541.25,-20 1427.75,-20 1427.75,0 1541.25,0 1541.25,-20"/>
<text text-anchor="middle" x="1484.5" y="-6.5" font-family="Arial" font-size="10.00">MainHUD.generated.h</text>
</a>
</g>
</g>
<!-- Node14&#45;&gt;Node16 -->
<g id="edge21_Node000014_Node000016" class="edge">
<title>Node14&#45;&gt;Node16</title>
<g id="a_edge21_Node000014_Node000016"><a xlink:title=" ">
<path fill="none" stroke="#63b8ff" d="M1535.73,-55.55C1525.95,-47.04 1513.8,-36.48 1503.78,-27.77"/>
<polygon fill="#63b8ff" stroke="#63b8ff" points="1506.3,-25.32 1496.46,-21.4 1501.71,-30.6 1506.3,-25.32"/>
</a>
</g>
</g>
<!-- Node21&#45;&gt;Node3 -->
<g id="edge27_Node000021_Node000003" class="edge">
<title>Node21&#45;&gt;Node3</title>
<g id="a_edge27_Node000021_Node000003"><a xlink:title=" ">
<path fill="none" stroke="#63b8ff" d="M1513.46,-191.62C1493.71,-154.01 1443.98,-60.1 1437.5,-56 1384.99,-22.73 959.27,-13.74 810.55,-11.6"/>
<polygon fill="#63b8ff" stroke="#63b8ff" points="810.65,-8.1 800.6,-11.46 810.55,-15.1 810.65,-8.1"/>
</a>
</g>
</g>
<!-- Node22 -->
<g id="Node000022" class="node">
<title>Node22</title>
<g id="a_Node000022"><a xlink:title=" ">
<polygon fill="#e0e0e0" stroke="#999999" points="1630.25,-150 1504.75,-150 1504.75,-130 1630.25,-130 1630.25,-150"/>
<text text-anchor="middle" x="1567.5" y="-136.5" font-family="Arial" font-size="10.00">GameFramework/Actor.h</text>
</a>
</g>
</g>
<!-- Node21&#45;&gt;Node22 -->
<g id="edge28_Node000021_Node000022" class="edge">
<title>Node21&#45;&gt;Node22</title>
<g id="a_edge28_Node000021_Node000022"><a xlink:title=" ">
<path fill="none" stroke="#63b8ff" d="M1532.17,-191.69C1538.86,-182.1 1547.52,-169.67 1554.59,-159.52"/>
<polygon fill="#63b8ff" stroke="#63b8ff" points="1557.29,-161.76 1560.14,-151.56 1551.55,-157.76 1557.29,-161.76"/>
</a>
</g>
</g>
<!-- Node23 -->
<g id="Node000023" class="node">
<title>Node23</title>
<g id="a_Node000023"><a xlink:title=" ">
<polygon fill="#e0e0e0" stroke="#999999" points="1776.38,-150 1648.62,-150 1648.62,-130 1776.38,-130 1776.38,-150"/>
<text text-anchor="middle" x="1712.5" y="-136.5" font-family="Arial" font-size="10.00">BaseWeapon.generated.h</text>
</a>
</g>
</g>
<!-- Node21&#45;&gt;Node23 -->
<g id="edge29_Node000021_Node000023" class="edge">
<title>Node21&#45;&gt;Node23</title>
<g id="a_edge29_Node000021_Node000023"><a xlink:title=" ">
<path fill="none" stroke="#63b8ff" d="M1566.28,-191.53C1599.08,-180.19 1643.12,-164.97 1674.27,-154.21"/>
<polygon fill="#63b8ff" stroke="#63b8ff" points="1675.38,-157.53 1683.69,-150.95 1673.1,-150.91 1675.38,-157.53"/>
</a>
</g>
</g>
<!-- Node24&#45;&gt;Node3 -->
<g id="edge31_Node000024_Node000003" class="edge">
<title>Node24&#45;&gt;Node3</title>
<g id="a_edge31_Node000024_Node000003"><a xlink:title=" ">
<path fill="none" stroke="#63b8ff" d="M364.05,-57.59C366.9,-57.02 369.73,-56.49 372.5,-56 492,-34.9 634.07,-21.27 708.39,-15.01"/>
<polygon fill="#63b8ff" stroke="#63b8ff" points="708.54,-18.51 718.21,-14.19 707.96,-11.53 708.54,-18.51"/>
</a>
</g>
</g>
</g>
</svg>
