<?xml version="1.0" encoding="UTF-8" standalone="no"?>
<!DOCTYPE svg PUBLIC "-//W3C//DTD SVG 1.1//EN"
 "http://www.w3.org/Graphics/SVG/1.1/DTD/svg11.dtd">
<!-- Generated by graphviz version 12.2.1 (20241206.2353)
 -->
<!-- Title: MultiplayerShooter/GameState/MainGameState.h Pages: 1 -->
<svg width="415pt" height="96pt"
 viewBox="0.00 0.00 414.75 96.00" xmlns="http://www.w3.org/2000/svg" xmlns:xlink="http://www.w3.org/1999/xlink">
<g id="graph0" class="graph" transform="scale(1 1) rotate(0) translate(4 92)">
<title>MultiplayerShooter/GameState/MainGameState.h</title>
<!-- Node1 -->
<g id="Node000001" class="node">
<title>Node1</title>
<g id="a_Node000001"><a xlink:title=" ">
<polygon fill="#999999" stroke="#666666" points="247.62,-88 97.38,-88 97.38,-56 247.62,-56 247.62,-88"/>
<text text-anchor="start" x="105.38" y="-74.5" font-family="Arial" font-size="10.00">MultiplayerShooter</text>
<text text-anchor="middle" x="172.5" y="-62.5" font-family="Arial" font-size="10.00">/GameState/MainGameState.h</text>
</a>
</g>
</g>
<!-- Node2 -->
<g id="Node000002" class="node">
<title>Node2</title>
<g id="a_Node000002"><a xlink:title=" ">
<polygon fill="#e0e0e0" stroke="#999999" points="79,-20 0,-20 0,0 79,0 79,-20"/>
<text text-anchor="middle" x="39.5" y="-6.5" font-family="Arial" font-size="10.00">CoreMinimal.h</text>
</a>
</g>
</g>
<!-- Node1&#45;&gt;Node2 -->
<g id="edge1_Node000001_Node000002" class="edge">
<title>Node1&#45;&gt;Node2</title>
<g id="a_edge1_Node000001_Node000002"><a xlink:title=" ">
<path fill="none" stroke="#63b8ff" d="M138.25,-55.55C117.37,-46.13 90.9,-34.19 70.62,-25.04"/>
<polygon fill="#63b8ff" stroke="#63b8ff" points="72.29,-21.95 61.73,-21.03 69.41,-28.33 72.29,-21.95"/>
</a>
</g>
</g>
<!-- Node3 -->
<g id="Node000003" class="node">
<title>Node3</title>
<g id="a_Node000003"><a xlink:title=" ">
<polygon fill="#e0e0e0" stroke="#999999" points="248.38,-20 96.62,-20 96.62,0 248.38,0 248.38,-20"/>
<text text-anchor="middle" x="172.5" y="-6.5" font-family="Arial" font-size="10.00">GameFramework/GameState.h</text>
</a>
</g>
</g>
<!-- Node1&#45;&gt;Node3 -->
<g id="edge2_Node000001_Node000003" class="edge">
<title>Node1&#45;&gt;Node3</title>
<g id="a_edge2_Node000001_Node000003"><a xlink:title=" ">
<path fill="none" stroke="#63b8ff" d="M172.5,-55.55C172.5,-48.34 172.5,-39.66 172.5,-31.88"/>
<polygon fill="#63b8ff" stroke="#63b8ff" points="176,-31.92 172.5,-21.92 169,-31.92 176,-31.92"/>
</a>
</g>
</g>
<!-- Node4 -->
<g id="Node000004" class="node">
<title>Node4</title>
<g id="a_Node000004"><a xlink:title=" ">
<polygon fill="#e0e0e0" stroke="#999999" points="406.75,-20 266.25,-20 266.25,0 406.75,0 406.75,-20"/>
<text text-anchor="middle" x="336.5" y="-6.5" font-family="Arial" font-size="10.00">MainGameState.generated.h</text>
</a>
</g>
</g>
<!-- Node1&#45;&gt;Node4 -->
<g id="edge3_Node000001_Node000004" class="edge">
<title>Node1&#45;&gt;Node4</title>
<g id="a_edge3_Node000001_Node000004"><a xlink:title=" ">
<path fill="none" stroke="#63b8ff" d="M214.73,-55.55C241.19,-45.87 274.93,-33.53 300.18,-24.29"/>
<polygon fill="#63b8ff" stroke="#63b8ff" points="301.17,-27.65 309.36,-20.93 298.77,-21.08 301.17,-27.65"/>
</a>
</g>
</g>
</g>
</svg>
