<?xml version="1.0" encoding="UTF-8" standalone="no"?>
<!DOCTYPE svg PUBLIC "-//W3C//DTD SVG 1.1//EN"
 "http://www.w3.org/Graphics/SVG/1.1/DTD/svg11.dtd">
<!-- Generated by graphviz version 12.2.1 (20241206.2353)
 -->
<!-- Title: MultiplayerShooter/HUD/MainHUD.h Pages: 1 -->
<svg width="2802pt" height="256pt"
 viewBox="0.00 0.00 2801.62 256.00" xmlns="http://www.w3.org/2000/svg" xmlns:xlink="http://www.w3.org/1999/xlink">
<g id="graph0" class="graph" transform="scale(1 1) rotate(0) translate(4 252)">
<title>MultiplayerShooter/HUD/MainHUD.h</title>
<!-- Node1 -->
<g id="Node000001" class="node">
<title>Node1</title>
<g id="a_Node000001"><a xlink:title=" ">
<polygon fill="#999999" stroke="#666666" points="1556.62,-248 1459.62,-248 1459.62,-216 1556.62,-216 1556.62,-248"/>
<text text-anchor="start" x="1467.62" y="-234.5" font-family="Arial" font-size="10.00">MultiplayerShooter</text>
<text text-anchor="middle" x="1508.12" y="-222.5" font-family="Arial" font-size="10.00">/HUD/MainHUD.h</text>
</a>
</g>
</g>
<!-- Node2 -->
<g id="Node000002" class="node">
<title>Node2</title>
<g id="a_Node000002"><a xlink:href="_chat_component_8cpp.html" target="_top" xlink:title=" ">
<polygon fill="white" stroke="#666666" points="1258.5,-180 1067.75,-180 1067.75,-148 1258.5,-148 1258.5,-180"/>
<text text-anchor="start" x="1075.75" y="-166.5" font-family="Arial" font-size="10.00">MultiplayerShooter</text>
<text text-anchor="middle" x="1163.12" y="-154.5" font-family="Arial" font-size="10.00">/ActorComponents/ChatComponent.cpp</text>
</a>
</g>
</g>
<!-- Node1&#45;&gt;Node2 -->
<g id="edge1_Node000001_Node000002" class="edge">
<title>Node1&#45;&gt;Node2</title>
<g id="a_edge1_Node000001_Node000002"><a xlink:title=" ">
<path fill="none" stroke="#63b8ff" d="M1448.18,-219.53C1391.69,-208.73 1306.63,-192.45 1244.13,-180.5"/>
<polygon fill="#63b8ff" stroke="#63b8ff" points="1447.46,-222.96 1457.94,-221.4 1448.78,-216.08 1447.46,-222.96"/>
</a>
</g>
</g>
<!-- Node3 -->
<g id="Node000003" class="node">
<title>Node3</title>
<g id="a_Node000003"><a xlink:href="_combat_component_8h.html" target="_top" xlink:title=" ">
<polygon fill="white" stroke="#666666" points="1470,-180 1276.25,-180 1276.25,-148 1470,-148 1470,-180"/>
<text text-anchor="start" x="1284.25" y="-166.5" font-family="Arial" font-size="10.00">MultiplayerShooter</text>
<text text-anchor="middle" x="1373.12" y="-154.5" font-family="Arial" font-size="10.00">/ActorComponents/CombatComponent.h</text>
</a>
</g>
</g>
<!-- Node1&#45;&gt;Node3 -->
<g id="edge2_Node000001_Node000003" class="edge">
<title>Node1&#45;&gt;Node3</title>
<g id="a_edge2_Node000001_Node000003"><a xlink:title=" ">
<path fill="none" stroke="#63b8ff" d="M1466.14,-210.47C1446.25,-200.75 1422.91,-189.34 1404.58,-180.38"/>
<polygon fill="#63b8ff" stroke="#63b8ff" points="1464.59,-213.61 1475.11,-214.86 1467.67,-207.32 1464.59,-213.61"/>
</a>
</g>
</g>
<!-- Node19 -->
<g id="Node000019" class="node">
<title>Node19</title>
<g id="a_Node000019"><a xlink:href="_my_player_controller_8cpp.html" target="_top" xlink:title=" ">
<polygon fill="white" stroke="#666666" points="2793.62,-44 2660.62,-44 2660.62,0 2793.62,0 2793.62,-44"/>
<text text-anchor="start" x="2668.62" y="-30.5" font-family="Arial" font-size="10.00">MultiplayerShooter</text>
<text text-anchor="start" x="2668.62" y="-18.5" font-family="Arial" font-size="10.00">/PlayerController/MyPlayer</text>
<text text-anchor="middle" x="2727.12" y="-6.5" font-family="Arial" font-size="10.00">Controller.cpp</text>
</a>
</g>
</g>
<!-- Node1&#45;&gt;Node19 -->
<g id="edge25_Node000001_Node000019" class="edge">
<title>Node1&#45;&gt;Node19</title>
<g id="a_edge25_Node000001_Node000019"><a xlink:title=" ">
<path fill="none" stroke="#63b8ff" d="M1506.68,-204.47C1507.22,-185.82 1511.34,-161.82 1527.12,-148 1715.87,17.22 2404.37,-89.14 2651.12,-44 2654.09,-43.46 2657.1,-42.85 2660.14,-42.2"/>
<polygon fill="#63b8ff" stroke="#63b8ff" points="1503.18,-204.31 1506.74,-214.28 1510.18,-204.26 1503.18,-204.31"/>
</a>
</g>
</g>
<!-- Node21 -->
<g id="Node000021" class="node">
<title>Node21</title>
<g id="a_Node000021"><a xlink:href="_lobby_game_mode_8cpp.html" target="_top" xlink:title=" ">
<polygon fill="white" stroke="#666666" points="1703.88,-180 1536.38,-180 1536.38,-148 1703.88,-148 1703.88,-180"/>
<text text-anchor="start" x="1544.38" y="-166.5" font-family="Arial" font-size="10.00">MultiplayerShooter</text>
<text text-anchor="middle" x="1620.12" y="-154.5" font-family="Arial" font-size="10.00">/GameMode/LobbyGameMode.cpp</text>
</a>
</g>
</g>
<!-- Node1&#45;&gt;Node21 -->
<g id="edge23_Node000001_Node000021" class="edge">
<title>Node1&#45;&gt;Node21</title>
<g id="a_edge23_Node000001_Node000021"><a xlink:title=" ">
<path fill="none" stroke="#63b8ff" d="M1544.1,-209.8C1560.35,-200.23 1579.17,-189.13 1594.03,-180.38"/>
<polygon fill="#63b8ff" stroke="#63b8ff" points="1542.53,-206.67 1535.69,-214.76 1546.08,-212.7 1542.53,-206.67"/>
</a>
</g>
</g>
<!-- Node22 -->
<g id="Node000022" class="node">
<title>Node22</title>
<g id="a_Node000022"><a xlink:href="_main_h_u_d_8cpp.html" target="_top" xlink:title=" ">
<polygon fill="white" stroke="#666666" points="1828.5,-180 1721.75,-180 1721.75,-148 1828.5,-148 1828.5,-180"/>
<text text-anchor="start" x="1729.75" y="-166.5" font-family="Arial" font-size="10.00">MultiplayerShooter</text>
<text text-anchor="middle" x="1775.12" y="-154.5" font-family="Arial" font-size="10.00">/HUD/MainHUD.cpp</text>
</a>
</g>
</g>
<!-- Node1&#45;&gt;Node22 -->
<g id="edge24_Node000001_Node000022" class="edge">
<title>Node1&#45;&gt;Node22</title>
<g id="a_edge24_Node000001_Node000022"><a xlink:title=" ">
<path fill="none" stroke="#63b8ff" d="M1568.11,-216.17C1614.12,-204.8 1677.06,-189.24 1721.42,-178.28"/>
<polygon fill="#63b8ff" stroke="#63b8ff" points="1567.43,-212.73 1558.57,-218.53 1569.11,-219.53 1567.43,-212.73"/>
</a>
</g>
</g>
<!-- Node4 -->
<g id="Node000004" class="node">
<title>Node4</title>
<g id="a_Node000004"><a xlink:href="_combat_component_8cpp.html" target="_top" xlink:title=" ">
<polygon fill="white" stroke="#666666" points="204.25,-38 0,-38 0,-6 204.25,-6 204.25,-38"/>
<text text-anchor="start" x="8" y="-24.5" font-family="Arial" font-size="10.00">MultiplayerShooter</text>
<text text-anchor="middle" x="102.12" y="-12.5" font-family="Arial" font-size="10.00">/ActorComponents/CombatComponent.cpp</text>
</a>
</g>
</g>
<!-- Node3&#45;&gt;Node4 -->
<g id="edge3_Node000003_Node000004" class="edge">
<title>Node3&#45;&gt;Node4</title>
<g id="a_edge3_Node000003_Node000004"><a xlink:title=" ">
<path fill="none" stroke="#63b8ff" d="M1264.72,-147.82C990.11,-121.15 917.39,-141.09 646.12,-112 452.43,-91.23 405.07,-77.22 213.12,-44 203.17,-42.28 192.73,-40.4 182.4,-38.49"/>
<polygon fill="#63b8ff" stroke="#63b8ff" points="1264.03,-151.27 1274.33,-148.77 1264.72,-144.3 1264.03,-151.27"/>
</a>
</g>
</g>
<!-- Node5 -->
<g id="Node000005" class="node">
<title>Node5</title>
<g id="a_Node000005"><a xlink:href="_main_character_8cpp.html" target="_top" xlink:title=" ">
<polygon fill="white" stroke="#666666" points="390.25,-38 222,-38 222,-6 390.25,-6 390.25,-38"/>
<text text-anchor="start" x="230" y="-24.5" font-family="Arial" font-size="10.00">MultiplayerShooter</text>
<text text-anchor="middle" x="306.12" y="-12.5" font-family="Arial" font-size="10.00">/MainCharacter/MainCharacter.cpp</text>
</a>
</g>
</g>
<!-- Node3&#45;&gt;Node5 -->
<g id="edge4_Node000003_Node000005" class="edge">
<title>Node3&#45;&gt;Node5</title>
<g id="a_edge4_Node000003_Node000005"><a xlink:title=" ">
<path fill="none" stroke="#63b8ff" d="M1264.63,-147.69C879.94,-97.89 778.37,-109.36 399.12,-44 389.91,-42.41 380.23,-40.5 370.74,-38.49"/>
<polygon fill="#63b8ff" stroke="#63b8ff" points="1263.94,-151.13 1274.31,-148.95 1264.84,-144.19 1263.94,-151.13"/>
</a>
</g>
</g>
<!-- Node6 -->
<g id="Node000006" class="node">
<title>Node6</title>
<g id="a_Node000006"><a xlink:href="_main_character_8h.html" target="_top" xlink:title=" ">
<polygon fill="white" stroke="#666666" points="1442,-112 1284.25,-112 1284.25,-80 1442,-80 1442,-112"/>
<text text-anchor="start" x="1292.25" y="-98.5" font-family="Arial" font-size="10.00">MultiplayerShooter</text>
<text text-anchor="middle" x="1363.12" y="-86.5" font-family="Arial" font-size="10.00">/MainCharacter/MainCharacter.h</text>
</a>
</g>
</g>
<!-- Node3&#45;&gt;Node6 -->
<g id="edge5_Node000003_Node000006" class="edge">
<title>Node3&#45;&gt;Node6</title>
<g id="a_edge5_Node000003_Node000006"><a xlink:title=" ">
<path fill="none" stroke="#63b8ff" d="M1369.08,-136.31C1367.84,-128.12 1366.52,-119.38 1365.43,-112.22"/>
<polygon fill="#63b8ff" stroke="#63b8ff" points="1365.62,-136.83 1370.58,-146.2 1372.54,-135.78 1365.62,-136.83"/>
</a>
</g>
</g>
<!-- Node3&#45;&gt;Node19 -->
<g id="edge22_Node000003_Node000019" class="edge">
<title>Node3&#45;&gt;Node19</title>
<g id="a_edge22_Node000003_Node000019"><a xlink:title=" ">
<path fill="none" stroke="#63b8ff" d="M1407.2,-141.36C1420.97,-132.45 1436.93,-121.91 1451.12,-112 1470.66,-98.36 1471.63,-87.84 1494.12,-80 1615.57,-37.66 2523.96,-63.26 2651.12,-44 2654.1,-43.55 2657.13,-43.02 2660.18,-42.43"/>
<polygon fill="#63b8ff" stroke="#63b8ff" points="1405.41,-138.35 1398.89,-146.7 1409.2,-144.24 1405.41,-138.35"/>
</a>
</g>
</g>
<!-- Node6&#45;&gt;Node4 -->
<g id="edge7_Node000006_Node000004" class="edge">
<title>Node6&#45;&gt;Node4</title>
<g id="a_edge7_Node000006_Node000004"><a xlink:title=" ">
<path fill="none" stroke="#63b8ff" d="M1272.75,-95.36C1078.26,-95.19 605.8,-89.62 213.12,-44 201.05,-42.6 188.31,-40.64 175.94,-38.48"/>
<polygon fill="#63b8ff" stroke="#63b8ff" points="1272.52,-98.86 1282.53,-95.37 1272.53,-91.86 1272.52,-98.86"/>
</a>
</g>
</g>
<!-- Node6&#45;&gt;Node5 -->
<g id="edge15_Node000006_Node000005" class="edge">
<title>Node6&#45;&gt;Node5</title>
<g id="a_edge15_Node000006_Node000005"><a xlink:title=" ">
<path fill="none" stroke="#63b8ff" d="M1272.5,-95.3C1101.09,-94.74 718.02,-88.12 399.12,-44 388.96,-42.59 378.26,-40.64 367.89,-38.48"/>
<polygon fill="#63b8ff" stroke="#63b8ff" points="1272.45,-98.8 1282.46,-95.33 1272.47,-91.8 1272.45,-98.8"/>
</a>
</g>
</g>
<!-- Node7 -->
<g id="Node000007" class="node">
<title>Node7</title>
<g id="a_Node000007"><a xlink:href="_buff_component_8cpp.html" target="_top" xlink:title=" ">
<polygon fill="white" stroke="#666666" points="1733.62,-38 1546.62,-38 1546.62,-6 1733.62,-6 1733.62,-38"/>
<text text-anchor="start" x="1554.62" y="-24.5" font-family="Arial" font-size="10.00">MultiplayerShooter</text>
<text text-anchor="middle" x="1640.12" y="-12.5" font-family="Arial" font-size="10.00">/ActorComponents/BuffComponent.cpp</text>
</a>
</g>
</g>
<!-- Node6&#45;&gt;Node7 -->
<g id="edge6_Node000006_Node000007" class="edge">
<title>Node6&#45;&gt;Node7</title>
<g id="a_edge6_Node000006_Node000007"><a xlink:title=" ">
<path fill="none" stroke="#63b8ff" d="M1433.53,-76.7C1479.05,-64.87 1537.65,-49.64 1580.8,-38.42"/>
<polygon fill="#63b8ff" stroke="#63b8ff" points="1432.81,-73.27 1424.01,-79.17 1434.57,-80.05 1432.81,-73.27"/>
</a>
</g>
</g>
<!-- Node8 -->
<g id="Node000008" class="node">
<title>Node8</title>
<g id="a_Node000008"><a xlink:href="_lag_compensation_component_8cpp.html" target="_top" xlink:title=" ">
<polygon fill="white" stroke="#666666" points="1930.88,-44 1751.38,-44 1751.38,0 1930.88,0 1930.88,-44"/>
<text text-anchor="start" x="1759.38" y="-30.5" font-family="Arial" font-size="10.00">MultiplayerShooter</text>
<text text-anchor="start" x="1759.38" y="-18.5" font-family="Arial" font-size="10.00">/ActorComponents/LagCompensation</text>
<text text-anchor="middle" x="1841.12" y="-6.5" font-family="Arial" font-size="10.00">Component.cpp</text>
</a>
</g>
</g>
<!-- Node6&#45;&gt;Node8 -->
<g id="edge8_Node000006_Node000008" class="edge">
<title>Node6&#45;&gt;Node8</title>
<g id="a_edge8_Node000006_Node000008"><a xlink:title=" ">
<path fill="none" stroke="#63b8ff" d="M1453.61,-80.36C1454.45,-80.24 1455.29,-80.12 1456.12,-80 1583.38,-61.76 1616.38,-65.49 1743.12,-44 1745.7,-43.56 1748.31,-43.11 1750.94,-42.63"/>
<polygon fill="#63b8ff" stroke="#63b8ff" points="1453.37,-76.86 1443.99,-81.79 1454.4,-83.78 1453.37,-76.86"/>
</a>
</g>
</g>
<!-- Node9 -->
<g id="Node000009" class="node">
<title>Node9</title>
<g id="a_Node000009"><a xlink:href="_base_weapon_8cpp.html" target="_top" xlink:title=" ">
<polygon fill="white" stroke="#666666" points="2105.25,-38 1949,-38 1949,-6 2105.25,-6 2105.25,-38"/>
<text text-anchor="start" x="1957" y="-24.5" font-family="Arial" font-size="10.00">MultiplayerShooter</text>
<text text-anchor="middle" x="2027.12" y="-12.5" font-family="Arial" font-size="10.00">/BaseWeapon/BaseWeapon.cpp</text>
</a>
</g>
</g>
<!-- Node6&#45;&gt;Node9 -->
<g id="edge9_Node000006_Node000009" class="edge">
<title>Node6&#45;&gt;Node9</title>
<g id="a_edge9_Node000006_Node000009"><a xlink:title=" ">
<path fill="none" stroke="#63b8ff" d="M1453.6,-80.3C1454.45,-80.2 1455.29,-80.1 1456.12,-80 1670.35,-54.8 1727.02,-77.42 1940.12,-44 1949.49,-42.53 1959.33,-40.57 1968.89,-38.44"/>
<polygon fill="#63b8ff" stroke="#63b8ff" points="1453.43,-76.79 1443.96,-81.54 1454.33,-83.74 1453.43,-76.79"/>
</a>
</g>
</g>
<!-- Node10 -->
<g id="Node000010" class="node">
<title>Node10</title>
<g id="a_Node000010"><a xlink:href="_projectile_8cpp.html" target="_top" xlink:title=" ">
<polygon fill="white" stroke="#666666" points="2284.5,-44 2123.75,-44 2123.75,0 2284.5,0 2284.5,-44"/>
<text text-anchor="start" x="2131.75" y="-30.5" font-family="Arial" font-size="10.00">MultiplayerShooter</text>
<text text-anchor="start" x="2131.75" y="-18.5" font-family="Arial" font-size="10.00">/BaseWeapon/ProjectileWeapons</text>
<text text-anchor="middle" x="2204.12" y="-6.5" font-family="Arial" font-size="10.00">/Projectile.cpp</text>
</a>
</g>
</g>
<!-- Node6&#45;&gt;Node10 -->
<g id="edge10_Node000006_Node000010" class="edge">
<title>Node6&#45;&gt;Node10</title>
<g id="a_edge10_Node000006_Node000010"><a xlink:title=" ">
<path fill="none" stroke="#63b8ff" d="M1453.6,-80.28C1454.44,-80.18 1455.29,-80.09 1456.12,-80 1747.32,-48.64 1824.19,-85.43 2114.12,-44 2117.14,-43.57 2120.21,-43.09 2123.3,-42.56"/>
<polygon fill="#63b8ff" stroke="#63b8ff" points="1453.46,-76.77 1443.95,-81.45 1454.3,-83.72 1453.46,-76.77"/>
</a>
</g>
</g>
<!-- Node11 -->
<g id="Node000011" class="node">
<title>Node11</title>
<g id="a_Node000011"><a xlink:href="_projectile_bullet_8cpp.html" target="_top" xlink:title=" ">
<polygon fill="white" stroke="#666666" points="2463.5,-44 2302.75,-44 2302.75,0 2463.5,0 2463.5,-44"/>
<text text-anchor="start" x="2310.75" y="-30.5" font-family="Arial" font-size="10.00">MultiplayerShooter</text>
<text text-anchor="start" x="2310.75" y="-18.5" font-family="Arial" font-size="10.00">/BaseWeapon/ProjectileWeapons</text>
<text text-anchor="middle" x="2383.12" y="-6.5" font-family="Arial" font-size="10.00">/ProjectileBullet.cpp</text>
</a>
</g>
</g>
<!-- Node6&#45;&gt;Node11 -->
<g id="edge11_Node000006_Node000011" class="edge">
<title>Node6&#45;&gt;Node11</title>
<g id="a_edge11_Node000006_Node000011"><a xlink:title=" ">
<path fill="none" stroke="#63b8ff" d="M1453.6,-80.26C1454.44,-80.17 1455.29,-80.09 1456.12,-80 1826.55,-42.29 1924.22,-94.52 2293.12,-44 2296.15,-43.59 2299.21,-43.12 2302.3,-42.61"/>
<polygon fill="#63b8ff" stroke="#63b8ff" points="1453.47,-76.75 1443.95,-81.39 1454.28,-83.71 1453.47,-76.75"/>
</a>
</g>
</g>
<!-- Node12 -->
<g id="Node000012" class="node">
<title>Node12</title>
<g id="a_Node000012"><a xlink:href="_projectile_weapon_8cpp.html" target="_top" xlink:title=" ">
<polygon fill="white" stroke="#666666" points="2642.5,-44 2481.75,-44 2481.75,0 2642.5,0 2642.5,-44"/>
<text text-anchor="start" x="2489.75" y="-30.5" font-family="Arial" font-size="10.00">MultiplayerShooter</text>
<text text-anchor="start" x="2489.75" y="-18.5" font-family="Arial" font-size="10.00">/BaseWeapon/ProjectileWeapons</text>
<text text-anchor="middle" x="2562.12" y="-6.5" font-family="Arial" font-size="10.00">/ProjectileWeapon.cpp</text>
</a>
</g>
</g>
<!-- Node6&#45;&gt;Node12 -->
<g id="edge12_Node000006_Node000012" class="edge">
<title>Node6&#45;&gt;Node12</title>
<g id="a_edge12_Node000006_Node000012"><a xlink:title=" ">
<path fill="none" stroke="#63b8ff" d="M1453.6,-80.25C1454.44,-80.17 1455.29,-80.08 1456.12,-80 1905.81,-35.94 2024.24,-103.62 2472.12,-44 2475.15,-43.6 2478.22,-43.14 2481.31,-42.64"/>
<polygon fill="#63b8ff" stroke="#63b8ff" points="1453.48,-76.75 1443.94,-81.36 1454.27,-83.7 1453.48,-76.75"/>
</a>
</g>
</g>
<!-- Node13 -->
<g id="Node000013" class="node">
<title>Node13</title>
<g id="a_Node000013"><a xlink:href="_main_game_mode_8cpp.html" target="_top" xlink:title=" ">
<polygon fill="white" stroke="#666666" points="570.25,-38 408,-38 408,-6 570.25,-6 570.25,-38"/>
<text text-anchor="start" x="416" y="-24.5" font-family="Arial" font-size="10.00">MultiplayerShooter</text>
<text text-anchor="middle" x="489.12" y="-12.5" font-family="Arial" font-size="10.00">/GameMode/MainGameMode.cpp</text>
</a>
</g>
</g>
<!-- Node6&#45;&gt;Node13 -->
<g id="edge13_Node000006_Node000013" class="edge">
<title>Node6&#45;&gt;Node13</title>
<g id="a_edge13_Node000006_Node000013"><a xlink:title=" ">
<path fill="none" stroke="#63b8ff" d="M1272.81,-93.93C1126.4,-91.13 828.48,-80.95 579.12,-44 569.44,-42.57 559.27,-40.62 549.38,-38.49"/>
<polygon fill="#63b8ff" stroke="#63b8ff" points="1272.37,-97.43 1282.43,-94.11 1272.49,-90.43 1272.37,-97.43"/>
</a>
</g>
</g>
<!-- Node14 -->
<g id="Node000014" class="node">
<title>Node14</title>
<g id="a_Node000014"><a xlink:href="_chat_8cpp.html" target="_top" xlink:title=" ">
<polygon fill="white" stroke="#666666" points="685.62,-38 588.62,-38 588.62,-6 685.62,-6 685.62,-38"/>
<text text-anchor="start" x="596.62" y="-24.5" font-family="Arial" font-size="10.00">MultiplayerShooter</text>
<text text-anchor="middle" x="637.12" y="-12.5" font-family="Arial" font-size="10.00">/HUD/Chat.cpp</text>
</a>
</g>
</g>
<!-- Node6&#45;&gt;Node14 -->
<g id="edge14_Node000006_Node000014" class="edge">
<title>Node6&#45;&gt;Node14</title>
<g id="a_edge14_Node000006_Node000014"><a xlink:title=" ">
<path fill="none" stroke="#63b8ff" d="M1272.57,-95.81C1143.09,-95.23 898.22,-87.67 695.12,-44 688.63,-42.6 681.88,-40.65 675.38,-38.5"/>
<polygon fill="#63b8ff" stroke="#63b8ff" points="1272.45,-99.31 1282.47,-95.84 1272.48,-92.31 1272.45,-99.31"/>
</a>
</g>
</g>
<!-- Node15 -->
<g id="Node000015" class="node">
<title>Node15</title>
<g id="a_Node000015"><a xlink:href="_my_anim_instance_8cpp.html" target="_top" xlink:title=" ">
<polygon fill="white" stroke="#666666" points="882.12,-38 704.12,-38 704.12,-6 882.12,-6 882.12,-38"/>
<text text-anchor="start" x="712.12" y="-24.5" font-family="Arial" font-size="10.00">MultiplayerShooter</text>
<text text-anchor="middle" x="793.12" y="-12.5" font-family="Arial" font-size="10.00">/MainCharacter/MyAnimInstance.cpp</text>
</a>
</g>
</g>
<!-- Node6&#45;&gt;Node15 -->
<g id="edge16_Node000006_Node000015" class="edge">
<title>Node6&#45;&gt;Node15</title>
<g id="a_edge16_Node000006_Node000015"><a xlink:title=" ">
<path fill="none" stroke="#63b8ff" d="M1272.55,-88.02C1177.25,-80.01 1023.08,-65.21 891.12,-44 881.33,-42.43 871.04,-40.51 860.96,-38.49"/>
<polygon fill="#63b8ff" stroke="#63b8ff" points="1272.11,-91.49 1282.36,-88.83 1272.69,-84.51 1272.11,-91.49"/>
</a>
</g>
</g>
<!-- Node16 -->
<g id="Node000016" class="node">
<title>Node16</title>
<g id="a_Node000016"><a xlink:href="_damage_pickup_8cpp.html" target="_top" xlink:title=" ">
<polygon fill="white" stroke="#666666" points="1042.5,-38 899.75,-38 899.75,-6 1042.5,-6 1042.5,-38"/>
<text text-anchor="start" x="907.75" y="-24.5" font-family="Arial" font-size="10.00">MultiplayerShooter</text>
<text text-anchor="middle" x="971.12" y="-12.5" font-family="Arial" font-size="10.00">/Pickups/DamagePickup.cpp</text>
</a>
</g>
</g>
<!-- Node6&#45;&gt;Node16 -->
<g id="edge17_Node000006_Node000016" class="edge">
<title>Node6&#45;&gt;Node16</title>
<g id="a_edge17_Node000006_Node000016"><a xlink:title=" ">
<path fill="none" stroke="#63b8ff" d="M1272.47,-82.36C1210.21,-73.14 1125.83,-59.56 1052.12,-44 1044.31,-42.35 1036.11,-40.44 1028.06,-38.46"/>
<polygon fill="#63b8ff" stroke="#63b8ff" points="1271.92,-85.82 1282.33,-83.81 1272.94,-78.89 1271.92,-85.82"/>
</a>
</g>
</g>
<!-- Node17 -->
<g id="Node000017" class="node">
<title>Node17</title>
<g id="a_Node000017"><a xlink:href="_health_pickup_8cpp.html" target="_top" xlink:title=" ">
<polygon fill="white" stroke="#666666" points="1195.38,-38 1060.88,-38 1060.88,-6 1195.38,-6 1195.38,-38"/>
<text text-anchor="start" x="1068.88" y="-24.5" font-family="Arial" font-size="10.00">MultiplayerShooter</text>
<text text-anchor="middle" x="1128.12" y="-12.5" font-family="Arial" font-size="10.00">/Pickups/HealthPickup.cpp</text>
</a>
</g>
</g>
<!-- Node6&#45;&gt;Node17 -->
<g id="edge18_Node000006_Node000017" class="edge">
<title>Node6&#45;&gt;Node17</title>
<g id="a_edge18_Node000006_Node000017"><a xlink:title=" ">
<path fill="none" stroke="#63b8ff" d="M1302.17,-76.32C1263.73,-64.55 1214.68,-49.52 1178.46,-38.42"/>
<polygon fill="#63b8ff" stroke="#63b8ff" points="1300.68,-79.53 1311.26,-79.11 1302.73,-72.83 1300.68,-79.53"/>
</a>
</g>
</g>
<!-- Node18 -->
<g id="Node000018" class="node">
<title>Node18</title>
<g id="a_Node000018"><a xlink:href="_speed_pickup_8cpp.html" target="_top" xlink:title=" ">
<polygon fill="white" stroke="#666666" points="1347,-38 1213.25,-38 1213.25,-6 1347,-6 1347,-38"/>
<text text-anchor="start" x="1221.25" y="-24.5" font-family="Arial" font-size="10.00">MultiplayerShooter</text>
<text text-anchor="middle" x="1280.12" y="-12.5" font-family="Arial" font-size="10.00">/Pickups/SpeedPickup.cpp</text>
</a>
</g>
</g>
<!-- Node6&#45;&gt;Node18 -->
<g id="edge19_Node000006_Node000018" class="edge">
<title>Node6&#45;&gt;Node18</title>
<g id="a_edge19_Node000006_Node000018"><a xlink:title=" ">
<path fill="none" stroke="#63b8ff" d="M1337.15,-72.46C1324.42,-61.42 1309.41,-48.4 1297.99,-38.5"/>
<polygon fill="#63b8ff" stroke="#63b8ff" points="1334.53,-74.83 1344.38,-78.74 1339.12,-69.54 1334.53,-74.83"/>
</a>
</g>
</g>
<!-- Node6&#45;&gt;Node19 -->
<g id="edge20_Node000006_Node000019" class="edge">
<title>Node6&#45;&gt;Node19</title>
<g id="a_edge20_Node000006_Node000019"><a xlink:title=" ">
<path fill="none" stroke="#63b8ff" d="M1453.6,-80.25C1454.44,-80.16 1455.29,-80.08 1456.12,-80 1985.08,-29.59 2125.73,-123.33 2651.12,-44 2654.1,-43.55 2657.13,-43.02 2660.18,-42.43"/>
<polygon fill="#63b8ff" stroke="#63b8ff" points="1453.49,-76.74 1443.94,-81.33 1454.27,-83.69 1453.49,-76.74"/>
</a>
</g>
</g>
<!-- Node20 -->
<g id="Node000020" class="node">
<title>Node20</title>
<g id="a_Node000020"><a xlink:href="_main_player_state_8cpp.html" target="_top" xlink:title=" ">
<polygon fill="white" stroke="#666666" points="1529,-38 1365.25,-38 1365.25,-6 1529,-6 1529,-38"/>
<text text-anchor="start" x="1373.25" y="-24.5" font-family="Arial" font-size="10.00">MultiplayerShooter</text>
<text text-anchor="middle" x="1447.12" y="-12.5" font-family="Arial" font-size="10.00">/PlayerState/MainPlayerState.cpp</text>
</a>
</g>
</g>
<!-- Node6&#45;&gt;Node20 -->
<g id="edge21_Node000006_Node000020" class="edge">
<title>Node6&#45;&gt;Node20</title>
<g id="a_edge21_Node000006_Node000020"><a xlink:title=" ">
<path fill="none" stroke="#63b8ff" d="M1389.42,-72.46C1402.3,-61.42 1417.49,-48.4 1429.05,-38.5"/>
<polygon fill="#63b8ff" stroke="#63b8ff" points="1387.4,-69.58 1382.09,-78.75 1391.96,-74.9 1387.4,-69.58"/>
</a>
</g>
</g>
</g>
</svg>
