<?xml version="1.0" encoding="UTF-8" standalone="no"?>
<!DOCTYPE svg PUBLIC "-//W3C//DTD SVG 1.1//EN"
 "http://www.w3.org/Graphics/SVG/1.1/DTD/svg11.dtd">
<!-- Generated by graphviz version 12.2.1 (20241206.2353)
 -->
<!-- Title: MultiplayerShooter/GameMode/MainGameMode.h Pages: 1 -->
<svg width="684pt" height="120pt"
 viewBox="0.00 0.00 683.62 120.00" xmlns="http://www.w3.org/2000/svg" xmlns:xlink="http://www.w3.org/1999/xlink">
<g id="graph0" class="graph" transform="scale(1 1) rotate(0) translate(4 116)">
<title>MultiplayerShooter/GameMode/MainGameMode.h</title>
<!-- Node1 -->
<g id="Node000001" class="node">
<title>Node1</title>
<g id="a_Node000001"><a xlink:title=" ">
<polygon fill="#999999" stroke="#666666" points="430,-112 278.25,-112 278.25,-80 430,-80 430,-112"/>
<text text-anchor="start" x="286.25" y="-98.5" font-family="Arial" font-size="10.00">MultiplayerShooter</text>
<text text-anchor="middle" x="354.12" y="-86.5" font-family="Arial" font-size="10.00">/GameMode/MainGameMode.h</text>
</a>
</g>
</g>
<!-- Node2 -->
<g id="Node000002" class="node">
<title>Node2</title>
<g id="a_Node000002"><a xlink:href="_main_game_mode_8cpp.html" target="_top" xlink:title=" ">
<polygon fill="white" stroke="#666666" points="162.25,-38 0,-38 0,-6 162.25,-6 162.25,-38"/>
<text text-anchor="start" x="8" y="-24.5" font-family="Arial" font-size="10.00">MultiplayerShooter</text>
<text text-anchor="middle" x="81.12" y="-12.5" font-family="Arial" font-size="10.00">/GameMode/MainGameMode.cpp</text>
</a>
</g>
</g>
<!-- Node1&#45;&gt;Node2 -->
<g id="edge1_Node000001_Node000002" class="edge">
<title>Node1&#45;&gt;Node2</title>
<g id="a_edge1_Node000001_Node000002"><a xlink:title=" ">
<path fill="none" stroke="#63b8ff" d="M284.45,-76.63C239.63,-64.8 182.03,-49.61 139.59,-38.42"/>
<polygon fill="#63b8ff" stroke="#63b8ff" points="283.53,-80 294.1,-79.17 285.32,-73.23 283.53,-80"/>
</a>
</g>
</g>
<!-- Node3 -->
<g id="Node000003" class="node">
<title>Node3</title>
<g id="a_Node000003"><a xlink:href="_main_character_8cpp.html" target="_top" xlink:title=" ">
<polygon fill="white" stroke="#666666" points="348.25,-38 180,-38 180,-6 348.25,-6 348.25,-38"/>
<text text-anchor="start" x="188" y="-24.5" font-family="Arial" font-size="10.00">MultiplayerShooter</text>
<text text-anchor="middle" x="264.12" y="-12.5" font-family="Arial" font-size="10.00">/MainCharacter/MainCharacter.cpp</text>
</a>
</g>
</g>
<!-- Node1&#45;&gt;Node3 -->
<g id="edge2_Node000001_Node000003" class="edge">
<title>Node1&#45;&gt;Node3</title>
<g id="a_edge2_Node000001_Node000003"><a xlink:title=" ">
<path fill="none" stroke="#63b8ff" d="M326.35,-72.78C312.46,-61.67 296,-48.5 283.49,-38.5"/>
<polygon fill="#63b8ff" stroke="#63b8ff" points="323.86,-75.27 333.86,-78.79 328.23,-69.81 323.86,-75.27"/>
</a>
</g>
</g>
<!-- Node4 -->
<g id="Node000004" class="node">
<title>Node4</title>
<g id="a_Node000004"><a xlink:href="_pickup_spawn_point_8cpp.html" target="_top" xlink:title=" ">
<polygon fill="white" stroke="#666666" points="524.38,-38 365.88,-38 365.88,-6 524.38,-6 524.38,-38"/>
<text text-anchor="start" x="373.88" y="-24.5" font-family="Arial" font-size="10.00">MultiplayerShooter</text>
<text text-anchor="middle" x="445.12" y="-12.5" font-family="Arial" font-size="10.00">/Pickups/PickupSpawnPoint.cpp</text>
</a>
</g>
</g>
<!-- Node1&#45;&gt;Node4 -->
<g id="edge3_Node000001_Node000004" class="edge">
<title>Node1&#45;&gt;Node4</title>
<g id="a_edge3_Node000001_Node000004"><a xlink:title=" ">
<path fill="none" stroke="#63b8ff" d="M382.21,-72.78C396.25,-61.67 412.9,-48.5 425.54,-38.5"/>
<polygon fill="#63b8ff" stroke="#63b8ff" points="380.28,-69.84 374.61,-78.79 384.62,-75.33 380.28,-69.84"/>
</a>
</g>
</g>
<!-- Node5 -->
<g id="Node000005" class="node">
<title>Node5</title>
<g id="a_Node000005"><a xlink:href="_my_player_controller_8cpp.html" target="_top" xlink:title=" ">
<polygon fill="white" stroke="#666666" points="675.62,-44 542.62,-44 542.62,0 675.62,0 675.62,-44"/>
<text text-anchor="start" x="550.62" y="-30.5" font-family="Arial" font-size="10.00">MultiplayerShooter</text>
<text text-anchor="start" x="550.62" y="-18.5" font-family="Arial" font-size="10.00">/PlayerController/MyPlayer</text>
<text text-anchor="middle" x="609.12" y="-6.5" font-family="Arial" font-size="10.00">Controller.cpp</text>
</a>
</g>
</g>
<!-- Node1&#45;&gt;Node5 -->
<g id="edge4_Node000001_Node000005" class="edge">
<title>Node1&#45;&gt;Node5</title>
<g id="a_edge4_Node000001_Node000005"><a xlink:title=" ">
<path fill="none" stroke="#63b8ff" d="M419.67,-76.49C457.3,-65.87 504.43,-52.56 542.27,-41.88"/>
<polygon fill="#63b8ff" stroke="#63b8ff" points="418.96,-73.06 410.29,-79.14 420.86,-79.79 418.96,-73.06"/>
</a>
</g>
</g>
</g>
</svg>
