<?xml version="1.0" encoding="UTF-8" standalone="no"?>
<!DOCTYPE svg PUBLIC "-//W3C//DTD SVG 1.1//EN"
 "http://www.w3.org/Graphics/SVG/1.1/DTD/svg11.dtd">
<!-- Generated by graphviz version 12.2.1 (20241206.2353)
 -->
<!-- Title: MultiplayerShooter/MainCharacter/MainCharacter.h Pages: 1 -->
<svg width="1042pt" height="232pt"
 viewBox="0.00 0.00 1042.27 232.00" xmlns="http://www.w3.org/2000/svg" xmlns:xlink="http://www.w3.org/1999/xlink">
<g id="graph0" class="graph" transform="scale(1 1) rotate(0) translate(4 228)">
<title>MultiplayerShooter/MainCharacter/MainCharacter.h</title>
<!-- Node1 -->
<g id="Node000001" class="node">
<title>Node1</title>
<g id="a_Node000001"><a xlink:title=" ">
<polygon fill="#999999" stroke="#666666" points="470.77,-224 313.02,-224 313.02,-192 470.77,-192 470.77,-224"/>
<text text-anchor="start" x="321.02" y="-210.5" font-family="Arial" font-size="10.00">MultiplayerShooter</text>
<text text-anchor="middle" x="391.89" y="-198.5" font-family="Arial" font-size="10.00">/MainCharacter/MainCharacter.h</text>
</a>
</g>
</g>
<!-- Node2 -->
<g id="Node000002" class="node">
<title>Node2</title>
<g id="a_Node000002"><a xlink:title=" ">
<polygon fill="#e0e0e0" stroke="#999999" points="569.39,-20 490.39,-20 490.39,0 569.39,0 569.39,-20"/>
<text text-anchor="middle" x="529.89" y="-6.5" font-family="Arial" font-size="10.00">CoreMinimal.h</text>
</a>
</g>
</g>
<!-- Node1&#45;&gt;Node2 -->
<g id="edge1_Node000001_Node000002" class="edge">
<title>Node1&#45;&gt;Node2</title>
<g id="a_edge1_Node000001_Node000002"><a xlink:title=" ">
<path fill="none" stroke="#63b8ff" d="M312.85,-202.03C206.08,-194.5 26.72,-178.63 6.89,-156 -2.48,-145.3 -2.04,-135.07 6.89,-124 65.96,-50.8 358.84,-22.7 478.66,-14.15"/>
<polygon fill="#63b8ff" stroke="#63b8ff" points="478.8,-17.65 488.53,-13.47 478.32,-10.67 478.8,-17.65"/>
</a>
</g>
</g>
<!-- Node3 -->
<g id="Node000003" class="node">
<title>Node3</title>
<g id="a_Node000003"><a xlink:title=" ">
<polygon fill="#e0e0e0" stroke="#999999" points="161.39,-150 16.39,-150 16.39,-130 161.39,-130 161.39,-150"/>
<text text-anchor="middle" x="88.89" y="-136.5" font-family="Arial" font-size="10.00">GameFramework/Character.h</text>
</a>
</g>
</g>
<!-- Node1&#45;&gt;Node3 -->
<g id="edge2_Node000001_Node000003" class="edge">
<title>Node1&#45;&gt;Node3</title>
<g id="a_edge2_Node000001_Node000003"><a xlink:title=" ">
<path fill="none" stroke="#63b8ff" d="M320.85,-191.53C266.65,-179.72 193.1,-163.7 143.46,-152.89"/>
<polygon fill="#63b8ff" stroke="#63b8ff" points="144.32,-149.49 133.8,-150.78 142.83,-156.33 144.32,-149.49"/>
</a>
</g>
</g>
<!-- Node4 -->
<g id="Node000004" class="node">
<title>Node4</title>
<g id="a_Node000004"><a xlink:href="_turning_in_place_8h.html" target="_top" xlink:title=" ">
<polygon fill="white" stroke="#666666" points="300.77,-156 179.02,-156 179.02,-124 300.77,-124 300.77,-156"/>
<text text-anchor="start" x="187.02" y="-142.5" font-family="Arial" font-size="10.00">MultiplayerShooter</text>
<text text-anchor="middle" x="239.89" y="-130.5" font-family="Arial" font-size="10.00">/Types/TurningInPlace.h</text>
</a>
</g>
</g>
<!-- Node1&#45;&gt;Node4 -->
<g id="edge3_Node000001_Node000004" class="edge">
<title>Node1&#45;&gt;Node4</title>
<g id="a_edge3_Node000001_Node000004"><a xlink:title=" ">
<path fill="none" stroke="#63b8ff" d="M356.25,-191.53C335.27,-182.41 308.51,-170.79 285.94,-160.99"/>
<polygon fill="#63b8ff" stroke="#63b8ff" points="287.52,-157.87 276.96,-157.09 284.74,-164.29 287.52,-157.87"/>
</a>
</g>
</g>
<!-- Node5 -->
<g id="Node000005" class="node">
<title>Node5</title>
<g id="a_Node000005"><a xlink:title=" ">
<polygon fill="#e0e0e0" stroke="#999999" points="465.14,-150 318.64,-150 318.64,-130 465.14,-130 465.14,-150"/>
<text text-anchor="middle" x="391.89" y="-136.5" font-family="Arial" font-size="10.00">Camera/CameraComponent.h</text>
</a>
</g>
</g>
<!-- Node1&#45;&gt;Node5 -->
<g id="edge4_Node000001_Node000005" class="edge">
<title>Node1&#45;&gt;Node5</title>
<g id="a_edge4_Node000001_Node000005"><a xlink:title=" ">
<path fill="none" stroke="#63b8ff" d="M391.89,-191.69C391.89,-182.8 391.89,-171.46 391.89,-161.77"/>
<polygon fill="#63b8ff" stroke="#63b8ff" points="395.39,-161.83 391.89,-151.83 388.39,-161.83 395.39,-161.83"/>
</a>
</g>
</g>
<!-- Node6 -->
<g id="Node000006" class="node">
<title>Node6</title>
<g id="a_Node000006"><a xlink:href="_buff_component_8h.html" target="_top" xlink:title=" ">
<polygon fill="white" stroke="#666666" points="660.14,-156 483.64,-156 483.64,-124 660.14,-124 660.14,-156"/>
<text text-anchor="start" x="491.64" y="-142.5" font-family="Arial" font-size="10.00">MultiplayerShooter</text>
<text text-anchor="middle" x="571.89" y="-130.5" font-family="Arial" font-size="10.00">/ActorComponents/BuffComponent.h</text>
</a>
</g>
</g>
<!-- Node1&#45;&gt;Node6 -->
<g id="edge5_Node000001_Node000006" class="edge">
<title>Node1&#45;&gt;Node6</title>
<g id="a_edge5_Node000001_Node000006"><a xlink:title=" ">
<path fill="none" stroke="#63b8ff" d="M434.09,-191.53C459.5,-182.21 492.08,-170.27 519.17,-160.33"/>
<polygon fill="#63b8ff" stroke="#63b8ff" points="520.04,-163.74 528.22,-157.01 517.63,-157.17 520.04,-163.74"/>
</a>
</g>
</g>
<!-- Node9 -->
<g id="Node000009" class="node">
<title>Node9</title>
<g id="a_Node000009"><a xlink:href="_combat_component_8h.html" target="_top" xlink:title=" ">
<polygon fill="white" stroke="#666666" points="871.77,-156 678.02,-156 678.02,-124 871.77,-124 871.77,-156"/>
<text text-anchor="start" x="686.02" y="-142.5" font-family="Arial" font-size="10.00">MultiplayerShooter</text>
<text text-anchor="middle" x="774.89" y="-130.5" font-family="Arial" font-size="10.00">/ActorComponents/CombatComponent.h</text>
</a>
</g>
</g>
<!-- Node1&#45;&gt;Node9 -->
<g id="edge9_Node000001_Node000009" class="edge">
<title>Node1&#45;&gt;Node9</title>
<g id="a_edge9_Node000001_Node000009"><a xlink:title=" ">
<path fill="none" stroke="#63b8ff" d="M471.25,-193.32C530.06,-183.19 610.64,-169.3 674.02,-158.38"/>
<polygon fill="#63b8ff" stroke="#63b8ff" points="674.49,-161.85 683.75,-156.71 673.3,-154.96 674.49,-161.85"/>
</a>
</g>
</g>
<!-- Node14 -->
<g id="Node000014" class="node">
<title>Node14</title>
<g id="a_Node000014"><a xlink:title=" ">
<polygon fill="#e0e0e0" stroke="#999999" points="1023.77,-150 890.02,-150 890.02,-130 1023.77,-130 1023.77,-150"/>
<text text-anchor="middle" x="956.89" y="-136.5" font-family="Arial" font-size="10.00">MainCharacter.generated.h</text>
</a>
</g>
</g>
<!-- Node1&#45;&gt;Node14 -->
<g id="edge17_Node000001_Node000014" class="edge">
<title>Node1&#45;&gt;Node14</title>
<g id="a_edge17_Node000001_Node000014"><a xlink:title=" ">
<path fill="none" stroke="#63b8ff" d="M470.94,-200.98C567.85,-193.09 736.98,-177.66 880.89,-156 887.45,-155.01 894.31,-153.85 901.1,-152.61"/>
<polygon fill="#63b8ff" stroke="#63b8ff" points="901.74,-156.05 910.92,-150.76 900.44,-149.18 901.74,-156.05"/>
</a>
</g>
</g>
<!-- Node6&#45;&gt;Node2 -->
<g id="edge6_Node000006_Node000002" class="edge">
<title>Node6&#45;&gt;Node2</title>
<g id="a_edge6_Node000006_Node000002"><a xlink:title=" ">
<path fill="none" stroke="#63b8ff" d="M483.27,-125.05C441.97,-116.56 399.23,-104.2 386.89,-88 358.48,-50.7 427.32,-29.37 479.06,-19"/>
<polygon fill="#63b8ff" stroke="#63b8ff" points="479.47,-22.48 488.64,-17.17 478.16,-15.6 479.47,-22.48"/>
</a>
</g>
</g>
<!-- Node7 -->
<g id="Node000007" class="node">
<title>Node7</title>
<g id="a_Node000007"><a xlink:title=" ">
<polygon fill="#e0e0e0" stroke="#999999" points="708.02,-82 551.77,-82 551.77,-62 708.02,-62 708.02,-82"/>
<text text-anchor="middle" x="629.89" y="-68.5" font-family="Arial" font-size="10.00">Components/ActorComponent.h</text>
</a>
</g>
</g>
<!-- Node6&#45;&gt;Node7 -->
<g id="edge7_Node000006_Node000007" class="edge">
<title>Node6&#45;&gt;Node7</title>
<g id="a_edge7_Node000006_Node000007"><a xlink:title=" ">
<path fill="none" stroke="#63b8ff" d="M585.34,-123.69C593.95,-113.9 605.16,-101.15 614.17,-90.89"/>
<polygon fill="#63b8ff" stroke="#63b8ff" points="616.73,-93.28 620.71,-83.45 611.48,-88.65 616.73,-93.28"/>
</a>
</g>
</g>
<!-- Node8 -->
<g id="Node000008" class="node">
<title>Node8</title>
<g id="a_Node000008"><a xlink:title=" ">
<polygon fill="#e0e0e0" stroke="#999999" points="533.64,-82 396.14,-82 396.14,-62 533.64,-62 533.64,-82"/>
<text text-anchor="middle" x="464.89" y="-68.5" font-family="Arial" font-size="10.00">BuffComponent.generated.h</text>
</a>
</g>
</g>
<!-- Node6&#45;&gt;Node8 -->
<g id="edge8_Node000006_Node000008" class="edge">
<title>Node6&#45;&gt;Node8</title>
<g id="a_edge8_Node000006_Node000008"><a xlink:title=" ">
<path fill="none" stroke="#63b8ff" d="M546.81,-123.53C529.56,-112.89 506.76,-98.83 489.6,-88.24"/>
<polygon fill="#63b8ff" stroke="#63b8ff" points="491.87,-85.53 481.52,-83.25 488.19,-91.48 491.87,-85.53"/>
</a>
</g>
</g>
<!-- Node9&#45;&gt;Node2 -->
<g id="edge10_Node000009_Node000002" class="edge">
<title>Node9&#45;&gt;Node2</title>
<g id="a_edge10_Node000009_Node000002"><a xlink:title=" ">
<path fill="none" stroke="#63b8ff" d="M768.32,-123.56C759.47,-104.65 741.87,-73.04 716.89,-56 676.47,-28.43 621.05,-17.68 581.05,-13.53"/>
<polygon fill="#63b8ff" stroke="#63b8ff" points="581.47,-10.05 571.19,-12.62 580.83,-17.02 581.47,-10.05"/>
</a>
</g>
</g>
<!-- Node9&#45;&gt;Node7 -->
<g id="edge11_Node000009_Node000007" class="edge">
<title>Node9&#45;&gt;Node7</title>
<g id="a_edge11_Node000009_Node000007"><a xlink:title=" ">
<path fill="none" stroke="#63b8ff" d="M740.9,-123.53C716.76,-112.54 684.6,-97.9 661.12,-87.21"/>
<polygon fill="#63b8ff" stroke="#63b8ff" points="662.6,-84.04 652.05,-83.09 659.7,-90.42 662.6,-84.04"/>
</a>
</g>
</g>
<!-- Node10 -->
<g id="Node000010" class="node">
<title>Node10</title>
<g id="a_Node000010"><a xlink:href="_main_h_u_d_8h.html" target="_top" xlink:title=" ">
<polygon fill="white" stroke="#666666" points="861.39,-88 764.39,-88 764.39,-56 861.39,-56 861.39,-88"/>
<text text-anchor="start" x="772.39" y="-74.5" font-family="Arial" font-size="10.00">MultiplayerShooter</text>
<text text-anchor="middle" x="812.89" y="-62.5" font-family="Arial" font-size="10.00">/HUD/MainHUD.h</text>
</a>
</g>
</g>
<!-- Node9&#45;&gt;Node10 -->
<g id="edge12_Node000009_Node000010" class="edge">
<title>Node9&#45;&gt;Node10</title>
<g id="a_edge12_Node000009_Node000010"><a xlink:title=" ">
<path fill="none" stroke="#63b8ff" d="M783.71,-123.69C788.07,-116.11 793.45,-106.76 798.4,-98.17"/>
<polygon fill="#63b8ff" stroke="#63b8ff" points="801.41,-99.95 803.37,-89.54 795.35,-96.46 801.41,-99.95"/>
</a>
</g>
</g>
<!-- Node13 -->
<g id="Node000013" class="node">
<title>Node13</title>
<g id="a_Node000013"><a xlink:title=" ">
<polygon fill="#e0e0e0" stroke="#999999" points="1034.27,-82 879.52,-82 879.52,-62 1034.27,-62 1034.27,-82"/>
<text text-anchor="middle" x="956.89" y="-68.5" font-family="Arial" font-size="10.00">CombatComponent.generated.h</text>
</a>
</g>
</g>
<!-- Node9&#45;&gt;Node13 -->
<g id="edge16_Node000009_Node000013" class="edge">
<title>Node9&#45;&gt;Node13</title>
<g id="a_edge16_Node000009_Node000013"><a xlink:title=" ">
<path fill="none" stroke="#63b8ff" d="M817.56,-123.53C848.68,-112.24 890.42,-97.11 920.08,-86.35"/>
<polygon fill="#63b8ff" stroke="#63b8ff" points="921.17,-89.68 929.38,-82.98 918.79,-83.09 921.17,-89.68"/>
</a>
</g>
</g>
<!-- Node10&#45;&gt;Node2 -->
<g id="edge13_Node000010_Node000002" class="edge">
<title>Node10&#45;&gt;Node2</title>
<g id="a_edge13_Node000010_Node000002"><a xlink:title=" ">
<path fill="none" stroke="#63b8ff" d="M764.09,-59.22C759.3,-58.11 754.5,-57.02 749.89,-56 692.11,-43.22 625.51,-29.77 580.86,-20.94"/>
<polygon fill="#63b8ff" stroke="#63b8ff" points="581.69,-17.54 571.2,-19.04 580.34,-24.41 581.69,-17.54"/>
</a>
</g>
</g>
<!-- Node11 -->
<g id="Node000011" class="node">
<title>Node11</title>
<g id="a_Node000011"><a xlink:title=" ">
<polygon fill="#e0e0e0" stroke="#999999" points="806.27,-20 681.52,-20 681.52,0 806.27,0 806.27,-20"/>
<text text-anchor="middle" x="743.89" y="-6.5" font-family="Arial" font-size="10.00">GameFramework/HUD.h</text>
</a>
</g>
</g>
<!-- Node10&#45;&gt;Node11 -->
<g id="edge14_Node000010_Node000011" class="edge">
<title>Node10&#45;&gt;Node11</title>
<g id="a_edge14_Node000010_Node000011"><a xlink:title=" ">
<path fill="none" stroke="#63b8ff" d="M795.12,-55.55C785.34,-47.04 773.19,-36.48 763.18,-27.77"/>
<polygon fill="#63b8ff" stroke="#63b8ff" points="765.7,-25.32 755.85,-21.4 761.1,-30.6 765.7,-25.32"/>
</a>
</g>
</g>
<!-- Node12 -->
<g id="Node000012" class="node">
<title>Node12</title>
<g id="a_Node000012"><a xlink:title=" ">
<polygon fill="#e0e0e0" stroke="#999999" points="937.64,-20 824.14,-20 824.14,0 937.64,0 937.64,-20"/>
<text text-anchor="middle" x="880.89" y="-6.5" font-family="Arial" font-size="10.00">MainHUD.generated.h</text>
</a>
</g>
</g>
<!-- Node10&#45;&gt;Node12 -->
<g id="edge15_Node000010_Node000012" class="edge">
<title>Node10&#45;&gt;Node12</title>
<g id="a_edge15_Node000010_Node000012"><a xlink:title=" ">
<path fill="none" stroke="#63b8ff" d="M830.4,-55.55C840.04,-47.04 852.02,-36.48 861.89,-27.77"/>
<polygon fill="#63b8ff" stroke="#63b8ff" points="863.91,-30.65 869.09,-21.41 859.28,-25.4 863.91,-30.65"/>
</a>
</g>
</g>
</g>
</svg>
