<?xml version="1.0" encoding="UTF-8" standalone="no"?>
<!DOCTYPE svg PUBLIC "-//W3C//DTD SVG 1.1//EN"
 "http://www.w3.org/Graphics/SVG/1.1/DTD/svg11.dtd">
<!-- Generated by graphviz version 12.2.1 (20241206.2353)
 -->
<!-- Title: MultiplayerShooter/MainCharacter/MainCharacter.h Pages: 1 -->
<!--zoomable 120 -->

<svg id="main" version="1.1" xmlns="http://www.w3.org/2000/svg" xmlns:xlink="http://www.w3.org/1999/xlink" xml:space="preserve" onload="init(evt)">

<style type="text/css"><![CDATA[
.node, .edge {opacity: 0.7;}
.node.selected, .edge.selected {opacity: 1;}
.edge:hover path { stroke: red; }
.edge:hover polygon { stroke: red; fill: red; }
]]></style>

<defs>
  <circle id="rim" cx="0" cy="0" r="7"/>
  <circle id="rim2" cx="0" cy="0" r="3.5"/>
  <g id="zoomPlus">
    <use xlink:href="#rim" fill="#404040"><set attributeName="fill" to="#808080" begin="zoomplus.mouseover" end="zoomplus.mouseout"/></use>
    <path d="M-4,0h8M0,-4v8" fill="none" stroke="white" stroke-width="1.5" pointer-events="none"/>
  </g>
  <g id="zoomMin">
    <use xlink:href="#rim" fill="#404040"><set attributeName="fill" to="#808080" begin="zoomminus.mouseover" end="zoomminus.mouseout"/></use>
    <path d="M-4,0h8" fill="none" stroke="white" stroke-width="1.5" pointer-events="none"/>
  </g>
  <g id="arrowUp" transform="translate(30 24)">
    <use xlink:href="#rim"/>
    <path pointer-events="none" fill="none" stroke="white" stroke-width="1.5" d="M0,-3.0v7 M-2.5,-0.5L0,-3.0L2.5,-0.5"/>
  </g>
  <g id="arrowRight" transform="rotate(90) translate(36 -43)">
    <use xlink:href="#rim"/>
    <path pointer-events="none" fill="none" stroke="white" stroke-width="1.5" d="M0,-3.0v7 M-2.5,-0.5L0,-3.0L2.5,-0.5"/>
  </g>
  <g id="arrowDown" transform="rotate(180) translate(-30 -48)">
    <use xlink:href="#rim"/>
    <path pointer-events="none" fill="none" stroke="white" stroke-width="1.5" d="M0,-3.0v7 M-2.5,-0.5L0,-3.0L2.5,-0.5"/>
  </g>
  <g id="arrowLeft" transform="rotate(270) translate(-36 17)">
    <use xlink:href="#rim"/>
    <path pointer-events="none" fill="none" stroke="white" stroke-width="1.5" d="M0,-3.0v7 M-2.5,-0.5L0,-3.0L2.5,-0.5"/>
  </g>
  <g id="resetDef">
    <use xlink:href="#rim2" fill="#404040"><set attributeName="fill" to="#808080" begin="reset.mouseover" end="reset.mouseout"/></use>
  </g>
</defs>
<script type="application/ecmascript">
var viewWidth = 2802;
var viewHeight = 120;
var sectionId = 'dynsection-1';
</script>
<script type="application/ecmascript" xlink:href="svg.min.js"/>
<svg id="graph" class="graph">
<g id="viewport">
<title>MultiplayerShooter/MainCharacter/MainCharacter.h</title>
<!-- Node1 -->
<g id="Node000001" class="node">
<title>Node1</title>
<g id="a_Node000001"><a xlink:title=" ">
<polygon fill="#999999" stroke="#666666" points="1571.38,-112 1413.62,-112 1413.62,-80 1571.38,-80 1571.38,-112"/>
<text text-anchor="start" x="1421.62" y="-98.5" font-family="Arial" font-size="10.00">MultiplayerShooter</text>
<text text-anchor="middle" x="1492.5" y="-86.5" font-family="Arial" font-size="10.00">/MainCharacter/MainCharacter.h</text>
</a>
</g>
</g>
<!-- Node2 -->
<g id="Node000002" class="node">
<title>Node2</title>
<g id="a_Node000002"><a xlink:href="_buff_component_8cpp.html" target="_top" xlink:title=" ">
<polygon fill="white" stroke="#666666" points="187,-38 0,-38 0,-6 187,-6 187,-38"/>
<text text-anchor="start" x="8" y="-24.5" font-family="Arial" font-size="10.00">MultiplayerShooter</text>
<text text-anchor="middle" x="93.5" y="-12.5" font-family="Arial" font-size="10.00">/ActorComponents/BuffComponent.cpp</text>
</a>
</g>
</g>
<!-- Node1&#45;&gt;Node2 -->
<g id="edge1_Node000001_Node000002" class="edge">
<title>Node1&#45;&gt;Node2</title>
<g id="a_edge1_Node000001_Node000002"><a xlink:title=" ">
<path fill="none" stroke="#63b8ff" d="M1402.15,-93.35C1148.03,-88.4 430.43,-72.26 196.5,-44 185.09,-42.62 173.05,-40.65 161.39,-38.46"/>
<polygon fill="#63b8ff" stroke="#63b8ff" points="1401.95,-96.84 1412.02,-93.54 1402.09,-89.85 1401.95,-96.84"/>
</a>
</g>
</g>
<!-- Node3 -->
<g id="Node000003" class="node">
<title>Node3</title>
<g id="a_Node000003"><a xlink:href="_combat_component_8cpp.html" target="_top" xlink:title=" ">
<polygon fill="white" stroke="#666666" points="409.62,-38 205.38,-38 205.38,-6 409.62,-6 409.62,-38"/>
<text text-anchor="start" x="213.38" y="-24.5" font-family="Arial" font-size="10.00">MultiplayerShooter</text>
<text text-anchor="middle" x="307.5" y="-12.5" font-family="Arial" font-size="10.00">/ActorComponents/CombatComponent.cpp</text>
</a>
</g>
</g>
<!-- Node1&#45;&gt;Node3 -->
<g id="edge2_Node000001_Node000003" class="edge">
<title>Node1&#45;&gt;Node3</title>
<g id="a_edge2_Node000001_Node000003"><a xlink:title=" ">
<path fill="none" stroke="#63b8ff" d="M1402.06,-94.95C1216.84,-93.93 781.22,-86.71 418.5,-44 406.42,-42.58 393.69,-40.61 381.32,-38.45"/>
<polygon fill="#63b8ff" stroke="#63b8ff" points="1401.83,-98.45 1411.85,-95 1401.87,-91.45 1401.83,-98.45"/>
</a>
</g>
</g>
<!-- Node4 -->
<g id="Node000004" class="node">
<title>Node4</title>
<g id="a_Node000004"><a xlink:href="_lag_compensation_component_8cpp.html" target="_top" xlink:title=" ">
<polygon fill="white" stroke="#666666" points="607.25,-44 427.75,-44 427.75,0 607.25,0 607.25,-44"/>
<text text-anchor="start" x="435.75" y="-30.5" font-family="Arial" font-size="10.00">MultiplayerShooter</text>
<text text-anchor="start" x="435.75" y="-18.5" font-family="Arial" font-size="10.00">/ActorComponents/LagCompensation</text>
<text text-anchor="middle" x="517.5" y="-6.5" font-family="Arial" font-size="10.00">Component.cpp</text>
</a>
</g>
</g>
<!-- Node1&#45;&gt;Node4 -->
<g id="edge3_Node000001_Node000004" class="edge">
<title>Node1&#45;&gt;Node4</title>
<g id="a_edge3_Node000001_Node000004"><a xlink:title=" ">
<path fill="none" stroke="#63b8ff" d="M1402.14,-94.22C1242.77,-91.86 901.62,-82.32 616.5,-44 613.54,-43.6 610.54,-43.16 607.51,-42.69"/>
<polygon fill="#63b8ff" stroke="#63b8ff" points="1401.73,-97.72 1411.78,-94.36 1401.83,-90.72 1401.73,-97.72"/>
</a>
</g>
</g>
<!-- Node5 -->
<g id="Node000005" class="node">
<title>Node5</title>
<g id="a_Node000005"><a xlink:href="_base_weapon_8cpp.html" target="_top" xlink:title=" ">
<polygon fill="white" stroke="#666666" points="781.62,-38 625.38,-38 625.38,-6 781.62,-6 781.62,-38"/>
<text text-anchor="start" x="633.38" y="-24.5" font-family="Arial" font-size="10.00">MultiplayerShooter</text>
<text text-anchor="middle" x="703.5" y="-12.5" font-family="Arial" font-size="10.00">/BaseWeapon/BaseWeapon.cpp</text>
</a>
</g>
</g>
<!-- Node1&#45;&gt;Node5 -->
<g id="edge4_Node000001_Node000005" class="edge">
<title>Node1&#45;&gt;Node5</title>
<g id="a_edge4_Node000001_Node000005"><a xlink:title=" ">
<path fill="none" stroke="#63b8ff" d="M1401.78,-93.08C1267.65,-89.18 1008.86,-77.62 791.5,-44 782.03,-42.54 772.08,-40.58 762.41,-38.44"/>
<polygon fill="#63b8ff" stroke="#63b8ff" points="1401.58,-96.57 1411.67,-93.36 1401.77,-89.57 1401.58,-96.57"/>
</a>
</g>
</g>
<!-- Node6 -->
<g id="Node000006" class="node">
<title>Node6</title>
<g id="a_Node000006"><a xlink:href="_projectile_8cpp.html" target="_top" xlink:title=" ">
<polygon fill="white" stroke="#666666" points="960.88,-44 800.12,-44 800.12,0 960.88,0 960.88,-44"/>
<text text-anchor="start" x="808.12" y="-30.5" font-family="Arial" font-size="10.00">MultiplayerShooter</text>
<text text-anchor="start" x="808.12" y="-18.5" font-family="Arial" font-size="10.00">/BaseWeapon/ProjectileWeapons</text>
<text text-anchor="middle" x="880.5" y="-6.5" font-family="Arial" font-size="10.00">/Projectile.cpp</text>
</a>
</g>
</g>
<!-- Node1&#45;&gt;Node6 -->
<g id="edge5_Node000001_Node000006" class="edge">
<title>Node1&#45;&gt;Node6</title>
<g id="a_edge5_Node000001_Node000006"><a xlink:title=" ">
<path fill="none" stroke="#63b8ff" d="M1401.93,-89.79C1297.45,-82.93 1120.75,-68.76 970.5,-44 967.49,-43.5 964.43,-42.97 961.35,-42.4"/>
<polygon fill="#63b8ff" stroke="#63b8ff" points="1401.66,-93.28 1411.86,-90.43 1402.11,-86.29 1401.66,-93.28"/>
</a>
</g>
</g>
<!-- Node7 -->
<g id="Node000007" class="node">
<title>Node7</title>
<g id="a_Node000007"><a xlink:href="_projectile_bullet_8cpp.html" target="_top" xlink:title=" ">
<polygon fill="white" stroke="#666666" points="1139.88,-44 979.12,-44 979.12,0 1139.88,0 1139.88,-44"/>
<text text-anchor="start" x="987.12" y="-30.5" font-family="Arial" font-size="10.00">MultiplayerShooter</text>
<text text-anchor="start" x="987.12" y="-18.5" font-family="Arial" font-size="10.00">/BaseWeapon/ProjectileWeapons</text>
<text text-anchor="middle" x="1059.5" y="-6.5" font-family="Arial" font-size="10.00">/ProjectileBullet.cpp</text>
</a>
</g>
</g>
<!-- Node1&#45;&gt;Node7 -->
<g id="edge6_Node000001_Node000007" class="edge">
<title>Node1&#45;&gt;Node7</title>
<g id="a_edge6_Node000001_Node000007"><a xlink:title=" ">
<path fill="none" stroke="#63b8ff" d="M1401.87,-83.58C1332.52,-74.34 1234.65,-60.24 1149.5,-44 1146.35,-43.4 1143.14,-42.76 1139.9,-42.1"/>
<polygon fill="#63b8ff" stroke="#63b8ff" points="1401.3,-87.03 1411.67,-84.88 1402.22,-80.09 1401.3,-87.03"/>
</a>
</g>
</g>
<!-- Node8 -->
<g id="Node000008" class="node">
<title>Node8</title>
<g id="a_Node000008"><a xlink:href="_projectile_weapon_8cpp.html" target="_top" xlink:title=" ">
<polygon fill="white" stroke="#666666" points="1318.88,-44 1158.12,-44 1158.12,0 1318.88,0 1318.88,-44"/>
<text text-anchor="start" x="1166.12" y="-30.5" font-family="Arial" font-size="10.00">MultiplayerShooter</text>
<text text-anchor="start" x="1166.12" y="-18.5" font-family="Arial" font-size="10.00">/BaseWeapon/ProjectileWeapons</text>
<text text-anchor="middle" x="1238.5" y="-6.5" font-family="Arial" font-size="10.00">/ProjectileWeapon.cpp</text>
</a>
</g>
</g>
<!-- Node1&#45;&gt;Node8 -->
<g id="edge7_Node000001_Node000008" class="edge">
<title>Node1&#45;&gt;Node8</title>
<g id="a_edge7_Node000001_Node000008"><a xlink:title=" ">
<path fill="none" stroke="#63b8ff" d="M1427.1,-76.46C1392.57,-66.67 1350.03,-54.62 1314.1,-44.43"/>
<polygon fill="#63b8ff" stroke="#63b8ff" points="1425.98,-79.78 1436.55,-79.14 1427.89,-73.05 1425.98,-79.78"/>
</a>
</g>
</g>
<!-- Node9 -->
<g id="Node000009" class="node">
<title>Node9</title>
<g id="a_Node000009"><a xlink:href="_main_game_mode_8cpp.html" target="_top" xlink:title=" ">
<polygon fill="white" stroke="#666666" points="1499.62,-38 1337.38,-38 1337.38,-6 1499.62,-6 1499.62,-38"/>
<text text-anchor="start" x="1345.38" y="-24.5" font-family="Arial" font-size="10.00">MultiplayerShooter</text>
<text text-anchor="middle" x="1418.5" y="-12.5" font-family="Arial" font-size="10.00">/GameMode/MainGameMode.cpp</text>
</a>
</g>
</g>
<!-- Node1&#45;&gt;Node9 -->
<g id="edge8_Node000001_Node000009" class="edge">
<title>Node1&#45;&gt;Node9</title>
<g id="a_edge8_Node000001_Node000009"><a xlink:title=" ">
<path fill="none" stroke="#63b8ff" d="M1468.68,-71.82C1457.47,-60.92 1444.41,-48.21 1434.43,-38.5"/>
<polygon fill="#63b8ff" stroke="#63b8ff" points="1466.11,-74.21 1475.72,-78.68 1471,-69.19 1466.11,-74.21"/>
</a>
</g>
</g>
<!-- Node10 -->
<g id="Node000010" class="node">
<title>Node10</title>
<g id="a_Node000010"><a xlink:href="_chat_8cpp.html" target="_top" xlink:title=" ">
<polygon fill="white" stroke="#666666" points="1615,-38 1518,-38 1518,-6 1615,-6 1615,-38"/>
<text text-anchor="start" x="1526" y="-24.5" font-family="Arial" font-size="10.00">MultiplayerShooter</text>
<text text-anchor="middle" x="1566.5" y="-12.5" font-family="Arial" font-size="10.00">/HUD/Chat.cpp</text>
</a>
</g>
</g>
<!-- Node1&#45;&gt;Node10 -->
<g id="edge9_Node000001_Node000010" class="edge">
<title>Node1&#45;&gt;Node10</title>
<g id="a_edge9_Node000001_Node000010"><a xlink:title=" ">
<path fill="none" stroke="#63b8ff" d="M1516.32,-71.82C1527.53,-60.92 1540.59,-48.21 1550.57,-38.5"/>
<polygon fill="#63b8ff" stroke="#63b8ff" points="1514,-69.19 1509.28,-78.68 1518.89,-74.21 1514,-69.19"/>
</a>
</g>
</g>
<!-- Node11 -->
<g id="Node000011" class="node">
<title>Node11</title>
<g id="a_Node000011"><a xlink:href="_main_character_8cpp.html" target="_top" xlink:title=" ">
<polygon fill="white" stroke="#666666" points="1801.62,-38 1633.38,-38 1633.38,-6 1801.62,-6 1801.62,-38"/>
<text text-anchor="start" x="1641.38" y="-24.5" font-family="Arial" font-size="10.00">MultiplayerShooter</text>
<text text-anchor="middle" x="1717.5" y="-12.5" font-family="Arial" font-size="10.00">/MainCharacter/MainCharacter.cpp</text>
</a>
</g>
</g>
<!-- Node1&#45;&gt;Node11 -->
<g id="edge10_Node000001_Node000011" class="edge">
<title>Node1&#45;&gt;Node11</title>
<g id="a_edge10_Node000001_Node000011"><a xlink:title=" ">
<path fill="none" stroke="#63b8ff" d="M1551.33,-76.17C1588.07,-64.42 1634.78,-49.47 1669.31,-38.42"/>
<polygon fill="#63b8ff" stroke="#63b8ff" points="1550.67,-72.71 1542.21,-79.09 1552.8,-79.38 1550.67,-72.71"/>
</a>
</g>
</g>
<!-- Node12 -->
<g id="Node000012" class="node">
<title>Node12</title>
<g id="a_Node000012"><a xlink:href="_my_anim_instance_8cpp.html" target="_top" xlink:title=" ">
<polygon fill="white" stroke="#666666" points="1997.5,-38 1819.5,-38 1819.5,-6 1997.5,-6 1997.5,-38"/>
<text text-anchor="start" x="1827.5" y="-24.5" font-family="Arial" font-size="10.00">MultiplayerShooter</text>
<text text-anchor="middle" x="1908.5" y="-12.5" font-family="Arial" font-size="10.00">/MainCharacter/MyAnimInstance.cpp</text>
</a>
</g>
</g>
<!-- Node1&#45;&gt;Node12 -->
<g id="edge11_Node000001_Node000012" class="edge">
<title>Node1&#45;&gt;Node12</title>
<g id="a_edge11_Node000001_Node000012"><a xlink:title=" ">
<path fill="none" stroke="#63b8ff" d="M1582.98,-81.77C1646.74,-72.14 1734.03,-58.32 1810.5,-44 1819.56,-42.3 1829.08,-40.41 1838.46,-38.47"/>
<polygon fill="#63b8ff" stroke="#63b8ff" points="1582.63,-78.28 1573.26,-83.23 1583.67,-85.21 1582.63,-78.28"/>
</a>
</g>
</g>
<!-- Node13 -->
<g id="Node000013" class="node">
<title>Node13</title>
<g id="a_Node000013"><a xlink:href="_damage_pickup_8cpp.html" target="_top" xlink:title=" ">
<polygon fill="white" stroke="#666666" points="2157.88,-38 2015.12,-38 2015.12,-6 2157.88,-6 2157.88,-38"/>
<text text-anchor="start" x="2023.12" y="-24.5" font-family="Arial" font-size="10.00">MultiplayerShooter</text>
<text text-anchor="middle" x="2086.5" y="-12.5" font-family="Arial" font-size="10.00">/Pickups/DamagePickup.cpp</text>
</a>
</g>
</g>
<!-- Node1&#45;&gt;Node13 -->
<g id="edge12_Node000001_Node000013" class="edge">
<title>Node1&#45;&gt;Node13</title>
<g id="a_edge12_Node000001_Node000013"><a xlink:title=" ">
<path fill="none" stroke="#63b8ff" d="M1583.15,-90.34C1686.3,-84.04 1859.54,-70.41 2006.5,-44 2014.98,-42.48 2023.88,-40.51 2032.54,-38.4"/>
<polygon fill="#63b8ff" stroke="#63b8ff" points="1583.13,-86.84 1573.36,-90.93 1583.55,-93.82 1583.13,-86.84"/>
</a>
</g>
</g>
<!-- Node14 -->
<g id="Node000014" class="node">
<title>Node14</title>
<g id="a_Node000014"><a xlink:href="_health_pickup_8cpp.html" target="_top" xlink:title=" ">
<polygon fill="white" stroke="#666666" points="2310.75,-38 2176.25,-38 2176.25,-6 2310.75,-6 2310.75,-38"/>
<text text-anchor="start" x="2184.25" y="-24.5" font-family="Arial" font-size="10.00">MultiplayerShooter</text>
<text text-anchor="middle" x="2243.5" y="-12.5" font-family="Arial" font-size="10.00">/Pickups/HealthPickup.cpp</text>
</a>
</g>
</g>
<!-- Node1&#45;&gt;Node14 -->
<g id="edge13_Node000001_Node000014" class="edge">
<title>Node1&#45;&gt;Node14</title>
<g id="a_edge13_Node000001_Node000014"><a xlink:title=" ">
<path fill="none" stroke="#63b8ff" d="M1583.16,-93.61C1713.2,-90.39 1959.82,-79.67 2166.5,-44 2174.83,-42.56 2183.56,-40.62 2192.03,-38.49"/>
<polygon fill="#63b8ff" stroke="#63b8ff" points="1583.13,-90.11 1573.22,-93.85 1583.3,-97.11 1583.13,-90.11"/>
</a>
</g>
</g>
<!-- Node15 -->
<g id="Node000015" class="node">
<title>Node15</title>
<g id="a_Node000015"><a xlink:href="_speed_pickup_8cpp.html" target="_top" xlink:title=" ">
<polygon fill="white" stroke="#666666" points="2462.38,-38 2328.62,-38 2328.62,-6 2462.38,-6 2462.38,-38"/>
<text text-anchor="start" x="2336.62" y="-24.5" font-family="Arial" font-size="10.00">MultiplayerShooter</text>
<text text-anchor="middle" x="2395.5" y="-12.5" font-family="Arial" font-size="10.00">/Pickups/SpeedPickup.cpp</text>
</a>
</g>
</g>
<!-- Node1&#45;&gt;Node15 -->
<g id="edge14_Node000001_Node000015" class="edge">
<title>Node1&#45;&gt;Node15</title>
<g id="a_edge14_Node000001_Node000015"><a xlink:title=" ">
<path fill="none" stroke="#63b8ff" d="M1582.96,-95.54C1735.8,-95.1 2054.43,-88.3 2319.5,-44 2327.87,-42.6 2336.65,-40.65 2345.14,-38.49"/>
<polygon fill="#63b8ff" stroke="#63b8ff" points="1583.3,-92.04 1573.31,-95.56 1583.32,-99.04 1583.3,-92.04"/>
</a>
</g>
</g>
<!-- Node16 -->
<g id="Node000016" class="node">
<title>Node16</title>
<g id="a_Node000016"><a xlink:href="_my_player_controller_8cpp.html" target="_top" xlink:title=" ">
<polygon fill="white" stroke="#666666" points="2613,-44 2480,-44 2480,0 2613,0 2613,-44"/>
<text text-anchor="start" x="2488" y="-30.5" font-family="Arial" font-size="10.00">MultiplayerShooter</text>
<text text-anchor="start" x="2488" y="-18.5" font-family="Arial" font-size="10.00">/PlayerController/MyPlayer</text>
<text text-anchor="middle" x="2546.5" y="-6.5" font-family="Arial" font-size="10.00">Controller.cpp</text>
</a>
</g>
</g>
<!-- Node1&#45;&gt;Node16 -->
<g id="edge15_Node000001_Node000016" class="edge">
<title>Node1&#45;&gt;Node16</title>
<g id="a_edge15_Node000001_Node000016"><a xlink:title=" ">
<path fill="none" stroke="#63b8ff" d="M1582.82,-92.85C1791.47,-87.46 2302.05,-71.79 2471.5,-44 2474.17,-43.56 2476.88,-43.07 2479.61,-42.52"/>
<polygon fill="#63b8ff" stroke="#63b8ff" points="1583.03,-89.34 1573.13,-93.09 1583.21,-96.34 1583.03,-89.34"/>
</a>
</g>
</g>
<!-- Node17 -->
<g id="Node000017" class="node">
<title>Node17</title>
<g id="a_Node000017"><a xlink:href="_main_player_state_8cpp.html" target="_top" xlink:title=" ">
<polygon fill="white" stroke="#666666" points="2794.38,-38 2630.62,-38 2630.62,-6 2794.38,-6 2794.38,-38"/>
<text text-anchor="start" x="2638.62" y="-24.5" font-family="Arial" font-size="10.00">MultiplayerShooter</text>
<text text-anchor="middle" x="2712.5" y="-12.5" font-family="Arial" font-size="10.00">/PlayerState/MainPlayerState.cpp</text>
</a>
</g>
</g>
<!-- Node1&#45;&gt;Node17 -->
<g id="edge16_Node000001_Node000017" class="edge">
<title>Node1&#45;&gt;Node17</title>
<g id="a_edge16_Node000001_Node000017"><a xlink:title=" ">
<path fill="none" stroke="#63b8ff" d="M1583.22,-93.06C1814.58,-87.77 2422.47,-71.61 2622.5,-44 2632.51,-42.62 2643.05,-40.64 2653.24,-38.45"/>
<polygon fill="#63b8ff" stroke="#63b8ff" points="1583.26,-89.56 1573.34,-93.29 1583.41,-96.56 1583.26,-89.56"/>
</a>
</g>
</g>
</g>
</svg>

<g id="navigator" transform="translate(0 0)" fill="#404254">
  <rect fill="#f2f5e9" fill-opacity="0.5" stroke="#606060" stroke-width=".5" x="0" y="0" width="60" height="60"/>
  <use id="zoomplus" xlink:href="#zoomPlus" x="17" y="9" onmousedown="handleZoom(evt,'in')"/>
  <use id="zoomminus" xlink:href="#zoomMin" x="42" y="9" onmousedown="handleZoom(evt,'out')"/>
  <use id="reset" xlink:href="#resetDef" x="30" y="36" onmousedown="handleReset()"/>
   <use id="arrowup" xlink:href="#arrowUp" x="0" y="0" onmousedown="handlePan(0,-1)"/>
  <use id="arrowright" xlink:href="#arrowRight" x="0" y="0" onmousedown="handlePan(1,0)"/>
  <use id="arrowdown" xlink:href="#arrowDown" x="0" y="0" onmousedown="handlePan(0,1)"/>
  <use id="arrowleft" xlink:href="#arrowLeft" x="0" y="0" onmousedown="handlePan(-1,0)"/>
</g>
<svg viewBox="0 0 15 15" width="100%" height="30px" preserveAspectRatio="xMaxYMin meet">
 <g id="arrow_out" transform="scale(0.3 0.3)">
  <a xlink:href="_main_character_8h__dep__incl_org.svg" target="_base">
   <rect id="button" ry="5" rx="5" y="6" x="6" height="38" width="38"
        fill="#f2f5e9" fill-opacity="0.5" stroke="#606060" stroke-width="1.0"/>
   <path id="arrow"
     d="M 11.500037,31.436501 C 11.940474,20.09759 22.043105,11.32322 32.158766,21.979434 L 37.068811,17.246167 C 37.068811,17.246167 37.088388,32 37.088388,32 L 22.160133,31.978069 C 22.160133,31.978069 26.997745,27.140456 26.997745,27.140456 C 18.528582,18.264221 13.291696,25.230495 11.500037,31.436501 z"
     style="fill:#404040;"/>
  </a>
 </g>
</svg>

<style type='text/css'>
<![CDATA[
[data-mouse-over-selected='false'] { opacity: 0.7; }
[data-mouse-over-selected='true']  { opacity: 1.0; }
]]>
</style>
<script type="application/ecmascript"><![CDATA[
document.addEventListener('DOMContentLoaded', (event) => {
  highlightEdges();
  highlightAdjacentNodes();
});
]]></script>
</svg>
