<?xml version="1.0" encoding="UTF-8" standalone="no"?>
<!DOCTYPE svg PUBLIC "-//W3C//DTD SVG 1.1//EN"
 "http://www.w3.org/Graphics/SVG/1.1/DTD/svg11.dtd">
<!-- Generated by graphviz version 12.2.1 (20241206.2353)
 -->
<!-- Title: MultiplayerShooter/PlayerState/MainPlayerState.h Pages: 1 -->
<svg width="869pt" height="120pt"
 viewBox="0.00 0.00 869.00 120.00" xmlns="http://www.w3.org/2000/svg" xmlns:xlink="http://www.w3.org/1999/xlink">
<g id="graph0" class="graph" transform="scale(1 1) rotate(0) translate(4 116)">
<title>MultiplayerShooter/PlayerState/MainPlayerState.h</title>
<!-- Node1 -->
<g id="Node000001" class="node">
<title>Node1</title>
<g id="a_Node000001"><a xlink:title=" ">
<polygon fill="#999999" stroke="#666666" points="520.75,-112 367.5,-112 367.5,-80 520.75,-80 520.75,-112"/>
<text text-anchor="start" x="375.5" y="-98.5" font-family="Arial" font-size="10.00">MultiplayerShooter</text>
<text text-anchor="middle" x="444.12" y="-86.5" font-family="Arial" font-size="10.00">/PlayerState/MainPlayerState.h</text>
</a>
</g>
</g>
<!-- Node2 -->
<g id="Node000002" class="node">
<title>Node2</title>
<g id="a_Node000002"><a xlink:href="_main_game_mode_8cpp.html" target="_top" xlink:title=" ">
<polygon fill="white" stroke="#666666" points="162.25,-38 0,-38 0,-6 162.25,-6 162.25,-38"/>
<text text-anchor="start" x="8" y="-24.5" font-family="Arial" font-size="10.00">MultiplayerShooter</text>
<text text-anchor="middle" x="81.12" y="-12.5" font-family="Arial" font-size="10.00">/GameMode/MainGameMode.cpp</text>
</a>
</g>
</g>
<!-- Node1&#45;&gt;Node2 -->
<g id="edge1_Node000001_Node000002" class="edge">
<title>Node1&#45;&gt;Node2</title>
<g id="a_edge1_Node000001_Node000002"><a xlink:title=" ">
<path fill="none" stroke="#63b8ff" d="M356.03,-79.44C302.7,-69.78 233.37,-56.8 172.12,-44 163.87,-42.27 155.22,-40.38 146.66,-38.47"/>
<polygon fill="#63b8ff" stroke="#63b8ff" points="355.21,-82.85 365.67,-81.18 356.45,-75.96 355.21,-82.85"/>
</a>
</g>
</g>
<!-- Node3 -->
<g id="Node000003" class="node">
<title>Node3</title>
<g id="a_Node000003"><a xlink:href="_main_game_state_8cpp.html" target="_top" xlink:title=" ">
<polygon fill="white" stroke="#666666" points="341.5,-38 180.75,-38 180.75,-6 341.5,-6 341.5,-38"/>
<text text-anchor="start" x="188.75" y="-24.5" font-family="Arial" font-size="10.00">MultiplayerShooter</text>
<text text-anchor="middle" x="261.12" y="-12.5" font-family="Arial" font-size="10.00">/GameState/MainGameState.cpp</text>
</a>
</g>
</g>
<!-- Node1&#45;&gt;Node3 -->
<g id="edge2_Node000001_Node000003" class="edge">
<title>Node1&#45;&gt;Node3</title>
<g id="a_edge2_Node000001_Node000003"><a xlink:title=" ">
<path fill="none" stroke="#63b8ff" d="M394.34,-75.41C364.77,-63.78 327.8,-49.23 300.32,-38.42"/>
<polygon fill="#63b8ff" stroke="#63b8ff" points="392.87,-78.6 403.46,-79 395.43,-72.08 392.87,-78.6"/>
</a>
</g>
</g>
<!-- Node4 -->
<g id="Node000004" class="node">
<title>Node4</title>
<g id="a_Node000004"><a xlink:href="_main_character_8cpp.html" target="_top" xlink:title=" ">
<polygon fill="white" stroke="#666666" points="528.25,-38 360,-38 360,-6 528.25,-6 528.25,-38"/>
<text text-anchor="start" x="368" y="-24.5" font-family="Arial" font-size="10.00">MultiplayerShooter</text>
<text text-anchor="middle" x="444.12" y="-12.5" font-family="Arial" font-size="10.00">/MainCharacter/MainCharacter.cpp</text>
</a>
</g>
</g>
<!-- Node1&#45;&gt;Node4 -->
<g id="edge3_Node000001_Node000004" class="edge">
<title>Node1&#45;&gt;Node4</title>
<g id="a_edge3_Node000001_Node000004"><a xlink:title=" ">
<path fill="none" stroke="#63b8ff" d="M444.12,-68.49C444.12,-58.3 444.12,-47.03 444.12,-38.25"/>
<polygon fill="#63b8ff" stroke="#63b8ff" points="440.63,-68.22 444.13,-78.22 447.63,-68.22 440.63,-68.22"/>
</a>
</g>
</g>
<!-- Node5 -->
<g id="Node000005" class="node">
<title>Node5</title>
<g id="a_Node000005"><a xlink:href="_my_player_controller_8cpp.html" target="_top" xlink:title=" ">
<polygon fill="white" stroke="#666666" points="679.62,-44 546.62,-44 546.62,0 679.62,0 679.62,-44"/>
<text text-anchor="start" x="554.62" y="-30.5" font-family="Arial" font-size="10.00">MultiplayerShooter</text>
<text text-anchor="start" x="554.62" y="-18.5" font-family="Arial" font-size="10.00">/PlayerController/MyPlayer</text>
<text text-anchor="middle" x="613.12" y="-6.5" font-family="Arial" font-size="10.00">Controller.cpp</text>
</a>
</g>
</g>
<!-- Node1&#45;&gt;Node5 -->
<g id="edge4_Node000001_Node000005" class="edge">
<title>Node1&#45;&gt;Node5</title>
<g id="a_edge4_Node000001_Node000005"><a xlink:title=" ">
<path fill="none" stroke="#63b8ff" d="M490.96,-75.05C513.3,-65.53 540.06,-54.13 562.83,-44.43"/>
<polygon fill="#63b8ff" stroke="#63b8ff" points="489.6,-71.82 481.77,-78.96 492.34,-78.26 489.6,-71.82"/>
</a>
</g>
</g>
<!-- Node6 -->
<g id="Node000006" class="node">
<title>Node6</title>
<g id="a_Node000006"><a xlink:href="_main_player_state_8cpp.html" target="_top" xlink:title=" ">
<polygon fill="white" stroke="#666666" points="861,-38 697.25,-38 697.25,-6 861,-6 861,-38"/>
<text text-anchor="start" x="705.25" y="-24.5" font-family="Arial" font-size="10.00">MultiplayerShooter</text>
<text text-anchor="middle" x="779.12" y="-12.5" font-family="Arial" font-size="10.00">/PlayerState/MainPlayerState.cpp</text>
</a>
</g>
</g>
<!-- Node1&#45;&gt;Node6 -->
<g id="edge5_Node000001_Node000006" class="edge">
<title>Node1&#45;&gt;Node6</title>
<g id="a_edge5_Node000001_Node000006"><a xlink:title=" ">
<path fill="none" stroke="#63b8ff" d="M531.93,-77.25C578.66,-67.67 637.08,-55.49 689.12,-44 697.12,-42.24 705.49,-40.34 713.79,-38.44"/>
<polygon fill="#63b8ff" stroke="#63b8ff" points="531.5,-73.77 522.4,-79.2 532.9,-80.63 531.5,-73.77"/>
</a>
</g>
</g>
</g>
</svg>
