<?xml version="1.0" encoding="UTF-8" standalone="no"?>
<!DOCTYPE svg PUBLIC "-//W3C//DTD SVG 1.1//EN"
 "http://www.w3.org/Graphics/SVG/1.1/DTD/svg11.dtd">
<!-- Generated by graphviz version 12.2.1 (20241206.2353)
 -->
<!-- Title: MultiplayerShooter/GameState/MainGameState.h Pages: 1 -->
<svg width="501pt" height="120pt"
 viewBox="0.00 0.00 500.62 120.00" xmlns="http://www.w3.org/2000/svg" xmlns:xlink="http://www.w3.org/1999/xlink">
<g id="graph0" class="graph" transform="scale(1 1) rotate(0) translate(4 116)">
<title>MultiplayerShooter/GameState/MainGameState.h</title>
<!-- Node1 -->
<g id="Node000001" class="node">
<title>Node1</title>
<g id="a_Node000001"><a xlink:title=" ">
<polygon fill="#999999" stroke="#666666" points="336.25,-112 186,-112 186,-80 336.25,-80 336.25,-112"/>
<text text-anchor="start" x="194" y="-98.5" font-family="Arial" font-size="10.00">MultiplayerShooter</text>
<text text-anchor="middle" x="261.12" y="-86.5" font-family="Arial" font-size="10.00">/GameState/MainGameState.h</text>
</a>
</g>
</g>
<!-- Node2 -->
<g id="Node000002" class="node">
<title>Node2</title>
<g id="a_Node000002"><a xlink:href="_main_game_mode_8cpp.html" target="_top" xlink:title=" ">
<polygon fill="white" stroke="#666666" points="162.25,-38 0,-38 0,-6 162.25,-6 162.25,-38"/>
<text text-anchor="start" x="8" y="-24.5" font-family="Arial" font-size="10.00">MultiplayerShooter</text>
<text text-anchor="middle" x="81.12" y="-12.5" font-family="Arial" font-size="10.00">/GameMode/MainGameMode.cpp</text>
</a>
</g>
</g>
<!-- Node1&#45;&gt;Node2 -->
<g id="edge1_Node000001_Node000002" class="edge">
<title>Node1&#45;&gt;Node2</title>
<g id="a_edge1_Node000001_Node000002"><a xlink:title=" ">
<path fill="none" stroke="#63b8ff" d="M212.15,-75.41C183.07,-63.78 146.71,-49.23 119.68,-38.42"/>
<polygon fill="#63b8ff" stroke="#63b8ff" points="210.52,-78.53 221.11,-78.99 213.12,-72.03 210.52,-78.53"/>
</a>
</g>
</g>
<!-- Node3 -->
<g id="Node000003" class="node">
<title>Node3</title>
<g id="a_Node000003"><a xlink:href="_main_game_state_8cpp.html" target="_top" xlink:title=" ">
<polygon fill="white" stroke="#666666" points="341.5,-38 180.75,-38 180.75,-6 341.5,-6 341.5,-38"/>
<text text-anchor="start" x="188.75" y="-24.5" font-family="Arial" font-size="10.00">MultiplayerShooter</text>
<text text-anchor="middle" x="261.12" y="-12.5" font-family="Arial" font-size="10.00">/GameState/MainGameState.cpp</text>
</a>
</g>
</g>
<!-- Node1&#45;&gt;Node3 -->
<g id="edge2_Node000001_Node000003" class="edge">
<title>Node1&#45;&gt;Node3</title>
<g id="a_edge2_Node000001_Node000003"><a xlink:title=" ">
<path fill="none" stroke="#63b8ff" d="M261.12,-68.49C261.12,-58.3 261.12,-47.03 261.12,-38.25"/>
<polygon fill="#63b8ff" stroke="#63b8ff" points="257.63,-68.22 261.13,-78.22 264.63,-68.22 257.63,-68.22"/>
</a>
</g>
</g>
<!-- Node4 -->
<g id="Node000004" class="node">
<title>Node4</title>
<g id="a_Node000004"><a xlink:href="_my_player_controller_8cpp.html" target="_top" xlink:title=" ">
<polygon fill="white" stroke="#666666" points="492.62,-44 359.62,-44 359.62,0 492.62,0 492.62,-44"/>
<text text-anchor="start" x="367.62" y="-30.5" font-family="Arial" font-size="10.00">MultiplayerShooter</text>
<text text-anchor="start" x="367.62" y="-18.5" font-family="Arial" font-size="10.00">/PlayerController/MyPlayer</text>
<text text-anchor="middle" x="426.12" y="-6.5" font-family="Arial" font-size="10.00">Controller.cpp</text>
</a>
</g>
</g>
<!-- Node1&#45;&gt;Node4 -->
<g id="edge3_Node000001_Node000004" class="edge">
<title>Node1&#45;&gt;Node4</title>
<g id="a_edge3_Node000001_Node000004"><a xlink:title=" ">
<path fill="none" stroke="#63b8ff" d="M306.85,-75.05C328.66,-65.53 354.78,-54.13 377.02,-44.43"/>
<polygon fill="#63b8ff" stroke="#63b8ff" points="305.67,-71.74 297.91,-78.95 308.47,-78.16 305.67,-71.74"/>
</a>
</g>
</g>
</g>
</svg>
