<?xml version="1.0" encoding="UTF-8" standalone="no"?>
<!DOCTYPE svg PUBLIC "-//W3C//DTD SVG 1.1//EN"
 "http://www.w3.org/Graphics/SVG/1.1/DTD/svg11.dtd">
<!-- Generated by graphviz version 12.2.1 (20241206.2353)
 -->
<!-- Title: MultiplayerShooter/PlayerController/MyPlayerController.h Pages: 1 -->
<svg width="575pt" height="108pt"
 viewBox="0.00 0.00 575.12 108.00" xmlns="http://www.w3.org/2000/svg" xmlns:xlink="http://www.w3.org/1999/xlink">
<g id="graph0" class="graph" transform="scale(1 1) rotate(0) translate(4 104)">
<title>MultiplayerShooter/PlayerController/MyPlayerController.h</title>
<!-- Node1 -->
<g id="Node000001" class="node">
<title>Node1</title>
<g id="a_Node000001"><a xlink:title=" ">
<polygon fill="#999999" stroke="#666666" points="329,-100 196,-100 196,-56 329,-56 329,-100"/>
<text text-anchor="start" x="204" y="-86.5" font-family="Arial" font-size="10.00">MultiplayerShooter</text>
<text text-anchor="start" x="204" y="-74.5" font-family="Arial" font-size="10.00">/PlayerController/MyPlayer</text>
<text text-anchor="middle" x="262.5" y="-62.5" font-family="Arial" font-size="10.00">Controller.h</text>
</a>
</g>
</g>
<!-- Node2 -->
<g id="Node000002" class="node">
<title>Node2</title>
<g id="a_Node000002"><a xlink:title=" ">
<polygon fill="#e0e0e0" stroke="#999999" points="79,-20 0,-20 0,0 79,0 79,-20"/>
<text text-anchor="middle" x="39.5" y="-6.5" font-family="Arial" font-size="10.00">CoreMinimal.h</text>
</a>
</g>
</g>
<!-- Node1&#45;&gt;Node2 -->
<g id="edge1_Node000001_Node000002" class="edge">
<title>Node1&#45;&gt;Node2</title>
<g id="a_edge1_Node000001_Node000002"><a xlink:title=" ">
<path fill="none" stroke="#63b8ff" d="M195.59,-57.2C158.87,-46.33 114.42,-33.17 82.36,-23.68"/>
<polygon fill="#63b8ff" stroke="#63b8ff" points="83.6,-20.4 73.02,-20.92 81.62,-27.11 83.6,-20.4"/>
</a>
</g>
</g>
<!-- Node3 -->
<g id="Node000003" class="node">
<title>Node3</title>
<g id="a_Node000003"><a xlink:title=" ">
<polygon fill="#e0e0e0" stroke="#999999" points="269.5,-20 97.5,-20 97.5,0 269.5,0 269.5,-20"/>
<text text-anchor="middle" x="183.5" y="-6.5" font-family="Arial" font-size="10.00">GameFramework/PlayerController.h</text>
</a>
</g>
</g>
<!-- Node1&#45;&gt;Node3 -->
<g id="edge2_Node000001_Node000003" class="edge">
<title>Node1&#45;&gt;Node3</title>
<g id="a_edge2_Node000001_Node000003"><a xlink:title=" ">
<path fill="none" stroke="#63b8ff" d="M237.07,-55.75C226.16,-46.64 213.6,-36.14 203.38,-27.61"/>
<polygon fill="#63b8ff" stroke="#63b8ff" points="205.85,-25.11 195.94,-21.39 201.37,-30.49 205.85,-25.11"/>
</a>
</g>
</g>
<!-- Node4 -->
<g id="Node000004" class="node">
<title>Node4</title>
<g id="a_Node000004"><a xlink:title=" ">
<polygon fill="#e0e0e0" stroke="#999999" points="395.62,-20 287.38,-20 287.38,0 395.62,0 395.62,-20"/>
<text text-anchor="middle" x="341.5" y="-6.5" font-family="Arial" font-size="10.00">Sound/SoundClass.h</text>
</a>
</g>
</g>
<!-- Node1&#45;&gt;Node4 -->
<g id="edge3_Node000001_Node000004" class="edge">
<title>Node1&#45;&gt;Node4</title>
<g id="a_edge3_Node000001_Node000004"><a xlink:title=" ">
<path fill="none" stroke="#63b8ff" d="M287.93,-55.75C298.84,-46.64 311.4,-36.14 321.62,-27.61"/>
<polygon fill="#63b8ff" stroke="#63b8ff" points="323.63,-30.49 329.06,-21.39 319.15,-25.11 323.63,-30.49"/>
</a>
</g>
</g>
<!-- Node5 -->
<g id="Node000005" class="node">
<title>Node5</title>
<g id="a_Node000005"><a xlink:title=" ">
<polygon fill="#e0e0e0" stroke="#999999" points="567.12,-20 413.88,-20 413.88,0 567.12,0 567.12,-20"/>
<text text-anchor="middle" x="490.5" y="-6.5" font-family="Arial" font-size="10.00">MyPlayerController.generated.h</text>
</a>
</g>
</g>
<!-- Node1&#45;&gt;Node5 -->
<g id="edge4_Node000001_Node000005" class="edge">
<title>Node1&#45;&gt;Node5</title>
<g id="a_edge4_Node000001_Node000005"><a xlink:title=" ">
<path fill="none" stroke="#63b8ff" d="M329.37,-57.64C367.38,-46.64 413.88,-33.18 447.14,-23.55"/>
<polygon fill="#63b8ff" stroke="#63b8ff" points="447.79,-27.01 456.43,-20.86 445.85,-20.28 447.79,-27.01"/>
</a>
</g>
</g>
</g>
</svg>
