<?xml version="1.0" encoding="UTF-8" standalone="no"?>
<!DOCTYPE svg PUBLIC "-//W3C//DTD SVG 1.1//EN"
 "http://www.w3.org/Graphics/SVG/1.1/DTD/svg11.dtd">
<!-- Generated by graphviz version 12.2.1 (20241206.2353)
 -->
<!-- Title: MultiplayerShooter/Pickups/Pickup.h Pages: 1 -->
<svg width="812pt" height="176pt"
 viewBox="0.00 0.00 812.25 176.00" xmlns="http://www.w3.org/2000/svg" xmlns:xlink="http://www.w3.org/1999/xlink">
<g id="graph0" class="graph" transform="scale(1 1) rotate(0) translate(4 172)">
<title>MultiplayerShooter/Pickups/Pickup.h</title>
<!-- Node1 -->
<g id="Node000001" class="node">
<title>Node1</title>
<g id="a_Node000001"><a xlink:title=" ">
<polygon fill="#999999" stroke="#666666" points="415.88,-168 318.88,-168 318.88,-136 415.88,-136 415.88,-168"/>
<text text-anchor="start" x="326.88" y="-154.5" font-family="Arial" font-size="10.00">MultiplayerShooter</text>
<text text-anchor="middle" x="367.38" y="-142.5" font-family="Arial" font-size="10.00">/Pickups/Pickup.h</text>
</a>
</g>
</g>
<!-- Node2 -->
<g id="Node000002" class="node">
<title>Node2</title>
<g id="a_Node000002"><a xlink:href="_damage_pickup_8h.html" target="_top" xlink:title=" ">
<polygon fill="white" stroke="#666666" points="249.5,-100 117.25,-100 117.25,-68 249.5,-68 249.5,-100"/>
<text text-anchor="start" x="125.25" y="-86.5" font-family="Arial" font-size="10.00">MultiplayerShooter</text>
<text text-anchor="middle" x="183.38" y="-74.5" font-family="Arial" font-size="10.00">/Pickups/DamagePickup.h</text>
</a>
</g>
</g>
<!-- Node1&#45;&gt;Node2 -->
<g id="edge1_Node000001_Node000002" class="edge">
<title>Node1&#45;&gt;Node2</title>
<g id="a_edge1_Node000001_Node000002"><a xlink:title=" ">
<path fill="none" stroke="#63b8ff" d="M313.53,-131.69C285.84,-121.76 252.55,-109.81 226.56,-100.49"/>
<polygon fill="#63b8ff" stroke="#63b8ff" points="312.22,-134.93 322.81,-135.01 314.58,-128.34 312.22,-134.93"/>
</a>
</g>
</g>
<!-- Node4 -->
<g id="Node000004" class="node">
<title>Node4</title>
<g id="a_Node000004"><a xlink:href="_pickup_spawn_point_8cpp.html" target="_top" xlink:title=" ">
<polygon fill="white" stroke="#666666" points="319.62,-32 161.12,-32 161.12,0 319.62,0 319.62,-32"/>
<text text-anchor="start" x="169.12" y="-18.5" font-family="Arial" font-size="10.00">MultiplayerShooter</text>
<text text-anchor="middle" x="240.38" y="-6.5" font-family="Arial" font-size="10.00">/Pickups/PickupSpawnPoint.cpp</text>
</a>
</g>
</g>
<!-- Node1&#45;&gt;Node4 -->
<g id="edge9_Node000001_Node000004" class="edge">
<title>Node1&#45;&gt;Node4</title>
<g id="a_edge9_Node000001_Node000004"><a xlink:title=" ">
<path fill="none" stroke="#63b8ff" d="M331.98,-129.25C319.94,-120.93 306.89,-110.83 296.38,-100 276.03,-79.05 258.27,-49.85 248.47,-32.25"/>
<polygon fill="#63b8ff" stroke="#63b8ff" points="329.83,-132.02 340.09,-134.67 333.72,-126.21 329.83,-132.02"/>
</a>
</g>
</g>
<!-- Node5 -->
<g id="Node000005" class="node">
<title>Node5</title>
<g id="a_Node000005"><a xlink:href="_health_pickup_8h.html" target="_top" xlink:title=" ">
<polygon fill="white" stroke="#666666" points="429.38,-100 305.38,-100 305.38,-68 429.38,-68 429.38,-100"/>
<text text-anchor="start" x="313.38" y="-86.5" font-family="Arial" font-size="10.00">MultiplayerShooter</text>
<text text-anchor="middle" x="367.38" y="-74.5" font-family="Arial" font-size="10.00">/Pickups/HealthPickup.h</text>
</a>
</g>
</g>
<!-- Node1&#45;&gt;Node5 -->
<g id="edge4_Node000001_Node000005" class="edge">
<title>Node1&#45;&gt;Node5</title>
<g id="a_edge4_Node000001_Node000005"><a xlink:title=" ">
<path fill="none" stroke="#63b8ff" d="M367.38,-124.31C367.38,-116.12 367.38,-107.38 367.38,-100.22"/>
<polygon fill="#63b8ff" stroke="#63b8ff" points="363.88,-124.18 367.38,-134.18 370.88,-124.18 363.88,-124.18"/>
</a>
</g>
</g>
<!-- Node8 -->
<g id="Node000008" class="node">
<title>Node8</title>
<g id="a_Node000008"><a xlink:href="_pickup_8cpp.html" target="_top" xlink:title=" ">
<polygon fill="white" stroke="#666666" points="695.38,-100 589.38,-100 589.38,-68 695.38,-68 695.38,-100"/>
<text text-anchor="start" x="597.38" y="-86.5" font-family="Arial" font-size="10.00">MultiplayerShooter</text>
<text text-anchor="middle" x="642.38" y="-74.5" font-family="Arial" font-size="10.00">/Pickups/Pickup.cpp</text>
</a>
</g>
</g>
<!-- Node1&#45;&gt;Node8 -->
<g id="edge8_Node000001_Node000008" class="edge">
<title>Node1&#45;&gt;Node8</title>
<g id="a_edge8_Node000001_Node000008"><a xlink:title=" ">
<path fill="none" stroke="#63b8ff" d="M427.07,-136.75C469.78,-126.54 528.62,-112.46 580.38,-100 583.17,-99.33 586.04,-98.63 588.94,-97.94"/>
<polygon fill="#63b8ff" stroke="#63b8ff" points="426.41,-133.31 417.5,-139.03 428.04,-140.11 426.41,-133.31"/>
</a>
</g>
</g>
<!-- Node9 -->
<g id="Node000009" class="node">
<title>Node9</title>
<g id="a_Node000009"><a xlink:href="_speed_pickup_8h.html" target="_top" xlink:title=" ">
<polygon fill="white" stroke="#666666" points="571,-100 447.75,-100 447.75,-68 571,-68 571,-100"/>
<text text-anchor="start" x="455.75" y="-86.5" font-family="Arial" font-size="10.00">MultiplayerShooter</text>
<text text-anchor="middle" x="509.38" y="-74.5" font-family="Arial" font-size="10.00">/Pickups/SpeedPickup.h</text>
</a>
</g>
</g>
<!-- Node1&#45;&gt;Node9 -->
<g id="edge10_Node000001_Node000009" class="edge">
<title>Node1&#45;&gt;Node9</title>
<g id="a_edge10_Node000001_Node000009"><a xlink:title=" ">
<path fill="none" stroke="#63b8ff" d="M410.96,-130.74C432,-120.96 456.83,-109.42 476.29,-100.38"/>
<polygon fill="#63b8ff" stroke="#63b8ff" points="409.63,-127.5 402.04,-134.89 412.58,-133.85 409.63,-127.5"/>
</a>
</g>
</g>
<!-- Node3 -->
<g id="Node000003" class="node">
<title>Node3</title>
<g id="a_Node000003"><a xlink:href="_damage_pickup_8cpp.html" target="_top" xlink:title=" ">
<polygon fill="white" stroke="#666666" points="142.75,-32 0,-32 0,0 142.75,0 142.75,-32"/>
<text text-anchor="start" x="8" y="-18.5" font-family="Arial" font-size="10.00">MultiplayerShooter</text>
<text text-anchor="middle" x="71.38" y="-6.5" font-family="Arial" font-size="10.00">/Pickups/DamagePickup.cpp</text>
</a>
</g>
</g>
<!-- Node2&#45;&gt;Node3 -->
<g id="edge2_Node000002_Node000003" class="edge">
<title>Node2&#45;&gt;Node3</title>
<g id="a_edge2_Node000002_Node000003"><a xlink:title=" ">
<path fill="none" stroke="#63b8ff" d="M147.4,-61.8C131.15,-52.23 112.33,-41.13 97.47,-32.38"/>
<polygon fill="#63b8ff" stroke="#63b8ff" points="145.42,-64.7 155.81,-66.76 148.97,-58.67 145.42,-64.7"/>
</a>
</g>
</g>
<!-- Node2&#45;&gt;Node4 -->
<g id="edge3_Node000002_Node000004" class="edge">
<title>Node2&#45;&gt;Node4</title>
<g id="a_edge3_Node000002_Node000004"><a xlink:title=" ">
<path fill="none" stroke="#63b8ff" d="M203.97,-59.15C211.73,-50.17 220.33,-40.21 227.23,-32.22"/>
<polygon fill="#63b8ff" stroke="#63b8ff" points="201.47,-56.69 197.58,-66.55 206.77,-61.27 201.47,-56.69"/>
</a>
</g>
</g>
<!-- Node5&#45;&gt;Node4 -->
<g id="edge7_Node000005_Node000004" class="edge">
<title>Node5&#45;&gt;Node4</title>
<g id="a_edge7_Node000005_Node000004"><a xlink:title=" ">
<path fill="none" stroke="#63b8ff" d="M327.62,-62.34C308.97,-52.65 287.13,-41.3 269.96,-32.38"/>
<polygon fill="#63b8ff" stroke="#63b8ff" points="325.77,-65.32 336.26,-66.83 329,-59.11 325.77,-65.32"/>
</a>
</g>
</g>
<!-- Node6 -->
<g id="Node000006" class="node">
<title>Node6</title>
<g id="a_Node000006"><a xlink:href="_main_game_mode_8cpp.html" target="_top" xlink:title=" ">
<polygon fill="white" stroke="#666666" points="652.5,-32 490.25,-32 490.25,0 652.5,0 652.5,-32"/>
<text text-anchor="start" x="498.25" y="-18.5" font-family="Arial" font-size="10.00">MultiplayerShooter</text>
<text text-anchor="middle" x="571.38" y="-6.5" font-family="Arial" font-size="10.00">/GameMode/MainGameMode.cpp</text>
</a>
</g>
</g>
<!-- Node5&#45;&gt;Node6 -->
<g id="edge5_Node000005_Node000006" class="edge">
<title>Node5&#45;&gt;Node6</title>
<g id="a_edge5_Node000005_Node000006"><a xlink:title=" ">
<path fill="none" stroke="#63b8ff" d="M425.85,-64.08C456.79,-54.07 494.3,-41.94 523.49,-32.49"/>
<polygon fill="#63b8ff" stroke="#63b8ff" points="425.08,-60.65 416.64,-67.06 427.24,-67.31 425.08,-60.65"/>
</a>
</g>
</g>
<!-- Node7 -->
<g id="Node000007" class="node">
<title>Node7</title>
<g id="a_Node000007"><a xlink:href="_health_pickup_8cpp.html" target="_top" xlink:title=" ">
<polygon fill="white" stroke="#666666" points="472.62,-32 338.12,-32 338.12,0 472.62,0 472.62,-32"/>
<text text-anchor="start" x="346.12" y="-18.5" font-family="Arial" font-size="10.00">MultiplayerShooter</text>
<text text-anchor="middle" x="405.38" y="-6.5" font-family="Arial" font-size="10.00">/Pickups/HealthPickup.cpp</text>
</a>
</g>
</g>
<!-- Node5&#45;&gt;Node7 -->
<g id="edge6_Node000005_Node000007" class="edge">
<title>Node5&#45;&gt;Node7</title>
<g id="a_edge6_Node000005_Node000007"><a xlink:title=" ">
<path fill="none" stroke="#63b8ff" d="M381.92,-57.74C386.87,-49.14 392.25,-39.79 396.61,-32.22"/>
<polygon fill="#63b8ff" stroke="#63b8ff" points="378.9,-55.97 376.94,-66.38 384.97,-59.46 378.9,-55.97"/>
</a>
</g>
</g>
<!-- Node9&#45;&gt;Node4 -->
<g id="edge11_Node000009_Node000004" class="edge">
<title>Node9&#45;&gt;Node4</title>
<g id="a_edge11_Node000009_Node000004"><a xlink:title=" ">
<path fill="none" stroke="#63b8ff" d="M436.17,-65.04C394.66,-54.85 343.24,-42.24 303.51,-32.49"/>
<polygon fill="#63b8ff" stroke="#63b8ff" points="435.31,-68.43 445.85,-67.41 436.98,-61.63 435.31,-68.43"/>
</a>
</g>
</g>
<!-- Node10 -->
<g id="Node000010" class="node">
<title>Node10</title>
<g id="a_Node000010"><a xlink:href="_speed_pickup_8cpp.html" target="_top" xlink:title=" ">
<polygon fill="white" stroke="#666666" points="804.25,-32 670.5,-32 670.5,0 804.25,0 804.25,-32"/>
<text text-anchor="start" x="678.5" y="-18.5" font-family="Arial" font-size="10.00">MultiplayerShooter</text>
<text text-anchor="middle" x="737.38" y="-6.5" font-family="Arial" font-size="10.00">/Pickups/SpeedPickup.cpp</text>
</a>
</g>
</g>
<!-- Node9&#45;&gt;Node10 -->
<g id="edge12_Node000009_Node000010" class="edge">
<title>Node9&#45;&gt;Node10</title>
<g id="a_edge12_Node000009_Node000010"><a xlink:title=" ">
<path fill="none" stroke="#63b8ff" d="M573.82,-64.34C608.57,-54.28 650.95,-42.02 683.86,-32.49"/>
<polygon fill="#63b8ff" stroke="#63b8ff" points="572.92,-60.96 564.28,-67.11 574.86,-67.69 572.92,-60.96"/>
</a>
</g>
</g>
</g>
</svg>
