<?xml version="1.0" encoding="UTF-8" standalone="no"?>
<!DOCTYPE svg PUBLIC "-//W3C//DTD SVG 1.1//EN"
 "http://www.w3.org/Graphics/SVG/1.1/DTD/svg11.dtd">
<!-- Generated by graphviz version 12.2.1 (20241206.2353)
 -->
<!-- Title: MultiplayerShooter/Pickups/PickupSpawnPoint.h Pages: 1 -->
<svg width="401pt" height="96pt"
 viewBox="0.00 0.00 400.75 96.00" xmlns="http://www.w3.org/2000/svg" xmlns:xlink="http://www.w3.org/1999/xlink">
<g id="graph0" class="graph" transform="scale(1 1) rotate(0) translate(4 92)">
<title>MultiplayerShooter/Pickups/PickupSpawnPoint.h</title>
<!-- Node1 -->
<g id="Node000001" class="node">
<title>Node1</title>
<g id="a_Node000001"><a xlink:title=" ">
<polygon fill="#999999" stroke="#666666" points="233.5,-88 85.5,-88 85.5,-56 233.5,-56 233.5,-88"/>
<text text-anchor="start" x="93.5" y="-74.5" font-family="Arial" font-size="10.00">MultiplayerShooter</text>
<text text-anchor="middle" x="159.5" y="-62.5" font-family="Arial" font-size="10.00">/Pickups/PickupSpawnPoint.h</text>
</a>
</g>
</g>
<!-- Node2 -->
<g id="Node000002" class="node">
<title>Node2</title>
<g id="a_Node000002"><a xlink:title=" ">
<polygon fill="#e0e0e0" stroke="#999999" points="79,-20 0,-20 0,0 79,0 79,-20"/>
<text text-anchor="middle" x="39.5" y="-6.5" font-family="Arial" font-size="10.00">CoreMinimal.h</text>
</a>
</g>
</g>
<!-- Node1&#45;&gt;Node2 -->
<g id="edge1_Node000001_Node000002" class="edge">
<title>Node1&#45;&gt;Node2</title>
<g id="a_edge1_Node000001_Node000002"><a xlink:title=" ">
<path fill="none" stroke="#63b8ff" d="M128.6,-55.55C110.11,-46.3 86.75,-34.63 68.6,-25.55"/>
<polygon fill="#63b8ff" stroke="#63b8ff" points="70.18,-22.43 59.67,-21.08 67.05,-28.69 70.18,-22.43"/>
</a>
</g>
</g>
<!-- Node3 -->
<g id="Node000003" class="node">
<title>Node3</title>
<g id="a_Node000003"><a xlink:title=" ">
<polygon fill="#e0e0e0" stroke="#999999" points="222.25,-20 96.75,-20 96.75,0 222.25,0 222.25,-20"/>
<text text-anchor="middle" x="159.5" y="-6.5" font-family="Arial" font-size="10.00">GameFramework/Actor.h</text>
</a>
</g>
</g>
<!-- Node1&#45;&gt;Node3 -->
<g id="edge2_Node000001_Node000003" class="edge">
<title>Node1&#45;&gt;Node3</title>
<g id="a_edge2_Node000001_Node000003"><a xlink:title=" ">
<path fill="none" stroke="#63b8ff" d="M159.5,-55.55C159.5,-48.34 159.5,-39.66 159.5,-31.88"/>
<polygon fill="#63b8ff" stroke="#63b8ff" points="163,-31.92 159.5,-21.92 156,-31.92 163,-31.92"/>
</a>
</g>
</g>
<!-- Node4 -->
<g id="Node000004" class="node">
<title>Node4</title>
<g id="a_Node000004"><a xlink:title=" ">
<polygon fill="#e0e0e0" stroke="#999999" points="392.75,-20 240.25,-20 240.25,0 392.75,0 392.75,-20"/>
<text text-anchor="middle" x="316.5" y="-6.5" font-family="Arial" font-size="10.00">PickupSpawnPoint.generated.h</text>
</a>
</g>
</g>
<!-- Node1&#45;&gt;Node4 -->
<g id="edge3_Node000001_Node000004" class="edge">
<title>Node1&#45;&gt;Node4</title>
<g id="a_edge3_Node000001_Node000004"><a xlink:title=" ">
<path fill="none" stroke="#63b8ff" d="M199.93,-55.55C225.14,-45.91 257.27,-33.64 281.41,-24.41"/>
<polygon fill="#63b8ff" stroke="#63b8ff" points="282.38,-27.79 290.47,-20.95 279.88,-21.25 282.38,-27.79"/>
</a>
</g>
</g>
</g>
</svg>
