<?xml version="1.0" encoding="UTF-8" standalone="no"?>
<!DOCTYPE svg PUBLIC "-//W3C//DTD SVG 1.1//EN"
 "http://www.w3.org/Graphics/SVG/1.1/DTD/svg11.dtd">
<!-- Generated by graphviz version 12.2.1 (20241206.2353)
 -->
<!-- Title: MultiplayerShooter/BaseWeapon/ProjectileWeapons/ProjectileBullet.h Pages: 1 -->
<svg width="359pt" height="164pt"
 viewBox="0.00 0.00 358.75 164.00" xmlns="http://www.w3.org/2000/svg" xmlns:xlink="http://www.w3.org/1999/xlink">
<g id="graph0" class="graph" transform="scale(1 1) rotate(0) translate(4 160)">
<title>MultiplayerShooter/BaseWeapon/ProjectileWeapons/ProjectileBullet.h</title>
<!-- Node1 -->
<g id="Node000001" class="node">
<title>Node1</title>
<g id="a_Node000001"><a xlink:title=" ">
<polygon fill="#999999" stroke="#666666" points="224.88,-156 64.12,-156 64.12,-112 224.88,-112 224.88,-156"/>
<text text-anchor="start" x="72.12" y="-142.5" font-family="Arial" font-size="10.00">MultiplayerShooter</text>
<text text-anchor="start" x="72.12" y="-130.5" font-family="Arial" font-size="10.00">/BaseWeapon/ProjectileWeapons</text>
<text text-anchor="middle" x="144.5" y="-118.5" font-family="Arial" font-size="10.00">/ProjectileBullet.h</text>
</a>
</g>
</g>
<!-- Node2 -->
<g id="Node000002" class="node">
<title>Node2</title>
<g id="a_Node000002"><a xlink:title=" ">
<polygon fill="#e0e0e0" stroke="#999999" points="79,-20 0,-20 0,0 79,0 79,-20"/>
<text text-anchor="middle" x="39.5" y="-6.5" font-family="Arial" font-size="10.00">CoreMinimal.h</text>
</a>
</g>
</g>
<!-- Node1&#45;&gt;Node2 -->
<g id="edge1_Node000001_Node000002" class="edge">
<title>Node1&#45;&gt;Node2</title>
<g id="a_edge1_Node000001_Node000002"><a xlink:title=" ">
<path fill="none" stroke="#63b8ff" d="M126.21,-111.75C106.04,-88.32 73.95,-51.03 54.98,-28.99"/>
<polygon fill="#63b8ff" stroke="#63b8ff" points="57.67,-26.74 48.49,-21.45 52.36,-31.31 57.67,-26.74"/>
</a>
</g>
</g>
<!-- Node3 -->
<g id="Node000003" class="node">
<title>Node3</title>
<g id="a_Node000003"><a xlink:href="_projectile_8h.html" target="_top" xlink:title=" ">
<polygon fill="white" stroke="#666666" points="176.88,-76 112.12,-76 112.12,-56 176.88,-56 176.88,-76"/>
<text text-anchor="middle" x="144.5" y="-62.5" font-family="Arial" font-size="10.00">Projectile.h</text>
</a>
</g>
</g>
<!-- Node1&#45;&gt;Node3 -->
<g id="edge2_Node000001_Node000003" class="edge">
<title>Node1&#45;&gt;Node3</title>
<g id="a_edge2_Node000001_Node000003"><a xlink:title=" ">
<path fill="none" stroke="#63b8ff" d="M144.5,-111.75C144.5,-104.13 144.5,-95.53 144.5,-87.93"/>
<polygon fill="#63b8ff" stroke="#63b8ff" points="148,-87.93 144.5,-77.93 141,-87.93 148,-87.93"/>
</a>
</g>
</g>
<!-- Node6 -->
<g id="Node000006" class="node">
<title>Node6</title>
<g id="a_Node000006"><a xlink:title=" ">
<polygon fill="#e0e0e0" stroke="#999999" points="330.12,-76 194.88,-76 194.88,-56 330.12,-56 330.12,-76"/>
<text text-anchor="middle" x="262.5" y="-62.5" font-family="Arial" font-size="10.00">ProjectileBullet.generated.h</text>
</a>
</g>
</g>
<!-- Node1&#45;&gt;Node6 -->
<g id="edge6_Node000001_Node000006" class="edge">
<title>Node1&#45;&gt;Node6</title>
<g id="a_edge6_Node000001_Node000006"><a xlink:title=" ">
<path fill="none" stroke="#63b8ff" d="M182.81,-111.57C200.09,-101.91 220.08,-90.73 235.71,-81.98"/>
<polygon fill="#63b8ff" stroke="#63b8ff" points="237.42,-85.04 244.43,-77.1 234,-78.93 237.42,-85.04"/>
</a>
</g>
</g>
<!-- Node3&#45;&gt;Node2 -->
<g id="edge3_Node000003_Node000002" class="edge">
<title>Node3&#45;&gt;Node2</title>
<g id="a_edge3_Node000003_Node000002"><a xlink:title=" ">
<path fill="none" stroke="#63b8ff" d="M126.21,-55.59C110.2,-47.36 86.67,-35.26 68.16,-25.74"/>
<polygon fill="#63b8ff" stroke="#63b8ff" points="69.77,-22.63 59.28,-21.17 66.57,-28.86 69.77,-22.63"/>
</a>
</g>
</g>
<!-- Node4 -->
<g id="Node000004" class="node">
<title>Node4</title>
<g id="a_Node000004"><a xlink:title=" ">
<polygon fill="#e0e0e0" stroke="#999999" points="222.25,-20 96.75,-20 96.75,0 222.25,0 222.25,-20"/>
<text text-anchor="middle" x="159.5" y="-6.5" font-family="Arial" font-size="10.00">GameFramework/Actor.h</text>
</a>
</g>
</g>
<!-- Node3&#45;&gt;Node4 -->
<g id="edge4_Node000003_Node000004" class="edge">
<title>Node3&#45;&gt;Node4</title>
<g id="a_edge4_Node000003_Node000004"><a xlink:title=" ">
<path fill="none" stroke="#63b8ff" d="M147.11,-55.59C148.98,-48.86 151.57,-39.53 153.9,-31.15"/>
<polygon fill="#63b8ff" stroke="#63b8ff" points="157.21,-32.33 156.51,-21.76 150.46,-30.46 157.21,-32.33"/>
</a>
</g>
</g>
<!-- Node5 -->
<g id="Node000005" class="node">
<title>Node5</title>
<g id="a_Node000005"><a xlink:title=" ">
<polygon fill="#e0e0e0" stroke="#999999" points="350.75,-20 240.25,-20 240.25,0 350.75,0 350.75,-20"/>
<text text-anchor="middle" x="295.5" y="-6.5" font-family="Arial" font-size="10.00">Projectile.generated.h</text>
</a>
</g>
</g>
<!-- Node3&#45;&gt;Node5 -->
<g id="edge5_Node000003_Node000005" class="edge">
<title>Node3&#45;&gt;Node5</title>
<g id="a_edge5_Node000003_Node000005"><a xlink:title=" ">
<path fill="none" stroke="#63b8ff" d="M170.8,-55.59C195.01,-46.94 231.18,-34 258.34,-24.29"/>
<polygon fill="#63b8ff" stroke="#63b8ff" points="259.33,-27.65 267.57,-20.99 256.97,-21.06 259.33,-27.65"/>
</a>
</g>
</g>
</g>
</svg>
