<?xml version="1.0" encoding="UTF-8" standalone="no"?>
<!DOCTYPE svg PUBLIC "-//W3C//DTD SVG 1.1//EN"
 "http://www.w3.org/Graphics/SVG/1.1/DTD/svg11.dtd">
<!-- Generated by graphviz version 12.2.1 (20241206.2353)
 -->
<!-- Title: MultiplayerShooter/BaseWeapon/ProjectileWeapons/Projectile.h Pages: 1 -->
<svg width="527pt" height="212pt"
 viewBox="0.00 0.00 526.75 212.00" xmlns="http://www.w3.org/2000/svg" xmlns:xlink="http://www.w3.org/1999/xlink">
<g id="graph0" class="graph" transform="scale(1 1) rotate(0) translate(4 208)">
<title>MultiplayerShooter/BaseWeapon/ProjectileWeapons/Projectile.h</title>
<!-- Node1 -->
<g id="Node000001" class="node">
<title>Node1</title>
<g id="a_Node000001"><a xlink:title=" ">
<polygon fill="#999999" stroke="#666666" points="339.75,-204 179,-204 179,-160 339.75,-160 339.75,-204"/>
<text text-anchor="start" x="187" y="-190.5" font-family="Arial" font-size="10.00">MultiplayerShooter</text>
<text text-anchor="start" x="187" y="-178.5" font-family="Arial" font-size="10.00">/BaseWeapon/ProjectileWeapons</text>
<text text-anchor="middle" x="259.38" y="-166.5" font-family="Arial" font-size="10.00">/Projectile.h</text>
</a>
</g>
</g>
<!-- Node2 -->
<g id="Node000002" class="node">
<title>Node2</title>
<g id="a_Node000002"><a xlink:href="_projectile_8cpp.html" target="_top" xlink:title=" ">
<polygon fill="white" stroke="#666666" points="160.75,-124 0,-124 0,-80 160.75,-80 160.75,-124"/>
<text text-anchor="start" x="8" y="-110.5" font-family="Arial" font-size="10.00">MultiplayerShooter</text>
<text text-anchor="start" x="8" y="-98.5" font-family="Arial" font-size="10.00">/BaseWeapon/ProjectileWeapons</text>
<text text-anchor="middle" x="80.38" y="-86.5" font-family="Arial" font-size="10.00">/Projectile.cpp</text>
</a>
</g>
</g>
<!-- Node1&#45;&gt;Node2 -->
<g id="edge1_Node000001_Node000002" class="edge">
<title>Node1&#45;&gt;Node2</title>
<g id="a_edge1_Node000001_Node000002"><a xlink:title=" ">
<path fill="none" stroke="#63b8ff" d="M200.18,-155.2C177.28,-145.23 151.38,-133.94 129.54,-124.42"/>
<polygon fill="#63b8ff" stroke="#63b8ff" points="198.51,-158.3 209.07,-159.08 201.31,-151.88 198.51,-158.3"/>
</a>
</g>
</g>
<!-- Node3 -->
<g id="Node000003" class="node">
<title>Node3</title>
<g id="a_Node000003"><a xlink:href="_projectile_bullet_8h.html" target="_top" xlink:title=" ">
<polygon fill="white" stroke="#666666" points="339.75,-124 179,-124 179,-80 339.75,-80 339.75,-124"/>
<text text-anchor="start" x="187" y="-110.5" font-family="Arial" font-size="10.00">MultiplayerShooter</text>
<text text-anchor="start" x="187" y="-98.5" font-family="Arial" font-size="10.00">/BaseWeapon/ProjectileWeapons</text>
<text text-anchor="middle" x="259.38" y="-86.5" font-family="Arial" font-size="10.00">/ProjectileBullet.h</text>
</a>
</g>
</g>
<!-- Node1&#45;&gt;Node3 -->
<g id="edge2_Node000001_Node000003" class="edge">
<title>Node1&#45;&gt;Node3</title>
<g id="a_edge2_Node000001_Node000003"><a xlink:title=" ">
<path fill="none" stroke="#63b8ff" d="M259.38,-148.25C259.38,-140.15 259.38,-131.68 259.38,-124.29"/>
<polygon fill="#63b8ff" stroke="#63b8ff" points="255.88,-148.17 259.38,-158.17 262.88,-148.17 255.88,-148.17"/>
</a>
</g>
</g>
<!-- Node5 -->
<g id="Node000005" class="node">
<title>Node5</title>
<g id="a_Node000005"><a xlink:href="_projectile_weapon_8cpp.html" target="_top" xlink:title=" ">
<polygon fill="white" stroke="#666666" points="518.75,-124 358,-124 358,-80 518.75,-80 518.75,-124"/>
<text text-anchor="start" x="366" y="-110.5" font-family="Arial" font-size="10.00">MultiplayerShooter</text>
<text text-anchor="start" x="366" y="-98.5" font-family="Arial" font-size="10.00">/BaseWeapon/ProjectileWeapons</text>
<text text-anchor="middle" x="438.38" y="-86.5" font-family="Arial" font-size="10.00">/ProjectileWeapon.cpp</text>
</a>
</g>
</g>
<!-- Node1&#45;&gt;Node5 -->
<g id="edge4_Node000001_Node000005" class="edge">
<title>Node1&#45;&gt;Node5</title>
<g id="a_edge4_Node000001_Node000005"><a xlink:title=" ">
<path fill="none" stroke="#63b8ff" d="M318.57,-155.2C341.47,-145.23 367.37,-133.94 389.21,-124.42"/>
<polygon fill="#63b8ff" stroke="#63b8ff" points="317.44,-151.88 309.68,-159.08 320.24,-158.3 317.44,-151.88"/>
</a>
</g>
</g>
<!-- Node4 -->
<g id="Node000004" class="node">
<title>Node4</title>
<g id="a_Node000004"><a xlink:href="_projectile_bullet_8cpp.html" target="_top" xlink:title=" ">
<polygon fill="white" stroke="#666666" points="339.75,-44 179,-44 179,0 339.75,0 339.75,-44"/>
<text text-anchor="start" x="187" y="-30.5" font-family="Arial" font-size="10.00">MultiplayerShooter</text>
<text text-anchor="start" x="187" y="-18.5" font-family="Arial" font-size="10.00">/BaseWeapon/ProjectileWeapons</text>
<text text-anchor="middle" x="259.38" y="-6.5" font-family="Arial" font-size="10.00">/ProjectileBullet.cpp</text>
</a>
</g>
</g>
<!-- Node3&#45;&gt;Node4 -->
<g id="edge3_Node000003_Node000004" class="edge">
<title>Node3&#45;&gt;Node4</title>
<g id="a_edge3_Node000003_Node000004"><a xlink:title=" ">
<path fill="none" stroke="#63b8ff" d="M259.38,-68.25C259.38,-60.15 259.38,-51.68 259.38,-44.29"/>
<polygon fill="#63b8ff" stroke="#63b8ff" points="255.88,-68.17 259.38,-78.17 262.88,-68.17 255.88,-68.17"/>
</a>
</g>
</g>
</g>
</svg>
