<?xml version="1.0" encoding="UTF-8" standalone="no"?>
<!DOCTYPE svg PUBLIC "-//W3C//DTD SVG 1.1//EN"
 "http://www.w3.org/Graphics/SVG/1.1/DTD/svg11.dtd">
<!-- Generated by graphviz version 12.2.1 (20241206.2353)
 -->
<!-- Title: MultiplayerShooter/BaseWeapon/ProjectileWeapons/ProjectileBullet.cpp Pages: 1 -->
<svg width="1938pt" height="336pt"
 viewBox="0.00 0.00 1937.75 336.00" xmlns="http://www.w3.org/2000/svg" xmlns:xlink="http://www.w3.org/1999/xlink">
<g id="graph0" class="graph" transform="scale(1 1) rotate(0) translate(4 332)">
<title>MultiplayerShooter/BaseWeapon/ProjectileWeapons/ProjectileBullet.cpp</title>
<!-- Node1 -->
<g id="Node000001" class="node">
<title>Node1</title>
<g id="a_Node000001"><a xlink:title=" ">
<polygon fill="#999999" stroke="#666666" points="1412,-328 1251.25,-328 1251.25,-284 1412,-284 1412,-328"/>
<text text-anchor="start" x="1259.25" y="-314.5" font-family="Arial" font-size="10.00">MultiplayerShooter</text>
<text text-anchor="start" x="1259.25" y="-302.5" font-family="Arial" font-size="10.00">/BaseWeapon/ProjectileWeapons</text>
<text text-anchor="middle" x="1331.62" y="-290.5" font-family="Arial" font-size="10.00">/ProjectileBullet.cpp</text>
</a>
</g>
</g>
<!-- Node2 -->
<g id="Node000002" class="node">
<title>Node2</title>
<g id="a_Node000002"><a xlink:href="_projectile_bullet_8h.html" target="_top" xlink:title=" ">
<polygon fill="white" stroke="#666666" points="143.38,-156 53.88,-156 53.88,-136 143.38,-136 143.38,-156"/>
<text text-anchor="middle" x="98.62" y="-142.5" font-family="Arial" font-size="10.00">ProjectileBullet.h</text>
</a>
</g>
</g>
<!-- Node1&#45;&gt;Node2 -->
<g id="edge1_Node000001_Node000002" class="edge">
<title>Node1&#45;&gt;Node2</title>
<g id="a_edge1_Node000001_Node000002"><a xlink:title=" ">
<path fill="none" stroke="#63b8ff" d="M1250.9,-302.9C1106.15,-298.32 793.09,-284.73 531.62,-248 361.14,-224.05 317.62,-217.14 152.62,-168 145.54,-165.89 138.07,-163.26 131.02,-160.58"/>
<polygon fill="#63b8ff" stroke="#63b8ff" points="132.41,-157.37 121.82,-156.96 129.84,-163.88 132.41,-157.37"/>
</a>
</g>
</g>
<!-- Node8 -->
<g id="Node000008" class="node">
<title>Node8</title>
<g id="a_Node000008"><a xlink:title=" ">
<polygon fill="#e0e0e0" stroke="#999999" points="1716.12,-236 1583.12,-236 1583.12,-216 1716.12,-216 1716.12,-236"/>
<text text-anchor="middle" x="1649.62" y="-222.5" font-family="Arial" font-size="10.00">Kismet/GameplayStatics.h</text>
</a>
</g>
</g>
<!-- Node1&#45;&gt;Node8 -->
<g id="edge8_Node000001_Node000008" class="edge">
<title>Node1&#45;&gt;Node8</title>
<g id="a_edge8_Node000001_Node000008"><a xlink:title=" ">
<path fill="none" stroke="#63b8ff" d="M1412.28,-286.99C1459.68,-276.18 1520.7,-261.87 1574.62,-248 1584.92,-245.35 1595.95,-242.35 1606.31,-239.47"/>
<polygon fill="#63b8ff" stroke="#63b8ff" points="1607.08,-242.89 1615.76,-236.81 1605.19,-236.15 1607.08,-242.89"/>
</a>
</g>
</g>
<!-- Node9 -->
<g id="Node000009" class="node">
<title>Node9</title>
<g id="a_Node000009"><a xlink:title=" ">
<polygon fill="#e0e0e0" stroke="#999999" points="1404.12,-156 1259.12,-156 1259.12,-136 1404.12,-136 1404.12,-156"/>
<text text-anchor="middle" x="1331.62" y="-142.5" font-family="Arial" font-size="10.00">GameFramework/Character.h</text>
</a>
</g>
</g>
<!-- Node1&#45;&gt;Node9 -->
<g id="edge9_Node000001_Node000009" class="edge">
<title>Node1&#45;&gt;Node9</title>
<g id="a_edge9_Node000001_Node000009"><a xlink:title=" ">
<path fill="none" stroke="#63b8ff" d="M1331.62,-283.69C1331.62,-253.18 1331.62,-197.42 1331.62,-167.41"/>
<polygon fill="#63b8ff" stroke="#63b8ff" points="1335.13,-167.79 1331.63,-157.79 1328.13,-167.79 1335.13,-167.79"/>
</a>
</g>
</g>
<!-- Node10 -->
<g id="Node000010" class="node">
<title>Node10</title>
<g id="a_Node000010"><a xlink:title=" ">
<polygon fill="#e0e0e0" stroke="#999999" points="1868.88,-242 1734.38,-242 1734.38,-210 1868.88,-210 1868.88,-242"/>
<text text-anchor="start" x="1742.38" y="-228.5" font-family="Arial" font-size="10.00">GameFramework/Projectile</text>
<text text-anchor="middle" x="1801.62" y="-216.5" font-family="Arial" font-size="10.00">MovementComponent.h</text>
</a>
</g>
</g>
<!-- Node1&#45;&gt;Node10 -->
<g id="edge10_Node000001_Node000010" class="edge">
<title>Node1&#45;&gt;Node10</title>
<g id="a_edge10_Node000001_Node000010"><a xlink:title=" ">
<path fill="none" stroke="#63b8ff" d="M1412.13,-296.36C1492.13,-287.07 1618.07,-270.55 1725.62,-248 1729.68,-247.15 1733.84,-246.21 1738.03,-245.2"/>
<polygon fill="#63b8ff" stroke="#63b8ff" points="1738.77,-248.63 1747.63,-242.81 1737.08,-241.83 1738.77,-248.63"/>
</a>
</g>
</g>
<!-- Node11 -->
<g id="Node000011" class="node">
<title>Node11</title>
<g id="a_Node000011"><a xlink:href="_lag_compensation_component_8h.html" target="_top" xlink:title=" ">
<polygon fill="white" stroke="#666666" points="341.38,-168 161.88,-168 161.88,-124 341.38,-124 341.38,-168"/>
<text text-anchor="start" x="169.88" y="-154.5" font-family="Arial" font-size="10.00">MultiplayerShooter</text>
<text text-anchor="start" x="169.88" y="-142.5" font-family="Arial" font-size="10.00">/ActorComponents/LagCompensation</text>
<text text-anchor="middle" x="251.62" y="-130.5" font-family="Arial" font-size="10.00">Component.h</text>
</a>
</g>
</g>
<!-- Node1&#45;&gt;Node11 -->
<g id="edge11_Node000001_Node000011" class="edge">
<title>Node1&#45;&gt;Node11</title>
<g id="a_edge11_Node000001_Node000011"><a xlink:title=" ">
<path fill="none" stroke="#63b8ff" d="M1251.04,-298.25C1145.96,-289.03 956.59,-271 795.62,-248 600.29,-220.09 549.64,-207.1 352.73,-168.4"/>
<polygon fill="#63b8ff" stroke="#63b8ff" points="353.68,-165.02 343.19,-166.52 352.33,-171.89 353.68,-165.02"/>
</a>
</g>
</g>
<!-- Node14 -->
<g id="Node000014" class="node">
<title>Node14</title>
<g id="a_Node000014"><a xlink:href="_main_character_8h.html" target="_top" xlink:title=" ">
<polygon fill="white" stroke="#666666" points="962.5,-242 804.75,-242 804.75,-210 962.5,-210 962.5,-242"/>
<text text-anchor="start" x="812.75" y="-228.5" font-family="Arial" font-size="10.00">MultiplayerShooter</text>
<text text-anchor="middle" x="883.62" y="-216.5" font-family="Arial" font-size="10.00">/MainCharacter/MainCharacter.h</text>
</a>
</g>
</g>
<!-- Node1&#45;&gt;Node14 -->
<g id="edge15_Node000001_Node000014" class="edge">
<title>Node1&#45;&gt;Node14</title>
<g id="a_edge15_Node000001_Node000014"><a xlink:title=" ">
<path fill="none" stroke="#63b8ff" d="M1250.76,-290.92C1172.76,-277.34 1054.94,-256.83 973.92,-242.72"/>
<polygon fill="#63b8ff" stroke="#63b8ff" points="974.68,-239.3 964.23,-241.03 973.48,-246.2 974.68,-239.3"/>
</a>
</g>
</g>
<!-- Node25 -->
<g id="Node000025" class="node">
<title>Node25</title>
<g id="a_Node000025"><a xlink:href="_my_player_controller_8h.html" target="_top" xlink:title=" ">
<polygon fill="white" stroke="#666666" points="1565.12,-248 1432.12,-248 1432.12,-204 1565.12,-204 1565.12,-248"/>
<text text-anchor="start" x="1440.12" y="-234.5" font-family="Arial" font-size="10.00">MultiplayerShooter</text>
<text text-anchor="start" x="1440.12" y="-222.5" font-family="Arial" font-size="10.00">/PlayerController/MyPlayer</text>
<text text-anchor="middle" x="1498.62" y="-210.5" font-family="Arial" font-size="10.00">Controller.h</text>
</a>
</g>
</g>
<!-- Node1&#45;&gt;Node25 -->
<g id="edge33_Node000001_Node000025" class="edge">
<title>Node1&#45;&gt;Node25</title>
<g id="a_edge33_Node000001_Node000025"><a xlink:title=" ">
<path fill="none" stroke="#63b8ff" d="M1377.26,-283.69C1397.43,-274.27 1421.33,-263.1 1442.57,-253.18"/>
<polygon fill="#63b8ff" stroke="#63b8ff" points="1443.81,-256.47 1451.39,-249.06 1440.84,-250.12 1443.81,-256.47"/>
</a>
</g>
</g>
<!-- Node3 -->
<g id="Node000003" class="node">
<title>Node3</title>
<g id="a_Node000003"><a xlink:title=" ">
<polygon fill="#e0e0e0" stroke="#999999" points="874.12,-20 795.12,-20 795.12,0 874.12,0 874.12,-20"/>
<text text-anchor="middle" x="834.62" y="-6.5" font-family="Arial" font-size="10.00">CoreMinimal.h</text>
</a>
</g>
</g>
<!-- Node2&#45;&gt;Node3 -->
<g id="edge2_Node000002_Node000003" class="edge">
<title>Node2&#45;&gt;Node3</title>
<g id="a_edge2_Node000002_Node000003"><a xlink:title=" ">
<path fill="none" stroke="#63b8ff" d="M123.92,-135.56C150.31,-125.3 192.5,-107.71 226.62,-88 247.56,-75.9 247.95,-64.39 270.62,-56 363.91,-21.5 662.53,-13.42 783.26,-11.55"/>
<polygon fill="#63b8ff" stroke="#63b8ff" points="783.25,-15.06 793.2,-11.41 783.15,-8.06 783.25,-15.06"/>
</a>
</g>
</g>
<!-- Node4 -->
<g id="Node000004" class="node">
<title>Node4</title>
<g id="a_Node000004"><a xlink:href="_projectile_8h.html" target="_top" xlink:title=" ">
<polygon fill="white" stroke="#666666" points="218,-82 153.25,-82 153.25,-62 218,-62 218,-82"/>
<text text-anchor="middle" x="185.62" y="-68.5" font-family="Arial" font-size="10.00">Projectile.h</text>
</a>
</g>
</g>
<!-- Node2&#45;&gt;Node4 -->
<g id="edge3_Node000002_Node000004" class="edge">
<title>Node2&#45;&gt;Node4</title>
<g id="a_edge3_Node000002_Node000004"><a xlink:title=" ">
<path fill="none" stroke="#63b8ff" d="M110,-135.59C124.07,-123.94 148.26,-103.92 165.5,-89.66"/>
<polygon fill="#63b8ff" stroke="#63b8ff" points="167.61,-92.45 173.08,-83.38 163.15,-87.06 167.61,-92.45"/>
</a>
</g>
</g>
<!-- Node7 -->
<g id="Node000007" class="node">
<title>Node7</title>
<g id="a_Node000007"><a xlink:title=" ">
<polygon fill="#e0e0e0" stroke="#999999" points="135.25,-82 0,-82 0,-62 135.25,-62 135.25,-82"/>
<text text-anchor="middle" x="67.62" y="-68.5" font-family="Arial" font-size="10.00">ProjectileBullet.generated.h</text>
</a>
</g>
</g>
<!-- Node2&#45;&gt;Node7 -->
<g id="edge7_Node000002_Node000007" class="edge">
<title>Node2&#45;&gt;Node7</title>
<g id="a_edge7_Node000002_Node000007"><a xlink:title=" ">
<path fill="none" stroke="#63b8ff" d="M94.57,-135.59C89.91,-124.75 82.11,-106.64 76.1,-92.68"/>
<polygon fill="#63b8ff" stroke="#63b8ff" points="79.35,-91.38 72.18,-83.58 72.92,-94.15 79.35,-91.38"/>
</a>
</g>
</g>
<!-- Node4&#45;&gt;Node3 -->
<g id="edge4_Node000004_Node000003" class="edge">
<title>Node4&#45;&gt;Node3</title>
<g id="a_edge4_Node000004_Node000003"><a xlink:title=" ">
<path fill="none" stroke="#63b8ff" d="M210.64,-61.64C217.37,-59.45 224.7,-57.37 231.62,-56 432.94,-16.27 678.38,-10.98 783.19,-10.69"/>
<polygon fill="#63b8ff" stroke="#63b8ff" points="783.16,-14.19 793.16,-10.68 783.16,-7.19 783.16,-14.19"/>
</a>
</g>
</g>
<!-- Node5 -->
<g id="Node000005" class="node">
<title>Node5</title>
<g id="a_Node000005"><a xlink:title=" ">
<polygon fill="#e0e0e0" stroke="#999999" points="180.38,-20 54.88,-20 54.88,0 180.38,0 180.38,-20"/>
<text text-anchor="middle" x="117.62" y="-6.5" font-family="Arial" font-size="10.00">GameFramework/Actor.h</text>
</a>
</g>
</g>
<!-- Node4&#45;&gt;Node5 -->
<g id="edge5_Node000004_Node000005" class="edge">
<title>Node4&#45;&gt;Node5</title>
<g id="a_edge5_Node000004_Node000005"><a xlink:title=" ">
<path fill="none" stroke="#63b8ff" d="M175,-61.62C164.66,-52.5 148.73,-38.45 136.28,-27.46"/>
<polygon fill="#63b8ff" stroke="#63b8ff" points="138.9,-25.11 129.09,-21.11 134.27,-30.35 138.9,-25.11"/>
</a>
</g>
</g>
<!-- Node6 -->
<g id="Node000006" class="node">
<title>Node6</title>
<g id="a_Node000006"><a xlink:title=" ">
<polygon fill="#e0e0e0" stroke="#999999" points="308.88,-20 198.38,-20 198.38,0 308.88,0 308.88,-20"/>
<text text-anchor="middle" x="253.62" y="-6.5" font-family="Arial" font-size="10.00">Projectile.generated.h</text>
</a>
</g>
</g>
<!-- Node4&#45;&gt;Node6 -->
<g id="edge6_Node000004_Node000006" class="edge">
<title>Node4&#45;&gt;Node6</title>
<g id="a_edge6_Node000004_Node000006"><a xlink:title=" ">
<path fill="none" stroke="#63b8ff" d="M196.25,-61.62C206.59,-52.5 222.52,-38.45 234.97,-27.46"/>
<polygon fill="#63b8ff" stroke="#63b8ff" points="236.98,-30.35 242.16,-21.11 232.35,-25.11 236.98,-30.35"/>
</a>
</g>
</g>
<!-- Node11&#45;&gt;Node3 -->
<g id="edge12_Node000011_Node000003" class="edge">
<title>Node11&#45;&gt;Node3</title>
<g id="a_edge12_Node000011_Node000003"><a xlink:title=" ">
<path fill="none" stroke="#63b8ff" d="M257.49,-123.69C264.51,-102.64 278.45,-71.41 302.62,-56 342.61,-30.52 658.53,-17.02 783.76,-12.63"/>
<polygon fill="#63b8ff" stroke="#63b8ff" points="783.53,-16.14 793.4,-12.3 783.28,-9.15 783.53,-16.14"/>
</a>
</g>
</g>
<!-- Node12 -->
<g id="Node000012" class="node">
<title>Node12</title>
<g id="a_Node000012"><a xlink:title=" ">
<polygon fill="#e0e0e0" stroke="#999999" points="1193.75,-82 1037.5,-82 1037.5,-62 1193.75,-62 1193.75,-82"/>
<text text-anchor="middle" x="1115.62" y="-68.5" font-family="Arial" font-size="10.00">Components/ActorComponent.h</text>
</a>
</g>
</g>
<!-- Node11&#45;&gt;Node12 -->
<g id="edge13_Node000011_Node000012" class="edge">
<title>Node11&#45;&gt;Node12</title>
<g id="a_edge13_Node000011_Node000012"><a xlink:title=" ">
<path fill="none" stroke="#63b8ff" d="M341.63,-125.29C344.66,-124.82 347.66,-124.39 350.62,-124 649.8,-84.57 728.75,-121.69 1028.62,-88 1037.41,-87.01 1046.65,-85.71 1055.69,-84.28"/>
<polygon fill="#63b8ff" stroke="#63b8ff" points="1056.2,-87.75 1065.5,-82.67 1055.07,-80.84 1056.2,-87.75"/>
</a>
</g>
</g>
<!-- Node13 -->
<g id="Node000013" class="node">
<title>Node13</title>
<g id="a_Node000013"><a xlink:title=" ">
<polygon fill="#e0e0e0" stroke="#999999" points="511.12,-82 312.12,-82 312.12,-62 511.12,-62 511.12,-82"/>
<text text-anchor="middle" x="411.62" y="-68.5" font-family="Arial" font-size="10.00">LagCompensationComponent.generated.h</text>
</a>
</g>
</g>
<!-- Node11&#45;&gt;Node13 -->
<g id="edge14_Node000011_Node000013" class="edge">
<title>Node11&#45;&gt;Node13</title>
<g id="a_edge14_Node000011_Node000013"><a xlink:title=" ">
<path fill="none" stroke="#63b8ff" d="M299.2,-123.59C325.44,-111.78 357.29,-97.45 380.38,-87.06"/>
<polygon fill="#63b8ff" stroke="#63b8ff" points="381.57,-90.36 389.25,-83.07 378.69,-83.98 381.57,-90.36"/>
</a>
</g>
</g>
<!-- Node14&#45;&gt;Node3 -->
<g id="edge16_Node000014_Node000003" class="edge">
<title>Node14&#45;&gt;Node3</title>
<g id="a_edge16_Node000014_Node000003"><a xlink:title=" ">
<path fill="none" stroke="#63b8ff" d="M869.84,-209.8C860.93,-198.99 850.02,-183.64 844.62,-168 828.51,-121.23 830.19,-62.05 832.56,-31.43"/>
<polygon fill="#63b8ff" stroke="#63b8ff" points="836.02,-31.96 833.42,-21.69 829.05,-31.34 836.02,-31.96"/>
</a>
</g>
</g>
<!-- Node14&#45;&gt;Node9 -->
<g id="edge17_Node000014_Node000009" class="edge">
<title>Node14&#45;&gt;Node9</title>
<g id="a_edge17_Node000014_Node000009"><a xlink:title=" ">
<path fill="none" stroke="#63b8ff" d="M962.78,-215.03C1037.39,-205.08 1152.12,-188.37 1250.62,-168 1262.59,-165.53 1275.44,-162.41 1287.3,-159.34"/>
<polygon fill="#63b8ff" stroke="#63b8ff" points="1288.06,-162.76 1296.84,-156.82 1286.28,-155.99 1288.06,-162.76"/>
</a>
</g>
</g>
<!-- Node15 -->
<g id="Node000015" class="node">
<title>Node15</title>
<g id="a_Node000015"><a xlink:href="_turning_in_place_8h.html" target="_top" xlink:title=" ">
<polygon fill="white" stroke="#666666" points="481.5,-162 359.75,-162 359.75,-130 481.5,-130 481.5,-162"/>
<text text-anchor="start" x="367.75" y="-148.5" font-family="Arial" font-size="10.00">MultiplayerShooter</text>
<text text-anchor="middle" x="420.62" y="-136.5" font-family="Arial" font-size="10.00">/Types/TurningInPlace.h</text>
</a>
</g>
</g>
<!-- Node14&#45;&gt;Node15 -->
<g id="edge18_Node000014_Node000015" class="edge">
<title>Node14&#45;&gt;Node15</title>
<g id="a_edge18_Node000014_Node000015"><a xlink:title=" ">
<path fill="none" stroke="#63b8ff" d="M804.34,-216.98C724.52,-208.09 598.16,-191.79 490.62,-168 487.03,-167.21 483.36,-166.32 479.66,-165.38"/>
<polygon fill="#63b8ff" stroke="#63b8ff" points="480.61,-162.01 470.04,-162.79 478.79,-168.77 480.61,-162.01"/>
</a>
</g>
</g>
<!-- Node16 -->
<g id="Node000016" class="node">
<title>Node16</title>
<g id="a_Node000016"><a xlink:title=" ">
<polygon fill="#e0e0e0" stroke="#999999" points="645.88,-156 499.38,-156 499.38,-136 645.88,-136 645.88,-156"/>
<text text-anchor="middle" x="572.62" y="-142.5" font-family="Arial" font-size="10.00">Camera/CameraComponent.h</text>
</a>
</g>
</g>
<!-- Node14&#45;&gt;Node16 -->
<g id="edge19_Node000014_Node000016" class="edge">
<title>Node14&#45;&gt;Node16</title>
<g id="a_edge19_Node000014_Node000016"><a xlink:title=" ">
<path fill="none" stroke="#63b8ff" d="M820.91,-209.51C774.87,-198.11 710.83,-182.19 654.62,-168 643.51,-165.19 631.56,-162.15 620.31,-159.27"/>
<polygon fill="#63b8ff" stroke="#63b8ff" points="621.37,-155.93 610.82,-156.84 619.63,-162.71 621.37,-155.93"/>
</a>
</g>
</g>
<!-- Node17 -->
<g id="Node000017" class="node">
<title>Node17</title>
<g id="a_Node000017"><a xlink:href="_buff_component_8h.html" target="_top" xlink:title=" ">
<polygon fill="white" stroke="#666666" points="1029.88,-162 853.38,-162 853.38,-130 1029.88,-130 1029.88,-162"/>
<text text-anchor="start" x="861.38" y="-148.5" font-family="Arial" font-size="10.00">MultiplayerShooter</text>
<text text-anchor="middle" x="941.62" y="-136.5" font-family="Arial" font-size="10.00">/ActorComponents/BuffComponent.h</text>
</a>
</g>
</g>
<!-- Node14&#45;&gt;Node17 -->
<g id="edge20_Node000014_Node000017" class="edge">
<title>Node14&#45;&gt;Node17</title>
<g id="a_edge20_Node000014_Node000017"><a xlink:title=" ">
<path fill="none" stroke="#63b8ff" d="M895.08,-209.59C903.19,-198.69 914.22,-183.86 923.5,-171.37"/>
<polygon fill="#63b8ff" stroke="#63b8ff" points="926.13,-173.71 929.29,-163.59 920.51,-169.53 926.13,-173.71"/>
</a>
</g>
</g>
<!-- Node19 -->
<g id="Node000019" class="node">
<title>Node19</title>
<g id="a_Node000019"><a xlink:href="_combat_component_8h.html" target="_top" xlink:title=" ">
<polygon fill="white" stroke="#666666" points="1241.5,-162 1047.75,-162 1047.75,-130 1241.5,-130 1241.5,-162"/>
<text text-anchor="start" x="1055.75" y="-148.5" font-family="Arial" font-size="10.00">MultiplayerShooter</text>
<text text-anchor="middle" x="1144.62" y="-136.5" font-family="Arial" font-size="10.00">/ActorComponents/CombatComponent.h</text>
</a>
</g>
</g>
<!-- Node14&#45;&gt;Node19 -->
<g id="edge24_Node000014_Node000019" class="edge">
<title>Node14&#45;&gt;Node19</title>
<g id="a_edge24_Node000014_Node000019"><a xlink:title=" ">
<path fill="none" stroke="#63b8ff" d="M935.19,-209.59C977.46,-196.96 1037.43,-179.03 1082.37,-165.6"/>
<polygon fill="#63b8ff" stroke="#63b8ff" points="1083.14,-169.03 1091.72,-162.81 1081.13,-162.32 1083.14,-169.03"/>
</a>
</g>
</g>
<!-- Node24 -->
<g id="Node000024" class="node">
<title>Node24</title>
<g id="a_Node000024"><a xlink:title=" ">
<polygon fill="#e0e0e0" stroke="#999999" points="797.5,-156 663.75,-156 663.75,-136 797.5,-136 797.5,-156"/>
<text text-anchor="middle" x="730.62" y="-142.5" font-family="Arial" font-size="10.00">MainCharacter.generated.h</text>
</a>
</g>
</g>
<!-- Node14&#45;&gt;Node24 -->
<g id="edge32_Node000014_Node000024" class="edge">
<title>Node14&#45;&gt;Node24</title>
<g id="a_edge32_Node000014_Node000024"><a xlink:title=" ">
<path fill="none" stroke="#63b8ff" d="M853.4,-209.59C826.03,-195.64 786,-175.23 759.17,-161.55"/>
<polygon fill="#63b8ff" stroke="#63b8ff" points="761.08,-158.6 750.59,-157.18 757.91,-164.84 761.08,-158.6"/>
</a>
</g>
</g>
<!-- Node17&#45;&gt;Node3 -->
<g id="edge21_Node000017_Node000003" class="edge">
<title>Node17&#45;&gt;Node3</title>
<g id="a_edge21_Node000017_Node000003"><a xlink:title=" ">
<path fill="none" stroke="#63b8ff" d="M918.35,-129.63C903.84,-119.18 885.54,-104.33 872.62,-88 858.78,-70.5 848.13,-47.15 841.68,-30.76"/>
<polygon fill="#63b8ff" stroke="#63b8ff" points="845.06,-29.8 838.27,-21.66 838.5,-32.26 845.06,-29.8"/>
</a>
</g>
</g>
<!-- Node17&#45;&gt;Node12 -->
<g id="edge22_Node000017_Node000012" class="edge">
<title>Node17&#45;&gt;Node12</title>
<g id="a_edge22_Node000017_Node000012"><a xlink:title=" ">
<path fill="none" stroke="#63b8ff" d="M978.95,-129.55C1009.59,-116.88 1052.58,-99.09 1082.13,-86.86"/>
<polygon fill="#63b8ff" stroke="#63b8ff" points="1083.44,-90.11 1091.34,-83.05 1080.76,-83.64 1083.44,-90.11"/>
</a>
</g>
</g>
<!-- Node18 -->
<g id="Node000018" class="node">
<title>Node18</title>
<g id="a_Node000018"><a xlink:title=" ">
<polygon fill="#e0e0e0" stroke="#999999" points="1019.38,-82 881.88,-82 881.88,-62 1019.38,-62 1019.38,-82"/>
<text text-anchor="middle" x="950.62" y="-68.5" font-family="Arial" font-size="10.00">BuffComponent.generated.h</text>
</a>
</g>
</g>
<!-- Node17&#45;&gt;Node18 -->
<g id="edge23_Node000017_Node000018" class="edge">
<title>Node17&#45;&gt;Node18</title>
<g id="a_edge23_Node000017_Node000018"><a xlink:title=" ">
<path fill="none" stroke="#63b8ff" d="M943.53,-129.73C944.85,-119.18 946.62,-105.03 948.06,-93.5"/>
<polygon fill="#63b8ff" stroke="#63b8ff" points="951.51,-94.17 949.27,-83.81 944.56,-93.3 951.51,-94.17"/>
</a>
</g>
</g>
<!-- Node19&#45;&gt;Node3 -->
<g id="edge25_Node000019_Node000003" class="edge">
<title>Node19&#45;&gt;Node3</title>
<g id="a_edge25_Node000019_Node000003"><a xlink:title=" ">
<path fill="none" stroke="#63b8ff" d="M1166.9,-129.56C1191.01,-111.02 1223.41,-79.48 1202.62,-56 1181.97,-32.66 981.95,-18.88 885.77,-13.55"/>
<polygon fill="#63b8ff" stroke="#63b8ff" points="885.99,-10.06 875.81,-13.01 885.61,-17.05 885.99,-10.06"/>
</a>
</g>
</g>
<!-- Node19&#45;&gt;Node12 -->
<g id="edge26_Node000019_Node000012" class="edge">
<title>Node19&#45;&gt;Node12</title>
<g id="a_edge26_Node000019_Node000012"><a xlink:title=" ">
<path fill="none" stroke="#63b8ff" d="M1138.47,-129.73C1134.14,-118.96 1128.28,-104.43 1123.59,-92.77"/>
<polygon fill="#63b8ff" stroke="#63b8ff" points="1126.92,-91.68 1119.94,-83.72 1120.43,-94.3 1126.92,-91.68"/>
</a>
</g>
</g>
<!-- Node20 -->
<g id="Node000020" class="node">
<title>Node20</title>
<g id="a_Node000020"><a xlink:href="_main_h_u_d_8h.html" target="_top" xlink:title=" ">
<polygon fill="white" stroke="#666666" points="1729.12,-88 1632.12,-88 1632.12,-56 1729.12,-56 1729.12,-88"/>
<text text-anchor="start" x="1640.12" y="-74.5" font-family="Arial" font-size="10.00">MultiplayerShooter</text>
<text text-anchor="middle" x="1680.62" y="-62.5" font-family="Arial" font-size="10.00">/HUD/MainHUD.h</text>
</a>
</g>
</g>
<!-- Node19&#45;&gt;Node20 -->
<g id="edge27_Node000019_Node000020" class="edge">
<title>Node19&#45;&gt;Node20</title>
<g id="a_edge27_Node000019_Node000020"><a xlink:title=" ">
<path fill="none" stroke="#63b8ff" d="M1218.91,-129.53C1229.53,-127.53 1240.34,-125.63 1250.62,-124 1382,-103.23 1537.17,-86.81 1620.5,-78.65"/>
<polygon fill="#63b8ff" stroke="#63b8ff" points="1620.65,-82.15 1630.26,-77.7 1619.97,-75.18 1620.65,-82.15"/>
</a>
</g>
</g>
<!-- Node23 -->
<g id="Node000023" class="node">
<title>Node23</title>
<g id="a_Node000023"><a xlink:title=" ">
<polygon fill="#e0e0e0" stroke="#999999" points="1404,-82 1249.25,-82 1249.25,-62 1404,-62 1404,-82"/>
<text text-anchor="middle" x="1326.62" y="-68.5" font-family="Arial" font-size="10.00">CombatComponent.generated.h</text>
</a>
</g>
</g>
<!-- Node19&#45;&gt;Node23 -->
<g id="edge31_Node000019_Node000023" class="edge">
<title>Node19&#45;&gt;Node23</title>
<g id="a_edge31_Node000019_Node000023"><a xlink:title=" ">
<path fill="none" stroke="#63b8ff" d="M1183.67,-129.55C1215.85,-116.82 1261.08,-98.93 1291.99,-86.7"/>
<polygon fill="#63b8ff" stroke="#63b8ff" points="1293.27,-89.96 1301.28,-83.03 1290.69,-83.45 1293.27,-89.96"/>
</a>
</g>
</g>
<!-- Node20&#45;&gt;Node3 -->
<g id="edge28_Node000020_Node000003" class="edge">
<title>Node20&#45;&gt;Node3</title>
<g id="a_edge28_Node000020_Node000003"><a xlink:title=" ">
<path fill="none" stroke="#63b8ff" d="M1631.95,-58.51C1627.13,-57.55 1622.3,-56.69 1617.62,-56 1343.88,-15.87 1011.4,-11.09 885.88,-10.83"/>
<polygon fill="#63b8ff" stroke="#63b8ff" points="885.91,-7.33 875.9,-10.82 885.9,-14.33 885.91,-7.33"/>
</a>
</g>
</g>
<!-- Node21 -->
<g id="Node000021" class="node">
<title>Node21</title>
<g id="a_Node000021"><a xlink:title=" ">
<polygon fill="#e0e0e0" stroke="#999999" points="1811,-20 1686.25,-20 1686.25,0 1811,0 1811,-20"/>
<text text-anchor="middle" x="1748.62" y="-6.5" font-family="Arial" font-size="10.00">GameFramework/HUD.h</text>
</a>
</g>
</g>
<!-- Node20&#45;&gt;Node21 -->
<g id="edge29_Node000020_Node000021" class="edge">
<title>Node20&#45;&gt;Node21</title>
<g id="a_edge29_Node000020_Node000021"><a xlink:title=" ">
<path fill="none" stroke="#63b8ff" d="M1698.14,-55.55C1707.78,-47.04 1719.75,-36.48 1729.62,-27.77"/>
<polygon fill="#63b8ff" stroke="#63b8ff" points="1731.64,-30.65 1736.83,-21.41 1727.01,-25.4 1731.64,-30.65"/>
</a>
</g>
</g>
<!-- Node22 -->
<g id="Node000022" class="node">
<title>Node22</title>
<g id="a_Node000022"><a xlink:title=" ">
<polygon fill="#e0e0e0" stroke="#999999" points="1668.38,-20 1554.88,-20 1554.88,0 1668.38,0 1668.38,-20"/>
<text text-anchor="middle" x="1611.62" y="-6.5" font-family="Arial" font-size="10.00">MainHUD.generated.h</text>
</a>
</g>
</g>
<!-- Node20&#45;&gt;Node22 -->
<g id="edge30_Node000020_Node000022" class="edge">
<title>Node20&#45;&gt;Node22</title>
<g id="a_edge30_Node000020_Node000022"><a xlink:title=" ">
<path fill="none" stroke="#63b8ff" d="M1662.86,-55.55C1653.07,-47.04 1640.92,-36.48 1630.91,-27.77"/>
<polygon fill="#63b8ff" stroke="#63b8ff" points="1633.43,-25.32 1623.59,-21.4 1628.84,-30.6 1633.43,-25.32"/>
</a>
</g>
</g>
<!-- Node25&#45;&gt;Node3 -->
<g id="edge34_Node000025_Node000003" class="edge">
<title>Node25&#45;&gt;Node3</title>
<g id="a_edge34_Node000025_Node000003"><a xlink:title=" ">
<path fill="none" stroke="#63b8ff" d="M1548.33,-203.51C1562.66,-194.71 1576.58,-182.99 1584.62,-168 1593.88,-150.77 1595.62,-140.17 1584.62,-124 1538.4,-56.02 1492.72,-74.51 1412.62,-56 1312.99,-32.98 1007.38,-18.15 885.54,-13.02"/>
<polygon fill="#63b8ff" stroke="#63b8ff" points="885.98,-9.53 875.85,-12.61 885.69,-16.52 885.98,-9.53"/>
</a>
</g>
</g>
<!-- Node26 -->
<g id="Node000026" class="node">
<title>Node26</title>
<g id="a_Node000026"><a xlink:title=" ">
<polygon fill="#e0e0e0" stroke="#999999" points="1803.62,-156 1631.62,-156 1631.62,-136 1803.62,-136 1803.62,-156"/>
<text text-anchor="middle" x="1717.62" y="-142.5" font-family="Arial" font-size="10.00">GameFramework/PlayerController.h</text>
</a>
</g>
</g>
<!-- Node25&#45;&gt;Node26 -->
<g id="edge35_Node000025_Node000026" class="edge">
<title>Node25&#45;&gt;Node26</title>
<g id="a_edge35_Node000025_Node000026"><a xlink:title=" ">
<path fill="none" stroke="#63b8ff" d="M1558.76,-203.58C1597.67,-189.73 1647.09,-172.12 1680.4,-160.26"/>
<polygon fill="#63b8ff" stroke="#63b8ff" points="1681.36,-163.63 1689.61,-156.98 1679.02,-157.04 1681.36,-163.63"/>
</a>
</g>
</g>
<!-- Node27 -->
<g id="Node000027" class="node">
<title>Node27</title>
<g id="a_Node000027"><a xlink:title=" ">
<polygon fill="#e0e0e0" stroke="#999999" points="1929.75,-156 1821.5,-156 1821.5,-136 1929.75,-136 1929.75,-156"/>
<text text-anchor="middle" x="1875.62" y="-142.5" font-family="Arial" font-size="10.00">Sound/SoundClass.h</text>
</a>
</g>
</g>
<!-- Node25&#45;&gt;Node27 -->
<g id="edge36_Node000025_Node000027" class="edge">
<title>Node25&#45;&gt;Node27</title>
<g id="a_edge36_Node000025_Node000027"><a xlink:title=" ">
<path fill="none" stroke="#63b8ff" d="M1565.24,-206.11C1568.41,-205.36 1571.55,-204.66 1574.62,-204 1679.26,-181.71 1708.61,-193.01 1812.62,-168 1821.53,-165.86 1830.98,-163.02 1839.77,-160.13"/>
<polygon fill="#63b8ff" stroke="#63b8ff" points="1840.7,-163.51 1849.04,-156.97 1838.44,-156.89 1840.7,-163.51"/>
</a>
</g>
</g>
<!-- Node28 -->
<g id="Node000028" class="node">
<title>Node28</title>
<g id="a_Node000028"><a xlink:title=" ">
<polygon fill="#e0e0e0" stroke="#999999" points="1575.25,-156 1422,-156 1422,-136 1575.25,-136 1575.25,-156"/>
<text text-anchor="middle" x="1498.62" y="-142.5" font-family="Arial" font-size="10.00">MyPlayerController.generated.h</text>
</a>
</g>
</g>
<!-- Node25&#45;&gt;Node28 -->
<g id="edge37_Node000025_Node000028" class="edge">
<title>Node25&#45;&gt;Node28</title>
<g id="a_edge37_Node000025_Node000028"><a xlink:title=" ">
<path fill="none" stroke="#63b8ff" d="M1498.62,-203.69C1498.62,-192.41 1498.62,-178.64 1498.62,-167.49"/>
<polygon fill="#63b8ff" stroke="#63b8ff" points="1502.13,-167.81 1498.63,-157.81 1495.13,-167.81 1502.13,-167.81"/>
</a>
</g>
</g>
</g>
</svg>
