<?xml version="1.0" encoding="UTF-8" standalone="no"?>
<!DOCTYPE svg PUBLIC "-//W3C//DTD SVG 1.1//EN"
 "http://www.w3.org/Graphics/SVG/1.1/DTD/svg11.dtd">
<!-- Generated by graphviz version 12.2.1 (20241206.2353)
 -->
<!-- Title: MultiplayerShooter/HUD/SettingsMenu.cpp Pages: 1 -->
<!--zoomable 176 -->

<svg id="main" version="1.1" xmlns="http://www.w3.org/2000/svg" xmlns:xlink="http://www.w3.org/1999/xlink" xml:space="preserve" onload="init(evt)">

<style type="text/css"><![CDATA[
.node, .edge {opacity: 0.7;}
.node.selected, .edge.selected {opacity: 1;}
.edge:hover path { stroke: red; }
.edge:hover polygon { stroke: red; fill: red; }
]]></style>

<defs>
  <circle id="rim" cx="0" cy="0" r="7"/>
  <circle id="rim2" cx="0" cy="0" r="3.5"/>
  <g id="zoomPlus">
    <use xlink:href="#rim" fill="#404040"><set attributeName="fill" to="#808080" begin="zoomplus.mouseover" end="zoomplus.mouseout"/></use>
    <path d="M-4,0h8M0,-4v8" fill="none" stroke="white" stroke-width="1.5" pointer-events="none"/>
  </g>
  <g id="zoomMin">
    <use xlink:href="#rim" fill="#404040"><set attributeName="fill" to="#808080" begin="zoomminus.mouseover" end="zoomminus.mouseout"/></use>
    <path d="M-4,0h8" fill="none" stroke="white" stroke-width="1.5" pointer-events="none"/>
  </g>
  <g id="arrowUp" transform="translate(30 24)">
    <use xlink:href="#rim"/>
    <path pointer-events="none" fill="none" stroke="white" stroke-width="1.5" d="M0,-3.0v7 M-2.5,-0.5L0,-3.0L2.5,-0.5"/>
  </g>
  <g id="arrowRight" transform="rotate(90) translate(36 -43)">
    <use xlink:href="#rim"/>
    <path pointer-events="none" fill="none" stroke="white" stroke-width="1.5" d="M0,-3.0v7 M-2.5,-0.5L0,-3.0L2.5,-0.5"/>
  </g>
  <g id="arrowDown" transform="rotate(180) translate(-30 -48)">
    <use xlink:href="#rim"/>
    <path pointer-events="none" fill="none" stroke="white" stroke-width="1.5" d="M0,-3.0v7 M-2.5,-0.5L0,-3.0L2.5,-0.5"/>
  </g>
  <g id="arrowLeft" transform="rotate(270) translate(-36 17)">
    <use xlink:href="#rim"/>
    <path pointer-events="none" fill="none" stroke="white" stroke-width="1.5" d="M0,-3.0v7 M-2.5,-0.5L0,-3.0L2.5,-0.5"/>
  </g>
  <g id="resetDef">
    <use xlink:href="#rim2" fill="#404040"><set attributeName="fill" to="#808080" begin="reset.mouseover" end="reset.mouseout"/></use>
  </g>
</defs>
<script type="application/ecmascript">
var viewWidth = 1200;
var viewHeight = 176;
var sectionId = 'dynsection-0';
</script>
<script type="application/ecmascript" xlink:href="svg.min.js"/>
<svg id="graph" class="graph">
<g id="viewport">
<title>MultiplayerShooter/HUD/SettingsMenu.cpp</title>
<!-- Node1 -->
<g id="Node000001" class="node">
<title>Node1</title>
<g id="a_Node000001"><a xlink:title=" ">
<polygon fill="#999999" stroke="#666666" points="453.25,-168 330,-168 330,-136 453.25,-136 453.25,-168"/>
<text text-anchor="start" x="338" y="-154.5" font-family="Arial" font-size="10.00">MultiplayerShooter</text>
<text text-anchor="middle" x="391.62" y="-142.5" font-family="Arial" font-size="10.00">/HUD/SettingsMenu.cpp</text>
</a>
</g>
</g>
<!-- Node2 -->
<g id="Node000002" class="node">
<title>Node2</title>
<g id="a_Node000002"><a xlink:href="_settings_menu_8h.html" target="_top" xlink:title=" ">
<polygon fill="white" stroke="#666666" points="242.75,-88 158.5,-88 158.5,-68 242.75,-68 242.75,-88"/>
<text text-anchor="middle" x="200.62" y="-74.5" font-family="Arial" font-size="10.00">SettingsMenu.h</text>
</a>
</g>
</g>
<!-- Node1&#45;&gt;Node2 -->
<g id="edge1_Node000001_Node000002" class="edge">
<title>Node1&#45;&gt;Node2</title>
<g id="a_edge1_Node000001_Node000002"><a xlink:title=" ">
<path fill="none" stroke="#63b8ff" d="M347.94,-135.61C320.24,-125.72 283.7,-112.44 251.62,-100 245.71,-97.71 239.44,-95.19 233.4,-92.73"/>
<polygon fill="#63b8ff" stroke="#63b8ff" points="234.87,-89.55 224.29,-88.98 232.2,-96.02 234.87,-89.55"/>
</a>
</g>
</g>
<!-- Node6 -->
<g id="Node000006" class="node">
<title>Node6</title>
<g id="a_Node000006"><a xlink:title=" ">
<polygon fill="#e0e0e0" stroke="#999999" points="368.38,-88 260.88,-88 260.88,-68 368.38,-68 368.38,-88"/>
<text text-anchor="middle" x="314.62" y="-74.5" font-family="Arial" font-size="10.00">Components/Slider.h</text>
</a>
</g>
</g>
<!-- Node1&#45;&gt;Node6 -->
<g id="edge5_Node000001_Node000006" class="edge">
<title>Node1&#45;&gt;Node6</title>
<g id="a_edge5_Node000001_Node000006"><a xlink:title=" ">
<path fill="none" stroke="#63b8ff" d="M375.3,-135.73C362.81,-124.06 345.61,-107.98 332.72,-95.92"/>
<polygon fill="#63b8ff" stroke="#63b8ff" points="335.38,-93.62 325.69,-89.35 330.6,-98.73 335.38,-93.62"/>
</a>
</g>
</g>
<!-- Node7 -->
<g id="Node000007" class="node">
<title>Node7</title>
<g id="a_Node000007"><a xlink:href="_settings_save_game_8h.html" target="_top" xlink:title=" ">
<polygon fill="white" stroke="#666666" points="553,-94 386.25,-94 386.25,-62 553,-62 553,-94"/>
<text text-anchor="start" x="394.25" y="-80.5" font-family="Arial" font-size="10.00">MultiplayerShooter</text>
<text text-anchor="middle" x="469.62" y="-68.5" font-family="Arial" font-size="10.00">/Persistence/SettingsSaveGame.h</text>
</a>
</g>
</g>
<!-- Node1&#45;&gt;Node7 -->
<g id="edge6_Node000001_Node000007" class="edge">
<title>Node1&#45;&gt;Node7</title>
<g id="a_edge6_Node000001_Node000007"><a xlink:title=" ">
<path fill="none" stroke="#63b8ff" d="M408.17,-135.73C418.75,-125.96 432.67,-113.11 444.59,-102.11"/>
<polygon fill="#63b8ff" stroke="#63b8ff" points="446.75,-104.88 451.73,-95.52 442,-99.73 446.75,-104.88"/>
</a>
</g>
</g>
<!-- Node10 -->
<g id="Node000010" class="node">
<title>Node10</title>
<g id="a_Node000010"><a xlink:href="_my_player_controller_8h.html" target="_top" xlink:title=" ">
<polygon fill="white" stroke="#666666" points="875.12,-100 742.12,-100 742.12,-56 875.12,-56 875.12,-100"/>
<text text-anchor="start" x="750.12" y="-86.5" font-family="Arial" font-size="10.00">MultiplayerShooter</text>
<text text-anchor="start" x="750.12" y="-74.5" font-family="Arial" font-size="10.00">/PlayerController/MyPlayer</text>
<text text-anchor="middle" x="808.62" y="-62.5" font-family="Arial" font-size="10.00">Controller.h</text>
</a>
</g>
</g>
<!-- Node1&#45;&gt;Node10 -->
<g id="edge10_Node000001_Node000010" class="edge">
<title>Node1&#45;&gt;Node10</title>
<g id="a_edge10_Node000001_Node000010"><a xlink:title=" ">
<path fill="none" stroke="#63b8ff" d="M453.6,-140.3C527.39,-127.56 650.67,-106.27 730.8,-92.44"/>
<polygon fill="#63b8ff" stroke="#63b8ff" points="731.06,-95.94 740.32,-90.79 729.87,-89.05 731.06,-95.94"/>
</a>
</g>
</g>
<!-- Node3 -->
<g id="Node000003" class="node">
<title>Node3</title>
<g id="a_Node000003"><a xlink:title=" ">
<polygon fill="#e0e0e0" stroke="#999999" points="363.12,-20 284.12,-20 284.12,0 363.12,0 363.12,-20"/>
<text text-anchor="middle" x="323.62" y="-6.5" font-family="Arial" font-size="10.00">CoreMinimal.h</text>
</a>
</g>
</g>
<!-- Node2&#45;&gt;Node3 -->
<g id="edge2_Node000002_Node000003" class="edge">
<title>Node2&#45;&gt;Node3</title>
<g id="a_edge2_Node000002_Node000003"><a xlink:title=" ">
<path fill="none" stroke="#63b8ff" d="M218.25,-67.54C238.62,-56.61 272.38,-38.5 296.19,-25.72"/>
<polygon fill="#63b8ff" stroke="#63b8ff" points="297.54,-28.97 304.7,-21.15 294.23,-22.8 297.54,-28.97"/>
</a>
</g>
</g>
<!-- Node4 -->
<g id="Node000004" class="node">
<title>Node4</title>
<g id="a_Node000004"><a xlink:title=" ">
<polygon fill="#e0e0e0" stroke="#999999" points="117.25,-20 0,-20 0,0 117.25,0 117.25,-20"/>
<text text-anchor="middle" x="58.62" y="-6.5" font-family="Arial" font-size="10.00">Blueprint/UserWidget.h</text>
</a>
</g>
</g>
<!-- Node2&#45;&gt;Node4 -->
<g id="edge3_Node000002_Node000004" class="edge">
<title>Node2&#45;&gt;Node4</title>
<g id="a_edge3_Node000002_Node000004"><a xlink:title=" ">
<path fill="none" stroke="#63b8ff" d="M180.28,-67.54C156.45,-56.47 116.73,-38.01 89.19,-25.21"/>
<polygon fill="#63b8ff" stroke="#63b8ff" points="90.85,-22.12 80.3,-21.08 87.9,-28.47 90.85,-22.12"/>
</a>
</g>
</g>
<!-- Node5 -->
<g id="Node000005" class="node">
<title>Node5</title>
<g id="a_Node000005"><a xlink:title=" ">
<polygon fill="#e0e0e0" stroke="#999999" points="265.62,-20 135.62,-20 135.62,0 265.62,0 265.62,-20"/>
<text text-anchor="middle" x="200.62" y="-6.5" font-family="Arial" font-size="10.00">SettingsMenu.generated.h</text>
</a>
</g>
</g>
<!-- Node2&#45;&gt;Node5 -->
<g id="edge4_Node000002_Node000005" class="edge">
<title>Node2&#45;&gt;Node5</title>
<g id="a_edge4_Node000002_Node000005"><a xlink:title=" ">
<path fill="none" stroke="#63b8ff" d="M200.62,-67.54C200.62,-58.23 200.62,-43.7 200.62,-31.7"/>
<polygon fill="#63b8ff" stroke="#63b8ff" points="204.13,-31.95 200.63,-21.95 197.13,-31.95 204.13,-31.95"/>
</a>
</g>
</g>
<!-- Node7&#45;&gt;Node3 -->
<g id="edge7_Node000007_Node000003" class="edge">
<title>Node7&#45;&gt;Node3</title>
<g id="a_edge7_Node000007_Node000003"><a xlink:title=" ">
<path fill="none" stroke="#63b8ff" d="M435.39,-61.53C410.98,-50.49 378.42,-35.77 354.74,-25.07"/>
<polygon fill="#63b8ff" stroke="#63b8ff" points="356.48,-22.01 345.93,-21.08 353.6,-28.39 356.48,-22.01"/>
</a>
</g>
</g>
<!-- Node8 -->
<g id="Node000008" class="node">
<title>Node8</title>
<g id="a_Node000008"><a xlink:title=" ">
<polygon fill="#e0e0e0" stroke="#999999" points="532.12,-20 381.12,-20 381.12,0 532.12,0 532.12,-20"/>
<text text-anchor="middle" x="456.62" y="-6.5" font-family="Arial" font-size="10.00">GameFramework/SaveGame.h</text>
</a>
</g>
</g>
<!-- Node7&#45;&gt;Node8 -->
<g id="edge8_Node000007_Node000008" class="edge">
<title>Node7&#45;&gt;Node8</title>
<g id="a_edge8_Node000007_Node000008"><a xlink:title=" ">
<path fill="none" stroke="#63b8ff" d="M466.61,-61.69C464.84,-52.7 462.58,-41.21 460.65,-31.44"/>
<polygon fill="#63b8ff" stroke="#63b8ff" points="464.12,-30.94 458.75,-21.8 457.25,-32.29 464.12,-30.94"/>
</a>
</g>
</g>
<!-- Node9 -->
<g id="Node000009" class="node">
<title>Node9</title>
<g id="a_Node000009"><a xlink:title=" ">
<polygon fill="#e0e0e0" stroke="#999999" points="705,-20 550.25,-20 550.25,0 705,0 705,-20"/>
<text text-anchor="middle" x="627.62" y="-6.5" font-family="Arial" font-size="10.00">SettingsSaveGame.generated.h</text>
</a>
</g>
</g>
<!-- Node7&#45;&gt;Node9 -->
<g id="edge9_Node000007_Node000009" class="edge">
<title>Node7&#45;&gt;Node9</title>
<g id="a_edge9_Node000007_Node000009"><a xlink:title=" ">
<path fill="none" stroke="#63b8ff" d="M506.67,-61.53C533.33,-50.39 568.96,-35.51 594.64,-24.78"/>
<polygon fill="#63b8ff" stroke="#63b8ff" points="595.7,-28.13 603.58,-21.04 593.01,-21.67 595.7,-28.13"/>
</a>
</g>
</g>
<!-- Node10&#45;&gt;Node3 -->
<g id="edge11_Node000010_Node000003" class="edge">
<title>Node10&#45;&gt;Node3</title>
<g id="a_edge11_Node000010_Node000003"><a xlink:title=" ">
<path fill="none" stroke="#63b8ff" d="M741.99,-69.37C658.59,-59.59 511.12,-41.48 374.51,-20.22"/>
<polygon fill="#63b8ff" stroke="#63b8ff" points="375.36,-16.81 364.94,-18.73 374.28,-23.73 375.36,-16.81"/>
</a>
</g>
</g>
<!-- Node11 -->
<g id="Node000011" class="node">
<title>Node11</title>
<g id="a_Node000011"><a xlink:title=" ">
<polygon fill="#e0e0e0" stroke="#999999" points="894.62,-20 722.62,-20 722.62,0 894.62,0 894.62,-20"/>
<text text-anchor="middle" x="808.62" y="-6.5" font-family="Arial" font-size="10.00">GameFramework/PlayerController.h</text>
</a>
</g>
</g>
<!-- Node10&#45;&gt;Node11 -->
<g id="edge12_Node000010_Node000011" class="edge">
<title>Node10&#45;&gt;Node11</title>
<g id="a_edge12_Node000010_Node000011"><a xlink:title=" ">
<path fill="none" stroke="#63b8ff" d="M808.62,-55.75C808.62,-48.13 808.62,-39.53 808.62,-31.93"/>
<polygon fill="#63b8ff" stroke="#63b8ff" points="812.13,-31.93 808.63,-21.93 805.13,-31.93 812.13,-31.93"/>
</a>
</g>
</g>
<!-- Node12 -->
<g id="Node000012" class="node">
<title>Node12</title>
<g id="a_Node000012"><a xlink:title=" ">
<polygon fill="#e0e0e0" stroke="#999999" points="1020.75,-20 912.5,-20 912.5,0 1020.75,0 1020.75,-20"/>
<text text-anchor="middle" x="966.62" y="-6.5" font-family="Arial" font-size="10.00">Sound/SoundClass.h</text>
</a>
</g>
</g>
<!-- Node10&#45;&gt;Node12 -->
<g id="edge13_Node000010_Node000012" class="edge">
<title>Node10&#45;&gt;Node12</title>
<g id="a_edge13_Node000010_Node000012"><a xlink:title=" ">
<path fill="none" stroke="#63b8ff" d="M859.92,-55.57C884.17,-45.44 912.4,-33.65 933.74,-24.74"/>
<polygon fill="#63b8ff" stroke="#63b8ff" points="934.93,-28.03 942.81,-20.95 932.23,-21.57 934.93,-28.03"/>
</a>
</g>
</g>
<!-- Node13 -->
<g id="Node000013" class="node">
<title>Node13</title>
<g id="a_Node000013"><a xlink:title=" ">
<polygon fill="#e0e0e0" stroke="#999999" points="1192.25,-20 1039,-20 1039,0 1192.25,0 1192.25,-20"/>
<text text-anchor="middle" x="1115.62" y="-6.5" font-family="Arial" font-size="10.00">MyPlayerController.generated.h</text>
</a>
</g>
</g>
<!-- Node10&#45;&gt;Node13 -->
<g id="edge14_Node000010_Node000013" class="edge">
<title>Node10&#45;&gt;Node13</title>
<g id="a_edge14_Node000010_Node000013"><a xlink:title=" ">
<path fill="none" stroke="#63b8ff" d="M875.62,-62.6C931.01,-50.69 1008.72,-33.98 1060.54,-22.84"/>
<polygon fill="#63b8ff" stroke="#63b8ff" points="1060.99,-26.33 1070.03,-20.8 1059.52,-19.48 1060.99,-26.33"/>
</a>
</g>
</g>
</g>
</svg>

<g id="navigator" transform="translate(0 0)" fill="#404254">
  <rect fill="#f2f5e9" fill-opacity="0.5" stroke="#606060" stroke-width=".5" x="0" y="0" width="60" height="60"/>
  <use id="zoomplus" xlink:href="#zoomPlus" x="17" y="9" onmousedown="handleZoom(evt,'in')"/>
  <use id="zoomminus" xlink:href="#zoomMin" x="42" y="9" onmousedown="handleZoom(evt,'out')"/>
  <use id="reset" xlink:href="#resetDef" x="30" y="36" onmousedown="handleReset()"/>
   <use id="arrowup" xlink:href="#arrowUp" x="0" y="0" onmousedown="handlePan(0,-1)"/>
  <use id="arrowright" xlink:href="#arrowRight" x="0" y="0" onmousedown="handlePan(1,0)"/>
  <use id="arrowdown" xlink:href="#arrowDown" x="0" y="0" onmousedown="handlePan(0,1)"/>
  <use id="arrowleft" xlink:href="#arrowLeft" x="0" y="0" onmousedown="handlePan(-1,0)"/>
</g>
<svg viewBox="0 0 15 15" width="100%" height="30px" preserveAspectRatio="xMaxYMin meet">
 <g id="arrow_out" transform="scale(0.3 0.3)">
  <a xlink:href="_settings_menu_8cpp__incl_org.svg" target="_base">
   <rect id="button" ry="5" rx="5" y="6" x="6" height="38" width="38"
        fill="#f2f5e9" fill-opacity="0.5" stroke="#606060" stroke-width="1.0"/>
   <path id="arrow"
     d="M 11.500037,31.436501 C 11.940474,20.09759 22.043105,11.32322 32.158766,21.979434 L 37.068811,17.246167 C 37.068811,17.246167 37.088388,32 37.088388,32 L 22.160133,31.978069 C 22.160133,31.978069 26.997745,27.140456 26.997745,27.140456 C 18.528582,18.264221 13.291696,25.230495 11.500037,31.436501 z"
     style="fill:#404040;"/>
  </a>
 </g>
</svg>

<style type='text/css'>
<![CDATA[
[data-mouse-over-selected='false'] { opacity: 0.7; }
[data-mouse-over-selected='true']  { opacity: 1.0; }
]]>
</style>
<script type="application/ecmascript"><![CDATA[
document.addEventListener('DOMContentLoaded', (event) => {
  highlightEdges();
  highlightAdjacentNodes();
});
]]></script>
</svg>
