<?xml version="1.0" encoding="UTF-8" standalone="no"?>
<!DOCTYPE svg PUBLIC "-//W3C//DTD SVG 1.1//EN"
 "http://www.w3.org/Graphics/SVG/1.1/DTD/svg11.dtd">
<!-- Generated by graphviz version 12.2.1 (20241206.2353)
 -->
<!-- Title: MultiplayerShooter/Persistence/SettingsSaveGame.h Pages: 1 -->
<svg width="855pt" height="120pt"
 viewBox="0.00 0.00 854.62 120.00" xmlns="http://www.w3.org/2000/svg" xmlns:xlink="http://www.w3.org/1999/xlink">
<g id="graph0" class="graph" transform="scale(1 1) rotate(0) translate(4 116)">
<title>MultiplayerShooter/Persistence/SettingsSaveGame.h</title>
<!-- Node1 -->
<g id="Node000001" class="node">
<title>Node1</title>
<g id="a_Node000001"><a xlink:title=" ">
<polygon fill="#999999" stroke="#666666" points="500,-112 333.25,-112 333.25,-80 500,-80 500,-112"/>
<text text-anchor="start" x="341.25" y="-98.5" font-family="Arial" font-size="10.00">MultiplayerShooter</text>
<text text-anchor="middle" x="416.62" y="-86.5" font-family="Arial" font-size="10.00">/Persistence/SettingsSaveGame.h</text>
</a>
</g>
</g>
<!-- Node2 -->
<g id="Node000002" class="node">
<title>Node2</title>
<g id="a_Node000002"><a xlink:href="_settings_menu_8cpp.html" target="_top" xlink:title=" ">
<polygon fill="white" stroke="#666666" points="123.25,-38 0,-38 0,-6 123.25,-6 123.25,-38"/>
<text text-anchor="start" x="8" y="-24.5" font-family="Arial" font-size="10.00">MultiplayerShooter</text>
<text text-anchor="middle" x="61.62" y="-12.5" font-family="Arial" font-size="10.00">/HUD/SettingsMenu.cpp</text>
</a>
</g>
</g>
<!-- Node1&#45;&gt;Node2 -->
<g id="edge1_Node000001_Node000002" class="edge">
<title>Node1&#45;&gt;Node2</title>
<g id="a_edge1_Node000001_Node000002"><a xlink:title=" ">
<path fill="none" stroke="#63b8ff" d="M321.64,-80.62C266.21,-71.57 195.1,-58.8 132.62,-44 125.75,-42.37 118.54,-40.47 111.48,-38.49"/>
<polygon fill="#63b8ff" stroke="#63b8ff" points="320.94,-84.05 331.37,-82.2 322.06,-77.15 320.94,-84.05"/>
</a>
</g>
</g>
<!-- Node3 -->
<g id="Node000003" class="node">
<title>Node3</title>
<g id="a_Node000003"><a xlink:href="_main_character_8cpp.html" target="_top" xlink:title=" ">
<polygon fill="white" stroke="#666666" points="309.75,-38 141.5,-38 141.5,-6 309.75,-6 309.75,-38"/>
<text text-anchor="start" x="149.5" y="-24.5" font-family="Arial" font-size="10.00">MultiplayerShooter</text>
<text text-anchor="middle" x="225.62" y="-12.5" font-family="Arial" font-size="10.00">/MainCharacter/MainCharacter.cpp</text>
</a>
</g>
</g>
<!-- Node1&#45;&gt;Node3 -->
<g id="edge2_Node000001_Node000003" class="edge">
<title>Node1&#45;&gt;Node3</title>
<g id="a_edge2_Node000001_Node000003"><a xlink:title=" ">
<path fill="none" stroke="#63b8ff" d="M365.07,-75.56C334.14,-63.91 295.34,-49.28 266.53,-38.42"/>
<polygon fill="#63b8ff" stroke="#63b8ff" points="363.64,-78.77 374.23,-79.02 366.11,-72.22 363.64,-78.77"/>
</a>
</g>
</g>
<!-- Node4 -->
<g id="Node000004" class="node">
<title>Node4</title>
<g id="a_Node000004"><a xlink:href="_settings_save_game_8cpp.html" target="_top" xlink:title=" ">
<polygon fill="white" stroke="#666666" points="505.25,-38 328,-38 328,-6 505.25,-6 505.25,-38"/>
<text text-anchor="start" x="336" y="-24.5" font-family="Arial" font-size="10.00">MultiplayerShooter</text>
<text text-anchor="middle" x="416.62" y="-12.5" font-family="Arial" font-size="10.00">/Persistence/SettingsSaveGame.cpp</text>
</a>
</g>
</g>
<!-- Node1&#45;&gt;Node4 -->
<g id="edge3_Node000001_Node000004" class="edge">
<title>Node1&#45;&gt;Node4</title>
<g id="a_edge3_Node000001_Node000004"><a xlink:title=" ">
<path fill="none" stroke="#63b8ff" d="M416.62,-68.49C416.62,-58.3 416.62,-47.03 416.62,-38.25"/>
<polygon fill="#63b8ff" stroke="#63b8ff" points="413.13,-68.22 416.63,-78.22 420.13,-68.22 413.13,-68.22"/>
</a>
</g>
</g>
<!-- Node5 -->
<g id="Node000005" class="node">
<title>Node5</title>
<g id="a_Node000005"><a xlink:href="_my_player_controller_8cpp.html" target="_top" xlink:title=" ">
<polygon fill="white" stroke="#666666" points="656.12,-44 523.12,-44 523.12,0 656.12,0 656.12,-44"/>
<text text-anchor="start" x="531.12" y="-30.5" font-family="Arial" font-size="10.00">MultiplayerShooter</text>
<text text-anchor="start" x="531.12" y="-18.5" font-family="Arial" font-size="10.00">/PlayerController/MyPlayer</text>
<text text-anchor="middle" x="589.62" y="-6.5" font-family="Arial" font-size="10.00">Controller.cpp</text>
</a>
</g>
</g>
<!-- Node1&#45;&gt;Node5 -->
<g id="edge4_Node000001_Node000005" class="edge">
<title>Node1&#45;&gt;Node5</title>
<g id="a_edge4_Node000001_Node000005"><a xlink:title=" ">
<path fill="none" stroke="#63b8ff" d="M464.25,-75.18C487.18,-65.63 514.72,-54.17 538.14,-44.43"/>
<polygon fill="#63b8ff" stroke="#63b8ff" points="463.02,-71.9 455.14,-78.97 465.71,-78.36 463.02,-71.9"/>
</a>
</g>
</g>
<!-- Node6 -->
<g id="Node000006" class="node">
<title>Node6</title>
<g id="a_Node000006"><a xlink:href="_my_player_controller_tests_8cpp.html" target="_top" xlink:title=" ">
<polygon fill="white" stroke="#666666" points="846.62,-38 674.62,-38 674.62,-6 846.62,-6 846.62,-38"/>
<text text-anchor="start" x="682.62" y="-24.5" font-family="Arial" font-size="10.00">MultiplayerShooter</text>
<text text-anchor="middle" x="760.62" y="-12.5" font-family="Arial" font-size="10.00">/Tests/MyPlayerControllerTests.cpp</text>
</a>
</g>
</g>
<!-- Node1&#45;&gt;Node6 -->
<g id="edge5_Node000001_Node000006" class="edge">
<title>Node1&#45;&gt;Node6</title>
<g id="a_edge5_Node000001_Node000006"><a xlink:title=" ">
<path fill="none" stroke="#63b8ff" d="M505.01,-77.24C552.63,-67.59 612.38,-55.34 665.62,-44 673.89,-42.24 682.54,-40.37 691.13,-38.49"/>
<polygon fill="#63b8ff" stroke="#63b8ff" points="504.39,-73.8 495.29,-79.21 505.78,-80.66 504.39,-73.8"/>
</a>
</g>
</g>
</g>
</svg>
