<?xml version="1.0" encoding="UTF-8" standalone="no"?>
<!DOCTYPE svg PUBLIC "-//W3C//DTD SVG 1.1//EN"
 "http://www.w3.org/Graphics/SVG/1.1/DTD/svg11.dtd">
<!-- Generated by graphviz version 12.2.1 (20241206.2353)
 -->
<!-- Title: AMainHUD Pages: 1 -->
<svg width="706pt" height="505pt"
 viewBox="0.00 0.00 706.00 505.00" xmlns="http://www.w3.org/2000/svg" xmlns:xlink="http://www.w3.org/1999/xlink">
<g id="graph0" class="graph" transform="scale(1 1) rotate(0) translate(4 501)">
<title>AMainHUD</title>
<!-- Node1 -->
<g id="Node000001" class="node">
<title>Node1</title>
<g id="a_Node000001"><a xlink:title=" ">
<polygon fill="#999999" stroke="none" points="367.62,-228 247.62,-228 247.62,0 367.62,0 367.62,-228"/>
<text text-anchor="start" x="282.5" y="-214.5" font-family="Arial" font-size="10.00">AMainHUD</text>
<text text-anchor="start" x="251.62" y="-198.5" font-family="Arial" font-size="10.00">+</text>
<text text-anchor="start" x="261.62" y="-198.5" font-family="Arial" font-size="10.00">CrosshairSpreadMax</text>
<text text-anchor="start" x="251.62" y="-182.5" font-family="Arial" font-size="10.00">+</text>
<text text-anchor="start" x="261.62" y="-182.5" font-family="Arial" font-size="10.00">CharacterOverlayClass</text>
<text text-anchor="start" x="251.62" y="-166.5" font-family="Arial" font-size="10.00">+</text>
<text text-anchor="start" x="261.62" y="-166.5" font-family="Arial" font-size="10.00">AnnouncementClass</text>
<text text-anchor="start" x="251.62" y="-150.5" font-family="Arial" font-size="10.00">+</text>
<text text-anchor="start" x="261.62" y="-150.5" font-family="Arial" font-size="10.00">ChatClass</text>
<text text-anchor="start" x="251.62" y="-134.5" font-family="Arial" font-size="10.00">+</text>
<text text-anchor="start" x="261.62" y="-134.5" font-family="Arial" font-size="10.00">SettignsClass</text>
<text text-anchor="start" x="251.62" y="-118.5" font-family="Arial" font-size="10.00">+</text>
<text text-anchor="start" x="261.62" y="-118.5" font-family="Arial" font-size="10.00">DrawHUD()</text>
<text text-anchor="start" x="251.62" y="-102.5" font-family="Arial" font-size="10.00">+</text>
<text text-anchor="start" x="261.62" y="-102.5" font-family="Arial" font-size="10.00">DrawCrosshair()</text>
<text text-anchor="start" x="251.62" y="-86.5" font-family="Arial" font-size="10.00">+</text>
<text text-anchor="start" x="261.62" y="-86.5" font-family="Arial" font-size="10.00">AddCharacterOverlay()</text>
<text text-anchor="start" x="251.62" y="-70.5" font-family="Arial" font-size="10.00">+</text>
<text text-anchor="start" x="261.62" y="-70.5" font-family="Arial" font-size="10.00">AddAnnouncement()</text>
<text text-anchor="start" x="251.62" y="-54.5" font-family="Arial" font-size="10.00">+</text>
<text text-anchor="start" x="261.62" y="-54.5" font-family="Arial" font-size="10.00">AddChat()</text>
<text text-anchor="start" x="251.62" y="-38.5" font-family="Arial" font-size="10.00">+</text>
<text text-anchor="start" x="261.62" y="-38.5" font-family="Arial" font-size="10.00">AddSettings()</text>
<text text-anchor="start" x="251.62" y="-22.5" font-family="Arial" font-size="10.00">+</text>
<text text-anchor="start" x="261.62" y="-22.5" font-family="Arial" font-size="10.00">SetHUDPackage()</text>
<text text-anchor="start" x="252" y="-6.5" font-family="Arial" font-size="10.00">#</text>
<text text-anchor="start" x="261.62" y="-6.5" font-family="Arial" font-size="10.00">BeginPlay()</text>
<polygon fill="#666666" stroke="#666666" points="247.62,-210 247.62,-210 367.62,-210 367.62,-210 247.62,-210"/>
<polygon fill="#666666" stroke="#666666" points="247.62,-130 247.62,-130 259.62,-130 259.62,-130 247.62,-130"/>
<polygon fill="#666666" stroke="#666666" points="259.62,-130 259.62,-130 367.62,-130 367.62,-130 259.62,-130"/>
<polygon fill="none" stroke="#666666" points="247.62,0 247.62,-228 367.62,-228 367.62,0 247.62,0"/>
</a>
</g>
</g>
<!-- Node2 -->
<g id="Node000002" class="node">
<title>Node2</title>
<g id="a_Node000002"><a xlink:title=" ">
<polygon fill="white" stroke="none" points="37.25,-368 0,-368 0,-316 37.25,-316 37.25,-368"/>
<text text-anchor="start" x="4" y="-354.5" font-family="Arial" font-size="10.00">AHUD</text>
<text text-anchor="start" x="17.12" y="-338.5" font-family="Arial" font-size="10.00"> </text>
<text text-anchor="start" x="17.12" y="-322.5" font-family="Arial" font-size="10.00"> </text>
<polygon fill="#666666" stroke="#666666" points="0,-350 0,-350 37.25,-350 37.25,-350 0,-350"/>
<polygon fill="#666666" stroke="#666666" points="0,-334 0,-334 37.25,-334 37.25,-334 0,-334"/>
<polygon fill="none" stroke="#666666" points="0,-316 0,-368 37.25,-368 37.25,-316 0,-316"/>
</a>
</g>
</g>
<!-- Node2&#45;&gt;Node1 -->
<g id="edge1_Node000001_Node000002" class="edge">
<title>Node2&#45;&gt;Node1</title>
<g id="a_edge1_Node000001_Node000002"><a xlink:title=" ">
<path fill="none" stroke="#63b8ff" d="M28.81,-305.36C32.9,-295.13 38.4,-284.46 45.62,-276 101.01,-211.14 189.29,-164.53 247.85,-138.66"/>
<polygon fill="none" stroke="#63b8ff" points="25.52,-304.15 25.42,-314.74 32.11,-306.53 25.52,-304.15"/>
</a>
</g>
</g>
<!-- Node3 -->
<g id="Node000003" class="node">
<title>Node3</title>
<g id="a_Node000003"><a xlink:href="class_u_character_overlay.html" target="_top" xlink:title=" ">
<polygon fill="white" stroke="none" points="170.38,-400 54.88,-400 54.88,-284 170.38,-284 170.38,-400"/>
<text text-anchor="start" x="70.62" y="-386.5" font-family="Arial" font-size="10.00">UCharacterOverlay</text>
<text text-anchor="start" x="58.88" y="-370.5" font-family="Arial" font-size="10.00">+</text>
<text text-anchor="start" x="68.88" y="-370.5" font-family="Arial" font-size="10.00">HealthText</text>
<text text-anchor="start" x="58.88" y="-354.5" font-family="Arial" font-size="10.00">+</text>
<text text-anchor="start" x="68.88" y="-354.5" font-family="Arial" font-size="10.00">ScoreAmount</text>
<text text-anchor="start" x="58.88" y="-338.5" font-family="Arial" font-size="10.00">+</text>
<text text-anchor="start" x="68.88" y="-338.5" font-family="Arial" font-size="10.00">WeaponAmmoAmount</text>
<text text-anchor="start" x="58.88" y="-322.5" font-family="Arial" font-size="10.00">+</text>
<text text-anchor="start" x="68.88" y="-322.5" font-family="Arial" font-size="10.00">MatchCountdownText</text>
<text text-anchor="start" x="58.88" y="-306.5" font-family="Arial" font-size="10.00">+</text>
<text text-anchor="start" x="68.88" y="-306.5" font-family="Arial" font-size="10.00">HighPingText</text>
<text text-anchor="start" x="111.12" y="-290.5" font-family="Arial" font-size="10.00"> </text>
<polygon fill="#666666" stroke="#666666" points="54.88,-382 54.88,-382 170.38,-382 170.38,-382 54.88,-382"/>
<polygon fill="#666666" stroke="#666666" points="54.88,-302 54.88,-302 66.88,-302 66.88,-302 54.88,-302"/>
<polygon fill="#666666" stroke="#666666" points="66.88,-302 66.88,-302 170.38,-302 170.38,-302 66.88,-302"/>
<polygon fill="none" stroke="#666666" points="54.88,-284 54.88,-400 170.38,-400 170.38,-284 54.88,-284"/>
</a>
</g>
</g>
<!-- Node3&#45;&gt;Node1 -->
<g id="edge2_Node000001_Node000003" class="edge">
<title>Node3&#45;&gt;Node1</title>
<g id="a_edge2_Node000001_Node000003"><a xlink:title=" ">
<path fill="none" stroke="#63b8ff" d="M142.05,-284.48C149.84,-271.37 158.72,-257.8 168.12,-246 188.78,-220.08 214.52,-194.47 238.24,-172.86"/>
<polygon fill="none" stroke="#63b8ff" points="238.32,-172.79 240.11,-165.81 247.25,-164.77 245.46,-171.76 238.32,-172.79"/>
</a>
</g>
<text text-anchor="middle" x="210.88" y="-248.5" font-family="Arial" font-size="10.00" fill="grey"> +CharacterOverlay</text>
</g>
<!-- Node4 -->
<g id="Node000004" class="node">
<title>Node4</title>
<g id="a_Node000004"><a xlink:title=" ">
<polygon fill="white" stroke="none" points="341.25,-497 274,-497 274,-445 341.25,-445 341.25,-497"/>
<text text-anchor="start" x="278" y="-483.5" font-family="Arial" font-size="10.00">UUserWidget</text>
<text text-anchor="start" x="306.12" y="-467.5" font-family="Arial" font-size="10.00"> </text>
<text text-anchor="start" x="306.12" y="-451.5" font-family="Arial" font-size="10.00"> </text>
<polygon fill="#666666" stroke="#666666" points="274,-479 274,-479 341.25,-479 341.25,-479 274,-479"/>
<polygon fill="#666666" stroke="#666666" points="274,-463 274,-463 341.25,-463 341.25,-463 274,-463"/>
<polygon fill="none" stroke="#666666" points="274,-445 274,-497 341.25,-497 341.25,-445 274,-445"/>
</a>
</g>
</g>
<!-- Node4&#45;&gt;Node3 -->
<g id="edge3_Node000003_Node000004" class="edge">
<title>Node4&#45;&gt;Node3</title>
<g id="a_edge3_Node000003_Node000004"><a xlink:title=" ">
<path fill="none" stroke="#63b8ff" d="M263.68,-452.86C238.05,-441.88 205.73,-426.27 179.62,-408 176.04,-405.49 172.47,-402.79 168.94,-399.96"/>
<polygon fill="none" stroke="#63b8ff" points="262.25,-456.06 272.82,-456.7 264.95,-449.6 262.25,-456.06"/>
</a>
</g>
</g>
<!-- Node5 -->
<g id="Node000005" class="node">
<title>Node5</title>
<g id="a_Node000005"><a xlink:href="class_u_announcement.html" target="_top" xlink:title=" ">
<polygon fill="white" stroke="none" points="290.62,-384 188.62,-384 188.62,-300 290.62,-300 290.62,-384"/>
<text text-anchor="start" x="203.25" y="-370.5" font-family="Arial" font-size="10.00">UAnnouncement</text>
<text text-anchor="start" x="192.62" y="-354.5" font-family="Arial" font-size="10.00">+</text>
<text text-anchor="start" x="202.62" y="-354.5" font-family="Arial" font-size="10.00">WarmupTime</text>
<text text-anchor="start" x="192.62" y="-338.5" font-family="Arial" font-size="10.00">+</text>
<text text-anchor="start" x="202.62" y="-338.5" font-family="Arial" font-size="10.00">AnnouncementText</text>
<text text-anchor="start" x="192.62" y="-322.5" font-family="Arial" font-size="10.00">+</text>
<text text-anchor="start" x="202.62" y="-322.5" font-family="Arial" font-size="10.00">InfoText</text>
<text text-anchor="start" x="238.12" y="-306.5" font-family="Arial" font-size="10.00"> </text>
<polygon fill="#666666" stroke="#666666" points="188.62,-366 188.62,-366 290.62,-366 290.62,-366 188.62,-366"/>
<polygon fill="#666666" stroke="#666666" points="188.62,-318 188.62,-318 200.62,-318 200.62,-318 188.62,-318"/>
<polygon fill="#666666" stroke="#666666" points="200.62,-318 200.62,-318 290.62,-318 290.62,-318 200.62,-318"/>
<polygon fill="none" stroke="#666666" points="188.62,-300 188.62,-384 290.62,-384 290.62,-300 188.62,-300"/>
</a>
</g>
</g>
<!-- Node4&#45;&gt;Node5 -->
<g id="edge5_Node000005_Node000004" class="edge">
<title>Node4&#45;&gt;Node5</title>
<g id="a_edge5_Node000005_Node000004"><a xlink:title=" ">
<path fill="none" stroke="#63b8ff" d="M289.04,-435.28C280.54,-419.42 270.42,-400.52 261.56,-383.97"/>
<polygon fill="none" stroke="#63b8ff" points="285.83,-436.71 293.64,-443.88 292,-433.41 285.83,-436.71"/>
</a>
</g>
</g>
<!-- Node6 -->
<g id="Node000006" class="node">
<title>Node6</title>
<g id="a_Node000006"><a xlink:href="class_u_chat.html" target="_top" xlink:title=" ">
<polygon fill="white" stroke="none" points="444.12,-392 309.12,-392 309.12,-292 444.12,-292 444.12,-392"/>
<text text-anchor="start" x="362.38" y="-378.5" font-family="Arial" font-size="10.00">UChat</text>
<text text-anchor="start" x="313.12" y="-362.5" font-family="Arial" font-size="10.00">+</text>
<text text-anchor="start" x="323.12" y="-362.5" font-family="Arial" font-size="10.00">InputField</text>
<text text-anchor="start" x="313.12" y="-346.5" font-family="Arial" font-size="10.00">+</text>
<text text-anchor="start" x="323.12" y="-346.5" font-family="Arial" font-size="10.00">ChatHistoryBox</text>
<text text-anchor="start" x="313.12" y="-330.5" font-family="Arial" font-size="10.00">+</text>
<text text-anchor="start" x="323.12" y="-330.5" font-family="Arial" font-size="10.00">ChatMessageWidgetClass</text>
<text text-anchor="start" x="313.12" y="-314.5" font-family="Arial" font-size="10.00">+</text>
<text text-anchor="start" x="323.12" y="-314.5" font-family="Arial" font-size="10.00">NativeConstruct()</text>
<text text-anchor="start" x="313.12" y="-298.5" font-family="Arial" font-size="10.00">+</text>
<text text-anchor="start" x="323.12" y="-298.5" font-family="Arial" font-size="10.00">OnChatTextCommitted()</text>
<polygon fill="#666666" stroke="#666666" points="309.12,-374 309.12,-374 444.12,-374 444.12,-374 309.12,-374"/>
<polygon fill="#666666" stroke="#666666" points="309.12,-326 309.12,-326 321.12,-326 321.12,-326 309.12,-326"/>
<polygon fill="#666666" stroke="#666666" points="321.12,-326 321.12,-326 444.12,-326 444.12,-326 321.12,-326"/>
<polygon fill="none" stroke="#666666" points="309.12,-292 309.12,-392 444.12,-392 444.12,-292 309.12,-292"/>
</a>
</g>
</g>
<!-- Node4&#45;&gt;Node6 -->
<g id="edge7_Node000006_Node000004" class="edge">
<title>Node4&#45;&gt;Node6</title>
<g id="a_edge7_Node000006_Node000004"><a xlink:title=" ">
<path fill="none" stroke="#63b8ff" d="M326.4,-435.44C333.69,-422.03 342.16,-406.43 350.05,-391.91"/>
<polygon fill="none" stroke="#63b8ff" points="323.51,-433.42 321.82,-443.88 329.66,-436.77 323.51,-433.42"/>
</a>
</g>
</g>
<!-- Node7 -->
<g id="Node000007" class="node">
<title>Node7</title>
<g id="a_Node000007"><a xlink:href="class_u_settings_menu.html" target="_top" xlink:title=" ">
<polygon fill="white" stroke="none" points="583.38,-408 461.88,-408 461.88,-276 583.38,-276 583.38,-408"/>
<text text-anchor="start" x="488.88" y="-394.5" font-family="Arial" font-size="10.00">USettingsMenu</text>
<text text-anchor="start" x="465.88" y="-378.5" font-family="Arial" font-size="10.00">+</text>
<text text-anchor="start" x="475.88" y="-378.5" font-family="Arial" font-size="10.00">VolumeSlider</text>
<text text-anchor="start" x="465.88" y="-362.5" font-family="Arial" font-size="10.00">+</text>
<text text-anchor="start" x="475.88" y="-362.5" font-family="Arial" font-size="10.00">SensitivitySlider</text>
<text text-anchor="start" x="465.88" y="-346.5" font-family="Arial" font-size="10.00">+</text>
<text text-anchor="start" x="475.88" y="-346.5" font-family="Arial" font-size="10.00">SlideInAnimation</text>
<text text-anchor="start" x="465.88" y="-330.5" font-family="Arial" font-size="10.00">+</text>
<text text-anchor="start" x="475.88" y="-330.5" font-family="Arial" font-size="10.00">OnSensitivityChanged()</text>
<text text-anchor="start" x="465.88" y="-314.5" font-family="Arial" font-size="10.00">+</text>
<text text-anchor="start" x="475.88" y="-314.5" font-family="Arial" font-size="10.00">NativeConstruct()</text>
<text text-anchor="start" x="465.88" y="-298.5" font-family="Arial" font-size="10.00">+</text>
<text text-anchor="start" x="475.88" y="-298.5" font-family="Arial" font-size="10.00">NativeOnKeyDown()</text>
<text text-anchor="start" x="465.88" y="-282.5" font-family="Arial" font-size="10.00">+</text>
<text text-anchor="start" x="475.88" y="-282.5" font-family="Arial" font-size="10.00">OnVolumeChanged()</text>
<polygon fill="#666666" stroke="#666666" points="461.88,-390 461.88,-390 583.38,-390 583.38,-390 461.88,-390"/>
<polygon fill="#666666" stroke="#666666" points="461.88,-342 461.88,-342 473.88,-342 473.88,-342 461.88,-342"/>
<polygon fill="#666666" stroke="#666666" points="473.88,-342 473.88,-342 583.38,-342 583.38,-342 473.88,-342"/>
<polygon fill="none" stroke="#666666" points="461.88,-276 461.88,-408 583.38,-408 583.38,-276 461.88,-276"/>
</a>
</g>
</g>
<!-- Node4&#45;&gt;Node7 -->
<g id="edge9_Node000007_Node000004" class="edge">
<title>Node4&#45;&gt;Node7</title>
<g id="a_edge9_Node000007_Node000004"><a xlink:title=" ">
<path fill="none" stroke="#63b8ff" d="M351.78,-455.88C381.84,-445.18 421.8,-428.79 453.62,-408 456.52,-406.11 459.4,-404.09 462.26,-401.98"/>
<polygon fill="none" stroke="#63b8ff" points="350.91,-452.48 342.61,-459.07 353.21,-459.09 350.91,-452.48"/>
</a>
</g>
</g>
<!-- Node5&#45;&gt;Node1 -->
<g id="edge4_Node000001_Node000005" class="edge">
<title>Node5&#45;&gt;Node1</title>
<g id="a_edge4_Node000001_Node000005"><a xlink:title=" ">
<path fill="none" stroke="#63b8ff" d="M247.35,-300.02C250.84,-283.16 255.33,-263.52 260.38,-246 260.91,-244.15 261.45,-242.29 262.01,-240.41"/>
<polygon fill="none" stroke="#63b8ff" points="262.05,-240.28 259.99,-233.37 265.58,-228.81 267.64,-235.72 262.05,-240.28"/>
</a>
</g>
<text text-anchor="middle" x="297.5" y="-248.5" font-family="Arial" font-size="10.00" fill="grey"> +Announcement</text>
</g>
<!-- Node6&#45;&gt;Node1 -->
<g id="edge6_Node000001_Node000006" class="edge">
<title>Node6&#45;&gt;Node1</title>
<g id="a_edge6_Node000001_Node000006"><a xlink:title=" ">
<path fill="none" stroke="#63b8ff" d="M361.74,-292.24C356.96,-276.59 351.43,-258.48 345.77,-239.94"/>
<polygon fill="none" stroke="#63b8ff" points="345.81,-240.06 340.23,-235.48 342.3,-228.58 347.88,-233.15 345.81,-240.06"/>
</a>
</g>
<text text-anchor="middle" x="365.33" y="-248.5" font-family="Arial" font-size="10.00" fill="grey"> +Chat</text>
</g>
<!-- Node7&#45;&gt;Node1 -->
<g id="edge8_Node000001_Node000007" class="edge">
<title>Node7&#45;&gt;Node1</title>
<g id="a_edge8_Node000001_Node000007"><a xlink:title=" ">
<path fill="none" stroke="#63b8ff" d="M461.88,-277.14C435.21,-249.11 403.77,-216.07 376.26,-187.15"/>
<polygon fill="none" stroke="#63b8ff" points="376.37,-187.26 369.34,-185.67 368.1,-178.57 375.13,-180.16 376.37,-187.26"/>
</a>
</g>
<text text-anchor="middle" x="463.2" y="-248.5" font-family="Arial" font-size="10.00" fill="grey"> +Settigns</text>
</g>
<!-- Node8 -->
<g id="Node000008" class="node">
<title>Node8</title>
<g id="a_Node000008"><a xlink:href="struct_f_h_u_d_package.html" target="_top" xlink:title=" ">
<polygon fill="white" stroke="none" points="698,-408 601.25,-408 601.25,-276 698,-276 698,-408"/>
<text text-anchor="start" x="616.25" y="-394.5" font-family="Arial" font-size="10.00">FHUDPackage</text>
<text text-anchor="start" x="605.25" y="-378.5" font-family="Arial" font-size="10.00">+</text>
<text text-anchor="start" x="615.25" y="-378.5" font-family="Arial" font-size="10.00">CrosshairsCenter</text>
<text text-anchor="start" x="605.25" y="-362.5" font-family="Arial" font-size="10.00">+</text>
<text text-anchor="start" x="615.25" y="-362.5" font-family="Arial" font-size="10.00">CrosshairsLeft</text>
<text text-anchor="start" x="605.25" y="-346.5" font-family="Arial" font-size="10.00">+</text>
<text text-anchor="start" x="615.25" y="-346.5" font-family="Arial" font-size="10.00">CrosshairsRight</text>
<text text-anchor="start" x="605.25" y="-330.5" font-family="Arial" font-size="10.00">+</text>
<text text-anchor="start" x="615.25" y="-330.5" font-family="Arial" font-size="10.00">CrosshairsTop</text>
<text text-anchor="start" x="605.25" y="-314.5" font-family="Arial" font-size="10.00">+</text>
<text text-anchor="start" x="615.25" y="-314.5" font-family="Arial" font-size="10.00">CrosshairsBottom</text>
<text text-anchor="start" x="605.25" y="-298.5" font-family="Arial" font-size="10.00">+</text>
<text text-anchor="start" x="615.25" y="-298.5" font-family="Arial" font-size="10.00">CrosshairSpread</text>
<text text-anchor="start" x="648.12" y="-282.5" font-family="Arial" font-size="10.00"> </text>
<polygon fill="#666666" stroke="#666666" points="601.25,-390 601.25,-390 698,-390 698,-390 601.25,-390"/>
<polygon fill="#666666" stroke="#666666" points="601.25,-294 601.25,-294 613.25,-294 613.25,-294 601.25,-294"/>
<polygon fill="#666666" stroke="#666666" points="613.25,-294 613.25,-294 698,-294 698,-294 613.25,-294"/>
<polygon fill="none" stroke="#666666" points="601.25,-276 601.25,-408 698,-408 698,-276 601.25,-276"/>
</a>
</g>
</g>
<!-- Node8&#45;&gt;Node1 -->
<g id="edge10_Node000001_Node000008" class="edge">
<title>Node8&#45;&gt;Node1</title>
<g id="a_edge10_Node000001_Node000008"><a xlink:title=" ">
<path fill="none" stroke="#63b8ff" d="M601.26,-283.52C598.42,-280.89 595.54,-278.37 592.62,-276 526.27,-222.06 439.46,-175.91 379.16,-147.02"/>
<polygon fill="none" stroke="#63b8ff" points="379.13,-147.01 371.99,-148.05 368.29,-141.87 375.42,-140.82 379.13,-147.01"/>
</a>
</g>
<text text-anchor="middle" x="597.89" y="-248.5" font-family="Arial" font-size="10.00" fill="grey"> &#45;HUDPackage</text>
</g>
</g>
</svg>
