<?xml version="1.0" encoding="UTF-8" standalone="no"?>
<!DOCTYPE svg PUBLIC "-//W3C//DTD SVG 1.1//EN"
 "http://www.w3.org/Graphics/SVG/1.1/DTD/svg11.dtd">
<!-- Generated by graphviz version 12.2.1 (20241206.2353)
 -->
<!-- Title: AMainCharacter::GetBuff Pages: 1 -->
<svg width="342pt" height="104pt"
 viewBox="0.00 0.00 342.25 104.00" xmlns="http://www.w3.org/2000/svg" xmlns:xlink="http://www.w3.org/1999/xlink">

<svg id="main" version="1.1" xmlns="http://www.w3.org/2000/svg" xmlns:xlink="http://www.w3.org/1999/xlink" xml:space="preserve">

<style type="text/css"><![CDATA[
.node, .edge {opacity: 0.7;}
.node.selected, .edge.selected {opacity: 1;}
.edge:hover path { stroke: red; }
.edge:hover polygon { stroke: red; fill: red; }
]]></style>
<script type="application/ecmascript" xlink:href="svg.min.js"/>
<svg id="graph" class="graph">
<g id="graph0" class="graph" transform="scale(1 1) rotate(0) translate(4 100)">
<title>AMainCharacter::GetBuff</title>
<!-- Node1 -->
<g id="Node000001" class="node">
<title>Node1</title>
<g id="a_Node000001"><a xlink:title=" ">
<polygon fill="#999999" stroke="#666666" points="334.25,-58 208.75,-58 208.75,-38 334.25,-38 334.25,-58"/>
<text text-anchor="middle" x="271.5" y="-44.5" font-family="Arial" font-size="10.00">AMainCharacter::GetBuff</text>
</a>
</g>
</g>
<!-- Node2 -->
<g id="Node000002" class="node">
<title>Node2</title>
<g id="a_Node000002"><a xlink:href="class_a_damage_pickup.html#ab977e9731322c529a542706384ea3d3a" target="_top" xlink:title=" ">
<polygon fill="white" stroke="#666666" points="172.75,-96 0,-96 0,-76 172.75,-76 172.75,-96"/>
<text text-anchor="middle" x="86.38" y="-82.5" font-family="Arial" font-size="10.00">ADamagePickup::OnSphereOverlap</text>
</a>
</g>
</g>
<!-- Node1&#45;&gt;Node2 -->
<g id="edge1_Node000001_Node000002" class="edge">
<title>Node1&#45;&gt;Node2</title>
<g id="a_edge1_Node000001_Node000002"><a xlink:title=" ">
<path fill="none" stroke="#63b8ff" d="M208.88,-60.79C185.74,-65.59 159.73,-70.99 137.73,-75.55"/>
<polygon fill="#63b8ff" stroke="#63b8ff" points="209.41,-64.25 218.49,-58.79 207.99,-57.4 209.41,-64.25"/>
</a>
</g>
</g>
<!-- Node3 -->
<g id="Node000003" class="node">
<title>Node3</title>
<g id="a_Node000003"><a xlink:href="class_a_health_pickup.html#a99fbf8162b4487c10530aff6f49304e2" target="_top" xlink:title=" ">
<polygon fill="white" stroke="#666666" points="168.62,-58 4.12,-58 4.12,-38 168.62,-38 168.62,-58"/>
<text text-anchor="middle" x="86.38" y="-44.5" font-family="Arial" font-size="10.00">AHealthPickup::OnSphereOverlap</text>
</a>
</g>
</g>
<!-- Node1&#45;&gt;Node3 -->
<g id="edge2_Node000001_Node000003" class="edge">
<title>Node1&#45;&gt;Node3</title>
<g id="a_edge2_Node000001_Node000003"><a xlink:title=" ">
<path fill="none" stroke="#63b8ff" d="M197.03,-48C187.85,-48 178.41,-48 169.11,-48"/>
<polygon fill="#63b8ff" stroke="#63b8ff" points="196.99,-51.5 206.99,-48 196.99,-44.5 196.99,-51.5"/>
</a>
</g>
</g>
<!-- Node4 -->
<g id="Node000004" class="node">
<title>Node4</title>
<g id="a_Node000004"><a xlink:href="class_a_speed_pickup.html#a49d8539bd54e1c1d414158fc573f4d44" target="_top" xlink:title=" ">
<polygon fill="white" stroke="#666666" points="168.25,-20 4.5,-20 4.5,0 168.25,0 168.25,-20"/>
<text text-anchor="middle" x="86.38" y="-6.5" font-family="Arial" font-size="10.00">ASpeedPickup::OnSphereOverlap</text>
</a>
</g>
</g>
<!-- Node1&#45;&gt;Node4 -->
<g id="edge3_Node000001_Node000004" class="edge">
<title>Node1&#45;&gt;Node4</title>
<g id="a_edge3_Node000001_Node000004"><a xlink:title=" ">
<path fill="none" stroke="#63b8ff" d="M208.88,-35.21C185.74,-30.41 159.73,-25.01 137.73,-20.45"/>
<polygon fill="#63b8ff" stroke="#63b8ff" points="207.99,-38.6 218.49,-37.21 209.41,-31.75 207.99,-38.6"/>
</a>
</g>
</g>
</g>
</svg>
</svg>

<style type='text/css'>
<![CDATA[
[data-mouse-over-selected='false'] { opacity: 0.7; }
[data-mouse-over-selected='true']  { opacity: 1.0; }
]]>
</style>
<script type="application/ecmascript"><![CDATA[
document.addEventListener('DOMContentLoaded', (event) => {
  highlightEdges();
  highlightAdjacentNodes();
});
]]></script>
</svg>
