<?xml version="1.0" encoding="UTF-8" standalone="no"?>
<!DOCTYPE svg PUBLIC "-//W3C//DTD SVG 1.1//EN"
 "http://www.w3.org/Graphics/SVG/1.1/DTD/svg11.dtd">
<!-- Generated by graphviz version 12.2.1 (20241206.2353)
 -->
<!-- Title: AMainGameMode::PlayerEliminated Pages: 1 -->
<svg width="779pt" height="146pt"
 viewBox="0.00 0.00 778.50 146.00" xmlns="http://www.w3.org/2000/svg" xmlns:xlink="http://www.w3.org/1999/xlink">
<g id="graph0" class="graph" transform="scale(1 1) rotate(0) translate(4 142)">
<title>AMainGameMode::PlayerEliminated</title>
<!-- Node1 -->
<g id="Node000001" class="node">
<title>Node1</title>
<g id="a_Node000001"><a xlink:title=" ">
<polygon fill="#999999" stroke="#666666" points="173.5,-82 0,-82 0,-62 173.5,-62 173.5,-82"/>
<text text-anchor="middle" x="86.75" y="-68.5" font-family="Arial" font-size="10.00">AMainGameMode::PlayerEliminated</text>
</a>
</g>
</g>
<!-- Node2 -->
<g id="Node000002" class="node">
<title>Node2</title>
<g id="a_Node000002"><a xlink:href="class_a_main_player_state.html#abba13b280e637d9cc041999392596805" target="_top" xlink:title=" ">
<polygon fill="white" stroke="#666666" points="363.5,-126 209.5,-126 209.5,-106 363.5,-106 363.5,-126"/>
<text text-anchor="middle" x="286.5" y="-112.5" font-family="Arial" font-size="10.00">AMainPlayerState::AddToScore</text>
</a>
</g>
</g>
<!-- Node1&#45;&gt;Node2 -->
<g id="edge1_Node000001_Node000002" class="edge">
<title>Node1&#45;&gt;Node2</title>
<g id="a_edge1_Node000001_Node000002"><a xlink:title=" ">
<path fill="none" stroke="#63b8ff" d="M134.86,-82.48C162.62,-88.66 197.95,-96.52 227.42,-103.08"/>
<polygon fill="#63b8ff" stroke="#63b8ff" points="226.4,-106.44 236.93,-105.19 227.93,-99.6 226.4,-106.44"/>
</a>
</g>
</g>
<!-- Node4 -->
<g id="Node000004" class="node">
<title>Node4</title>
<g id="a_Node000004"><a xlink:href="class_a_main_character.html#a9d0b7a05e0580099815730100ad9bfb6" target="_top" xlink:title="Elimination.">
<polygon fill="white" stroke="#666666" points="342.5,-82 230.5,-82 230.5,-62 342.5,-62 342.5,-82"/>
<text text-anchor="middle" x="286.5" y="-68.5" font-family="Arial" font-size="10.00">AMainCharacter::Elim</text>
</a>
</g>
</g>
<!-- Node1&#45;&gt;Node4 -->
<g id="edge3_Node000001_Node000004" class="edge">
<title>Node1&#45;&gt;Node4</title>
<g id="a_edge3_Node000001_Node000004"><a xlink:title=" ">
<path fill="none" stroke="#63b8ff" d="M173.91,-72C188.94,-72 204.37,-72 218.77,-72"/>
<polygon fill="#63b8ff" stroke="#63b8ff" points="218.57,-75.5 228.57,-72 218.57,-68.5 218.57,-75.5"/>
</a>
</g>
</g>
<!-- Node8 -->
<g id="Node000008" class="node">
<title>Node8</title>
<g id="a_Node000008"><a xlink:href="class_a_main_game_state.html#a4e6bfb94716b9006ee0783d95b027732" target="_top" xlink:title=" ">
<polygon fill="white" stroke="#666666" points="359.75,-44 213.25,-44 213.25,-12 359.75,-12 359.75,-44"/>
<text text-anchor="start" x="221.25" y="-30.5" font-family="Arial" font-size="10.00">AMainGameState::UpdateTop</text>
<text text-anchor="middle" x="286.5" y="-18.5" font-family="Arial" font-size="10.00">Score</text>
</a>
</g>
</g>
<!-- Node1&#45;&gt;Node8 -->
<g id="edge8_Node000001_Node000008" class="edge">
<title>Node1&#45;&gt;Node8</title>
<g id="a_edge8_Node000001_Node000008"><a xlink:title=" ">
<path fill="none" stroke="#63b8ff" d="M134.86,-61.52C154.89,-57.06 178.87,-51.73 201.73,-46.64"/>
<polygon fill="#63b8ff" stroke="#63b8ff" points="202.37,-50.08 211.37,-44.49 200.85,-43.25 202.37,-50.08"/>
</a>
</g>
</g>
<!-- Node3 -->
<g id="Node000003" class="node">
<title>Node3</title>
<g id="a_Node000003"><a xlink:href="class_a_main_player_state.html#ad9548a5e9fb8bea3102cc8fd8689bcfa" target="_top" xlink:title=" ">
<polygon fill="white" stroke="#666666" points="550.5,-138 405.5,-138 405.5,-106 550.5,-106 550.5,-138"/>
<text text-anchor="start" x="413.5" y="-124.5" font-family="Arial" font-size="10.00">AMainPlayerState::ResetCan</text>
<text text-anchor="middle" x="478" y="-112.5" font-family="Arial" font-size="10.00">GetPoints</text>
</a>
</g>
</g>
<!-- Node2&#45;&gt;Node3 -->
<g id="edge2_Node000002_Node000003" class="edge">
<title>Node2&#45;&gt;Node3</title>
<g id="a_edge2_Node000002_Node000003"><a xlink:title=" ">
<path fill="none" stroke="#63b8ff" d="M363.76,-118.41C373.7,-118.73 383.92,-119.05 393.96,-119.37"/>
<polygon fill="#63b8ff" stroke="#63b8ff" points="393.58,-122.86 403.68,-119.68 393.8,-115.86 393.58,-122.86"/>
</a>
</g>
</g>
<!-- Node5 -->
<g id="Node000005" class="node">
<title>Node5</title>
<g id="a_Node000005"><a xlink:href="class_a_main_character.html#aea17dde5a15443622f0bf918c57cce6f" target="_top" xlink:title=" ">
<polygon fill="white" stroke="#666666" points="546.38,-88 409.62,-88 409.62,-56 546.38,-56 546.38,-88"/>
<text text-anchor="start" x="417.62" y="-74.5" font-family="Arial" font-size="10.00">AMainCharacter::ElimTimer</text>
<text text-anchor="middle" x="478" y="-62.5" font-family="Arial" font-size="10.00">Finished</text>
</a>
</g>
</g>
<!-- Node4&#45;&gt;Node5 -->
<g id="edge4_Node000004_Node000005" class="edge">
<title>Node4&#45;&gt;Node5</title>
<g id="a_edge4_Node000004_Node000005"><a xlink:title=" ">
<path fill="none" stroke="#63b8ff" d="M342.82,-72C360.01,-72 379.31,-72 397.79,-72"/>
<polygon fill="#63b8ff" stroke="#63b8ff" points="397.66,-75.5 407.66,-72 397.66,-68.5 397.66,-75.5"/>
</a>
</g>
</g>
<!-- Node7 -->
<g id="Node000007" class="node">
<title>Node7</title>
<g id="a_Node000007"><a xlink:href="class_a_main_character.html#a5691a3d428c1f9d6f6ed3d28cb29df10" target="_top" xlink:title=" ">
<polygon fill="white" stroke="#666666" points="556.5,-20 399.5,-20 399.5,0 556.5,0 556.5,-20"/>
<text text-anchor="middle" x="478" y="-6.5" font-family="Arial" font-size="10.00">AMainCharacter::Multicast_Elim</text>
</a>
</g>
</g>
<!-- Node4&#45;&gt;Node7 -->
<g id="edge6_Node000004_Node000007" class="edge">
<title>Node4&#45;&gt;Node7</title>
<g id="a_edge6_Node000004_Node000007"><a xlink:title=" ">
<path fill="none" stroke="#63b8ff" d="M333.15,-61.51C343.21,-58.94 353.77,-56.05 363.5,-53 389.99,-44.7 419.27,-33.56 441.46,-24.69"/>
<polygon fill="#63b8ff" stroke="#63b8ff" points="442.68,-27.97 450.65,-20.99 440.06,-21.48 442.68,-27.97"/>
</a>
</g>
</g>
<!-- Node6 -->
<g id="Node000006" class="node">
<title>Node6</title>
<g id="a_Node000006"><a xlink:href="class_a_main_game_mode.html#a3713d86d5420f9c8fc8c0e5b055955a2" target="_top" xlink:title=" ">
<polygon fill="white" stroke="#666666" points="770.5,-82 592.5,-82 592.5,-62 770.5,-62 770.5,-82"/>
<text text-anchor="middle" x="681.5" y="-68.5" font-family="Arial" font-size="10.00">AMainGameMode::RequestRespawn</text>
</a>
</g>
</g>
<!-- Node5&#45;&gt;Node6 -->
<g id="edge5_Node000005_Node000006" class="edge">
<title>Node5&#45;&gt;Node6</title>
<g id="a_edge5_Node000005_Node000006"><a xlink:title=" ">
<path fill="none" stroke="#63b8ff" d="M546.66,-72C557.75,-72 569.44,-72 581.11,-72"/>
<polygon fill="#63b8ff" stroke="#63b8ff" points="580.75,-75.5 590.75,-72 580.75,-68.5 580.75,-75.5"/>
</a>
</g>
</g>
<!-- Node7&#45;&gt;Node7 -->
<g id="edge7_Node000007_Node000007" class="edge">
<title>Node7&#45;&gt;Node7</title>
<g id="a_edge7_Node000007_Node000007"><a xlink:title=" ">
<path fill="none" stroke="#63b8ff" d="M447.57,-20.34C434.57,-28.98 444.71,-38 478,-38 496.72,-38 508.13,-35.14 512.2,-31.11"/>
<polygon fill="#63b8ff" stroke="#63b8ff" points="515.54,-30.05 508.93,-21.77 508.93,-32.36 515.54,-30.05"/>
</a>
</g>
</g>
</g>
</svg>
