<?xml version="1.0" encoding="UTF-8" standalone="no"?>
<!DOCTYPE svg PUBLIC "-//W3C//DTD SVG 1.1//EN"
 "http://www.w3.org/Graphics/SVG/1.1/DTD/svg11.dtd">
<!-- Generated by graphviz version 12.2.1 (20241206.2353)
 -->
<!-- Title: AMainGameMode Pages: 1 -->
<svg width="149pt" height="372pt"
 viewBox="0.00 0.00 149.00 372.00" xmlns="http://www.w3.org/2000/svg" xmlns:xlink="http://www.w3.org/1999/xlink">
<g id="graph0" class="graph" transform="scale(1 1) rotate(0) translate(4 368)">
<title>AMainGameMode</title>
<!-- Node1 -->
<g id="Node000001" class="node">
<title>Node1</title>
<g id="a_Node000001"><a xlink:title=" ">
<polygon fill="#999999" stroke="none" points="141,-276 0,-276 0,0 141,0 141,-276"/>
<text text-anchor="start" x="31.5" y="-262.5" font-family="Arial" font-size="10.00">AMainGameMode</text>
<text text-anchor="start" x="4" y="-246.5" font-family="Arial" font-size="10.00">+</text>
<text text-anchor="start" x="14" y="-246.5" font-family="Arial" font-size="10.00">WarmupTime</text>
<text text-anchor="start" x="4" y="-230.5" font-family="Arial" font-size="10.00">+</text>
<text text-anchor="start" x="14" y="-230.5" font-family="Arial" font-size="10.00">MatchTime</text>
<text text-anchor="start" x="4" y="-214.5" font-family="Arial" font-size="10.00">+</text>
<text text-anchor="start" x="14" y="-214.5" font-family="Arial" font-size="10.00">CooldownTime</text>
<text text-anchor="start" x="4" y="-198.5" font-family="Arial" font-size="10.00">+</text>
<text text-anchor="start" x="14" y="-198.5" font-family="Arial" font-size="10.00">LevelStartingTime</text>
<text text-anchor="start" x="4" y="-182.5" font-family="Arial" font-size="10.00">+</text>
<text text-anchor="start" x="14" y="-182.5" font-family="Arial" font-size="10.00">BuffList</text>
<text text-anchor="start" x="4" y="-166.5" font-family="Arial" font-size="10.00">+</text>
<text text-anchor="start" x="14" y="-166.5" font-family="Arial" font-size="10.00">BackgroundMusic</text>
<text text-anchor="start" x="5.5" y="-150.5" font-family="Arial" font-size="10.00">&#45;</text>
<text text-anchor="start" x="14" y="-150.5" font-family="Arial" font-size="10.00">CountdownTime</text>
<text text-anchor="start" x="4" y="-134.5" font-family="Arial" font-size="10.00">+</text>
<text text-anchor="start" x="14" y="-134.5" font-family="Arial" font-size="10.00">AMainGameMode()</text>
<text text-anchor="start" x="4" y="-118.5" font-family="Arial" font-size="10.00">+</text>
<text text-anchor="start" x="14" y="-118.5" font-family="Arial" font-size="10.00">Tick()</text>
<text text-anchor="start" x="4" y="-102.5" font-family="Arial" font-size="10.00">+</text>
<text text-anchor="start" x="14" y="-102.5" font-family="Arial" font-size="10.00">PlayerEliminated()</text>
<text text-anchor="start" x="4" y="-86.5" font-family="Arial" font-size="10.00">+</text>
<text text-anchor="start" x="14" y="-86.5" font-family="Arial" font-size="10.00">RequestRespawn()</text>
<text text-anchor="start" x="4" y="-70.5" font-family="Arial" font-size="10.00">+</text>
<text text-anchor="start" x="14" y="-70.5" font-family="Arial" font-size="10.00">GetMusicAudioComponent()</text>
<text text-anchor="start" x="4.38" y="-54.5" font-family="Arial" font-size="10.00">#</text>
<text text-anchor="start" x="14" y="-54.5" font-family="Arial" font-size="10.00">BeginPlay()</text>
<text text-anchor="start" x="4.38" y="-38.5" font-family="Arial" font-size="10.00">#</text>
<text text-anchor="start" x="14" y="-38.5" font-family="Arial" font-size="10.00">OnMatchStateSet()</text>
<text text-anchor="start" x="4.38" y="-22.5" font-family="Arial" font-size="10.00">#</text>
<text text-anchor="start" x="14" y="-22.5" font-family="Arial" font-size="10.00">HandleHighPing()</text>
<text text-anchor="start" x="4.38" y="-6.5" font-family="Arial" font-size="10.00">#</text>
<text text-anchor="start" x="14" y="-6.5" font-family="Arial" font-size="10.00">PostLogin()</text>
<polygon fill="#666666" stroke="#666666" points="0,-258 0,-258 141,-258 141,-258 0,-258"/>
<polygon fill="#666666" stroke="#666666" points="0,-146 0,-146 12,-146 12,-146 0,-146"/>
<polygon fill="#666666" stroke="#666666" points="12,-146 12,-146 141,-146 141,-146 12,-146"/>
<polygon fill="none" stroke="#666666" points="0,0 0,-276 141,-276 141,0 0,0"/>
</a>
</g>
</g>
<!-- Node2 -->
<g id="Node000002" class="node">
<title>Node2</title>
<g id="a_Node000002"><a xlink:title=" ">
<polygon fill="white" stroke="none" points="103,-364 38,-364 38,-312 103,-312 103,-364"/>
<text text-anchor="start" x="42" y="-350.5" font-family="Arial" font-size="10.00">AGameMode</text>
<text text-anchor="start" x="69" y="-334.5" font-family="Arial" font-size="10.00"> </text>
<text text-anchor="start" x="69" y="-318.5" font-family="Arial" font-size="10.00"> </text>
<polygon fill="#666666" stroke="#666666" points="38,-346 38,-346 103,-346 103,-346 38,-346"/>
<polygon fill="#666666" stroke="#666666" points="38,-330 38,-330 103,-330 103,-330 38,-330"/>
<polygon fill="none" stroke="#666666" points="38,-312 38,-364 103,-364 103,-312 38,-312"/>
</a>
</g>
</g>
<!-- Node2&#45;&gt;Node1 -->
<g id="edge1_Node000001_Node000002" class="edge">
<title>Node2&#45;&gt;Node1</title>
<g id="a_edge1_Node000001_Node000002"><a xlink:title=" ">
<path fill="none" stroke="#63b8ff" d="M70.5,-301.03C70.5,-293.35 70.5,-284.81 70.5,-275.78"/>
<polygon fill="none" stroke="#63b8ff" points="67,-300.81 70.5,-310.81 74,-300.81 67,-300.81"/>
</a>
</g>
</g>
</g>
</svg>
