<?xml version="1.0" encoding="UTF-8" standalone="no"?>
<!DOCTYPE svg PUBLIC "-//W3C//DTD SVG 1.1//EN"
 "http://www.w3.org/Graphics/SVG/1.1/DTD/svg11.dtd">
<!-- Generated by graphviz version 12.2.1 (20241206.2353)
 -->
<!-- Title: ALobbyGameMode Pages: 1 -->
<svg width="149pt" height="212pt"
 viewBox="0.00 0.00 149.00 212.00" xmlns="http://www.w3.org/2000/svg" xmlns:xlink="http://www.w3.org/1999/xlink">
<g id="graph0" class="graph" transform="scale(1 1) rotate(0) translate(4 208)">
<title>ALobbyGameMode</title>
<!-- Node1 -->
<g id="Node000001" class="node">
<title>Node1</title>
<g id="a_Node000001"><a xlink:title=" ">
<polygon fill="#999999" stroke="none" points="141,-116 0,-116 0,0 141,0 141,-116"/>
<text text-anchor="start" x="28.88" y="-102.5" font-family="Arial" font-size="10.00">ALobbyGameMode</text>
<text text-anchor="start" x="4" y="-86.5" font-family="Arial" font-size="10.00">+</text>
<text text-anchor="start" x="14" y="-86.5" font-family="Arial" font-size="10.00">BackgroundMusic</text>
<text text-anchor="start" x="4" y="-70.5" font-family="Arial" font-size="10.00">+</text>
<text text-anchor="start" x="14" y="-70.5" font-family="Arial" font-size="10.00">BeginPlay()</text>
<text text-anchor="start" x="4" y="-54.5" font-family="Arial" font-size="10.00">+</text>
<text text-anchor="start" x="14" y="-54.5" font-family="Arial" font-size="10.00">PostLogin()</text>
<text text-anchor="start" x="4" y="-38.5" font-family="Arial" font-size="10.00">+</text>
<text text-anchor="start" x="14" y="-38.5" font-family="Arial" font-size="10.00">TravelToLevel()</text>
<text text-anchor="start" x="4" y="-22.5" font-family="Arial" font-size="10.00">+</text>
<text text-anchor="start" x="14" y="-22.5" font-family="Arial" font-size="10.00">GetMusicAudioComponent()</text>
<text text-anchor="start" x="4" y="-6.5" font-family="Arial" font-size="10.00">+</text>
<text text-anchor="start" x="14" y="-6.5" font-family="Arial" font-size="10.00">SetupInput()</text>
<polygon fill="#666666" stroke="#666666" points="0,-98 0,-98 141,-98 141,-98 0,-98"/>
<polygon fill="#666666" stroke="#666666" points="0,-82 0,-82 12,-82 12,-82 0,-82"/>
<polygon fill="#666666" stroke="#666666" points="12,-82 12,-82 141,-82 141,-82 12,-82"/>
<polygon fill="none" stroke="#666666" points="0,0 0,-116 141,-116 141,0 0,0"/>
</a>
</g>
</g>
<!-- Node2 -->
<g id="Node000002" class="node">
<title>Node2</title>
<g id="a_Node000002"><a xlink:title=" ">
<polygon fill="white" stroke="none" points="103,-204 38,-204 38,-152 103,-152 103,-204"/>
<text text-anchor="start" x="42" y="-190.5" font-family="Arial" font-size="10.00">AGameMode</text>
<text text-anchor="start" x="69" y="-174.5" font-family="Arial" font-size="10.00"> </text>
<text text-anchor="start" x="69" y="-158.5" font-family="Arial" font-size="10.00"> </text>
<polygon fill="#666666" stroke="#666666" points="38,-186 38,-186 103,-186 103,-186 38,-186"/>
<polygon fill="#666666" stroke="#666666" points="38,-170 38,-170 103,-170 103,-170 38,-170"/>
<polygon fill="none" stroke="#666666" points="38,-152 38,-204 103,-204 103,-152 38,-152"/>
</a>
</g>
</g>
<!-- Node2&#45;&gt;Node1 -->
<g id="edge1_Node000001_Node000002" class="edge">
<title>Node2&#45;&gt;Node1</title>
<g id="a_edge1_Node000001_Node000002"><a xlink:title=" ">
<path fill="none" stroke="#63b8ff" d="M70.5,-140.82C70.5,-132.89 70.5,-124.31 70.5,-115.79"/>
<polygon fill="none" stroke="#63b8ff" points="67,-140.75 70.5,-150.75 74,-140.75 67,-140.75"/>
</a>
</g>
</g>
</g>
</svg>
