<?xml version="1.0" encoding="UTF-8" standalone="no"?>
<!DOCTYPE svg PUBLIC "-//W3C//DTD SVG 1.1//EN"
 "http://www.w3.org/Graphics/SVG/1.1/DTD/svg11.dtd">
<!-- Generated by graphviz version 12.2.1 (20241206.2353)
 -->
<!-- Title: AMainCharacter::CalculateAO_Pitch Pages: 1 -->
<svg width="627pt" height="53pt"
 viewBox="0.00 0.00 627.00 53.00" xmlns="http://www.w3.org/2000/svg" xmlns:xlink="http://www.w3.org/1999/xlink">
<g id="graph0" class="graph" transform="scale(1 1) rotate(0) translate(4 49)">
<title>AMainCharacter::CalculateAO_Pitch</title>
<!-- Node1 -->
<g id="Node000001" class="node">
<title>Node1</title>
<g id="a_Node000001"><a xlink:title=" ">
<polygon fill="#999999" stroke="#666666" points="619,-32 485.25,-32 485.25,0 619,0 619,-32"/>
<text text-anchor="start" x="493.25" y="-18.5" font-family="Arial" font-size="10.00">AMainCharacter::Calculate</text>
<text text-anchor="middle" x="552.12" y="-6.5" font-family="Arial" font-size="10.00">AO_Pitch</text>
</a>
</g>
</g>
<!-- Node2 -->
<g id="Node000002" class="node">
<title>Node2</title>
<g id="a_Node000002"><a xlink:href="class_a_main_character.html#a6fa9a33c3dd4522ed81944aabc3114b8" target="_top" xlink:title=" ">
<polygon fill="white" stroke="#666666" points="449.25,-45 313.25,-45 313.25,-25 449.25,-25 449.25,-45"/>
<text text-anchor="middle" x="381.25" y="-31.5" font-family="Arial" font-size="10.00">AMainCharacter::AimOffset</text>
</a>
</g>
</g>
<!-- Node1&#45;&gt;Node2 -->
<g id="edge1_Node000001_Node000002" class="edge">
<title>Node1&#45;&gt;Node2</title>
<g id="a_edge1_Node000001_Node000002"><a xlink:title=" ">
<path fill="none" stroke="#63b8ff" d="M473.65,-24.72C465.66,-25.62 457.58,-26.52 449.71,-27.41"/>
<polygon fill="#63b8ff" stroke="#63b8ff" points="473.82,-28.22 483.36,-23.62 473.03,-21.26 473.82,-28.22"/>
</a>
</g>
</g>
<!-- Node3 -->
<g id="Node000003" class="node">
<title>Node3</title>
<g id="a_Node000003"><a xlink:href="class_a_main_character.html#a909b1b0adf502bef351cceca49e4eb68" target="_top" xlink:title=" ">
<polygon fill="white" stroke="#666666" points="277.25,-32 147.25,-32 147.25,0 277.25,0 277.25,-32"/>
<text text-anchor="start" x="155.25" y="-18.5" font-family="Arial" font-size="10.00">AMainCharacter::RotateIn</text>
<text text-anchor="middle" x="212.25" y="-6.5" font-family="Arial" font-size="10.00">Place</text>
</a>
</g>
</g>
<!-- Node1&#45;&gt;Node3 -->
<g id="edge4_Node000001_Node000003" class="edge">
<title>Node1&#45;&gt;Node3</title>
<g id="a_edge4_Node000001_Node000003"><a xlink:title=" ">
<path fill="none" stroke="#63b8ff" d="M473.59,-16C414.3,-16 333.51,-16 277.73,-16"/>
<polygon fill="#63b8ff" stroke="#63b8ff" points="473.26,-19.5 483.26,-16 473.26,-12.5 473.26,-19.5"/>
</a>
</g>
</g>
<!-- Node2&#45;&gt;Node3 -->
<g id="edge2_Node000002_Node000003" class="edge">
<title>Node2&#45;&gt;Node3</title>
<g id="a_edge2_Node000002_Node000003"><a xlink:title=" ">
<path fill="none" stroke="#63b8ff" d="M301.57,-26.05C293.57,-25.14 285.52,-24.22 277.7,-23.33"/>
<polygon fill="#63b8ff" stroke="#63b8ff" points="300.97,-29.5 311.3,-27.16 301.76,-22.55 300.97,-29.5"/>
</a>
</g>
</g>
<!-- Node4 -->
<g id="Node000004" class="node">
<title>Node4</title>
<g id="a_Node000004"><a xlink:href="class_a_main_character.html#a44a6be77fb1c8617c144a85fc084ad2b" target="_top" xlink:title=" ">
<polygon fill="white" stroke="#666666" points="111.25,-26 0,-26 0,-6 111.25,-6 111.25,-26"/>
<text text-anchor="middle" x="55.62" y="-12.5" font-family="Arial" font-size="10.00">AMainCharacter::Tick</text>
</a>
</g>
</g>
<!-- Node3&#45;&gt;Node4 -->
<g id="edge3_Node000003_Node000004" class="edge">
<title>Node3&#45;&gt;Node4</title>
<g id="a_edge3_Node000003_Node000004"><a xlink:title=" ">
<path fill="none" stroke="#63b8ff" d="M135.61,-16C127.49,-16 119.36,-16 111.56,-16"/>
<polygon fill="#63b8ff" stroke="#63b8ff" points="135.5,-19.5 145.5,-16 135.5,-12.5 135.5,-19.5"/>
</a>
</g>
</g>
</g>
</svg>
