<?xml version="1.0" encoding="UTF-8" standalone="no"?>
<!DOCTYPE svg PUBLIC "-//W3C//DTD SVG 1.1//EN"
 "http://www.w3.org/Graphics/SVG/1.1/DTD/svg11.dtd">
<!-- Generated by graphviz version 12.2.1 (20241206.2353)
 -->
<!-- Title: AMainCharacter::EquipButtonPressed Pages: 1 -->
<svg width="336pt" height="78pt"
 viewBox="0.00 0.00 335.50 78.00" xmlns="http://www.w3.org/2000/svg" xmlns:xlink="http://www.w3.org/1999/xlink">
<g id="graph0" class="graph" transform="scale(1 1) rotate(0) translate(4 74)">
<title>AMainCharacter::EquipButtonPressed</title>
<!-- Node1 -->
<g id="Node000001" class="node">
<title>Node1</title>
<g id="a_Node000001"><a xlink:title=" ">
<polygon fill="#999999" stroke="#666666" points="327.5,-54 181.75,-54 181.75,-22 327.5,-22 327.5,-54"/>
<text text-anchor="start" x="189.75" y="-40.5" font-family="Arial" font-size="10.00">AMainCharacter::EquipButton</text>
<text text-anchor="middle" x="254.62" y="-28.5" font-family="Arial" font-size="10.00">Pressed</text>
</a>
</g>
</g>
<!-- Node2 -->
<g id="Node000002" class="node">
<title>Node2</title>
<g id="a_Node000002"><a xlink:href="class_a_main_character.html#a096ef46022cd84777b571482729ed02f" target="_top" xlink:title=" ">
<polygon fill="white" stroke="#666666" points="141.25,-70 4.5,-70 4.5,-50 141.25,-50 141.25,-70"/>
<text text-anchor="middle" x="72.88" y="-56.5" font-family="Arial" font-size="10.00">AMainCharacter::BeginPlay</text>
</a>
</g>
</g>
<!-- Node1&#45;&gt;Node2 -->
<g id="edge1_Node000001_Node000002" class="edge">
<title>Node1&#45;&gt;Node2</title>
<g id="a_edge1_Node000001_Node000002"><a xlink:title=" ">
<path fill="none" stroke="#63b8ff" d="M170.16,-48.21C160.63,-49.38 150.99,-50.56 141.69,-51.7"/>
<polygon fill="#63b8ff" stroke="#63b8ff" points="170.29,-51.73 179.79,-47.04 169.44,-44.78 170.29,-51.73"/>
</a>
</g>
</g>
<!-- Node3 -->
<g id="Node000003" class="node">
<title>Node3</title>
<g id="a_Node000003"><a xlink:href="class_a_main_character.html#a96eb814e0d995ca16f33e92256756046" target="_top" xlink:title=" ">
<polygon fill="white" stroke="#666666" points="145.75,-32 0,-32 0,0 145.75,0 145.75,-32"/>
<text text-anchor="start" x="8" y="-18.5" font-family="Arial" font-size="10.00">AMainCharacter::SetupPlayer</text>
<text text-anchor="middle" x="72.88" y="-6.5" font-family="Arial" font-size="10.00">InputComponent</text>
</a>
</g>
</g>
<!-- Node1&#45;&gt;Node3 -->
<g id="edge2_Node000001_Node000003" class="edge">
<title>Node1&#45;&gt;Node3</title>
<g id="a_edge2_Node000001_Node000003"><a xlink:title=" ">
<path fill="none" stroke="#63b8ff" d="M170.04,-27.77C162.03,-26.79 153.95,-25.8 146.06,-24.84"/>
<polygon fill="#63b8ff" stroke="#63b8ff" points="169.44,-31.22 179.79,-28.96 170.29,-24.27 169.44,-31.22"/>
</a>
</g>
</g>
</g>
</svg>
