<?xml version="1.0" encoding="UTF-8" standalone="no"?>
<!DOCTYPE svg PUBLIC "-//W3C//DTD SVG 1.1//EN"
 "http://www.w3.org/Graphics/SVG/1.1/DTD/svg11.dtd">
<!-- Generated by graphviz version 12.2.1 (20241206.2353)
 -->
<!-- Title: AMainHUD::AddCharacterOverlay Pages: 1 -->
<svg width="749pt" height="116pt"
 viewBox="0.00 0.00 749.25 116.00" xmlns="http://www.w3.org/2000/svg" xmlns:xlink="http://www.w3.org/1999/xlink">
<g id="graph0" class="graph" transform="scale(1 1) rotate(0) translate(4 112)">
<title>AMainHUD::AddCharacterOverlay</title>
<!-- Node1 -->
<g id="Node000001" class="node">
<title>Node1</title>
<g id="a_Node000001"><a xlink:title=" ">
<polygon fill="#999999" stroke="#666666" points="741.25,-80 575.25,-80 575.25,-60 741.25,-60 741.25,-80"/>
<text text-anchor="middle" x="658.25" y="-66.5" font-family="Arial" font-size="10.00">AMainHUD::AddCharacterOverlay</text>
</a>
</g>
</g>
<!-- Node2 -->
<g id="Node000002" class="node">
<title>Node2</title>
<g id="a_Node000002"><a xlink:href="class_a_base_weapon.html#a87d9c1d39b25aae299790b857b07182d" target="_top" xlink:title=" ">
<polygon fill="white" stroke="#666666" points="539.25,-80 386.75,-80 386.75,-60 539.25,-60 539.25,-80"/>
<text text-anchor="middle" x="463" y="-66.5" font-family="Arial" font-size="10.00">ABaseWeapon::SetHUDAmmo</text>
</a>
</g>
</g>
<!-- Node1&#45;&gt;Node2 -->
<g id="edge1_Node000001_Node000002" class="edge">
<title>Node1&#45;&gt;Node2</title>
<g id="a_edge1_Node000001_Node000002"><a xlink:title=" ">
<path fill="none" stroke="#63b8ff" d="M563.7,-70C555.66,-70 547.59,-70 539.72,-70"/>
<polygon fill="#63b8ff" stroke="#63b8ff" points="563.5,-73.5 573.5,-70 563.5,-66.5 563.5,-73.5"/>
</a>
</g>
</g>
<!-- Node3 -->
<g id="Node000003" class="node">
<title>Node3</title>
<g id="a_Node000003"><a xlink:href="class_a_base_weapon.html#ab553b4dcd042276efd67166d2cef9d4d" target="_top" xlink:title=" ">
<polygon fill="white" stroke="#666666" points="338,-108 220.75,-108 220.75,-76 338,-76 338,-108"/>
<text text-anchor="start" x="228.75" y="-94.5" font-family="Arial" font-size="10.00">ABaseWeapon::OnRep</text>
<text text-anchor="middle" x="279.38" y="-82.5" font-family="Arial" font-size="10.00">_Owner</text>
</a>
</g>
</g>
<!-- Node2&#45;&gt;Node3 -->
<g id="edge2_Node000002_Node000003" class="edge">
<title>Node2&#45;&gt;Node3</title>
<g id="a_edge2_Node000002_Node000003"><a xlink:title=" ">
<path fill="none" stroke="#63b8ff" d="M374.92,-80.55C362.48,-82.06 349.94,-83.57 338.25,-84.99"/>
<polygon fill="#63b8ff" stroke="#63b8ff" points="375.28,-84.03 384.79,-79.35 374.44,-77.08 375.28,-84.03"/>
</a>
</g>
</g>
<!-- Node4 -->
<g id="Node000004" class="node">
<title>Node4</title>
<g id="a_Node000004"><a xlink:href="class_a_base_weapon.html#aca65357c857be2de97da359100804be2" target="_top" xlink:title=" ">
<polygon fill="white" stroke="#666666" points="350.75,-58 208,-58 208,-38 350.75,-38 350.75,-58"/>
<text text-anchor="middle" x="279.38" y="-44.5" font-family="Arial" font-size="10.00">ABaseWeapon::SpendRound</text>
</a>
</g>
</g>
<!-- Node2&#45;&gt;Node4 -->
<g id="edge3_Node000002_Node000004" class="edge">
<title>Node2&#45;&gt;Node4</title>
<g id="a_edge3_Node000002_Node000004"><a xlink:title=" ">
<path fill="none" stroke="#63b8ff" d="M374.99,-59.46C366.95,-58.49 358.88,-57.51 351.02,-56.56"/>
<polygon fill="#63b8ff" stroke="#63b8ff" points="374.44,-62.92 384.79,-60.65 375.28,-55.97 374.44,-62.92"/>
</a>
</g>
</g>
<!-- Node5 -->
<g id="Node000005" class="node">
<title>Node5</title>
<g id="a_Node000005"><a xlink:href="class_a_base_weapon.html#a87839af8ca6d3be01b6521ce105772e2" target="_top" xlink:title=" ">
<polygon fill="white" stroke="#666666" points="172,-58 0,-58 0,-38 172,-38 172,-58"/>
<text text-anchor="middle" x="86" y="-44.5" font-family="Arial" font-size="10.00">ABaseWeapon::ClientUpdateAmmo</text>
</a>
</g>
</g>
<!-- Node4&#45;&gt;Node5 -->
<g id="edge4_Node000004_Node000005" class="edge">
<title>Node4&#45;&gt;Node5</title>
<g id="a_edge4_Node000004_Node000005"><a xlink:title=" ">
<path fill="none" stroke="#63b8ff" d="M196.2,-41.31C188.3,-41.24 180.27,-41.23 172.34,-41.29"/>
<polygon fill="#63b8ff" stroke="#63b8ff" points="196.1,-44.81 206.14,-41.44 196.19,-37.81 196.1,-44.81"/>
</a>
</g>
</g>
<!-- Node6 -->
<g id="Node000006" class="node">
<title>Node6</title>
<g id="a_Node000006"><a xlink:href="class_a_base_weapon.html#a106c429cae78229f74086bb175e1cf7e" target="_top" xlink:title=" ">
<polygon fill="white" stroke="#666666" points="137.5,-20 34.5,-20 34.5,0 137.5,0 137.5,-20"/>
<text text-anchor="middle" x="86" y="-6.5" font-family="Arial" font-size="10.00">ABaseWeapon::Fire</text>
</a>
</g>
</g>
<!-- Node4&#45;&gt;Node6 -->
<g id="edge7_Node000004_Node000006" class="edge">
<title>Node4&#45;&gt;Node6</title>
<g id="a_edge7_Node000004_Node000006"><a xlink:title=" ">
<path fill="none" stroke="#63b8ff" d="M214.4,-35.3C189.53,-30.36 161.44,-24.78 137.98,-20.12"/>
<polygon fill="#63b8ff" stroke="#63b8ff" points="213.6,-38.71 224.09,-37.22 214.96,-31.84 213.6,-38.71"/>
</a>
</g>
</g>
<!-- Node5&#45;&gt;Node4 -->
<g id="edge6_Node000005_Node000004" class="edge">
<title>Node5&#45;&gt;Node4</title>
<g id="a_edge6_Node000005_Node000004"><a xlink:title=" ">
<path fill="none" stroke="#63b8ff" d="M183.72,-54.75C191.79,-54.74 199.84,-54.67 207.66,-54.54"/>
<polygon fill="#63b8ff" stroke="#63b8ff" points="183.86,-51.25 173.85,-54.72 183.84,-58.25 183.86,-51.25"/>
</a>
</g>
</g>
<!-- Node5&#45;&gt;Node5 -->
<g id="edge5_Node000005_Node000005" class="edge">
<title>Node5&#45;&gt;Node5</title>
<g id="a_edge5_Node000005_Node000005"><a xlink:title=" ">
<path fill="none" stroke="#63b8ff" d="M120.54,-69.11C116.42,-73.14 104.91,-76 86,-76 52.39,-76 42.14,-66.98 55.27,-58.34"/>
<polygon fill="#63b8ff" stroke="#63b8ff" points="123.87,-68.02 117.23,-59.77 117.27,-70.36 123.87,-68.02"/>
</a>
</g>
</g>
</g>
</svg>
