<?xml version="1.0" encoding="UTF-8" standalone="no"?>
<!DOCTYPE svg PUBLIC "-//W3C//DTD SVG 1.1//EN"
 "http://www.w3.org/Graphics/SVG/1.1/DTD/svg11.dtd">
<!-- Generated by graphviz version 12.2.1 (20241206.2353)
 -->
<!-- Title: ABaseWeapon::Dropped Pages: 1 -->
<svg width="535pt" height="28pt"
 viewBox="0.00 0.00 535.25 28.00" xmlns="http://www.w3.org/2000/svg" xmlns:xlink="http://www.w3.org/1999/xlink">
<g id="graph0" class="graph" transform="scale(1 1) rotate(0) translate(4 24)">
<title>ABaseWeapon::Dropped</title>
<!-- Node1 -->
<g id="Node000001" class="node">
<title>Node1</title>
<g id="a_Node000001"><a xlink:title=" ">
<polygon fill="#999999" stroke="#666666" points="123.25,-20 0,-20 0,0 123.25,0 123.25,-20"/>
<text text-anchor="middle" x="61.62" y="-6.5" font-family="Arial" font-size="10.00">ABaseWeapon::Dropped</text>
</a>
</g>
</g>
<!-- Node2 -->
<g id="Node000002" class="node">
<title>Node2</title>
<g id="a_Node000002"><a xlink:href="class_a_base_weapon.html#aae35128d6be3419b9168545b83b85ef3" target="_top" xlink:title=" ">
<polygon fill="white" stroke="#666666" points="319.25,-20 159.25,-20 159.25,0 319.25,0 319.25,-20"/>
<text text-anchor="middle" x="239.25" y="-6.5" font-family="Arial" font-size="10.00">ABaseWeapon::SetWeaponState</text>
</a>
</g>
</g>
<!-- Node1&#45;&gt;Node2 -->
<g id="edge1_Node000001_Node000002" class="edge">
<title>Node1&#45;&gt;Node2</title>
<g id="a_edge1_Node000001_Node000002"><a xlink:title=" ">
<path fill="none" stroke="#63b8ff" d="M123.56,-10C131.3,-10 139.35,-10 147.44,-10"/>
<polygon fill="#63b8ff" stroke="#63b8ff" points="147.35,-13.5 157.35,-10 147.35,-6.5 147.35,-13.5"/>
</a>
</g>
</g>
<!-- Node3 -->
<g id="Node000003" class="node">
<title>Node3</title>
<g id="a_Node000003"><a xlink:href="class_a_base_weapon.html#ab36fec83b451fb0e7850ba06f4e6d2b2" target="_top" xlink:title=" ">
<polygon fill="white" stroke="#666666" points="527.25,-20 355.25,-20 355.25,0 527.25,0 527.25,-20"/>
<text text-anchor="middle" x="441.25" y="-6.5" font-family="Arial" font-size="10.00">ABaseWeapon::ShowPickupWidget</text>
</a>
</g>
</g>
<!-- Node2&#45;&gt;Node3 -->
<g id="edge2_Node000002_Node000003" class="edge">
<title>Node2&#45;&gt;Node3</title>
<g id="a_edge2_Node000002_Node000003"><a xlink:title=" ">
<path fill="none" stroke="#63b8ff" d="M319.58,-10C327.44,-10 335.48,-10 343.48,-10"/>
<polygon fill="#63b8ff" stroke="#63b8ff" points="343.25,-13.5 353.25,-10 343.25,-6.5 343.25,-13.5"/>
</a>
</g>
</g>
</g>
</svg>
