<?xml version="1.0" encoding="UTF-8" standalone="no"?>
<!DOCTYPE svg PUBLIC "-//W3C//DTD SVG 1.1//EN"
 "http://www.w3.org/Graphics/SVG/1.1/DTD/svg11.dtd">
<!-- Generated by graphviz version 12.2.1 (20241206.2353)
 -->
<!-- Title: AMainGameState Pages: 1 -->
<svg width="154pt" height="180pt"
 viewBox="0.00 0.00 154.25 180.00" xmlns="http://www.w3.org/2000/svg" xmlns:xlink="http://www.w3.org/1999/xlink">

<svg id="main" version="1.1" xmlns="http://www.w3.org/2000/svg" xmlns:xlink="http://www.w3.org/1999/xlink" xml:space="preserve">

<style type="text/css"><![CDATA[
.node, .edge {opacity: 0.7;}
.node.selected, .edge.selected {opacity: 1;}
.edge:hover path { stroke: red; }
.edge:hover polygon { stroke: red; fill: red; }
]]></style>
<script type="application/ecmascript" xlink:href="svg.min.js"/>
<svg id="graph" class="graph">
<g id="graph0" class="graph" transform="scale(1 1) rotate(0) translate(4 176)">
<title>AMainGameState</title>
<!-- Node1 -->
<g id="Node000001" class="node">
<title>Node1</title>
<g id="a_Node000001"><a xlink:title=" ">
<polygon fill="#999999" stroke="none" points="146.25,-84 0,-84 0,0 146.25,0 146.25,-84"/>
<text text-anchor="start" x="34.5" y="-70.5" font-family="Arial" font-size="10.00">AMainGameState</text>
<text text-anchor="start" x="4" y="-54.5" font-family="Arial" font-size="10.00">+</text>
<text text-anchor="start" x="14" y="-54.5" font-family="Arial" font-size="10.00">TopScoringPlayers</text>
<text text-anchor="start" x="5.5" y="-38.5" font-family="Arial" font-size="10.00">&#45;</text>
<text text-anchor="start" x="14" y="-38.5" font-family="Arial" font-size="10.00">TopScore</text>
<text text-anchor="start" x="4" y="-22.5" font-family="Arial" font-size="10.00">+</text>
<text text-anchor="start" x="14" y="-22.5" font-family="Arial" font-size="10.00">GetLifetimeReplicatedProps()</text>
<text text-anchor="start" x="4" y="-6.5" font-family="Arial" font-size="10.00">+</text>
<text text-anchor="start" x="14" y="-6.5" font-family="Arial" font-size="10.00">UpdateTopScore()</text>
<polygon fill="#666666" stroke="#666666" points="0,-66 0,-66 146.25,-66 146.25,-66 0,-66"/>
<polygon fill="#666666" stroke="#666666" points="0,-34 0,-34 12,-34 12,-34 0,-34"/>
<polygon fill="#666666" stroke="#666666" points="12,-34 12,-34 146.25,-34 146.25,-34 12,-34"/>
<polygon fill="none" stroke="#666666" points="0,0 0,-84 146.25,-84 146.25,0 0,0"/>
</a>
</g>
</g>
<!-- Node2 -->
<g id="Node000002" class="node">
<title>Node2</title>
<g id="a_Node000002"><a xlink:title=" ">
<polygon fill="white" stroke="none" points="105.25,-172 41,-172 41,-120 105.25,-120 105.25,-172"/>
<text text-anchor="start" x="45" y="-158.5" font-family="Arial" font-size="10.00">AGameState</text>
<text text-anchor="start" x="71.62" y="-142.5" font-family="Arial" font-size="10.00"> </text>
<text text-anchor="start" x="71.62" y="-126.5" font-family="Arial" font-size="10.00"> </text>
<polygon fill="#666666" stroke="#666666" points="41,-154 41,-154 105.25,-154 105.25,-154 41,-154"/>
<polygon fill="#666666" stroke="#666666" points="41,-138 41,-138 105.25,-138 105.25,-138 41,-138"/>
<polygon fill="none" stroke="#666666" points="41,-120 41,-172 105.25,-172 105.25,-120 41,-120"/>
</a>
</g>
</g>
<!-- Node2&#45;&gt;Node1 -->
<g id="edge1_Node000001_Node000002" class="edge">
<title>Node2&#45;&gt;Node1</title>
<g id="a_edge1_Node000001_Node000002"><a xlink:title=" ">
<path fill="none" stroke="#63b8ff" d="M73.12,-108.77C73.12,-100.75 73.12,-92.19 73.12,-83.99"/>
<polygon fill="none" stroke="#63b8ff" points="69.63,-108.53 73.13,-118.53 76.63,-108.53 69.63,-108.53"/>
</a>
</g>
</g>
</g>
</svg>
</svg>

<style type='text/css'>
<![CDATA[
[data-mouse-over-selected='false'] { opacity: 0.7; }
[data-mouse-over-selected='true']  { opacity: 1.0; }
]]>
</style>
<script type="application/ecmascript"><![CDATA[
document.addEventListener('DOMContentLoaded', (event) => {
  highlightEdges();
  highlightAdjacentNodes();
});
]]></script>
</svg>
