<?xml version="1.0" encoding="UTF-8" standalone="no"?>
<!DOCTYPE svg PUBLIC "-//W3C//DTD SVG 1.1//EN"
 "http://www.w3.org/Graphics/SVG/1.1/DTD/svg11.dtd">
<!-- Generated by graphviz version 12.2.1 (20241206.2353)
 -->
<!-- Title: APickupSpawnPoint Pages: 1 -->
<svg width="154pt" height="292pt"
 viewBox="0.00 0.00 153.50 292.00" xmlns="http://www.w3.org/2000/svg" xmlns:xlink="http://www.w3.org/1999/xlink">
<g id="graph0" class="graph" transform="scale(1 1) rotate(0) translate(4 288)">
<title>APickupSpawnPoint</title>
<!-- Node1 -->
<g id="Node000001" class="node">
<title>Node1</title>
<g id="a_Node000001"><a xlink:title=" ">
<polygon fill="#999999" stroke="none" points="145.5,-196 0,-196 0,0 145.5,0 145.5,-196"/>
<text text-anchor="start" x="28.12" y="-182.5" font-family="Arial" font-size="10.00">APickupSpawnPoint</text>
<text text-anchor="start" x="4.38" y="-166.5" font-family="Arial" font-size="10.00">#</text>
<text text-anchor="start" x="14" y="-166.5" font-family="Arial" font-size="10.00">PickupClasses</text>
<text text-anchor="start" x="4.38" y="-150.5" font-family="Arial" font-size="10.00">#</text>
<text text-anchor="start" x="14" y="-150.5" font-family="Arial" font-size="10.00">SpawnedPickup</text>
<text text-anchor="start" x="5.5" y="-134.5" font-family="Arial" font-size="10.00">&#45;</text>
<text text-anchor="start" x="14" y="-134.5" font-family="Arial" font-size="10.00">SpawnPickupTimer</text>
<text text-anchor="start" x="5.5" y="-118.5" font-family="Arial" font-size="10.00">&#45;</text>
<text text-anchor="start" x="14" y="-118.5" font-family="Arial" font-size="10.00">SpawnPickupTimeMin</text>
<text text-anchor="start" x="5.5" y="-102.5" font-family="Arial" font-size="10.00">&#45;</text>
<text text-anchor="start" x="14" y="-102.5" font-family="Arial" font-size="10.00">SpawnPickupTimeMax</text>
<text text-anchor="start" x="4" y="-86.5" font-family="Arial" font-size="10.00">+</text>
<text text-anchor="start" x="14" y="-86.5" font-family="Arial" font-size="10.00">APickupSpawnPoint()</text>
<text text-anchor="start" x="4" y="-70.5" font-family="Arial" font-size="10.00">+</text>
<text text-anchor="start" x="14" y="-70.5" font-family="Arial" font-size="10.00">Tick()</text>
<text text-anchor="start" x="4.38" y="-54.5" font-family="Arial" font-size="10.00">#</text>
<text text-anchor="start" x="14" y="-54.5" font-family="Arial" font-size="10.00">BeginPlay()</text>
<text text-anchor="start" x="4.38" y="-38.5" font-family="Arial" font-size="10.00">#</text>
<text text-anchor="start" x="14" y="-38.5" font-family="Arial" font-size="10.00">SpawnPickup()</text>
<text text-anchor="start" x="4.38" y="-22.5" font-family="Arial" font-size="10.00">#</text>
<text text-anchor="start" x="14" y="-22.5" font-family="Arial" font-size="10.00">SpawnPickupTimerFinished()</text>
<text text-anchor="start" x="4.38" y="-6.5" font-family="Arial" font-size="10.00">#</text>
<text text-anchor="start" x="14" y="-6.5" font-family="Arial" font-size="10.00">StartSpawnPickupTimer()</text>
<polygon fill="#666666" stroke="#666666" points="0,-178 0,-178 145.5,-178 145.5,-178 0,-178"/>
<polygon fill="#666666" stroke="#666666" points="0,-98 0,-98 12,-98 12,-98 0,-98"/>
<polygon fill="#666666" stroke="#666666" points="12,-98 12,-98 145.5,-98 145.5,-98 12,-98"/>
<polygon fill="none" stroke="#666666" points="0,0 0,-196 145.5,-196 145.5,0 0,0"/>
</a>
</g>
</g>
<!-- Node2 -->
<g id="Node000002" class="node">
<title>Node2</title>
<g id="a_Node000002"><a xlink:title=" ">
<polygon fill="white" stroke="none" points="91.75,-284 53.75,-284 53.75,-232 91.75,-232 91.75,-284"/>
<text text-anchor="start" x="57.75" y="-270.5" font-family="Arial" font-size="10.00">AActor</text>
<text text-anchor="start" x="71.25" y="-254.5" font-family="Arial" font-size="10.00"> </text>
<text text-anchor="start" x="71.25" y="-238.5" font-family="Arial" font-size="10.00"> </text>
<polygon fill="#666666" stroke="#666666" points="53.75,-266 53.75,-266 91.75,-266 91.75,-266 53.75,-266"/>
<polygon fill="#666666" stroke="#666666" points="53.75,-250 53.75,-250 91.75,-250 91.75,-250 53.75,-250"/>
<polygon fill="none" stroke="#666666" points="53.75,-232 53.75,-284 91.75,-284 91.75,-232 53.75,-232"/>
</a>
</g>
</g>
<!-- Node2&#45;&gt;Node1 -->
<g id="edge1_Node000001_Node000002" class="edge">
<title>Node2&#45;&gt;Node1</title>
<g id="a_edge1_Node000001_Node000002"><a xlink:title=" ">
<path fill="none" stroke="#63b8ff" d="M72.75,-220.88C72.75,-213.15 72.75,-204.63 72.75,-195.8"/>
<polygon fill="none" stroke="#63b8ff" points="69.25,-220.8 72.75,-230.8 76.25,-220.8 69.25,-220.8"/>
</a>
</g>
</g>
</g>
</svg>
