<?xml version="1.0" encoding="UTF-8" standalone="no"?>
<!DOCTYPE svg PUBLIC "-//W3C//DTD SVG 1.1//EN"
 "http://www.w3.org/Graphics/SVG/1.1/DTD/svg11.dtd">
<!-- Generated by graphviz version 12.2.1 (20241206.2353)
 -->
<!-- Title: USettingsSaveGame Pages: 1 -->
<svg width="108pt" height="164pt"
 viewBox="0.00 0.00 108.25 164.00" xmlns="http://www.w3.org/2000/svg" xmlns:xlink="http://www.w3.org/1999/xlink">
<g id="graph0" class="graph" transform="scale(1 1) rotate(0) translate(4 160)">
<title>USettingsSaveGame</title>
<!-- Node1 -->
<g id="Node000001" class="node">
<title>Node1</title>
<g id="a_Node000001"><a xlink:title=" ">
<polygon fill="#999999" stroke="none" points="100.25,-68 0,-68 0,0 100.25,0 100.25,-68"/>
<text text-anchor="start" x="4" y="-54.5" font-family="Arial" font-size="10.00">USettingsSaveGame</text>
<text text-anchor="start" x="6.19" y="-38.5" font-family="Arial" font-size="10.00">+</text>
<text text-anchor="start" x="18.38" y="-38.5" font-family="Arial" font-size="10.00">SavedVolume</text>
<text text-anchor="start" x="6.19" y="-22.5" font-family="Arial" font-size="10.00">+</text>
<text text-anchor="start" x="18.38" y="-22.5" font-family="Arial" font-size="10.00">SavedSensitivity</text>
<text text-anchor="start" x="48.62" y="-6.5" font-family="Arial" font-size="10.00"> </text>
<polygon fill="#666666" stroke="#666666" points="0,-50 0,-50 100.25,-50 100.25,-50 0,-50"/>
<polygon fill="#666666" stroke="#666666" points="0,-18 0,-18 16.38,-18 16.38,-18 0,-18"/>
<polygon fill="#666666" stroke="#666666" points="16.38,-18 16.38,-18 100.25,-18 100.25,-18 16.38,-18"/>
<polygon fill="none" stroke="#666666" points="0,0 0,-68 100.25,-68 100.25,0 0,0"/>
</a>
</g>
</g>
<!-- Node2 -->
<g id="Node000002" class="node">
<title>Node2</title>
<g id="a_Node000002"><a xlink:title=" ">
<polygon fill="white" stroke="none" points="82.25,-156 18,-156 18,-104 82.25,-104 82.25,-156"/>
<text text-anchor="start" x="22" y="-142.5" font-family="Arial" font-size="10.00">USaveGame</text>
<text text-anchor="start" x="48.62" y="-126.5" font-family="Arial" font-size="10.00"> </text>
<text text-anchor="start" x="48.62" y="-110.5" font-family="Arial" font-size="10.00"> </text>
<polygon fill="#666666" stroke="#666666" points="18,-138 18,-138 82.25,-138 82.25,-138 18,-138"/>
<polygon fill="#666666" stroke="#666666" points="18,-122 18,-122 82.25,-122 82.25,-122 18,-122"/>
<polygon fill="none" stroke="#666666" points="18,-104 18,-156 82.25,-156 82.25,-104 18,-104"/>
</a>
</g>
</g>
<!-- Node2&#45;&gt;Node1 -->
<g id="edge1_Node000001_Node000002" class="edge">
<title>Node2&#45;&gt;Node1</title>
<g id="a_edge1_Node000001_Node000002"><a xlink:title=" ">
<path fill="none" stroke="#63b8ff" d="M50.12,-92.97C50.12,-84.65 50.12,-75.84 50.12,-67.67"/>
<polygon fill="none" stroke="#63b8ff" points="46.63,-92.79 50.13,-102.79 53.63,-92.79 46.63,-92.79"/>
</a>
</g>
</g>
</g>
</svg>
