<?xml version="1.0" encoding="UTF-8" standalone="no"?>
<!DOCTYPE svg PUBLIC "-//W3C//DTD SVG 1.1//EN"
 "http://www.w3.org/Graphics/SVG/1.1/DTD/svg11.dtd">
<!-- Generated by graphviz version 12.2.1 (20241206.2353)
 -->
<!-- Title: AMainCharacter::UpdateHUDHealth Pages: 1 -->
<svg width="557pt" height="93pt"
 viewBox="0.00 0.00 557.00 93.19" xmlns="http://www.w3.org/2000/svg" xmlns:xlink="http://www.w3.org/1999/xlink">
<g id="graph0" class="graph" transform="scale(1 1) rotate(0) translate(4 89.19)">
<title>AMainCharacter::UpdateHUDHealth</title>
<!-- Node1 -->
<g id="Node000001" class="node">
<title>Node1</title>
<g id="a_Node000001"><a xlink:title=" ">
<polygon fill="#999999" stroke="#666666" points="549,-64 374,-64 374,-44 549,-44 549,-64"/>
<text text-anchor="middle" x="461.5" y="-50.5" font-family="Arial" font-size="10.00">AMainCharacter::UpdateHUDHealth</text>
</a>
</g>
</g>
<!-- Node2 -->
<g id="Node000002" class="node">
<title>Node2</title>
<g id="a_Node000002"><a xlink:href="class_a_main_character.html#a096ef46022cd84777b571482729ed02f" target="_top" xlink:title=" ">
<polygon fill="white" stroke="#666666" points="136.75,-64 0,-64 0,-44 136.75,-44 136.75,-64"/>
<text text-anchor="middle" x="68.38" y="-50.5" font-family="Arial" font-size="10.00">AMainCharacter::BeginPlay</text>
</a>
</g>
</g>
<!-- Node1&#45;&gt;Node2 -->
<g id="edge1_Node000001_Node000002" class="edge">
<title>Node1&#45;&gt;Node2</title>
<g id="a_edge1_Node000001_Node000002"><a xlink:title=" ">
<path fill="none" stroke="#63b8ff" d="M408.74,-66.97C387.04,-71.78 361.45,-76.63 338,-79 264.93,-86.38 245.68,-87.69 172.75,-79 149.28,-76.2 123.44,-69.95 103.46,-64.4"/>
<polygon fill="#63b8ff" stroke="#63b8ff" points="409.25,-70.44 418.23,-64.81 407.7,-63.62 409.25,-70.44"/>
</a>
</g>
</g>
<!-- Node3 -->
<g id="Node000003" class="node">
<title>Node3</title>
<g id="a_Node000003"><a xlink:href="class_a_main_character.html#a81b04850e2ddb2d233bfb612fe0c809e" target="_top" xlink:title=" ">
<polygon fill="white" stroke="#666666" points="317,-70 193.75,-70 193.75,-38 317,-38 317,-70"/>
<text text-anchor="start" x="201.75" y="-56.5" font-family="Arial" font-size="10.00">AMainCharacter::OnRep</text>
<text text-anchor="middle" x="255.38" y="-44.5" font-family="Arial" font-size="10.00">_Health</text>
</a>
</g>
</g>
<!-- Node1&#45;&gt;Node3 -->
<g id="edge2_Node000001_Node000003" class="edge">
<title>Node1&#45;&gt;Node3</title>
<g id="a_edge2_Node000001_Node000003"><a xlink:title=" ">
<path fill="none" stroke="#63b8ff" d="M362.45,-54C347.02,-54 331.48,-54 317.22,-54"/>
<polygon fill="#63b8ff" stroke="#63b8ff" points="362.12,-57.5 372.12,-54 362.12,-50.5 362.12,-57.5"/>
</a>
</g>
</g>
<!-- Node4 -->
<g id="Node000004" class="node">
<title>Node4</title>
<g id="a_Node000004"><a xlink:href="class_a_main_character.html#a33d3267c0046be93c39178a2ed3944b3" target="_top" xlink:title=" ">
<polygon fill="white" stroke="#666666" points="338,-20 172.75,-20 172.75,0 338,0 338,-20"/>
<text text-anchor="middle" x="255.38" y="-6.5" font-family="Arial" font-size="10.00">AMainCharacter::ReceiveDamage</text>
</a>
</g>
</g>
<!-- Node1&#45;&gt;Node4 -->
<g id="edge3_Node000001_Node000004" class="edge">
<title>Node1&#45;&gt;Node4</title>
<g id="a_edge3_Node000001_Node000004"><a xlink:title=" ">
<path fill="none" stroke="#63b8ff" d="M400.93,-41.16C370.43,-34.59 333.76,-26.68 304.99,-20.48"/>
<polygon fill="#63b8ff" stroke="#63b8ff" points="399.87,-44.51 410.39,-43.2 401.35,-37.67 399.87,-44.51"/>
</a>
</g>
</g>
<!-- Node4&#45;&gt;Node2 -->
<g id="edge4_Node000004_Node000002" class="edge">
<title>Node4&#45;&gt;Node2</title>
<g id="a_edge4_Node000004_Node000002"><a xlink:title=" ">
<path fill="none" stroke="#63b8ff" d="M198.03,-23.05C189.55,-25.03 180.92,-27.06 172.75,-29 152.9,-33.71 130.92,-39.01 112.36,-43.52"/>
<polygon fill="#63b8ff" stroke="#63b8ff" points="198.61,-26.51 207.55,-20.83 197.02,-19.69 198.61,-26.51"/>
</a>
</g>
</g>
</g>
</svg>
