<?xml version="1.0" encoding="UTF-8" standalone="no"?>
<!DOCTYPE svg PUBLIC "-//W3C//DTD SVG 1.1//EN"
 "http://www.w3.org/Graphics/SVG/1.1/DTD/svg11.dtd">
<!-- Generated by graphviz version 12.2.1 (20241206.2353)
 -->
<!-- Title: UMyAnimInstance Pages: 1 -->
<svg width="152pt" height="324pt"
 viewBox="0.00 0.00 152.00 324.00" xmlns="http://www.w3.org/2000/svg" xmlns:xlink="http://www.w3.org/1999/xlink">

<svg id="main" version="1.1" xmlns="http://www.w3.org/2000/svg" xmlns:xlink="http://www.w3.org/1999/xlink" xml:space="preserve">

<style type="text/css"><![CDATA[
.node, .edge {opacity: 0.7;}
.node.selected, .edge.selected {opacity: 1;}
.edge:hover path { stroke: red; }
.edge:hover polygon { stroke: red; fill: red; }
]]></style>
<script type="application/ecmascript" xlink:href="svg.min.js"/>
<svg id="graph" class="graph">
<g id="graph0" class="graph" transform="scale(1 1) rotate(0) translate(4 320)">
<title>UMyAnimInstance</title>
<!-- Node1 -->
<g id="Node000001" class="node">
<title>Node1</title>
<g id="a_Node000001"><a xlink:title=" ">
<polygon fill="#999999" stroke="none" points="144,-228 0,-228 0,0 144,0 144,-228"/>
<text text-anchor="start" x="31.5" y="-214.5" font-family="Arial" font-size="10.00">UMyAnimInstance</text>
<text text-anchor="start" x="5.5" y="-198.5" font-family="Arial" font-size="10.00">&#45;</text>
<text text-anchor="start" x="14" y="-198.5" font-family="Arial" font-size="10.00">MainCharacter</text>
<text text-anchor="start" x="5.5" y="-182.5" font-family="Arial" font-size="10.00">&#45;</text>
<text text-anchor="start" x="14" y="-182.5" font-family="Arial" font-size="10.00">Speed</text>
<text text-anchor="start" x="5.5" y="-166.5" font-family="Arial" font-size="10.00">&#45;</text>
<text text-anchor="start" x="14" y="-166.5" font-family="Arial" font-size="10.00">bIsInAir</text>
<text text-anchor="start" x="5.5" y="-150.5" font-family="Arial" font-size="10.00">&#45;</text>
<text text-anchor="start" x="14" y="-150.5" font-family="Arial" font-size="10.00">bIsAccelerating</text>
<text text-anchor="start" x="5.5" y="-134.5" font-family="Arial" font-size="10.00">&#45;</text>
<text text-anchor="start" x="14" y="-134.5" font-family="Arial" font-size="10.00">bWeaponEquipped</text>
<text text-anchor="start" x="5.5" y="-118.5" font-family="Arial" font-size="10.00">&#45;</text>
<text text-anchor="start" x="14" y="-118.5" font-family="Arial" font-size="10.00">bIsCrouched</text>
<text text-anchor="start" x="5.5" y="-102.5" font-family="Arial" font-size="10.00">&#45;</text>
<text text-anchor="start" x="14" y="-102.5" font-family="Arial" font-size="10.00">bAiming</text>
<text text-anchor="start" x="5.5" y="-86.5" font-family="Arial" font-size="10.00">&#45;</text>
<text text-anchor="start" x="14" y="-86.5" font-family="Arial" font-size="10.00">YawOffset</text>
<text text-anchor="start" x="5.5" y="-70.5" font-family="Arial" font-size="10.00">&#45;</text>
<text text-anchor="start" x="14" y="-70.5" font-family="Arial" font-size="10.00">Lean</text>
<text text-anchor="start" x="5.5" y="-54.5" font-family="Arial" font-size="10.00">&#45;</text>
<text text-anchor="start" x="14" y="-54.5" font-family="Arial" font-size="10.00">CharacterRotationLastFrame</text>
<text text-anchor="start" x="14" y="-38.5" font-family="Arial" font-size="10.00">and 11 more...</text>
<text text-anchor="start" x="4" y="-22.5" font-family="Arial" font-size="10.00">+</text>
<text text-anchor="start" x="14" y="-22.5" font-family="Arial" font-size="10.00">NativeInitializeAnimation()</text>
<text text-anchor="start" x="4" y="-6.5" font-family="Arial" font-size="10.00">+</text>
<text text-anchor="start" x="14" y="-6.5" font-family="Arial" font-size="10.00">NativeUpdateAnimation()</text>
<polygon fill="#666666" stroke="#666666" points="0,-210 0,-210 144,-210 144,-210 0,-210"/>
<polygon fill="#666666" stroke="#666666" points="0,-34 0,-34 12,-34 12,-34 0,-34"/>
<polygon fill="#666666" stroke="#666666" points="12,-34 12,-34 144,-34 144,-34 12,-34"/>
<polygon fill="none" stroke="#666666" points="0,0 0,-228 144,-228 144,0 0,0"/>
</a>
</g>
</g>
<!-- Node2 -->
<g id="Node000002" class="node">
<title>Node2</title>
<g id="a_Node000002"><a xlink:title=" ">
<polygon fill="white" stroke="none" points="109.75,-316 34.25,-316 34.25,-264 109.75,-264 109.75,-316"/>
<text text-anchor="start" x="38.25" y="-302.5" font-family="Arial" font-size="10.00">UAnimInstance</text>
<text text-anchor="start" x="70.5" y="-286.5" font-family="Arial" font-size="10.00"> </text>
<text text-anchor="start" x="70.5" y="-270.5" font-family="Arial" font-size="10.00"> </text>
<polygon fill="#666666" stroke="#666666" points="34.25,-298 34.25,-298 109.75,-298 109.75,-298 34.25,-298"/>
<polygon fill="#666666" stroke="#666666" points="34.25,-282 34.25,-282 109.75,-282 109.75,-282 34.25,-282"/>
<polygon fill="none" stroke="#666666" points="34.25,-264 34.25,-316 109.75,-316 109.75,-264 34.25,-264"/>
</a>
</g>
</g>
<!-- Node2&#45;&gt;Node1 -->
<g id="edge1_Node000001_Node000002" class="edge">
<title>Node2&#45;&gt;Node1</title>
<g id="a_edge1_Node000001_Node000002"><a xlink:title=" ">
<path fill="none" stroke="#63b8ff" d="M72,-252.72C72,-245.03 72,-236.53 72,-227.64"/>
<polygon fill="none" stroke="#63b8ff" points="68.5,-252.56 72,-262.56 75.5,-252.56 68.5,-252.56"/>
</a>
</g>
</g>
</g>
</svg>
</svg>

<style type='text/css'>
<![CDATA[
[data-mouse-over-selected='false'] { opacity: 0.7; }
[data-mouse-over-selected='true']  { opacity: 1.0; }
]]>
</style>
<script type="application/ecmascript"><![CDATA[
document.addEventListener('DOMContentLoaded', (event) => {
  highlightEdges();
  highlightAdjacentNodes();
});
]]></script>
</svg>
