<?xml version="1.0" encoding="UTF-8" standalone="no"?>
<!DOCTYPE svg PUBLIC "-//W3C//DTD SVG 1.1//EN"
 "http://www.w3.org/Graphics/SVG/1.1/DTD/svg11.dtd">
<!-- Generated by graphviz version 12.2.1 (20241206.2353)
 -->
<!-- Title: AMainCharacter::ReceiveDamage Pages: 1 -->
<svg width="981pt" height="172pt"
 viewBox="0.00 0.00 981.25 172.00" xmlns="http://www.w3.org/2000/svg" xmlns:xlink="http://www.w3.org/1999/xlink">
<g id="graph0" class="graph" transform="scale(1 1) rotate(0) translate(4 168)">
<title>AMainCharacter::ReceiveDamage</title>
<!-- Node1 -->
<g id="Node000001" class="node">
<title>Node1</title>
<g id="a_Node000001"><a xlink:title=" ">
<polygon fill="#999999" stroke="#666666" points="165.25,-64 0,-64 0,-44 165.25,-44 165.25,-64"/>
<text text-anchor="middle" x="82.62" y="-50.5" font-family="Arial" font-size="10.00">AMainCharacter::ReceiveDamage</text>
</a>
</g>
</g>
<!-- Node2 -->
<g id="Node000002" class="node">
<title>Node2</title>
<g id="a_Node000002"><a xlink:href="class_a_main_game_mode.html#a67e1cb2f93133f0c044f3f0ed73c970c" target="_top" xlink:title=" ">
<polygon fill="white" stroke="#666666" points="375.5,-108 202,-108 202,-88 375.5,-88 375.5,-108"/>
<text text-anchor="middle" x="288.75" y="-94.5" font-family="Arial" font-size="10.00">AMainGameMode::PlayerEliminated</text>
</a>
</g>
</g>
<!-- Node1&#45;&gt;Node2 -->
<g id="edge1_Node000001_Node000002" class="edge">
<title>Node1&#45;&gt;Node2</title>
<g id="a_edge1_Node000001_Node000002"><a xlink:title=" ">
<path fill="none" stroke="#63b8ff" d="M132.26,-64.48C161.04,-70.69 197.7,-78.59 228.2,-85.16"/>
<polygon fill="#63b8ff" stroke="#63b8ff" points="227.14,-88.52 237.66,-87.2 228.62,-81.67 227.14,-88.52"/>
</a>
</g>
</g>
<!-- Node10 -->
<g id="Node000010" class="node">
<title>Node10</title>
<g id="a_Node000010"><a xlink:href="class_a_main_character.html#a1be3a32212f8b037dd4eeae9720e2348" target="_top" xlink:title=" ">
<polygon fill="white" stroke="#666666" points="364.25,-70 213.25,-70 213.25,-38 364.25,-38 364.25,-70"/>
<text text-anchor="start" x="221.25" y="-56.5" font-family="Arial" font-size="10.00">AMainCharacter::PlayHitReact</text>
<text text-anchor="middle" x="288.75" y="-44.5" font-family="Arial" font-size="10.00">Montage</text>
</a>
</g>
</g>
<!-- Node1&#45;&gt;Node10 -->
<g id="edge10_Node000001_Node000010" class="edge">
<title>Node1&#45;&gt;Node10</title>
<g id="a_edge10_Node000001_Node000010"><a xlink:title=" ">
<path fill="none" stroke="#63b8ff" d="M165.47,-54C177.33,-54 189.56,-54 201.49,-54"/>
<polygon fill="#63b8ff" stroke="#63b8ff" points="201.31,-57.5 211.31,-54 201.31,-50.5 201.31,-57.5"/>
</a>
</g>
</g>
<!-- Node11 -->
<g id="Node000011" class="node">
<title>Node11</title>
<g id="a_Node000011"><a xlink:href="class_a_main_character.html#a489b2bbf70c72576dba98e67627a5a2e" target="_top" xlink:title=" ">
<polygon fill="white" stroke="#666666" points="376.25,-20 201.25,-20 201.25,0 376.25,0 376.25,-20"/>
<text text-anchor="middle" x="288.75" y="-6.5" font-family="Arial" font-size="10.00">AMainCharacter::UpdateHUDHealth</text>
</a>
</g>
</g>
<!-- Node1&#45;&gt;Node11 -->
<g id="edge11_Node000001_Node000011" class="edge">
<title>Node1&#45;&gt;Node11</title>
<g id="a_edge11_Node000001_Node000011"><a xlink:title=" ">
<path fill="none" stroke="#63b8ff" d="M132.26,-43.52C161.04,-37.31 197.7,-29.41 228.2,-22.84"/>
<polygon fill="#63b8ff" stroke="#63b8ff" points="228.62,-26.33 237.66,-20.8 227.14,-19.48 228.62,-26.33"/>
</a>
</g>
</g>
<!-- Node3 -->
<g id="Node000003" class="node">
<title>Node3</title>
<g id="a_Node000003"><a xlink:href="class_a_main_player_state.html#abba13b280e637d9cc041999392596805" target="_top" xlink:title=" ">
<polygon fill="white" stroke="#666666" points="566.25,-152 412.25,-152 412.25,-132 566.25,-132 566.25,-152"/>
<text text-anchor="middle" x="489.25" y="-138.5" font-family="Arial" font-size="10.00">AMainPlayerState::AddToScore</text>
</a>
</g>
</g>
<!-- Node2&#45;&gt;Node3 -->
<g id="edge2_Node000002_Node000003" class="edge">
<title>Node2&#45;&gt;Node3</title>
<g id="a_edge2_Node000002_Node000003"><a xlink:title=" ">
<path fill="none" stroke="#63b8ff" d="M337.04,-108.48C364.9,-114.66 400.37,-122.52 429.95,-129.08"/>
<polygon fill="#63b8ff" stroke="#63b8ff" points="428.98,-132.45 439.5,-131.19 430.49,-125.61 428.98,-132.45"/>
</a>
</g>
</g>
<!-- Node5 -->
<g id="Node000005" class="node">
<title>Node5</title>
<g id="a_Node000005"><a xlink:href="class_a_main_character.html#a9d0b7a05e0580099815730100ad9bfb6" target="_top" xlink:title="Elimination.">
<polygon fill="white" stroke="#666666" points="545.25,-108 433.25,-108 433.25,-88 545.25,-88 545.25,-108"/>
<text text-anchor="middle" x="489.25" y="-94.5" font-family="Arial" font-size="10.00">AMainCharacter::Elim</text>
</a>
</g>
</g>
<!-- Node2&#45;&gt;Node5 -->
<g id="edge4_Node000002_Node000005" class="edge">
<title>Node2&#45;&gt;Node5</title>
<g id="a_edge4_Node000002_Node000005"><a xlink:title=" ">
<path fill="none" stroke="#63b8ff" d="M375.95,-98C391.22,-98 406.92,-98 421.55,-98"/>
<polygon fill="#63b8ff" stroke="#63b8ff" points="421.51,-101.5 431.51,-98 421.51,-94.5 421.51,-101.5"/>
</a>
</g>
</g>
<!-- Node9 -->
<g id="Node000009" class="node">
<title>Node9</title>
<g id="a_Node000009"><a xlink:href="class_a_main_game_state.html#a4e6bfb94716b9006ee0783d95b027732" target="_top" xlink:title=" ">
<polygon fill="white" stroke="#666666" points="562.5,-70 416,-70 416,-38 562.5,-38 562.5,-70"/>
<text text-anchor="start" x="424" y="-56.5" font-family="Arial" font-size="10.00">AMainGameState::UpdateTop</text>
<text text-anchor="middle" x="489.25" y="-44.5" font-family="Arial" font-size="10.00">Score</text>
</a>
</g>
</g>
<!-- Node2&#45;&gt;Node9 -->
<g id="edge9_Node000002_Node000009" class="edge">
<title>Node2&#45;&gt;Node9</title>
<g id="a_edge9_Node000002_Node000009"><a xlink:title=" ">
<path fill="none" stroke="#63b8ff" d="M337.35,-87.58C349.99,-84.8 363.64,-81.79 376.25,-79 385.41,-76.97 394.98,-74.84 404.52,-72.72"/>
<polygon fill="#63b8ff" stroke="#63b8ff" points="405.18,-76.16 414.18,-70.57 403.66,-69.33 405.18,-76.16"/>
</a>
</g>
</g>
<!-- Node4 -->
<g id="Node000004" class="node">
<title>Node4</title>
<g id="a_Node000004"><a xlink:href="class_a_main_player_state.html#ad9548a5e9fb8bea3102cc8fd8689bcfa" target="_top" xlink:title=" ">
<polygon fill="white" stroke="#666666" points="753.25,-164 608.25,-164 608.25,-132 753.25,-132 753.25,-164"/>
<text text-anchor="start" x="616.25" y="-150.5" font-family="Arial" font-size="10.00">AMainPlayerState::ResetCan</text>
<text text-anchor="middle" x="680.75" y="-138.5" font-family="Arial" font-size="10.00">GetPoints</text>
</a>
</g>
</g>
<!-- Node3&#45;&gt;Node4 -->
<g id="edge3_Node000003_Node000004" class="edge">
<title>Node3&#45;&gt;Node4</title>
<g id="a_edge3_Node000003_Node000004"><a xlink:title=" ">
<path fill="none" stroke="#63b8ff" d="M566.51,-144.41C576.45,-144.73 586.67,-145.05 596.71,-145.37"/>
<polygon fill="#63b8ff" stroke="#63b8ff" points="596.33,-148.86 606.43,-145.68 596.55,-141.86 596.33,-148.86"/>
</a>
</g>
</g>
<!-- Node6 -->
<g id="Node000006" class="node">
<title>Node6</title>
<g id="a_Node000006"><a xlink:href="class_a_main_character.html#aea17dde5a15443622f0bf918c57cce6f" target="_top" xlink:title=" ">
<polygon fill="white" stroke="#666666" points="749.12,-114 612.38,-114 612.38,-82 749.12,-82 749.12,-114"/>
<text text-anchor="start" x="620.38" y="-100.5" font-family="Arial" font-size="10.00">AMainCharacter::ElimTimer</text>
<text text-anchor="middle" x="680.75" y="-88.5" font-family="Arial" font-size="10.00">Finished</text>
</a>
</g>
</g>
<!-- Node5&#45;&gt;Node6 -->
<g id="edge5_Node000005_Node000006" class="edge">
<title>Node5&#45;&gt;Node6</title>
<g id="a_edge5_Node000005_Node000006"><a xlink:title=" ">
<path fill="none" stroke="#63b8ff" d="M545.57,-98C562.76,-98 582.06,-98 600.54,-98"/>
<polygon fill="#63b8ff" stroke="#63b8ff" points="600.41,-101.5 610.41,-98 600.41,-94.5 600.41,-101.5"/>
</a>
</g>
</g>
<!-- Node8 -->
<g id="Node000008" class="node">
<title>Node8</title>
<g id="a_Node000008"><a xlink:href="class_a_main_character.html#a5691a3d428c1f9d6f6ed3d28cb29df10" target="_top" xlink:title=" ">
<polygon fill="white" stroke="#666666" points="759.25,-46 602.25,-46 602.25,-26 759.25,-26 759.25,-46"/>
<text text-anchor="middle" x="680.75" y="-32.5" font-family="Arial" font-size="10.00">AMainCharacter::Multicast_Elim</text>
</a>
</g>
</g>
<!-- Node5&#45;&gt;Node8 -->
<g id="edge7_Node000005_Node000008" class="edge">
<title>Node5&#45;&gt;Node8</title>
<g id="a_edge7_Node000005_Node000008"><a xlink:title=" ">
<path fill="none" stroke="#63b8ff" d="M535.9,-87.51C545.96,-84.94 556.52,-82.05 566.25,-79 592.74,-70.7 622.02,-59.56 644.21,-50.69"/>
<polygon fill="#63b8ff" stroke="#63b8ff" points="645.43,-53.97 653.4,-46.99 642.81,-47.48 645.43,-53.97"/>
</a>
</g>
</g>
<!-- Node7 -->
<g id="Node000007" class="node">
<title>Node7</title>
<g id="a_Node000007"><a xlink:href="class_a_main_game_mode.html#a3713d86d5420f9c8fc8c0e5b055955a2" target="_top" xlink:title=" ">
<polygon fill="white" stroke="#666666" points="973.25,-108 795.25,-108 795.25,-88 973.25,-88 973.25,-108"/>
<text text-anchor="middle" x="884.25" y="-94.5" font-family="Arial" font-size="10.00">AMainGameMode::RequestRespawn</text>
</a>
</g>
</g>
<!-- Node6&#45;&gt;Node7 -->
<g id="edge6_Node000006_Node000007" class="edge">
<title>Node6&#45;&gt;Node7</title>
<g id="a_edge6_Node000006_Node000007"><a xlink:title=" ">
<path fill="none" stroke="#63b8ff" d="M749.41,-98C760.5,-98 772.19,-98 783.86,-98"/>
<polygon fill="#63b8ff" stroke="#63b8ff" points="783.5,-101.5 793.5,-98 783.5,-94.5 783.5,-101.5"/>
</a>
</g>
</g>
<!-- Node8&#45;&gt;Node8 -->
<g id="edge8_Node000008_Node000008" class="edge">
<title>Node8&#45;&gt;Node8</title>
<g id="a_edge8_Node000008_Node000008"><a xlink:title=" ">
<path fill="none" stroke="#63b8ff" d="M650.32,-46.34C637.32,-54.98 647.46,-64 680.75,-64 699.47,-64 710.88,-61.14 714.95,-57.11"/>
<polygon fill="#63b8ff" stroke="#63b8ff" points="718.29,-56.05 711.68,-47.77 711.68,-58.36 718.29,-56.05"/>
</a>
</g>
</g>
</g>
</svg>
