<?xml version="1.0" encoding="UTF-8" standalone="no"?>
<!DOCTYPE svg PUBLIC "-//W3C//DTD SVG 1.1//EN"
 "http://www.w3.org/Graphics/SVG/1.1/DTD/svg11.dtd">
<!-- Generated by graphviz version 12.2.1 (20241206.2353)
 -->
<!-- Title: UChatMessageWidget Pages: 1 -->
<svg width="115pt" height="164pt"
 viewBox="0.00 0.00 115.00 164.00" xmlns="http://www.w3.org/2000/svg" xmlns:xlink="http://www.w3.org/1999/xlink">
<g id="graph0" class="graph" transform="scale(1 1) rotate(0) translate(4 160)">
<title>UChatMessageWidget</title>
<!-- Node1 -->
<g id="Node000001" class="node">
<title>Node1</title>
<g id="a_Node000001"><a xlink:title=" ">
<polygon fill="#999999" stroke="none" points="107,-68 0,-68 0,0 107,0 107,-68"/>
<text text-anchor="start" x="4" y="-54.5" font-family="Arial" font-size="10.00">UChatMessageWidget</text>
<text text-anchor="start" x="11.06" y="-38.5" font-family="Arial" font-size="10.00">+</text>
<text text-anchor="start" x="28.12" y="-38.5" font-family="Arial" font-size="10.00">SenderText</text>
<text text-anchor="start" x="11.06" y="-22.5" font-family="Arial" font-size="10.00">+</text>
<text text-anchor="start" x="28.12" y="-22.5" font-family="Arial" font-size="10.00">MessageText</text>
<text text-anchor="start" x="11.06" y="-6.5" font-family="Arial" font-size="10.00">+</text>
<text text-anchor="start" x="28.12" y="-6.5" font-family="Arial" font-size="10.00">SetMessage()</text>
<polygon fill="#666666" stroke="#666666" points="0,-50 0,-50 107,-50 107,-50 0,-50"/>
<polygon fill="#666666" stroke="#666666" points="0,-18 0,-18 26.12,-18 26.12,-18 0,-18"/>
<polygon fill="#666666" stroke="#666666" points="26.12,-18 26.12,-18 107,-18 107,-18 26.12,-18"/>
<polygon fill="none" stroke="#666666" points="0,0 0,-68 107,-68 107,0 0,0"/>
</a>
</g>
</g>
<!-- Node2 -->
<g id="Node000002" class="node">
<title>Node2</title>
<g id="a_Node000002"><a xlink:title=" ">
<polygon fill="white" stroke="none" points="87.12,-156 19.88,-156 19.88,-104 87.12,-104 87.12,-156"/>
<text text-anchor="start" x="23.88" y="-142.5" font-family="Arial" font-size="10.00">UUserWidget</text>
<text text-anchor="start" x="52" y="-126.5" font-family="Arial" font-size="10.00"> </text>
<text text-anchor="start" x="52" y="-110.5" font-family="Arial" font-size="10.00"> </text>
<polygon fill="#666666" stroke="#666666" points="19.88,-138 19.88,-138 87.12,-138 87.12,-138 19.88,-138"/>
<polygon fill="#666666" stroke="#666666" points="19.88,-122 19.88,-122 87.12,-122 87.12,-122 19.88,-122"/>
<polygon fill="none" stroke="#666666" points="19.88,-104 19.88,-156 87.12,-156 87.12,-104 19.88,-104"/>
</a>
</g>
</g>
<!-- Node2&#45;&gt;Node1 -->
<g id="edge1_Node000001_Node000002" class="edge">
<title>Node2&#45;&gt;Node1</title>
<g id="a_edge1_Node000001_Node000002"><a xlink:title=" ">
<path fill="none" stroke="#63b8ff" d="M53.5,-92.97C53.5,-84.65 53.5,-75.84 53.5,-67.67"/>
<polygon fill="none" stroke="#63b8ff" points="50,-92.79 53.5,-102.79 57,-92.79 50,-92.79"/>
</a>
</g>
</g>
</g>
</svg>
