<?xml version="1.0" encoding="UTF-8" standalone="no"?>
<!DOCTYPE svg PUBLIC "-//W3C//DTD SVG 1.1//EN"
 "http://www.w3.org/Graphics/SVG/1.1/DTD/svg11.dtd">
<!-- Generated by graphviz version 12.2.1 (20241206.2353)
 -->
<!-- Title: AMainCharacter::AimOffset Pages: 1 -->
<svg width="325pt" height="128pt"
 viewBox="0.00 0.00 325.00 128.00" xmlns="http://www.w3.org/2000/svg" xmlns:xlink="http://www.w3.org/1999/xlink">
<g id="graph0" class="graph" transform="scale(1 1) rotate(0) translate(4 124)">
<title>AMainCharacter::AimOffset</title>
<!-- Node1 -->
<g id="Node000001" class="node">
<title>Node1</title>
<g id="a_Node000001"><a xlink:title=" ">
<polygon fill="#999999" stroke="#666666" points="136,-64 0,-64 0,-44 136,-44 136,-64"/>
<text text-anchor="middle" x="68" y="-50.5" font-family="Arial" font-size="10.00">AMainCharacter::AimOffset</text>
</a>
</g>
</g>
<!-- Node2 -->
<g id="Node000002" class="node">
<title>Node2</title>
<g id="a_Node000002"><a xlink:href="class_a_main_character.html#a9294b45704fcfc1746e5f4c1433fcf0b" target="_top" xlink:title=" ">
<polygon fill="white" stroke="#666666" points="311.38,-120 177.62,-120 177.62,-88 311.38,-88 311.38,-120"/>
<text text-anchor="start" x="185.62" y="-106.5" font-family="Arial" font-size="10.00">AMainCharacter::Calculate</text>
<text text-anchor="middle" x="244.5" y="-94.5" font-family="Arial" font-size="10.00">AO_Pitch</text>
</a>
</g>
</g>
<!-- Node1&#45;&gt;Node2 -->
<g id="edge1_Node000001_Node000002" class="edge">
<title>Node1&#45;&gt;Node2</title>
<g id="a_edge1_Node000001_Node000002"><a xlink:title=" ">
<path fill="none" stroke="#63b8ff" d="M105.58,-64.48C125.77,-70.27 151.51,-77.64 175.27,-84.45"/>
<polygon fill="#63b8ff" stroke="#63b8ff" points="173.98,-87.72 184.56,-87.11 175.91,-80.99 173.98,-87.72"/>
</a>
</g>
</g>
<!-- Node3 -->
<g id="Node000003" class="node">
<title>Node3</title>
<g id="a_Node000003"><a xlink:href="class_a_main_character.html#a9596fe587a29a2671db7db619b16b46d" target="_top" xlink:title=" ">
<polygon fill="white" stroke="#666666" points="311.38,-70 177.62,-70 177.62,-38 311.38,-38 311.38,-70"/>
<text text-anchor="start" x="185.62" y="-56.5" font-family="Arial" font-size="10.00">AMainCharacter::Calculate</text>
<text text-anchor="middle" x="244.5" y="-44.5" font-family="Arial" font-size="10.00">Speed</text>
</a>
</g>
</g>
<!-- Node1&#45;&gt;Node3 -->
<g id="edge2_Node000001_Node000003" class="edge">
<title>Node1&#45;&gt;Node3</title>
<g id="a_edge2_Node000001_Node000003"><a xlink:title=" ">
<path fill="none" stroke="#63b8ff" d="M136.47,-54C146.12,-54 156.11,-54 165.93,-54"/>
<polygon fill="#63b8ff" stroke="#63b8ff" points="165.85,-57.5 175.85,-54 165.85,-50.5 165.85,-57.5"/>
</a>
</g>
</g>
<!-- Node4 -->
<g id="Node000004" class="node">
<title>Node4</title>
<g id="a_Node000004"><a xlink:href="class_a_main_character.html#a11a0d4e525d8b74552333de269a1e59d" target="_top" xlink:title=" ">
<polygon fill="white" stroke="#666666" points="317,-20 172,-20 172,0 317,0 317,-20"/>
<text text-anchor="middle" x="244.5" y="-6.5" font-family="Arial" font-size="10.00">AMainCharacter::TurnInPlace</text>
</a>
</g>
</g>
<!-- Node1&#45;&gt;Node4 -->
<g id="edge3_Node000001_Node000004" class="edge">
<title>Node1&#45;&gt;Node4</title>
<g id="a_edge3_Node000001_Node000004"><a xlink:title=" ">
<path fill="none" stroke="#63b8ff" d="M110.35,-43.57C134.5,-37.48 165.19,-29.74 191.03,-23.23"/>
<polygon fill="#63b8ff" stroke="#63b8ff" points="191.83,-26.64 200.67,-20.8 190.12,-19.85 191.83,-26.64"/>
</a>
</g>
</g>
</g>
</svg>
