<?xml version="1.0" encoding="UTF-8" standalone="no"?>
<!DOCTYPE svg PUBLIC "-//W3C//DTD SVG 1.1//EN"
 "http://www.w3.org/Graphics/SVG/1.1/DTD/svg11.dtd">
<!-- Generated by graphviz version 12.2.1 (20241206.2353)
 -->
<!-- Title: APickup Pages: 1 -->
<svg width="347pt" height="460pt"
 viewBox="0.00 0.00 347.25 460.00" xmlns="http://www.w3.org/2000/svg" xmlns:xlink="http://www.w3.org/1999/xlink">
<g id="graph0" class="graph" transform="scale(1 1) rotate(0) translate(4 456)">
<title>APickup</title>
<!-- Node1 -->
<g id="Node000001" class="node">
<title>Node1</title>
<g id="a_Node000001"><a xlink:title=" ">
<polygon fill="#999999" stroke="none" points="239,-364 100.25,-364 100.25,-136 239,-136 239,-364"/>
<text text-anchor="start" x="151.25" y="-350.5" font-family="Arial" font-size="10.00">APickup</text>
<text text-anchor="start" x="105.75" y="-334.5" font-family="Arial" font-size="10.00">&#45;</text>
<text text-anchor="start" x="114.25" y="-334.5" font-family="Arial" font-size="10.00">BindOverlapTimer</text>
<text text-anchor="start" x="105.75" y="-318.5" font-family="Arial" font-size="10.00">&#45;</text>
<text text-anchor="start" x="114.25" y="-318.5" font-family="Arial" font-size="10.00">BindOverlapTime</text>
<text text-anchor="start" x="105.75" y="-302.5" font-family="Arial" font-size="10.00">&#45;</text>
<text text-anchor="start" x="114.25" y="-302.5" font-family="Arial" font-size="10.00">OverlapSphere</text>
<text text-anchor="start" x="105.75" y="-286.5" font-family="Arial" font-size="10.00">&#45;</text>
<text text-anchor="start" x="114.25" y="-286.5" font-family="Arial" font-size="10.00">PickupSound</text>
<text text-anchor="start" x="105.75" y="-270.5" font-family="Arial" font-size="10.00">&#45;</text>
<text text-anchor="start" x="114.25" y="-270.5" font-family="Arial" font-size="10.00">PickupMesh</text>
<text text-anchor="start" x="105.75" y="-254.5" font-family="Arial" font-size="10.00">&#45;</text>
<text text-anchor="start" x="114.25" y="-254.5" font-family="Arial" font-size="10.00">PickupEffectComponent</text>
<text text-anchor="start" x="105.75" y="-238.5" font-family="Arial" font-size="10.00">&#45;</text>
<text text-anchor="start" x="114.25" y="-238.5" font-family="Arial" font-size="10.00">PickupEffect</text>
<text text-anchor="start" x="104.25" y="-222.5" font-family="Arial" font-size="10.00">+</text>
<text text-anchor="start" x="114.25" y="-222.5" font-family="Arial" font-size="10.00">APickup()</text>
<text text-anchor="start" x="104.25" y="-206.5" font-family="Arial" font-size="10.00">+</text>
<text text-anchor="start" x="114.25" y="-206.5" font-family="Arial" font-size="10.00">Tick()</text>
<text text-anchor="start" x="104.25" y="-190.5" font-family="Arial" font-size="10.00">+</text>
<text text-anchor="start" x="114.25" y="-190.5" font-family="Arial" font-size="10.00">Destroyed()</text>
<text text-anchor="start" x="104.62" y="-174.5" font-family="Arial" font-size="10.00">#</text>
<text text-anchor="start" x="114.25" y="-174.5" font-family="Arial" font-size="10.00">BeginPlay()</text>
<text text-anchor="start" x="104.62" y="-158.5" font-family="Arial" font-size="10.00">#</text>
<text text-anchor="start" x="114.25" y="-158.5" font-family="Arial" font-size="10.00">OnSphereOverlap()</text>
<text text-anchor="start" x="105.75" y="-142.5" font-family="Arial" font-size="10.00">&#45;</text>
<text text-anchor="start" x="114.25" y="-142.5" font-family="Arial" font-size="10.00">BindOverlapTimerFinished()</text>
<polygon fill="#666666" stroke="#666666" points="100.25,-346 100.25,-346 239,-346 239,-346 100.25,-346"/>
<polygon fill="#666666" stroke="#666666" points="100.25,-234 100.25,-234 112.25,-234 112.25,-234 100.25,-234"/>
<polygon fill="#666666" stroke="#666666" points="112.25,-234 112.25,-234 239,-234 239,-234 112.25,-234"/>
<polygon fill="none" stroke="#666666" points="100.25,-136 100.25,-364 239,-364 239,-136 100.25,-136"/>
</a>
</g>
</g>
<!-- Node3 -->
<g id="Node000003" class="node">
<title>Node3</title>
<g id="a_Node000003"><a xlink:href="class_a_damage_pickup.html" target="_top" xlink:title=" ">
<polygon fill="white" stroke="none" points="101.25,-92 0,-92 0,-8 101.25,-8 101.25,-92"/>
<text text-anchor="start" x="13.88" y="-78.5" font-family="Arial" font-size="10.00">ADamagePickup</text>
<text text-anchor="start" x="4" y="-62.5" font-family="Arial" font-size="10.00">+</text>
<text text-anchor="start" x="14" y="-62.5" font-family="Arial" font-size="10.00">Name</text>
<text text-anchor="start" x="4" y="-46.5" font-family="Arial" font-size="10.00">+</text>
<text text-anchor="start" x="14" y="-46.5" font-family="Arial" font-size="10.00">BaseDamageBuff</text>
<text text-anchor="start" x="4" y="-30.5" font-family="Arial" font-size="10.00">+</text>
<text text-anchor="start" x="14" y="-30.5" font-family="Arial" font-size="10.00">DamageBuffTime</text>
<text text-anchor="start" x="4.38" y="-14.5" font-family="Arial" font-size="10.00">#</text>
<text text-anchor="start" x="14" y="-14.5" font-family="Arial" font-size="10.00">OnSphereOverlap()</text>
<polygon fill="#666666" stroke="#666666" points="0,-74 0,-74 101.25,-74 101.25,-74 0,-74"/>
<polygon fill="#666666" stroke="#666666" points="0,-26 0,-26 12,-26 12,-26 0,-26"/>
<polygon fill="#666666" stroke="#666666" points="12,-26 12,-26 101.25,-26 101.25,-26 12,-26"/>
<polygon fill="none" stroke="#666666" points="0,-8 0,-92 101.25,-92 101.25,-8 0,-8"/>
</a>
</g>
</g>
<!-- Node1&#45;&gt;Node3 -->
<g id="edge2_Node000001_Node000003" class="edge">
<title>Node1&#45;&gt;Node3</title>
<g id="a_edge2_Node000001_Node000003"><a xlink:title=" ">
<path fill="none" stroke="#63b8ff" d="M96.04,-126.56C88.59,-114.18 81.46,-102.31 75.15,-91.8"/>
<polygon fill="none" stroke="#63b8ff" points="92.85,-128.05 101,-134.82 98.85,-124.45 92.85,-128.05"/>
</a>
</g>
</g>
<!-- Node4 -->
<g id="Node000004" class="node">
<title>Node4</title>
<g id="a_Node000004"><a xlink:href="class_a_health_pickup.html" target="_top" xlink:title=" ">
<polygon fill="white" stroke="none" points="220.25,-100 119,-100 119,0 220.25,0 220.25,-100"/>
<text text-anchor="start" x="137" y="-86.5" font-family="Arial" font-size="10.00">AHealthPickup</text>
<text text-anchor="start" x="123" y="-70.5" font-family="Arial" font-size="10.00">+</text>
<text text-anchor="start" x="133" y="-70.5" font-family="Arial" font-size="10.00">Name</text>
<text text-anchor="start" x="123" y="-54.5" font-family="Arial" font-size="10.00">+</text>
<text text-anchor="start" x="133" y="-54.5" font-family="Arial" font-size="10.00">HealAmount</text>
<text text-anchor="start" x="123" y="-38.5" font-family="Arial" font-size="10.00">+</text>
<text text-anchor="start" x="133" y="-38.5" font-family="Arial" font-size="10.00">HealingTime</text>
<text text-anchor="start" x="123" y="-22.5" font-family="Arial" font-size="10.00">+</text>
<text text-anchor="start" x="133" y="-22.5" font-family="Arial" font-size="10.00">AHealthPickup()</text>
<text text-anchor="start" x="123.38" y="-6.5" font-family="Arial" font-size="10.00">#</text>
<text text-anchor="start" x="133" y="-6.5" font-family="Arial" font-size="10.00">OnSphereOverlap()</text>
<polygon fill="#666666" stroke="#666666" points="119,-82 119,-82 220.25,-82 220.25,-82 119,-82"/>
<polygon fill="#666666" stroke="#666666" points="119,-34 119,-34 131,-34 131,-34 119,-34"/>
<polygon fill="#666666" stroke="#666666" points="131,-34 131,-34 220.25,-34 220.25,-34 131,-34"/>
<polygon fill="none" stroke="#666666" points="119,0 119,-100 220.25,-100 220.25,0 119,0"/>
</a>
</g>
</g>
<!-- Node1&#45;&gt;Node4 -->
<g id="edge3_Node000001_Node000004" class="edge">
<title>Node1&#45;&gt;Node4</title>
<g id="a_edge3_Node000001_Node000004"><a xlink:title=" ">
<path fill="none" stroke="#63b8ff" d="M169.62,-124.64C169.62,-116.01 169.62,-107.66 169.62,-99.86"/>
<polygon fill="none" stroke="#63b8ff" points="166.13,-124.61 169.63,-134.61 173.13,-124.61 166.13,-124.61"/>
</a>
</g>
</g>
<!-- Node5 -->
<g id="Node000005" class="node">
<title>Node5</title>
<g id="a_Node000005"><a xlink:href="class_a_speed_pickup.html" target="_top" xlink:title=" ">
<polygon fill="white" stroke="none" points="339.25,-100 238,-100 238,0 339.25,0 339.25,-100"/>
<text text-anchor="start" x="256.38" y="-86.5" font-family="Arial" font-size="10.00">ASpeedPickup</text>
<text text-anchor="start" x="242" y="-70.5" font-family="Arial" font-size="10.00">+</text>
<text text-anchor="start" x="252" y="-70.5" font-family="Arial" font-size="10.00">Name</text>
<text text-anchor="start" x="242" y="-54.5" font-family="Arial" font-size="10.00">+</text>
<text text-anchor="start" x="252" y="-54.5" font-family="Arial" font-size="10.00">BaseSpeedBuff</text>
<text text-anchor="start" x="242" y="-38.5" font-family="Arial" font-size="10.00">+</text>
<text text-anchor="start" x="252" y="-38.5" font-family="Arial" font-size="10.00">CrouchSpeedBuff</text>
<text text-anchor="start" x="242" y="-22.5" font-family="Arial" font-size="10.00">+</text>
<text text-anchor="start" x="252" y="-22.5" font-family="Arial" font-size="10.00">SpeedBuffTime</text>
<text text-anchor="start" x="242.38" y="-6.5" font-family="Arial" font-size="10.00">#</text>
<text text-anchor="start" x="252" y="-6.5" font-family="Arial" font-size="10.00">OnSphereOverlap()</text>
<polygon fill="#666666" stroke="#666666" points="238,-82 238,-82 339.25,-82 339.25,-82 238,-82"/>
<polygon fill="#666666" stroke="#666666" points="238,-18 238,-18 250,-18 250,-18 238,-18"/>
<polygon fill="#666666" stroke="#666666" points="250,-18 250,-18 339.25,-18 339.25,-18 250,-18"/>
<polygon fill="none" stroke="#666666" points="238,0 238,-100 339.25,-100 339.25,0 238,0"/>
</a>
</g>
</g>
<!-- Node1&#45;&gt;Node5 -->
<g id="edge4_Node000001_Node000005" class="edge">
<title>Node1&#45;&gt;Node5</title>
<g id="a_edge4_Node000001_Node000005"><a xlink:title=" ">
<path fill="none" stroke="#63b8ff" d="M243.32,-126.39C248.87,-117.14 254.26,-108.18 259.26,-99.86"/>
<polygon fill="none" stroke="#63b8ff" points="240.4,-124.45 238.25,-134.82 246.4,-128.05 240.4,-124.45"/>
</a>
</g>
</g>
<!-- Node2 -->
<g id="Node000002" class="node">
<title>Node2</title>
<g id="a_Node000002"><a xlink:title=" ">
<polygon fill="white" stroke="none" points="188.62,-452 150.62,-452 150.62,-400 188.62,-400 188.62,-452"/>
<text text-anchor="start" x="154.62" y="-438.5" font-family="Arial" font-size="10.00">AActor</text>
<text text-anchor="start" x="168.12" y="-422.5" font-family="Arial" font-size="10.00"> </text>
<text text-anchor="start" x="168.12" y="-406.5" font-family="Arial" font-size="10.00"> </text>
<polygon fill="#666666" stroke="#666666" points="150.62,-434 150.62,-434 188.62,-434 188.62,-434 150.62,-434"/>
<polygon fill="#666666" stroke="#666666" points="150.62,-418 150.62,-418 188.62,-418 188.62,-418 150.62,-418"/>
<polygon fill="none" stroke="#666666" points="150.62,-400 150.62,-452 188.62,-452 188.62,-400 150.62,-400"/>
</a>
</g>
</g>
<!-- Node2&#45;&gt;Node1 -->
<g id="edge1_Node000001_Node000002" class="edge">
<title>Node2&#45;&gt;Node1</title>
<g id="a_edge1_Node000001_Node000002"><a xlink:title=" ">
<path fill="none" stroke="#63b8ff" d="M169.62,-388.72C169.62,-381.03 169.62,-372.53 169.62,-363.64"/>
<polygon fill="none" stroke="#63b8ff" points="166.13,-388.56 169.63,-398.56 173.13,-388.56 166.13,-388.56"/>
</a>
</g>
</g>
</g>
</svg>
