<?xml version="1.0" encoding="UTF-8" standalone="no"?>
<!DOCTYPE svg PUBLIC "-//W3C//DTD SVG 1.1//EN"
 "http://www.w3.org/Graphics/SVG/1.1/DTD/svg11.dtd">
<!-- Generated by graphviz version 12.2.1 (20241206.2353)
 -->
<!-- Title: AMainGameMode::OnMatchStateSet Pages: 1 -->
<svg width="704pt" height="106pt"
 viewBox="0.00 0.00 703.50 106.00" xmlns="http://www.w3.org/2000/svg" xmlns:xlink="http://www.w3.org/1999/xlink">
<g id="graph0" class="graph" transform="scale(1 1) rotate(0) translate(4 102)">
<title>AMainGameMode::OnMatchStateSet</title>
<!-- Node1 -->
<g id="Node000001" class="node">
<title>Node1</title>
<g id="a_Node000001"><a xlink:title=" ">
<polygon fill="#999999" stroke="#666666" points="178,-51 0,-51 0,-31 178,-31 178,-51"/>
<text text-anchor="middle" x="89" y="-37.5" font-family="Arial" font-size="10.00">AMainGameMode::OnMatchStateSet</text>
</a>
</g>
</g>
<!-- Node2 -->
<g id="Node000002" class="node">
<title>Node2</title>
<g id="a_Node000002"><a xlink:href="class_a_my_player_controller.html#a58bb90e2c607ae458ec045dbf2822b39" target="_top" xlink:title=" ">
<polygon fill="white" stroke="#666666" points="320,-57 214,-57 214,-25 320,-25 320,-57"/>
<text text-anchor="start" x="222" y="-43.5" font-family="Arial" font-size="10.00">AMyPlayerController</text>
<text text-anchor="middle" x="267" y="-31.5" font-family="Arial" font-size="10.00">::OnMatchStateSet</text>
</a>
</g>
</g>
<!-- Node1&#45;&gt;Node2 -->
<g id="edge1_Node000001_Node000002" class="edge">
<title>Node1&#45;&gt;Node2</title>
<g id="a_edge1_Node000001_Node000002"><a xlink:title=" ">
<path fill="none" stroke="#63b8ff" d="M178.26,-41C186.44,-41 194.62,-41 202.51,-41"/>
<polygon fill="#63b8ff" stroke="#63b8ff" points="202.33,-44.5 212.33,-41 202.33,-37.5 202.33,-44.5"/>
</a>
</g>
</g>
<!-- Node3 -->
<g id="Node000003" class="node">
<title>Node3</title>
<g id="a_Node000003"><a xlink:href="class_a_my_player_controller.html#a572fee9304cdf938bb02635e9eb91f66" target="_top" xlink:title=" ">
<polygon fill="white" stroke="#666666" points="473.62,-82 367.62,-82 367.62,-50 473.62,-50 473.62,-82"/>
<text text-anchor="start" x="375.62" y="-68.5" font-family="Arial" font-size="10.00">AMyPlayerController</text>
<text text-anchor="middle" x="420.62" y="-56.5" font-family="Arial" font-size="10.00">::HandleCooldown</text>
</a>
</g>
</g>
<!-- Node2&#45;&gt;Node3 -->
<g id="edge2_Node000002_Node000003" class="edge">
<title>Node2&#45;&gt;Node3</title>
<g id="a_edge2_Node000002_Node000003"><a xlink:title=" ">
<path fill="none" stroke="#63b8ff" d="M320.18,-49.6C331.74,-51.51 344.1,-53.55 356.06,-55.52"/>
<polygon fill="#63b8ff" stroke="#63b8ff" points="355.42,-58.96 365.85,-57.13 356.56,-52.05 355.42,-58.96"/>
</a>
</g>
</g>
<!-- Node6 -->
<g id="Node000006" class="node">
<title>Node6</title>
<g id="a_Node000006"><a xlink:href="class_a_my_player_controller.html#a60eda2b87c5436856db0f5b2167af8a6" target="_top" xlink:title=" ">
<polygon fill="white" stroke="#666666" points="485.25,-32 356,-32 356,0 485.25,0 485.25,-32"/>
<text text-anchor="start" x="364" y="-18.5" font-family="Arial" font-size="10.00">AMyPlayerController</text>
<text text-anchor="middle" x="420.62" y="-6.5" font-family="Arial" font-size="10.00">::HandleMatchHasStarted</text>
</a>
</g>
</g>
<!-- Node2&#45;&gt;Node6 -->
<g id="edge5_Node000002_Node000006" class="edge">
<title>Node2&#45;&gt;Node6</title>
<g id="a_edge5_Node000002_Node000006"><a xlink:title=" ">
<path fill="none" stroke="#63b8ff" d="M320.18,-32.4C328.01,-31.1 336.22,-29.75 344.42,-28.4"/>
<polygon fill="#63b8ff" stroke="#63b8ff" points="344.76,-31.89 354.06,-26.81 343.62,-24.98 344.76,-31.89"/>
</a>
</g>
</g>
<!-- Node4 -->
<g id="Node000004" class="node">
<title>Node4</title>
<g id="a_Node000004"><a xlink:href="class_a_main_character.html#afd1dc526cd36c5de139a7e5ff2b48432" target="_top" xlink:title=" ">
<polygon fill="white" stroke="#666666" points="679.75,-98 537,-98 537,-78 679.75,-78 679.75,-98"/>
<text text-anchor="middle" x="608.38" y="-84.5" font-family="Arial" font-size="10.00">AMainCharacter::GetCombat</text>
</a>
</g>
</g>
<!-- Node3&#45;&gt;Node4 -->
<g id="edge3_Node000003_Node000004" class="edge">
<title>Node3&#45;&gt;Node4</title>
<g id="a_edge3_Node000003_Node000004"><a xlink:title=" ">
<path fill="none" stroke="#63b8ff" d="M473.86,-72.19C489.88,-74.08 507.91,-76.22 525.42,-78.29"/>
<polygon fill="#63b8ff" stroke="#63b8ff" points="524.97,-81.76 535.31,-79.47 525.8,-74.81 524.97,-81.76"/>
</a>
</g>
</g>
<!-- Node5 -->
<g id="Node000005" class="node">
<title>Node5</title>
<g id="a_Node000005"><a xlink:href="class_a_my_player_controller.html#a23312ab13b910b000bc7bfaf675a2899" target="_top" xlink:title=" ">
<polygon fill="white" stroke="#666666" points="695.5,-60 521.25,-60 521.25,-28 695.5,-28 695.5,-60"/>
<text text-anchor="start" x="529.25" y="-46.5" font-family="Arial" font-size="10.00">AMyPlayerController</text>
<text text-anchor="middle" x="608.38" y="-34.5" font-family="Arial" font-size="10.00">::SetHUDAnnouncementCountdown</text>
</a>
</g>
</g>
<!-- Node3&#45;&gt;Node5 -->
<g id="edge4_Node000003_Node000005" class="edge">
<title>Node3&#45;&gt;Node5</title>
<g id="a_edge4_Node000003_Node000005"><a xlink:title=" ">
<path fill="none" stroke="#63b8ff" d="M473.86,-59.81C485.12,-58.48 497.36,-57.03 509.72,-55.57"/>
<polygon fill="#63b8ff" stroke="#63b8ff" points="510.06,-59.05 519.58,-54.4 509.24,-52.1 510.06,-59.05"/>
</a>
</g>
</g>
</g>
</svg>
