<?xml version="1.0" encoding="UTF-8" standalone="no"?>
<!DOCTYPE svg PUBLIC "-//W3C//DTD SVG 1.1//EN"
 "http://www.w3.org/Graphics/SVG/1.1/DTD/svg11.dtd">
<!-- Generated by graphviz version 12.2.1 (20241206.2353)
 -->
<!-- Title: UOverheadWidget Pages: 1 -->
<svg width="121pt" height="180pt"
 viewBox="0.00 0.00 120.50 180.00" xmlns="http://www.w3.org/2000/svg" xmlns:xlink="http://www.w3.org/1999/xlink">
<g id="graph0" class="graph" transform="scale(1 1) rotate(0) translate(4 176)">
<title>UOverheadWidget</title>
<!-- Node1 -->
<g id="Node000001" class="node">
<title>Node1</title>
<g id="a_Node000001"><a xlink:title=" ">
<polygon fill="#999999" stroke="none" points="112.5,-84 0,-84 0,0 112.5,0 112.5,-84"/>
<text text-anchor="start" x="16.12" y="-70.5" font-family="Arial" font-size="10.00">UOverheadWidget</text>
<text text-anchor="start" x="54.75" y="-54.5" font-family="Arial" font-size="10.00"> </text>
<text text-anchor="start" x="4" y="-38.5" font-family="Arial" font-size="10.00">+</text>
<text text-anchor="start" x="14" y="-38.5" font-family="Arial" font-size="10.00">SetDisplayText()</text>
<text text-anchor="start" x="4" y="-22.5" font-family="Arial" font-size="10.00">+</text>
<text text-anchor="start" x="14" y="-22.5" font-family="Arial" font-size="10.00">ShowPlayerNetRole()</text>
<text text-anchor="start" x="4.38" y="-6.5" font-family="Arial" font-size="10.00">#</text>
<text text-anchor="start" x="14" y="-6.5" font-family="Arial" font-size="10.00">NativeDestruct()</text>
<polygon fill="#666666" stroke="#666666" points="0,-66 0,-66 112.5,-66 112.5,-66 0,-66"/>
<polygon fill="#666666" stroke="#666666" points="0,-50 0,-50 112.5,-50 112.5,-50 0,-50"/>
<polygon fill="none" stroke="#666666" points="0,0 0,-84 112.5,-84 112.5,0 0,0"/>
</a>
</g>
</g>
<!-- Node2 -->
<g id="Node000002" class="node">
<title>Node2</title>
<g id="a_Node000002"><a xlink:title=" ">
<polygon fill="white" stroke="none" points="89.88,-172 22.62,-172 22.62,-120 89.88,-120 89.88,-172"/>
<text text-anchor="start" x="26.62" y="-158.5" font-family="Arial" font-size="10.00">UUserWidget</text>
<text text-anchor="start" x="54.75" y="-142.5" font-family="Arial" font-size="10.00"> </text>
<text text-anchor="start" x="54.75" y="-126.5" font-family="Arial" font-size="10.00"> </text>
<polygon fill="#666666" stroke="#666666" points="22.62,-154 22.62,-154 89.88,-154 89.88,-154 22.62,-154"/>
<polygon fill="#666666" stroke="#666666" points="22.62,-138 22.62,-138 89.88,-138 89.88,-138 22.62,-138"/>
<polygon fill="none" stroke="#666666" points="22.62,-120 22.62,-172 89.88,-172 89.88,-120 22.62,-120"/>
</a>
</g>
</g>
<!-- Node2&#45;&gt;Node1 -->
<g id="edge1_Node000001_Node000002" class="edge">
<title>Node2&#45;&gt;Node1</title>
<g id="a_edge1_Node000001_Node000002"><a xlink:title=" ">
<path fill="none" stroke="#63b8ff" d="M56.25,-108.77C56.25,-100.75 56.25,-92.19 56.25,-83.99"/>
<polygon fill="none" stroke="#63b8ff" points="52.75,-108.53 56.25,-118.53 59.75,-108.53 52.75,-108.53"/>
</a>
</g>
</g>
</g>
</svg>
