<?xml version="1.0" encoding="UTF-8" standalone="no"?>
<!DOCTYPE svg PUBLIC "-//W3C//DTD SVG 1.1//EN"
 "http://www.w3.org/Graphics/SVG/1.1/DTD/svg11.dtd">
<!-- Generated by graphviz version 12.2.1 (20241206.2353)
 -->
<!-- Title: AMyPlayerController::ReceivedPlayer Pages: 1 -->
<svg width="288pt" height="58pt"
 viewBox="0.00 0.00 287.50 58.00" xmlns="http://www.w3.org/2000/svg" xmlns:xlink="http://www.w3.org/1999/xlink">
<g id="graph0" class="graph" transform="scale(1 1) rotate(0) translate(4 54)">
<title>AMyPlayerController::ReceivedPlayer</title>
<!-- Node1 -->
<g id="Node000001" class="node">
<title>Node1</title>
<g id="a_Node000001"><a xlink:title=" ">
<polygon fill="#999999" stroke="#666666" points="106,-32 0,-32 0,0 106,0 106,-32"/>
<text text-anchor="start" x="8" y="-18.5" font-family="Arial" font-size="10.00">AMyPlayerController</text>
<text text-anchor="middle" x="53" y="-6.5" font-family="Arial" font-size="10.00">::ReceivedPlayer</text>
</a>
</g>
</g>
<!-- Node2 -->
<g id="Node000002" class="node">
<title>Node2</title>
<g id="a_Node000002"><a xlink:href="class_a_my_player_controller.html#a1f81abb01f1991867b9eff228a1164c0" target="_top" xlink:title="Sync time between client and server.">
<polygon fill="white" stroke="#666666" points="279.5,-32 142,-32 142,0 279.5,0 279.5,-32"/>
<text text-anchor="start" x="150" y="-18.5" font-family="Arial" font-size="10.00">AMyPlayerController</text>
<text text-anchor="middle" x="210.75" y="-6.5" font-family="Arial" font-size="10.00">::ServerRequestServerTime</text>
</a>
</g>
</g>
<!-- Node1&#45;&gt;Node2 -->
<g id="edge1_Node000001_Node000002" class="edge">
<title>Node1&#45;&gt;Node2</title>
<g id="a_edge1_Node000001_Node000002"><a xlink:title=" ">
<path fill="none" stroke="#63b8ff" d="M106.3,-16C113.98,-16 122.05,-16 130.13,-16"/>
<polygon fill="#63b8ff" stroke="#63b8ff" points="130.04,-19.5 140.04,-16 130.04,-12.5 130.04,-19.5"/>
</a>
</g>
</g>
<!-- Node2&#45;&gt;Node2 -->
<g id="edge2_Node000002_Node000002" class="edge">
<title>Node2&#45;&gt;Node2</title>
<g id="a_edge2_Node000002_Node000002"><a xlink:title=" ">
<path fill="none" stroke="#63b8ff" d="M182.59,-32.44C177.33,-41.58 186.72,-50 210.75,-50 223.89,-50 232.66,-47.48 237.04,-43.71"/>
<polygon fill="#63b8ff" stroke="#63b8ff" points="240.48,-44.37 238.66,-33.94 233.57,-43.23 240.48,-44.37"/>
</a>
</g>
</g>
</g>
</svg>
