<?xml version="1.0" encoding="UTF-8" standalone="no"?>
<!DOCTYPE svg PUBLIC "-//W3C//DTD SVG 1.1//EN"
 "http://www.w3.org/Graphics/SVG/1.1/DTD/svg11.dtd">
<!-- Generated by graphviz version 12.2.1 (20241206.2353)
 -->
<!-- Title: AMainGameMode::GetMusicAudioComponent Pages: 1 -->
<svg width="971pt" height="210pt"
 viewBox="0.00 0.00 970.75 210.00" xmlns="http://www.w3.org/2000/svg" xmlns:xlink="http://www.w3.org/1999/xlink">
<g id="graph0" class="graph" transform="scale(1 1) rotate(0) translate(4 206)">
<title>AMainGameMode::GetMusicAudioComponent</title>
<!-- Node1 -->
<g id="Node000001" class="node">
<title>Node1</title>
<g id="a_Node000001"><a xlink:title=" ">
<polygon fill="#999999" stroke="#666666" points="166.75,-114 0,-114 0,-82 166.75,-82 166.75,-114"/>
<text text-anchor="start" x="8" y="-100.5" font-family="Arial" font-size="10.00">AMainGameMode::GetMusicAudio</text>
<text text-anchor="middle" x="83.38" y="-88.5" font-family="Arial" font-size="10.00">Component</text>
</a>
</g>
</g>
<!-- Node1&#45;&gt;Node1 -->
<g id="edge4_Node000001_Node000001" class="edge">
<title>Node1&#45;&gt;Node1</title>
<g id="a_edge4_Node000001_Node000001"><a xlink:title=" ">
<path fill="none" stroke="#63b8ff" d="M46.17,-114.44C39.23,-123.58 51.63,-132 83.38,-132 100.98,-132 112.64,-129.41 118.34,-125.54"/>
<polygon fill="#63b8ff" stroke="#63b8ff" points="121.74,-126.42 120.28,-115.93 114.88,-125.04 121.74,-126.42"/>
</a>
</g>
</g>
<!-- Node2 -->
<g id="Node000002" class="node">
<title>Node2</title>
<g id="a_Node000002"><a xlink:href="class_a_main_game_mode.html#adcc0f620c93ea4cef3b00ca95dea68e7" target="_top" xlink:title=" ">
<polygon fill="white" stroke="#666666" points="363.88,-165 219.62,-165 219.62,-145 363.88,-145 363.88,-165"/>
<text text-anchor="middle" x="291.75" y="-151.5" font-family="Arial" font-size="10.00">AMainGameMode::BeginPlay</text>
</a>
</g>
</g>
<!-- Node1&#45;&gt;Node2 -->
<g id="edge1_Node000001_Node000002" class="edge">
<title>Node1&#45;&gt;Node2</title>
<g id="a_edge1_Node000001_Node000002"><a xlink:title=" ">
<path fill="none" stroke="#63b8ff" d="M143.06,-114.43C162.1,-119.74 183.31,-125.64 202.75,-131 215.27,-134.45 228.79,-138.15 241.39,-141.59"/>
<polygon fill="#63b8ff" stroke="#63b8ff" points="240.16,-144.88 250.72,-144.13 242,-138.13 240.16,-144.88"/>
</a>
</g>
</g>
<!-- Node5 -->
<g id="Node000005" class="node">
<title>Node5</title>
<g id="a_Node000005"><a xlink:href="class_a_main_game_mode.html#aac3b82e6acfa520c65769ca3c2f60c2b" target="_top" xlink:title=" ">
<polygon fill="white" stroke="#666666" points="587.25,-108 416.75,-108 416.75,-88 587.25,-88 587.25,-108"/>
<text text-anchor="middle" x="502" y="-94.5" font-family="Arial" font-size="10.00">AMainGameMode::HandleHighPing</text>
</a>
</g>
</g>
<!-- Node1&#45;&gt;Node5 -->
<g id="edge5_Node000001_Node000005" class="edge">
<title>Node1&#45;&gt;Node5</title>
<g id="a_edge5_Node000001_Node000005"><a xlink:title=" ">
<path fill="none" stroke="#63b8ff" d="M167.18,-98C235.77,-98 333.31,-98 405.24,-98"/>
<polygon fill="#63b8ff" stroke="#63b8ff" points="405.05,-101.5 415.05,-98 405.05,-94.5 405.05,-101.5"/>
</a>
</g>
</g>
<!-- Node6 -->
<g id="Node000006" class="node">
<title>Node6</title>
<g id="a_Node000006"><a xlink:href="class_a_main_game_mode.html#a9ce74e01903ba5be1fe712f629b2aa77" target="_top" xlink:title=" ">
<polygon fill="white" stroke="#666666" points="380.75,-51 202.75,-51 202.75,-31 380.75,-31 380.75,-51"/>
<text text-anchor="middle" x="291.75" y="-37.5" font-family="Arial" font-size="10.00">AMainGameMode::OnMatchStateSet</text>
</a>
</g>
</g>
<!-- Node1&#45;&gt;Node6 -->
<g id="edge6_Node000001_Node000006" class="edge">
<title>Node1&#45;&gt;Node6</title>
<g id="a_edge6_Node000001_Node000006"><a xlink:title=" ">
<path fill="none" stroke="#63b8ff" d="M131.86,-81.58C153.36,-74.45 179.19,-66.31 202.75,-60 210.64,-57.89 218.97,-55.85 227.24,-53.93"/>
<polygon fill="#63b8ff" stroke="#63b8ff" points="227.97,-57.36 236.95,-51.75 226.43,-50.53 227.97,-57.36"/>
</a>
</g>
</g>
<!-- Node12 -->
<g id="Node000012" class="node">
<title>Node12</title>
<g id="a_Node000012"><a xlink:href="class_a_main_game_mode.html#a801f2a355cc703b4311b08db58d0ed9b" target="_top" xlink:title=" ">
<polygon fill="white" stroke="#666666" points="363.5,-89 220,-89 220,-69 363.5,-69 363.5,-89"/>
<text text-anchor="middle" x="291.75" y="-75.5" font-family="Arial" font-size="10.00">AMainGameMode::PostLogin</text>
</a>
</g>
</g>
<!-- Node1&#45;&gt;Node12 -->
<g id="edge12_Node000001_Node000012" class="edge">
<title>Node1&#45;&gt;Node12</title>
<g id="a_edge12_Node000001_Node000012"><a xlink:title=" ">
<path fill="none" stroke="#63b8ff" d="M167.13,-90.38C180.71,-89.13 194.78,-87.84 208.35,-86.59"/>
<polygon fill="#63b8ff" stroke="#63b8ff" points="208.46,-90.09 218.1,-85.69 207.82,-83.12 208.46,-90.09"/>
</a>
</g>
</g>
<!-- Node3 -->
<g id="Node000003" class="node">
<title>Node3</title>
<g id="a_Node000003"><a xlink:href="class_u_buff_database_manager.html#ae866f9a543fc1382dfa84a64cc7e8384" target="_top" xlink:title=" ">
<polygon fill="white" stroke="#666666" points="573,-202 431,-202 431,-182 573,-182 573,-202"/>
<text text-anchor="middle" x="502" y="-188.5" font-family="Arial" font-size="10.00">UBuffDatabaseManager::Get</text>
</a>
</g>
</g>
<!-- Node2&#45;&gt;Node3 -->
<g id="edge2_Node000002_Node000003" class="edge">
<title>Node2&#45;&gt;Node3</title>
<g id="a_edge2_Node000002_Node000003"><a xlink:title=" ">
<path fill="none" stroke="#63b8ff" d="M351.59,-165.45C376.21,-169.83 405.03,-174.95 430.75,-179.52"/>
<polygon fill="#63b8ff" stroke="#63b8ff" points="430,-182.94 440.45,-181.24 431.22,-176.05 430,-182.94"/>
</a>
</g>
</g>
<!-- Node4 -->
<g id="Node000004" class="node">
<title>Node4</title>
<g id="a_Node000004"><a xlink:href="class_u_buff_database_manager.html#abe0d0f39929b126a6f911df6b1555228" target="_top" xlink:title=" ">
<polygon fill="white" stroke="#666666" points="562.12,-164 441.88,-164 441.88,-132 562.12,-132 562.12,-164"/>
<text text-anchor="start" x="449.88" y="-150.5" font-family="Arial" font-size="10.00">UBuffDatabaseManager</text>
<text text-anchor="middle" x="502" y="-138.5" font-family="Arial" font-size="10.00">::LoadBuffs</text>
</a>
</g>
</g>
<!-- Node2&#45;&gt;Node4 -->
<g id="edge3_Node000002_Node000004" class="edge">
<title>Node2&#45;&gt;Node4</title>
<g id="a_edge3_Node000002_Node000004"><a xlink:title=" ">
<path fill="none" stroke="#63b8ff" d="M364.13,-152.6C385.48,-151.88 408.89,-151.1 430.21,-150.38"/>
<polygon fill="#63b8ff" stroke="#63b8ff" points="430.09,-153.89 439.97,-150.05 429.85,-146.89 430.09,-153.89"/>
</a>
</g>
</g>
<!-- Node7 -->
<g id="Node000007" class="node">
<title>Node7</title>
<g id="a_Node000007"><a xlink:href="class_a_my_player_controller.html#a58bb90e2c607ae458ec045dbf2822b39" target="_top" xlink:title=" ">
<polygon fill="white" stroke="#666666" points="555,-57 449,-57 449,-25 555,-25 555,-57"/>
<text text-anchor="start" x="457" y="-43.5" font-family="Arial" font-size="10.00">AMyPlayerController</text>
<text text-anchor="middle" x="502" y="-31.5" font-family="Arial" font-size="10.00">::OnMatchStateSet</text>
</a>
</g>
</g>
<!-- Node6&#45;&gt;Node7 -->
<g id="edge7_Node000006_Node000007" class="edge">
<title>Node6&#45;&gt;Node7</title>
<g id="a_edge7_Node000006_Node000007"><a xlink:title=" ">
<path fill="none" stroke="#63b8ff" d="M381.07,-41C399.98,-41 419.61,-41 437.37,-41"/>
<polygon fill="#63b8ff" stroke="#63b8ff" points="437.24,-44.5 447.24,-41 437.24,-37.5 437.24,-44.5"/>
</a>
</g>
</g>
<!-- Node8 -->
<g id="Node000008" class="node">
<title>Node8</title>
<g id="a_Node000008"><a xlink:href="class_a_my_player_controller.html#a572fee9304cdf938bb02635e9eb91f66" target="_top" xlink:title=" ">
<polygon fill="white" stroke="#666666" points="740.88,-82 634.88,-82 634.88,-50 740.88,-50 740.88,-82"/>
<text text-anchor="start" x="642.88" y="-68.5" font-family="Arial" font-size="10.00">AMyPlayerController</text>
<text text-anchor="middle" x="687.88" y="-56.5" font-family="Arial" font-size="10.00">::HandleCooldown</text>
</a>
</g>
</g>
<!-- Node7&#45;&gt;Node8 -->
<g id="edge8_Node000007_Node000008" class="edge">
<title>Node7&#45;&gt;Node8</title>
<g id="a_edge8_Node000007_Node000008"><a xlink:title=" ">
<path fill="none" stroke="#63b8ff" d="M555.2,-48.1C576.36,-50.97 600.99,-54.32 623.19,-57.34"/>
<polygon fill="#63b8ff" stroke="#63b8ff" points="622.66,-60.8 633.05,-58.68 623.61,-53.87 622.66,-60.8"/>
</a>
</g>
</g>
<!-- Node11 -->
<g id="Node000011" class="node">
<title>Node11</title>
<g id="a_Node000011"><a xlink:href="class_a_my_player_controller.html#a60eda2b87c5436856db0f5b2167af8a6" target="_top" xlink:title=" ">
<polygon fill="white" stroke="#666666" points="752.5,-32 623.25,-32 623.25,0 752.5,0 752.5,-32"/>
<text text-anchor="start" x="631.25" y="-18.5" font-family="Arial" font-size="10.00">AMyPlayerController</text>
<text text-anchor="middle" x="687.88" y="-6.5" font-family="Arial" font-size="10.00">::HandleMatchHasStarted</text>
</a>
</g>
</g>
<!-- Node7&#45;&gt;Node11 -->
<g id="edge11_Node000007_Node000011" class="edge">
<title>Node7&#45;&gt;Node11</title>
<g id="a_edge11_Node000007_Node000011"><a xlink:title=" ">
<path fill="none" stroke="#63b8ff" d="M555.2,-33.9C572.69,-31.52 592.56,-28.82 611.46,-26.25"/>
<polygon fill="#63b8ff" stroke="#63b8ff" points="611.83,-29.74 621.27,-24.92 610.89,-22.8 611.83,-29.74"/>
</a>
</g>
</g>
<!-- Node9 -->
<g id="Node000009" class="node">
<title>Node9</title>
<g id="a_Node000009"><a xlink:href="class_a_main_character.html#afd1dc526cd36c5de139a7e5ff2b48432" target="_top" xlink:title=" ">
<polygon fill="white" stroke="#666666" points="947,-98 804.25,-98 804.25,-78 947,-78 947,-98"/>
<text text-anchor="middle" x="875.62" y="-84.5" font-family="Arial" font-size="10.00">AMainCharacter::GetCombat</text>
</a>
</g>
</g>
<!-- Node8&#45;&gt;Node9 -->
<g id="edge9_Node000008_Node000009" class="edge">
<title>Node8&#45;&gt;Node9</title>
<g id="a_edge9_Node000008_Node000009"><a xlink:title=" ">
<path fill="none" stroke="#63b8ff" d="M741.11,-72.19C757.13,-74.08 775.16,-76.22 792.67,-78.29"/>
<polygon fill="#63b8ff" stroke="#63b8ff" points="792.22,-81.76 802.56,-79.47 793.05,-74.81 792.22,-81.76"/>
</a>
</g>
</g>
<!-- Node10 -->
<g id="Node000010" class="node">
<title>Node10</title>
<g id="a_Node000010"><a xlink:href="class_a_my_player_controller.html#a23312ab13b910b000bc7bfaf675a2899" target="_top" xlink:title=" ">
<polygon fill="white" stroke="#666666" points="962.75,-60 788.5,-60 788.5,-28 962.75,-28 962.75,-60"/>
<text text-anchor="start" x="796.5" y="-46.5" font-family="Arial" font-size="10.00">AMyPlayerController</text>
<text text-anchor="middle" x="875.62" y="-34.5" font-family="Arial" font-size="10.00">::SetHUDAnnouncementCountdown</text>
</a>
</g>
</g>
<!-- Node8&#45;&gt;Node10 -->
<g id="edge10_Node000008_Node000010" class="edge">
<title>Node8&#45;&gt;Node10</title>
<g id="a_edge10_Node000008_Node000010"><a xlink:title=" ">
<path fill="none" stroke="#63b8ff" d="M741.11,-59.81C752.37,-58.48 764.61,-57.03 776.97,-55.57"/>
<polygon fill="#63b8ff" stroke="#63b8ff" points="777.31,-59.05 786.83,-54.4 776.49,-52.1 777.31,-59.05"/>
</a>
</g>
</g>
<!-- Node12&#45;&gt;Node5 -->
<g id="edge13_Node000012_Node000005" class="edge">
<title>Node12&#45;&gt;Node5</title>
<g id="a_edge13_Node000012_Node000005"><a xlink:title=" ">
<path fill="none" stroke="#63b8ff" d="M363.84,-85.49C377.22,-86.71 391.43,-88 405.42,-89.28"/>
<polygon fill="#63b8ff" stroke="#63b8ff" points="404.79,-92.74 415.07,-90.16 405.43,-85.77 404.79,-92.74"/>
</a>
</g>
</g>
</g>
</svg>
