<?xml version="1.0" encoding="UTF-8" standalone="no"?>
<!DOCTYPE svg PUBLIC "-//W3C//DTD SVG 1.1//EN"
 "http://www.w3.org/Graphics/SVG/1.1/DTD/svg11.dtd">
<!-- Generated by graphviz version 12.2.1 (20241206.2353)
 -->
<!-- Title: UChat Pages: 1 -->
<svg width="143pt" height="196pt"
 viewBox="0.00 0.00 143.00 196.00" xmlns="http://www.w3.org/2000/svg" xmlns:xlink="http://www.w3.org/1999/xlink">
<g id="graph0" class="graph" transform="scale(1 1) rotate(0) translate(4 192)">
<title>UChat</title>
<!-- Node1 -->
<g id="Node000001" class="node">
<title>Node1</title>
<g id="a_Node000001"><a xlink:title=" ">
<polygon fill="#999999" stroke="none" points="135,-100 0,-100 0,0 135,0 135,-100"/>
<text text-anchor="start" x="53.25" y="-86.5" font-family="Arial" font-size="10.00">UChat</text>
<text text-anchor="start" x="4" y="-70.5" font-family="Arial" font-size="10.00">+</text>
<text text-anchor="start" x="14" y="-70.5" font-family="Arial" font-size="10.00">InputField</text>
<text text-anchor="start" x="4" y="-54.5" font-family="Arial" font-size="10.00">+</text>
<text text-anchor="start" x="14" y="-54.5" font-family="Arial" font-size="10.00">ChatHistoryBox</text>
<text text-anchor="start" x="4" y="-38.5" font-family="Arial" font-size="10.00">+</text>
<text text-anchor="start" x="14" y="-38.5" font-family="Arial" font-size="10.00">ChatMessageWidgetClass</text>
<text text-anchor="start" x="4" y="-22.5" font-family="Arial" font-size="10.00">+</text>
<text text-anchor="start" x="14" y="-22.5" font-family="Arial" font-size="10.00">NativeConstruct()</text>
<text text-anchor="start" x="4" y="-6.5" font-family="Arial" font-size="10.00">+</text>
<text text-anchor="start" x="14" y="-6.5" font-family="Arial" font-size="10.00">OnChatTextCommitted()</text>
<polygon fill="#666666" stroke="#666666" points="0,-82 0,-82 135,-82 135,-82 0,-82"/>
<polygon fill="#666666" stroke="#666666" points="0,-34 0,-34 12,-34 12,-34 0,-34"/>
<polygon fill="#666666" stroke="#666666" points="12,-34 12,-34 135,-34 135,-34 12,-34"/>
<polygon fill="none" stroke="#666666" points="0,0 0,-100 135,-100 135,0 0,0"/>
</a>
</g>
</g>
<!-- Node2 -->
<g id="Node000002" class="node">
<title>Node2</title>
<g id="a_Node000002"><a xlink:title=" ">
<polygon fill="white" stroke="none" points="101.12,-188 33.88,-188 33.88,-136 101.12,-136 101.12,-188"/>
<text text-anchor="start" x="37.88" y="-174.5" font-family="Arial" font-size="10.00">UUserWidget</text>
<text text-anchor="start" x="66" y="-158.5" font-family="Arial" font-size="10.00"> </text>
<text text-anchor="start" x="66" y="-142.5" font-family="Arial" font-size="10.00"> </text>
<polygon fill="#666666" stroke="#666666" points="33.88,-170 33.88,-170 101.12,-170 101.12,-170 33.88,-170"/>
<polygon fill="#666666" stroke="#666666" points="33.88,-154 33.88,-154 101.12,-154 101.12,-154 33.88,-154"/>
<polygon fill="none" stroke="#666666" points="33.88,-136 33.88,-188 101.12,-188 101.12,-136 33.88,-136"/>
</a>
</g>
</g>
<!-- Node2&#45;&gt;Node1 -->
<g id="edge1_Node000001_Node000002" class="edge">
<title>Node2&#45;&gt;Node1</title>
<g id="a_edge1_Node000001_Node000002"><a xlink:title=" ">
<path fill="none" stroke="#63b8ff" d="M67.5,-124.53C67.5,-116.58 67.5,-108.05 67.5,-99.72"/>
<polygon fill="none" stroke="#63b8ff" points="64,-124.53 67.5,-134.53 71,-124.53 64,-124.53"/>
</a>
</g>
</g>
</g>
</svg>
