<?xml version="1.0" encoding="UTF-8" standalone="no"?>
<!DOCTYPE svg PUBLIC "-//W3C//DTD SVG 1.1//EN"
 "http://www.w3.org/Graphics/SVG/1.1/DTD/svg11.dtd">
<!-- Generated by graphviz version 12.2.1 (20241206.2353)
 -->
<!-- Title: AMainHUD Pages: 1 -->
<svg width="128pt" height="404pt"
 viewBox="0.00 0.00 128.00 404.00" xmlns="http://www.w3.org/2000/svg" xmlns:xlink="http://www.w3.org/1999/xlink">

<svg id="main" version="1.1" xmlns="http://www.w3.org/2000/svg" xmlns:xlink="http://www.w3.org/1999/xlink" xml:space="preserve">

<style type="text/css"><![CDATA[
.node, .edge {opacity: 0.7;}
.node.selected, .edge.selected {opacity: 1;}
.edge:hover path { stroke: red; }
.edge:hover polygon { stroke: red; fill: red; }
]]></style>
<script type="application/ecmascript" xlink:href="svg.min.js"/>
<svg id="graph" class="graph">
<g id="graph0" class="graph" transform="scale(1 1) rotate(0) translate(4 400)">
<title>AMainHUD</title>
<!-- Node1 -->
<g id="Node000001" class="node">
<title>Node1</title>
<g id="a_Node000001"><a xlink:title=" ">
<polygon fill="#999999" stroke="none" points="120,-308 0,-308 0,0 120,0 120,-308"/>
<text text-anchor="start" x="34.88" y="-294.5" font-family="Arial" font-size="10.00">AMainHUD</text>
<text text-anchor="start" x="4" y="-278.5" font-family="Arial" font-size="10.00">+</text>
<text text-anchor="start" x="14" y="-278.5" font-family="Arial" font-size="10.00">CrosshairSpreadMax</text>
<text text-anchor="start" x="4" y="-262.5" font-family="Arial" font-size="10.00">+</text>
<text text-anchor="start" x="14" y="-262.5" font-family="Arial" font-size="10.00">CharacterOverlayClass</text>
<text text-anchor="start" x="4" y="-246.5" font-family="Arial" font-size="10.00">+</text>
<text text-anchor="start" x="14" y="-246.5" font-family="Arial" font-size="10.00">CharacterOverlay</text>
<text text-anchor="start" x="4" y="-230.5" font-family="Arial" font-size="10.00">+</text>
<text text-anchor="start" x="14" y="-230.5" font-family="Arial" font-size="10.00">AnnouncementClass</text>
<text text-anchor="start" x="4" y="-214.5" font-family="Arial" font-size="10.00">+</text>
<text text-anchor="start" x="14" y="-214.5" font-family="Arial" font-size="10.00">Announcement</text>
<text text-anchor="start" x="4" y="-198.5" font-family="Arial" font-size="10.00">+</text>
<text text-anchor="start" x="14" y="-198.5" font-family="Arial" font-size="10.00">ChatClass</text>
<text text-anchor="start" x="4" y="-182.5" font-family="Arial" font-size="10.00">+</text>
<text text-anchor="start" x="14" y="-182.5" font-family="Arial" font-size="10.00">SettignsClass</text>
<text text-anchor="start" x="4" y="-166.5" font-family="Arial" font-size="10.00">+</text>
<text text-anchor="start" x="14" y="-166.5" font-family="Arial" font-size="10.00">Chat</text>
<text text-anchor="start" x="4" y="-150.5" font-family="Arial" font-size="10.00">+</text>
<text text-anchor="start" x="14" y="-150.5" font-family="Arial" font-size="10.00">Settigns</text>
<text text-anchor="start" x="5.5" y="-134.5" font-family="Arial" font-size="10.00">&#45;</text>
<text text-anchor="start" x="14" y="-134.5" font-family="Arial" font-size="10.00">HUDPackage</text>
<text text-anchor="start" x="4" y="-118.5" font-family="Arial" font-size="10.00">+</text>
<text text-anchor="start" x="14" y="-118.5" font-family="Arial" font-size="10.00">DrawHUD()</text>
<text text-anchor="start" x="4" y="-102.5" font-family="Arial" font-size="10.00">+</text>
<text text-anchor="start" x="14" y="-102.5" font-family="Arial" font-size="10.00">DrawCrosshair()</text>
<text text-anchor="start" x="4" y="-86.5" font-family="Arial" font-size="10.00">+</text>
<text text-anchor="start" x="14" y="-86.5" font-family="Arial" font-size="10.00">AddCharacterOverlay()</text>
<text text-anchor="start" x="4" y="-70.5" font-family="Arial" font-size="10.00">+</text>
<text text-anchor="start" x="14" y="-70.5" font-family="Arial" font-size="10.00">AddAnnouncement()</text>
<text text-anchor="start" x="4" y="-54.5" font-family="Arial" font-size="10.00">+</text>
<text text-anchor="start" x="14" y="-54.5" font-family="Arial" font-size="10.00">AddChat()</text>
<text text-anchor="start" x="4" y="-38.5" font-family="Arial" font-size="10.00">+</text>
<text text-anchor="start" x="14" y="-38.5" font-family="Arial" font-size="10.00">AddSettings()</text>
<text text-anchor="start" x="4" y="-22.5" font-family="Arial" font-size="10.00">+</text>
<text text-anchor="start" x="14" y="-22.5" font-family="Arial" font-size="10.00">SetHUDPackage()</text>
<text text-anchor="start" x="4.38" y="-6.5" font-family="Arial" font-size="10.00">#</text>
<text text-anchor="start" x="14" y="-6.5" font-family="Arial" font-size="10.00">BeginPlay()</text>
<polygon fill="#666666" stroke="#666666" points="0,-290 0,-290 120,-290 120,-290 0,-290"/>
<polygon fill="#666666" stroke="#666666" points="0,-130 0,-130 12,-130 12,-130 0,-130"/>
<polygon fill="#666666" stroke="#666666" points="12,-130 12,-130 120,-130 120,-130 12,-130"/>
<polygon fill="none" stroke="#666666" points="0,0 0,-308 120,-308 120,0 0,0"/>
</a>
</g>
</g>
<!-- Node2 -->
<g id="Node000002" class="node">
<title>Node2</title>
<g id="a_Node000002"><a xlink:title=" ">
<polygon fill="white" stroke="none" points="78.62,-396 41.38,-396 41.38,-344 78.62,-344 78.62,-396"/>
<text text-anchor="start" x="45.38" y="-382.5" font-family="Arial" font-size="10.00">AHUD</text>
<text text-anchor="start" x="58.5" y="-366.5" font-family="Arial" font-size="10.00"> </text>
<text text-anchor="start" x="58.5" y="-350.5" font-family="Arial" font-size="10.00"> </text>
<polygon fill="#666666" stroke="#666666" points="41.38,-378 41.38,-378 78.62,-378 78.62,-378 41.38,-378"/>
<polygon fill="#666666" stroke="#666666" points="41.38,-362 41.38,-362 78.62,-362 78.62,-362 41.38,-362"/>
<polygon fill="none" stroke="#666666" points="41.38,-344 41.38,-396 78.62,-396 78.62,-344 41.38,-344"/>
</a>
</g>
</g>
<!-- Node2&#45;&gt;Node1 -->
<g id="edge1_Node000001_Node000002" class="edge">
<title>Node2&#45;&gt;Node1</title>
<g id="a_edge1_Node000001_Node000002"><a xlink:title=" ">
<path fill="none" stroke="#63b8ff" d="M60,-332.61C60,-325.1 60,-316.75 60,-307.89"/>
<polygon fill="none" stroke="#63b8ff" points="56.5,-332.52 60,-342.52 63.5,-332.52 56.5,-332.52"/>
</a>
</g>
</g>
</g>
</svg>
</svg>

<style type='text/css'>
<![CDATA[
[data-mouse-over-selected='false'] { opacity: 0.7; }
[data-mouse-over-selected='true']  { opacity: 1.0; }
]]>
</style>
<script type="application/ecmascript"><![CDATA[
document.addEventListener('DOMContentLoaded', (event) => {
  highlightEdges();
  highlightAdjacentNodes();
});
]]></script>
</svg>
