<?xml version="1.0" encoding="UTF-8" standalone="no"?>
<!DOCTYPE svg PUBLIC "-//W3C//DTD SVG 1.1//EN"
 "http://www.w3.org/Graphics/SVG/1.1/DTD/svg11.dtd">
<!-- Generated by graphviz version 12.2.1 (20241206.2353)
 -->
<!-- Title: AMyPlayerController::SetHUDTime Pages: 1 -->
<svg width="324pt" height="140pt"
 viewBox="0.00 0.00 324.25 140.00" xmlns="http://www.w3.org/2000/svg" xmlns:xlink="http://www.w3.org/1999/xlink">
<g id="graph0" class="graph" transform="scale(1 1) rotate(0) translate(4 136)">
<title>AMyPlayerController::SetHUDTime</title>
<!-- Node1 -->
<g id="Node000001" class="node">
<title>Node1</title>
<g id="a_Node000001"><a xlink:title=" ">
<polygon fill="#999999" stroke="#666666" points="106,-82 0,-82 0,-50 106,-50 106,-82"/>
<text text-anchor="start" x="8" y="-68.5" font-family="Arial" font-size="10.00">AMyPlayerController</text>
<text text-anchor="middle" x="53" y="-56.5" font-family="Arial" font-size="10.00">::SetHUDTime</text>
</a>
</g>
</g>
<!-- Node2 -->
<g id="Node000002" class="node">
<title>Node2</title>
<g id="a_Node000002"><a xlink:href="class_a_my_player_controller.html#a72a209272a3fddb39a6446c83d1dd330" target="_top" xlink:title=" ">
<polygon fill="white" stroke="#666666" points="282.12,-132 176.12,-132 176.12,-100 282.12,-100 282.12,-132"/>
<text text-anchor="start" x="184.12" y="-118.5" font-family="Arial" font-size="10.00">AMyPlayerController</text>
<text text-anchor="middle" x="229.12" y="-106.5" font-family="Arial" font-size="10.00">::GetServerTime</text>
</a>
</g>
</g>
<!-- Node1&#45;&gt;Node2 -->
<g id="edge1_Node000001_Node000002" class="edge">
<title>Node1&#45;&gt;Node2</title>
<g id="a_edge1_Node000001_Node000002"><a xlink:title=" ">
<path fill="none" stroke="#63b8ff" d="M106.24,-81C124.75,-86.32 145.77,-92.35 165.09,-97.9"/>
<polygon fill="#63b8ff" stroke="#63b8ff" points="163.89,-101.2 174.46,-100.59 165.82,-94.47 163.89,-101.2"/>
</a>
</g>
</g>
<!-- Node3 -->
<g id="Node000003" class="node">
<title>Node3</title>
<g id="a_Node000003"><a xlink:href="class_a_my_player_controller.html#a23312ab13b910b000bc7bfaf675a2899" target="_top" xlink:title=" ">
<polygon fill="white" stroke="#666666" points="316.25,-82 142,-82 142,-50 316.25,-50 316.25,-82"/>
<text text-anchor="start" x="150" y="-68.5" font-family="Arial" font-size="10.00">AMyPlayerController</text>
<text text-anchor="middle" x="229.12" y="-56.5" font-family="Arial" font-size="10.00">::SetHUDAnnouncementCountdown</text>
</a>
</g>
</g>
<!-- Node1&#45;&gt;Node3 -->
<g id="edge2_Node000001_Node000003" class="edge">
<title>Node1&#45;&gt;Node3</title>
<g id="a_edge2_Node000001_Node000003"><a xlink:title=" ">
<path fill="none" stroke="#63b8ff" d="M106.24,-66C113.96,-66 122.11,-66 130.39,-66"/>
<polygon fill="#63b8ff" stroke="#63b8ff" points="130.22,-69.5 140.22,-66 130.22,-62.5 130.22,-69.5"/>
</a>
</g>
</g>
<!-- Node4 -->
<g id="Node000004" class="node">
<title>Node4</title>
<g id="a_Node000004"><a xlink:href="class_a_my_player_controller.html#aad0794e91f63e1b8196024960dc5ec4a" target="_top" xlink:title=" ">
<polygon fill="white" stroke="#666666" points="297.12,-32 161.12,-32 161.12,0 297.12,0 297.12,-32"/>
<text text-anchor="start" x="169.12" y="-18.5" font-family="Arial" font-size="10.00">AMyPlayerController</text>
<text text-anchor="middle" x="229.12" y="-6.5" font-family="Arial" font-size="10.00">::SetHUDMatchCountdown</text>
</a>
</g>
</g>
<!-- Node1&#45;&gt;Node4 -->
<g id="edge3_Node000001_Node000004" class="edge">
<title>Node1&#45;&gt;Node4</title>
<g id="a_edge3_Node000001_Node000004"><a xlink:title=" ">
<path fill="none" stroke="#63b8ff" d="M106.24,-51C123.08,-46.16 142,-40.73 159.83,-35.61"/>
<polygon fill="#63b8ff" stroke="#63b8ff" points="160.65,-39.02 169.3,-32.89 158.72,-32.29 160.65,-39.02"/>
</a>
</g>
</g>
</g>
</svg>
