<?xml version="1.0" encoding="UTF-8" standalone="no"?>
<!DOCTYPE svg PUBLIC "-//W3C//DTD SVG 1.1//EN"
 "http://www.w3.org/Graphics/SVG/1.1/DTD/svg11.dtd">
<!-- Generated by graphviz version 12.2.1 (20241206.2353)
 -->
<!-- Title: AMyPlayerController::Tick Pages: 1 -->
<!--zoomable 476 -->

<svg id="main" version="1.1" xmlns="http://www.w3.org/2000/svg" xmlns:xlink="http://www.w3.org/1999/xlink" xml:space="preserve" onload="init(evt)">

<style type="text/css"><![CDATA[
.node, .edge {opacity: 0.7;}
.node.selected, .edge.selected {opacity: 1;}
.edge:hover path { stroke: red; }
.edge:hover polygon { stroke: red; fill: red; }
]]></style>

<defs>
  <circle id="rim" cx="0" cy="0" r="7"/>
  <circle id="rim2" cx="0" cy="0" r="3.5"/>
  <g id="zoomPlus">
    <use xlink:href="#rim" fill="#404040"><set attributeName="fill" to="#808080" begin="zoomplus.mouseover" end="zoomplus.mouseout"/></use>
    <path d="M-4,0h8M0,-4v8" fill="none" stroke="white" stroke-width="1.5" pointer-events="none"/>
  </g>
  <g id="zoomMin">
    <use xlink:href="#rim" fill="#404040"><set attributeName="fill" to="#808080" begin="zoomminus.mouseover" end="zoomminus.mouseout"/></use>
    <path d="M-4,0h8" fill="none" stroke="white" stroke-width="1.5" pointer-events="none"/>
  </g>
  <g id="arrowUp" transform="translate(30 24)">
    <use xlink:href="#rim"/>
    <path pointer-events="none" fill="none" stroke="white" stroke-width="1.5" d="M0,-3.0v7 M-2.5,-0.5L0,-3.0L2.5,-0.5"/>
  </g>
  <g id="arrowRight" transform="rotate(90) translate(36 -43)">
    <use xlink:href="#rim"/>
    <path pointer-events="none" fill="none" stroke="white" stroke-width="1.5" d="M0,-3.0v7 M-2.5,-0.5L0,-3.0L2.5,-0.5"/>
  </g>
  <g id="arrowDown" transform="rotate(180) translate(-30 -48)">
    <use xlink:href="#rim"/>
    <path pointer-events="none" fill="none" stroke="white" stroke-width="1.5" d="M0,-3.0v7 M-2.5,-0.5L0,-3.0L2.5,-0.5"/>
  </g>
  <g id="arrowLeft" transform="rotate(270) translate(-36 17)">
    <use xlink:href="#rim"/>
    <path pointer-events="none" fill="none" stroke="white" stroke-width="1.5" d="M0,-3.0v7 M-2.5,-0.5L0,-3.0L2.5,-0.5"/>
  </g>
  <g id="resetDef">
    <use xlink:href="#rim2" fill="#404040"><set attributeName="fill" to="#808080" begin="reset.mouseover" end="reset.mouseout"/></use>
  </g>
</defs>
<script type="application/ecmascript">
var viewWidth = 466;
var viewHeight = 476;
var sectionId = 'dynsection-44';
</script>
<script type="application/ecmascript" xlink:href="svg.min.js"/>
<svg id="graph" class="graph">
<g id="viewport">
<title>AMyPlayerController::Tick</title>
<!-- Node1 -->
<g id="Node000001" class="node">
<title>Node1</title>
<g id="a_Node000001"><a xlink:title=" ">
<polygon fill="#999999" stroke="#666666" points="106,-257 0,-257 0,-225 106,-225 106,-257"/>
<text text-anchor="start" x="8" y="-243.5" font-family="Arial" font-size="10.00">AMyPlayerController</text>
<text text-anchor="middle" x="53" y="-231.5" font-family="Arial" font-size="10.00">::Tick</text>
</a>
</g>
</g>
<!-- Node2 -->
<g id="Node000002" class="node">
<title>Node2</title>
<g id="a_Node000002"><a xlink:href="class_a_my_player_controller.html#ab60304264b2877374fc0ebb6fcdb7b26" target="_top" xlink:title=" ">
<polygon fill="white" stroke="#666666" points="248,-375 142,-375 142,-343 248,-343 248,-375"/>
<text text-anchor="start" x="150" y="-361.5" font-family="Arial" font-size="10.00">AMyPlayerController</text>
<text text-anchor="middle" x="195" y="-349.5" font-family="Arial" font-size="10.00">::CheckPing</text>
</a>
</g>
</g>
<!-- Node1&#45;&gt;Node2 -->
<g id="edge1_Node000001_Node000002" class="edge">
<title>Node1&#45;&gt;Node2</title>
<g id="a_edge1_Node000001_Node000002"><a xlink:title=" ">
<path fill="none" stroke="#63b8ff" d="M73.47,-257.41C97.5,-277.66 138.54,-312.26 165.97,-335.37"/>
<polygon fill="#63b8ff" stroke="#63b8ff" points="163.64,-337.99 173.54,-341.76 168.15,-332.64 163.64,-337.99"/>
</a>
</g>
</g>
<!-- Node6 -->
<g id="Node000006" class="node">
<title>Node6</title>
<g id="a_Node000006"><a xlink:href="class_a_my_player_controller.html#aef5597dc7824ce9dafdd5eeb6a520d10" target="_top" xlink:title=" ">
<polygon fill="white" stroke="#666666" points="248,-282 142,-282 142,-250 248,-250 248,-282"/>
<text text-anchor="start" x="150" y="-268.5" font-family="Arial" font-size="10.00">AMyPlayerController</text>
<text text-anchor="middle" x="195" y="-256.5" font-family="Arial" font-size="10.00">::CheckTimeSync</text>
</a>
</g>
</g>
<!-- Node1&#45;&gt;Node6 -->
<g id="edge6_Node000001_Node000006" class="edge">
<title>Node1&#45;&gt;Node6</title>
<g id="a_edge6_Node000001_Node000006"><a xlink:title=" ">
<path fill="none" stroke="#63b8ff" d="M106.13,-250.31C114.15,-251.74 122.5,-253.23 130.73,-254.7"/>
<polygon fill="#63b8ff" stroke="#63b8ff" points="129.88,-258.1 140.34,-256.42 131.11,-251.21 129.88,-258.1"/>
</a>
</g>
</g>
<!-- Node8 -->
<g id="Node000008" class="node">
<title>Node8</title>
<g id="a_Node000008"><a xlink:href="class_a_my_player_controller.html#ab7a7687bc55949e4e94af53a715aee3e" target="_top" xlink:title=" ">
<polygon fill="white" stroke="#666666" points="248,-232 142,-232 142,-200 248,-200 248,-232"/>
<text text-anchor="start" x="150" y="-218.5" font-family="Arial" font-size="10.00">AMyPlayerController</text>
<text text-anchor="middle" x="195" y="-206.5" font-family="Arial" font-size="10.00">::PollInit</text>
</a>
</g>
</g>
<!-- Node1&#45;&gt;Node8 -->
<g id="edge9_Node000001_Node000008" class="edge">
<title>Node1&#45;&gt;Node8</title>
<g id="a_edge9_Node000001_Node000008"><a xlink:title=" ">
<path fill="none" stroke="#63b8ff" d="M106.13,-231.69C114.15,-230.26 122.5,-228.77 130.73,-227.3"/>
<polygon fill="#63b8ff" stroke="#63b8ff" points="131.11,-230.79 140.34,-225.58 129.88,-223.9 131.11,-230.79"/>
</a>
</g>
</g>
<!-- Node11 -->
<g id="Node000011" class="node">
<title>Node11</title>
<g id="a_Node000011"><a xlink:href="class_a_my_player_controller.html#a5e7f3a4755da2121e0e81ac727883566" target="_top" xlink:title=" ">
<polygon fill="white" stroke="#666666" points="248,-107 142,-107 142,-75 248,-75 248,-107"/>
<text text-anchor="start" x="150" y="-93.5" font-family="Arial" font-size="10.00">AMyPlayerController</text>
<text text-anchor="middle" x="195" y="-81.5" font-family="Arial" font-size="10.00">::SetHUDTime</text>
</a>
</g>
</g>
<!-- Node1&#45;&gt;Node11 -->
<g id="edge12_Node000001_Node000011" class="edge">
<title>Node1&#45;&gt;Node11</title>
<g id="a_edge12_Node000001_Node000011"><a xlink:title=" ">
<path fill="none" stroke="#63b8ff" d="M69.25,-224.66C93.86,-198.29 142.5,-146.18 171.23,-115.4"/>
<polygon fill="#63b8ff" stroke="#63b8ff" points="173.47,-118.12 177.74,-108.42 168.36,-113.35 173.47,-118.12"/>
</a>
</g>
</g>
<!-- Node3 -->
<g id="Node000003" class="node">
<title>Node3</title>
<g id="a_Node000003"><a xlink:href="class_a_my_player_controller.html#a9db98d926dabd4c014f63e3d20879abd" target="_top" xlink:title=" ">
<polygon fill="white" stroke="#666666" points="424.12,-468 318.12,-468 318.12,-436 424.12,-436 424.12,-468"/>
<text text-anchor="start" x="326.12" y="-454.5" font-family="Arial" font-size="10.00">AMyPlayerController</text>
<text text-anchor="middle" x="371.12" y="-442.5" font-family="Arial" font-size="10.00">::HighPingWarning</text>
</a>
</g>
</g>
<!-- Node2&#45;&gt;Node3 -->
<g id="edge2_Node000002_Node000003" class="edge">
<title>Node2&#45;&gt;Node3</title>
<g id="a_edge2_Node000002_Node000003"><a xlink:title=" ">
<path fill="none" stroke="#63b8ff" d="M213.18,-375.48C230,-390.8 256.98,-413.27 284,-427 291.25,-430.69 299.13,-433.91 307.08,-436.7"/>
<polygon fill="#63b8ff" stroke="#63b8ff" points="305.88,-439.99 316.47,-439.78 308.06,-433.34 305.88,-439.99"/>
</a>
</g>
</g>
<!-- Node4 -->
<g id="Node000004" class="node">
<title>Node4</title>
<g id="a_Node000004"><a xlink:href="class_a_my_player_controller.html#a89ce730f701917d573d70cc049e32180" target="_top" xlink:title=" ">
<polygon fill="white" stroke="#666666" points="435,-400 307.25,-400 307.25,-368 435,-368 435,-400"/>
<text text-anchor="start" x="315.25" y="-386.5" font-family="Arial" font-size="10.00">AMyPlayerController</text>
<text text-anchor="middle" x="371.12" y="-374.5" font-family="Arial" font-size="10.00">::ServerReportPingStatus</text>
</a>
</g>
</g>
<!-- Node2&#45;&gt;Node4 -->
<g id="edge3_Node000002_Node000004" class="edge">
<title>Node2&#45;&gt;Node4</title>
<g id="a_edge3_Node000002_Node000004"><a xlink:title=" ">
<path fill="none" stroke="#63b8ff" d="M248.24,-366.5C263.22,-368.65 279.84,-371.04 295.87,-373.34"/>
<polygon fill="#63b8ff" stroke="#63b8ff" points="294.95,-376.74 305.35,-374.7 295.95,-369.81 294.95,-376.74"/>
</a>
</g>
</g>
<!-- Node5 -->
<g id="Node000005" class="node">
<title>Node5</title>
<g id="a_Node000005"><a xlink:href="class_a_my_player_controller.html#a857b9e58fbef75850758a1f731fb14b3" target="_top" xlink:title=" ">
<polygon fill="white" stroke="#666666" points="429.75,-350 312.5,-350 312.5,-318 429.75,-318 429.75,-350"/>
<text text-anchor="start" x="320.5" y="-336.5" font-family="Arial" font-size="10.00">AMyPlayerController</text>
<text text-anchor="middle" x="371.12" y="-324.5" font-family="Arial" font-size="10.00">::StopHighPingWarning</text>
</a>
</g>
</g>
<!-- Node2&#45;&gt;Node5 -->
<g id="edge5_Node000002_Node000005" class="edge">
<title>Node2&#45;&gt;Node5</title>
<g id="a_edge5_Node000002_Node000005"><a xlink:title=" ">
<path fill="none" stroke="#63b8ff" d="M248.24,-351.5C264.76,-349.13 283.28,-346.47 300.8,-343.95"/>
<polygon fill="#63b8ff" stroke="#63b8ff" points="301.24,-347.43 310.64,-342.54 300.24,-340.5 301.24,-347.43"/>
</a>
</g>
</g>
<!-- Node4&#45;&gt;Node4 -->
<g id="edge4_Node000004_Node000004" class="edge">
<title>Node4&#45;&gt;Node4</title>
<g id="a_edge4_Node000004_Node000004"><a xlink:title=" ">
<path fill="none" stroke="#63b8ff" d="M339.68,-400.44C333.81,-409.58 344.29,-418 371.12,-418 385.8,-418 395.58,-415.48 400.48,-411.71"/>
<polygon fill="#63b8ff" stroke="#63b8ff" points="403.91,-412.4 402.29,-401.93 397.02,-411.12 403.91,-412.4"/>
</a>
</g>
</g>
<!-- Node7 -->
<g id="Node000007" class="node">
<title>Node7</title>
<g id="a_Node000007"><a xlink:href="class_a_my_player_controller.html#a1f81abb01f1991867b9eff228a1164c0" target="_top" xlink:title="Sync time between client and server.">
<polygon fill="white" stroke="#666666" points="439.88,-282 302.38,-282 302.38,-250 439.88,-250 439.88,-282"/>
<text text-anchor="start" x="310.38" y="-268.5" font-family="Arial" font-size="10.00">AMyPlayerController</text>
<text text-anchor="middle" x="371.12" y="-256.5" font-family="Arial" font-size="10.00">::ServerRequestServerTime</text>
</a>
</g>
</g>
<!-- Node6&#45;&gt;Node7 -->
<g id="edge7_Node000006_Node000007" class="edge">
<title>Node6&#45;&gt;Node7</title>
<g id="a_edge7_Node000006_Node000007"><a xlink:title=" ">
<path fill="none" stroke="#63b8ff" d="M248.24,-266C261.6,-266 276.27,-266 290.66,-266"/>
<polygon fill="#63b8ff" stroke="#63b8ff" points="290.59,-269.5 300.59,-266 290.59,-262.5 290.59,-269.5"/>
</a>
</g>
</g>
<!-- Node7&#45;&gt;Node7 -->
<g id="edge8_Node000007_Node000007" class="edge">
<title>Node7&#45;&gt;Node7</title>
<g id="a_edge8_Node000007_Node000007"><a xlink:title=" ">
<path fill="none" stroke="#63b8ff" d="M339.68,-282.44C333.81,-291.58 344.29,-300 371.12,-300 385.8,-300 395.58,-297.48 400.48,-293.71"/>
<polygon fill="#63b8ff" stroke="#63b8ff" points="403.91,-294.4 402.29,-283.93 397.02,-293.12 403.91,-294.4"/>
</a>
</g>
</g>
<!-- Node9 -->
<g id="Node000009" class="node">
<title>Node9</title>
<g id="a_Node000009"><a xlink:href="class_a_my_player_controller.html#a339037ab7ba08490ad88dc609882acab" target="_top" xlink:title=" ">
<polygon fill="white" stroke="#666666" points="424.12,-232 318.12,-232 318.12,-200 424.12,-200 424.12,-232"/>
<text text-anchor="start" x="326.12" y="-218.5" font-family="Arial" font-size="10.00">AMyPlayerController</text>
<text text-anchor="middle" x="371.12" y="-206.5" font-family="Arial" font-size="10.00">::SetHUDHealth</text>
</a>
</g>
</g>
<!-- Node8&#45;&gt;Node9 -->
<g id="edge10_Node000008_Node000009" class="edge">
<title>Node8&#45;&gt;Node9</title>
<g id="a_edge10_Node000008_Node000009"><a xlink:title=" ">
<path fill="none" stroke="#63b8ff" d="M248.24,-216C266.58,-216 287.38,-216 306.55,-216"/>
<polygon fill="#63b8ff" stroke="#63b8ff" points="306.41,-219.5 316.41,-216 306.41,-212.5 306.41,-219.5"/>
</a>
</g>
</g>
<!-- Node10 -->
<g id="Node000010" class="node">
<title>Node10</title>
<g id="a_Node000010"><a xlink:href="class_a_my_player_controller.html#abde84cf822cf9428f2892b3d30113811" target="_top" xlink:title=" ">
<polygon fill="white" stroke="#666666" points="424.12,-182 318.12,-182 318.12,-150 424.12,-150 424.12,-182"/>
<text text-anchor="start" x="326.12" y="-168.5" font-family="Arial" font-size="10.00">AMyPlayerController</text>
<text text-anchor="middle" x="371.12" y="-156.5" font-family="Arial" font-size="10.00">::SetHUDScore</text>
</a>
</g>
</g>
<!-- Node8&#45;&gt;Node10 -->
<g id="edge11_Node000008_Node000010" class="edge">
<title>Node8&#45;&gt;Node10</title>
<g id="a_edge11_Node000008_Node000010"><a xlink:title=" ">
<path fill="none" stroke="#63b8ff" d="M248.24,-201C266.75,-195.68 287.77,-189.65 307.09,-184.1"/>
<polygon fill="#63b8ff" stroke="#63b8ff" points="307.82,-187.53 316.46,-181.41 305.89,-180.8 307.82,-187.53"/>
</a>
</g>
</g>
<!-- Node12 -->
<g id="Node000012" class="node">
<title>Node12</title>
<g id="a_Node000012"><a xlink:href="class_a_my_player_controller.html#a72a209272a3fddb39a6446c83d1dd330" target="_top" xlink:title=" ">
<polygon fill="white" stroke="#666666" points="424.12,-132 318.12,-132 318.12,-100 424.12,-100 424.12,-132"/>
<text text-anchor="start" x="326.12" y="-118.5" font-family="Arial" font-size="10.00">AMyPlayerController</text>
<text text-anchor="middle" x="371.12" y="-106.5" font-family="Arial" font-size="10.00">::GetServerTime</text>
</a>
</g>
</g>
<!-- Node11&#45;&gt;Node12 -->
<g id="edge13_Node000011_Node000012" class="edge">
<title>Node11&#45;&gt;Node12</title>
<g id="a_edge13_Node000011_Node000012"><a xlink:title=" ">
<path fill="none" stroke="#63b8ff" d="M248.24,-98.5C266.58,-101.13 287.38,-104.12 306.55,-106.87"/>
<polygon fill="#63b8ff" stroke="#63b8ff" points="306.02,-110.33 316.42,-108.29 307.02,-103.4 306.02,-110.33"/>
</a>
</g>
</g>
<!-- Node13 -->
<g id="Node000013" class="node">
<title>Node13</title>
<g id="a_Node000013"><a xlink:href="class_a_my_player_controller.html#a23312ab13b910b000bc7bfaf675a2899" target="_top" xlink:title=" ">
<polygon fill="white" stroke="#666666" points="458.25,-82 284,-82 284,-50 458.25,-50 458.25,-82"/>
<text text-anchor="start" x="292" y="-68.5" font-family="Arial" font-size="10.00">AMyPlayerController</text>
<text text-anchor="middle" x="371.12" y="-56.5" font-family="Arial" font-size="10.00">::SetHUDAnnouncementCountdown</text>
</a>
</g>
</g>
<!-- Node11&#45;&gt;Node13 -->
<g id="edge14_Node000011_Node000013" class="edge">
<title>Node11&#45;&gt;Node13</title>
<g id="a_edge14_Node000011_Node000013"><a xlink:title=" ">
<path fill="none" stroke="#63b8ff" d="M248.24,-83.5C255.96,-82.39 264.11,-81.22 272.39,-80.03"/>
<polygon fill="#63b8ff" stroke="#63b8ff" points="272.83,-83.5 282.23,-78.62 271.84,-76.58 272.83,-83.5"/>
</a>
</g>
</g>
<!-- Node14 -->
<g id="Node000014" class="node">
<title>Node14</title>
<g id="a_Node000014"><a xlink:href="class_a_my_player_controller.html#aad0794e91f63e1b8196024960dc5ec4a" target="_top" xlink:title=" ">
<polygon fill="white" stroke="#666666" points="439.12,-32 303.12,-32 303.12,0 439.12,0 439.12,-32"/>
<text text-anchor="start" x="311.12" y="-18.5" font-family="Arial" font-size="10.00">AMyPlayerController</text>
<text text-anchor="middle" x="371.12" y="-6.5" font-family="Arial" font-size="10.00">::SetHUDMatchCountdown</text>
</a>
</g>
</g>
<!-- Node11&#45;&gt;Node14 -->
<g id="edge15_Node000011_Node000014" class="edge">
<title>Node11&#45;&gt;Node14</title>
<g id="a_edge15_Node000011_Node000014"><a xlink:title=" ">
<path fill="none" stroke="#63b8ff" d="M220.99,-74.7C238.18,-64.03 261.82,-50.37 284,-41 288,-39.31 292.15,-37.69 296.37,-36.15"/>
<polygon fill="#63b8ff" stroke="#63b8ff" points="297.23,-39.56 305.53,-32.97 294.94,-32.94 297.23,-39.56"/>
</a>
</g>
</g>
</g>
</svg>

<g id="navigator" transform="translate(0 0)" fill="#404254">
  <rect fill="#f2f5e9" fill-opacity="0.5" stroke="#606060" stroke-width=".5" x="0" y="0" width="60" height="60"/>
  <use id="zoomplus" xlink:href="#zoomPlus" x="17" y="9" onmousedown="handleZoom(evt,'in')"/>
  <use id="zoomminus" xlink:href="#zoomMin" x="42" y="9" onmousedown="handleZoom(evt,'out')"/>
  <use id="reset" xlink:href="#resetDef" x="30" y="36" onmousedown="handleReset()"/>
   <use id="arrowup" xlink:href="#arrowUp" x="0" y="0" onmousedown="handlePan(0,-1)"/>
  <use id="arrowright" xlink:href="#arrowRight" x="0" y="0" onmousedown="handlePan(1,0)"/>
  <use id="arrowdown" xlink:href="#arrowDown" x="0" y="0" onmousedown="handlePan(0,1)"/>
  <use id="arrowleft" xlink:href="#arrowLeft" x="0" y="0" onmousedown="handlePan(-1,0)"/>
</g>
<svg viewBox="0 0 15 15" width="100%" height="30px" preserveAspectRatio="xMaxYMin meet">
 <g id="arrow_out" transform="scale(0.3 0.3)">
  <a xlink:href="class_a_my_player_controller_ad0cd7f4f1cfcf6d8abd038d6a090f87e_cgraph_org.svg" target="_base">
   <rect id="button" ry="5" rx="5" y="6" x="6" height="38" width="38"
        fill="#f2f5e9" fill-opacity="0.5" stroke="#606060" stroke-width="1.0"/>
   <path id="arrow"
     d="M 11.500037,31.436501 C 11.940474,20.09759 22.043105,11.32322 32.158766,21.979434 L 37.068811,17.246167 C 37.068811,17.246167 37.088388,32 37.088388,32 L 22.160133,31.978069 C 22.160133,31.978069 26.997745,27.140456 26.997745,27.140456 C 18.528582,18.264221 13.291696,25.230495 11.500037,31.436501 z"
     style="fill:#404040;"/>
  </a>
 </g>
</svg>

<style type='text/css'>
<![CDATA[
[data-mouse-over-selected='false'] { opacity: 0.7; }
[data-mouse-over-selected='true']  { opacity: 1.0; }
]]>
</style>
<script type="application/ecmascript"><![CDATA[
document.addEventListener('DOMContentLoaded', (event) => {
  highlightEdges();
  highlightAdjacentNodes();
});
]]></script>
</svg>
