<?xml version="1.0" encoding="UTF-8" standalone="no"?>
<!DOCTYPE svg PUBLIC "-//W3C//DTD SVG 1.1//EN"
 "http://www.w3.org/Graphics/SVG/1.1/DTD/svg11.dtd">
<!-- Generated by graphviz version 12.2.1 (20241206.2353)
 -->
<!-- Title: AMainCharacter::SetupPlayerInputComponent Pages: 1 -->
<svg width="524pt" height="580pt"
 viewBox="0.00 0.00 524.00 580.00" xmlns="http://www.w3.org/2000/svg" xmlns:xlink="http://www.w3.org/1999/xlink">
<g id="graph0" class="graph" transform="scale(1 1) rotate(0) translate(4 576)">
<title>AMainCharacter::SetupPlayerInputComponent</title>
<!-- Node1 -->
<g id="Node000001" class="node">
<title>Node1</title>
<g id="a_Node000001"><a xlink:title=" ">
<polygon fill="#999999" stroke="#666666" points="145.75,-272 0,-272 0,-240 145.75,-240 145.75,-272"/>
<text text-anchor="start" x="8" y="-258.5" font-family="Arial" font-size="10.00">AMainCharacter::SetupPlayer</text>
<text text-anchor="middle" x="72.88" y="-246.5" font-family="Arial" font-size="10.00">InputComponent</text>
</a>
</g>
</g>
<!-- Node2 -->
<g id="Node000002" class="node">
<title>Node2</title>
<g id="a_Node000002"><a xlink:href="class_a_main_character.html#a52bf02febc2e81e0acce607acb5c8c71" target="_top" xlink:title=" ">
<polygon fill="white" stroke="#666666" points="327.12,-572 188.88,-572 188.88,-540 327.12,-540 327.12,-572"/>
<text text-anchor="start" x="196.88" y="-558.5" font-family="Arial" font-size="10.00">AMainCharacter::AimButton</text>
<text text-anchor="middle" x="258" y="-546.5" font-family="Arial" font-size="10.00">Pressed</text>
</a>
</g>
</g>
<!-- Node1&#45;&gt;Node2 -->
<g id="edge1_Node000001_Node000002" class="edge">
<title>Node1&#45;&gt;Node2</title>
<g id="a_edge1_Node000001_Node000002"><a xlink:title=" ">
<path fill="none" stroke="#63b8ff" d="M75.5,-272.27C81.08,-319.32 103.6,-456.89 181.75,-531 182.51,-531.73 183.3,-532.43 184.11,-533.11"/>
<polygon fill="#63b8ff" stroke="#63b8ff" points="181.98,-535.9 192.17,-538.81 186.02,-530.18 181.98,-535.9"/>
</a>
</g>
</g>
<!-- Node3 -->
<g id="Node000003" class="node">
<title>Node3</title>
<g id="a_Node000003"><a xlink:href="class_a_main_character.html#a6b83a5ddaee016df10756685105b6dda" target="_top" xlink:title=" ">
<polygon fill="white" stroke="#666666" points="327.12,-522 188.88,-522 188.88,-490 327.12,-490 327.12,-522"/>
<text text-anchor="start" x="196.88" y="-508.5" font-family="Arial" font-size="10.00">AMainCharacter::AimButton</text>
<text text-anchor="middle" x="258" y="-496.5" font-family="Arial" font-size="10.00">Released</text>
</a>
</g>
</g>
<!-- Node1&#45;&gt;Node3 -->
<g id="edge2_Node000001_Node000003" class="edge">
<title>Node1&#45;&gt;Node3</title>
<g id="a_edge2_Node000001_Node000003"><a xlink:title=" ">
<path fill="none" stroke="#63b8ff" d="M77.08,-272.24C86.03,-313.33 115.12,-422.29 181.75,-481 182.68,-481.82 183.64,-482.61 184.62,-483.38"/>
<polygon fill="#63b8ff" stroke="#63b8ff" points="182.5,-486.17 192.77,-488.77 186.36,-480.33 182.5,-486.17"/>
</a>
</g>
</g>
<!-- Node4 -->
<g id="Node000004" class="node">
<title>Node4</title>
<g id="a_Node000004"><a xlink:href="class_a_main_character.html#a4188209d8c1b079997cf3ff161640da1" target="_top" xlink:title=" ">
<polygon fill="white" stroke="#666666" points="329,-472 187,-472 187,-440 329,-440 329,-472"/>
<text text-anchor="start" x="195" y="-458.5" font-family="Arial" font-size="10.00">AMainCharacter::ChatButton</text>
<text text-anchor="middle" x="258" y="-446.5" font-family="Arial" font-size="10.00">Pressed</text>
</a>
</g>
</g>
<!-- Node1&#45;&gt;Node4 -->
<g id="edge3_Node000001_Node000004" class="edge">
<title>Node1&#45;&gt;Node4</title>
<g id="a_edge3_Node000001_Node000004"><a xlink:title=" ">
<path fill="none" stroke="#63b8ff" d="M79.54,-272.39C92.28,-306.85 126.48,-387.25 181.75,-431 182.9,-431.91 184.09,-432.79 185.31,-433.64"/>
<polygon fill="#63b8ff" stroke="#63b8ff" points="183.48,-436.63 193.86,-438.77 187.08,-430.63 183.48,-436.63"/>
</a>
</g>
</g>
<!-- Node5 -->
<g id="Node000005" class="node">
<title>Node5</title>
<g id="a_Node000005"><a xlink:href="class_a_main_character.html#a62097bcb6795a91be8c1b850ddab0dd4" target="_top" xlink:title=" ">
<polygon fill="white" stroke="#666666" points="334.25,-422 181.75,-422 181.75,-390 334.25,-390 334.25,-422"/>
<text text-anchor="start" x="189.75" y="-408.5" font-family="Arial" font-size="10.00">AMainCharacter::CrouchButton</text>
<text text-anchor="middle" x="258" y="-396.5" font-family="Arial" font-size="10.00">Pressed</text>
</a>
</g>
</g>
<!-- Node1&#45;&gt;Node5 -->
<g id="edge4_Node000001_Node000005" class="edge">
<title>Node1&#45;&gt;Node5</title>
<g id="a_edge4_Node000001_Node000005"><a xlink:title=" ">
<path fill="none" stroke="#63b8ff" d="M83.72,-272.28C100.57,-298.8 137.44,-351.35 181.75,-381 183.55,-382.21 185.42,-383.36 187.33,-384.46"/>
<polygon fill="#63b8ff" stroke="#63b8ff" points="185.39,-387.4 195.89,-388.85 188.59,-381.17 185.39,-387.4"/>
</a>
</g>
</g>
<!-- Node6 -->
<g id="Node000006" class="node">
<title>Node6</title>
<g id="a_Node000006"><a xlink:href="class_a_main_character.html#a4df727af98f00c25d8f7411e5dd6a9de" target="_top" xlink:title=" ">
<polygon fill="white" stroke="#666666" points="330.88,-372 185.12,-372 185.12,-340 330.88,-340 330.88,-372"/>
<text text-anchor="start" x="193.12" y="-358.5" font-family="Arial" font-size="10.00">AMainCharacter::EquipButton</text>
<text text-anchor="middle" x="258" y="-346.5" font-family="Arial" font-size="10.00">Pressed</text>
</a>
</g>
</g>
<!-- Node1&#45;&gt;Node6 -->
<g id="edge5_Node000001_Node000006" class="edge">
<title>Node1&#45;&gt;Node6</title>
<g id="a_edge5_Node000001_Node000006"><a xlink:title=" ">
<path fill="none" stroke="#63b8ff" d="M93.46,-272.22C114.29,-288.82 148.71,-314.46 181.75,-331 184.79,-332.52 187.95,-333.98 191.16,-335.38"/>
<polygon fill="#63b8ff" stroke="#63b8ff" points="189.61,-338.53 200.2,-339.06 192.25,-332.05 189.61,-338.53"/>
</a>
</g>
</g>
<!-- Node8 -->
<g id="Node000008" class="node">
<title>Node8</title>
<g id="a_Node000008"><a xlink:href="class_a_main_character.html#af033924b331d26f512874b2da2c5daa8" target="_top" xlink:title=" ">
<polygon fill="white" stroke="#666666" points="326.75,-322 189.25,-322 189.25,-290 326.75,-290 326.75,-322"/>
<text text-anchor="start" x="197.25" y="-308.5" font-family="Arial" font-size="10.00">AMainCharacter::FireButton</text>
<text text-anchor="middle" x="258" y="-296.5" font-family="Arial" font-size="10.00">Pressed</text>
</a>
</g>
</g>
<!-- Node1&#45;&gt;Node8 -->
<g id="edge8_Node000001_Node000008" class="edge">
<title>Node1&#45;&gt;Node8</title>
<g id="a_edge8_Node000001_Node000008"><a xlink:title=" ">
<path fill="none" stroke="#63b8ff" d="M134.09,-272.44C150.59,-276.95 168.64,-281.88 185.71,-286.53"/>
<polygon fill="#63b8ff" stroke="#63b8ff" points="184.72,-289.89 195.29,-289.15 186.56,-283.14 184.72,-289.89"/>
</a>
</g>
</g>
<!-- Node9 -->
<g id="Node000009" class="node">
<title>Node9</title>
<g id="a_Node000009"><a xlink:href="class_a_main_character.html#ad951420ac46384c2ed0b6db720f7f048" target="_top" xlink:title=" ">
<polygon fill="white" stroke="#666666" points="326.75,-272 189.25,-272 189.25,-240 326.75,-240 326.75,-272"/>
<text text-anchor="start" x="197.25" y="-258.5" font-family="Arial" font-size="10.00">AMainCharacter::FireButton</text>
<text text-anchor="middle" x="258" y="-246.5" font-family="Arial" font-size="10.00">Released</text>
</a>
</g>
</g>
<!-- Node1&#45;&gt;Node9 -->
<g id="edge9_Node000001_Node000009" class="edge">
<title>Node1&#45;&gt;Node9</title>
<g id="a_edge9_Node000001_Node000009"><a xlink:title=" ">
<path fill="none" stroke="#63b8ff" d="M145.99,-256C156.35,-256 167.06,-256 177.56,-256"/>
<polygon fill="#63b8ff" stroke="#63b8ff" points="177.32,-259.5 187.32,-256 177.32,-252.5 177.32,-259.5"/>
</a>
</g>
</g>
<!-- Node10 -->
<g id="Node000010" class="node">
<title>Node10</title>
<g id="a_Node000010"><a xlink:href="class_a_main_character.html#a1cee513fafabff043dcc06e48cb71d34" target="_top" xlink:title=" ">
<polygon fill="white" stroke="#666666" points="316.25,-222 199.75,-222 199.75,-202 316.25,-202 316.25,-222"/>
<text text-anchor="middle" x="258" y="-208.5" font-family="Arial" font-size="10.00">AMainCharacter::Jump</text>
</a>
</g>
</g>
<!-- Node1&#45;&gt;Node10 -->
<g id="edge10_Node000001_Node000010" class="edge">
<title>Node1&#45;&gt;Node10</title>
<g id="a_edge10_Node000001_Node000010"><a xlink:title=" ">
<path fill="none" stroke="#63b8ff" d="M142.32,-239.55C162.1,-234.8 183.42,-229.68 202.25,-225.16"/>
<polygon fill="#63b8ff" stroke="#63b8ff" points="202.94,-228.59 211.84,-222.85 201.3,-221.78 202.94,-228.59"/>
</a>
</g>
</g>
<!-- Node11 -->
<g id="Node000011" class="node">
<title>Node11</title>
<g id="a_Node000011"><a xlink:href="class_a_main_character.html#af71dae2d91479cbbb21d0d8ef2aef26a" target="_top" xlink:title=" ">
<polygon fill="white" stroke="#666666" points="321.12,-184 194.88,-184 194.88,-164 321.12,-164 321.12,-184"/>
<text text-anchor="middle" x="258" y="-170.5" font-family="Arial" font-size="10.00">AMainCharacter::LookUp</text>
</a>
</g>
</g>
<!-- Node1&#45;&gt;Node11 -->
<g id="edge11_Node000001_Node000011" class="edge">
<title>Node1&#45;&gt;Node11</title>
<g id="a_edge11_Node000001_Node000011"><a xlink:title=" ">
<path fill="none" stroke="#63b8ff" d="M97.29,-239.71C118.5,-225.6 151.03,-205.55 181.75,-193 186.44,-191.08 191.37,-189.32 196.37,-187.71"/>
<polygon fill="#63b8ff" stroke="#63b8ff" points="197.35,-191.07 205.93,-184.85 195.35,-184.36 197.35,-191.07"/>
</a>
</g>
</g>
<!-- Node12 -->
<g id="Node000012" class="node">
<title>Node12</title>
<g id="a_Node000012"><a xlink:href="class_a_main_character.html#aa85b946058cdc5f9b68ce529c9c680d8" target="_top" xlink:title=" ">
<polygon fill="white" stroke="#666666" points="333.88,-146 182.12,-146 182.12,-126 333.88,-126 333.88,-146"/>
<text text-anchor="middle" x="258" y="-132.5" font-family="Arial" font-size="10.00">AMainCharacter::MoveForward</text>
</a>
</g>
</g>
<!-- Node1&#45;&gt;Node12 -->
<g id="edge12_Node000001_Node000012" class="edge">
<title>Node1&#45;&gt;Node12</title>
<g id="a_edge12_Node000001_Node000012"><a xlink:title=" ">
<path fill="none" stroke="#63b8ff" d="M86.65,-239.68C105.17,-217.17 141.67,-176.89 181.75,-155 184.79,-153.34 187.97,-151.83 191.24,-150.44"/>
<polygon fill="#63b8ff" stroke="#63b8ff" points="192.36,-153.76 200.5,-146.97 189.9,-147.2 192.36,-153.76"/>
</a>
</g>
</g>
<!-- Node13 -->
<g id="Node000013" class="node">
<title>Node13</title>
<g id="a_Node000013"><a xlink:href="class_a_main_character.html#aa3b2268816c54828d166ea626fdde411" target="_top" xlink:title=" ">
<polygon fill="white" stroke="#666666" points="327.88,-108 188.12,-108 188.12,-88 327.88,-88 327.88,-108"/>
<text text-anchor="middle" x="258" y="-94.5" font-family="Arial" font-size="10.00">AMainCharacter::MoveRight</text>
</a>
</g>
</g>
<!-- Node1&#45;&gt;Node13 -->
<g id="edge13_Node000001_Node000013" class="edge">
<title>Node1&#45;&gt;Node13</title>
<g id="a_edge13_Node000001_Node000013"><a xlink:title=" ">
<path fill="none" stroke="#63b8ff" d="M81.76,-239.84C96.9,-210.59 132.92,-148.93 181.75,-117 183.99,-115.54 186.33,-114.19 188.74,-112.94"/>
<polygon fill="#63b8ff" stroke="#63b8ff" points="189.92,-116.25 197.64,-109 187.08,-109.85 189.92,-116.25"/>
</a>
</g>
</g>
<!-- Node14 -->
<g id="Node000014" class="node">
<title>Node14</title>
<g id="a_Node000014"><a xlink:href="class_a_main_character.html#ae71624f3308d1aa19cc285a5606f62a2" target="_top" xlink:title=" ">
<polygon fill="white" stroke="#666666" points="322.25,-70 193.75,-70 193.75,-38 322.25,-38 322.25,-70"/>
<text text-anchor="start" x="201.75" y="-56.5" font-family="Arial" font-size="10.00">AMainCharacter::Settings</text>
<text text-anchor="middle" x="258" y="-44.5" font-family="Arial" font-size="10.00">MenuButtonPressed</text>
</a>
</g>
</g>
<!-- Node1&#45;&gt;Node14 -->
<g id="edge14_Node000001_Node000014" class="edge">
<title>Node1&#45;&gt;Node14</title>
<g id="a_edge14_Node000001_Node000014"><a xlink:title=" ">
<path fill="none" stroke="#63b8ff" d="M79.39,-239.69C91.95,-204.99 125.99,-123.36 181.75,-79 182.9,-78.08 184.09,-77.2 185.3,-76.35"/>
<polygon fill="#63b8ff" stroke="#63b8ff" points="187.08,-79.36 193.84,-71.21 183.47,-73.37 187.08,-79.36"/>
</a>
</g>
</g>
<!-- Node15 -->
<g id="Node000015" class="node">
<title>Node15</title>
<g id="a_Node000015"><a xlink:href="class_a_main_character.html#aa39c747a98050acdca31bf1fa5ccfe53" target="_top" xlink:title=" ">
<polygon fill="white" stroke="#666666" points="314,-20 202,-20 202,0 314,0 314,-20"/>
<text text-anchor="middle" x="258" y="-6.5" font-family="Arial" font-size="10.00">AMainCharacter::Turn</text>
</a>
</g>
</g>
<!-- Node1&#45;&gt;Node15 -->
<g id="edge15_Node000001_Node000015" class="edge">
<title>Node1&#45;&gt;Node15</title>
<g id="a_edge15_Node000001_Node000015"><a xlink:title=" ">
<path fill="none" stroke="#63b8ff" d="M76.72,-239.63C84.89,-197.72 112.44,-85.89 181.75,-29 184.67,-26.61 187.84,-24.51 191.19,-22.67"/>
<polygon fill="#63b8ff" stroke="#63b8ff" points="192.63,-25.86 200.28,-18.53 189.73,-19.49 192.63,-25.86"/>
</a>
</g>
</g>
<!-- Node7 -->
<g id="Node000007" class="node">
<title>Node7</title>
<g id="a_Node000007"><a xlink:href="class_a_main_character.html#af136e423dc50ae1dbf560911dd07d353" target="_top" xlink:title=" ">
<polygon fill="white" stroke="#666666" points="516,-372 370.25,-372 370.25,-340 516,-340 516,-372"/>
<text text-anchor="start" x="378.25" y="-358.5" font-family="Arial" font-size="10.00">AMainCharacter::ServerEquip</text>
<text text-anchor="middle" x="443.12" y="-346.5" font-family="Arial" font-size="10.00">ButtonPressed</text>
</a>
</g>
</g>
<!-- Node6&#45;&gt;Node7 -->
<g id="edge6_Node000006_Node000007" class="edge">
<title>Node6&#45;&gt;Node7</title>
<g id="a_edge6_Node000006_Node000007"><a xlink:title=" ">
<path fill="none" stroke="#63b8ff" d="M331.11,-356C340.05,-356 349.25,-356 358.34,-356"/>
<polygon fill="#63b8ff" stroke="#63b8ff" points="358.26,-359.5 368.26,-356 358.26,-352.5 358.26,-359.5"/>
</a>
</g>
</g>
<!-- Node7&#45;&gt;Node7 -->
<g id="edge7_Node000007_Node000007" class="edge">
<title>Node7&#45;&gt;Node7</title>
<g id="a_edge7_Node000007_Node000007"><a xlink:title=" ">
<path fill="none" stroke="#63b8ff" d="M410.08,-372.44C403.91,-381.58 414.92,-390 443.12,-390 458.55,-390 468.83,-387.48 473.98,-383.71"/>
<polygon fill="#63b8ff" stroke="#63b8ff" points="477.4,-384.41 475.88,-373.93 470.53,-383.07 477.4,-384.41"/>
</a>
</g>
</g>
</g>
</svg>
