<?xml version="1.0" encoding="UTF-8" standalone="no"?>
<!DOCTYPE svg PUBLIC "-//W3C//DTD SVG 1.1//EN"
 "http://www.w3.org/Graphics/SVG/1.1/DTD/svg11.dtd">
<!-- Generated by graphviz version 12.2.1 (20241206.2353)
 -->
<!-- Title: AMainCharacter::BeginPlay Pages: 1 -->
<!--zoomable 184 -->

<svg id="main" version="1.1" xmlns="http://www.w3.org/2000/svg" xmlns:xlink="http://www.w3.org/1999/xlink" xml:space="preserve" onload="init(evt)">

<style type="text/css"><![CDATA[
.node, .edge {opacity: 0.7;}
.node.selected, .edge.selected {opacity: 1;}
.edge:hover path { stroke: red; }
.edge:hover polygon { stroke: red; fill: red; }
]]></style>

<defs>
  <circle id="rim" cx="0" cy="0" r="7"/>
  <circle id="rim2" cx="0" cy="0" r="3.5"/>
  <g id="zoomPlus">
    <use xlink:href="#rim" fill="#404040"><set attributeName="fill" to="#808080" begin="zoomplus.mouseover" end="zoomplus.mouseout"/></use>
    <path d="M-4,0h8M0,-4v8" fill="none" stroke="white" stroke-width="1.5" pointer-events="none"/>
  </g>
  <g id="zoomMin">
    <use xlink:href="#rim" fill="#404040"><set attributeName="fill" to="#808080" begin="zoomminus.mouseover" end="zoomminus.mouseout"/></use>
    <path d="M-4,0h8" fill="none" stroke="white" stroke-width="1.5" pointer-events="none"/>
  </g>
  <g id="arrowUp" transform="translate(30 24)">
    <use xlink:href="#rim"/>
    <path pointer-events="none" fill="none" stroke="white" stroke-width="1.5" d="M0,-3.0v7 M-2.5,-0.5L0,-3.0L2.5,-0.5"/>
  </g>
  <g id="arrowRight" transform="rotate(90) translate(36 -43)">
    <use xlink:href="#rim"/>
    <path pointer-events="none" fill="none" stroke="white" stroke-width="1.5" d="M0,-3.0v7 M-2.5,-0.5L0,-3.0L2.5,-0.5"/>
  </g>
  <g id="arrowDown" transform="rotate(180) translate(-30 -48)">
    <use xlink:href="#rim"/>
    <path pointer-events="none" fill="none" stroke="white" stroke-width="1.5" d="M0,-3.0v7 M-2.5,-0.5L0,-3.0L2.5,-0.5"/>
  </g>
  <g id="arrowLeft" transform="rotate(270) translate(-36 17)">
    <use xlink:href="#rim"/>
    <path pointer-events="none" fill="none" stroke="white" stroke-width="1.5" d="M0,-3.0v7 M-2.5,-0.5L0,-3.0L2.5,-0.5"/>
  </g>
  <g id="resetDef">
    <use xlink:href="#rim2" fill="#404040"><set attributeName="fill" to="#808080" begin="reset.mouseover" end="reset.mouseout"/></use>
  </g>
</defs>
<script type="application/ecmascript">
var viewWidth = 1154;
var viewHeight = 184;
var sectionId = 'dynsection-7';
</script>
<script type="application/ecmascript" xlink:href="svg.min.js"/>
<svg id="graph" class="graph">
<g id="viewport">
<title>AMainCharacter::BeginPlay</title>
<!-- Node1 -->
<g id="Node000001" class="node">
<title>Node1</title>
<g id="a_Node000001"><a xlink:title=" ">
<polygon fill="#999999" stroke="#666666" points="136.75,-64 0,-64 0,-44 136.75,-44 136.75,-64"/>
<text text-anchor="middle" x="68.38" y="-50.5" font-family="Arial" font-size="10.00">AMainCharacter::BeginPlay</text>
</a>
</g>
</g>
<!-- Node2 -->
<g id="Node000002" class="node">
<title>Node2</title>
<g id="a_Node000002"><a xlink:href="class_a_main_character.html#a4df727af98f00c25d8f7411e5dd6a9de" target="_top" xlink:title=" ">
<polygon fill="white" stroke="#666666" points="328.25,-136 182.5,-136 182.5,-104 328.25,-104 328.25,-136"/>
<text text-anchor="start" x="190.5" y="-122.5" font-family="Arial" font-size="10.00">AMainCharacter::EquipButton</text>
<text text-anchor="middle" x="255.38" y="-110.5" font-family="Arial" font-size="10.00">Pressed</text>
</a>
</g>
</g>
<!-- Node1&#45;&gt;Node2 -->
<g id="edge1_Node000001_Node000002" class="edge">
<title>Node1&#45;&gt;Node2</title>
<g id="a_edge1_Node000001_Node000002"><a xlink:title=" ">
<path fill="none" stroke="#63b8ff" d="M98.69,-64.46C125.14,-73.9 164.8,-88.05 197.48,-99.7"/>
<polygon fill="#63b8ff" stroke="#63b8ff" points="196.24,-102.97 206.83,-103.04 198.59,-96.38 196.24,-102.97"/>
</a>
</g>
</g>
<!-- Node4 -->
<g id="Node000004" class="node">
<title>Node4</title>
<g id="a_Node000004"><a xlink:href="class_a_main_character.html#a33d3267c0046be93c39178a2ed3944b3" target="_top" xlink:title=" ">
<polygon fill="white" stroke="#666666" points="338,-64 172.75,-64 172.75,-44 338,-44 338,-64"/>
<text text-anchor="middle" x="255.38" y="-50.5" font-family="Arial" font-size="10.00">AMainCharacter::ReceiveDamage</text>
</a>
</g>
</g>
<!-- Node1&#45;&gt;Node4 -->
<g id="edge4_Node000001_Node000004" class="edge">
<title>Node1&#45;&gt;Node4</title>
<g id="a_edge4_Node000001_Node000004"><a xlink:title=" ">
<path fill="none" stroke="#63b8ff" d="M137.21,-54C144.99,-54 153.02,-54 161.06,-54"/>
<polygon fill="#63b8ff" stroke="#63b8ff" points="160.9,-57.5 170.9,-54 160.9,-50.5 160.9,-57.5"/>
</a>
</g>
</g>
<!-- Node14 -->
<g id="Node000014" class="node">
<title>Node14</title>
<g id="a_Node000014"><a xlink:href="class_a_main_character.html#a489b2bbf70c72576dba98e67627a5a2e" target="_top" xlink:title=" ">
<polygon fill="white" stroke="#666666" points="549,-20 374,-20 374,0 549,0 549,-20"/>
<text text-anchor="middle" x="461.5" y="-6.5" font-family="Arial" font-size="10.00">AMainCharacter::UpdateHUDHealth</text>
</a>
</g>
</g>
<!-- Node1&#45;&gt;Node14 -->
<g id="edge16_Node000001_Node000014" class="edge">
<title>Node1&#45;&gt;Node14</title>
<g id="a_edge16_Node000001_Node000014"><a xlink:title=" ">
<path fill="none" stroke="#63b8ff" d="M121.02,-43.51C137.49,-40.43 155.84,-37.28 172.75,-35 235.63,-26.51 306.65,-20.3 362.4,-16.2"/>
<polygon fill="#63b8ff" stroke="#63b8ff" points="362.46,-19.7 372.19,-15.49 361.96,-12.72 362.46,-19.7"/>
</a>
</g>
</g>
<!-- Node3 -->
<g id="Node000003" class="node">
<title>Node3</title>
<g id="a_Node000003"><a xlink:href="class_a_main_character.html#af136e423dc50ae1dbf560911dd07d353" target="_top" xlink:title=" ">
<polygon fill="white" stroke="#666666" points="534.38,-158 388.62,-158 388.62,-126 534.38,-126 534.38,-158"/>
<text text-anchor="start" x="396.62" y="-144.5" font-family="Arial" font-size="10.00">AMainCharacter::ServerEquip</text>
<text text-anchor="middle" x="461.5" y="-132.5" font-family="Arial" font-size="10.00">ButtonPressed</text>
</a>
</g>
</g>
<!-- Node2&#45;&gt;Node3 -->
<g id="edge2_Node000002_Node000003" class="edge">
<title>Node2&#45;&gt;Node3</title>
<g id="a_edge2_Node000002_Node000003"><a xlink:title=" ">
<path fill="none" stroke="#63b8ff" d="M328.63,-127.79C344.38,-129.48 361.16,-131.29 377.3,-133.03"/>
<polygon fill="#63b8ff" stroke="#63b8ff" points="376.52,-136.47 386.84,-134.06 377.27,-129.51 376.52,-136.47"/>
</a>
</g>
</g>
<!-- Node3&#45;&gt;Node3 -->
<g id="edge3_Node000003_Node000003" class="edge">
<title>Node3&#45;&gt;Node3</title>
<g id="a_edge3_Node000003_Node000003"><a xlink:title=" ">
<path fill="none" stroke="#63b8ff" d="M425.71,-158.44C419.02,-167.58 430.96,-176 461.5,-176 478.2,-176 489.34,-173.48 494.91,-169.71"/>
<polygon fill="#63b8ff" stroke="#63b8ff" points="498.34,-170.43 496.98,-159.92 491.49,-168.98 498.34,-170.43"/>
</a>
</g>
</g>
<!-- Node5 -->
<g id="Node000005" class="node">
<title>Node5</title>
<g id="a_Node000005"><a xlink:href="class_a_main_game_mode.html#a67e1cb2f93133f0c044f3f0ed73c970c" target="_top" xlink:title=" ">
<polygon fill="white" stroke="#666666" points="548.25,-108 374.75,-108 374.75,-88 548.25,-88 548.25,-108"/>
<text text-anchor="middle" x="461.5" y="-94.5" font-family="Arial" font-size="10.00">AMainGameMode::PlayerEliminated</text>
</a>
</g>
</g>
<!-- Node4&#45;&gt;Node5 -->
<g id="edge5_Node000004_Node000005" class="edge">
<title>Node4&#45;&gt;Node5</title>
<g id="a_edge5_Node000004_Node000005"><a xlink:title=" ">
<path fill="none" stroke="#63b8ff" d="M305.01,-64.48C333.79,-70.69 370.45,-78.59 400.95,-85.16"/>
<polygon fill="#63b8ff" stroke="#63b8ff" points="399.89,-88.52 410.41,-87.2 401.37,-81.67 399.89,-88.52"/>
</a>
</g>
</g>
<!-- Node13 -->
<g id="Node000013" class="node">
<title>Node13</title>
<g id="a_Node000013"><a xlink:href="class_a_main_character.html#a1be3a32212f8b037dd4eeae9720e2348" target="_top" xlink:title=" ">
<polygon fill="white" stroke="#666666" points="537,-70 386,-70 386,-38 537,-38 537,-70"/>
<text text-anchor="start" x="394" y="-56.5" font-family="Arial" font-size="10.00">AMainCharacter::PlayHitReact</text>
<text text-anchor="middle" x="461.5" y="-44.5" font-family="Arial" font-size="10.00">Montage</text>
</a>
</g>
</g>
<!-- Node4&#45;&gt;Node13 -->
<g id="edge14_Node000004_Node000013" class="edge">
<title>Node4&#45;&gt;Node13</title>
<g id="a_edge14_Node000004_Node000013"><a xlink:title=" ">
<path fill="none" stroke="#63b8ff" d="M338.22,-54C350.08,-54 362.31,-54 374.24,-54"/>
<polygon fill="#63b8ff" stroke="#63b8ff" points="374.06,-57.5 384.06,-54 374.06,-50.5 374.06,-57.5"/>
</a>
</g>
</g>
<!-- Node4&#45;&gt;Node14 -->
<g id="edge15_Node000004_Node000014" class="edge">
<title>Node4&#45;&gt;Node14</title>
<g id="a_edge15_Node000004_Node000014"><a xlink:title=" ">
<path fill="none" stroke="#63b8ff" d="M305.01,-43.52C333.79,-37.31 370.45,-29.41 400.95,-22.84"/>
<polygon fill="#63b8ff" stroke="#63b8ff" points="401.37,-26.33 410.41,-20.8 399.89,-19.48 401.37,-26.33"/>
</a>
</g>
</g>
<!-- Node6 -->
<g id="Node000006" class="node">
<title>Node6</title>
<g id="a_Node000006"><a xlink:href="class_a_main_player_state.html#abba13b280e637d9cc041999392596805" target="_top" xlink:title=" ">
<polygon fill="white" stroke="#666666" points="739,-152 585,-152 585,-132 739,-132 739,-152"/>
<text text-anchor="middle" x="662" y="-138.5" font-family="Arial" font-size="10.00">AMainPlayerState::AddToScore</text>
</a>
</g>
</g>
<!-- Node5&#45;&gt;Node6 -->
<g id="edge6_Node000005_Node000006" class="edge">
<title>Node5&#45;&gt;Node6</title>
<g id="a_edge6_Node000005_Node000006"><a xlink:title=" ">
<path fill="none" stroke="#63b8ff" d="M510.1,-108.42C522.74,-111.2 536.39,-114.21 549,-117 566.55,-120.89 585.65,-125.14 603.01,-129.02"/>
<polygon fill="#63b8ff" stroke="#63b8ff" points="602.14,-132.41 612.67,-131.17 603.67,-125.58 602.14,-132.41"/>
</a>
</g>
</g>
<!-- Node8 -->
<g id="Node000008" class="node">
<title>Node8</title>
<g id="a_Node000008"><a xlink:href="class_a_main_character.html#a9d0b7a05e0580099815730100ad9bfb6" target="_top" xlink:title="Elimination.">
<polygon fill="white" stroke="#666666" points="718,-108 606,-108 606,-88 718,-88 718,-108"/>
<text text-anchor="middle" x="662" y="-94.5" font-family="Arial" font-size="10.00">AMainCharacter::Elim</text>
</a>
</g>
</g>
<!-- Node5&#45;&gt;Node8 -->
<g id="edge8_Node000005_Node000008" class="edge">
<title>Node5&#45;&gt;Node8</title>
<g id="a_edge8_Node000005_Node000008"><a xlink:title=" ">
<path fill="none" stroke="#63b8ff" d="M548.7,-98C563.97,-98 579.67,-98 594.3,-98"/>
<polygon fill="#63b8ff" stroke="#63b8ff" points="594.26,-101.5 604.26,-98 594.26,-94.5 594.26,-101.5"/>
</a>
</g>
</g>
<!-- Node12 -->
<g id="Node000012" class="node">
<title>Node12</title>
<g id="a_Node000012"><a xlink:href="class_a_main_game_state.html#a4e6bfb94716b9006ee0783d95b027732" target="_top" xlink:title=" ">
<polygon fill="white" stroke="#666666" points="735.25,-70 588.75,-70 588.75,-38 735.25,-38 735.25,-70"/>
<text text-anchor="start" x="596.75" y="-56.5" font-family="Arial" font-size="10.00">AMainGameState::UpdateTop</text>
<text text-anchor="middle" x="662" y="-44.5" font-family="Arial" font-size="10.00">Score</text>
</a>
</g>
</g>
<!-- Node5&#45;&gt;Node12 -->
<g id="edge13_Node000005_Node000012" class="edge">
<title>Node5&#45;&gt;Node12</title>
<g id="a_edge13_Node000005_Node000012"><a xlink:title=" ">
<path fill="none" stroke="#63b8ff" d="M510.1,-87.58C522.74,-84.8 536.39,-81.79 549,-79 558.16,-76.97 567.73,-74.84 577.27,-72.72"/>
<polygon fill="#63b8ff" stroke="#63b8ff" points="577.93,-76.16 586.93,-70.57 576.41,-69.33 577.93,-76.16"/>
</a>
</g>
</g>
<!-- Node7 -->
<g id="Node000007" class="node">
<title>Node7</title>
<g id="a_Node000007"><a xlink:href="class_a_main_player_state.html#ad9548a5e9fb8bea3102cc8fd8689bcfa" target="_top" xlink:title=" ">
<polygon fill="white" stroke="#666666" points="926,-164 781,-164 781,-132 926,-132 926,-164"/>
<text text-anchor="start" x="789" y="-150.5" font-family="Arial" font-size="10.00">AMainPlayerState::ResetCan</text>
<text text-anchor="middle" x="853.5" y="-138.5" font-family="Arial" font-size="10.00">GetPoints</text>
</a>
</g>
</g>
<!-- Node6&#45;&gt;Node7 -->
<g id="edge7_Node000006_Node000007" class="edge">
<title>Node6&#45;&gt;Node7</title>
<g id="a_edge7_Node000006_Node000007"><a xlink:title=" ">
<path fill="none" stroke="#63b8ff" d="M739.26,-144.41C749.2,-144.73 759.42,-145.05 769.46,-145.37"/>
<polygon fill="#63b8ff" stroke="#63b8ff" points="769.08,-148.86 779.18,-145.68 769.3,-141.86 769.08,-148.86"/>
</a>
</g>
</g>
<!-- Node9 -->
<g id="Node000009" class="node">
<title>Node9</title>
<g id="a_Node000009"><a xlink:href="class_a_main_character.html#aea17dde5a15443622f0bf918c57cce6f" target="_top" xlink:title=" ">
<polygon fill="white" stroke="#666666" points="921.88,-114 785.12,-114 785.12,-82 921.88,-82 921.88,-114"/>
<text text-anchor="start" x="793.12" y="-100.5" font-family="Arial" font-size="10.00">AMainCharacter::ElimTimer</text>
<text text-anchor="middle" x="853.5" y="-88.5" font-family="Arial" font-size="10.00">Finished</text>
</a>
</g>
</g>
<!-- Node8&#45;&gt;Node9 -->
<g id="edge9_Node000008_Node000009" class="edge">
<title>Node8&#45;&gt;Node9</title>
<g id="a_edge9_Node000008_Node000009"><a xlink:title=" ">
<path fill="none" stroke="#63b8ff" d="M718.32,-98C735.51,-98 754.81,-98 773.29,-98"/>
<polygon fill="#63b8ff" stroke="#63b8ff" points="773.16,-101.5 783.16,-98 773.16,-94.5 773.16,-101.5"/>
</a>
</g>
</g>
<!-- Node11 -->
<g id="Node000011" class="node">
<title>Node11</title>
<g id="a_Node000011"><a xlink:href="class_a_main_character.html#a5691a3d428c1f9d6f6ed3d28cb29df10" target="_top" xlink:title=" ">
<polygon fill="white" stroke="#666666" points="932,-46 775,-46 775,-26 932,-26 932,-46"/>
<text text-anchor="middle" x="853.5" y="-32.5" font-family="Arial" font-size="10.00">AMainCharacter::Multicast_Elim</text>
</a>
</g>
</g>
<!-- Node8&#45;&gt;Node11 -->
<g id="edge11_Node000008_Node000011" class="edge">
<title>Node8&#45;&gt;Node11</title>
<g id="a_edge11_Node000008_Node000011"><a xlink:title=" ">
<path fill="none" stroke="#63b8ff" d="M708.65,-87.51C718.71,-84.94 729.27,-82.05 739,-79 765.49,-70.7 794.77,-59.56 816.96,-50.69"/>
<polygon fill="#63b8ff" stroke="#63b8ff" points="818.18,-53.97 826.15,-46.99 815.56,-47.48 818.18,-53.97"/>
</a>
</g>
</g>
<!-- Node10 -->
<g id="Node000010" class="node">
<title>Node10</title>
<g id="a_Node000010"><a xlink:href="class_a_main_game_mode.html#a3713d86d5420f9c8fc8c0e5b055955a2" target="_top" xlink:title=" ">
<polygon fill="white" stroke="#666666" points="1146,-108 968,-108 968,-88 1146,-88 1146,-108"/>
<text text-anchor="middle" x="1057" y="-94.5" font-family="Arial" font-size="10.00">AMainGameMode::RequestRespawn</text>
</a>
</g>
</g>
<!-- Node9&#45;&gt;Node10 -->
<g id="edge10_Node000009_Node000010" class="edge">
<title>Node9&#45;&gt;Node10</title>
<g id="a_edge10_Node000009_Node000010"><a xlink:title=" ">
<path fill="none" stroke="#63b8ff" d="M922.16,-98C933.25,-98 944.94,-98 956.61,-98"/>
<polygon fill="#63b8ff" stroke="#63b8ff" points="956.25,-101.5 966.25,-98 956.25,-94.5 956.25,-101.5"/>
</a>
</g>
</g>
<!-- Node11&#45;&gt;Node11 -->
<g id="edge12_Node000011_Node000011" class="edge">
<title>Node11&#45;&gt;Node11</title>
<g id="a_edge12_Node000011_Node000011"><a xlink:title=" ">
<path fill="none" stroke="#63b8ff" d="M823.07,-46.34C810.07,-54.98 820.21,-64 853.5,-64 872.22,-64 883.63,-61.14 887.7,-57.11"/>
<polygon fill="#63b8ff" stroke="#63b8ff" points="891.04,-56.05 884.43,-47.77 884.43,-58.36 891.04,-56.05"/>
</a>
</g>
</g>
</g>
</svg>

<g id="navigator" transform="translate(0 0)" fill="#404254">
  <rect fill="#f2f5e9" fill-opacity="0.5" stroke="#606060" stroke-width=".5" x="0" y="0" width="60" height="60"/>
  <use id="zoomplus" xlink:href="#zoomPlus" x="17" y="9" onmousedown="handleZoom(evt,'in')"/>
  <use id="zoomminus" xlink:href="#zoomMin" x="42" y="9" onmousedown="handleZoom(evt,'out')"/>
  <use id="reset" xlink:href="#resetDef" x="30" y="36" onmousedown="handleReset()"/>
   <use id="arrowup" xlink:href="#arrowUp" x="0" y="0" onmousedown="handlePan(0,-1)"/>
  <use id="arrowright" xlink:href="#arrowRight" x="0" y="0" onmousedown="handlePan(1,0)"/>
  <use id="arrowdown" xlink:href="#arrowDown" x="0" y="0" onmousedown="handlePan(0,1)"/>
  <use id="arrowleft" xlink:href="#arrowLeft" x="0" y="0" onmousedown="handlePan(-1,0)"/>
</g>
<svg viewBox="0 0 15 15" width="100%" height="30px" preserveAspectRatio="xMaxYMin meet">
 <g id="arrow_out" transform="scale(0.3 0.3)">
  <a xlink:href="class_a_main_character_a096ef46022cd84777b571482729ed02f_cgraph_org.svg" target="_base">
   <rect id="button" ry="5" rx="5" y="6" x="6" height="38" width="38"
        fill="#f2f5e9" fill-opacity="0.5" stroke="#606060" stroke-width="1.0"/>
   <path id="arrow"
     d="M 11.500037,31.436501 C 11.940474,20.09759 22.043105,11.32322 32.158766,21.979434 L 37.068811,17.246167 C 37.068811,17.246167 37.088388,32 37.088388,32 L 22.160133,31.978069 C 22.160133,31.978069 26.997745,27.140456 26.997745,27.140456 C 18.528582,18.264221 13.291696,25.230495 11.500037,31.436501 z"
     style="fill:#404040;"/>
  </a>
 </g>
</svg>

<style type='text/css'>
<![CDATA[
[data-mouse-over-selected='false'] { opacity: 0.7; }
[data-mouse-over-selected='true']  { opacity: 1.0; }
]]>
</style>
<script type="application/ecmascript"><![CDATA[
document.addEventListener('DOMContentLoaded', (event) => {
  highlightEdges();
  highlightAdjacentNodes();
});
]]></script>
</svg>
