<?xml version="1.0" encoding="UTF-8" standalone="no"?>
<!DOCTYPE svg PUBLIC "-//W3C//DTD SVG 1.1//EN"
 "http://www.w3.org/Graphics/SVG/1.1/DTD/svg11.dtd">
<!-- Generated by graphviz version 12.2.1 (20241206.2353)
 -->
<!-- Title: MultiplayerShooter/MainCharacter Pages: 1 -->
<!--zoomable 136 -->

<svg id="main" version="1.1" xmlns="http://www.w3.org/2000/svg" xmlns:xlink="http://www.w3.org/1999/xlink" xml:space="preserve" onload="init(evt)">

<style type="text/css"><![CDATA[
.node, .edge {opacity: 0.7;}
.node.selected, .edge.selected {opacity: 1;}
.edge:hover path { stroke: red; }
.edge:hover polygon { stroke: red; fill: red; }
]]></style>

<defs>
  <circle id="rim" cx="0" cy="0" r="7"/>
  <circle id="rim2" cx="0" cy="0" r="3.5"/>
  <g id="zoomPlus">
    <use xlink:href="#rim" fill="#404040"><set attributeName="fill" to="#808080" begin="zoomplus.mouseover" end="zoomplus.mouseout"/></use>
    <path d="M-4,0h8M0,-4v8" fill="none" stroke="white" stroke-width="1.5" pointer-events="none"/>
  </g>
  <g id="zoomMin">
    <use xlink:href="#rim" fill="#404040"><set attributeName="fill" to="#808080" begin="zoomminus.mouseover" end="zoomminus.mouseout"/></use>
    <path d="M-4,0h8" fill="none" stroke="white" stroke-width="1.5" pointer-events="none"/>
  </g>
  <g id="arrowUp" transform="translate(30 24)">
    <use xlink:href="#rim"/>
    <path pointer-events="none" fill="none" stroke="white" stroke-width="1.5" d="M0,-3.0v7 M-2.5,-0.5L0,-3.0L2.5,-0.5"/>
  </g>
  <g id="arrowRight" transform="rotate(90) translate(36 -43)">
    <use xlink:href="#rim"/>
    <path pointer-events="none" fill="none" stroke="white" stroke-width="1.5" d="M0,-3.0v7 M-2.5,-0.5L0,-3.0L2.5,-0.5"/>
  </g>
  <g id="arrowDown" transform="rotate(180) translate(-30 -48)">
    <use xlink:href="#rim"/>
    <path pointer-events="none" fill="none" stroke="white" stroke-width="1.5" d="M0,-3.0v7 M-2.5,-0.5L0,-3.0L2.5,-0.5"/>
  </g>
  <g id="arrowLeft" transform="rotate(270) translate(-36 17)">
    <use xlink:href="#rim"/>
    <path pointer-events="none" fill="none" stroke="white" stroke-width="1.5" d="M0,-3.0v7 M-2.5,-0.5L0,-3.0L2.5,-0.5"/>
  </g>
  <g id="resetDef">
    <use xlink:href="#rim2" fill="#404040"><set attributeName="fill" to="#808080" begin="reset.mouseover" end="reset.mouseout"/></use>
  </g>
</defs>
<script type="application/ecmascript">
var viewWidth = 702;
var viewHeight = 136;
var sectionId = 'dynsection-0';
</script>
<script type="application/ecmascript" xlink:href="svg.min.js"/>
<svg id="graph" class="graph">
<g id="viewport">
<title>MultiplayerShooter/MainCharacter</title>
<g id="clust1" class="cluster">
<title>clusterdir_c02b9718131941f5397e8655a258fcab</title>
<g id="a_clust1"><a xlink:href="dir_c02b9718131941f5397e8655a258fcab.html" target="_top" xlink:title="MultiplayerShooter">
<polygon fill="#edf0f7" stroke="#404040" stroke-dasharray="5,2" points="8,-8 8,-120 686,-120 686,-8 8,-8"/>
<text text-anchor="middle" x="347" y="-106.5" font-family="Arial" font-size="10.00">MultiplayerShooter</text>
</a>
</g>
</g>
<!-- dir_06934410778debb50bad8a2d723e2921 -->
<g id="node1" class="node">
<title>dir_06934410778debb50bad8a2d723e2921</title>
<g id="a_node1"><a xlink:href="dir_06934410778debb50bad8a2d723e2921.html" target="_top" xlink:title="PlayerController">
<polygon fill="#a2b4d6" stroke="#404040" points="101.88,-36 16.12,-36 16.12,-16 101.88,-16 101.88,-36"/>
<text text-anchor="middle" x="59" y="-22.5" font-family="Arial" font-size="10.00">PlayerController</text>
</a>
</g>
</g>
<!-- dir_ed555c3d153aba9b9b4a1fc4b7622da7 -->
<g id="node2" class="node">
<title>dir_ed555c3d153aba9b9b4a1fc4b7622da7</title>
<g id="a_node2"><a xlink:href="dir_ed555c3d153aba9b9b4a1fc4b7622da7.html" target="_top" xlink:title="Types">
<polygon fill="#a2b4d6" stroke="#404040" points="162.12,-36 119.88,-36 119.88,-16 162.12,-16 162.12,-36"/>
<text text-anchor="middle" x="141" y="-22.5" font-family="Arial" font-size="10.00">Types</text>
</a>
</g>
</g>
<!-- dir_eaacba788c0c3855db8e299b71591489 -->
<g id="node3" class="node">
<title>dir_eaacba788c0c3855db8e299b71591489</title>
<g id="a_node3"><a xlink:href="dir_eaacba788c0c3855db8e299b71591489.html" target="_top" xlink:title="HUD">
<polygon fill="#a2b4d6" stroke="#404040" points="218.25,-36 179.75,-36 179.75,-16 218.25,-16 218.25,-36"/>
<text text-anchor="middle" x="199" y="-22.5" font-family="Arial" font-size="10.00">HUD</text>
</a>
</g>
</g>
<!-- dir_cefd025d79cbf022604c265e3101cb6c -->
<g id="node4" class="node">
<title>dir_cefd025d79cbf022604c265e3101cb6c</title>
<g id="a_node4"><a xlink:href="dir_cefd025d79cbf022604c265e3101cb6c.html" target="_top" xlink:title="GameMode">
<polygon fill="#a2b4d6" stroke="#404040" points="302.12,-36 235.88,-36 235.88,-16 302.12,-16 302.12,-36"/>
<text text-anchor="middle" x="269" y="-22.5" font-family="Arial" font-size="10.00">GameMode</text>
</a>
</g>
</g>
<!-- dir_ced7704969fcc53a65b8b968b669f96b -->
<g id="node5" class="node">
<title>dir_ced7704969fcc53a65b8b968b669f96b</title>
<g id="a_node5"><a xlink:href="dir_ced7704969fcc53a65b8b968b669f96b.html" target="_top" xlink:title="PlayerState">
<polygon fill="#a2b4d6" stroke="#404040" points="387.5,-36 320.5,-36 320.5,-16 387.5,-16 387.5,-36"/>
<text text-anchor="middle" x="354" y="-22.5" font-family="Arial" font-size="10.00">PlayerState</text>
</a>
</g>
</g>
<!-- dir_cdab84beb5a7d8a89e1f5451fd8e4a5e -->
<g id="node6" class="node">
<title>dir_cdab84beb5a7d8a89e1f5451fd8e4a5e</title>
<g id="a_node6"><a xlink:href="dir_cdab84beb5a7d8a89e1f5451fd8e4a5e.html" target="_top" xlink:title="ActorComponents">
<polygon fill="#a2b4d6" stroke="#404040" points="500.38,-36 405.62,-36 405.62,-16 500.38,-16 500.38,-36"/>
<text text-anchor="middle" x="453" y="-22.5" font-family="Arial" font-size="10.00">ActorComponents</text>
</a>
</g>
</g>
<!-- dir_59fdbc63ddb31bceb51f8b480d15a072 -->
<g id="node7" class="node">
<title>dir_59fdbc63ddb31bceb51f8b480d15a072</title>
<g id="a_node7"><a xlink:href="dir_59fdbc63ddb31bceb51f8b480d15a072.html" target="_top" xlink:title="BaseWeapon">
<polygon fill="#a2b4d6" stroke="red" points="591.88,-36 518.12,-36 518.12,-16 591.88,-16 591.88,-36"/>
<text text-anchor="middle" x="555" y="-22.5" font-family="Arial" font-size="10.00">BaseWeapon</text>
</a>
</g>
</g>
<!-- dir_a3ef6ce5e7c12fe10fd31b1b6068eb39 -->
<g id="node8" class="node">
<title>dir_a3ef6ce5e7c12fe10fd31b1b6068eb39</title>
<g id="a_node8"><a xlink:href="dir_a3ef6ce5e7c12fe10fd31b1b6068eb39.html" target="_top" xlink:title="Persistence">
<polygon fill="#a2b4d6" stroke="#404040" points="677.88,-36 610.12,-36 610.12,-16 677.88,-16 677.88,-36"/>
<text text-anchor="middle" x="644" y="-22.5" font-family="Arial" font-size="10.00">Persistence</text>
</a>
</g>
</g>
<!-- dir_1e9f088b6463516d710be25f38de4573 -->
<g id="node9" class="node">
<title>dir_1e9f088b6463516d710be25f38de4573</title>
<g id="a_node9"><a xlink:href="dir_1e9f088b6463516d710be25f38de4573.html" target="_top" xlink:title="MainCharacter">
<polygon fill="#edf0f7" stroke="#404040" stroke-width="2" points="350.88,-92 271.12,-92 271.12,-72 350.88,-72 350.88,-92"/>
<text text-anchor="middle" x="311" y="-78.5" font-family="Arial" font-size="10.00">MainCharacter</text>
</a>
</g>
</g>
<!-- dir_1e9f088b6463516d710be25f38de4573&#45;&gt;dir_06934410778debb50bad8a2d723e2921 -->
<g id="edge1" class="edge">
<title>dir_1e9f088b6463516d710be25f38de4573&#45;&gt;dir_06934410778debb50bad8a2d723e2921</title>
<g id="a_edge1"><a xlink:href="dir_000006_000010.html" target="_top">
<path fill="none" stroke="#63b8ff" d="M270.79,-72.38C228.08,-63.23 160.33,-48.71 112.99,-38.57"/>
<polygon fill="#63b8ff" stroke="#63b8ff" points="114.01,-35.21 103.5,-36.54 112.54,-42.05 114.01,-35.21"/>
</a>
</g>
<g id="a_edge1&#45;headlabel"><a xlink:href="dir_000006_000010.html" target="_top" xlink:title="1">
<text text-anchor="middle" x="116.64" y="-29.37" font-family="Arial" font-size="10.00" fill="#63b8ff">1</text>
</a>
</g>
</g>
<!-- dir_1e9f088b6463516d710be25f38de4573&#45;&gt;dir_ed555c3d153aba9b9b4a1fc4b7622da7 -->
<g id="edge8" class="edge">
<title>dir_1e9f088b6463516d710be25f38de4573&#45;&gt;dir_ed555c3d153aba9b9b4a1fc4b7622da7</title>
<g id="a_edge8"><a xlink:href="dir_000006_000014.html" target="_top">
<path fill="none" stroke="#63b8ff" d="M281.39,-71.59C251.14,-61.99 204.32,-47.11 173.18,-37.22"/>
<polygon fill="#63b8ff" stroke="#63b8ff" points="174.5,-33.97 163.91,-34.28 172.39,-40.64 174.5,-33.97"/>
</a>
</g>
<g id="a_edge8&#45;headlabel"><a xlink:href="dir_000006_000014.html" target="_top" xlink:title="2">
<text text-anchor="middle" x="177.35" y="-28.39" font-family="Arial" font-size="10.00" fill="#63b8ff">2</text>
</a>
</g>
</g>
<!-- dir_1e9f088b6463516d710be25f38de4573&#45;&gt;dir_eaacba788c0c3855db8e299b71591489 -->
<g id="edge7" class="edge">
<title>dir_1e9f088b6463516d710be25f38de4573&#45;&gt;dir_eaacba788c0c3855db8e299b71591489</title>
<g id="a_edge7"><a xlink:href="dir_000006_000005.html" target="_top">
<path fill="none" stroke="#63b8ff" d="M291.49,-71.59C274.25,-63.28 248.84,-51.03 229.01,-41.47"/>
<polygon fill="#63b8ff" stroke="#63b8ff" points="230.55,-38.33 220.02,-37.14 227.51,-44.63 230.55,-38.33"/>
</a>
</g>
<g id="a_edge7&#45;headlabel"><a xlink:href="dir_000006_000005.html" target="_top" xlink:title="1">
<text text-anchor="middle" x="233.66" y="-33.17" font-family="Arial" font-size="10.00" fill="#63b8ff">1</text>
</a>
</g>
</g>
<!-- dir_1e9f088b6463516d710be25f38de4573&#45;&gt;dir_cefd025d79cbf022604c265e3101cb6c -->
<g id="edge6" class="edge">
<title>dir_1e9f088b6463516d710be25f38de4573&#45;&gt;dir_cefd025d79cbf022604c265e3101cb6c</title>
<g id="a_edge6"><a xlink:href="dir_000006_000003.html" target="_top">
<path fill="none" stroke="#63b8ff" d="M303.68,-71.59C298.02,-64.32 290.01,-54.02 283.11,-45.15"/>
<polygon fill="#63b8ff" stroke="#63b8ff" points="286.06,-43.24 277.16,-37.49 280.54,-47.54 286.06,-43.24"/>
</a>
</g>
<g id="a_edge6&#45;headlabel"><a xlink:href="dir_000006_000003.html" target="_top" xlink:title="1">
<text text-anchor="middle" x="289.58" y="-39.64" font-family="Arial" font-size="10.00" fill="#63b8ff">1</text>
</a>
</g>
</g>
<!-- dir_1e9f088b6463516d710be25f38de4573&#45;&gt;dir_ced7704969fcc53a65b8b968b669f96b -->
<g id="edge5" class="edge">
<title>dir_1e9f088b6463516d710be25f38de4573&#45;&gt;dir_ced7704969fcc53a65b8b968b669f96b</title>
<g id="a_edge5"><a xlink:href="dir_000006_000011.html" target="_top">
<path fill="none" stroke="#63b8ff" d="M318.49,-71.59C324.29,-64.32 332.49,-54.02 339.55,-45.15"/>
<polygon fill="#63b8ff" stroke="#63b8ff" points="342.16,-47.49 345.65,-37.48 336.69,-43.12 342.16,-47.49"/>
</a>
</g>
<g id="a_edge5&#45;headlabel"><a xlink:href="dir_000006_000011.html" target="_top" xlink:title="1">
<text text-anchor="middle" x="343.09" y="-47.38" font-family="Arial" font-size="10.00" fill="#63b8ff">1</text>
</a>
</g>
</g>
<!-- dir_1e9f088b6463516d710be25f38de4573&#45;&gt;dir_cdab84beb5a7d8a89e1f5451fd8e4a5e -->
<g id="edge4" class="edge">
<title>dir_1e9f088b6463516d710be25f38de4573&#45;&gt;dir_cdab84beb5a7d8a89e1f5451fd8e4a5e</title>
<g id="a_edge4"><a xlink:href="dir_000006_000000.html" target="_top">
<path fill="none" stroke="#63b8ff" d="M335.73,-71.59C358.3,-63.01 391.91,-50.23 417.37,-40.55"/>
<polygon fill="#63b8ff" stroke="#63b8ff" points="418.55,-43.84 426.66,-37.02 416.07,-37.3 418.55,-43.84"/>
</a>
</g>
<g id="a_edge4&#45;headlabel"><a xlink:href="dir_000006_000000.html" target="_top" xlink:title="6">
<text text-anchor="middle" x="417.62" y="-43.74" font-family="Arial" font-size="10.00" fill="#63b8ff">6</text>
</a>
</g>
</g>
<!-- dir_1e9f088b6463516d710be25f38de4573&#45;&gt;dir_59fdbc63ddb31bceb51f8b480d15a072 -->
<g id="edge2" class="edge">
<title>dir_1e9f088b6463516d710be25f38de4573&#45;&gt;dir_59fdbc63ddb31bceb51f8b480d15a072</title>
<g id="a_edge2"><a xlink:href="dir_000006_000001.html" target="_top">
<path fill="none" stroke="#63b8ff" d="M351.29,-72.08C393.97,-62.64 461.33,-47.73 506.79,-37.67"/>
<polygon fill="#63b8ff" stroke="#63b8ff" points="507.37,-41.13 516.37,-35.55 505.85,-34.29 507.37,-41.13"/>
</a>
</g>
<g id="a_edge2&#45;headlabel"><a xlink:href="dir_000006_000001.html" target="_top" xlink:title="2">
<text text-anchor="middle" x="505.95" y="-40.85" font-family="Arial" font-size="10.00" fill="#63b8ff">2</text>
</a>
</g>
</g>
<!-- dir_1e9f088b6463516d710be25f38de4573&#45;&gt;dir_a3ef6ce5e7c12fe10fd31b1b6068eb39 -->
<g id="edge3" class="edge">
<title>dir_1e9f088b6463516d710be25f38de4573&#45;&gt;dir_a3ef6ce5e7c12fe10fd31b1b6068eb39</title>
<g id="a_edge3"><a xlink:href="dir_000006_000008.html" target="_top">
<path fill="none" stroke="#63b8ff" d="M350.98,-75.47C404.88,-67.87 504.1,-53.36 598.57,-36.36"/>
<polygon fill="#63b8ff" stroke="#63b8ff" points="599.06,-39.83 608.27,-34.6 597.81,-32.95 599.06,-39.83"/>
</a>
</g>
<g id="a_edge3&#45;headlabel"><a xlink:href="dir_000006_000008.html" target="_top" xlink:title="1">
<text text-anchor="middle" x="597.52" y="-39.5" font-family="Arial" font-size="10.00" fill="#63b8ff">1</text>
</a>
</g>
</g>
</g>
</svg>

<g id="navigator" transform="translate(0 0)" fill="#404254">
  <rect fill="#f2f5e9" fill-opacity="0.5" stroke="#606060" stroke-width=".5" x="0" y="0" width="60" height="60"/>
  <use id="zoomplus" xlink:href="#zoomPlus" x="17" y="9" onmousedown="handleZoom(evt,'in')"/>
  <use id="zoomminus" xlink:href="#zoomMin" x="42" y="9" onmousedown="handleZoom(evt,'out')"/>
  <use id="reset" xlink:href="#resetDef" x="30" y="36" onmousedown="handleReset()"/>
   <use id="arrowup" xlink:href="#arrowUp" x="0" y="0" onmousedown="handlePan(0,-1)"/>
  <use id="arrowright" xlink:href="#arrowRight" x="0" y="0" onmousedown="handlePan(1,0)"/>
  <use id="arrowdown" xlink:href="#arrowDown" x="0" y="0" onmousedown="handlePan(0,1)"/>
  <use id="arrowleft" xlink:href="#arrowLeft" x="0" y="0" onmousedown="handlePan(-1,0)"/>
</g>
<svg viewBox="0 0 15 15" width="100%" height="30px" preserveAspectRatio="xMaxYMin meet">
 <g id="arrow_out" transform="scale(0.3 0.3)">
  <a xlink:href="dir_1e9f088b6463516d710be25f38de4573_dep_org.svg" target="_base">
   <rect id="button" ry="5" rx="5" y="6" x="6" height="38" width="38"
        fill="#f2f5e9" fill-opacity="0.5" stroke="#606060" stroke-width="1.0"/>
   <path id="arrow"
     d="M 11.500037,31.436501 C 11.940474,20.09759 22.043105,11.32322 32.158766,21.979434 L 37.068811,17.246167 C 37.068811,17.246167 37.088388,32 37.088388,32 L 22.160133,31.978069 C 22.160133,31.978069 26.997745,27.140456 26.997745,27.140456 C 18.528582,18.264221 13.291696,25.230495 11.500037,31.436501 z"
     style="fill:#404040;"/>
  </a>
 </g>
</svg>

<style type='text/css'>
<![CDATA[
[data-mouse-over-selected='false'] { opacity: 0.7; }
[data-mouse-over-selected='true']  { opacity: 1.0; }
]]>
</style>
<script type="application/ecmascript"><![CDATA[
document.addEventListener('DOMContentLoaded', (event) => {
  highlightEdges();
  highlightAdjacentNodes();
});
]]></script>
</svg>
