<?xml version="1.0" encoding="UTF-8" standalone="no"?>
<!DOCTYPE svg PUBLIC "-//W3C//DTD SVG 1.1//EN"
 "http://www.w3.org/Graphics/SVG/1.1/DTD/svg11.dtd">
<!-- Generated by graphviz version 12.2.1 (20241206.2353)
 -->
<!-- Title: MultiplayerShooter/GameMode Pages: 1 -->
<!--zoomable 136 -->

<svg id="main" version="1.1" xmlns="http://www.w3.org/2000/svg" xmlns:xlink="http://www.w3.org/1999/xlink" xml:space="preserve" onload="init(evt)">

<style type="text/css"><![CDATA[
.node, .edge {opacity: 0.7;}
.node.selected, .edge.selected {opacity: 1;}
.edge:hover path { stroke: red; }
.edge:hover polygon { stroke: red; fill: red; }
]]></style>

<defs>
  <circle id="rim" cx="0" cy="0" r="7"/>
  <circle id="rim2" cx="0" cy="0" r="3.5"/>
  <g id="zoomPlus">
    <use xlink:href="#rim" fill="#404040"><set attributeName="fill" to="#808080" begin="zoomplus.mouseover" end="zoomplus.mouseout"/></use>
    <path d="M-4,0h8M0,-4v8" fill="none" stroke="white" stroke-width="1.5" pointer-events="none"/>
  </g>
  <g id="zoomMin">
    <use xlink:href="#rim" fill="#404040"><set attributeName="fill" to="#808080" begin="zoomminus.mouseover" end="zoomminus.mouseout"/></use>
    <path d="M-4,0h8" fill="none" stroke="white" stroke-width="1.5" pointer-events="none"/>
  </g>
  <g id="arrowUp" transform="translate(30 24)">
    <use xlink:href="#rim"/>
    <path pointer-events="none" fill="none" stroke="white" stroke-width="1.5" d="M0,-3.0v7 M-2.5,-0.5L0,-3.0L2.5,-0.5"/>
  </g>
  <g id="arrowRight" transform="rotate(90) translate(36 -43)">
    <use xlink:href="#rim"/>
    <path pointer-events="none" fill="none" stroke="white" stroke-width="1.5" d="M0,-3.0v7 M-2.5,-0.5L0,-3.0L2.5,-0.5"/>
  </g>
  <g id="arrowDown" transform="rotate(180) translate(-30 -48)">
    <use xlink:href="#rim"/>
    <path pointer-events="none" fill="none" stroke="white" stroke-width="1.5" d="M0,-3.0v7 M-2.5,-0.5L0,-3.0L2.5,-0.5"/>
  </g>
  <g id="arrowLeft" transform="rotate(270) translate(-36 17)">
    <use xlink:href="#rim"/>
    <path pointer-events="none" fill="none" stroke="white" stroke-width="1.5" d="M0,-3.0v7 M-2.5,-0.5L0,-3.0L2.5,-0.5"/>
  </g>
  <g id="resetDef">
    <use xlink:href="#rim2" fill="#404040"><set attributeName="fill" to="#808080" begin="reset.mouseover" end="reset.mouseout"/></use>
  </g>
</defs>
<script type="application/ecmascript">
var viewWidth = 594;
var viewHeight = 136;
var sectionId = 'dynsection-0';
</script>
<script type="application/ecmascript" xlink:href="svg.min.js"/>
<svg id="graph" class="graph">
<g id="viewport">
<title>MultiplayerShooter/GameMode</title>
<g id="clust1" class="cluster">
<title>clusterdir_c02b9718131941f5397e8655a258fcab</title>
<g id="a_clust1"><a xlink:href="dir_c02b9718131941f5397e8655a258fcab.html" target="_top" xlink:title="MultiplayerShooter">
<polygon fill="#edf0f7" stroke="#404040" stroke-dasharray="5,2" points="8,-8 8,-120 578,-120 578,-8 8,-8"/>
<text text-anchor="middle" x="293" y="-106.5" font-family="Arial" font-size="10.00">MultiplayerShooter</text>
</a>
</g>
</g>
<!-- dir_06934410778debb50bad8a2d723e2921 -->
<g id="node1" class="node">
<title>dir_06934410778debb50bad8a2d723e2921</title>
<g id="a_node1"><a xlink:href="dir_06934410778debb50bad8a2d723e2921.html" target="_top" xlink:title="PlayerController">
<polygon fill="#a2b4d6" stroke="#404040" points="101.88,-36 16.12,-36 16.12,-16 101.88,-16 101.88,-36"/>
<text text-anchor="middle" x="59" y="-22.5" font-family="Arial" font-size="10.00">PlayerController</text>
</a>
</g>
</g>
<!-- dir_eaacba788c0c3855db8e299b71591489 -->
<g id="node2" class="node">
<title>dir_eaacba788c0c3855db8e299b71591489</title>
<g id="a_node2"><a xlink:href="dir_eaacba788c0c3855db8e299b71591489.html" target="_top" xlink:title="HUD">
<polygon fill="#a2b4d6" stroke="#404040" points="158.25,-36 119.75,-36 119.75,-16 158.25,-16 158.25,-36"/>
<text text-anchor="middle" x="139" y="-22.5" font-family="Arial" font-size="10.00">HUD</text>
</a>
</g>
</g>
<!-- dir_e117c10730362e694dac0056e64888be -->
<g id="node3" class="node">
<title>dir_e117c10730362e694dac0056e64888be</title>
<g id="a_node3"><a xlink:href="dir_e117c10730362e694dac0056e64888be.html" target="_top" xlink:title="GameState">
<polygon fill="#a2b4d6" stroke="#404040" points="241.75,-36 176.25,-36 176.25,-16 241.75,-16 241.75,-36"/>
<text text-anchor="middle" x="209" y="-22.5" font-family="Arial" font-size="10.00">GameState</text>
</a>
</g>
</g>
<!-- dir_da0c534f0486bcd9c68b8aa51e19130b -->
<g id="node4" class="node">
<title>dir_da0c534f0486bcd9c68b8aa51e19130b</title>
<g id="a_node4"><a xlink:href="dir_da0c534f0486bcd9c68b8aa51e19130b.html" target="_top" xlink:title="Pickups">
<polygon fill="#a2b4d6" stroke="#404040" points="310.62,-36 259.38,-36 259.38,-16 310.62,-16 310.62,-36"/>
<text text-anchor="middle" x="285" y="-22.5" font-family="Arial" font-size="10.00">Pickups</text>
</a>
</g>
</g>
<!-- dir_ced7704969fcc53a65b8b968b669f96b -->
<g id="node5" class="node">
<title>dir_ced7704969fcc53a65b8b968b669f96b</title>
<g id="a_node5"><a xlink:href="dir_ced7704969fcc53a65b8b968b669f96b.html" target="_top" xlink:title="PlayerState">
<polygon fill="#a2b4d6" stroke="#404040" points="395.5,-36 328.5,-36 328.5,-16 395.5,-16 395.5,-36"/>
<text text-anchor="middle" x="362" y="-22.5" font-family="Arial" font-size="10.00">PlayerState</text>
</a>
</g>
</g>
<!-- dir_18dd65f4df25e7b45add86c00790e4c2 -->
<g id="node6" class="node">
<title>dir_18dd65f4df25e7b45add86c00790e4c2</title>
<g id="a_node6"><a xlink:href="dir_18dd65f4df25e7b45add86c00790e4c2.html" target="_top" xlink:title="Database">
<polygon fill="#a2b4d6" stroke="#404040" points="472,-36 414,-36 414,-16 472,-16 472,-36"/>
<text text-anchor="middle" x="443" y="-22.5" font-family="Arial" font-size="10.00">Database</text>
</a>
</g>
</g>
<!-- dir_1e9f088b6463516d710be25f38de4573 -->
<g id="node7" class="node">
<title>dir_1e9f088b6463516d710be25f38de4573</title>
<g id="a_node7"><a xlink:href="dir_1e9f088b6463516d710be25f38de4573.html" target="_top" xlink:title="MainCharacter">
<polygon fill="#a2b4d6" stroke="#404040" points="569.88,-36 490.12,-36 490.12,-16 569.88,-16 569.88,-36"/>
<text text-anchor="middle" x="530" y="-22.5" font-family="Arial" font-size="10.00">MainCharacter</text>
</a>
</g>
</g>
<!-- dir_cefd025d79cbf022604c265e3101cb6c -->
<g id="node8" class="node">
<title>dir_cefd025d79cbf022604c265e3101cb6c</title>
<g id="a_node8"><a xlink:href="dir_cefd025d79cbf022604c265e3101cb6c.html" target="_top" xlink:title="GameMode">
<polygon fill="#edf0f7" stroke="#404040" stroke-width="2" points="318.12,-92 251.88,-92 251.88,-72 318.12,-72 318.12,-92"/>
<text text-anchor="middle" x="285" y="-78.5" font-family="Arial" font-size="10.00">GameMode</text>
</a>
</g>
</g>
<!-- dir_cefd025d79cbf022604c265e3101cb6c&#45;&gt;dir_06934410778debb50bad8a2d723e2921 -->
<g id="edge1" class="edge">
<title>dir_cefd025d79cbf022604c265e3101cb6c&#45;&gt;dir_06934410778debb50bad8a2d723e2921</title>
<g id="a_edge1"><a xlink:href="dir_000003_000010.html" target="_top">
<path fill="none" stroke="#63b8ff" d="M251.65,-73.03C214.23,-64.09 153.1,-49.48 109.74,-39.12"/>
<polygon fill="#63b8ff" stroke="#63b8ff" points="110.59,-35.73 100.05,-36.81 108.96,-42.54 110.59,-35.73"/>
</a>
</g>
<g id="a_edge1&#45;headlabel"><a xlink:href="dir_000003_000010.html" target="_top" xlink:title="2">
<text text-anchor="middle" x="113.27" y="-29.95" font-family="Arial" font-size="10.00" fill="#63b8ff">2</text>
</a>
</g>
</g>
<!-- dir_cefd025d79cbf022604c265e3101cb6c&#45;&gt;dir_eaacba788c0c3855db8e299b71591489 -->
<g id="edge7" class="edge">
<title>dir_cefd025d79cbf022604c265e3101cb6c&#45;&gt;dir_eaacba788c0c3855db8e299b71591489</title>
<g id="a_edge7"><a xlink:href="dir_000003_000005.html" target="_top">
<path fill="none" stroke="#63b8ff" d="M259.57,-71.59C234.41,-62.29 195.89,-48.04 169.18,-38.16"/>
<polygon fill="#63b8ff" stroke="#63b8ff" points="170.55,-34.94 159.96,-34.75 168.12,-41.5 170.55,-34.94"/>
</a>
</g>
<g id="a_edge7&#45;headlabel"><a xlink:href="dir_000003_000005.html" target="_top" xlink:title="1">
<text text-anchor="middle" x="173.49" y="-29.5" font-family="Arial" font-size="10.00" fill="#63b8ff">1</text>
</a>
</g>
</g>
<!-- dir_cefd025d79cbf022604c265e3101cb6c&#45;&gt;dir_e117c10730362e694dac0056e64888be -->
<g id="edge6" class="edge">
<title>dir_cefd025d79cbf022604c265e3101cb6c&#45;&gt;dir_e117c10730362e694dac0056e64888be</title>
<g id="a_edge6"><a xlink:href="dir_000003_000004.html" target="_top">
<path fill="none" stroke="#63b8ff" d="M271.76,-71.59C260.71,-63.74 244.72,-52.38 231.64,-43.09"/>
<polygon fill="#63b8ff" stroke="#63b8ff" points="233.75,-40.3 223.58,-37.36 229.7,-46 233.75,-40.3"/>
</a>
</g>
<g id="a_edge6&#45;headlabel"><a xlink:href="dir_000003_000004.html" target="_top" xlink:title="1">
<text text-anchor="middle" x="237.1" y="-35.69" font-family="Arial" font-size="10.00" fill="#63b8ff">1</text>
</a>
</g>
</g>
<!-- dir_cefd025d79cbf022604c265e3101cb6c&#45;&gt;dir_da0c534f0486bcd9c68b8aa51e19130b -->
<g id="edge5" class="edge">
<title>dir_cefd025d79cbf022604c265e3101cb6c&#45;&gt;dir_da0c534f0486bcd9c68b8aa51e19130b</title>
<g id="a_edge5"><a xlink:href="dir_000003_000009.html" target="_top">
<path fill="none" stroke="#63b8ff" d="M285,-71.59C285,-65.01 285,-55.96 285,-47.73"/>
<polygon fill="#63b8ff" stroke="#63b8ff" points="288.5,-47.81 285,-37.81 281.5,-47.81 288.5,-47.81"/>
</a>
</g>
<g id="a_edge5&#45;headlabel"><a xlink:href="dir_000003_000009.html" target="_top" xlink:title="1">
<text text-anchor="middle" x="291.34" y="-46.39" font-family="Arial" font-size="10.00" fill="#63b8ff">1</text>
</a>
</g>
</g>
<!-- dir_cefd025d79cbf022604c265e3101cb6c&#45;&gt;dir_ced7704969fcc53a65b8b968b669f96b -->
<g id="edge4" class="edge">
<title>dir_cefd025d79cbf022604c265e3101cb6c&#45;&gt;dir_ced7704969fcc53a65b8b968b669f96b</title>
<g id="a_edge4"><a xlink:href="dir_000003_000011.html" target="_top">
<path fill="none" stroke="#63b8ff" d="M298.41,-71.59C309.61,-63.74 325.81,-52.38 339.06,-43.09"/>
<polygon fill="#63b8ff" stroke="#63b8ff" points="341.07,-45.96 347.24,-37.35 337.05,-40.22 341.07,-45.96"/>
</a>
</g>
<g id="a_edge4&#45;headlabel"><a xlink:href="dir_000003_000011.html" target="_top" xlink:title="1">
<text text-anchor="middle" x="340.99" y="-45.98" font-family="Arial" font-size="10.00" fill="#63b8ff">1</text>
</a>
</g>
</g>
<!-- dir_cefd025d79cbf022604c265e3101cb6c&#45;&gt;dir_18dd65f4df25e7b45add86c00790e4c2 -->
<g id="edge2" class="edge">
<title>dir_cefd025d79cbf022604c265e3101cb6c&#45;&gt;dir_18dd65f4df25e7b45add86c00790e4c2</title>
<g id="a_edge2"><a xlink:href="dir_000003_000002.html" target="_top">
<path fill="none" stroke="#63b8ff" d="M312.52,-71.59C337.97,-62.9 376.03,-49.89 404.49,-40.16"/>
<polygon fill="#63b8ff" stroke="#63b8ff" points="405.5,-43.52 413.83,-36.97 403.24,-36.89 405.5,-43.52"/>
</a>
</g>
<g id="a_edge2&#45;headlabel"><a xlink:href="dir_000003_000002.html" target="_top" xlink:title="1">
<text text-anchor="middle" x="404.45" y="-43.37" font-family="Arial" font-size="10.00" fill="#63b8ff">1</text>
</a>
</g>
</g>
<!-- dir_cefd025d79cbf022604c265e3101cb6c&#45;&gt;dir_1e9f088b6463516d710be25f38de4573 -->
<g id="edge3" class="edge">
<title>dir_cefd025d79cbf022604c265e3101cb6c&#45;&gt;dir_1e9f088b6463516d710be25f38de4573</title>
<g id="a_edge3"><a xlink:href="dir_000003_000006.html" target="_top">
<path fill="none" stroke="#63b8ff" d="M318.55,-73.6C359.92,-64.49 430.67,-48.89 478.83,-38.28"/>
<polygon fill="#63b8ff" stroke="#63b8ff" points="479.46,-41.72 488.47,-36.15 477.95,-34.89 479.46,-41.72"/>
</a>
</g>
<g id="a_edge3&#45;headlabel"><a xlink:href="dir_000003_000006.html" target="_top" xlink:title="1">
<text text-anchor="middle" x="478.04" y="-41.44" font-family="Arial" font-size="10.00" fill="#63b8ff">1</text>
</a>
</g>
</g>
</g>
</svg>

<g id="navigator" transform="translate(0 0)" fill="#404254">
  <rect fill="#f2f5e9" fill-opacity="0.5" stroke="#606060" stroke-width=".5" x="0" y="0" width="60" height="60"/>
  <use id="zoomplus" xlink:href="#zoomPlus" x="17" y="9" onmousedown="handleZoom(evt,'in')"/>
  <use id="zoomminus" xlink:href="#zoomMin" x="42" y="9" onmousedown="handleZoom(evt,'out')"/>
  <use id="reset" xlink:href="#resetDef" x="30" y="36" onmousedown="handleReset()"/>
   <use id="arrowup" xlink:href="#arrowUp" x="0" y="0" onmousedown="handlePan(0,-1)"/>
  <use id="arrowright" xlink:href="#arrowRight" x="0" y="0" onmousedown="handlePan(1,0)"/>
  <use id="arrowdown" xlink:href="#arrowDown" x="0" y="0" onmousedown="handlePan(0,1)"/>
  <use id="arrowleft" xlink:href="#arrowLeft" x="0" y="0" onmousedown="handlePan(-1,0)"/>
</g>
<svg viewBox="0 0 15 15" width="100%" height="30px" preserveAspectRatio="xMaxYMin meet">
 <g id="arrow_out" transform="scale(0.3 0.3)">
  <a xlink:href="dir_cefd025d79cbf022604c265e3101cb6c_dep_org.svg" target="_base">
   <rect id="button" ry="5" rx="5" y="6" x="6" height="38" width="38"
        fill="#f2f5e9" fill-opacity="0.5" stroke="#606060" stroke-width="1.0"/>
   <path id="arrow"
     d="M 11.500037,31.436501 C 11.940474,20.09759 22.043105,11.32322 32.158766,21.979434 L 37.068811,17.246167 C 37.068811,17.246167 37.088388,32 37.088388,32 L 22.160133,31.978069 C 22.160133,31.978069 26.997745,27.140456 26.997745,27.140456 C 18.528582,18.264221 13.291696,25.230495 11.500037,31.436501 z"
     style="fill:#404040;"/>
  </a>
 </g>
</svg>

<style type='text/css'>
<![CDATA[
[data-mouse-over-selected='false'] { opacity: 0.7; }
[data-mouse-over-selected='true']  { opacity: 1.0; }
]]>
</style>
<script type="application/ecmascript"><![CDATA[
document.addEventListener('DOMContentLoaded', (event) => {
  highlightEdges();
  highlightAdjacentNodes();
});
]]></script>
</svg>
