<?xml version="1.0" encoding="UTF-8" standalone="no"?>
<!DOCTYPE svg PUBLIC "-//W3C//DTD SVG 1.1//EN"
 "http://www.w3.org/Graphics/SVG/1.1/DTD/svg11.dtd">
<!-- Generated by graphviz version 12.2.1 (20241206.2353)
 -->
<!-- Title: FServerSideRewindResult Pages: 1 -->
<svg width="132pt" height="76pt"
 viewBox="0.00 0.00 131.50 76.00" xmlns="http://www.w3.org/2000/svg" xmlns:xlink="http://www.w3.org/1999/xlink">
<g id="graph0" class="graph" transform="scale(1 1) rotate(0) translate(4 72)">
<title>FServerSideRewindResult</title>
<!-- Node1 -->
<g id="Node000001" class="node">
<title>Node1</title>
<g id="a_Node000001"><a xlink:title=" ">
<polygon fill="#999999" stroke="none" points="123.5,-68 0,-68 0,0 123.5,0 123.5,-68"/>
<text text-anchor="start" x="4" y="-54.5" font-family="Arial" font-size="10.00">FServerSideRewindResult</text>
<text text-anchor="start" x="14.62" y="-38.5" font-family="Arial" font-size="10.00">+</text>
<text text-anchor="start" x="35.25" y="-38.5" font-family="Arial" font-size="10.00">bHitConfirmed</text>
<text text-anchor="start" x="14.62" y="-22.5" font-family="Arial" font-size="10.00">+</text>
<text text-anchor="start" x="35.25" y="-22.5" font-family="Arial" font-size="10.00">bHeadShot</text>
<text text-anchor="start" x="60.25" y="-6.5" font-family="Arial" font-size="10.00"> </text>
<polygon fill="#666666" stroke="#666666" points="0,-50 0,-50 123.5,-50 123.5,-50 0,-50"/>
<polygon fill="#666666" stroke="#666666" points="0,-18 0,-18 33.25,-18 33.25,-18 0,-18"/>
<polygon fill="#666666" stroke="#666666" points="33.25,-18 33.25,-18 123.5,-18 123.5,-18 33.25,-18"/>
<polygon fill="none" stroke="#666666" points="0,0 0,-68 123.5,-68 123.5,0 0,0"/>
</a>
</g>
</g>
</g>
</svg>
