<?xml version="1.0" encoding="UTF-8" standalone="no"?>
<!DOCTYPE svg PUBLIC "-//W3C//DTD SVG 1.1//EN"
 "http://www.w3.org/Graphics/SVG/1.1/DTD/svg11.dtd">
<!-- Generated by graphviz version 12.2.1 (20241206.2353)
 -->
<!-- Title: MainPlayerState.cpp Pages: 1 -->
<svg width="683pt" height="164pt"
 viewBox="0.00 0.00 682.62 164.00" xmlns="http://www.w3.org/2000/svg" xmlns:xlink="http://www.w3.org/1999/xlink">
<g id="graph0" class="graph" transform="scale(1 1) rotate(0) translate(4 160)">
<title>MainPlayerState.cpp</title>
<!-- Node1 -->
<g id="Node000001" class="node">
<title>Node1</title>
<g id="a_Node000001"><a xlink:title=" ">
<polygon fill="#999999" stroke="#666666" points="452.88,-156 346.12,-156 346.12,-136 452.88,-136 452.88,-156"/>
<text text-anchor="middle" x="399.5" y="-142.5" font-family="Arial" font-size="10.00">MainPlayerState.cpp</text>
</a>
</g>
</g>
<!-- Node2 -->
<g id="Node000002" class="node">
<title>Node2</title>
<g id="a_Node000002"><a xlink:href="_main_player_state_8h.html" target="_top" xlink:title=" ">
<polygon fill="white" stroke="#666666" points="221.62,-88 125.38,-88 125.38,-68 221.62,-68 221.62,-88"/>
<text text-anchor="middle" x="173.5" y="-74.5" font-family="Arial" font-size="10.00">MainPlayerState.h</text>
</a>
</g>
</g>
<!-- Node1&#45;&gt;Node2 -->
<g id="edge1_Node000001_Node000002" class="edge">
<title>Node1&#45;&gt;Node2</title>
<g id="a_edge1_Node000001_Node000002"><a xlink:title=" ">
<path fill="none" stroke="#63b8ff" d="M359.93,-135.57C325.49,-127.1 274.35,-113.88 230.5,-100 223.29,-97.72 215.65,-95.07 208.38,-92.43"/>
<polygon fill="#63b8ff" stroke="#63b8ff" points="209.75,-89.21 199.16,-89.02 207.32,-95.77 209.75,-89.21"/>
</a>
</g>
</g>
<!-- Node6 -->
<g id="Node000006" class="node">
<title>Node6</title>
<g id="a_Node000006"><a xlink:title=" ">
<polygon fill="#e0e0e0" stroke="#999999" points="397.38,-94 239.62,-94 239.62,-62 397.38,-62 397.38,-94"/>
<text text-anchor="start" x="247.62" y="-80.5" font-family="Arial" font-size="10.00">MultiplayerShooter</text>
<text text-anchor="middle" x="318.5" y="-68.5" font-family="Arial" font-size="10.00">/MainCharacter/MainCharacter.h</text>
</a>
</g>
</g>
<!-- Node1&#45;&gt;Node6 -->
<g id="edge5_Node000001_Node000006" class="edge">
<title>Node1&#45;&gt;Node6</title>
<g id="a_edge5_Node000001_Node000006"><a xlink:title=" ">
<path fill="none" stroke="#63b8ff" d="M387.89,-135.54C376.95,-126.63 360.14,-112.93 345.81,-101.25"/>
<polygon fill="#63b8ff" stroke="#63b8ff" points="348.42,-98.86 338.45,-95.26 343.99,-104.29 348.42,-98.86"/>
</a>
</g>
</g>
<!-- Node7 -->
<g id="Node000007" class="node">
<title>Node7</title>
<g id="a_Node000007"><a xlink:title=" ">
<polygon fill="#e0e0e0" stroke="#999999" points="548,-100 415,-100 415,-56 548,-56 548,-100"/>
<text text-anchor="start" x="423" y="-86.5" font-family="Arial" font-size="10.00">MultiplayerShooter</text>
<text text-anchor="start" x="423" y="-74.5" font-family="Arial" font-size="10.00">/PlayerController/MyPlayer</text>
<text text-anchor="middle" x="481.5" y="-62.5" font-family="Arial" font-size="10.00">Controller.h</text>
</a>
</g>
</g>
<!-- Node1&#45;&gt;Node7 -->
<g id="edge6_Node000001_Node000007" class="edge">
<title>Node1&#45;&gt;Node7</title>
<g id="a_edge6_Node000001_Node000007"><a xlink:title=" ">
<path fill="none" stroke="#63b8ff" d="M411.25,-135.54C420.37,-128.2 433.53,-117.61 445.99,-107.58"/>
<polygon fill="#63b8ff" stroke="#63b8ff" points="448.1,-110.37 453.7,-101.38 443.71,-104.92 448.1,-110.37"/>
</a>
</g>
</g>
<!-- Node8 -->
<g id="Node000008" class="node">
<title>Node8</title>
<g id="a_Node000008"><a xlink:title=" ">
<polygon fill="#e0e0e0" stroke="#999999" points="674.62,-88 566.38,-88 566.38,-68 674.62,-68 674.62,-88"/>
<text text-anchor="middle" x="620.5" y="-74.5" font-family="Arial" font-size="10.00">Net/UnrealNetwork.h</text>
</a>
</g>
</g>
<!-- Node1&#45;&gt;Node8 -->
<g id="edge7_Node000001_Node000008" class="edge">
<title>Node1&#45;&gt;Node8</title>
<g id="a_edge7_Node000001_Node000008"><a xlink:title=" ">
<path fill="none" stroke="#63b8ff" d="M434.46,-135.52C466.57,-126.7 515.4,-113.01 557.5,-100 565.53,-97.52 574.09,-94.75 582.23,-92.06"/>
<polygon fill="#63b8ff" stroke="#63b8ff" points="583.17,-95.43 591.55,-88.94 580.96,-88.79 583.17,-95.43"/>
</a>
</g>
</g>
<!-- Node3 -->
<g id="Node000003" class="node">
<title>Node3</title>
<g id="a_Node000003"><a xlink:title=" ">
<polygon fill="#e0e0e0" stroke="#999999" points="79,-20 0,-20 0,0 79,0 79,-20"/>
<text text-anchor="middle" x="39.5" y="-6.5" font-family="Arial" font-size="10.00">CoreMinimal.h</text>
</a>
</g>
</g>
<!-- Node2&#45;&gt;Node3 -->
<g id="edge2_Node000002_Node000003" class="edge">
<title>Node2&#45;&gt;Node3</title>
<g id="a_edge2_Node000002_Node000003"><a xlink:title=" ">
<path fill="none" stroke="#63b8ff" d="M154.3,-67.54C131.91,-56.52 94.66,-38.17 68.69,-25.38"/>
<polygon fill="#63b8ff" stroke="#63b8ff" points="70.54,-22.39 60.02,-21.11 67.45,-28.67 70.54,-22.39"/>
</a>
</g>
</g>
<!-- Node4 -->
<g id="Node000004" class="node">
<title>Node4</title>
<g id="a_Node000004"><a xlink:title=" ">
<polygon fill="#e0e0e0" stroke="#999999" points="250.12,-20 96.88,-20 96.88,0 250.12,0 250.12,-20"/>
<text text-anchor="middle" x="173.5" y="-6.5" font-family="Arial" font-size="10.00">GameFramework/PlayerState.h</text>
</a>
</g>
</g>
<!-- Node2&#45;&gt;Node4 -->
<g id="edge3_Node000002_Node000004" class="edge">
<title>Node2&#45;&gt;Node4</title>
<g id="a_edge3_Node000002_Node000004"><a xlink:title=" ">
<path fill="none" stroke="#63b8ff" d="M173.5,-67.54C173.5,-58.23 173.5,-43.7 173.5,-31.7"/>
<polygon fill="#63b8ff" stroke="#63b8ff" points="177,-31.95 173.5,-21.95 170,-31.95 177,-31.95"/>
</a>
</g>
</g>
<!-- Node5 -->
<g id="Node000005" class="node">
<title>Node5</title>
<g id="a_Node000005"><a xlink:title=" ">
<polygon fill="#e0e0e0" stroke="#999999" points="410.5,-20 268.5,-20 268.5,0 410.5,0 410.5,-20"/>
<text text-anchor="middle" x="339.5" y="-6.5" font-family="Arial" font-size="10.00">MainPlayerState.generated.h</text>
</a>
</g>
</g>
<!-- Node2&#45;&gt;Node5 -->
<g id="edge4_Node000002_Node000005" class="edge">
<title>Node2&#45;&gt;Node5</title>
<g id="a_edge4_Node000002_Node000005"><a xlink:title=" ">
<path fill="none" stroke="#63b8ff" d="M197.28,-67.54C225.64,-56.27 273.22,-37.35 305.46,-24.53"/>
<polygon fill="#63b8ff" stroke="#63b8ff" points="306.35,-27.94 314.35,-21 303.77,-21.44 306.35,-27.94"/>
</a>
</g>
</g>
</g>
</svg>
