<?xml version="1.0" encoding="UTF-8" standalone="no"?>
<!DOCTYPE svg PUBLIC "-//W3C//DTD SVG 1.1//EN"
 "http://www.w3.org/Graphics/SVG/1.1/DTD/svg11.dtd">
<!-- Generated by graphviz version 12.2.1 (20241206.2353)
 -->
<!-- Title: MainPlayerState.h Pages: 1 -->
<svg width="419pt" height="84pt"
 viewBox="0.00 0.00 418.50 84.00" xmlns="http://www.w3.org/2000/svg" xmlns:xlink="http://www.w3.org/1999/xlink">
<g id="graph0" class="graph" transform="scale(1 1) rotate(0) translate(4 80)">
<title>MainPlayerState.h</title>
<!-- Node1 -->
<g id="Node000001" class="node">
<title>Node1</title>
<g id="a_Node000001"><a xlink:title=" ">
<polygon fill="#999999" stroke="#666666" points="221.62,-76 125.38,-76 125.38,-56 221.62,-56 221.62,-76"/>
<text text-anchor="middle" x="173.5" y="-62.5" font-family="Arial" font-size="10.00">MainPlayerState.h</text>
</a>
</g>
</g>
<!-- Node2 -->
<g id="Node000002" class="node">
<title>Node2</title>
<g id="a_Node000002"><a xlink:title=" ">
<polygon fill="#e0e0e0" stroke="#999999" points="79,-20 0,-20 0,0 79,0 79,-20"/>
<text text-anchor="middle" x="39.5" y="-6.5" font-family="Arial" font-size="10.00">CoreMinimal.h</text>
</a>
</g>
</g>
<!-- Node1&#45;&gt;Node2 -->
<g id="edge1_Node000001_Node000002" class="edge">
<title>Node1&#45;&gt;Node2</title>
<g id="a_edge1_Node000001_Node000002"><a xlink:title=" ">
<path fill="none" stroke="#63b8ff" d="M150.16,-55.59C128.96,-47.05 97.43,-34.35 73.45,-24.68"/>
<polygon fill="#63b8ff" stroke="#63b8ff" points="75.01,-21.54 64.43,-21.05 72.39,-28.03 75.01,-21.54"/>
</a>
</g>
</g>
<!-- Node3 -->
<g id="Node000003" class="node">
<title>Node3</title>
<g id="a_Node000003"><a xlink:title=" ">
<polygon fill="#e0e0e0" stroke="#999999" points="250.12,-20 96.88,-20 96.88,0 250.12,0 250.12,-20"/>
<text text-anchor="middle" x="173.5" y="-6.5" font-family="Arial" font-size="10.00">GameFramework/PlayerState.h</text>
</a>
</g>
</g>
<!-- Node1&#45;&gt;Node3 -->
<g id="edge2_Node000001_Node000003" class="edge">
<title>Node1&#45;&gt;Node3</title>
<g id="a_edge2_Node000001_Node000003"><a xlink:title=" ">
<path fill="none" stroke="#63b8ff" d="M173.5,-55.59C173.5,-49.01 173.5,-39.96 173.5,-31.73"/>
<polygon fill="#63b8ff" stroke="#63b8ff" points="177,-31.81 173.5,-21.81 170,-31.81 177,-31.81"/>
</a>
</g>
</g>
<!-- Node4 -->
<g id="Node000004" class="node">
<title>Node4</title>
<g id="a_Node000004"><a xlink:title=" ">
<polygon fill="#e0e0e0" stroke="#999999" points="410.5,-20 268.5,-20 268.5,0 410.5,0 410.5,-20"/>
<text text-anchor="middle" x="339.5" y="-6.5" font-family="Arial" font-size="10.00">MainPlayerState.generated.h</text>
</a>
</g>
</g>
<!-- Node1&#45;&gt;Node4 -->
<g id="edge3_Node000001_Node000004" class="edge">
<title>Node1&#45;&gt;Node4</title>
<g id="a_edge3_Node000001_Node000004"><a xlink:title=" ">
<path fill="none" stroke="#63b8ff" d="M202.41,-55.59C229.27,-46.86 269.5,-33.77 299.44,-24.03"/>
<polygon fill="#63b8ff" stroke="#63b8ff" points="300.49,-27.37 308.92,-20.95 298.33,-20.71 300.49,-27.37"/>
</a>
</g>
</g>
</g>
</svg>
