<?xml version="1.0" encoding="UTF-8" standalone="no"?>
<!DOCTYPE svg PUBLIC "-//W3C//DTD SVG 1.1//EN"
 "http://www.w3.org/Graphics/SVG/1.1/DTD/svg11.dtd">
<!-- Generated by graphviz version 12.2.1 (20241206.2353)
 -->
<!-- Title: ProjectileWeapon.cpp Pages: 1 -->
<!--zoomable 164 -->

<svg id="main" version="1.1" xmlns="http://www.w3.org/2000/svg" xmlns:xlink="http://www.w3.org/1999/xlink" xml:space="preserve" onload="init(evt)">

<style type="text/css"><![CDATA[
.node, .edge {opacity: 0.7;}
.node.selected, .edge.selected {opacity: 1;}
.edge:hover path { stroke: red; }
.edge:hover polygon { stroke: red; fill: red; }
]]></style>

<defs>
  <circle id="rim" cx="0" cy="0" r="7"/>
  <circle id="rim2" cx="0" cy="0" r="3.5"/>
  <g id="zoomPlus">
    <use xlink:href="#rim" fill="#404040"><set attributeName="fill" to="#808080" begin="zoomplus.mouseover" end="zoomplus.mouseout"/></use>
    <path d="M-4,0h8M0,-4v8" fill="none" stroke="white" stroke-width="1.5" pointer-events="none"/>
  </g>
  <g id="zoomMin">
    <use xlink:href="#rim" fill="#404040"><set attributeName="fill" to="#808080" begin="zoomminus.mouseover" end="zoomminus.mouseout"/></use>
    <path d="M-4,0h8" fill="none" stroke="white" stroke-width="1.5" pointer-events="none"/>
  </g>
  <g id="arrowUp" transform="translate(30 24)">
    <use xlink:href="#rim"/>
    <path pointer-events="none" fill="none" stroke="white" stroke-width="1.5" d="M0,-3.0v7 M-2.5,-0.5L0,-3.0L2.5,-0.5"/>
  </g>
  <g id="arrowRight" transform="rotate(90) translate(36 -43)">
    <use xlink:href="#rim"/>
    <path pointer-events="none" fill="none" stroke="white" stroke-width="1.5" d="M0,-3.0v7 M-2.5,-0.5L0,-3.0L2.5,-0.5"/>
  </g>
  <g id="arrowDown" transform="rotate(180) translate(-30 -48)">
    <use xlink:href="#rim"/>
    <path pointer-events="none" fill="none" stroke="white" stroke-width="1.5" d="M0,-3.0v7 M-2.5,-0.5L0,-3.0L2.5,-0.5"/>
  </g>
  <g id="arrowLeft" transform="rotate(270) translate(-36 17)">
    <use xlink:href="#rim"/>
    <path pointer-events="none" fill="none" stroke="white" stroke-width="1.5" d="M0,-3.0v7 M-2.5,-0.5L0,-3.0L2.5,-0.5"/>
  </g>
  <g id="resetDef">
    <use xlink:href="#rim2" fill="#404040"><set attributeName="fill" to="#808080" begin="reset.mouseover" end="reset.mouseout"/></use>
  </g>
</defs>
<script type="application/ecmascript">
var viewWidth = 717;
var viewHeight = 164;
var sectionId = 'dynsection-0';
</script>
<script type="application/ecmascript" xlink:href="svg.min.js"/>
<svg id="graph" class="graph">
<g id="viewport">
<title>ProjectileWeapon.cpp</title>
<!-- Node1 -->
<g id="Node000001" class="node">
<title>Node1</title>
<g id="a_Node000001"><a xlink:title=" ">
<polygon fill="#999999" stroke="#666666" points="494.12,-156 383.62,-156 383.62,-136 494.12,-136 494.12,-156"/>
<text text-anchor="middle" x="438.88" y="-142.5" font-family="Arial" font-size="10.00">ProjectileWeapon.cpp</text>
</a>
</g>
</g>
<!-- Node2 -->
<g id="Node000002" class="node">
<title>Node2</title>
<g id="a_Node000002"><a xlink:href="_projectile_weapon_8h.html" target="_top" xlink:title=" ">
<polygon fill="white" stroke="#666666" points="284.88,-94 184.88,-94 184.88,-74 284.88,-74 284.88,-94"/>
<text text-anchor="middle" x="234.88" y="-80.5" font-family="Arial" font-size="10.00">ProjectileWeapon.h</text>
</a>
</g>
</g>
<!-- Node1&#45;&gt;Node2 -->
<g id="edge1_Node000001_Node000002" class="edge">
<title>Node1&#45;&gt;Node2</title>
<g id="a_edge1_Node000001_Node000002"><a xlink:title=" ">
<path fill="none" stroke="#63b8ff" d="M407,-135.62C372.22,-125.4 316.36,-108.97 277.75,-97.61"/>
<polygon fill="#63b8ff" stroke="#63b8ff" points="278.9,-94.3 268.31,-94.84 276.92,-101.01 278.9,-94.3"/>
</a>
</g>
</g>
<!-- Node6 -->
<g id="Node000006" class="node">
<title>Node6</title>
<g id="a_Node000006"><a xlink:title=" ">
<polygon fill="#e0e0e0" stroke="#999999" points="450.5,-94 303.25,-94 303.25,-74 450.5,-74 450.5,-94"/>
<text text-anchor="middle" x="376.88" y="-80.5" font-family="Arial" font-size="10.00">Engine/SkeletalMeshSocket.h</text>
</a>
</g>
</g>
<!-- Node1&#45;&gt;Node6 -->
<g id="edge5_Node000001_Node000006" class="edge">
<title>Node1&#45;&gt;Node6</title>
<g id="a_edge5_Node000001_Node000006"><a xlink:title=" ">
<path fill="none" stroke="#63b8ff" d="M429.19,-135.62C419.94,-126.68 405.8,-112.99 394.55,-102.1"/>
<polygon fill="#63b8ff" stroke="#63b8ff" points="397,-99.6 387.38,-95.17 392.13,-104.63 397,-99.6"/>
</a>
</g>
</g>
<!-- Node7 -->
<g id="Node000007" class="node">
<title>Node7</title>
<g id="a_Node000007"><a xlink:href="_projectile_8h.html" target="_top" xlink:title=" ">
<polygon fill="white" stroke="#666666" points="533.25,-94 468.5,-94 468.5,-74 533.25,-74 533.25,-94"/>
<text text-anchor="middle" x="500.88" y="-80.5" font-family="Arial" font-size="10.00">Projectile.h</text>
</a>
</g>
</g>
<!-- Node1&#45;&gt;Node7 -->
<g id="edge6_Node000001_Node000007" class="edge">
<title>Node1&#45;&gt;Node7</title>
<g id="a_edge6_Node000001_Node000007"><a xlink:title=" ">
<path fill="none" stroke="#63b8ff" d="M448.56,-135.62C457.81,-126.68 471.95,-112.99 483.2,-102.1"/>
<polygon fill="#63b8ff" stroke="#63b8ff" points="485.62,-104.63 490.37,-95.17 480.75,-99.6 485.62,-104.63"/>
</a>
</g>
</g>
<!-- Node10 -->
<g id="Node000010" class="node">
<title>Node10</title>
<g id="a_Node000010"><a xlink:title=" ">
<polygon fill="#e0e0e0" stroke="#999999" points="708.75,-100 551,-100 551,-68 708.75,-68 708.75,-100"/>
<text text-anchor="start" x="559" y="-86.5" font-family="Arial" font-size="10.00">MultiplayerShooter</text>
<text text-anchor="middle" x="629.88" y="-74.5" font-family="Arial" font-size="10.00">/MainCharacter/MainCharacter.h</text>
</a>
</g>
</g>
<!-- Node1&#45;&gt;Node10 -->
<g id="edge10_Node000001_Node000010" class="edge">
<title>Node1&#45;&gt;Node10</title>
<g id="a_edge10_Node000001_Node000010"><a xlink:title=" ">
<path fill="none" stroke="#63b8ff" d="M468.72,-135.62C495.7,-127.15 536.24,-114.42 569.9,-103.84"/>
<polygon fill="#63b8ff" stroke="#63b8ff" points="570.63,-107.28 579.12,-100.94 568.53,-100.6 570.63,-107.28"/>
</a>
</g>
</g>
<!-- Node3 -->
<g id="Node000003" class="node">
<title>Node3</title>
<g id="a_Node000003"><a xlink:title=" ">
<polygon fill="#e0e0e0" stroke="#999999" points="414.38,-26 335.38,-26 335.38,-6 414.38,-6 414.38,-26"/>
<text text-anchor="middle" x="374.88" y="-12.5" font-family="Arial" font-size="10.00">CoreMinimal.h</text>
</a>
</g>
</g>
<!-- Node2&#45;&gt;Node3 -->
<g id="edge2_Node000002_Node000003" class="edge">
<title>Node2&#45;&gt;Node3</title>
<g id="a_edge2_Node000002_Node000003"><a xlink:title=" ">
<path fill="none" stroke="#63b8ff" d="M254.93,-73.54C278.43,-62.47 317.59,-44.01 344.74,-31.21"/>
<polygon fill="#63b8ff" stroke="#63b8ff" points="345.93,-34.51 353.48,-27.08 342.95,-28.18 345.93,-34.51"/>
</a>
</g>
</g>
<!-- Node4 -->
<g id="Node000004" class="node">
<title>Node4</title>
<g id="a_Node000004"><a xlink:title=" ">
<polygon fill="#e0e0e0" stroke="#999999" points="145.75,-32 0,-32 0,0 145.75,0 145.75,-32"/>
<text text-anchor="start" x="8" y="-18.5" font-family="Arial" font-size="10.00">MultiplayerShooter</text>
<text text-anchor="middle" x="72.88" y="-6.5" font-family="Arial" font-size="10.00">/BaseWeapon/BaseWeapon.h</text>
</a>
</g>
</g>
<!-- Node2&#45;&gt;Node4 -->
<g id="edge3_Node000002_Node000004" class="edge">
<title>Node2&#45;&gt;Node4</title>
<g id="a_edge3_Node000002_Node000004"><a xlink:title=" ">
<path fill="none" stroke="#63b8ff" d="M211.66,-73.54C188.21,-63.99 151.27,-48.94 121.39,-36.77"/>
<polygon fill="#63b8ff" stroke="#63b8ff" points="122.73,-33.53 112.15,-33 120.09,-40.01 122.73,-33.53"/>
</a>
</g>
</g>
<!-- Node5 -->
<g id="Node000005" class="node">
<title>Node5</title>
<g id="a_Node000005"><a xlink:title=" ">
<polygon fill="#e0e0e0" stroke="#999999" points="309.75,-26 164,-26 164,-6 309.75,-6 309.75,-26"/>
<text text-anchor="middle" x="236.88" y="-12.5" font-family="Arial" font-size="10.00">ProjectileWeapon.generated.h</text>
</a>
</g>
</g>
<!-- Node2&#45;&gt;Node5 -->
<g id="edge4_Node000002_Node000005" class="edge">
<title>Node2&#45;&gt;Node5</title>
<g id="a_edge4_Node000002_Node000005"><a xlink:title=" ">
<path fill="none" stroke="#63b8ff" d="M235.16,-73.54C235.44,-64.23 235.88,-49.7 236.25,-37.7"/>
<polygon fill="#63b8ff" stroke="#63b8ff" points="239.74,-38.05 236.54,-27.95 232.74,-37.84 239.74,-38.05"/>
</a>
</g>
</g>
<!-- Node7&#45;&gt;Node3 -->
<g id="edge7_Node000007_Node000003" class="edge">
<title>Node7&#45;&gt;Node3</title>
<g id="a_edge7_Node000007_Node000003"><a xlink:title=" ">
<path fill="none" stroke="#63b8ff" d="M482.82,-73.54C461.96,-62.61 427.37,-44.5 402.98,-31.72"/>
<polygon fill="#63b8ff" stroke="#63b8ff" points="404.72,-28.68 394.23,-27.14 401.47,-34.88 404.72,-28.68"/>
</a>
</g>
</g>
<!-- Node8 -->
<g id="Node000008" class="node">
<title>Node8</title>
<g id="a_Node000008"><a xlink:title=" ">
<polygon fill="#e0e0e0" stroke="#999999" points="561.62,-26 436.12,-26 436.12,-6 561.62,-6 561.62,-26"/>
<text text-anchor="middle" x="498.88" y="-12.5" font-family="Arial" font-size="10.00">GameFramework/Actor.h</text>
</a>
</g>
</g>
<!-- Node7&#45;&gt;Node8 -->
<g id="edge8_Node000007_Node000008" class="edge">
<title>Node7&#45;&gt;Node8</title>
<g id="a_edge8_Node000007_Node000008"><a xlink:title=" ">
<path fill="none" stroke="#63b8ff" d="M500.59,-73.54C500.31,-64.23 499.87,-49.7 499.5,-37.7"/>
<polygon fill="#63b8ff" stroke="#63b8ff" points="503.01,-37.84 499.21,-27.95 496.01,-38.05 503.01,-37.84"/>
</a>
</g>
</g>
<!-- Node9 -->
<g id="Node000009" class="node">
<title>Node9</title>
<g id="a_Node000009"><a xlink:title=" ">
<polygon fill="#e0e0e0" stroke="#999999" points="690.12,-26 579.62,-26 579.62,-6 690.12,-6 690.12,-26"/>
<text text-anchor="middle" x="634.88" y="-12.5" font-family="Arial" font-size="10.00">Projectile.generated.h</text>
</a>
</g>
</g>
<!-- Node7&#45;&gt;Node9 -->
<g id="edge9_Node000007_Node000009" class="edge">
<title>Node7&#45;&gt;Node9</title>
<g id="a_edge9_Node000007_Node000009"><a xlink:title=" ">
<path fill="none" stroke="#63b8ff" d="M520.07,-73.54C542.46,-62.52 579.71,-44.17 605.69,-31.38"/>
<polygon fill="#63b8ff" stroke="#63b8ff" points="606.93,-34.67 614.35,-27.11 603.84,-28.39 606.93,-34.67"/>
</a>
</g>
</g>
</g>
</svg>

<g id="navigator" transform="translate(0 0)" fill="#404254">
  <rect fill="#f2f5e9" fill-opacity="0.5" stroke="#606060" stroke-width=".5" x="0" y="0" width="60" height="60"/>
  <use id="zoomplus" xlink:href="#zoomPlus" x="17" y="9" onmousedown="handleZoom(evt,'in')"/>
  <use id="zoomminus" xlink:href="#zoomMin" x="42" y="9" onmousedown="handleZoom(evt,'out')"/>
  <use id="reset" xlink:href="#resetDef" x="30" y="36" onmousedown="handleReset()"/>
   <use id="arrowup" xlink:href="#arrowUp" x="0" y="0" onmousedown="handlePan(0,-1)"/>
  <use id="arrowright" xlink:href="#arrowRight" x="0" y="0" onmousedown="handlePan(1,0)"/>
  <use id="arrowdown" xlink:href="#arrowDown" x="0" y="0" onmousedown="handlePan(0,1)"/>
  <use id="arrowleft" xlink:href="#arrowLeft" x="0" y="0" onmousedown="handlePan(-1,0)"/>
</g>
<svg viewBox="0 0 15 15" width="100%" height="30px" preserveAspectRatio="xMaxYMin meet">
 <g id="arrow_out" transform="scale(0.3 0.3)">
  <a xlink:href="_projectile_weapon_8cpp__incl_org.svg" target="_base">
   <rect id="button" ry="5" rx="5" y="6" x="6" height="38" width="38"
        fill="#f2f5e9" fill-opacity="0.5" stroke="#606060" stroke-width="1.0"/>
   <path id="arrow"
     d="M 11.500037,31.436501 C 11.940474,20.09759 22.043105,11.32322 32.158766,21.979434 L 37.068811,17.246167 C 37.068811,17.246167 37.088388,32 37.088388,32 L 22.160133,31.978069 C 22.160133,31.978069 26.997745,27.140456 26.997745,27.140456 C 18.528582,18.264221 13.291696,25.230495 11.500037,31.436501 z"
     style="fill:#404040;"/>
  </a>
 </g>
</svg>

<style type='text/css'>
<![CDATA[
[data-mouse-over-selected='false'] { opacity: 0.7; }
[data-mouse-over-selected='true']  { opacity: 1.0; }
]]>
</style>
<script type="application/ecmascript"><![CDATA[
document.addEventListener('DOMContentLoaded', (event) => {
  highlightEdges();
  highlightAdjacentNodes();
});
]]></script>
</svg>
