<?xml version="1.0" encoding="UTF-8" standalone="no"?>
<!DOCTYPE svg PUBLIC "-//W3C//DTD SVG 1.1//EN"
 "http://www.w3.org/Graphics/SVG/1.1/DTD/svg11.dtd">
<!-- Generated by graphviz version 12.2.1 (20241206.2353)
 -->
<!-- Title: Projectile.cpp Pages: 1 -->
<svg width="1385pt" height="152pt"
 viewBox="0.00 0.00 1384.62 152.00" xmlns="http://www.w3.org/2000/svg" xmlns:xlink="http://www.w3.org/1999/xlink">
<g id="graph0" class="graph" transform="scale(1 1) rotate(0) translate(4 148)">
<title>Projectile.cpp</title>
<!-- Node1 -->
<g id="Node000001" class="node">
<title>Node1</title>
<g id="a_Node000001"><a xlink:title=" ">
<polygon fill="#999999" stroke="#666666" points="776.12,-144 700.88,-144 700.88,-124 776.12,-124 776.12,-144"/>
<text text-anchor="middle" x="738.5" y="-130.5" font-family="Arial" font-size="10.00">Projectile.cpp</text>
</a>
</g>
</g>
<!-- Node2 -->
<g id="Node000002" class="node">
<title>Node2</title>
<g id="a_Node000002"><a xlink:href="_projectile_8h.html" target="_top" xlink:title=" ">
<polygon fill="white" stroke="#666666" points="191.88,-82 127.12,-82 127.12,-62 191.88,-62 191.88,-82"/>
<text text-anchor="middle" x="159.5" y="-68.5" font-family="Arial" font-size="10.00">Projectile.h</text>
</a>
</g>
</g>
<!-- Node1&#45;&gt;Node2 -->
<g id="edge1_Node000001_Node000002" class="edge">
<title>Node1&#45;&gt;Node2</title>
<g id="a_edge1_Node000001_Node000002"><a xlink:title=" ">
<path fill="none" stroke="#63b8ff" d="M700.48,-133.28C611.78,-133.19 384.7,-128.63 200.5,-88 197.88,-87.42 195.19,-86.72 192.52,-85.93"/>
<polygon fill="#63b8ff" stroke="#63b8ff" points="193.76,-82.65 183.17,-82.83 191.56,-89.3 193.76,-82.65"/>
</a>
</g>
</g>
<!-- Node6 -->
<g id="Node000006" class="node">
<title>Node6</title>
<g id="a_Node000006"><a xlink:title=" ">
<polygon fill="#e0e0e0" stroke="#999999" points="333.5,-82 209.5,-82 209.5,-62 333.5,-62 333.5,-82"/>
<text text-anchor="middle" x="271.5" y="-68.5" font-family="Arial" font-size="10.00">NiagaraFunctionLibrary.h</text>
</a>
</g>
</g>
<!-- Node1&#45;&gt;Node6 -->
<g id="edge5_Node000001_Node000006" class="edge">
<title>Node1&#45;&gt;Node6</title>
<g id="a_edge5_Node000001_Node000006"><a xlink:title=" ">
<path fill="none" stroke="#63b8ff" d="M700.38,-129.88C629.59,-123.82 473.13,-109.17 342.5,-88 336.52,-87.03 330.27,-85.89 324.08,-84.69"/>
<polygon fill="#63b8ff" stroke="#63b8ff" points="325.03,-81.31 314.53,-82.77 323.64,-88.17 325.03,-81.31"/>
</a>
</g>
</g>
<!-- Node7 -->
<g id="Node000007" class="node">
<title>Node7</title>
<g id="a_Node000007"><a xlink:title=" ">
<polygon fill="#e0e0e0" stroke="#999999" points="501.62,-82 351.38,-82 351.38,-62 501.62,-62 501.62,-82"/>
<text text-anchor="middle" x="426.5" y="-68.5" font-family="Arial" font-size="10.00">Components/BoxComponent.h</text>
</a>
</g>
</g>
<!-- Node1&#45;&gt;Node7 -->
<g id="edge6_Node000001_Node000007" class="edge">
<title>Node1&#45;&gt;Node7</title>
<g id="a_edge6_Node000001_Node000007"><a xlink:title=" ">
<path fill="none" stroke="#63b8ff" d="M700.55,-125.7C647.32,-115.46 549.91,-96.73 486.71,-84.58"/>
<polygon fill="#63b8ff" stroke="#63b8ff" points="487.68,-81.2 477.2,-82.75 486.36,-88.08 487.68,-81.2"/>
</a>
</g>
</g>
<!-- Node8 -->
<g id="Node000008" class="node">
<title>Node8</title>
<g id="a_Node000008"><a xlink:title=" ">
<polygon fill="#e0e0e0" stroke="#999999" points="653.75,-88 519.25,-88 519.25,-56 653.75,-56 653.75,-88"/>
<text text-anchor="start" x="527.25" y="-74.5" font-family="Arial" font-size="10.00">GameFramework/Projectile</text>
<text text-anchor="middle" x="586.5" y="-62.5" font-family="Arial" font-size="10.00">MovementComponent.h</text>
</a>
</g>
</g>
<!-- Node1&#45;&gt;Node8 -->
<g id="edge7_Node000001_Node000008" class="edge">
<title>Node1&#45;&gt;Node8</title>
<g id="a_edge7_Node000001_Node000008"><a xlink:title=" ">
<path fill="none" stroke="#63b8ff" d="M714.75,-123.62C693.84,-115.37 662.69,-103.07 636.33,-92.67"/>
<polygon fill="#63b8ff" stroke="#63b8ff" points="637.74,-89.46 627.15,-89.05 635.17,-95.97 637.74,-89.46"/>
</a>
</g>
</g>
<!-- Node9 -->
<g id="Node000009" class="node">
<title>Node9</title>
<g id="a_Node000009"><a xlink:title=" ">
<polygon fill="#e0e0e0" stroke="#999999" points="805,-82 672,-82 672,-62 805,-62 805,-82"/>
<text text-anchor="middle" x="738.5" y="-68.5" font-family="Arial" font-size="10.00">Kismet/GameplayStatics.h</text>
</a>
</g>
</g>
<!-- Node1&#45;&gt;Node9 -->
<g id="edge8_Node000001_Node000009" class="edge">
<title>Node1&#45;&gt;Node9</title>
<g id="a_edge8_Node000001_Node000009"><a xlink:title=" ">
<path fill="none" stroke="#63b8ff" d="M738.5,-123.62C738.5,-115.56 738.5,-103.65 738.5,-93.41"/>
<polygon fill="#63b8ff" stroke="#63b8ff" points="742,-93.63 738.5,-83.63 735,-93.63 742,-93.63"/>
</a>
</g>
</g>
<!-- Node10 -->
<g id="Node000010" class="node">
<title>Node10</title>
<g id="a_Node000010"><a xlink:title=" ">
<polygon fill="#e0e0e0" stroke="#999999" points="980.38,-88 822.62,-88 822.62,-56 980.38,-56 980.38,-88"/>
<text text-anchor="start" x="830.62" y="-74.5" font-family="Arial" font-size="10.00">MultiplayerShooter</text>
<text text-anchor="middle" x="901.5" y="-62.5" font-family="Arial" font-size="10.00">/MainCharacter/MainCharacter.h</text>
</a>
</g>
</g>
<!-- Node1&#45;&gt;Node10 -->
<g id="edge9_Node000001_Node000010" class="edge">
<title>Node1&#45;&gt;Node10</title>
<g id="a_edge9_Node000001_Node000010"><a xlink:title=" ">
<path fill="none" stroke="#63b8ff" d="M763.97,-123.62C786.6,-115.3 820.39,-102.86 848.82,-92.39"/>
<polygon fill="#63b8ff" stroke="#63b8ff" points="849.82,-95.75 858,-89.01 847.4,-89.18 849.82,-95.75"/>
</a>
</g>
</g>
<!-- Node11 -->
<g id="Node000011" class="node">
<title>Node11</title>
<g id="a_Node000011"><a xlink:title=" ">
<polygon fill="#e0e0e0" stroke="#999999" points="1130.62,-82 998.38,-82 998.38,-62 1130.62,-62 1130.62,-82"/>
<text text-anchor="middle" x="1064.5" y="-68.5" font-family="Arial" font-size="10.00">Particles/ParticleSystem.h</text>
</a>
</g>
</g>
<!-- Node1&#45;&gt;Node11 -->
<g id="edge10_Node000001_Node000011" class="edge">
<title>Node1&#45;&gt;Node11</title>
<g id="a_edge10_Node000001_Node000011"><a xlink:title=" ">
<path fill="none" stroke="#63b8ff" d="M776.39,-126.45C825.57,-117.89 914.03,-102.31 989.5,-88 995.14,-86.93 1001.02,-85.79 1006.9,-84.64"/>
<polygon fill="#63b8ff" stroke="#63b8ff" points="1007.5,-88.09 1016.63,-82.72 1006.15,-81.22 1007.5,-88.09"/>
</a>
</g>
</g>
<!-- Node12 -->
<g id="Node000012" class="node">
<title>Node12</title>
<g id="a_Node000012"><a xlink:title=" ">
<polygon fill="#e0e0e0" stroke="#999999" points="1249.88,-82 1149.12,-82 1149.12,-62 1249.88,-62 1249.88,-82"/>
<text text-anchor="middle" x="1199.5" y="-68.5" font-family="Arial" font-size="10.00">Sound/SoundCue.h</text>
</a>
</g>
</g>
<!-- Node1&#45;&gt;Node12 -->
<g id="edge11_Node000001_Node000012" class="edge">
<title>Node1&#45;&gt;Node12</title>
<g id="a_edge11_Node000001_Node000012"><a xlink:title=" ">
<path fill="none" stroke="#63b8ff" d="M776.62,-130.42C848.17,-125.21 1007.3,-111.83 1139.5,-88 1144.2,-87.15 1149.07,-86.15 1153.92,-85.07"/>
<polygon fill="#63b8ff" stroke="#63b8ff" points="1154.68,-88.48 1163.61,-82.78 1153.08,-81.67 1154.68,-88.48"/>
</a>
</g>
</g>
<!-- Node13 -->
<g id="Node000013" class="node">
<title>Node13</title>
<g id="a_Node000013"><a xlink:title=" ">
<polygon fill="#e0e0e0" stroke="#999999" points="1376.62,-88 1268.38,-88 1268.38,-56 1376.62,-56 1376.62,-88"/>
<text text-anchor="start" x="1276.38" y="-74.5" font-family="Arial" font-size="10.00">MultiplayerShooter</text>
<text text-anchor="middle" x="1322.5" y="-62.5" font-family="Arial" font-size="10.00">/MultiplayerShooter.h</text>
</a>
</g>
</g>
<!-- Node1&#45;&gt;Node13 -->
<g id="edge12_Node000001_Node000013" class="edge">
<title>Node1&#45;&gt;Node13</title>
<g id="a_edge12_Node000001_Node000013"><a xlink:title=" ">
<path fill="none" stroke="#63b8ff" d="M776.57,-131.58C861.09,-128.04 1070.91,-117.02 1256.78,-88.1"/>
<polygon fill="#63b8ff" stroke="#63b8ff" points="1257.31,-91.56 1266.64,-86.54 1256.22,-84.64 1257.31,-91.56"/>
</a>
</g>
</g>
<!-- Node3 -->
<g id="Node000003" class="node">
<title>Node3</title>
<g id="a_Node000003"><a xlink:title=" ">
<polygon fill="#e0e0e0" stroke="#999999" points="79,-20 0,-20 0,0 79,0 79,-20"/>
<text text-anchor="middle" x="39.5" y="-6.5" font-family="Arial" font-size="10.00">CoreMinimal.h</text>
</a>
</g>
</g>
<!-- Node2&#45;&gt;Node3 -->
<g id="edge2_Node000002_Node000003" class="edge">
<title>Node2&#45;&gt;Node3</title>
<g id="a_edge2_Node000002_Node000003"><a xlink:title=" ">
<path fill="none" stroke="#63b8ff" d="M140.75,-61.62C121.29,-51.89 90.6,-36.55 68.11,-25.31"/>
<polygon fill="#63b8ff" stroke="#63b8ff" points="69.98,-22.33 59.47,-20.99 66.85,-28.59 69.98,-22.33"/>
</a>
</g>
</g>
<!-- Node4 -->
<g id="Node000004" class="node">
<title>Node4</title>
<g id="a_Node000004"><a xlink:title=" ">
<polygon fill="#e0e0e0" stroke="#999999" points="222.25,-20 96.75,-20 96.75,0 222.25,0 222.25,-20"/>
<text text-anchor="middle" x="159.5" y="-6.5" font-family="Arial" font-size="10.00">GameFramework/Actor.h</text>
</a>
</g>
</g>
<!-- Node2&#45;&gt;Node4 -->
<g id="edge3_Node000002_Node000004" class="edge">
<title>Node2&#45;&gt;Node4</title>
<g id="a_edge3_Node000002_Node000004"><a xlink:title=" ">
<path fill="none" stroke="#63b8ff" d="M159.5,-61.62C159.5,-53.56 159.5,-41.65 159.5,-31.41"/>
<polygon fill="#63b8ff" stroke="#63b8ff" points="163,-31.63 159.5,-21.63 156,-31.63 163,-31.63"/>
</a>
</g>
</g>
<!-- Node5 -->
<g id="Node000005" class="node">
<title>Node5</title>
<g id="a_Node000005"><a xlink:title=" ">
<polygon fill="#e0e0e0" stroke="#999999" points="350.75,-20 240.25,-20 240.25,0 350.75,0 350.75,-20"/>
<text text-anchor="middle" x="295.5" y="-6.5" font-family="Arial" font-size="10.00">Projectile.generated.h</text>
</a>
</g>
</g>
<!-- Node2&#45;&gt;Node5 -->
<g id="edge4_Node000002_Node000005" class="edge">
<title>Node2&#45;&gt;Node5</title>
<g id="a_edge4_Node000002_Node000005"><a xlink:title=" ">
<path fill="none" stroke="#63b8ff" d="M180.75,-61.62C203.11,-51.76 238.53,-36.13 264.11,-24.85"/>
<polygon fill="#63b8ff" stroke="#63b8ff" points="265.28,-28.16 273.01,-20.92 262.45,-21.75 265.28,-28.16"/>
</a>
</g>
</g>
</g>
</svg>
