<?xml version="1.0" encoding="UTF-8" standalone="no"?>
<!DOCTYPE svg PUBLIC "-//W3C//DTD SVG 1.1//EN"
 "http://www.w3.org/Graphics/SVG/1.1/DTD/svg11.dtd">
<!-- Generated by graphviz version 12.2.1 (20241206.2353)
 -->
<!-- Title: ProjectileBullet.cpp Pages: 1 -->
<svg width="1188pt" height="220pt"
 viewBox="0.00 0.00 1188.00 220.00" xmlns="http://www.w3.org/2000/svg" xmlns:xlink="http://www.w3.org/1999/xlink">
<g id="graph0" class="graph" transform="scale(1 1) rotate(0) translate(4 216)">
<title>ProjectileBullet.cpp</title>
<!-- Node1 -->
<g id="Node000001" class="node">
<title>Node1</title>
<g id="a_Node000001"><a xlink:title=" ">
<polygon fill="#999999" stroke="#666666" points="638.5,-212 538.5,-212 538.5,-192 638.5,-192 638.5,-212"/>
<text text-anchor="middle" x="588.5" y="-198.5" font-family="Arial" font-size="10.00">ProjectileBullet.cpp</text>
</a>
</g>
</g>
<!-- Node2 -->
<g id="Node000002" class="node">
<title>Node2</title>
<g id="a_Node000002"><a xlink:href="_projectile_bullet_8h.html" target="_top" xlink:title=" ">
<polygon fill="white" stroke="#666666" points="189.25,-144 99.75,-144 99.75,-124 189.25,-124 189.25,-144"/>
<text text-anchor="middle" x="144.5" y="-130.5" font-family="Arial" font-size="10.00">ProjectileBullet.h</text>
</a>
</g>
</g>
<!-- Node1&#45;&gt;Node2 -->
<g id="edge1_Node000001_Node000002" class="edge">
<title>Node1&#45;&gt;Node2</title>
<g id="a_edge1_Node000001_Node000002"><a xlink:title=" ">
<path fill="none" stroke="#63b8ff" d="M538.21,-199.3C463.22,-195.85 318.08,-185.63 198.5,-156 190.98,-154.14 183.09,-151.49 175.75,-148.71"/>
<polygon fill="#63b8ff" stroke="#63b8ff" points="177.11,-145.48 166.53,-145.02 174.51,-151.98 177.11,-145.48"/>
</a>
</g>
</g>
<!-- Node8 -->
<g id="Node000008" class="node">
<title>Node8</title>
<g id="a_Node000008"><a xlink:title=" ">
<polygon fill="#e0e0e0" stroke="#999999" points="340,-144 207,-144 207,-124 340,-124 340,-144"/>
<text text-anchor="middle" x="273.5" y="-130.5" font-family="Arial" font-size="10.00">Kismet/GameplayStatics.h</text>
</a>
</g>
</g>
<!-- Node1&#45;&gt;Node8 -->
<g id="edge8_Node000001_Node000008" class="edge">
<title>Node1&#45;&gt;Node8</title>
<g id="a_edge8_Node000001_Node000008"><a xlink:title=" ">
<path fill="none" stroke="#63b8ff" d="M538.35,-192.81C489.82,-184.59 414.28,-171.02 349.5,-156 338.71,-153.5 327.15,-150.48 316.39,-147.52"/>
<polygon fill="#63b8ff" stroke="#63b8ff" points="317.55,-144.21 306.98,-144.89 315.67,-150.96 317.55,-144.21"/>
</a>
</g>
</g>
<!-- Node9 -->
<g id="Node000009" class="node">
<title>Node9</title>
<g id="a_Node000009"><a xlink:title=" ">
<polygon fill="#e0e0e0" stroke="#999999" points="503,-144 358,-144 358,-124 503,-124 503,-144"/>
<text text-anchor="middle" x="430.5" y="-130.5" font-family="Arial" font-size="10.00">GameFramework/Character.h</text>
</a>
</g>
</g>
<!-- Node1&#45;&gt;Node9 -->
<g id="edge9_Node000001_Node000009" class="edge">
<title>Node1&#45;&gt;Node9</title>
<g id="a_edge9_Node000001_Node000009"><a xlink:title=" ">
<path fill="none" stroke="#63b8ff" d="M565.86,-191.54C539.11,-180.37 494.37,-161.68 463.7,-148.87"/>
<polygon fill="#63b8ff" stroke="#63b8ff" points="465.07,-145.65 454.49,-145.02 462.37,-152.11 465.07,-145.65"/>
</a>
</g>
</g>
<!-- Node10 -->
<g id="Node000010" class="node">
<title>Node10</title>
<g id="a_Node000010"><a xlink:title=" ">
<polygon fill="#e0e0e0" stroke="#999999" points="655.75,-150 521.25,-150 521.25,-118 655.75,-118 655.75,-150"/>
<text text-anchor="start" x="529.25" y="-136.5" font-family="Arial" font-size="10.00">GameFramework/Projectile</text>
<text text-anchor="middle" x="588.5" y="-124.5" font-family="Arial" font-size="10.00">MovementComponent.h</text>
</a>
</g>
</g>
<!-- Node1&#45;&gt;Node10 -->
<g id="edge10_Node000001_Node000010" class="edge">
<title>Node1&#45;&gt;Node10</title>
<g id="a_edge10_Node000001_Node000010"><a xlink:title=" ">
<path fill="none" stroke="#63b8ff" d="M588.5,-191.54C588.5,-183.72 588.5,-172.22 588.5,-161.63"/>
<polygon fill="#63b8ff" stroke="#63b8ff" points="592,-161.81 588.5,-151.81 585,-161.81 592,-161.81"/>
</a>
</g>
</g>
<!-- Node11 -->
<g id="Node000011" class="node">
<title>Node11</title>
<g id="a_Node000011"><a xlink:title=" ">
<polygon fill="#e0e0e0" stroke="#999999" points="853.25,-156 673.75,-156 673.75,-112 853.25,-112 853.25,-156"/>
<text text-anchor="start" x="681.75" y="-142.5" font-family="Arial" font-size="10.00">MultiplayerShooter</text>
<text text-anchor="start" x="681.75" y="-130.5" font-family="Arial" font-size="10.00">/ActorComponents/LagCompensation</text>
<text text-anchor="middle" x="763.5" y="-118.5" font-family="Arial" font-size="10.00">Component.h</text>
</a>
</g>
</g>
<!-- Node1&#45;&gt;Node11 -->
<g id="edge11_Node000001_Node000011" class="edge">
<title>Node1&#45;&gt;Node11</title>
<g id="a_edge11_Node000001_Node000011"><a xlink:title=" ">
<path fill="none" stroke="#63b8ff" d="M613.57,-191.54C635.12,-183.42 667.21,-171.32 696.18,-160.39"/>
<polygon fill="#63b8ff" stroke="#63b8ff" points="697.14,-163.77 705.27,-156.96 694.67,-157.22 697.14,-163.77"/>
</a>
</g>
</g>
<!-- Node12 -->
<g id="Node000012" class="node">
<title>Node12</title>
<g id="a_Node000012"><a xlink:title=" ">
<polygon fill="#e0e0e0" stroke="#999999" points="1029.38,-150 871.62,-150 871.62,-118 1029.38,-118 1029.38,-150"/>
<text text-anchor="start" x="879.62" y="-136.5" font-family="Arial" font-size="10.00">MultiplayerShooter</text>
<text text-anchor="middle" x="950.5" y="-124.5" font-family="Arial" font-size="10.00">/MainCharacter/MainCharacter.h</text>
</a>
</g>
</g>
<!-- Node1&#45;&gt;Node12 -->
<g id="edge12_Node000001_Node000012" class="edge">
<title>Node1&#45;&gt;Node12</title>
<g id="a_edge12_Node000001_Node000012"><a xlink:title=" ">
<path fill="none" stroke="#63b8ff" d="M638.95,-193.82C694.07,-185.72 784.88,-171.62 862.5,-156 867.31,-155.03 872.25,-153.99 877.23,-152.9"/>
<polygon fill="#63b8ff" stroke="#63b8ff" points="877.65,-156.39 886.65,-150.8 876.13,-149.56 877.65,-156.39"/>
</a>
</g>
</g>
<!-- Node13 -->
<g id="Node000013" class="node">
<title>Node13</title>
<g id="a_Node000013"><a xlink:title=" ">
<polygon fill="#e0e0e0" stroke="#999999" points="1180,-156 1047,-156 1047,-112 1180,-112 1180,-156"/>
<text text-anchor="start" x="1055" y="-142.5" font-family="Arial" font-size="10.00">MultiplayerShooter</text>
<text text-anchor="start" x="1055" y="-130.5" font-family="Arial" font-size="10.00">/PlayerController/MyPlayer</text>
<text text-anchor="middle" x="1113.5" y="-118.5" font-family="Arial" font-size="10.00">Controller.h</text>
</a>
</g>
</g>
<!-- Node1&#45;&gt;Node13 -->
<g id="edge13_Node000001_Node000013" class="edge">
<title>Node1&#45;&gt;Node13</title>
<g id="a_edge13_Node000001_Node000013"><a xlink:title=" ">
<path fill="none" stroke="#63b8ff" d="M638.85,-198.81C720.43,-194.66 886.62,-183.61 1035.44,-156.43"/>
<polygon fill="#63b8ff" stroke="#63b8ff" points="1035.9,-159.9 1045.09,-154.63 1034.62,-153.02 1035.9,-159.9"/>
</a>
</g>
</g>
<!-- Node3 -->
<g id="Node000003" class="node">
<title>Node3</title>
<g id="a_Node000003"><a xlink:title=" ">
<polygon fill="#e0e0e0" stroke="#999999" points="79,-20 0,-20 0,0 79,0 79,-20"/>
<text text-anchor="middle" x="39.5" y="-6.5" font-family="Arial" font-size="10.00">CoreMinimal.h</text>
</a>
</g>
</g>
<!-- Node2&#45;&gt;Node3 -->
<g id="edge2_Node000002_Node000003" class="edge">
<title>Node2&#45;&gt;Node3</title>
<g id="a_edge2_Node000002_Node000003"><a xlink:title=" ">
<path fill="none" stroke="#63b8ff" d="M136.61,-123.83C119.28,-103.69 77.63,-55.31 54.92,-28.91"/>
<polygon fill="#63b8ff" stroke="#63b8ff" points="57.65,-26.72 48.47,-21.42 52.34,-31.29 57.65,-26.72"/>
</a>
</g>
</g>
<!-- Node4 -->
<g id="Node000004" class="node">
<title>Node4</title>
<g id="a_Node000004"><a xlink:href="_projectile_8h.html" target="_top" xlink:title=" ">
<polygon fill="white" stroke="#666666" points="176.88,-76 112.12,-76 112.12,-56 176.88,-56 176.88,-76"/>
<text text-anchor="middle" x="144.5" y="-62.5" font-family="Arial" font-size="10.00">Projectile.h</text>
</a>
</g>
</g>
<!-- Node2&#45;&gt;Node4 -->
<g id="edge3_Node000002_Node000004" class="edge">
<title>Node2&#45;&gt;Node4</title>
<g id="a_edge3_Node000002_Node000004"><a xlink:title=" ">
<path fill="none" stroke="#63b8ff" d="M144.5,-123.54C144.5,-114.23 144.5,-99.7 144.5,-87.7"/>
<polygon fill="#63b8ff" stroke="#63b8ff" points="148,-87.95 144.5,-77.95 141,-87.95 148,-87.95"/>
</a>
</g>
</g>
<!-- Node7 -->
<g id="Node000007" class="node">
<title>Node7</title>
<g id="a_Node000007"><a xlink:title=" ">
<polygon fill="#e0e0e0" stroke="#999999" points="330.12,-76 194.88,-76 194.88,-56 330.12,-56 330.12,-76"/>
<text text-anchor="middle" x="262.5" y="-62.5" font-family="Arial" font-size="10.00">ProjectileBullet.generated.h</text>
</a>
</g>
</g>
<!-- Node2&#45;&gt;Node7 -->
<g id="edge7_Node000002_Node000007" class="edge">
<title>Node2&#45;&gt;Node7</title>
<g id="a_edge7_Node000002_Node000007"><a xlink:title=" ">
<path fill="none" stroke="#63b8ff" d="M161.41,-123.54C180.86,-112.66 213.05,-94.66 235.88,-81.89"/>
<polygon fill="#63b8ff" stroke="#63b8ff" points="237.28,-85.11 244.3,-77.18 233.87,-79 237.28,-85.11"/>
</a>
</g>
</g>
<!-- Node4&#45;&gt;Node3 -->
<g id="edge4_Node000004_Node000003" class="edge">
<title>Node4&#45;&gt;Node3</title>
<g id="a_edge4_Node000004_Node000003"><a xlink:title=" ">
<path fill="none" stroke="#63b8ff" d="M126.21,-55.59C110.2,-47.36 86.67,-35.26 68.16,-25.74"/>
<polygon fill="#63b8ff" stroke="#63b8ff" points="69.77,-22.63 59.28,-21.17 66.57,-28.86 69.77,-22.63"/>
</a>
</g>
</g>
<!-- Node5 -->
<g id="Node000005" class="node">
<title>Node5</title>
<g id="a_Node000005"><a xlink:title=" ">
<polygon fill="#e0e0e0" stroke="#999999" points="222.25,-20 96.75,-20 96.75,0 222.25,0 222.25,-20"/>
<text text-anchor="middle" x="159.5" y="-6.5" font-family="Arial" font-size="10.00">GameFramework/Actor.h</text>
</a>
</g>
</g>
<!-- Node4&#45;&gt;Node5 -->
<g id="edge5_Node000004_Node000005" class="edge">
<title>Node4&#45;&gt;Node5</title>
<g id="a_edge5_Node000004_Node000005"><a xlink:title=" ">
<path fill="none" stroke="#63b8ff" d="M147.11,-55.59C148.98,-48.86 151.57,-39.53 153.9,-31.15"/>
<polygon fill="#63b8ff" stroke="#63b8ff" points="157.21,-32.33 156.51,-21.76 150.46,-30.46 157.21,-32.33"/>
</a>
</g>
</g>
<!-- Node6 -->
<g id="Node000006" class="node">
<title>Node6</title>
<g id="a_Node000006"><a xlink:title=" ">
<polygon fill="#e0e0e0" stroke="#999999" points="350.75,-20 240.25,-20 240.25,0 350.75,0 350.75,-20"/>
<text text-anchor="middle" x="295.5" y="-6.5" font-family="Arial" font-size="10.00">Projectile.generated.h</text>
</a>
</g>
</g>
<!-- Node4&#45;&gt;Node6 -->
<g id="edge6_Node000004_Node000006" class="edge">
<title>Node4&#45;&gt;Node6</title>
<g id="a_edge6_Node000004_Node000006"><a xlink:title=" ">
<path fill="none" stroke="#63b8ff" d="M170.8,-55.59C195.01,-46.94 231.18,-34 258.34,-24.29"/>
<polygon fill="#63b8ff" stroke="#63b8ff" points="259.33,-27.65 267.57,-20.99 256.97,-21.06 259.33,-27.65"/>
</a>
</g>
</g>
</g>
</svg>
