<?xml version="1.0" encoding="UTF-8" standalone="no"?>
<!DOCTYPE svg PUBLIC "-//W3C//DTD SVG 1.1//EN"
 "http://www.w3.org/Graphics/SVG/1.1/DTD/svg11.dtd">
<!-- Generated by graphviz version 12.2.1 (20241206.2353)
 -->
<!-- Title: ProjectileWeapon.cpp Pages: 1 -->
<svg width="717pt" height="164pt"
 viewBox="0.00 0.00 716.75 164.00" xmlns="http://www.w3.org/2000/svg" xmlns:xlink="http://www.w3.org/1999/xlink">
<g id="graph0" class="graph" transform="scale(1 1) rotate(0) translate(4 160)">
<title>ProjectileWeapon.cpp</title>
<!-- Node1 -->
<g id="Node000001" class="node">
<title>Node1</title>
<g id="a_Node000001"><a xlink:title=" ">
<polygon fill="#999999" stroke="#666666" points="494.12,-156 383.62,-156 383.62,-136 494.12,-136 494.12,-156"/>
<text text-anchor="middle" x="438.88" y="-142.5" font-family="Arial" font-size="10.00">ProjectileWeapon.cpp</text>
</a>
</g>
</g>
<!-- Node2 -->
<g id="Node000002" class="node">
<title>Node2</title>
<g id="a_Node000002"><a xlink:href="_projectile_weapon_8h.html" target="_top" xlink:title=" ">
<polygon fill="white" stroke="#666666" points="284.88,-94 184.88,-94 184.88,-74 284.88,-74 284.88,-94"/>
<text text-anchor="middle" x="234.88" y="-80.5" font-family="Arial" font-size="10.00">ProjectileWeapon.h</text>
</a>
</g>
</g>
<!-- Node1&#45;&gt;Node2 -->
<g id="edge1_Node000001_Node000002" class="edge">
<title>Node1&#45;&gt;Node2</title>
<g id="a_edge1_Node000001_Node000002"><a xlink:title=" ">
<path fill="none" stroke="#63b8ff" d="M407,-135.62C372.22,-125.4 316.36,-108.97 277.75,-97.61"/>
<polygon fill="#63b8ff" stroke="#63b8ff" points="278.9,-94.3 268.31,-94.84 276.92,-101.01 278.9,-94.3"/>
</a>
</g>
</g>
<!-- Node6 -->
<g id="Node000006" class="node">
<title>Node6</title>
<g id="a_Node000006"><a xlink:title=" ">
<polygon fill="#e0e0e0" stroke="#999999" points="450.5,-94 303.25,-94 303.25,-74 450.5,-74 450.5,-94"/>
<text text-anchor="middle" x="376.88" y="-80.5" font-family="Arial" font-size="10.00">Engine/SkeletalMeshSocket.h</text>
</a>
</g>
</g>
<!-- Node1&#45;&gt;Node6 -->
<g id="edge5_Node000001_Node000006" class="edge">
<title>Node1&#45;&gt;Node6</title>
<g id="a_edge5_Node000001_Node000006"><a xlink:title=" ">
<path fill="none" stroke="#63b8ff" d="M429.19,-135.62C419.94,-126.68 405.8,-112.99 394.55,-102.1"/>
<polygon fill="#63b8ff" stroke="#63b8ff" points="397,-99.6 387.38,-95.17 392.13,-104.63 397,-99.6"/>
</a>
</g>
</g>
<!-- Node7 -->
<g id="Node000007" class="node">
<title>Node7</title>
<g id="a_Node000007"><a xlink:href="_projectile_8h.html" target="_top" xlink:title=" ">
<polygon fill="white" stroke="#666666" points="533.25,-94 468.5,-94 468.5,-74 533.25,-74 533.25,-94"/>
<text text-anchor="middle" x="500.88" y="-80.5" font-family="Arial" font-size="10.00">Projectile.h</text>
</a>
</g>
</g>
<!-- Node1&#45;&gt;Node7 -->
<g id="edge6_Node000001_Node000007" class="edge">
<title>Node1&#45;&gt;Node7</title>
<g id="a_edge6_Node000001_Node000007"><a xlink:title=" ">
<path fill="none" stroke="#63b8ff" d="M448.56,-135.62C457.81,-126.68 471.95,-112.99 483.2,-102.1"/>
<polygon fill="#63b8ff" stroke="#63b8ff" points="485.62,-104.63 490.37,-95.17 480.75,-99.6 485.62,-104.63"/>
</a>
</g>
</g>
<!-- Node10 -->
<g id="Node000010" class="node">
<title>Node10</title>
<g id="a_Node000010"><a xlink:title=" ">
<polygon fill="#e0e0e0" stroke="#999999" points="708.75,-100 551,-100 551,-68 708.75,-68 708.75,-100"/>
<text text-anchor="start" x="559" y="-86.5" font-family="Arial" font-size="10.00">MultiplayerShooter</text>
<text text-anchor="middle" x="629.88" y="-74.5" font-family="Arial" font-size="10.00">/MainCharacter/MainCharacter.h</text>
</a>
</g>
</g>
<!-- Node1&#45;&gt;Node10 -->
<g id="edge10_Node000001_Node000010" class="edge">
<title>Node1&#45;&gt;Node10</title>
<g id="a_edge10_Node000001_Node000010"><a xlink:title=" ">
<path fill="none" stroke="#63b8ff" d="M468.72,-135.62C495.7,-127.15 536.24,-114.42 569.9,-103.84"/>
<polygon fill="#63b8ff" stroke="#63b8ff" points="570.63,-107.28 579.12,-100.94 568.53,-100.6 570.63,-107.28"/>
</a>
</g>
</g>
<!-- Node3 -->
<g id="Node000003" class="node">
<title>Node3</title>
<g id="a_Node000003"><a xlink:title=" ">
<polygon fill="#e0e0e0" stroke="#999999" points="414.38,-26 335.38,-26 335.38,-6 414.38,-6 414.38,-26"/>
<text text-anchor="middle" x="374.88" y="-12.5" font-family="Arial" font-size="10.00">CoreMinimal.h</text>
</a>
</g>
</g>
<!-- Node2&#45;&gt;Node3 -->
<g id="edge2_Node000002_Node000003" class="edge">
<title>Node2&#45;&gt;Node3</title>
<g id="a_edge2_Node000002_Node000003"><a xlink:title=" ">
<path fill="none" stroke="#63b8ff" d="M254.93,-73.54C278.43,-62.47 317.59,-44.01 344.74,-31.21"/>
<polygon fill="#63b8ff" stroke="#63b8ff" points="345.93,-34.51 353.48,-27.08 342.95,-28.18 345.93,-34.51"/>
</a>
</g>
</g>
<!-- Node4 -->
<g id="Node000004" class="node">
<title>Node4</title>
<g id="a_Node000004"><a xlink:title=" ">
<polygon fill="#e0e0e0" stroke="#999999" points="145.75,-32 0,-32 0,0 145.75,0 145.75,-32"/>
<text text-anchor="start" x="8" y="-18.5" font-family="Arial" font-size="10.00">MultiplayerShooter</text>
<text text-anchor="middle" x="72.88" y="-6.5" font-family="Arial" font-size="10.00">/BaseWeapon/BaseWeapon.h</text>
</a>
</g>
</g>
<!-- Node2&#45;&gt;Node4 -->
<g id="edge3_Node000002_Node000004" class="edge">
<title>Node2&#45;&gt;Node4</title>
<g id="a_edge3_Node000002_Node000004"><a xlink:title=" ">
<path fill="none" stroke="#63b8ff" d="M211.66,-73.54C188.21,-63.99 151.27,-48.94 121.39,-36.77"/>
<polygon fill="#63b8ff" stroke="#63b8ff" points="122.73,-33.53 112.15,-33 120.09,-40.01 122.73,-33.53"/>
</a>
</g>
</g>
<!-- Node5 -->
<g id="Node000005" class="node">
<title>Node5</title>
<g id="a_Node000005"><a xlink:title=" ">
<polygon fill="#e0e0e0" stroke="#999999" points="309.75,-26 164,-26 164,-6 309.75,-6 309.75,-26"/>
<text text-anchor="middle" x="236.88" y="-12.5" font-family="Arial" font-size="10.00">ProjectileWeapon.generated.h</text>
</a>
</g>
</g>
<!-- Node2&#45;&gt;Node5 -->
<g id="edge4_Node000002_Node000005" class="edge">
<title>Node2&#45;&gt;Node5</title>
<g id="a_edge4_Node000002_Node000005"><a xlink:title=" ">
<path fill="none" stroke="#63b8ff" d="M235.16,-73.54C235.44,-64.23 235.88,-49.7 236.25,-37.7"/>
<polygon fill="#63b8ff" stroke="#63b8ff" points="239.74,-38.05 236.54,-27.95 232.74,-37.84 239.74,-38.05"/>
</a>
</g>
</g>
<!-- Node7&#45;&gt;Node3 -->
<g id="edge7_Node000007_Node000003" class="edge">
<title>Node7&#45;&gt;Node3</title>
<g id="a_edge7_Node000007_Node000003"><a xlink:title=" ">
<path fill="none" stroke="#63b8ff" d="M482.82,-73.54C461.96,-62.61 427.37,-44.5 402.98,-31.72"/>
<polygon fill="#63b8ff" stroke="#63b8ff" points="404.72,-28.68 394.23,-27.14 401.47,-34.88 404.72,-28.68"/>
</a>
</g>
</g>
<!-- Node8 -->
<g id="Node000008" class="node">
<title>Node8</title>
<g id="a_Node000008"><a xlink:title=" ">
<polygon fill="#e0e0e0" stroke="#999999" points="561.62,-26 436.12,-26 436.12,-6 561.62,-6 561.62,-26"/>
<text text-anchor="middle" x="498.88" y="-12.5" font-family="Arial" font-size="10.00">GameFramework/Actor.h</text>
</a>
</g>
</g>
<!-- Node7&#45;&gt;Node8 -->
<g id="edge8_Node000007_Node000008" class="edge">
<title>Node7&#45;&gt;Node8</title>
<g id="a_edge8_Node000007_Node000008"><a xlink:title=" ">
<path fill="none" stroke="#63b8ff" d="M500.59,-73.54C500.31,-64.23 499.87,-49.7 499.5,-37.7"/>
<polygon fill="#63b8ff" stroke="#63b8ff" points="503.01,-37.84 499.21,-27.95 496.01,-38.05 503.01,-37.84"/>
</a>
</g>
</g>
<!-- Node9 -->
<g id="Node000009" class="node">
<title>Node9</title>
<g id="a_Node000009"><a xlink:title=" ">
<polygon fill="#e0e0e0" stroke="#999999" points="690.12,-26 579.62,-26 579.62,-6 690.12,-6 690.12,-26"/>
<text text-anchor="middle" x="634.88" y="-12.5" font-family="Arial" font-size="10.00">Projectile.generated.h</text>
</a>
</g>
</g>
<!-- Node7&#45;&gt;Node9 -->
<g id="edge9_Node000007_Node000009" class="edge">
<title>Node7&#45;&gt;Node9</title>
<g id="a_edge9_Node000007_Node000009"><a xlink:title=" ">
<path fill="none" stroke="#63b8ff" d="M520.07,-73.54C542.46,-62.52 579.71,-44.17 605.69,-31.38"/>
<polygon fill="#63b8ff" stroke="#63b8ff" points="606.93,-34.67 614.35,-27.11 603.84,-28.39 606.93,-34.67"/>
</a>
</g>
</g>
</g>
</svg>
