<?xml version="1.0" encoding="UTF-8" standalone="no"?>
<!DOCTYPE svg PUBLIC "-//W3C//DTD SVG 1.1//EN"
 "http://www.w3.org/Graphics/SVG/1.1/DTD/svg11.dtd">
<!-- Generated by graphviz version 12.2.1 (20241206.2353)
 -->
<!-- Title: Projectile.h Pages: 1 -->
<svg width="319pt" height="140pt"
 viewBox="0.00 0.00 318.88 140.00" xmlns="http://www.w3.org/2000/svg" xmlns:xlink="http://www.w3.org/1999/xlink">
<g id="graph0" class="graph" transform="scale(1 1) rotate(0) translate(4 136)">
<title>Projectile.h</title>
<!-- Node1 -->
<g id="Node000001" class="node">
<title>Node1</title>
<g id="a_Node000001"><a xlink:title=" ">
<polygon fill="#999999" stroke="#666666" points="170,-132 105.25,-132 105.25,-112 170,-112 170,-132"/>
<text text-anchor="middle" x="137.62" y="-118.5" font-family="Arial" font-size="10.00">Projectile.h</text>
</a>
</g>
</g>
<!-- Node2 -->
<g id="Node000002" class="node">
<title>Node2</title>
<g id="a_Node000002"><a xlink:href="_projectile_8cpp.html" target="_top" xlink:title=" ">
<polygon fill="white" stroke="#666666" points="75.25,-76 0,-76 0,-56 75.25,-56 75.25,-76"/>
<text text-anchor="middle" x="37.62" y="-62.5" font-family="Arial" font-size="10.00">Projectile.cpp</text>
</a>
</g>
</g>
<!-- Node1&#45;&gt;Node2 -->
<g id="edge1_Node000001_Node000002" class="edge">
<title>Node1&#45;&gt;Node2</title>
<g id="a_edge1_Node000001_Node000002"><a xlink:title=" ">
<path fill="none" stroke="#63b8ff" d="M110.49,-106.35C92.89,-96.84 70.47,-84.74 55.18,-76.48"/>
<polygon fill="#63b8ff" stroke="#63b8ff" points="108.41,-109.2 118.87,-110.87 111.74,-103.04 108.41,-109.2"/>
</a>
</g>
</g>
<!-- Node3 -->
<g id="Node000003" class="node">
<title>Node3</title>
<g id="a_Node000003"><a xlink:href="_projectile_bullet_8h.html" target="_top" xlink:title=" ">
<polygon fill="white" stroke="#666666" points="182.38,-76 92.88,-76 92.88,-56 182.38,-56 182.38,-76"/>
<text text-anchor="middle" x="137.62" y="-62.5" font-family="Arial" font-size="10.00">ProjectileBullet.h</text>
</a>
</g>
</g>
<!-- Node1&#45;&gt;Node3 -->
<g id="edge2_Node000001_Node000003" class="edge">
<title>Node1&#45;&gt;Node3</title>
<g id="a_edge2_Node000001_Node000003"><a xlink:title=" ">
<path fill="none" stroke="#63b8ff" d="M137.62,-100.13C137.62,-91.9 137.62,-82.85 137.62,-76.3"/>
<polygon fill="#63b8ff" stroke="#63b8ff" points="134.13,-100.08 137.63,-110.08 141.13,-100.08 134.13,-100.08"/>
</a>
</g>
</g>
<!-- Node5 -->
<g id="Node000005" class="node">
<title>Node5</title>
<g id="a_Node000005"><a xlink:href="_projectile_weapon_8cpp.html" target="_top" xlink:title=" ">
<polygon fill="white" stroke="#666666" points="310.88,-76 200.38,-76 200.38,-56 310.88,-56 310.88,-76"/>
<text text-anchor="middle" x="255.62" y="-62.5" font-family="Arial" font-size="10.00">ProjectileWeapon.cpp</text>
</a>
</g>
</g>
<!-- Node1&#45;&gt;Node5 -->
<g id="edge4_Node000001_Node000005" class="edge">
<title>Node1&#45;&gt;Node5</title>
<g id="a_edge4_Node000001_Node000005"><a xlink:title=" ">
<path fill="none" stroke="#63b8ff" d="M168.49,-106.88C189.42,-97.3 216.53,-84.89 234.91,-76.48"/>
<polygon fill="#63b8ff" stroke="#63b8ff" points="167.19,-103.62 159.56,-110.96 170.1,-109.99 167.19,-103.62"/>
</a>
</g>
</g>
<!-- Node4 -->
<g id="Node000004" class="node">
<title>Node4</title>
<g id="a_Node000004"><a xlink:href="_projectile_bullet_8cpp.html" target="_top" xlink:title=" ">
<polygon fill="white" stroke="#666666" points="187.62,-20 87.62,-20 87.62,0 187.62,0 187.62,-20"/>
<text text-anchor="middle" x="137.62" y="-6.5" font-family="Arial" font-size="10.00">ProjectileBullet.cpp</text>
</a>
</g>
</g>
<!-- Node3&#45;&gt;Node4 -->
<g id="edge3_Node000003_Node000004" class="edge">
<title>Node3&#45;&gt;Node4</title>
<g id="a_edge3_Node000003_Node000004"><a xlink:title=" ">
<path fill="none" stroke="#63b8ff" d="M137.62,-44.13C137.62,-35.9 137.62,-26.85 137.62,-20.3"/>
<polygon fill="#63b8ff" stroke="#63b8ff" points="134.13,-44.08 137.63,-54.08 141.13,-44.08 134.13,-44.08"/>
</a>
</g>
</g>
</g>
</svg>
