<?xml version="1.0" encoding="UTF-8" standalone="no"?>
<!DOCTYPE svg PUBLIC "-//W3C//DTD SVG 1.1//EN"
 "http://www.w3.org/Graphics/SVG/1.1/DTD/svg11.dtd">
<!-- Generated by graphviz version 12.2.1 (20241206.2353)
 -->
<!-- Title: AProjectile Pages: 1 -->
<!--zoomable 492 -->

<svg id="main" version="1.1" xmlns="http://www.w3.org/2000/svg" xmlns:xlink="http://www.w3.org/1999/xlink" xml:space="preserve" onload="init(evt)">

<style type="text/css"><![CDATA[
.node, .edge {opacity: 0.7;}
.node.selected, .edge.selected {opacity: 1;}
.edge:hover path { stroke: red; }
.edge:hover polygon { stroke: red; fill: red; }
]]></style>

<defs>
  <circle id="rim" cx="0" cy="0" r="7"/>
  <circle id="rim2" cx="0" cy="0" r="3.5"/>
  <g id="zoomPlus">
    <use xlink:href="#rim" fill="#404040"><set attributeName="fill" to="#808080" begin="zoomplus.mouseover" end="zoomplus.mouseout"/></use>
    <path d="M-4,0h8M0,-4v8" fill="none" stroke="white" stroke-width="1.5" pointer-events="none"/>
  </g>
  <g id="zoomMin">
    <use xlink:href="#rim" fill="#404040"><set attributeName="fill" to="#808080" begin="zoomminus.mouseover" end="zoomminus.mouseout"/></use>
    <path d="M-4,0h8" fill="none" stroke="white" stroke-width="1.5" pointer-events="none"/>
  </g>
  <g id="arrowUp" transform="translate(30 24)">
    <use xlink:href="#rim"/>
    <path pointer-events="none" fill="none" stroke="white" stroke-width="1.5" d="M0,-3.0v7 M-2.5,-0.5L0,-3.0L2.5,-0.5"/>
  </g>
  <g id="arrowRight" transform="rotate(90) translate(36 -43)">
    <use xlink:href="#rim"/>
    <path pointer-events="none" fill="none" stroke="white" stroke-width="1.5" d="M0,-3.0v7 M-2.5,-0.5L0,-3.0L2.5,-0.5"/>
  </g>
  <g id="arrowDown" transform="rotate(180) translate(-30 -48)">
    <use xlink:href="#rim"/>
    <path pointer-events="none" fill="none" stroke="white" stroke-width="1.5" d="M0,-3.0v7 M-2.5,-0.5L0,-3.0L2.5,-0.5"/>
  </g>
  <g id="arrowLeft" transform="rotate(270) translate(-36 17)">
    <use xlink:href="#rim"/>
    <path pointer-events="none" fill="none" stroke="white" stroke-width="1.5" d="M0,-3.0v7 M-2.5,-0.5L0,-3.0L2.5,-0.5"/>
  </g>
  <g id="resetDef">
    <use xlink:href="#rim2" fill="#404040"><set attributeName="fill" to="#808080" begin="reset.mouseover" end="reset.mouseout"/></use>
  </g>
</defs>
<script type="application/ecmascript">
var viewWidth = 163;
var viewHeight = 492;
var sectionId = 'dynsection-0';
</script>
<script type="application/ecmascript" xlink:href="svg.min.js"/>
<svg id="graph" class="graph">
<g id="viewport">
<title>AProjectile</title>
<!-- Node1 -->
<g id="Node000001" class="node">
<title>Node1</title>
<g id="a_Node000001"><a xlink:title=" ">
<polygon fill="#999999" stroke="none" points="154.5,-396 0,-396 0,-120 154.5,-120 154.5,-396"/>
<text text-anchor="start" x="53.62" y="-382.5" font-family="Arial" font-size="10.00">AProjectile</text>
<text text-anchor="start" x="4" y="-366.5" font-family="Arial" font-size="10.00">+</text>
<text text-anchor="start" x="14" y="-366.5" font-family="Arial" font-size="10.00">bUseServerSideRewind</text>
<text text-anchor="start" x="4" y="-350.5" font-family="Arial" font-size="10.00">+</text>
<text text-anchor="start" x="14" y="-350.5" font-family="Arial" font-size="10.00">TraceStart</text>
<text text-anchor="start" x="4" y="-334.5" font-family="Arial" font-size="10.00">+</text>
<text text-anchor="start" x="14" y="-334.5" font-family="Arial" font-size="10.00">InitialVelocity</text>
<text text-anchor="start" x="4" y="-318.5" font-family="Arial" font-size="10.00">+</text>
<text text-anchor="start" x="14" y="-318.5" font-family="Arial" font-size="10.00">InitialSpeed</text>
<text text-anchor="start" x="4" y="-302.5" font-family="Arial" font-size="10.00">+</text>
<text text-anchor="start" x="14" y="-302.5" font-family="Arial" font-size="10.00">Damage</text>
<text text-anchor="start" x="4.38" y="-286.5" font-family="Arial" font-size="10.00">#</text>
<text text-anchor="start" x="14" y="-286.5" font-family="Arial" font-size="10.00">ProjectileMovementComponent</text>
<text text-anchor="start" x="5.5" y="-270.5" font-family="Arial" font-size="10.00">&#45;</text>
<text text-anchor="start" x="14" y="-270.5" font-family="Arial" font-size="10.00">CollisionBox</text>
<text text-anchor="start" x="5.5" y="-254.5" font-family="Arial" font-size="10.00">&#45;</text>
<text text-anchor="start" x="14" y="-254.5" font-family="Arial" font-size="10.00">TracerComponent</text>
<text text-anchor="start" x="5.5" y="-238.5" font-family="Arial" font-size="10.00">&#45;</text>
<text text-anchor="start" x="14" y="-238.5" font-family="Arial" font-size="10.00">TracerNiagaraSystem</text>
<text text-anchor="start" x="5.5" y="-222.5" font-family="Arial" font-size="10.00">&#45;</text>
<text text-anchor="start" x="14" y="-222.5" font-family="Arial" font-size="10.00">ImpactParticles</text>
<text text-anchor="start" x="5.5" y="-206.5" font-family="Arial" font-size="10.00">&#45;</text>
<text text-anchor="start" x="14" y="-206.5" font-family="Arial" font-size="10.00">ImpactSound</text>
<text text-anchor="start" x="4" y="-190.5" font-family="Arial" font-size="10.00">+</text>
<text text-anchor="start" x="14" y="-190.5" font-family="Arial" font-size="10.00">AProjectile()</text>
<text text-anchor="start" x="4" y="-174.5" font-family="Arial" font-size="10.00">+</text>
<text text-anchor="start" x="14" y="-174.5" font-family="Arial" font-size="10.00">Destroyed()</text>
<text text-anchor="start" x="4" y="-158.5" font-family="Arial" font-size="10.00">+</text>
<text text-anchor="start" x="14" y="-158.5" font-family="Arial" font-size="10.00">Tick()</text>
<text text-anchor="start" x="4.38" y="-142.5" font-family="Arial" font-size="10.00">#</text>
<text text-anchor="start" x="14" y="-142.5" font-family="Arial" font-size="10.00">BeginPlay()</text>
<text text-anchor="start" x="4.38" y="-126.5" font-family="Arial" font-size="10.00">#</text>
<text text-anchor="start" x="14" y="-126.5" font-family="Arial" font-size="10.00">OnHit()</text>
<polygon fill="#666666" stroke="#666666" points="0,-378 0,-378 154.5,-378 154.5,-378 0,-378"/>
<polygon fill="#666666" stroke="#666666" points="0,-202 0,-202 12,-202 12,-202 0,-202"/>
<polygon fill="#666666" stroke="#666666" points="12,-202 12,-202 154.5,-202 154.5,-202 12,-202"/>
<polygon fill="none" stroke="#666666" points="0,-120 0,-396 154.5,-396 154.5,-120 0,-120"/>
</a>
</g>
</g>
<!-- Node3 -->
<g id="Node000003" class="node">
<title>Node3</title>
<g id="a_Node000003"><a xlink:href="class_a_projectile_bullet.html" target="_top" xlink:title=" ">
<polygon fill="white" stroke="none" points="125.25,-84 29.25,-84 29.25,0 125.25,0 125.25,-84"/>
<text text-anchor="start" x="41.25" y="-70.5" font-family="Arial" font-size="10.00">AProjectileBullet</text>
<text text-anchor="start" x="75.75" y="-54.5" font-family="Arial" font-size="10.00"> </text>
<text text-anchor="start" x="33.25" y="-38.5" font-family="Arial" font-size="10.00">+</text>
<text text-anchor="start" x="43.25" y="-38.5" font-family="Arial" font-size="10.00">AProjectileBullet()</text>
<text text-anchor="start" x="33.62" y="-22.5" font-family="Arial" font-size="10.00">#</text>
<text text-anchor="start" x="43.25" y="-22.5" font-family="Arial" font-size="10.00">BeginPlay()</text>
<text text-anchor="start" x="33.62" y="-6.5" font-family="Arial" font-size="10.00">#</text>
<text text-anchor="start" x="43.25" y="-6.5" font-family="Arial" font-size="10.00">OnHit()</text>
<polygon fill="#666666" stroke="#666666" points="29.25,-66 29.25,-66 125.25,-66 125.25,-66 29.25,-66"/>
<polygon fill="#666666" stroke="#666666" points="29.25,-50 29.25,-50 125.25,-50 125.25,-50 29.25,-50"/>
<polygon fill="none" stroke="#666666" points="29.25,0 29.25,-84 125.25,-84 125.25,0 29.25,0"/>
</a>
</g>
</g>
<!-- Node1&#45;&gt;Node3 -->
<g id="edge2_Node000001_Node000003" class="edge">
<title>Node1&#45;&gt;Node3</title>
<g id="a_edge2_Node000001_Node000003"><a xlink:title=" ">
<path fill="none" stroke="#63b8ff" d="M77.25,-108.78C77.25,-99.89 77.25,-91.45 77.25,-83.76"/>
<polygon fill="none" stroke="#63b8ff" points="73.75,-108.75 77.25,-118.75 80.75,-108.75 73.75,-108.75"/>
</a>
</g>
</g>
<!-- Node2 -->
<g id="Node000002" class="node">
<title>Node2</title>
<g id="a_Node000002"><a xlink:title=" ">
<polygon fill="white" stroke="none" points="96.25,-484 58.25,-484 58.25,-432 96.25,-432 96.25,-484"/>
<text text-anchor="start" x="62.25" y="-470.5" font-family="Arial" font-size="10.00">AActor</text>
<text text-anchor="start" x="75.75" y="-454.5" font-family="Arial" font-size="10.00"> </text>
<text text-anchor="start" x="75.75" y="-438.5" font-family="Arial" font-size="10.00"> </text>
<polygon fill="#666666" stroke="#666666" points="58.25,-466 58.25,-466 96.25,-466 96.25,-466 58.25,-466"/>
<polygon fill="#666666" stroke="#666666" points="58.25,-450 58.25,-450 96.25,-450 96.25,-450 58.25,-450"/>
<polygon fill="none" stroke="#666666" points="58.25,-432 58.25,-484 96.25,-484 96.25,-432 58.25,-432"/>
</a>
</g>
</g>
<!-- Node2&#45;&gt;Node1 -->
<g id="edge1_Node000001_Node000002" class="edge">
<title>Node2&#45;&gt;Node1</title>
<g id="a_edge1_Node000001_Node000002"><a xlink:title=" ">
<path fill="none" stroke="#63b8ff" d="M77.25,-421.03C77.25,-413.35 77.25,-404.81 77.25,-395.78"/>
<polygon fill="none" stroke="#63b8ff" points="73.75,-420.81 77.25,-430.81 80.75,-420.81 73.75,-420.81"/>
</a>
</g>
</g>
</g>
</svg>

<g id="navigator" transform="translate(0 0)" fill="#404254">
  <rect fill="#f2f5e9" fill-opacity="0.5" stroke="#606060" stroke-width=".5" x="0" y="0" width="60" height="60"/>
  <use id="zoomplus" xlink:href="#zoomPlus" x="17" y="9" onmousedown="handleZoom(evt,'in')"/>
  <use id="zoomminus" xlink:href="#zoomMin" x="42" y="9" onmousedown="handleZoom(evt,'out')"/>
  <use id="reset" xlink:href="#resetDef" x="30" y="36" onmousedown="handleReset()"/>
   <use id="arrowup" xlink:href="#arrowUp" x="0" y="0" onmousedown="handlePan(0,-1)"/>
  <use id="arrowright" xlink:href="#arrowRight" x="0" y="0" onmousedown="handlePan(1,0)"/>
  <use id="arrowdown" xlink:href="#arrowDown" x="0" y="0" onmousedown="handlePan(0,1)"/>
  <use id="arrowleft" xlink:href="#arrowLeft" x="0" y="0" onmousedown="handlePan(-1,0)"/>
</g>
<svg viewBox="0 0 15 15" width="100%" height="30px" preserveAspectRatio="xMaxYMin meet">
 <g id="arrow_out" transform="scale(0.3 0.3)">
  <a xlink:href="class_a_projectile__inherit__graph_org.svg" target="_base">
   <rect id="button" ry="5" rx="5" y="6" x="6" height="38" width="38"
        fill="#f2f5e9" fill-opacity="0.5" stroke="#606060" stroke-width="1.0"/>
   <path id="arrow"
     d="M 11.500037,31.436501 C 11.940474,20.09759 22.043105,11.32322 32.158766,21.979434 L 37.068811,17.246167 C 37.068811,17.246167 37.088388,32 37.088388,32 L 22.160133,31.978069 C 22.160133,31.978069 26.997745,27.140456 26.997745,27.140456 C 18.528582,18.264221 13.291696,25.230495 11.500037,31.436501 z"
     style="fill:#404040;"/>
  </a>
 </g>
</svg>

<style type='text/css'>
<![CDATA[
[data-mouse-over-selected='false'] { opacity: 0.7; }
[data-mouse-over-selected='true']  { opacity: 1.0; }
]]>
</style>
<script type="application/ecmascript"><![CDATA[
document.addEventListener('DOMContentLoaded', (event) => {
  highlightEdges();
  highlightAdjacentNodes();
});
]]></script>
</svg>
