<?xml version="1.0" encoding="UTF-8" standalone="no"?>
<!DOCTYPE svg PUBLIC "-//W3C//DTD SVG 1.1//EN"
 "http://www.w3.org/Graphics/SVG/1.1/DTD/svg11.dtd">
<!-- Generated by graphviz version 12.2.1 (20241206.2353)
 -->
<!-- Title: AProjectileWeapon Pages: 1 -->
<svg width="148pt" height="204pt"
 viewBox="0.00 0.00 147.50 204.00" xmlns="http://www.w3.org/2000/svg" xmlns:xlink="http://www.w3.org/1999/xlink">
<g id="graph0" class="graph" transform="scale(1 1) rotate(0) translate(4 200)">
<title>AProjectileWeapon</title>
<!-- Node1 -->
<g id="Node000001" class="node">
<title>Node1</title>
<g id="a_Node000001"><a xlink:title=" ">
<polygon fill="#999999" stroke="none" points="139.5,-108 0,-108 0,0 139.5,0 139.5,-108"/>
<text text-anchor="start" x="28.5" y="-94.5" font-family="Arial" font-size="10.00">AProjectileWeapon</text>
<text text-anchor="start" x="5.5" y="-78.5" font-family="Arial" font-size="10.00">&#45;</text>
<text text-anchor="start" x="14" y="-78.5" font-family="Arial" font-size="10.00">ProjectileClass</text>
<text text-anchor="start" x="5.5" y="-62.5" font-family="Arial" font-size="10.00">&#45;</text>
<text text-anchor="start" x="14" y="-62.5" font-family="Arial" font-size="10.00">ServerSideRewindProjectile</text>
<text text-anchor="start" x="14" y="-50.5" font-family="Arial" font-size="10.00">Class</text>
<text text-anchor="start" x="4" y="-34.5" font-family="Arial" font-size="10.00">+</text>
<text text-anchor="start" x="14" y="-34.5" font-family="Arial" font-size="10.00">Multicast_StartFiring</text>
<text text-anchor="start" x="14" y="-22.5" font-family="Arial" font-size="10.00">_Implementation()</text>
<text text-anchor="start" x="4" y="-6.5" font-family="Arial" font-size="10.00">+</text>
<text text-anchor="start" x="14" y="-6.5" font-family="Arial" font-size="10.00">Fire()</text>
<polygon fill="#666666" stroke="#666666" points="0,-90 0,-90 139.5,-90 139.5,-90 0,-90"/>
<polygon fill="#666666" stroke="#666666" points="0,-46 0,-46 12,-46 12,-46 0,-46"/>
<polygon fill="#666666" stroke="#666666" points="12,-46 12,-46 139.5,-46 139.5,-46 12,-46"/>
<polygon fill="none" stroke="#666666" points="0,0 0,-108 139.5,-108 139.5,0 0,0"/>
</a>
</g>
</g>
<!-- Node2 -->
<g id="Node000002" class="node">
<title>Node2</title>
<g id="a_Node000002"><a xlink:title=" ">
<polygon fill="white" stroke="none" points="106,-196 33.5,-196 33.5,-144 106,-144 106,-196"/>
<text text-anchor="start" x="37.5" y="-182.5" font-family="Arial" font-size="10.00">ABaseWeapon</text>
<text text-anchor="start" x="68.25" y="-166.5" font-family="Arial" font-size="10.00"> </text>
<text text-anchor="start" x="68.25" y="-150.5" font-family="Arial" font-size="10.00"> </text>
<polygon fill="#666666" stroke="#666666" points="33.5,-178 33.5,-178 106,-178 106,-178 33.5,-178"/>
<polygon fill="#666666" stroke="#666666" points="33.5,-162 33.5,-162 106,-162 106,-162 33.5,-162"/>
<polygon fill="none" stroke="#666666" points="33.5,-144 33.5,-196 106,-196 106,-144 33.5,-144"/>
</a>
</g>
</g>
<!-- Node2&#45;&gt;Node1 -->
<g id="edge1_Node000001_Node000002" class="edge">
<title>Node2&#45;&gt;Node1</title>
<g id="a_edge1_Node000001_Node000002"><a xlink:title=" ">
<path fill="none" stroke="#63b8ff" d="M69.75,-132.77C69.75,-124.81 69.75,-116.23 69.75,-107.77"/>
<polygon fill="none" stroke="#63b8ff" points="66.25,-132.75 69.75,-142.75 73.25,-132.75 66.25,-132.75"/>
</a>
</g>
</g>
</g>
</svg>
