<?xml version="1.0" encoding="UTF-8" standalone="no"?>
<!DOCTYPE svg PUBLIC "-//W3C//DTD SVG 1.1//EN"
 "http://www.w3.org/Graphics/SVG/1.1/DTD/svg11.dtd">
<!-- Generated by graphviz version 12.2.1 (20241206.2353)
 -->
<!-- Title: AProjectileBullet Pages: 1 -->
<svg width="163pt" height="492pt"
 viewBox="0.00 0.00 162.50 492.00" xmlns="http://www.w3.org/2000/svg" xmlns:xlink="http://www.w3.org/1999/xlink">
<g id="graph0" class="graph" transform="scale(1 1) rotate(0) translate(4 488)">
<title>AProjectileBullet</title>
<!-- Node1 -->
<g id="Node000001" class="node">
<title>Node1</title>
<g id="a_Node000001"><a xlink:title=" ">
<polygon fill="#999999" stroke="none" points="125.25,-84 29.25,-84 29.25,0 125.25,0 125.25,-84"/>
<text text-anchor="start" x="41.25" y="-70.5" font-family="Arial" font-size="10.00">AProjectileBullet</text>
<text text-anchor="start" x="75.75" y="-54.5" font-family="Arial" font-size="10.00"> </text>
<text text-anchor="start" x="33.25" y="-38.5" font-family="Arial" font-size="10.00">+</text>
<text text-anchor="start" x="43.25" y="-38.5" font-family="Arial" font-size="10.00">AProjectileBullet()</text>
<text text-anchor="start" x="33.62" y="-22.5" font-family="Arial" font-size="10.00">#</text>
<text text-anchor="start" x="43.25" y="-22.5" font-family="Arial" font-size="10.00">BeginPlay()</text>
<text text-anchor="start" x="33.62" y="-6.5" font-family="Arial" font-size="10.00">#</text>
<text text-anchor="start" x="43.25" y="-6.5" font-family="Arial" font-size="10.00">OnHit()</text>
<polygon fill="#666666" stroke="#666666" points="29.25,-66 29.25,-66 125.25,-66 125.25,-66 29.25,-66"/>
<polygon fill="#666666" stroke="#666666" points="29.25,-50 29.25,-50 125.25,-50 125.25,-50 29.25,-50"/>
<polygon fill="none" stroke="#666666" points="29.25,0 29.25,-84 125.25,-84 125.25,0 29.25,0"/>
</a>
</g>
</g>
<!-- Node2 -->
<g id="Node000002" class="node">
<title>Node2</title>
<g id="a_Node000002"><a xlink:href="class_a_projectile.html" target="_top" xlink:title=" ">
<polygon fill="white" stroke="none" points="154.5,-396 0,-396 0,-120 154.5,-120 154.5,-396"/>
<text text-anchor="start" x="53.62" y="-382.5" font-family="Arial" font-size="10.00">AProjectile</text>
<text text-anchor="start" x="4" y="-366.5" font-family="Arial" font-size="10.00">+</text>
<text text-anchor="start" x="14" y="-366.5" font-family="Arial" font-size="10.00">bUseServerSideRewind</text>
<text text-anchor="start" x="4" y="-350.5" font-family="Arial" font-size="10.00">+</text>
<text text-anchor="start" x="14" y="-350.5" font-family="Arial" font-size="10.00">TraceStart</text>
<text text-anchor="start" x="4" y="-334.5" font-family="Arial" font-size="10.00">+</text>
<text text-anchor="start" x="14" y="-334.5" font-family="Arial" font-size="10.00">InitialVelocity</text>
<text text-anchor="start" x="4" y="-318.5" font-family="Arial" font-size="10.00">+</text>
<text text-anchor="start" x="14" y="-318.5" font-family="Arial" font-size="10.00">InitialSpeed</text>
<text text-anchor="start" x="4" y="-302.5" font-family="Arial" font-size="10.00">+</text>
<text text-anchor="start" x="14" y="-302.5" font-family="Arial" font-size="10.00">Damage</text>
<text text-anchor="start" x="4.38" y="-286.5" font-family="Arial" font-size="10.00">#</text>
<text text-anchor="start" x="14" y="-286.5" font-family="Arial" font-size="10.00">ProjectileMovementComponent</text>
<text text-anchor="start" x="5.5" y="-270.5" font-family="Arial" font-size="10.00">&#45;</text>
<text text-anchor="start" x="14" y="-270.5" font-family="Arial" font-size="10.00">CollisionBox</text>
<text text-anchor="start" x="5.5" y="-254.5" font-family="Arial" font-size="10.00">&#45;</text>
<text text-anchor="start" x="14" y="-254.5" font-family="Arial" font-size="10.00">TracerComponent</text>
<text text-anchor="start" x="5.5" y="-238.5" font-family="Arial" font-size="10.00">&#45;</text>
<text text-anchor="start" x="14" y="-238.5" font-family="Arial" font-size="10.00">TracerNiagaraSystem</text>
<text text-anchor="start" x="5.5" y="-222.5" font-family="Arial" font-size="10.00">&#45;</text>
<text text-anchor="start" x="14" y="-222.5" font-family="Arial" font-size="10.00">ImpactParticles</text>
<text text-anchor="start" x="5.5" y="-206.5" font-family="Arial" font-size="10.00">&#45;</text>
<text text-anchor="start" x="14" y="-206.5" font-family="Arial" font-size="10.00">ImpactSound</text>
<text text-anchor="start" x="4" y="-190.5" font-family="Arial" font-size="10.00">+</text>
<text text-anchor="start" x="14" y="-190.5" font-family="Arial" font-size="10.00">AProjectile()</text>
<text text-anchor="start" x="4" y="-174.5" font-family="Arial" font-size="10.00">+</text>
<text text-anchor="start" x="14" y="-174.5" font-family="Arial" font-size="10.00">Destroyed()</text>
<text text-anchor="start" x="4" y="-158.5" font-family="Arial" font-size="10.00">+</text>
<text text-anchor="start" x="14" y="-158.5" font-family="Arial" font-size="10.00">Tick()</text>
<text text-anchor="start" x="4.38" y="-142.5" font-family="Arial" font-size="10.00">#</text>
<text text-anchor="start" x="14" y="-142.5" font-family="Arial" font-size="10.00">BeginPlay()</text>
<text text-anchor="start" x="4.38" y="-126.5" font-family="Arial" font-size="10.00">#</text>
<text text-anchor="start" x="14" y="-126.5" font-family="Arial" font-size="10.00">OnHit()</text>
<polygon fill="#666666" stroke="#666666" points="0,-378 0,-378 154.5,-378 154.5,-378 0,-378"/>
<polygon fill="#666666" stroke="#666666" points="0,-202 0,-202 12,-202 12,-202 0,-202"/>
<polygon fill="#666666" stroke="#666666" points="12,-202 12,-202 154.5,-202 154.5,-202 12,-202"/>
<polygon fill="none" stroke="#666666" points="0,-120 0,-396 154.5,-396 154.5,-120 0,-120"/>
</a>
</g>
</g>
<!-- Node2&#45;&gt;Node1 -->
<g id="edge1_Node000001_Node000002" class="edge">
<title>Node2&#45;&gt;Node1</title>
<g id="a_edge1_Node000001_Node000002"><a xlink:title=" ">
<path fill="none" stroke="#63b8ff" d="M77.25,-108.78C77.25,-99.89 77.25,-91.45 77.25,-83.76"/>
<polygon fill="none" stroke="#63b8ff" points="73.75,-108.75 77.25,-118.75 80.75,-108.75 73.75,-108.75"/>
</a>
</g>
</g>
<!-- Node3 -->
<g id="Node000003" class="node">
<title>Node3</title>
<g id="a_Node000003"><a xlink:title=" ">
<polygon fill="white" stroke="none" points="96.25,-484 58.25,-484 58.25,-432 96.25,-432 96.25,-484"/>
<text text-anchor="start" x="62.25" y="-470.5" font-family="Arial" font-size="10.00">AActor</text>
<text text-anchor="start" x="75.75" y="-454.5" font-family="Arial" font-size="10.00"> </text>
<text text-anchor="start" x="75.75" y="-438.5" font-family="Arial" font-size="10.00"> </text>
<polygon fill="#666666" stroke="#666666" points="58.25,-466 58.25,-466 96.25,-466 96.25,-466 58.25,-466"/>
<polygon fill="#666666" stroke="#666666" points="58.25,-450 58.25,-450 96.25,-450 96.25,-450 58.25,-450"/>
<polygon fill="none" stroke="#666666" points="58.25,-432 58.25,-484 96.25,-484 96.25,-432 58.25,-432"/>
</a>
</g>
</g>
<!-- Node3&#45;&gt;Node2 -->
<g id="edge2_Node000002_Node000003" class="edge">
<title>Node3&#45;&gt;Node2</title>
<g id="a_edge2_Node000002_Node000003"><a xlink:title=" ">
<path fill="none" stroke="#63b8ff" d="M77.25,-421.03C77.25,-413.35 77.25,-404.81 77.25,-395.78"/>
<polygon fill="none" stroke="#63b8ff" points="73.75,-420.81 77.25,-430.81 80.75,-420.81 73.75,-420.81"/>
</a>
</g>
</g>
</g>
</svg>
