<?xml version="1.0" encoding="UTF-8" standalone="no"?>
<!DOCTYPE svg PUBLIC "-//W3C//DTD SVG 1.1//EN"
 "http://www.w3.org/Graphics/SVG/1.1/DTD/svg11.dtd">
<!-- Generated by graphviz version 12.2.1 (20241206.2353)
 -->
<!-- Title: AProjectile Pages: 1 -->
<svg width="163pt" height="372pt"
 viewBox="0.00 0.00 162.50 372.00" xmlns="http://www.w3.org/2000/svg" xmlns:xlink="http://www.w3.org/1999/xlink">
<g id="graph0" class="graph" transform="scale(1 1) rotate(0) translate(4 368)">
<title>AProjectile</title>
<!-- Node1 -->
<g id="Node000001" class="node">
<title>Node1</title>
<g id="a_Node000001"><a xlink:title=" ">
<polygon fill="#999999" stroke="none" points="154.5,-276 0,-276 0,0 154.5,0 154.5,-276"/>
<text text-anchor="start" x="53.62" y="-262.5" font-family="Arial" font-size="10.00">AProjectile</text>
<text text-anchor="start" x="4" y="-246.5" font-family="Arial" font-size="10.00">+</text>
<text text-anchor="start" x="14" y="-246.5" font-family="Arial" font-size="10.00">bUseServerSideRewind</text>
<text text-anchor="start" x="4" y="-230.5" font-family="Arial" font-size="10.00">+</text>
<text text-anchor="start" x="14" y="-230.5" font-family="Arial" font-size="10.00">TraceStart</text>
<text text-anchor="start" x="4" y="-214.5" font-family="Arial" font-size="10.00">+</text>
<text text-anchor="start" x="14" y="-214.5" font-family="Arial" font-size="10.00">InitialVelocity</text>
<text text-anchor="start" x="4" y="-198.5" font-family="Arial" font-size="10.00">+</text>
<text text-anchor="start" x="14" y="-198.5" font-family="Arial" font-size="10.00">InitialSpeed</text>
<text text-anchor="start" x="4" y="-182.5" font-family="Arial" font-size="10.00">+</text>
<text text-anchor="start" x="14" y="-182.5" font-family="Arial" font-size="10.00">Damage</text>
<text text-anchor="start" x="4.38" y="-166.5" font-family="Arial" font-size="10.00">#</text>
<text text-anchor="start" x="14" y="-166.5" font-family="Arial" font-size="10.00">ProjectileMovementComponent</text>
<text text-anchor="start" x="5.5" y="-150.5" font-family="Arial" font-size="10.00">&#45;</text>
<text text-anchor="start" x="14" y="-150.5" font-family="Arial" font-size="10.00">CollisionBox</text>
<text text-anchor="start" x="5.5" y="-134.5" font-family="Arial" font-size="10.00">&#45;</text>
<text text-anchor="start" x="14" y="-134.5" font-family="Arial" font-size="10.00">TracerComponent</text>
<text text-anchor="start" x="5.5" y="-118.5" font-family="Arial" font-size="10.00">&#45;</text>
<text text-anchor="start" x="14" y="-118.5" font-family="Arial" font-size="10.00">TracerNiagaraSystem</text>
<text text-anchor="start" x="5.5" y="-102.5" font-family="Arial" font-size="10.00">&#45;</text>
<text text-anchor="start" x="14" y="-102.5" font-family="Arial" font-size="10.00">ImpactParticles</text>
<text text-anchor="start" x="5.5" y="-86.5" font-family="Arial" font-size="10.00">&#45;</text>
<text text-anchor="start" x="14" y="-86.5" font-family="Arial" font-size="10.00">ImpactSound</text>
<text text-anchor="start" x="4" y="-70.5" font-family="Arial" font-size="10.00">+</text>
<text text-anchor="start" x="14" y="-70.5" font-family="Arial" font-size="10.00">AProjectile()</text>
<text text-anchor="start" x="4" y="-54.5" font-family="Arial" font-size="10.00">+</text>
<text text-anchor="start" x="14" y="-54.5" font-family="Arial" font-size="10.00">Destroyed()</text>
<text text-anchor="start" x="4" y="-38.5" font-family="Arial" font-size="10.00">+</text>
<text text-anchor="start" x="14" y="-38.5" font-family="Arial" font-size="10.00">Tick()</text>
<text text-anchor="start" x="4.38" y="-22.5" font-family="Arial" font-size="10.00">#</text>
<text text-anchor="start" x="14" y="-22.5" font-family="Arial" font-size="10.00">BeginPlay()</text>
<text text-anchor="start" x="4.38" y="-6.5" font-family="Arial" font-size="10.00">#</text>
<text text-anchor="start" x="14" y="-6.5" font-family="Arial" font-size="10.00">OnHit()</text>
<polygon fill="#666666" stroke="#666666" points="0,-258 0,-258 154.5,-258 154.5,-258 0,-258"/>
<polygon fill="#666666" stroke="#666666" points="0,-82 0,-82 12,-82 12,-82 0,-82"/>
<polygon fill="#666666" stroke="#666666" points="12,-82 12,-82 154.5,-82 154.5,-82 12,-82"/>
<polygon fill="none" stroke="#666666" points="0,0 0,-276 154.5,-276 154.5,0 0,0"/>
</a>
</g>
</g>
<!-- Node2 -->
<g id="Node000002" class="node">
<title>Node2</title>
<g id="a_Node000002"><a xlink:title=" ">
<polygon fill="white" stroke="none" points="96.25,-364 58.25,-364 58.25,-312 96.25,-312 96.25,-364"/>
<text text-anchor="start" x="62.25" y="-350.5" font-family="Arial" font-size="10.00">AActor</text>
<text text-anchor="start" x="75.75" y="-334.5" font-family="Arial" font-size="10.00"> </text>
<text text-anchor="start" x="75.75" y="-318.5" font-family="Arial" font-size="10.00"> </text>
<polygon fill="#666666" stroke="#666666" points="58.25,-346 58.25,-346 96.25,-346 96.25,-346 58.25,-346"/>
<polygon fill="#666666" stroke="#666666" points="58.25,-330 58.25,-330 96.25,-330 96.25,-330 58.25,-330"/>
<polygon fill="none" stroke="#666666" points="58.25,-312 58.25,-364 96.25,-364 96.25,-312 58.25,-312"/>
</a>
</g>
</g>
<!-- Node2&#45;&gt;Node1 -->
<g id="edge1_Node000001_Node000002" class="edge">
<title>Node2&#45;&gt;Node1</title>
<g id="a_edge1_Node000001_Node000002"><a xlink:title=" ">
<path fill="none" stroke="#63b8ff" d="M77.25,-301.03C77.25,-293.35 77.25,-284.81 77.25,-275.78"/>
<polygon fill="none" stroke="#63b8ff" points="73.75,-300.81 77.25,-310.81 80.75,-300.81 73.75,-300.81"/>
</a>
</g>
</g>
</g>
</svg>
