<?xml version="1.0" encoding="UTF-8" standalone="no"?>
<!DOCTYPE svg PUBLIC "-//W3C//DTD SVG 1.1//EN"
 "http://www.w3.org/Graphics/SVG/1.1/DTD/svg11.dtd">
<!-- Generated by graphviz version 12.2.1 (20241206.2353)
 -->
<!-- Title: Graphical Class Hierarchy Pages: 1 -->
<svg width="277pt" height="28pt"
 viewBox="0.00 0.00 277.25 28.00" xmlns="http://www.w3.org/2000/svg" xmlns:xlink="http://www.w3.org/1999/xlink">
<g id="graph0" class="graph" transform="scale(1 1) rotate(0) translate(4 24)">
<title>Graphical Class Hierarchy</title>
<!-- Node0 -->
<g id="Node000000" class="node">
<title>Node0</title>
<g id="a_Node000000"><a xlink:title=" ">
<polygon fill="#e0e0e0" stroke="#999999" points="46,-20 0,-20 0,0 46,0 46,-20"/>
<text text-anchor="middle" x="23" y="-6.5" font-family="Arial" font-size="10.00">AActor</text>
</a>
</g>
</g>
<!-- Node1 -->
<g id="Node000001" class="node">
<title>Node1</title>
<g id="a_Node000001"><a xlink:href="class_a_projectile.html" target="_top" xlink:title=" ">
<polygon fill="white" stroke="#666666" points="145.25,-20 82,-20 82,0 145.25,0 145.25,-20"/>
<text text-anchor="middle" x="113.62" y="-6.5" font-family="Arial" font-size="10.00">AProjectile</text>
</a>
</g>
</g>
<!-- Node0&#45;&gt;Node1 -->
<g id="edge1_Node000000_Node000001" class="edge">
<title>Node0&#45;&gt;Node1</title>
<g id="a_edge1_Node000000_Node000001"><a xlink:title=" ">
<path fill="none" stroke="#63b8ff" d="M57.74,-10C65.57,-10 73.86,-10 81.57,-10"/>
<polygon fill="#63b8ff" stroke="#63b8ff" points="57.88,-6.5 47.88,-10 57.88,-13.5 57.88,-6.5"/>
</a>
</g>
</g>
<!-- Node2 -->
<g id="Node000002" class="node">
<title>Node2</title>
<g id="a_Node000002"><a xlink:href="class_a_projectile_bullet.html" target="_top" xlink:title=" ">
<polygon fill="white" stroke="#666666" points="269.25,-20 181.25,-20 181.25,0 269.25,0 269.25,-20"/>
<text text-anchor="middle" x="225.25" y="-6.5" font-family="Arial" font-size="10.00">AProjectileBullet</text>
</a>
</g>
</g>
<!-- Node1&#45;&gt;Node2 -->
<g id="edge2_Node000001_Node000002" class="edge">
<title>Node1&#45;&gt;Node2</title>
<g id="a_edge2_Node000001_Node000002"><a xlink:title=" ">
<path fill="none" stroke="#63b8ff" d="M157.16,-10C164.9,-10 173,-10 180.78,-10"/>
<polygon fill="#63b8ff" stroke="#63b8ff" points="157.26,-6.5 147.26,-10 157.26,-13.5 157.26,-6.5"/>
</a>
</g>
</g>
</g>
</svg>
