<?xml version="1.0" encoding="UTF-8" standalone="no"?>
<!DOCTYPE svg PUBLIC "-//W3C//DTD SVG 1.1//EN"
 "http://www.w3.org/Graphics/SVG/1.1/DTD/svg11.dtd">
<!-- Generated by graphviz version 12.2.1 (20241206.2353)
 -->
<!-- Title: BuffComponent.cpp Pages: 1 -->
<svg width="605pt" height="152pt"
 viewBox="0.00 0.00 605.38 152.00" xmlns="http://www.w3.org/2000/svg" xmlns:xlink="http://www.w3.org/1999/xlink">
<g id="graph0" class="graph" transform="scale(1 1) rotate(0) translate(4 148)">
<title>BuffComponent.cpp</title>
<!-- Node1 -->
<g id="Node000001" class="node">
<title>Node1</title>
<g id="a_Node000001"><a xlink:title=" ">
<polygon fill="#999999" stroke="#666666" points="381.62,-144 279.38,-144 279.38,-124 381.62,-124 381.62,-144"/>
<text text-anchor="middle" x="330.5" y="-130.5" font-family="Arial" font-size="10.00">BuffComponent.cpp</text>
</a>
</g>
</g>
<!-- Node2 -->
<g id="Node000002" class="node">
<title>Node2</title>
<g id="a_Node000002"><a xlink:href="_buff_component_8h.html" target="_top" xlink:title=" ">
<polygon fill="white" stroke="#666666" points="221.38,-82 129.62,-82 129.62,-62 221.38,-62 221.38,-82"/>
<text text-anchor="middle" x="175.5" y="-68.5" font-family="Arial" font-size="10.00">BuffComponent.h</text>
</a>
</g>
</g>
<!-- Node1&#45;&gt;Node2 -->
<g id="edge1_Node000001_Node000002" class="edge">
<title>Node1&#45;&gt;Node2</title>
<g id="a_edge1_Node000001_Node000002"><a xlink:title=" ">
<path fill="none" stroke="#63b8ff" d="M306.28,-123.62C280.54,-113.66 239.59,-97.81 210.37,-86.5"/>
<polygon fill="#63b8ff" stroke="#63b8ff" points="211.8,-83.3 201.22,-82.95 209.28,-89.83 211.8,-83.3"/>
</a>
</g>
</g>
<!-- Node6 -->
<g id="Node000006" class="node">
<title>Node6</title>
<g id="a_Node000006"><a xlink:title=" ">
<polygon fill="#e0e0e0" stroke="#999999" points="421.75,-88 239.25,-88 239.25,-56 421.75,-56 421.75,-88"/>
<text text-anchor="start" x="247.25" y="-74.5" font-family="Arial" font-size="10.00">GameFramework/CharacterMovement</text>
<text text-anchor="middle" x="330.5" y="-62.5" font-family="Arial" font-size="10.00">Component.h</text>
</a>
</g>
</g>
<!-- Node1&#45;&gt;Node6 -->
<g id="edge5_Node000001_Node000006" class="edge">
<title>Node1&#45;&gt;Node6</title>
<g id="a_edge5_Node000001_Node000006"><a xlink:title=" ">
<path fill="none" stroke="#63b8ff" d="M330.5,-123.62C330.5,-117.1 330.5,-108.05 330.5,-99.4"/>
<polygon fill="#63b8ff" stroke="#63b8ff" points="334,-99.65 330.5,-89.65 327,-99.65 334,-99.65"/>
</a>
</g>
</g>
<!-- Node7 -->
<g id="Node000007" class="node">
<title>Node7</title>
<g id="a_Node000007"><a xlink:title=" ">
<polygon fill="#e0e0e0" stroke="#999999" points="597.38,-88 439.62,-88 439.62,-56 597.38,-56 597.38,-88"/>
<text text-anchor="start" x="447.62" y="-74.5" font-family="Arial" font-size="10.00">MultiplayerShooter</text>
<text text-anchor="middle" x="518.5" y="-62.5" font-family="Arial" font-size="10.00">/MainCharacter/MainCharacter.h</text>
</a>
</g>
</g>
<!-- Node1&#45;&gt;Node7 -->
<g id="edge6_Node000001_Node000007" class="edge">
<title>Node1&#45;&gt;Node7</title>
<g id="a_edge6_Node000001_Node000007"><a xlink:title=" ">
<path fill="none" stroke="#63b8ff" d="M359.88,-123.62C386.32,-115.19 425.99,-102.53 459.04,-91.98"/>
<polygon fill="#63b8ff" stroke="#63b8ff" points="460.06,-95.33 468.52,-88.95 457.93,-88.66 460.06,-95.33"/>
</a>
</g>
</g>
<!-- Node3 -->
<g id="Node000003" class="node">
<title>Node3</title>
<g id="a_Node000003"><a xlink:title=" ">
<polygon fill="#e0e0e0" stroke="#999999" points="79,-20 0,-20 0,0 79,0 79,-20"/>
<text text-anchor="middle" x="39.5" y="-6.5" font-family="Arial" font-size="10.00">CoreMinimal.h</text>
</a>
</g>
</g>
<!-- Node2&#45;&gt;Node3 -->
<g id="edge2_Node000002_Node000003" class="edge">
<title>Node2&#45;&gt;Node3</title>
<g id="a_edge2_Node000002_Node000003"><a xlink:title=" ">
<path fill="none" stroke="#63b8ff" d="M154.25,-61.62C131.89,-51.76 96.47,-36.13 70.89,-24.85"/>
<polygon fill="#63b8ff" stroke="#63b8ff" points="72.55,-21.75 61.99,-20.92 69.72,-28.16 72.55,-21.75"/>
</a>
</g>
</g>
<!-- Node4 -->
<g id="Node000004" class="node">
<title>Node4</title>
<g id="a_Node000004"><a xlink:title=" ">
<polygon fill="#e0e0e0" stroke="#999999" points="253.62,-20 97.38,-20 97.38,0 253.62,0 253.62,-20"/>
<text text-anchor="middle" x="175.5" y="-6.5" font-family="Arial" font-size="10.00">Components/ActorComponent.h</text>
</a>
</g>
</g>
<!-- Node2&#45;&gt;Node4 -->
<g id="edge3_Node000002_Node000004" class="edge">
<title>Node2&#45;&gt;Node4</title>
<g id="a_edge3_Node000002_Node000004"><a xlink:title=" ">
<path fill="none" stroke="#63b8ff" d="M175.5,-61.62C175.5,-53.56 175.5,-41.65 175.5,-31.41"/>
<polygon fill="#63b8ff" stroke="#63b8ff" points="179,-31.63 175.5,-21.63 172,-31.63 179,-31.63"/>
</a>
</g>
</g>
<!-- Node5 -->
<g id="Node000005" class="node">
<title>Node5</title>
<g id="a_Node000005"><a xlink:title=" ">
<polygon fill="#e0e0e0" stroke="#999999" points="409.25,-20 271.75,-20 271.75,0 409.25,0 409.25,-20"/>
<text text-anchor="middle" x="340.5" y="-6.5" font-family="Arial" font-size="10.00">BuffComponent.generated.h</text>
</a>
</g>
</g>
<!-- Node2&#45;&gt;Node5 -->
<g id="edge4_Node000002_Node000005" class="edge">
<title>Node2&#45;&gt;Node5</title>
<g id="a_edge4_Node000002_Node000005"><a xlink:title=" ">
<path fill="none" stroke="#63b8ff" d="M201.28,-61.62C228.93,-51.57 273.05,-35.53 304.2,-24.2"/>
<polygon fill="#63b8ff" stroke="#63b8ff" points="305,-27.63 313.21,-20.93 302.61,-21.05 305,-27.63"/>
</a>
</g>
</g>
</g>
</svg>
