<?xml version="1.0" encoding="UTF-8" standalone="no"?>
<!DOCTYPE svg PUBLIC "-//W3C//DTD SVG 1.1//EN"
 "http://www.w3.org/Graphics/SVG/1.1/DTD/svg11.dtd">
<!-- Generated by graphviz version 12.2.1 (20241206.2353)
 -->
<!-- Title: ChatComponent.cpp Pages: 1 -->
<svg width="1162pt" height="152pt"
 viewBox="0.00 0.00 1162.00 152.00" xmlns="http://www.w3.org/2000/svg" xmlns:xlink="http://www.w3.org/1999/xlink">
<g id="graph0" class="graph" transform="scale(1 1) rotate(0) translate(4 148)">
<title>ChatComponent.cpp</title>
<!-- Node1 -->
<g id="Node000001" class="node">
<title>Node1</title>
<g id="a_Node000001"><a xlink:title=" ">
<polygon fill="#999999" stroke="#666666" points="748.5,-144 642.5,-144 642.5,-124 748.5,-124 748.5,-144"/>
<text text-anchor="middle" x="695.5" y="-130.5" font-family="Arial" font-size="10.00">ChatComponent.cpp</text>
</a>
</g>
</g>
<!-- Node2 -->
<g id="Node000002" class="node">
<title>Node2</title>
<g id="a_Node000002"><a xlink:href="_chat_component_8h.html" target="_top" xlink:title=" ">
<polygon fill="white" stroke="#666666" points="223.25,-82 127.75,-82 127.75,-62 223.25,-62 223.25,-82"/>
<text text-anchor="middle" x="175.5" y="-68.5" font-family="Arial" font-size="10.00">ChatComponent.h</text>
</a>
</g>
</g>
<!-- Node1&#45;&gt;Node2 -->
<g id="edge1_Node000001_Node000002" class="edge">
<title>Node1&#45;&gt;Node2</title>
<g id="a_edge1_Node000001_Node000002"><a xlink:title=" ">
<path fill="none" stroke="#63b8ff" d="M642.35,-130.61C555.87,-126.1 379.57,-114.32 232.5,-88 228.09,-87.21 223.53,-86.25 218.99,-85.21"/>
<polygon fill="#63b8ff" stroke="#63b8ff" points="219.87,-81.82 209.32,-82.84 218.2,-88.62 219.87,-81.82"/>
</a>
</g>
</g>
<!-- Node6 -->
<g id="Node000006" class="node">
<title>Node6</title>
<g id="a_Node000006"><a xlink:title=" ">
<polygon fill="#e0e0e0" stroke="#999999" points="413.5,-82 241.5,-82 241.5,-62 413.5,-62 413.5,-82"/>
<text text-anchor="middle" x="327.5" y="-68.5" font-family="Arial" font-size="10.00">GameFramework/PlayerController.h</text>
</a>
</g>
</g>
<!-- Node1&#45;&gt;Node6 -->
<g id="edge5_Node000001_Node000006" class="edge">
<title>Node1&#45;&gt;Node6</title>
<g id="a_edge5_Node000001_Node000006"><a xlink:title=" ">
<path fill="none" stroke="#63b8ff" d="M642.38,-124.34C577.67,-113.79 468.18,-95.94 396.87,-84.31"/>
<polygon fill="#63b8ff" stroke="#63b8ff" points="397.69,-80.9 387.26,-82.74 396.57,-87.81 397.69,-80.9"/>
</a>
</g>
</g>
<!-- Node7 -->
<g id="Node000007" class="node">
<title>Node7</title>
<g id="a_Node000007"><a xlink:title=" ">
<polygon fill="#e0e0e0" stroke="#999999" points="529,-88 432,-88 432,-56 529,-56 529,-88"/>
<text text-anchor="start" x="440" y="-74.5" font-family="Arial" font-size="10.00">MultiplayerShooter</text>
<text text-anchor="middle" x="480.5" y="-62.5" font-family="Arial" font-size="10.00">/HUD/MainHUD.h</text>
</a>
</g>
</g>
<!-- Node1&#45;&gt;Node7 -->
<g id="edge6_Node000001_Node000007" class="edge">
<title>Node1&#45;&gt;Node7</title>
<g id="a_edge6_Node000001_Node000007"><a xlink:title=" ">
<path fill="none" stroke="#63b8ff" d="M661.91,-123.62C629.48,-114.58 579.67,-100.68 540.44,-89.73"/>
<polygon fill="#63b8ff" stroke="#63b8ff" points="541.45,-86.38 530.88,-87.06 539.57,-93.12 541.45,-86.38"/>
</a>
</g>
</g>
<!-- Node8 -->
<g id="Node000008" class="node">
<title>Node8</title>
<g id="a_Node000008"><a xlink:title=" ">
<polygon fill="#e0e0e0" stroke="#999999" points="691.62,-88 547.38,-88 547.38,-56 691.62,-56 691.62,-88"/>
<text text-anchor="start" x="555.38" y="-74.5" font-family="Arial" font-size="10.00">MultiplayerShooter</text>
<text text-anchor="middle" x="619.5" y="-62.5" font-family="Arial" font-size="10.00">/HUD/ChatMessageWidget.h</text>
</a>
</g>
</g>
<!-- Node1&#45;&gt;Node8 -->
<g id="edge7_Node000001_Node000008" class="edge">
<title>Node1&#45;&gt;Node8</title>
<g id="a_edge7_Node000001_Node000008"><a xlink:title=" ">
<path fill="none" stroke="#63b8ff" d="M683.62,-123.62C674.02,-116.04 660.09,-105.05 647.67,-95.24"/>
<polygon fill="#63b8ff" stroke="#63b8ff" points="650.18,-92.76 640.16,-89.31 645.84,-98.26 650.18,-92.76"/>
</a>
</g>
</g>
<!-- Node9 -->
<g id="Node000009" class="node">
<title>Node9</title>
<g id="a_Node000009"><a xlink:title=" ">
<polygon fill="#e0e0e0" stroke="#999999" points="834.88,-82 710.12,-82 710.12,-62 834.88,-62 834.88,-82"/>
<text text-anchor="middle" x="772.5" y="-68.5" font-family="Arial" font-size="10.00">Components/ScrollBox.h</text>
</a>
</g>
</g>
<!-- Node1&#45;&gt;Node9 -->
<g id="edge8_Node000001_Node000009" class="edge">
<title>Node1&#45;&gt;Node9</title>
<g id="a_edge8_Node000001_Node000009"><a xlink:title=" ">
<path fill="none" stroke="#63b8ff" d="M707.53,-123.62C719.28,-114.47 737.42,-100.34 751.54,-89.33"/>
<polygon fill="#63b8ff" stroke="#63b8ff" points="753.62,-92.15 759.36,-83.24 749.32,-86.63 753.62,-92.15"/>
</a>
</g>
</g>
<!-- Node10 -->
<g id="Node000010" class="node">
<title>Node10</title>
<g id="a_Node000010"><a xlink:title=" ">
<polygon fill="#e0e0e0" stroke="#999999" points="934.5,-82 852.5,-82 852.5,-62 934.5,-62 934.5,-82"/>
<text text-anchor="middle" x="893.5" y="-68.5" font-family="Arial" font-size="10.00">Engine/World.h</text>
</a>
</g>
</g>
<!-- Node1&#45;&gt;Node10 -->
<g id="edge9_Node000001_Node000010" class="edge">
<title>Node1&#45;&gt;Node10</title>
<g id="a_edge9_Node000001_Node000010"><a xlink:title=" ">
<path fill="none" stroke="#63b8ff" d="M726.44,-123.62C760.19,-113.4 814.41,-96.97 851.88,-85.61"/>
<polygon fill="#63b8ff" stroke="#63b8ff" points="852.45,-89.1 861.01,-82.85 850.42,-82.4 852.45,-89.1"/>
</a>
</g>
</g>
<!-- Node11 -->
<g id="Node000011" class="node">
<title>Node11</title>
<g id="a_Node000011"><a xlink:title=" ">
<polygon fill="#e0e0e0" stroke="#999999" points="1038.75,-82 952.25,-82 952.25,-62 1038.75,-62 1038.75,-82"/>
<text text-anchor="middle" x="995.5" y="-68.5" font-family="Arial" font-size="10.00">TimerManager.h</text>
</a>
</g>
</g>
<!-- Node1&#45;&gt;Node11 -->
<g id="edge10_Node000001_Node000011" class="edge">
<title>Node1&#45;&gt;Node11</title>
<g id="a_edge10_Node000001_Node000011"><a xlink:title=" ">
<path fill="none" stroke="#63b8ff" d="M748.55,-124.97C798.99,-116.96 876.82,-103.62 943.5,-88 946.82,-87.22 950.25,-86.36 953.69,-85.46"/>
<polygon fill="#63b8ff" stroke="#63b8ff" points="954.38,-88.9 963.1,-82.88 952.53,-82.15 954.38,-88.9"/>
</a>
</g>
</g>
<!-- Node12 -->
<g id="Node000012" class="node">
<title>Node12</title>
<g id="a_Node000012"><a xlink:title=" ">
<polygon fill="#e0e0e0" stroke="#999999" points="1154,-88 1057,-88 1057,-56 1154,-56 1154,-88"/>
<text text-anchor="start" x="1065" y="-74.5" font-family="Arial" font-size="10.00">MultiplayerShooter</text>
<text text-anchor="middle" x="1105.5" y="-62.5" font-family="Arial" font-size="10.00">/HUD/Chat.h</text>
</a>
</g>
</g>
<!-- Node1&#45;&gt;Node12 -->
<g id="edge11_Node000001_Node000012" class="edge">
<title>Node1&#45;&gt;Node12</title>
<g id="a_edge11_Node000001_Node000012"><a xlink:title=" ">
<path fill="none" stroke="#63b8ff" d="M748.91,-128.29C815.93,-121.9 934.58,-109.06 1045.5,-88.23"/>
<polygon fill="#63b8ff" stroke="#63b8ff" points="1045.9,-91.72 1055.06,-86.41 1044.59,-84.84 1045.9,-91.72"/>
</a>
</g>
</g>
<!-- Node3 -->
<g id="Node000003" class="node">
<title>Node3</title>
<g id="a_Node000003"><a xlink:title=" ">
<polygon fill="#e0e0e0" stroke="#999999" points="79,-20 0,-20 0,0 79,0 79,-20"/>
<text text-anchor="middle" x="39.5" y="-6.5" font-family="Arial" font-size="10.00">CoreMinimal.h</text>
</a>
</g>
</g>
<!-- Node2&#45;&gt;Node3 -->
<g id="edge2_Node000002_Node000003" class="edge">
<title>Node2&#45;&gt;Node3</title>
<g id="a_edge2_Node000002_Node000003"><a xlink:title=" ">
<path fill="none" stroke="#63b8ff" d="M154.25,-61.62C131.89,-51.76 96.47,-36.13 70.89,-24.85"/>
<polygon fill="#63b8ff" stroke="#63b8ff" points="72.55,-21.75 61.99,-20.92 69.72,-28.16 72.55,-21.75"/>
</a>
</g>
</g>
<!-- Node4 -->
<g id="Node000004" class="node">
<title>Node4</title>
<g id="a_Node000004"><a xlink:title=" ">
<polygon fill="#e0e0e0" stroke="#999999" points="253.62,-20 97.38,-20 97.38,0 253.62,0 253.62,-20"/>
<text text-anchor="middle" x="175.5" y="-6.5" font-family="Arial" font-size="10.00">Components/ActorComponent.h</text>
</a>
</g>
</g>
<!-- Node2&#45;&gt;Node4 -->
<g id="edge3_Node000002_Node000004" class="edge">
<title>Node2&#45;&gt;Node4</title>
<g id="a_edge3_Node000002_Node000004"><a xlink:title=" ">
<path fill="none" stroke="#63b8ff" d="M175.5,-61.62C175.5,-53.56 175.5,-41.65 175.5,-31.41"/>
<polygon fill="#63b8ff" stroke="#63b8ff" points="179,-31.63 175.5,-21.63 172,-31.63 179,-31.63"/>
</a>
</g>
</g>
<!-- Node5 -->
<g id="Node000005" class="node">
<title>Node5</title>
<g id="a_Node000005"><a xlink:title=" ">
<polygon fill="#e0e0e0" stroke="#999999" points="413.12,-20 271.88,-20 271.88,0 413.12,0 413.12,-20"/>
<text text-anchor="middle" x="342.5" y="-6.5" font-family="Arial" font-size="10.00">ChatComponent.generated.h</text>
</a>
</g>
</g>
<!-- Node2&#45;&gt;Node5 -->
<g id="edge4_Node000002_Node000005" class="edge">
<title>Node2&#45;&gt;Node5</title>
<g id="a_edge4_Node000002_Node000005"><a xlink:title=" ">
<path fill="none" stroke="#63b8ff" d="M201.59,-61.62C229.58,-51.57 274.23,-35.53 305.76,-24.2"/>
<polygon fill="#63b8ff" stroke="#63b8ff" points="306.66,-27.59 314.89,-20.92 304.3,-21.01 306.66,-27.59"/>
</a>
</g>
</g>
</g>
</svg>
