<?xml version="1.0" encoding="UTF-8" standalone="no"?>
<!DOCTYPE svg PUBLIC "-//W3C//DTD SVG 1.1//EN"
 "http://www.w3.org/Graphics/SVG/1.1/DTD/svg11.dtd">
<!-- Generated by graphviz version 12.2.1 (20241206.2353)
 -->
<!-- Title: ChatComponent.h Pages: 1 -->
<svg width="421pt" height="84pt"
 viewBox="0.00 0.00 421.12 84.00" xmlns="http://www.w3.org/2000/svg" xmlns:xlink="http://www.w3.org/1999/xlink">
<g id="graph0" class="graph" transform="scale(1 1) rotate(0) translate(4 80)">
<title>ChatComponent.h</title>
<!-- Node1 -->
<g id="Node000001" class="node">
<title>Node1</title>
<g id="a_Node000001"><a xlink:title=" ">
<polygon fill="#999999" stroke="#666666" points="223.25,-76 127.75,-76 127.75,-56 223.25,-56 223.25,-76"/>
<text text-anchor="middle" x="175.5" y="-62.5" font-family="Arial" font-size="10.00">ChatComponent.h</text>
</a>
</g>
</g>
<!-- Node2 -->
<g id="Node000002" class="node">
<title>Node2</title>
<g id="a_Node000002"><a xlink:title=" ">
<polygon fill="#e0e0e0" stroke="#999999" points="79,-20 0,-20 0,0 79,0 79,-20"/>
<text text-anchor="middle" x="39.5" y="-6.5" font-family="Arial" font-size="10.00">CoreMinimal.h</text>
</a>
</g>
</g>
<!-- Node1&#45;&gt;Node2 -->
<g id="edge1_Node000001_Node000002" class="edge">
<title>Node1&#45;&gt;Node2</title>
<g id="a_edge1_Node000001_Node000002"><a xlink:title=" ">
<path fill="none" stroke="#63b8ff" d="M151.81,-55.59C130.3,-47.05 98.3,-34.35 73.96,-24.68"/>
<polygon fill="#63b8ff" stroke="#63b8ff" points="75.37,-21.48 64.78,-21.04 72.78,-27.98 75.37,-21.48"/>
</a>
</g>
</g>
<!-- Node3 -->
<g id="Node000003" class="node">
<title>Node3</title>
<g id="a_Node000003"><a xlink:title=" ">
<polygon fill="#e0e0e0" stroke="#999999" points="253.62,-20 97.38,-20 97.38,0 253.62,0 253.62,-20"/>
<text text-anchor="middle" x="175.5" y="-6.5" font-family="Arial" font-size="10.00">Components/ActorComponent.h</text>
</a>
</g>
</g>
<!-- Node1&#45;&gt;Node3 -->
<g id="edge2_Node000001_Node000003" class="edge">
<title>Node1&#45;&gt;Node3</title>
<g id="a_edge2_Node000001_Node000003"><a xlink:title=" ">
<path fill="none" stroke="#63b8ff" d="M175.5,-55.59C175.5,-49.01 175.5,-39.96 175.5,-31.73"/>
<polygon fill="#63b8ff" stroke="#63b8ff" points="179,-31.81 175.5,-21.81 172,-31.81 179,-31.81"/>
</a>
</g>
</g>
<!-- Node4 -->
<g id="Node000004" class="node">
<title>Node4</title>
<g id="a_Node000004"><a xlink:title=" ">
<polygon fill="#e0e0e0" stroke="#999999" points="413.12,-20 271.88,-20 271.88,0 413.12,0 413.12,-20"/>
<text text-anchor="middle" x="342.5" y="-6.5" font-family="Arial" font-size="10.00">ChatComponent.generated.h</text>
</a>
</g>
</g>
<!-- Node1&#45;&gt;Node4 -->
<g id="edge3_Node000001_Node000004" class="edge">
<title>Node1&#45;&gt;Node4</title>
<g id="a_edge3_Node000001_Node000004"><a xlink:title=" ">
<path fill="none" stroke="#63b8ff" d="M204.59,-55.59C231.72,-46.82 272.43,-33.66 302.59,-23.9"/>
<polygon fill="#63b8ff" stroke="#63b8ff" points="303.31,-27.35 311.74,-20.95 301.15,-20.69 303.31,-27.35"/>
</a>
</g>
</g>
</g>
</svg>
