<?xml version="1.0" encoding="UTF-8" standalone="no"?>
<!DOCTYPE svg PUBLIC "-//W3C//DTD SVG 1.1//EN"
 "http://www.w3.org/Graphics/SVG/1.1/DTD/svg11.dtd">
<!-- Generated by graphviz version 12.2.1 (20241206.2353)
 -->
<!-- Title: CombatComponent.h Pages: 1 -->
<svg width="550pt" height="96pt"
 viewBox="0.00 0.00 549.88 96.00" xmlns="http://www.w3.org/2000/svg" xmlns:xlink="http://www.w3.org/1999/xlink">
<g id="graph0" class="graph" transform="scale(1 1) rotate(0) translate(4 92)">
<title>CombatComponent.h</title>
<!-- Node1 -->
<g id="Node000001" class="node">
<title>Node1</title>
<g id="a_Node000001"><a xlink:title=" ">
<polygon fill="#999999" stroke="#666666" points="302,-88 193,-88 193,-68 302,-68 302,-88"/>
<text text-anchor="middle" x="247.5" y="-74.5" font-family="Arial" font-size="10.00">CombatComponent.h</text>
</a>
</g>
</g>
<!-- Node2 -->
<g id="Node000002" class="node">
<title>Node2</title>
<g id="a_Node000002"><a xlink:title=" ">
<polygon fill="#e0e0e0" stroke="#999999" points="79,-26 0,-26 0,-6 79,-6 79,-26"/>
<text text-anchor="middle" x="39.5" y="-12.5" font-family="Arial" font-size="10.00">CoreMinimal.h</text>
</a>
</g>
</g>
<!-- Node1&#45;&gt;Node2 -->
<g id="edge1_Node000001_Node000002" class="edge">
<title>Node1&#45;&gt;Node2</title>
<g id="a_edge1_Node000001_Node000002"><a xlink:title=" ">
<path fill="none" stroke="#63b8ff" d="M213.32,-67.55C181.08,-58.59 131.43,-44.64 88.5,-32 86.07,-31.29 83.58,-30.54 81.07,-29.79"/>
<polygon fill="#63b8ff" stroke="#63b8ff" points="82.09,-26.44 71.5,-26.9 80.06,-33.14 82.09,-26.44"/>
</a>
</g>
</g>
<!-- Node3 -->
<g id="Node000003" class="node">
<title>Node3</title>
<g id="a_Node000003"><a xlink:title=" ">
<polygon fill="#e0e0e0" stroke="#999999" points="253.62,-26 97.38,-26 97.38,-6 253.62,-6 253.62,-26"/>
<text text-anchor="middle" x="175.5" y="-12.5" font-family="Arial" font-size="10.00">Components/ActorComponent.h</text>
</a>
</g>
</g>
<!-- Node1&#45;&gt;Node3 -->
<g id="edge2_Node000001_Node000003" class="edge">
<title>Node1&#45;&gt;Node3</title>
<g id="a_edge2_Node000001_Node000003"><a xlink:title=" ">
<path fill="none" stroke="#63b8ff" d="M236.25,-67.62C225.3,-58.5 208.43,-44.45 195.25,-33.46"/>
<polygon fill="#63b8ff" stroke="#63b8ff" points="197.52,-30.79 187.6,-27.08 193.04,-36.17 197.52,-30.79"/>
</a>
</g>
</g>
<!-- Node4 -->
<g id="Node000004" class="node">
<title>Node4</title>
<g id="a_Node000004"><a xlink:title=" ">
<polygon fill="#e0e0e0" stroke="#999999" points="369,-32 272,-32 272,0 369,0 369,-32"/>
<text text-anchor="start" x="280" y="-18.5" font-family="Arial" font-size="10.00">MultiplayerShooter</text>
<text text-anchor="middle" x="320.5" y="-6.5" font-family="Arial" font-size="10.00">/HUD/MainHUD.h</text>
</a>
</g>
</g>
<!-- Node1&#45;&gt;Node4 -->
<g id="edge3_Node000001_Node000004" class="edge">
<title>Node1&#45;&gt;Node4</title>
<g id="a_edge3_Node000001_Node000004"><a xlink:title=" ">
<path fill="none" stroke="#63b8ff" d="M258.91,-67.62C268.05,-60.11 281.25,-49.26 293.1,-39.52"/>
<polygon fill="#63b8ff" stroke="#63b8ff" points="295.12,-42.39 300.63,-33.33 290.68,-36.98 295.12,-42.39"/>
</a>
</g>
</g>
<!-- Node5 -->
<g id="Node000005" class="node">
<title>Node5</title>
<g id="a_Node000005"><a xlink:title=" ">
<polygon fill="#e0e0e0" stroke="#999999" points="541.88,-26 387.12,-26 387.12,-6 541.88,-6 541.88,-26"/>
<text text-anchor="middle" x="464.5" y="-12.5" font-family="Arial" font-size="10.00">CombatComponent.generated.h</text>
</a>
</g>
</g>
<!-- Node1&#45;&gt;Node5 -->
<g id="edge4_Node000001_Node000005" class="edge">
<title>Node1&#45;&gt;Node5</title>
<g id="a_edge4_Node000001_Node000005"><a xlink:title=" ">
<path fill="none" stroke="#63b8ff" d="M281.41,-67.62C318.56,-57.35 378.33,-40.82 419.42,-29.47"/>
<polygon fill="#63b8ff" stroke="#63b8ff" points="420.31,-32.85 429.02,-26.81 418.44,-26.1 420.31,-32.85"/>
</a>
</g>
</g>
</g>
</svg>
