<?xml version="1.0" encoding="UTF-8" standalone="no"?>
<!DOCTYPE svg PUBLIC "-//W3C//DTD SVG 1.1//EN"
 "http://www.w3.org/Graphics/SVG/1.1/DTD/svg11.dtd">
<!-- Generated by graphviz version 12.2.1 (20241206.2353)
 -->
<!-- Title: CombatComponent.cpp Pages: 1 -->
<!--zoomable 176 -->

<svg id="main" version="1.1" xmlns="http://www.w3.org/2000/svg" xmlns:xlink="http://www.w3.org/1999/xlink" xml:space="preserve" onload="init(evt)">

<style type="text/css"><![CDATA[
.node, .edge {opacity: 0.7;}
.node.selected, .edge.selected {opacity: 1;}
.edge:hover path { stroke: red; }
.edge:hover polygon { stroke: red; fill: red; }
]]></style>

<defs>
  <circle id="rim" cx="0" cy="0" r="7"/>
  <circle id="rim2" cx="0" cy="0" r="3.5"/>
  <g id="zoomPlus">
    <use xlink:href="#rim" fill="#404040"><set attributeName="fill" to="#808080" begin="zoomplus.mouseover" end="zoomplus.mouseout"/></use>
    <path d="M-4,0h8M0,-4v8" fill="none" stroke="white" stroke-width="1.5" pointer-events="none"/>
  </g>
  <g id="zoomMin">
    <use xlink:href="#rim" fill="#404040"><set attributeName="fill" to="#808080" begin="zoomminus.mouseover" end="zoomminus.mouseout"/></use>
    <path d="M-4,0h8" fill="none" stroke="white" stroke-width="1.5" pointer-events="none"/>
  </g>
  <g id="arrowUp" transform="translate(30 24)">
    <use xlink:href="#rim"/>
    <path pointer-events="none" fill="none" stroke="white" stroke-width="1.5" d="M0,-3.0v7 M-2.5,-0.5L0,-3.0L2.5,-0.5"/>
  </g>
  <g id="arrowRight" transform="rotate(90) translate(36 -43)">
    <use xlink:href="#rim"/>
    <path pointer-events="none" fill="none" stroke="white" stroke-width="1.5" d="M0,-3.0v7 M-2.5,-0.5L0,-3.0L2.5,-0.5"/>
  </g>
  <g id="arrowDown" transform="rotate(180) translate(-30 -48)">
    <use xlink:href="#rim"/>
    <path pointer-events="none" fill="none" stroke="white" stroke-width="1.5" d="M0,-3.0v7 M-2.5,-0.5L0,-3.0L2.5,-0.5"/>
  </g>
  <g id="arrowLeft" transform="rotate(270) translate(-36 17)">
    <use xlink:href="#rim"/>
    <path pointer-events="none" fill="none" stroke="white" stroke-width="1.5" d="M0,-3.0v7 M-2.5,-0.5L0,-3.0L2.5,-0.5"/>
  </g>
  <g id="resetDef">
    <use xlink:href="#rim2" fill="#404040"><set attributeName="fill" to="#808080" begin="reset.mouseover" end="reset.mouseout"/></use>
  </g>
</defs>
<script type="application/ecmascript">
var viewWidth = 2545;
var viewHeight = 176;
var sectionId = 'dynsection-0';
</script>
<script type="application/ecmascript" xlink:href="svg.min.js"/>
<svg id="graph" class="graph">
<g id="viewport">
<title>CombatComponent.cpp</title>
<!-- Node1 -->
<g id="Node000001" class="node">
<title>Node1</title>
<g id="a_Node000001"><a xlink:title=" ">
<polygon fill="#999999" stroke="#666666" points="1529.25,-168 1409.75,-168 1409.75,-148 1529.25,-148 1529.25,-168"/>
<text text-anchor="middle" x="1469.5" y="-154.5" font-family="Arial" font-size="10.00">CombatComponent.cpp</text>
</a>
</g>
</g>
<!-- Node2 -->
<g id="Node000002" class="node">
<title>Node2</title>
<g id="a_Node000002"><a xlink:href="_combat_component_8h.html" target="_top" xlink:title=" ">
<polygon fill="white" stroke="#666666" points="302,-100 193,-100 193,-80 302,-80 302,-100"/>
<text text-anchor="middle" x="247.5" y="-86.5" font-family="Arial" font-size="10.00">CombatComponent.h</text>
</a>
</g>
</g>
<!-- Node1&#45;&gt;Node2 -->
<g id="edge1_Node000001_Node000002" class="edge">
<title>Node1&#45;&gt;Node2</title>
<g id="a_edge1_Node000001_Node000002"><a xlink:title=" ">
<path fill="none" stroke="#63b8ff" d="M1409.48,-156.9C1203.25,-156.23 524.58,-151.02 310.5,-112 300.9,-110.25 290.77,-107.36 281.5,-104.28"/>
<polygon fill="#63b8ff" stroke="#63b8ff" points="282.74,-101.01 272.15,-100.99 280.42,-107.61 282.74,-101.01"/>
</a>
</g>
</g>
<!-- Node7 -->
<g id="Node000007" class="node">
<title>Node7</title>
<g id="a_Node000007"><a xlink:title=" ">
<polygon fill="#e0e0e0" stroke="#999999" points="465.38,-106 319.62,-106 319.62,-74 465.38,-74 465.38,-106"/>
<text text-anchor="start" x="327.62" y="-92.5" font-family="Arial" font-size="10.00">MultiplayerShooter</text>
<text text-anchor="middle" x="392.5" y="-80.5" font-family="Arial" font-size="10.00">/BaseWeapon/BaseWeapon.h</text>
</a>
</g>
</g>
<!-- Node1&#45;&gt;Node7 -->
<g id="edge6_Node000001_Node000007" class="edge">
<title>Node1&#45;&gt;Node7</title>
<g id="a_edge6_Node000001_Node000007"><a xlink:title=" ">
<path fill="none" stroke="#63b8ff" d="M1409.48,-155.9C1223.17,-152.24 656.43,-139.12 474.5,-112 468.92,-111.17 463.17,-110.11 457.42,-108.92"/>
<polygon fill="#63b8ff" stroke="#63b8ff" points="458.43,-105.56 447.91,-106.81 456.91,-112.39 458.43,-105.56"/>
</a>
</g>
</g>
<!-- Node8 -->
<g id="Node000008" class="node">
<title>Node8</title>
<g id="a_Node000008"><a xlink:title=" ">
<polygon fill="#e0e0e0" stroke="#999999" points="641.38,-106 483.62,-106 483.62,-74 641.38,-74 641.38,-106"/>
<text text-anchor="start" x="491.62" y="-92.5" font-family="Arial" font-size="10.00">MultiplayerShooter</text>
<text text-anchor="middle" x="562.5" y="-80.5" font-family="Arial" font-size="10.00">/MainCharacter/MainCharacter.h</text>
</a>
</g>
</g>
<!-- Node1&#45;&gt;Node8 -->
<g id="edge7_Node000001_Node000008" class="edge">
<title>Node1&#45;&gt;Node8</title>
<g id="a_edge7_Node000001_Node000008"><a xlink:title=" ">
<path fill="none" stroke="#63b8ff" d="M1409.28,-157.37C1273.25,-157.41 932.16,-153.01 650.5,-112 644.48,-111.12 638.26,-110.03 632.05,-108.81"/>
<polygon fill="#63b8ff" stroke="#63b8ff" points="632.9,-105.41 622.39,-106.79 631.47,-112.26 632.9,-105.41"/>
</a>
</g>
</g>
<!-- Node9 -->
<g id="Node000009" class="node">
<title>Node9</title>
<g id="a_Node000009"><a xlink:title=" ">
<polygon fill="#e0e0e0" stroke="#999999" points="807.12,-100 659.88,-100 659.88,-80 807.12,-80 807.12,-100"/>
<text text-anchor="middle" x="733.5" y="-86.5" font-family="Arial" font-size="10.00">Engine/SkeletalMeshSocket.h</text>
</a>
</g>
</g>
<!-- Node1&#45;&gt;Node9 -->
<g id="edge8_Node000001_Node000009" class="edge">
<title>Node1&#45;&gt;Node9</title>
<g id="a_edge8_Node000001_Node000009"><a xlink:title=" ">
<path fill="none" stroke="#63b8ff" d="M1409.67,-156.45C1294.25,-154.59 1033.08,-146.58 816.5,-112 803.22,-109.88 788.95,-106.63 776.06,-103.32"/>
<polygon fill="#63b8ff" stroke="#63b8ff" points="777.17,-100 766.61,-100.81 775.38,-106.76 777.17,-100"/>
</a>
</g>
</g>
<!-- Node10 -->
<g id="Node000010" class="node">
<title>Node10</title>
<g id="a_Node000010"><a xlink:title=" ">
<polygon fill="#e0e0e0" stroke="#999999" points="989.38,-100 825.62,-100 825.62,-80 989.38,-80 989.38,-100"/>
<text text-anchor="middle" x="907.5" y="-86.5" font-family="Arial" font-size="10.00">Components/SphereComponent.h</text>
</a>
</g>
</g>
<!-- Node1&#45;&gt;Node10 -->
<g id="edge9_Node000001_Node000010" class="edge">
<title>Node1&#45;&gt;Node10</title>
<g id="a_edge9_Node000001_Node000010"><a xlink:title=" ">
<path fill="none" stroke="#63b8ff" d="M1409.32,-153.79C1319.46,-148.43 1145.05,-135.8 998.5,-112 984.1,-109.66 968.59,-106.37 954.52,-103.09"/>
<polygon fill="#63b8ff" stroke="#63b8ff" points="955.61,-99.75 945.07,-100.83 953.98,-106.56 955.61,-99.75"/>
</a>
</g>
</g>
<!-- Node11 -->
<g id="Node000011" class="node">
<title>Node11</title>
<g id="a_Node000011"><a xlink:title=" ">
<polygon fill="#e0e0e0" stroke="#999999" points="1189.75,-106 1007.25,-106 1007.25,-74 1189.75,-74 1189.75,-106"/>
<text text-anchor="start" x="1015.25" y="-92.5" font-family="Arial" font-size="10.00">GameFramework/CharacterMovement</text>
<text text-anchor="middle" x="1098.5" y="-80.5" font-family="Arial" font-size="10.00">Component.h</text>
</a>
</g>
</g>
<!-- Node1&#45;&gt;Node11 -->
<g id="edge10_Node000001_Node000011" class="edge">
<title>Node1&#45;&gt;Node11</title>
<g id="a_edge10_Node000001_Node000011"><a xlink:title=" ">
<path fill="none" stroke="#63b8ff" d="M1409.36,-147.76C1354.36,-139.14 1270.8,-125.59 1198.5,-112 1192.92,-110.95 1187.18,-109.84 1181.39,-108.69"/>
<polygon fill="#63b8ff" stroke="#63b8ff" points="1182.23,-105.29 1171.74,-106.75 1180.85,-112.15 1182.23,-105.29"/>
</a>
</g>
</g>
<!-- Node12 -->
<g id="Node000012" class="node">
<title>Node12</title>
<g id="a_Node000012"><a xlink:title=" ">
<polygon fill="#e0e0e0" stroke="#999999" points="1315.62,-100 1207.38,-100 1207.38,-80 1315.62,-80 1315.62,-100"/>
<text text-anchor="middle" x="1261.5" y="-86.5" font-family="Arial" font-size="10.00">Net/UnrealNetwork.h</text>
</a>
</g>
</g>
<!-- Node1&#45;&gt;Node12 -->
<g id="edge11_Node000001_Node000012" class="edge">
<title>Node1&#45;&gt;Node12</title>
<g id="a_edge11_Node000001_Node000012"><a xlink:title=" ">
<path fill="none" stroke="#63b8ff" d="M1438.84,-147.56C1409.66,-138.54 1364.54,-124.5 1325.5,-112 1317.54,-109.45 1309.03,-106.69 1300.9,-104.03"/>
<polygon fill="#63b8ff" stroke="#63b8ff" points="1302.18,-100.76 1291.58,-100.97 1299.99,-107.41 1302.18,-100.76"/>
</a>
</g>
</g>
<!-- Node13 -->
<g id="Node000013" class="node">
<title>Node13</title>
<g id="a_Node000013"><a xlink:title=" ">
<polygon fill="#e0e0e0" stroke="#999999" points="1467,-100 1334,-100 1334,-80 1467,-80 1467,-100"/>
<text text-anchor="middle" x="1400.5" y="-86.5" font-family="Arial" font-size="10.00">Kismet/GameplayStatics.h</text>
</a>
</g>
</g>
<!-- Node1&#45;&gt;Node13 -->
<g id="edge12_Node000001_Node000013" class="edge">
<title>Node1&#45;&gt;Node13</title>
<g id="a_edge12_Node000001_Node000013"><a xlink:title=" ">
<path fill="none" stroke="#63b8ff" d="M1459.61,-147.54C1448.96,-137.35 1431.76,-120.9 1418.66,-108.37"/>
<polygon fill="#63b8ff" stroke="#63b8ff" points="1421.11,-105.87 1411.46,-101.48 1416.27,-110.93 1421.11,-105.87"/>
</a>
</g>
</g>
<!-- Node14 -->
<g id="Node000014" class="node">
<title>Node14</title>
<g id="a_Node000014"><a xlink:title=" ">
<polygon fill="#e0e0e0" stroke="#999999" points="1594.38,-100 1484.62,-100 1484.62,-80 1594.38,-80 1594.38,-100"/>
<text text-anchor="middle" x="1539.5" y="-86.5" font-family="Arial" font-size="10.00">DrawDebugHelpers.h</text>
</a>
</g>
</g>
<!-- Node1&#45;&gt;Node14 -->
<g id="edge13_Node000001_Node000014" class="edge">
<title>Node1&#45;&gt;Node14</title>
<g id="a_edge13_Node000001_Node000014"><a xlink:title=" ">
<path fill="none" stroke="#63b8ff" d="M1479.53,-147.54C1490.45,-137.25 1508.12,-120.58 1521.46,-108.01"/>
<polygon fill="#63b8ff" stroke="#63b8ff" points="1523.51,-110.88 1528.39,-101.48 1518.71,-105.79 1523.51,-110.88"/>
</a>
</g>
</g>
<!-- Node15 -->
<g id="Node000015" class="node">
<title>Node15</title>
<g id="a_Node000015"><a xlink:title=" ">
<polygon fill="#e0e0e0" stroke="#999999" points="1720.62,-100 1612.38,-100 1612.38,-80 1720.62,-80 1720.62,-100"/>
<text text-anchor="middle" x="1666.5" y="-86.5" font-family="Arial" font-size="10.00">NiagaraComponent.h</text>
</a>
</g>
</g>
<!-- Node1&#45;&gt;Node15 -->
<g id="edge14_Node000001_Node000015" class="edge">
<title>Node1&#45;&gt;Node15</title>
<g id="a_edge14_Node000001_Node000015"><a xlink:title=" ">
<path fill="none" stroke="#63b8ff" d="M1497.73,-147.54C1531.81,-136.12 1589.32,-116.86 1627.6,-104.03"/>
<polygon fill="#63b8ff" stroke="#63b8ff" points="1628.52,-107.41 1636.89,-100.92 1626.3,-100.78 1628.52,-107.41"/>
</a>
</g>
</g>
<!-- Node16 -->
<g id="Node000016" class="node">
<title>Node16</title>
<g id="a_Node000016"><a xlink:title=" ">
<polygon fill="#e0e0e0" stroke="#999999" points="1862.5,-100 1738.5,-100 1738.5,-80 1862.5,-80 1862.5,-100"/>
<text text-anchor="middle" x="1800.5" y="-86.5" font-family="Arial" font-size="10.00">NiagaraFunctionLibrary.h</text>
</a>
</g>
</g>
<!-- Node1&#45;&gt;Node16 -->
<g id="edge15_Node000001_Node000016" class="edge">
<title>Node1&#45;&gt;Node16</title>
<g id="a_edge15_Node000001_Node000016"><a xlink:title=" ">
<path fill="none" stroke="#63b8ff" d="M1529.53,-148.63C1582.49,-140.78 1661.58,-127.86 1729.5,-112 1739.59,-109.64 1750.38,-106.69 1760.41,-103.74"/>
<polygon fill="#63b8ff" stroke="#63b8ff" points="1761.32,-107.12 1769.89,-100.89 1759.31,-100.42 1761.32,-107.12"/>
</a>
</g>
</g>
<!-- Node17 -->
<g id="Node000017" class="node">
<title>Node17</title>
<g id="a_Node000017"><a xlink:title=" ">
<polygon fill="#e0e0e0" stroke="#999999" points="1996.75,-100 1880.25,-100 1880.25,-80 1996.75,-80 1996.75,-100"/>
<text text-anchor="middle" x="1938.5" y="-86.5" font-family="Arial" font-size="10.00">Math/UnitConversion.h</text>
</a>
</g>
</g>
<!-- Node1&#45;&gt;Node17 -->
<g id="edge16_Node000001_Node000017" class="edge">
<title>Node1&#45;&gt;Node17</title>
<g id="a_edge16_Node000001_Node000017"><a xlink:title=" ">
<path fill="none" stroke="#63b8ff" d="M1529.67,-153.88C1608.77,-148.96 1751.76,-137.22 1871.5,-112 1881.36,-109.92 1891.84,-107 1901.51,-103.99"/>
<polygon fill="#63b8ff" stroke="#63b8ff" points="1902.52,-107.34 1910.96,-100.93 1900.37,-100.68 1902.52,-107.34"/>
</a>
</g>
</g>
<!-- Node18 -->
<g id="Node000018" class="node">
<title>Node18</title>
<g id="a_Node000018"><a xlink:title=" ">
<polygon fill="#e0e0e0" stroke="#999999" points="2148,-112 2015,-112 2015,-68 2148,-68 2148,-112"/>
<text text-anchor="start" x="2023" y="-98.5" font-family="Arial" font-size="10.00">MultiplayerShooter</text>
<text text-anchor="start" x="2023" y="-86.5" font-family="Arial" font-size="10.00">/PlayerController/MyPlayer</text>
<text text-anchor="middle" x="2081.5" y="-74.5" font-family="Arial" font-size="10.00">Controller.h</text>
</a>
</g>
</g>
<!-- Node1&#45;&gt;Node18 -->
<g id="edge17_Node000001_Node000018" class="edge">
<title>Node1&#45;&gt;Node18</title>
<g id="a_edge17_Node000001_Node000018"><a xlink:title=" ">
<path fill="none" stroke="#63b8ff" d="M1529.46,-155.59C1627,-152.51 1826.13,-142.93 2003.41,-112.19"/>
<polygon fill="#63b8ff" stroke="#63b8ff" points="2003.79,-115.68 2013.03,-110.5 2002.57,-108.79 2003.79,-115.68"/>
</a>
</g>
</g>
<!-- Node19 -->
<g id="Node000019" class="node">
<title>Node19</title>
<g id="a_Node000019"><a xlink:title=" ">
<polygon fill="#e0e0e0" stroke="#999999" points="2312.75,-100 2166.25,-100 2166.25,-80 2312.75,-80 2312.75,-100"/>
<text text-anchor="middle" x="2239.5" y="-86.5" font-family="Arial" font-size="10.00">Camera/CameraComponent.h</text>
</a>
</g>
</g>
<!-- Node1&#45;&gt;Node19 -->
<g id="edge18_Node000001_Node000019" class="edge">
<title>Node1&#45;&gt;Node19</title>
<g id="a_edge18_Node000001_Node000019"><a xlink:title=" ">
<path fill="none" stroke="#63b8ff" d="M1529.73,-156.8C1649.89,-155.58 1927.58,-148.63 2157.5,-112 2170.63,-109.91 2184.73,-106.67 2197.46,-103.36"/>
<polygon fill="#63b8ff" stroke="#63b8ff" points="2198.04,-106.83 2206.78,-100.85 2196.22,-100.07 2198.04,-106.83"/>
</a>
</g>
</g>
<!-- Node20 -->
<g id="Node000020" class="node">
<title>Node20</title>
<g id="a_Node000020"><a xlink:title=" ">
<polygon fill="#e0e0e0" stroke="#999999" points="2417.75,-100 2331.25,-100 2331.25,-80 2417.75,-80 2417.75,-100"/>
<text text-anchor="middle" x="2374.5" y="-86.5" font-family="Arial" font-size="10.00">TimerManager.h</text>
</a>
</g>
</g>
<!-- Node1&#45;&gt;Node20 -->
<g id="edge19_Node000001_Node000020" class="edge">
<title>Node1&#45;&gt;Node20</title>
<g id="a_edge19_Node000001_Node000020"><a xlink:title=" ">
<path fill="none" stroke="#63b8ff" d="M1529.52,-156.35C1697.53,-154.13 2170.19,-145.04 2321.5,-112 2329.3,-110.3 2337.44,-107.58 2344.94,-104.67"/>
<polygon fill="#63b8ff" stroke="#63b8ff" points="2346.06,-107.99 2353.95,-100.92 2343.37,-101.53 2346.06,-107.99"/>
</a>
</g>
</g>
<!-- Node21 -->
<g id="Node000021" class="node">
<title>Node21</title>
<g id="a_Node000021"><a xlink:title=" ">
<polygon fill="#e0e0e0" stroke="#999999" points="2536.88,-100 2436.12,-100 2436.12,-80 2536.88,-80 2536.88,-100"/>
<text text-anchor="middle" x="2486.5" y="-86.5" font-family="Arial" font-size="10.00">Sound/SoundCue.h</text>
</a>
</g>
</g>
<!-- Node1&#45;&gt;Node21 -->
<g id="edge20_Node000001_Node000021" class="edge">
<title>Node1&#45;&gt;Node21</title>
<g id="a_edge20_Node000001_Node000021"><a xlink:title=" ">
<path fill="none" stroke="#63b8ff" d="M1529.58,-156.44C1711.34,-154.41 2253.53,-145.59 2426.5,-112 2435.56,-110.24 2445.11,-107.39 2453.86,-104.34"/>
<polygon fill="#63b8ff" stroke="#63b8ff" points="2454.82,-107.72 2463,-100.98 2452.4,-101.15 2454.82,-107.72"/>
</a>
</g>
</g>
<!-- Node3 -->
<g id="Node000003" class="node">
<title>Node3</title>
<g id="a_Node000003"><a xlink:title=" ">
<polygon fill="#e0e0e0" stroke="#999999" points="79,-26 0,-26 0,-6 79,-6 79,-26"/>
<text text-anchor="middle" x="39.5" y="-12.5" font-family="Arial" font-size="10.00">CoreMinimal.h</text>
</a>
</g>
</g>
<!-- Node2&#45;&gt;Node3 -->
<g id="edge2_Node000002_Node000003" class="edge">
<title>Node2&#45;&gt;Node3</title>
<g id="a_edge2_Node000002_Node000003"><a xlink:title=" ">
<path fill="none" stroke="#63b8ff" d="M220.31,-79.59C183.79,-66.95 118.74,-44.43 77.42,-30.13"/>
<polygon fill="#63b8ff" stroke="#63b8ff" points="78.72,-26.87 68.13,-26.91 76.43,-33.49 78.72,-26.87"/>
</a>
</g>
</g>
<!-- Node4 -->
<g id="Node000004" class="node">
<title>Node4</title>
<g id="a_Node000004"><a xlink:title=" ">
<polygon fill="#e0e0e0" stroke="#999999" points="253.62,-26 97.38,-26 97.38,-6 253.62,-6 253.62,-26"/>
<text text-anchor="middle" x="175.5" y="-12.5" font-family="Arial" font-size="10.00">Components/ActorComponent.h</text>
</a>
</g>
</g>
<!-- Node2&#45;&gt;Node4 -->
<g id="edge3_Node000002_Node000004" class="edge">
<title>Node2&#45;&gt;Node4</title>
<g id="a_edge3_Node000002_Node000004"><a xlink:title=" ">
<path fill="none" stroke="#63b8ff" d="M238.09,-79.59C226.6,-68.1 206.94,-48.44 192.72,-34.22"/>
<polygon fill="#63b8ff" stroke="#63b8ff" points="195.3,-31.85 185.76,-27.26 190.35,-36.8 195.3,-31.85"/>
</a>
</g>
</g>
<!-- Node5 -->
<g id="Node000005" class="node">
<title>Node5</title>
<g id="a_Node000005"><a xlink:title=" ">
<polygon fill="#e0e0e0" stroke="#999999" points="369,-32 272,-32 272,0 369,0 369,-32"/>
<text text-anchor="start" x="280" y="-18.5" font-family="Arial" font-size="10.00">MultiplayerShooter</text>
<text text-anchor="middle" x="320.5" y="-6.5" font-family="Arial" font-size="10.00">/HUD/MainHUD.h</text>
</a>
</g>
</g>
<!-- Node2&#45;&gt;Node5 -->
<g id="edge4_Node000002_Node000005" class="edge">
<title>Node2&#45;&gt;Node5</title>
<g id="a_edge4_Node000002_Node000005"><a xlink:title=" ">
<path fill="none" stroke="#63b8ff" d="M257.04,-79.59C267.09,-69.68 283.3,-53.69 296.82,-40.35"/>
<polygon fill="#63b8ff" stroke="#63b8ff" points="299.07,-43.05 303.74,-33.53 294.16,-38.06 299.07,-43.05"/>
</a>
</g>
</g>
<!-- Node6 -->
<g id="Node000006" class="node">
<title>Node6</title>
<g id="a_Node000006"><a xlink:title=" ">
<polygon fill="#e0e0e0" stroke="#999999" points="541.88,-26 387.12,-26 387.12,-6 541.88,-6 541.88,-26"/>
<text text-anchor="middle" x="464.5" y="-12.5" font-family="Arial" font-size="10.00">CombatComponent.generated.h</text>
</a>
</g>
</g>
<!-- Node2&#45;&gt;Node6 -->
<g id="edge5_Node000002_Node000006" class="edge">
<title>Node2&#45;&gt;Node6</title>
<g id="a_edge5_Node000002_Node000006"><a xlink:title=" ">
<path fill="none" stroke="#63b8ff" d="M275.72,-79.58C286.59,-75.96 299.12,-71.78 310.5,-68 349.42,-55.07 393.89,-40.35 425,-30.06"/>
<polygon fill="#63b8ff" stroke="#63b8ff" points="426,-33.41 434.39,-26.95 423.8,-26.77 426,-33.41"/>
</a>
</g>
</g>
</g>
</svg>

<g id="navigator" transform="translate(0 0)" fill="#404254">
  <rect fill="#f2f5e9" fill-opacity="0.5" stroke="#606060" stroke-width=".5" x="0" y="0" width="60" height="60"/>
  <use id="zoomplus" xlink:href="#zoomPlus" x="17" y="9" onmousedown="handleZoom(evt,'in')"/>
  <use id="zoomminus" xlink:href="#zoomMin" x="42" y="9" onmousedown="handleZoom(evt,'out')"/>
  <use id="reset" xlink:href="#resetDef" x="30" y="36" onmousedown="handleReset()"/>
   <use id="arrowup" xlink:href="#arrowUp" x="0" y="0" onmousedown="handlePan(0,-1)"/>
  <use id="arrowright" xlink:href="#arrowRight" x="0" y="0" onmousedown="handlePan(1,0)"/>
  <use id="arrowdown" xlink:href="#arrowDown" x="0" y="0" onmousedown="handlePan(0,1)"/>
  <use id="arrowleft" xlink:href="#arrowLeft" x="0" y="0" onmousedown="handlePan(-1,0)"/>
</g>
<svg viewBox="0 0 15 15" width="100%" height="30px" preserveAspectRatio="xMaxYMin meet">
 <g id="arrow_out" transform="scale(0.3 0.3)">
  <a xlink:href="_combat_component_8cpp__incl_org.svg" target="_base">
   <rect id="button" ry="5" rx="5" y="6" x="6" height="38" width="38"
        fill="#f2f5e9" fill-opacity="0.5" stroke="#606060" stroke-width="1.0"/>
   <path id="arrow"
     d="M 11.500037,31.436501 C 11.940474,20.09759 22.043105,11.32322 32.158766,21.979434 L 37.068811,17.246167 C 37.068811,17.246167 37.088388,32 37.088388,32 L 22.160133,31.978069 C 22.160133,31.978069 26.997745,27.140456 26.997745,27.140456 C 18.528582,18.264221 13.291696,25.230495 11.500037,31.436501 z"
     style="fill:#404040;"/>
  </a>
 </g>
</svg>

<style type='text/css'>
<![CDATA[
[data-mouse-over-selected='false'] { opacity: 0.7; }
[data-mouse-over-selected='true']  { opacity: 1.0; }
]]>
</style>
<script type="application/ecmascript"><![CDATA[
document.addEventListener('DOMContentLoaded', (event) => {
  highlightEdges();
  highlightAdjacentNodes();
});
]]></script>
</svg>
