<?xml version="1.0" encoding="UTF-8" standalone="no"?>
<!DOCTYPE svg PUBLIC "-//W3C//DTD SVG 1.1//EN"
 "http://www.w3.org/Graphics/SVG/1.1/DTD/svg11.dtd">
<!-- Generated by graphviz version 12.2.1 (20241206.2353)
 -->
<!-- Title: LagCompensationComponent.cpp Pages: 1 -->
<svg width="1173pt" height="152pt"
 viewBox="0.00 0.00 1172.62 152.00" xmlns="http://www.w3.org/2000/svg" xmlns:xlink="http://www.w3.org/1999/xlink">
<g id="graph0" class="graph" transform="scale(1 1) rotate(0) translate(4 148)">
<title>LagCompensationComponent.cpp</title>
<!-- Node1 -->
<g id="Node000001" class="node">
<title>Node1</title>
<g id="a_Node000001"><a xlink:title=" ">
<polygon fill="#999999" stroke="#666666" points="751.38,-144 587.62,-144 587.62,-124 751.38,-124 751.38,-144"/>
<text text-anchor="middle" x="669.5" y="-130.5" font-family="Arial" font-size="10.00">LagCompensationComponent.cpp</text>
</a>
</g>
</g>
<!-- Node2 -->
<g id="Node000002" class="node">
<title>Node2</title>
<g id="a_Node000002"><a xlink:href="_lag_compensation_component_8h.html" target="_top" xlink:title=" ">
<polygon fill="white" stroke="#666666" points="252.12,-82 98.88,-82 98.88,-62 252.12,-62 252.12,-82"/>
<text text-anchor="middle" x="175.5" y="-68.5" font-family="Arial" font-size="10.00">LagCompensationComponent.h</text>
</a>
</g>
</g>
<!-- Node1&#45;&gt;Node2 -->
<g id="edge1_Node000001_Node000002" class="edge">
<title>Node1&#45;&gt;Node2</title>
<g id="a_edge1_Node000001_Node000002"><a xlink:title=" ">
<path fill="none" stroke="#63b8ff" d="M587.25,-125.46C504.72,-117.53 374.03,-104 261.5,-88 253.85,-86.91 245.84,-85.66 237.91,-84.36"/>
<polygon fill="#63b8ff" stroke="#63b8ff" points="238.74,-80.95 228.3,-82.74 237.58,-87.85 238.74,-80.95"/>
</a>
</g>
</g>
<!-- Node6 -->
<g id="Node000006" class="node">
<title>Node6</title>
<g id="a_Node000006"><a xlink:title=" ">
<polygon fill="#e0e0e0" stroke="#999999" points="420.62,-82 270.38,-82 270.38,-62 420.62,-62 420.62,-82"/>
<text text-anchor="middle" x="345.5" y="-68.5" font-family="Arial" font-size="10.00">Components/BoxComponent.h</text>
</a>
</g>
</g>
<!-- Node1&#45;&gt;Node6 -->
<g id="edge5_Node000001_Node000006" class="edge">
<title>Node1&#45;&gt;Node6</title>
<g id="a_edge5_Node000001_Node000006"><a xlink:title=" ">
<path fill="none" stroke="#63b8ff" d="M618.52,-123.56C561.48,-113 469.06,-95.88 407.78,-84.53"/>
<polygon fill="#63b8ff" stroke="#63b8ff" points="408.68,-81.14 398.21,-82.76 407.4,-88.02 408.68,-81.14"/>
</a>
</g>
</g>
<!-- Node7 -->
<g id="Node000007" class="node">
<title>Node7</title>
<g id="a_Node000007"><a xlink:title=" ">
<polygon fill="#e0e0e0" stroke="#999999" points="596.38,-88 438.62,-88 438.62,-56 596.38,-56 596.38,-88"/>
<text text-anchor="start" x="446.62" y="-74.5" font-family="Arial" font-size="10.00">MultiplayerShooter</text>
<text text-anchor="middle" x="517.5" y="-62.5" font-family="Arial" font-size="10.00">/MainCharacter/MainCharacter.h</text>
</a>
</g>
</g>
<!-- Node1&#45;&gt;Node7 -->
<g id="edge6_Node000001_Node000007" class="edge">
<title>Node1&#45;&gt;Node7</title>
<g id="a_edge6_Node000001_Node000007"><a xlink:title=" ">
<path fill="none" stroke="#63b8ff" d="M645.75,-123.62C624.84,-115.37 593.69,-103.07 567.33,-92.67"/>
<polygon fill="#63b8ff" stroke="#63b8ff" points="568.74,-89.46 558.15,-89.05 566.17,-95.97 568.74,-89.46"/>
</a>
</g>
</g>
<!-- Node8 -->
<g id="Node000008" class="node">
<title>Node8</title>
<g id="a_Node000008"><a xlink:title=" ">
<polygon fill="#e0e0e0" stroke="#999999" points="724.38,-82 614.62,-82 614.62,-62 724.38,-62 724.38,-82"/>
<text text-anchor="middle" x="669.5" y="-68.5" font-family="Arial" font-size="10.00">DrawDebugHelpers.h</text>
</a>
</g>
</g>
<!-- Node1&#45;&gt;Node8 -->
<g id="edge7_Node000001_Node000008" class="edge">
<title>Node1&#45;&gt;Node8</title>
<g id="a_edge7_Node000001_Node000008"><a xlink:title=" ">
<path fill="none" stroke="#63b8ff" d="M669.5,-123.62C669.5,-115.56 669.5,-103.65 669.5,-93.41"/>
<polygon fill="#63b8ff" stroke="#63b8ff" points="673,-93.63 669.5,-83.63 666,-93.63 673,-93.63"/>
</a>
</g>
</g>
<!-- Node9 -->
<g id="Node000009" class="node">
<title>Node9</title>
<g id="a_Node000009"><a xlink:title=" ">
<polygon fill="#e0e0e0" stroke="#999999" points="875,-82 742,-82 742,-62 875,-62 875,-82"/>
<text text-anchor="middle" x="808.5" y="-68.5" font-family="Arial" font-size="10.00">Kismet/GameplayStatics.h</text>
</a>
</g>
</g>
<!-- Node1&#45;&gt;Node9 -->
<g id="edge8_Node000001_Node000009" class="edge">
<title>Node1&#45;&gt;Node9</title>
<g id="a_edge8_Node000001_Node000009"><a xlink:title=" ">
<path fill="none" stroke="#63b8ff" d="M691.22,-123.62C714.07,-113.76 750.27,-98.13 776.41,-86.85"/>
<polygon fill="#63b8ff" stroke="#63b8ff" points="777.75,-90.09 785.54,-82.91 774.98,-83.66 777.75,-90.09"/>
</a>
</g>
</g>
<!-- Node10 -->
<g id="Node000010" class="node">
<title>Node10</title>
<g id="a_Node000010"><a xlink:title=" ">
<polygon fill="#e0e0e0" stroke="#999999" points="1038.38,-88 892.62,-88 892.62,-56 1038.38,-56 1038.38,-88"/>
<text text-anchor="start" x="900.62" y="-74.5" font-family="Arial" font-size="10.00">MultiplayerShooter</text>
<text text-anchor="middle" x="965.5" y="-62.5" font-family="Arial" font-size="10.00">/BaseWeapon/BaseWeapon.h</text>
</a>
</g>
</g>
<!-- Node1&#45;&gt;Node10 -->
<g id="edge9_Node000001_Node000010" class="edge">
<title>Node1&#45;&gt;Node10</title>
<g id="a_edge9_Node000001_Node000010"><a xlink:title=" ">
<path fill="none" stroke="#63b8ff" d="M716.08,-123.56C760.23,-114.61 827.59,-100.95 881.19,-90.09"/>
<polygon fill="#63b8ff" stroke="#63b8ff" points="881.81,-93.54 890.92,-88.12 880.42,-86.67 881.81,-93.54"/>
</a>
</g>
</g>
<!-- Node11 -->
<g id="Node000011" class="node">
<title>Node11</title>
<g id="a_Node000011"><a xlink:title=" ">
<polygon fill="#e0e0e0" stroke="#999999" points="1164.62,-88 1056.38,-88 1056.38,-56 1164.62,-56 1164.62,-88"/>
<text text-anchor="start" x="1064.38" y="-74.5" font-family="Arial" font-size="10.00">MultiplayerShooter</text>
<text text-anchor="middle" x="1110.5" y="-62.5" font-family="Arial" font-size="10.00">/MultiplayerShooter.h</text>
</a>
</g>
</g>
<!-- Node1&#45;&gt;Node11 -->
<g id="edge10_Node000001_Node000011" class="edge">
<title>Node1&#45;&gt;Node11</title>
<g id="a_edge10_Node000001_Node000011"><a xlink:title=" ">
<path fill="none" stroke="#63b8ff" d="M751.75,-125.96C825.97,-118.99 938.32,-106.87 1044.68,-88.38"/>
<polygon fill="#63b8ff" stroke="#63b8ff" points="1045.21,-91.84 1054.45,-86.66 1044,-84.95 1045.21,-91.84"/>
</a>
</g>
</g>
<!-- Node3 -->
<g id="Node000003" class="node">
<title>Node3</title>
<g id="a_Node000003"><a xlink:title=" ">
<polygon fill="#e0e0e0" stroke="#999999" points="79,-20 0,-20 0,0 79,0 79,-20"/>
<text text-anchor="middle" x="39.5" y="-6.5" font-family="Arial" font-size="10.00">CoreMinimal.h</text>
</a>
</g>
</g>
<!-- Node2&#45;&gt;Node3 -->
<g id="edge2_Node000002_Node000003" class="edge">
<title>Node2&#45;&gt;Node3</title>
<g id="a_edge2_Node000002_Node000003"><a xlink:title=" ">
<path fill="none" stroke="#63b8ff" d="M154.25,-61.62C131.89,-51.76 96.47,-36.13 70.89,-24.85"/>
<polygon fill="#63b8ff" stroke="#63b8ff" points="72.55,-21.75 61.99,-20.92 69.72,-28.16 72.55,-21.75"/>
</a>
</g>
</g>
<!-- Node4 -->
<g id="Node000004" class="node">
<title>Node4</title>
<g id="a_Node000004"><a xlink:title=" ">
<polygon fill="#e0e0e0" stroke="#999999" points="253.62,-20 97.38,-20 97.38,0 253.62,0 253.62,-20"/>
<text text-anchor="middle" x="175.5" y="-6.5" font-family="Arial" font-size="10.00">Components/ActorComponent.h</text>
</a>
</g>
</g>
<!-- Node2&#45;&gt;Node4 -->
<g id="edge3_Node000002_Node000004" class="edge">
<title>Node2&#45;&gt;Node4</title>
<g id="a_edge3_Node000002_Node000004"><a xlink:title=" ">
<path fill="none" stroke="#63b8ff" d="M175.5,-61.62C175.5,-53.56 175.5,-41.65 175.5,-31.41"/>
<polygon fill="#63b8ff" stroke="#63b8ff" points="179,-31.63 175.5,-21.63 172,-31.63 179,-31.63"/>
</a>
</g>
</g>
<!-- Node5 -->
<g id="Node000005" class="node">
<title>Node5</title>
<g id="a_Node000005"><a xlink:title=" ">
<polygon fill="#e0e0e0" stroke="#999999" points="471,-20 272,-20 272,0 471,0 471,-20"/>
<text text-anchor="middle" x="371.5" y="-6.5" font-family="Arial" font-size="10.00">LagCompensationComponent.generated.h</text>
</a>
</g>
</g>
<!-- Node2&#45;&gt;Node5 -->
<g id="edge4_Node000002_Node000005" class="edge">
<title>Node2&#45;&gt;Node5</title>
<g id="a_edge4_Node000002_Node000005"><a xlink:title=" ">
<path fill="none" stroke="#63b8ff" d="M206.12,-61.62C239.4,-51.44 292.75,-35.11 329.82,-23.76"/>
<polygon fill="#63b8ff" stroke="#63b8ff" points="330.78,-27.12 339.32,-20.85 328.73,-20.43 330.78,-27.12"/>
</a>
</g>
</g>
</g>
</svg>
