<?xml version="1.0" encoding="UTF-8" standalone="no"?>
<!DOCTYPE svg PUBLIC "-//W3C//DTD SVG 1.1//EN"
 "http://www.w3.org/Graphics/SVG/1.1/DTD/svg11.dtd">
<!-- Generated by graphviz version 12.2.1 (20241206.2353)
 -->
<!-- Title: MultiplayerShooter/BaseWeapon/BaseWeapon.h Pages: 1 -->
<svg width="1298pt" height="200pt"
 viewBox="0.00 0.00 1297.62 200.00" xmlns="http://www.w3.org/2000/svg" xmlns:xlink="http://www.w3.org/1999/xlink">
<g id="graph0" class="graph" transform="scale(1 1) rotate(0) translate(4 196)">
<title>MultiplayerShooter/BaseWeapon/BaseWeapon.h</title>
<!-- Node1 -->
<g id="Node000001" class="node">
<title>Node1</title>
<g id="a_Node000001"><a xlink:title=" ">
<polygon fill="#999999" stroke="#666666" points="748,-192 602.25,-192 602.25,-160 748,-160 748,-192"/>
<text text-anchor="start" x="610.25" y="-178.5" font-family="Arial" font-size="10.00">MultiplayerShooter</text>
<text text-anchor="middle" x="675.12" y="-166.5" font-family="Arial" font-size="10.00">/BaseWeapon/BaseWeapon.h</text>
</a>
</g>
</g>
<!-- Node2 -->
<g id="Node000002" class="node">
<title>Node2</title>
<g id="a_Node000002"><a xlink:href="_combat_component_8cpp.html" target="_top" xlink:title=" ">
<polygon fill="white" stroke="#666666" points="204.25,-118 0,-118 0,-86 204.25,-86 204.25,-118"/>
<text text-anchor="start" x="8" y="-104.5" font-family="Arial" font-size="10.00">MultiplayerShooter</text>
<text text-anchor="middle" x="102.12" y="-92.5" font-family="Arial" font-size="10.00">/ActorComponents/CombatComponent.cpp</text>
</a>
</g>
</g>
<!-- Node1&#45;&gt;Node2 -->
<g id="edge1_Node000001_Node000002" class="edge">
<title>Node1&#45;&gt;Node2</title>
<g id="a_edge1_Node000001_Node000002"><a xlink:title=" ">
<path fill="none" stroke="#63b8ff" d="M590.79,-167.66C497.98,-159.12 344.52,-143.65 213.12,-124 202.26,-122.38 190.84,-120.46 179.62,-118.45"/>
<polygon fill="#63b8ff" stroke="#63b8ff" points="590.3,-171.13 600.58,-168.55 590.94,-164.16 590.3,-171.13"/>
</a>
</g>
</g>
<!-- Node3 -->
<g id="Node000003" class="node">
<title>Node3</title>
<g id="a_Node000003"><a xlink:href="_lag_compensation_component_8cpp.html" target="_top" xlink:title=" ">
<polygon fill="white" stroke="#666666" points="401.88,-124 222.38,-124 222.38,-80 401.88,-80 401.88,-124"/>
<text text-anchor="start" x="230.38" y="-110.5" font-family="Arial" font-size="10.00">MultiplayerShooter</text>
<text text-anchor="start" x="230.38" y="-98.5" font-family="Arial" font-size="10.00">/ActorComponents/LagCompensation</text>
<text text-anchor="middle" x="312.12" y="-86.5" font-family="Arial" font-size="10.00">Component.cpp</text>
</a>
</g>
</g>
<!-- Node1&#45;&gt;Node3 -->
<g id="edge2_Node000001_Node000003" class="edge">
<title>Node1&#45;&gt;Node3</title>
<g id="a_edge2_Node000001_Node000003"><a xlink:title=" ">
<path fill="none" stroke="#63b8ff" d="M590.79,-159.11C538.92,-149.24 471.12,-136.16 411.12,-124 408.2,-123.41 405.22,-122.8 402.22,-122.18"/>
<polygon fill="#63b8ff" stroke="#63b8ff" points="589.97,-162.52 600.45,-160.95 591.28,-155.64 589.97,-162.52"/>
</a>
</g>
</g>
<!-- Node4 -->
<g id="Node000004" class="node">
<title>Node4</title>
<g id="a_Node000004"><a xlink:href="_base_weapon_8cpp.html" target="_top" xlink:title=" ">
<polygon fill="white" stroke="#666666" points="576.25,-118 420,-118 420,-86 576.25,-86 576.25,-118"/>
<text text-anchor="start" x="428" y="-104.5" font-family="Arial" font-size="10.00">MultiplayerShooter</text>
<text text-anchor="middle" x="498.12" y="-92.5" font-family="Arial" font-size="10.00">/BaseWeapon/BaseWeapon.cpp</text>
</a>
</g>
</g>
<!-- Node1&#45;&gt;Node4 -->
<g id="edge3_Node000001_Node000004" class="edge">
<title>Node1&#45;&gt;Node4</title>
<g id="a_edge3_Node000001_Node000004"><a xlink:title=" ">
<path fill="none" stroke="#63b8ff" d="M626.59,-155.26C598.06,-143.65 562.5,-129.19 536.03,-118.42"/>
<polygon fill="#63b8ff" stroke="#63b8ff" points="625.17,-158.46 635.75,-158.98 627.81,-151.97 625.17,-158.46"/>
</a>
</g>
</g>
<!-- Node5 -->
<g id="Node000005" class="node">
<title>Node5</title>
<g id="a_Node000005"><a xlink:href="_projectile_weapon_8h.html" target="_top" xlink:title=" ">
<polygon fill="white" stroke="#666666" points="755.5,-124 594.75,-124 594.75,-80 755.5,-80 755.5,-124"/>
<text text-anchor="start" x="602.75" y="-110.5" font-family="Arial" font-size="10.00">MultiplayerShooter</text>
<text text-anchor="start" x="602.75" y="-98.5" font-family="Arial" font-size="10.00">/BaseWeapon/ProjectileWeapons</text>
<text text-anchor="middle" x="675.12" y="-86.5" font-family="Arial" font-size="10.00">/ProjectileWeapon.h</text>
</a>
</g>
</g>
<!-- Node1&#45;&gt;Node5 -->
<g id="edge4_Node000001_Node000005" class="edge">
<title>Node1&#45;&gt;Node5</title>
<g id="a_edge4_Node000001_Node000005"><a xlink:title=" ">
<path fill="none" stroke="#63b8ff" d="M675.12,-148.38C675.12,-140.43 675.12,-131.82 675.12,-124.26"/>
<polygon fill="#63b8ff" stroke="#63b8ff" points="671.63,-148.22 675.13,-158.22 678.63,-148.22 671.63,-148.22"/>
</a>
</g>
</g>
<!-- Node7 -->
<g id="Node000007" class="node">
<title>Node7</title>
<g id="a_Node000007"><a xlink:href="_main_character_8cpp.html" target="_top" xlink:title=" ">
<polygon fill="white" stroke="#666666" points="942.25,-118 774,-118 774,-86 942.25,-86 942.25,-118"/>
<text text-anchor="start" x="782" y="-104.5" font-family="Arial" font-size="10.00">MultiplayerShooter</text>
<text text-anchor="middle" x="858.12" y="-92.5" font-family="Arial" font-size="10.00">/MainCharacter/MainCharacter.cpp</text>
</a>
</g>
</g>
<!-- Node1&#45;&gt;Node7 -->
<g id="edge6_Node000001_Node000007" class="edge">
<title>Node1&#45;&gt;Node7</title>
<g id="a_edge6_Node000001_Node000007"><a xlink:title=" ">
<path fill="none" stroke="#63b8ff" d="M724.91,-155.41C754.48,-143.78 791.45,-129.23 818.93,-118.42"/>
<polygon fill="#63b8ff" stroke="#63b8ff" points="723.82,-152.08 715.79,-159 726.38,-158.6 723.82,-152.08"/>
</a>
</g>
</g>
<!-- Node8 -->
<g id="Node000008" class="node">
<title>Node8</title>
<g id="a_Node000008"><a xlink:href="_my_anim_instance_8cpp.html" target="_top" xlink:title=" ">
<polygon fill="white" stroke="#666666" points="1138.12,-118 960.12,-118 960.12,-86 1138.12,-86 1138.12,-118"/>
<text text-anchor="start" x="968.12" y="-104.5" font-family="Arial" font-size="10.00">MultiplayerShooter</text>
<text text-anchor="middle" x="1049.12" y="-92.5" font-family="Arial" font-size="10.00">/MainCharacter/MyAnimInstance.cpp</text>
</a>
</g>
</g>
<!-- Node1&#45;&gt;Node8 -->
<g id="edge7_Node000001_Node000008" class="edge">
<title>Node1&#45;&gt;Node8</title>
<g id="a_edge7_Node000001_Node000008"><a xlink:title=" ">
<path fill="none" stroke="#63b8ff" d="M759.49,-160.05C814.2,-150.2 886.97,-136.8 951.12,-124 959.83,-122.26 968.95,-120.39 977.99,-118.49"/>
<polygon fill="#63b8ff" stroke="#63b8ff" points="759.17,-156.55 749.94,-161.77 760.4,-163.44 759.17,-156.55"/>
</a>
</g>
</g>
<!-- Node9 -->
<g id="Node000009" class="node">
<title>Node9</title>
<g id="a_Node000009"><a xlink:href="_my_player_controller_8cpp.html" target="_top" xlink:title=" ">
<polygon fill="white" stroke="#666666" points="1289.62,-124 1156.62,-124 1156.62,-80 1289.62,-80 1289.62,-124"/>
<text text-anchor="start" x="1164.62" y="-110.5" font-family="Arial" font-size="10.00">MultiplayerShooter</text>
<text text-anchor="start" x="1164.62" y="-98.5" font-family="Arial" font-size="10.00">/PlayerController/MyPlayer</text>
<text text-anchor="middle" x="1223.12" y="-86.5" font-family="Arial" font-size="10.00">Controller.cpp</text>
</a>
</g>
</g>
<!-- Node1&#45;&gt;Node9 -->
<g id="edge8_Node000001_Node000009" class="edge">
<title>Node1&#45;&gt;Node9</title>
<g id="a_edge8_Node000001_Node000009"><a xlink:title=" ">
<path fill="none" stroke="#63b8ff" d="M759.7,-170.01C854.62,-163.44 1012.92,-149.62 1147.12,-124 1150.08,-123.44 1153.09,-122.81 1156.13,-122.15"/>
<polygon fill="#63b8ff" stroke="#63b8ff" points="759.69,-166.5 749.95,-170.67 760.16,-173.48 759.69,-166.5"/>
</a>
</g>
</g>
<!-- Node6 -->
<g id="Node000006" class="node">
<title>Node6</title>
<g id="a_Node000006"><a xlink:href="_projectile_weapon_8cpp.html" target="_top" xlink:title=" ">
<polygon fill="white" stroke="#666666" points="755.5,-44 594.75,-44 594.75,0 755.5,0 755.5,-44"/>
<text text-anchor="start" x="602.75" y="-30.5" font-family="Arial" font-size="10.00">MultiplayerShooter</text>
<text text-anchor="start" x="602.75" y="-18.5" font-family="Arial" font-size="10.00">/BaseWeapon/ProjectileWeapons</text>
<text text-anchor="middle" x="675.12" y="-6.5" font-family="Arial" font-size="10.00">/ProjectileWeapon.cpp</text>
</a>
</g>
</g>
<!-- Node5&#45;&gt;Node6 -->
<g id="edge5_Node000005_Node000006" class="edge">
<title>Node5&#45;&gt;Node6</title>
<g id="a_edge5_Node000005_Node000006"><a xlink:title=" ">
<path fill="none" stroke="#63b8ff" d="M675.12,-68.25C675.12,-60.15 675.12,-51.68 675.12,-44.29"/>
<polygon fill="#63b8ff" stroke="#63b8ff" points="671.63,-68.17 675.13,-78.17 678.63,-68.17 671.63,-68.17"/>
</a>
</g>
</g>
</g>
</svg>
