<?xml version="1.0" encoding="UTF-8" standalone="no"?>
<!DOCTYPE svg PUBLIC "-//W3C//DTD SVG 1.1//EN"
 "http://www.w3.org/Graphics/SVG/1.1/DTD/svg11.dtd">
<!-- Generated by graphviz version 12.2.1 (20241206.2353)
 -->
<!-- Title: MultiplayerShooter/ActorComponents/BuffComponent.h Pages: 1 -->
<svg width="2803pt" height="188pt"
 viewBox="0.00 0.00 2802.75 188.00" xmlns="http://www.w3.org/2000/svg" xmlns:xlink="http://www.w3.org/1999/xlink">
<g id="graph0" class="graph" transform="scale(1 1) rotate(0) translate(4 184)">
<title>MultiplayerShooter/ActorComponents/BuffComponent.h</title>
<!-- Node1 -->
<g id="Node000001" class="node">
<title>Node1</title>
<g id="a_Node000001"><a xlink:title=" ">
<polygon fill="#999999" stroke="#666666" points="1171.75,-180 995.25,-180 995.25,-148 1171.75,-148 1171.75,-180"/>
<text text-anchor="start" x="1003.25" y="-166.5" font-family="Arial" font-size="10.00">MultiplayerShooter</text>
<text text-anchor="middle" x="1083.5" y="-154.5" font-family="Arial" font-size="10.00">/ActorComponents/BuffComponent.h</text>
</a>
</g>
</g>
<!-- Node2 -->
<g id="Node000002" class="node">
<title>Node2</title>
<g id="a_Node000002"><a xlink:href="_buff_component_8cpp.html" target="_top" xlink:title=" ">
<polygon fill="white" stroke="#666666" points="187,-38 0,-38 0,-6 187,-6 187,-38"/>
<text text-anchor="start" x="8" y="-24.5" font-family="Arial" font-size="10.00">MultiplayerShooter</text>
<text text-anchor="middle" x="93.5" y="-12.5" font-family="Arial" font-size="10.00">/ActorComponents/BuffComponent.cpp</text>
</a>
</g>
</g>
<!-- Node1&#45;&gt;Node2 -->
<g id="edge1_Node000001_Node000002" class="edge">
<title>Node1&#45;&gt;Node2</title>
<g id="a_edge1_Node000001_Node000002"><a xlink:title=" ">
<path fill="none" stroke="#63b8ff" d="M983.85,-154.69C884.1,-145.9 726.34,-130.73 590.5,-112 414.46,-87.73 371.13,-76.86 196.5,-44 187.26,-42.26 177.57,-40.37 167.99,-38.46"/>
<polygon fill="#63b8ff" stroke="#63b8ff" points="983.34,-158.16 993.61,-155.54 983.95,-151.19 983.34,-158.16"/>
</a>
</g>
</g>
<!-- Node3 -->
<g id="Node000003" class="node">
<title>Node3</title>
<g id="a_Node000003"><a xlink:href="_main_character_8cpp.html" target="_top" xlink:title=" ">
<polygon fill="white" stroke="#666666" points="373.62,-38 205.38,-38 205.38,-6 373.62,-6 373.62,-38"/>
<text text-anchor="start" x="213.38" y="-24.5" font-family="Arial" font-size="10.00">MultiplayerShooter</text>
<text text-anchor="middle" x="289.5" y="-12.5" font-family="Arial" font-size="10.00">/MainCharacter/MainCharacter.cpp</text>
</a>
</g>
</g>
<!-- Node1&#45;&gt;Node3 -->
<g id="edge2_Node000001_Node000003" class="edge">
<title>Node1&#45;&gt;Node3</title>
<g id="a_edge2_Node000001_Node000003"><a xlink:title=" ">
<path fill="none" stroke="#63b8ff" d="M983.63,-147.68C847.56,-126.42 596.45,-85.86 383.5,-44 374.8,-42.29 365.68,-40.39 356.68,-38.45"/>
<polygon fill="#63b8ff" stroke="#63b8ff" points="982.92,-151.11 993.34,-149.19 984,-144.19 982.92,-151.11"/>
</a>
</g>
</g>
<!-- Node4 -->
<g id="Node000004" class="node">
<title>Node4</title>
<g id="a_Node000004"><a xlink:href="_main_character_8h.html" target="_top" xlink:title=" ">
<polygon fill="white" stroke="#666666" points="1427.38,-112 1269.62,-112 1269.62,-80 1427.38,-80 1427.38,-112"/>
<text text-anchor="start" x="1277.62" y="-98.5" font-family="Arial" font-size="10.00">MultiplayerShooter</text>
<text text-anchor="middle" x="1348.5" y="-86.5" font-family="Arial" font-size="10.00">/MainCharacter/MainCharacter.h</text>
</a>
</g>
</g>
<!-- Node1&#45;&gt;Node4 -->
<g id="edge3_Node000001_Node000004" class="edge">
<title>Node1&#45;&gt;Node4</title>
<g id="a_edge3_Node000001_Node000004"><a xlink:title=" ">
<path fill="none" stroke="#63b8ff" d="M1156.58,-144.8C1197.3,-134.66 1247.47,-122.16 1286.3,-112.49"/>
<polygon fill="#63b8ff" stroke="#63b8ff" points="1155.96,-141.35 1147.1,-147.16 1157.65,-148.14 1155.96,-141.35"/>
</a>
</g>
</g>
<!-- Node15 -->
<g id="Node000015" class="node">
<title>Node15</title>
<g id="a_Node000015"><a xlink:href="_health_pickup_8cpp.html" target="_top" xlink:title=" ">
<polygon fill="white" stroke="#666666" points="2794.75,-38 2660.25,-38 2660.25,-6 2794.75,-6 2794.75,-38"/>
<text text-anchor="start" x="2668.25" y="-24.5" font-family="Arial" font-size="10.00">MultiplayerShooter</text>
<text text-anchor="middle" x="2727.5" y="-12.5" font-family="Arial" font-size="10.00">/Pickups/HealthPickup.cpp</text>
</a>
</g>
</g>
<!-- Node1&#45;&gt;Node15 -->
<g id="edge20_Node000001_Node000015" class="edge">
<title>Node1&#45;&gt;Node15</title>
<g id="a_edge20_Node000001_Node000015"><a xlink:title=" ">
<path fill="none" stroke="#63b8ff" d="M1183.43,-162.11C1432.98,-158.44 2102.88,-139.68 2651.5,-44 2659.73,-42.57 2668.35,-40.62 2676.71,-38.49"/>
<polygon fill="#63b8ff" stroke="#63b8ff" points="1183.69,-158.6 1173.74,-162.25 1183.78,-165.6 1183.69,-158.6"/>
</a>
</g>
</g>
<!-- Node4&#45;&gt;Node2 -->
<g id="edge4_Node000004_Node000002" class="edge">
<title>Node4&#45;&gt;Node2</title>
<g id="a_edge4_Node000004_Node000002"><a xlink:title=" ">
<path fill="none" stroke="#63b8ff" d="M1257.92,-95.8C1062.98,-96.48 589.53,-92.46 196.5,-44 185.18,-42.6 173.25,-40.64 161.68,-38.46"/>
<polygon fill="#63b8ff" stroke="#63b8ff" points="1257.73,-99.31 1267.72,-95.76 1257.7,-92.31 1257.73,-99.31"/>
</a>
</g>
</g>
<!-- Node4&#45;&gt;Node3 -->
<g id="edge13_Node000004_Node000003" class="edge">
<title>Node4&#45;&gt;Node3</title>
<g id="a_edge13_Node000004_Node000003"><a xlink:title=" ">
<path fill="none" stroke="#63b8ff" d="M1257.79,-95.24C1086.22,-94.58 702.77,-87.79 383.5,-44 373.23,-42.59 362.42,-40.63 351.93,-38.47"/>
<polygon fill="#63b8ff" stroke="#63b8ff" points="1257.75,-98.74 1267.76,-95.27 1257.77,-91.74 1257.75,-98.74"/>
</a>
</g>
</g>
<!-- Node5 -->
<g id="Node000005" class="node">
<title>Node5</title>
<g id="a_Node000005"><a xlink:href="_combat_component_8cpp.html" target="_top" xlink:title=" ">
<polygon fill="white" stroke="#666666" points="1240.62,-38 1036.38,-38 1036.38,-6 1240.62,-6 1240.62,-38"/>
<text text-anchor="start" x="1044.38" y="-24.5" font-family="Arial" font-size="10.00">MultiplayerShooter</text>
<text text-anchor="middle" x="1138.5" y="-12.5" font-family="Arial" font-size="10.00">/ActorComponents/CombatComponent.cpp</text>
</a>
</g>
</g>
<!-- Node4&#45;&gt;Node5 -->
<g id="edge5_Node000004_Node000005" class="edge">
<title>Node4&#45;&gt;Node5</title>
<g id="a_edge5_Node000004_Node000005"><a xlink:title=" ">
<path fill="none" stroke="#63b8ff" d="M1292.7,-75.87C1258.55,-64.16 1215.43,-49.38 1183.48,-38.42"/>
<polygon fill="#63b8ff" stroke="#63b8ff" points="1291.42,-79.13 1302.02,-79.06 1293.69,-72.51 1291.42,-79.13"/>
</a>
</g>
</g>
<!-- Node6 -->
<g id="Node000006" class="node">
<title>Node6</title>
<g id="a_Node000006"><a xlink:href="_lag_compensation_component_8cpp.html" target="_top" xlink:title=" ">
<polygon fill="white" stroke="#666666" points="1438.25,-44 1258.75,-44 1258.75,0 1438.25,0 1438.25,-44"/>
<text text-anchor="start" x="1266.75" y="-30.5" font-family="Arial" font-size="10.00">MultiplayerShooter</text>
<text text-anchor="start" x="1266.75" y="-18.5" font-family="Arial" font-size="10.00">/ActorComponents/LagCompensation</text>
<text text-anchor="middle" x="1348.5" y="-6.5" font-family="Arial" font-size="10.00">Component.cpp</text>
</a>
</g>
</g>
<!-- Node4&#45;&gt;Node6 -->
<g id="edge6_Node000004_Node000006" class="edge">
<title>Node4&#45;&gt;Node6</title>
<g id="a_edge6_Node000004_Node000006"><a xlink:title=" ">
<path fill="none" stroke="#63b8ff" d="M1348.5,-68.38C1348.5,-60.43 1348.5,-51.82 1348.5,-44.26"/>
<polygon fill="#63b8ff" stroke="#63b8ff" points="1345,-68.22 1348.5,-78.22 1352,-68.22 1345,-68.22"/>
</a>
</g>
</g>
<!-- Node7 -->
<g id="Node000007" class="node">
<title>Node7</title>
<g id="a_Node000007"><a xlink:href="_base_weapon_8cpp.html" target="_top" xlink:title=" ">
<polygon fill="white" stroke="#666666" points="1612.62,-38 1456.38,-38 1456.38,-6 1612.62,-6 1612.62,-38"/>
<text text-anchor="start" x="1464.38" y="-24.5" font-family="Arial" font-size="10.00">MultiplayerShooter</text>
<text text-anchor="middle" x="1534.5" y="-12.5" font-family="Arial" font-size="10.00">/BaseWeapon/BaseWeapon.cpp</text>
</a>
</g>
</g>
<!-- Node4&#45;&gt;Node7 -->
<g id="edge7_Node000004_Node000007" class="edge">
<title>Node4&#45;&gt;Node7</title>
<g id="a_edge7_Node000004_Node000007"><a xlink:title=" ">
<path fill="none" stroke="#63b8ff" d="M1399.1,-75.41C1429.16,-63.78 1466.73,-49.23 1494.66,-38.42"/>
<polygon fill="#63b8ff" stroke="#63b8ff" points="1397.88,-72.13 1389.81,-79.01 1400.4,-78.66 1397.88,-72.13"/>
</a>
</g>
</g>
<!-- Node8 -->
<g id="Node000008" class="node">
<title>Node8</title>
<g id="a_Node000008"><a xlink:href="_projectile_8cpp.html" target="_top" xlink:title=" ">
<polygon fill="white" stroke="#666666" points="1791.88,-44 1631.12,-44 1631.12,0 1791.88,0 1791.88,-44"/>
<text text-anchor="start" x="1639.12" y="-30.5" font-family="Arial" font-size="10.00">MultiplayerShooter</text>
<text text-anchor="start" x="1639.12" y="-18.5" font-family="Arial" font-size="10.00">/BaseWeapon/ProjectileWeapons</text>
<text text-anchor="middle" x="1711.5" y="-6.5" font-family="Arial" font-size="10.00">/Projectile.cpp</text>
</a>
</g>
</g>
<!-- Node4&#45;&gt;Node8 -->
<g id="edge8_Node000004_Node000008" class="edge">
<title>Node4&#45;&gt;Node8</title>
<g id="a_edge8_Node000004_Node000008"><a xlink:title=" ">
<path fill="none" stroke="#63b8ff" d="M1438.95,-79.15C1492.21,-69.55 1560.82,-56.74 1621.5,-44 1624.64,-43.34 1627.84,-42.66 1631.07,-41.95"/>
<polygon fill="#63b8ff" stroke="#63b8ff" points="1438.54,-75.66 1429.32,-80.88 1439.78,-82.55 1438.54,-75.66"/>
</a>
</g>
</g>
<!-- Node9 -->
<g id="Node000009" class="node">
<title>Node9</title>
<g id="a_Node000009"><a xlink:href="_projectile_bullet_8cpp.html" target="_top" xlink:title=" ">
<polygon fill="white" stroke="#666666" points="1970.88,-44 1810.12,-44 1810.12,0 1970.88,0 1970.88,-44"/>
<text text-anchor="start" x="1818.12" y="-30.5" font-family="Arial" font-size="10.00">MultiplayerShooter</text>
<text text-anchor="start" x="1818.12" y="-18.5" font-family="Arial" font-size="10.00">/BaseWeapon/ProjectileWeapons</text>
<text text-anchor="middle" x="1890.5" y="-6.5" font-family="Arial" font-size="10.00">/ProjectileBullet.cpp</text>
</a>
</g>
</g>
<!-- Node4&#45;&gt;Node9 -->
<g id="edge9_Node000004_Node000009" class="edge">
<title>Node4&#45;&gt;Node9</title>
<g id="a_edge9_Node000004_Node000009"><a xlink:title=" ">
<path fill="none" stroke="#63b8ff" d="M1439.14,-87.91C1530.71,-80.01 1676.06,-65.46 1800.5,-44 1803.5,-43.48 1806.56,-42.92 1809.64,-42.34"/>
<polygon fill="#63b8ff" stroke="#63b8ff" points="1438.87,-84.42 1429.2,-88.76 1439.46,-91.4 1438.87,-84.42"/>
</a>
</g>
</g>
<!-- Node10 -->
<g id="Node000010" class="node">
<title>Node10</title>
<g id="a_Node000010"><a xlink:href="_projectile_weapon_8cpp.html" target="_top" xlink:title=" ">
<polygon fill="white" stroke="#666666" points="2149.88,-44 1989.12,-44 1989.12,0 2149.88,0 2149.88,-44"/>
<text text-anchor="start" x="1997.12" y="-30.5" font-family="Arial" font-size="10.00">MultiplayerShooter</text>
<text text-anchor="start" x="1997.12" y="-18.5" font-family="Arial" font-size="10.00">/BaseWeapon/ProjectileWeapons</text>
<text text-anchor="middle" x="2069.5" y="-6.5" font-family="Arial" font-size="10.00">/ProjectileWeapon.cpp</text>
</a>
</g>
</g>
<!-- Node4&#45;&gt;Node10 -->
<g id="edge10_Node000004_Node000010" class="edge">
<title>Node4&#45;&gt;Node10</title>
<g id="a_edge10_Node000004_Node000010"><a xlink:title=" ">
<path fill="none" stroke="#63b8ff" d="M1438.85,-91.92C1561.79,-86.76 1788.38,-73.85 1979.5,-44 1982.51,-43.53 1985.57,-43.01 1988.66,-42.46"/>
<polygon fill="#63b8ff" stroke="#63b8ff" points="1439,-88.41 1429.15,-92.32 1439.29,-95.4 1439,-88.41"/>
</a>
</g>
</g>
<!-- Node11 -->
<g id="Node000011" class="node">
<title>Node11</title>
<g id="a_Node000011"><a xlink:href="_main_game_mode_8cpp.html" target="_top" xlink:title=" ">
<polygon fill="white" stroke="#666666" points="2330.62,-38 2168.38,-38 2168.38,-6 2330.62,-6 2330.62,-38"/>
<text text-anchor="start" x="2176.38" y="-24.5" font-family="Arial" font-size="10.00">MultiplayerShooter</text>
<text text-anchor="middle" x="2249.5" y="-12.5" font-family="Arial" font-size="10.00">/GameMode/MainGameMode.cpp</text>
</a>
</g>
</g>
<!-- Node4&#45;&gt;Node11 -->
<g id="edge11_Node000004_Node000011" class="edge">
<title>Node4&#45;&gt;Node11</title>
<g id="a_edge11_Node000004_Node000011"><a xlink:title=" ">
<path fill="none" stroke="#63b8ff" d="M1439.12,-94.13C1589.39,-91.6 1899.29,-81.81 2158.5,-44 2168.45,-42.55 2178.91,-40.57 2189.06,-38.4"/>
<polygon fill="#63b8ff" stroke="#63b8ff" points="1439.16,-90.63 1429.22,-94.29 1439.27,-97.62 1439.16,-90.63"/>
</a>
</g>
</g>
<!-- Node12 -->
<g id="Node000012" class="node">
<title>Node12</title>
<g id="a_Node000012"><a xlink:href="_chat_8cpp.html" target="_top" xlink:title=" ">
<polygon fill="white" stroke="#666666" points="2446,-38 2349,-38 2349,-6 2446,-6 2446,-38"/>
<text text-anchor="start" x="2357" y="-24.5" font-family="Arial" font-size="10.00">MultiplayerShooter</text>
<text text-anchor="middle" x="2397.5" y="-12.5" font-family="Arial" font-size="10.00">/HUD/Chat.cpp</text>
</a>
</g>
</g>
<!-- Node4&#45;&gt;Node12 -->
<g id="edge12_Node000004_Node000012" class="edge">
<title>Node4&#45;&gt;Node12</title>
<g id="a_edge12_Node000004_Node000012"><a xlink:title=" ">
<path fill="none" stroke="#63b8ff" d="M1438.93,-93.76C1649.73,-90.31 2168.82,-78.49 2339.5,-44 2346.22,-42.64 2353.2,-40.65 2359.9,-38.43"/>
<polygon fill="#63b8ff" stroke="#63b8ff" points="1439.06,-90.26 1429.12,-93.92 1439.18,-97.25 1439.06,-90.26"/>
</a>
</g>
</g>
<!-- Node13 -->
<g id="Node000013" class="node">
<title>Node13</title>
<g id="a_Node000013"><a xlink:href="_my_anim_instance_8cpp.html" target="_top" xlink:title=" ">
<polygon fill="white" stroke="#666666" points="2642.5,-38 2464.5,-38 2464.5,-6 2642.5,-6 2642.5,-38"/>
<text text-anchor="start" x="2472.5" y="-24.5" font-family="Arial" font-size="10.00">MultiplayerShooter</text>
<text text-anchor="middle" x="2553.5" y="-12.5" font-family="Arial" font-size="10.00">/MainCharacter/MyAnimInstance.cpp</text>
</a>
</g>
</g>
<!-- Node4&#45;&gt;Node13 -->
<g id="edge14_Node000004_Node000013" class="edge">
<title>Node4&#45;&gt;Node13</title>
<g id="a_edge14_Node000004_Node000013"><a xlink:title=" ">
<path fill="none" stroke="#63b8ff" d="M1439.03,-95.87C1628.5,-96.58 2080.36,-92.5 2455.5,-44 2466.29,-42.61 2477.65,-40.64 2488.66,-38.47"/>
<polygon fill="#63b8ff" stroke="#63b8ff" points="1439.28,-92.37 1429.26,-95.83 1439.25,-99.37 1439.28,-92.37"/>
</a>
</g>
</g>
<!-- Node14 -->
<g id="Node000014" class="node">
<title>Node14</title>
<g id="a_Node000014"><a xlink:href="_damage_pickup_8cpp.html" target="_top" xlink:title=" ">
<polygon fill="white" stroke="#666666" points="534.88,-38 392.12,-38 392.12,-6 534.88,-6 534.88,-38"/>
<text text-anchor="start" x="400.12" y="-24.5" font-family="Arial" font-size="10.00">MultiplayerShooter</text>
<text text-anchor="middle" x="463.5" y="-12.5" font-family="Arial" font-size="10.00">/Pickups/DamagePickup.cpp</text>
</a>
</g>
</g>
<!-- Node4&#45;&gt;Node14 -->
<g id="edge15_Node000004_Node000014" class="edge">
<title>Node4&#45;&gt;Node14</title>
<g id="a_edge15_Node000004_Node000014"><a xlink:title=" ">
<path fill="none" stroke="#63b8ff" d="M1258.01,-94.95C1108.37,-93.6 800.35,-85.45 543.5,-44 534.71,-42.58 525.49,-40.62 516.55,-38.46"/>
<polygon fill="#63b8ff" stroke="#63b8ff" points="1257.84,-98.45 1267.87,-95.03 1257.89,-91.45 1257.84,-98.45"/>
</a>
</g>
</g>
<!-- Node4&#45;&gt;Node15 -->
<g id="edge16_Node000004_Node000015" class="edge">
<title>Node4&#45;&gt;Node15</title>
<g id="a_edge16_Node000004_Node000015"><a xlink:title=" ">
<path fill="none" stroke="#63b8ff" d="M1438.56,-92.68C1713.84,-85.41 2532.7,-62.48 2651.5,-44 2660.16,-42.65 2669.24,-40.67 2677.98,-38.45"/>
<polygon fill="#63b8ff" stroke="#63b8ff" points="1438.84,-89.17 1428.94,-92.93 1439.03,-96.17 1438.84,-89.17"/>
</a>
</g>
</g>
<!-- Node16 -->
<g id="Node000016" class="node">
<title>Node16</title>
<g id="a_Node000016"><a xlink:href="_speed_pickup_8cpp.html" target="_top" xlink:title=" ">
<polygon fill="white" stroke="#666666" points="686.38,-38 552.62,-38 552.62,-6 686.38,-6 686.38,-38"/>
<text text-anchor="start" x="560.62" y="-24.5" font-family="Arial" font-size="10.00">MultiplayerShooter</text>
<text text-anchor="middle" x="619.5" y="-12.5" font-family="Arial" font-size="10.00">/Pickups/SpeedPickup.cpp</text>
</a>
</g>
</g>
<!-- Node4&#45;&gt;Node16 -->
<g id="edge17_Node000004_Node000016" class="edge">
<title>Node4&#45;&gt;Node16</title>
<g id="a_edge17_Node000004_Node000016"><a xlink:title=" ">
<path fill="none" stroke="#63b8ff" d="M1258.17,-93.51C1131.35,-90.17 893.7,-79.31 694.5,-44 686.38,-42.56 677.87,-40.61 669.62,-38.49"/>
<polygon fill="#63b8ff" stroke="#63b8ff" points="1257.75,-97 1267.84,-93.76 1257.93,-90.01 1257.75,-97"/>
</a>
</g>
</g>
<!-- Node17 -->
<g id="Node000017" class="node">
<title>Node17</title>
<g id="a_Node000017"><a xlink:href="_my_player_controller_8cpp.html" target="_top" xlink:title=" ">
<polygon fill="white" stroke="#666666" points="837,-44 704,-44 704,0 837,0 837,-44"/>
<text text-anchor="start" x="712" y="-30.5" font-family="Arial" font-size="10.00">MultiplayerShooter</text>
<text text-anchor="start" x="712" y="-18.5" font-family="Arial" font-size="10.00">/PlayerController/MyPlayer</text>
<text text-anchor="middle" x="770.5" y="-6.5" font-family="Arial" font-size="10.00">Controller.cpp</text>
</a>
</g>
</g>
<!-- Node4&#45;&gt;Node17 -->
<g id="edge18_Node000004_Node000017" class="edge">
<title>Node4&#45;&gt;Node17</title>
<g id="a_edge18_Node000004_Node000017"><a xlink:title=" ">
<path fill="none" stroke="#63b8ff" d="M1258.09,-90.53C1156.88,-84.43 988.33,-71.03 845.5,-44 842.84,-43.5 840.14,-42.94 837.42,-42.35"/>
<polygon fill="#63b8ff" stroke="#63b8ff" points="1257.79,-94.01 1267.97,-91.11 1258.2,-87.03 1257.79,-94.01"/>
</a>
</g>
</g>
<!-- Node18 -->
<g id="Node000018" class="node">
<title>Node18</title>
<g id="a_Node000018"><a xlink:href="_main_player_state_8cpp.html" target="_top" xlink:title=" ">
<polygon fill="white" stroke="#666666" points="1018.38,-38 854.62,-38 854.62,-6 1018.38,-6 1018.38,-38"/>
<text text-anchor="start" x="862.62" y="-24.5" font-family="Arial" font-size="10.00">MultiplayerShooter</text>
<text text-anchor="middle" x="936.5" y="-12.5" font-family="Arial" font-size="10.00">/PlayerState/MainPlayerState.cpp</text>
</a>
</g>
</g>
<!-- Node4&#45;&gt;Node18 -->
<g id="edge19_Node000004_Node000018" class="edge">
<title>Node4&#45;&gt;Node18</title>
<g id="a_edge19_Node000004_Node000018"><a xlink:title=" ">
<path fill="none" stroke="#63b8ff" d="M1258.07,-82.34C1193.59,-72.9 1104.96,-59.07 1027.5,-44 1018.91,-42.33 1009.89,-40.43 1001.01,-38.47"/>
<polygon fill="#63b8ff" stroke="#63b8ff" points="1257.51,-85.8 1267.91,-83.77 1258.52,-78.87 1257.51,-85.8"/>
</a>
</g>
</g>
</g>
</svg>
