<?xml version="1.0" encoding="UTF-8" standalone="no"?>
<!DOCTYPE svg PUBLIC "-//W3C//DTD SVG 1.1//EN"
 "http://www.w3.org/Graphics/SVG/1.1/DTD/svg11.dtd">
<!-- Generated by graphviz version 12.2.1 (20241206.2353)
 -->
<!-- Title: MultiplayerShooter/ActorComponents/BuffComponent.cpp Pages: 1 -->
<svg width="1221pt" height="300pt"
 viewBox="0.00 0.00 1221.25 300.00" xmlns="http://www.w3.org/2000/svg" xmlns:xlink="http://www.w3.org/1999/xlink">
<g id="graph0" class="graph" transform="scale(1 1) rotate(0) translate(4 296)">
<title>MultiplayerShooter/ActorComponents/BuffComponent.cpp</title>
<!-- Node1 -->
<g id="Node000001" class="node">
<title>Node1</title>
<g id="a_Node000001"><a xlink:title=" ">
<polygon fill="#999999" stroke="#666666" points="927,-292 740,-292 740,-260 927,-260 927,-292"/>
<text text-anchor="start" x="748" y="-278.5" font-family="Arial" font-size="10.00">MultiplayerShooter</text>
<text text-anchor="middle" x="833.5" y="-266.5" font-family="Arial" font-size="10.00">/ActorComponents/BuffComponent.cpp</text>
</a>
</g>
</g>
<!-- Node2 -->
<g id="Node000002" class="node">
<title>Node2</title>
<g id="a_Node000002"><a xlink:href="_buff_component_8h.html" target="_top" xlink:title=" ">
<polygon fill="white" stroke="#666666" points="987.38,-150 895.62,-150 895.62,-130 987.38,-130 987.38,-150"/>
<text text-anchor="middle" x="941.5" y="-136.5" font-family="Arial" font-size="10.00">BuffComponent.h</text>
</a>
</g>
</g>
<!-- Node1&#45;&gt;Node2 -->
<g id="edge1_Node000001_Node000002" class="edge">
<title>Node1&#45;&gt;Node2</title>
<g id="a_edge1_Node000001_Node000002"><a xlink:title=" ">
<path fill="none" stroke="#63b8ff" d="M833.44,-259.71C834.11,-241.81 837.63,-212.07 852.5,-192 865,-175.14 884.85,-162.99 902.64,-154.79"/>
<polygon fill="#63b8ff" stroke="#63b8ff" points="903.62,-158.18 911.42,-151.01 900.85,-151.75 903.62,-158.18"/>
</a>
</g>
</g>
<!-- Node6 -->
<g id="Node000006" class="node">
<title>Node6</title>
<g id="a_Node000006"><a xlink:title=" ">
<polygon fill="#e0e0e0" stroke="#999999" points="1043.75,-224 861.25,-224 861.25,-192 1043.75,-192 1043.75,-224"/>
<text text-anchor="start" x="869.25" y="-210.5" font-family="Arial" font-size="10.00">GameFramework/CharacterMovement</text>
<text text-anchor="middle" x="952.5" y="-198.5" font-family="Arial" font-size="10.00">Component.h</text>
</a>
</g>
</g>
<!-- Node1&#45;&gt;Node6 -->
<g id="edge5_Node000001_Node000006" class="edge">
<title>Node1&#45;&gt;Node6</title>
<g id="a_edge5_Node000001_Node000006"><a xlink:title=" ">
<path fill="none" stroke="#63b8ff" d="M861.4,-259.53C877.36,-250.67 897.6,-239.45 914.95,-229.83"/>
<polygon fill="#63b8ff" stroke="#63b8ff" points="916.4,-233.02 923.45,-225.11 913.01,-226.9 916.4,-233.02"/>
</a>
</g>
</g>
<!-- Node7 -->
<g id="Node000007" class="node">
<title>Node7</title>
<g id="a_Node000007"><a xlink:href="_main_character_8h.html" target="_top" xlink:title=" ">
<polygon fill="white" stroke="#666666" points="703.38,-224 545.62,-224 545.62,-192 703.38,-192 703.38,-224"/>
<text text-anchor="start" x="553.62" y="-210.5" font-family="Arial" font-size="10.00">MultiplayerShooter</text>
<text text-anchor="middle" x="624.5" y="-198.5" font-family="Arial" font-size="10.00">/MainCharacter/MainCharacter.h</text>
</a>
</g>
</g>
<!-- Node1&#45;&gt;Node7 -->
<g id="edge6_Node000001_Node000007" class="edge">
<title>Node1&#45;&gt;Node7</title>
<g id="a_edge6_Node000001_Node000007"><a xlink:title=" ">
<path fill="none" stroke="#63b8ff" d="M784.5,-259.53C754.6,-250.09 716.17,-237.95 684.46,-227.94"/>
<polygon fill="#63b8ff" stroke="#63b8ff" points="685.59,-224.62 675,-224.95 683.48,-231.3 685.59,-224.62"/>
</a>
</g>
</g>
<!-- Node3 -->
<g id="Node000003" class="node">
<title>Node3</title>
<g id="a_Node000003"><a xlink:title=" ">
<polygon fill="#e0e0e0" stroke="#999999" points="874,-20 795,-20 795,0 874,0 874,-20"/>
<text text-anchor="middle" x="834.5" y="-6.5" font-family="Arial" font-size="10.00">CoreMinimal.h</text>
</a>
</g>
</g>
<!-- Node2&#45;&gt;Node3 -->
<g id="edge2_Node000002_Node000003" class="edge">
<title>Node2&#45;&gt;Node3</title>
<g id="a_edge2_Node000002_Node000003"><a xlink:title=" ">
<path fill="none" stroke="#63b8ff" d="M973.12,-129.51C992.85,-121.76 1016.66,-108.66 1028.5,-88 1035.57,-75.66 1037.35,-67.14 1028.5,-56 1010.95,-33.92 936.97,-21.7 885.61,-15.75"/>
<polygon fill="#63b8ff" stroke="#63b8ff" points="886.21,-12.29 875.89,-14.67 885.44,-19.25 886.21,-12.29"/>
</a>
</g>
</g>
<!-- Node4 -->
<g id="Node000004" class="node">
<title>Node4</title>
<g id="a_Node000004"><a xlink:title=" ">
<polygon fill="#e0e0e0" stroke="#999999" points="1019.62,-82 863.38,-82 863.38,-62 1019.62,-62 1019.62,-82"/>
<text text-anchor="middle" x="941.5" y="-68.5" font-family="Arial" font-size="10.00">Components/ActorComponent.h</text>
</a>
</g>
</g>
<!-- Node2&#45;&gt;Node4 -->
<g id="edge3_Node000002_Node000004" class="edge">
<title>Node2&#45;&gt;Node4</title>
<g id="a_edge3_Node000002_Node000004"><a xlink:title=" ">
<path fill="none" stroke="#63b8ff" d="M941.5,-129.54C941.5,-120.23 941.5,-105.7 941.5,-93.7"/>
<polygon fill="#63b8ff" stroke="#63b8ff" points="945,-93.95 941.5,-83.95 938,-93.95 945,-93.95"/>
</a>
</g>
</g>
<!-- Node5 -->
<g id="Node000005" class="node">
<title>Node5</title>
<g id="a_Node000005"><a xlink:title=" ">
<polygon fill="#e0e0e0" stroke="#999999" points="1213.25,-82 1075.75,-82 1075.75,-62 1213.25,-62 1213.25,-82"/>
<text text-anchor="middle" x="1144.5" y="-68.5" font-family="Arial" font-size="10.00">BuffComponent.generated.h</text>
</a>
</g>
</g>
<!-- Node2&#45;&gt;Node5 -->
<g id="edge4_Node000002_Node000005" class="edge">
<title>Node2&#45;&gt;Node5</title>
<g id="a_edge4_Node000002_Node000005"><a xlink:title=" ">
<path fill="none" stroke="#63b8ff" d="M970.58,-129.54C1005.78,-118.1 1065.23,-98.77 1104.66,-85.95"/>
<polygon fill="#63b8ff" stroke="#63b8ff" points="1105.6,-89.33 1114.03,-82.91 1103.44,-82.67 1105.6,-89.33"/>
</a>
</g>
</g>
<!-- Node7&#45;&gt;Node2 -->
<g id="edge11_Node000007_Node000002" class="edge">
<title>Node7&#45;&gt;Node2</title>
<g id="a_edge11_Node000007_Node000002"><a xlink:title=" ">
<path fill="none" stroke="#63b8ff" d="M698.82,-191.53C755.77,-179.67 833.13,-163.56 885.06,-152.75"/>
<polygon fill="#63b8ff" stroke="#63b8ff" points="885.5,-156.23 894.58,-150.77 884.08,-149.38 885.5,-156.23"/>
</a>
</g>
</g>
<!-- Node7&#45;&gt;Node3 -->
<g id="edge7_Node000007_Node000003" class="edge">
<title>Node7&#45;&gt;Node3</title>
<g id="a_edge7_Node000007_Node000003"><a xlink:title=" ">
<path fill="none" stroke="#63b8ff" d="M703.8,-195.92C751.53,-187.52 805.99,-174.29 821.5,-156 851.39,-120.76 845.22,-61.91 839.25,-31.14"/>
<polygon fill="#63b8ff" stroke="#63b8ff" points="842.73,-30.67 837.2,-21.63 835.89,-32.14 842.73,-30.67"/>
</a>
</g>
</g>
<!-- Node8 -->
<g id="Node000008" class="node">
<title>Node8</title>
<g id="a_Node000008"><a xlink:title=" ">
<polygon fill="#e0e0e0" stroke="#999999" points="145,-150 0,-150 0,-130 145,-130 145,-150"/>
<text text-anchor="middle" x="72.5" y="-136.5" font-family="Arial" font-size="10.00">GameFramework/Character.h</text>
</a>
</g>
</g>
<!-- Node7&#45;&gt;Node8 -->
<g id="edge8_Node000007_Node000008" class="edge">
<title>Node7&#45;&gt;Node8</title>
<g id="a_edge8_Node000007_Node000008"><a xlink:title=" ">
<path fill="none" stroke="#63b8ff" d="M545.52,-200.28C451.77,-191.88 290.83,-176.12 153.5,-156 146.36,-154.95 138.88,-153.74 131.49,-152.46"/>
<polygon fill="#63b8ff" stroke="#63b8ff" points="132.32,-149.05 121.86,-150.75 131.09,-155.94 132.32,-149.05"/>
</a>
</g>
</g>
<!-- Node9 -->
<g id="Node000009" class="node">
<title>Node9</title>
<g id="a_Node000009"><a xlink:href="_turning_in_place_8h.html" target="_top" xlink:title=" ">
<polygon fill="white" stroke="#666666" points="284.38,-156 162.62,-156 162.62,-124 284.38,-124 284.38,-156"/>
<text text-anchor="start" x="170.62" y="-142.5" font-family="Arial" font-size="10.00">MultiplayerShooter</text>
<text text-anchor="middle" x="223.5" y="-130.5" font-family="Arial" font-size="10.00">/Types/TurningInPlace.h</text>
</a>
</g>
</g>
<!-- Node7&#45;&gt;Node9 -->
<g id="edge9_Node000007_Node000009" class="edge">
<title>Node7&#45;&gt;Node9</title>
<g id="a_edge9_Node000007_Node000009"><a xlink:title=" ">
<path fill="none" stroke="#63b8ff" d="M545.37,-196.13C480.8,-186.95 386.95,-172.93 295.66,-156.34"/>
<polygon fill="#63b8ff" stroke="#63b8ff" points="296.5,-152.93 286.03,-154.57 295.24,-159.82 296.5,-152.93"/>
</a>
</g>
</g>
<!-- Node10 -->
<g id="Node000010" class="node">
<title>Node10</title>
<g id="a_Node000010"><a xlink:title=" ">
<polygon fill="#e0e0e0" stroke="#999999" points="448.75,-150 302.25,-150 302.25,-130 448.75,-130 448.75,-150"/>
<text text-anchor="middle" x="375.5" y="-136.5" font-family="Arial" font-size="10.00">Camera/CameraComponent.h</text>
</a>
</g>
</g>
<!-- Node7&#45;&gt;Node10 -->
<g id="edge10_Node000007_Node000010" class="edge">
<title>Node7&#45;&gt;Node10</title>
<g id="a_edge10_Node000007_Node000010"><a xlink:title=" ">
<path fill="none" stroke="#63b8ff" d="M566.12,-191.53C522.24,-179.89 462.91,-164.17 422.16,-153.37"/>
<polygon fill="#63b8ff" stroke="#63b8ff" points="423.22,-150.03 412.65,-150.85 421.42,-156.79 423.22,-150.03"/>
</a>
</g>
</g>
<!-- Node11 -->
<g id="Node000011" class="node">
<title>Node11</title>
<g id="a_Node000011"><a xlink:href="_combat_component_8h.html" target="_top" xlink:title=" ">
<polygon fill="white" stroke="#666666" points="812.38,-156 618.62,-156 618.62,-124 812.38,-124 812.38,-156"/>
<text text-anchor="start" x="626.62" y="-142.5" font-family="Arial" font-size="10.00">MultiplayerShooter</text>
<text text-anchor="middle" x="715.5" y="-130.5" font-family="Arial" font-size="10.00">/ActorComponents/CombatComponent.h</text>
</a>
</g>
</g>
<!-- Node7&#45;&gt;Node11 -->
<g id="edge12_Node000007_Node000011" class="edge">
<title>Node7&#45;&gt;Node11</title>
<g id="a_edge12_Node000007_Node000011"><a xlink:title=" ">
<path fill="none" stroke="#63b8ff" d="M645.61,-191.69C657.35,-183.17 672.18,-172.42 685.15,-163.01"/>
<polygon fill="#63b8ff" stroke="#63b8ff" points="686.93,-166.05 692.97,-157.34 682.82,-160.38 686.93,-166.05"/>
</a>
</g>
</g>
<!-- Node16 -->
<g id="Node000016" class="node">
<title>Node16</title>
<g id="a_Node000016"><a xlink:title=" ">
<polygon fill="#e0e0e0" stroke="#999999" points="600.38,-150 466.62,-150 466.62,-130 600.38,-130 600.38,-150"/>
<text text-anchor="middle" x="533.5" y="-136.5" font-family="Arial" font-size="10.00">MainCharacter.generated.h</text>
</a>
</g>
</g>
<!-- Node7&#45;&gt;Node16 -->
<g id="edge20_Node000007_Node000016" class="edge">
<title>Node7&#45;&gt;Node16</title>
<g id="a_edge20_Node000007_Node000016"><a xlink:title=" ">
<path fill="none" stroke="#63b8ff" d="M603.39,-191.69C589.06,-181.3 570.14,-167.57 555.6,-157.03"/>
<polygon fill="#63b8ff" stroke="#63b8ff" points="557.72,-154.24 547.57,-151.2 553.61,-159.91 557.72,-154.24"/>
</a>
</g>
</g>
<!-- Node11&#45;&gt;Node3 -->
<g id="edge13_Node000011_Node000003" class="edge">
<title>Node11&#45;&gt;Node3</title>
<g id="a_edge13_Node000011_Node000003"><a xlink:title=" ">
<path fill="none" stroke="#63b8ff" d="M737.4,-123.52C750.1,-114.01 766,-101.16 778.5,-88 795.87,-69.71 812.42,-45.87 822.97,-29.59"/>
<polygon fill="#63b8ff" stroke="#63b8ff" points="825.76,-31.72 828.17,-21.4 819.85,-27.97 825.76,-31.72"/>
</a>
</g>
</g>
<!-- Node11&#45;&gt;Node4 -->
<g id="edge14_Node000011_Node000004" class="edge">
<title>Node11&#45;&gt;Node4</title>
<g id="a_edge14_Node000011_Node000004"><a xlink:title=" ">
<path fill="none" stroke="#63b8ff" d="M768.49,-123.53C807.98,-111.99 861.24,-96.44 898.2,-85.65"/>
<polygon fill="#63b8ff" stroke="#63b8ff" points="899.04,-89.05 907.65,-82.88 897.07,-82.33 899.04,-89.05"/>
</a>
</g>
</g>
<!-- Node12 -->
<g id="Node000012" class="node">
<title>Node12</title>
<g id="a_Node000012"><a xlink:href="_main_h_u_d_8h.html" target="_top" xlink:title=" ">
<polygon fill="white" stroke="#666666" points="769,-88 672,-88 672,-56 769,-56 769,-88"/>
<text text-anchor="start" x="680" y="-74.5" font-family="Arial" font-size="10.00">MultiplayerShooter</text>
<text text-anchor="middle" x="720.5" y="-62.5" font-family="Arial" font-size="10.00">/HUD/MainHUD.h</text>
</a>
</g>
</g>
<!-- Node11&#45;&gt;Node12 -->
<g id="edge15_Node000011_Node000012" class="edge">
<title>Node11&#45;&gt;Node12</title>
<g id="a_edge15_Node000011_Node000012"><a xlink:title=" ">
<path fill="none" stroke="#63b8ff" d="M716.66,-123.69C717.2,-116.53 717.86,-107.79 718.49,-99.59"/>
<polygon fill="#63b8ff" stroke="#63b8ff" points="721.97,-99.97 719.23,-89.73 714.99,-99.44 721.97,-99.97"/>
</a>
</g>
</g>
<!-- Node15 -->
<g id="Node000015" class="node">
<title>Node15</title>
<g id="a_Node000015"><a xlink:title=" ">
<polygon fill="#e0e0e0" stroke="#999999" points="653.88,-82 499.12,-82 499.12,-62 653.88,-62 653.88,-82"/>
<text text-anchor="middle" x="576.5" y="-68.5" font-family="Arial" font-size="10.00">CombatComponent.generated.h</text>
</a>
</g>
</g>
<!-- Node11&#45;&gt;Node15 -->
<g id="edge19_Node000011_Node000015" class="edge">
<title>Node11&#45;&gt;Node15</title>
<g id="a_edge19_Node000011_Node000015"><a xlink:title=" ">
<path fill="none" stroke="#63b8ff" d="M682.91,-123.53C659.88,-112.59 629.23,-98.04 606.74,-87.36"/>
<polygon fill="#63b8ff" stroke="#63b8ff" points="608.33,-84.24 597.79,-83.11 605.32,-90.56 608.33,-84.24"/>
</a>
</g>
</g>
<!-- Node12&#45;&gt;Node3 -->
<g id="edge16_Node000012_Node000003" class="edge">
<title>Node12&#45;&gt;Node3</title>
<g id="a_edge16_Node000012_Node000003"><a xlink:title=" ">
<path fill="none" stroke="#63b8ff" d="M749.86,-55.55C767.34,-46.35 789.4,-34.74 806.62,-25.68"/>
<polygon fill="#63b8ff" stroke="#63b8ff" points="808.07,-28.87 815.29,-21.11 804.81,-22.67 808.07,-28.87"/>
</a>
</g>
</g>
<!-- Node13 -->
<g id="Node000013" class="node">
<title>Node13</title>
<g id="a_Node000013"><a xlink:title=" ">
<polygon fill="#e0e0e0" stroke="#999999" points="645.88,-20 521.12,-20 521.12,0 645.88,0 645.88,-20"/>
<text text-anchor="middle" x="583.5" y="-6.5" font-family="Arial" font-size="10.00">GameFramework/HUD.h</text>
</a>
</g>
</g>
<!-- Node12&#45;&gt;Node13 -->
<g id="edge17_Node000012_Node000013" class="edge">
<title>Node12&#45;&gt;Node13</title>
<g id="a_edge17_Node000012_Node000013"><a xlink:title=" ">
<path fill="none" stroke="#63b8ff" d="M685.22,-55.55C663.61,-46.09 636.19,-34.08 615.27,-24.91"/>
<polygon fill="#63b8ff" stroke="#63b8ff" points="616.93,-21.82 606.37,-21.02 614.12,-28.23 616.93,-21.82"/>
</a>
</g>
</g>
<!-- Node14 -->
<g id="Node000014" class="node">
<title>Node14</title>
<g id="a_Node000014"><a xlink:title=" ">
<polygon fill="#e0e0e0" stroke="#999999" points="777.25,-20 663.75,-20 663.75,0 777.25,0 777.25,-20"/>
<text text-anchor="middle" x="720.5" y="-6.5" font-family="Arial" font-size="10.00">MainHUD.generated.h</text>
</a>
</g>
</g>
<!-- Node12&#45;&gt;Node14 -->
<g id="edge18_Node000012_Node000014" class="edge">
<title>Node12&#45;&gt;Node14</title>
<g id="a_edge18_Node000012_Node000014"><a xlink:title=" ">
<path fill="none" stroke="#63b8ff" d="M720.5,-55.55C720.5,-48.34 720.5,-39.66 720.5,-31.88"/>
<polygon fill="#63b8ff" stroke="#63b8ff" points="724,-31.92 720.5,-21.92 717,-31.92 724,-31.92"/>
</a>
</g>
</g>
</g>
</svg>
