<?xml version="1.0" encoding="UTF-8" standalone="no"?>
<!DOCTYPE svg PUBLIC "-//W3C//DTD SVG 1.1//EN"
 "http://www.w3.org/Graphics/SVG/1.1/DTD/svg11.dtd">
<!-- Generated by graphviz version 12.2.1 (20241206.2353)
 -->
<!-- Title: MultiplayerShooter/Database/BuffDatabaseManager.h Pages: 1 -->
<svg width="734pt" height="108pt"
 viewBox="0.00 0.00 733.88 108.00" xmlns="http://www.w3.org/2000/svg" xmlns:xlink="http://www.w3.org/1999/xlink">
<g id="graph0" class="graph" transform="scale(1 1) rotate(0) translate(4 104)">
<title>MultiplayerShooter/Database/BuffDatabaseManager.h</title>
<!-- Node1 -->
<g id="Node000001" class="node">
<title>Node1</title>
<g id="a_Node000001"><a xlink:title=" ">
<polygon fill="#999999" stroke="#666666" points="403,-100 234,-100 234,-68 403,-68 403,-100"/>
<text text-anchor="start" x="242" y="-86.5" font-family="Arial" font-size="10.00">MultiplayerShooter</text>
<text text-anchor="middle" x="318.5" y="-74.5" font-family="Arial" font-size="10.00">/Database/BuffDatabaseManager.h</text>
</a>
</g>
</g>
<!-- Node2 -->
<g id="Node000002" class="node">
<title>Node2</title>
<g id="a_Node000002"><a xlink:title=" ">
<polygon fill="#e0e0e0" stroke="#999999" points="79,-26 0,-26 0,-6 79,-6 79,-26"/>
<text text-anchor="middle" x="39.5" y="-12.5" font-family="Arial" font-size="10.00">CoreMinimal.h</text>
</a>
</g>
</g>
<!-- Node1&#45;&gt;Node2 -->
<g id="edge1_Node000001_Node000002" class="edge">
<title>Node1&#45;&gt;Node2</title>
<g id="a_edge1_Node000001_Node000002"><a xlink:title=" ">
<path fill="none" stroke="#63b8ff" d="M241.47,-67.5C196.62,-58.09 139.12,-45.34 88.5,-32 85.75,-31.28 82.93,-30.5 80.09,-29.69"/>
<polygon fill="#63b8ff" stroke="#63b8ff" points="81.22,-26.38 70.64,-26.93 79.26,-33.1 81.22,-26.38"/>
</a>
</g>
</g>
<!-- Node3 -->
<g id="Node000003" class="node">
<title>Node3</title>
<g id="a_Node000003"><a xlink:title=" ">
<polygon fill="#e0e0e0" stroke="#999999" points="227.88,-26 97.12,-26 97.12,-6 227.88,-6 227.88,-26"/>
<text text-anchor="middle" x="162.5" y="-12.5" font-family="Arial" font-size="10.00">UObject/NoExportTypes.h</text>
</a>
</g>
</g>
<!-- Node1&#45;&gt;Node3 -->
<g id="edge2_Node000001_Node000003" class="edge">
<title>Node1&#45;&gt;Node3</title>
<g id="a_edge2_Node000001_Node000003"><a xlink:title=" ">
<path fill="none" stroke="#63b8ff" d="M281.92,-67.53C255.72,-56.44 220.74,-41.64 195.41,-30.92"/>
<polygon fill="#63b8ff" stroke="#63b8ff" points="196.83,-27.72 186.25,-27.05 194.1,-34.17 196.83,-27.72"/>
</a>
</g>
</g>
<!-- Node4 -->
<g id="Node000004" class="node">
<title>Node4</title>
<g id="a_Node000004"><a xlink:title=" ">
<polygon fill="#e0e0e0" stroke="#999999" points="391.38,-26 245.62,-26 245.62,-6 391.38,-6 391.38,-26"/>
<text text-anchor="middle" x="318.5" y="-12.5" font-family="Arial" font-size="10.00">SQLiteDatabaseConnection.h</text>
</a>
</g>
</g>
<!-- Node1&#45;&gt;Node4 -->
<g id="edge3_Node000001_Node000004" class="edge">
<title>Node1&#45;&gt;Node4</title>
<g id="a_edge3_Node000001_Node000004"><a xlink:title=" ">
<path fill="none" stroke="#63b8ff" d="M318.5,-67.69C318.5,-58.8 318.5,-47.46 318.5,-37.77"/>
<polygon fill="#63b8ff" stroke="#63b8ff" points="322,-37.83 318.5,-27.83 315,-37.83 322,-37.83"/>
</a>
</g>
</g>
<!-- Node5 -->
<g id="Node000005" class="node">
<title>Node5</title>
<g id="a_Node000005"><a xlink:title=" ">
<polygon fill="#e0e0e0" stroke="#999999" points="541.25,-32 409.75,-32 409.75,0 541.25,0 541.25,-32"/>
<text text-anchor="start" x="417.75" y="-18.5" font-family="Arial" font-size="10.00">SQLiteCore/Public/Include</text>
<text text-anchor="middle" x="475.5" y="-6.5" font-family="Arial" font-size="10.00">SQLite.h</text>
</a>
</g>
</g>
<!-- Node1&#45;&gt;Node5 -->
<g id="edge4_Node000001_Node000005" class="edge">
<title>Node1&#45;&gt;Node5</title>
<g id="a_edge4_Node000001_Node000005"><a xlink:title=" ">
<path fill="none" stroke="#63b8ff" d="M355.31,-67.53C377.08,-58.37 404.88,-46.69 428.26,-36.86"/>
<polygon fill="#63b8ff" stroke="#63b8ff" points="429.39,-40.18 437.25,-33.08 426.68,-33.73 429.39,-40.18"/>
</a>
</g>
</g>
<!-- Node6 -->
<g id="Node000006" class="node">
<title>Node6</title>
<g id="a_Node000006"><a xlink:title=" ">
<polygon fill="#e0e0e0" stroke="#999999" points="725.88,-26 559.12,-26 559.12,-6 725.88,-6 725.88,-26"/>
<text text-anchor="middle" x="642.5" y="-12.5" font-family="Arial" font-size="10.00">BuffDatabaseManager.generated.h</text>
</a>
</g>
</g>
<!-- Node1&#45;&gt;Node6 -->
<g id="edge5_Node000001_Node000006" class="edge">
<title>Node1&#45;&gt;Node6</title>
<g id="a_edge5_Node000001_Node000006"><a xlink:title=" ">
<path fill="none" stroke="#63b8ff" d="M394.46,-67.53C452.66,-55.67 531.74,-39.56 584.81,-28.75"/>
<polygon fill="#63b8ff" stroke="#63b8ff" points="585.48,-32.19 594.58,-26.76 584.08,-25.33 585.48,-32.19"/>
</a>
</g>
</g>
</g>
</svg>
