<?xml version="1.0" encoding="UTF-8" standalone="no"?>
<!DOCTYPE svg PUBLIC "-//W3C//DTD SVG 1.1//EN"
 "http://www.w3.org/Graphics/SVG/1.1/DTD/svg11.dtd">
<!-- Generated by graphviz version 12.2.1 (20241206.2353)
 -->
<!-- Title: MultiplayerShooter/Database/BuffDatabaseManager.h Pages: 1 -->
<svg width="368pt" height="108pt"
 viewBox="0.00 0.00 367.88 108.00" xmlns="http://www.w3.org/2000/svg" xmlns:xlink="http://www.w3.org/1999/xlink">
<g id="graph0" class="graph" transform="scale(1 1) rotate(0) translate(4 104)">
<title>MultiplayerShooter/Database/BuffDatabaseManager.h</title>
<!-- Node1 -->
<g id="Node000001" class="node">
<title>Node1</title>
<g id="a_Node000001"><a xlink:title=" ">
<polygon fill="#999999" stroke="#666666" points="268.25,-100 99.25,-100 99.25,-68 268.25,-68 268.25,-100"/>
<text text-anchor="start" x="107.25" y="-86.5" font-family="Arial" font-size="10.00">MultiplayerShooter</text>
<text text-anchor="middle" x="183.75" y="-74.5" font-family="Arial" font-size="10.00">/Database/BuffDatabaseManager.h</text>
</a>
</g>
</g>
<!-- Node2 -->
<g id="Node000002" class="node">
<title>Node2</title>
<g id="a_Node000002"><a xlink:href="_buff_database_manager_8cpp.html" target="_top" xlink:title=" ">
<polygon fill="white" stroke="#666666" points="179.5,-32 0,-32 0,0 179.5,0 179.5,-32"/>
<text text-anchor="start" x="8" y="-18.5" font-family="Arial" font-size="10.00">MultiplayerShooter</text>
<text text-anchor="middle" x="89.75" y="-6.5" font-family="Arial" font-size="10.00">/Database/BuffDatabaseManager.cpp</text>
</a>
</g>
</g>
<!-- Node1&#45;&gt;Node2 -->
<g id="edge1_Node000001_Node000002" class="edge">
<title>Node1&#45;&gt;Node2</title>
<g id="a_edge1_Node000001_Node000002"><a xlink:title=" ">
<path fill="none" stroke="#63b8ff" d="M152.62,-61.15C139.25,-51.75 123.93,-41 111.76,-32.45"/>
<polygon fill="#63b8ff" stroke="#63b8ff" points="150.51,-63.94 160.71,-66.82 154.54,-58.21 150.51,-63.94"/>
</a>
</g>
</g>
<!-- Node3 -->
<g id="Node000003" class="node">
<title>Node3</title>
<g id="a_Node000003"><a xlink:href="_main_game_mode_8cpp.html" target="_top" xlink:title=" ">
<polygon fill="white" stroke="#666666" points="359.88,-32 197.62,-32 197.62,0 359.88,0 359.88,-32"/>
<text text-anchor="start" x="205.62" y="-18.5" font-family="Arial" font-size="10.00">MultiplayerShooter</text>
<text text-anchor="middle" x="278.75" y="-6.5" font-family="Arial" font-size="10.00">/GameMode/MainGameMode.cpp</text>
</a>
</g>
</g>
<!-- Node1&#45;&gt;Node3 -->
<g id="edge2_Node000001_Node000003" class="edge">
<title>Node1&#45;&gt;Node3</title>
<g id="a_edge2_Node000001_Node000003"><a xlink:title=" ">
<path fill="none" stroke="#63b8ff" d="M215.21,-61.15C228.73,-51.75 244.21,-41 256.51,-32.45"/>
<polygon fill="#63b8ff" stroke="#63b8ff" points="213.24,-58.25 207.03,-66.83 217.24,-64 213.24,-58.25"/>
</a>
</g>
</g>
</g>
</svg>
