<?xml version="1.0" encoding="UTF-8" standalone="no"?>
<!DOCTYPE svg PUBLIC "-//W3C//DTD SVG 1.1//EN"
 "http://www.w3.org/Graphics/SVG/1.1/DTD/svg11.dtd">
<!-- Generated by graphviz version 12.2.1 (20241206.2353)
 -->
<!-- Title: MultiplayerShooter/HUD/Chat.cpp Pages: 1 -->
<svg width="2277pt" height="312pt"
 viewBox="0.00 0.00 2277.12 312.00" xmlns="http://www.w3.org/2000/svg" xmlns:xlink="http://www.w3.org/1999/xlink">
<g id="graph0" class="graph" transform="scale(1 1) rotate(0) translate(4 308)">
<title>MultiplayerShooter/HUD/Chat.cpp</title>
<!-- Node1 -->
<g id="Node000001" class="node">
<title>Node1</title>
<g id="a_Node000001"><a xlink:title=" ">
<polygon fill="#999999" stroke="#666666" points="800,-304 703,-304 703,-272 800,-272 800,-304"/>
<text text-anchor="start" x="711" y="-290.5" font-family="Arial" font-size="10.00">MultiplayerShooter</text>
<text text-anchor="middle" x="751.5" y="-278.5" font-family="Arial" font-size="10.00">/HUD/Chat.cpp</text>
</a>
</g>
</g>
<!-- Node2 -->
<g id="Node000002" class="node">
<title>Node2</title>
<g id="a_Node000002"><a xlink:href="_chat_8h.html" target="_top" xlink:title=" ">
<polygon fill="white" stroke="#666666" points="186.12,-224 140.88,-224 140.88,-204 186.12,-204 186.12,-224"/>
<text text-anchor="middle" x="163.5" y="-210.5" font-family="Arial" font-size="10.00">Chat.h</text>
</a>
</g>
</g>
<!-- Node1&#45;&gt;Node2 -->
<g id="edge1_Node000001_Node000002" class="edge">
<title>Node1&#45;&gt;Node2</title>
<g id="a_edge1_Node000001_Node000002"><a xlink:title=" ">
<path fill="none" stroke="#63b8ff" d="M702.59,-282.25C619.16,-273.97 444,-255.9 296.5,-236 262.8,-231.45 224.45,-225.29 197.62,-220.82"/>
<polygon fill="#63b8ff" stroke="#63b8ff" points="198.45,-217.41 188.01,-219.21 197.3,-224.31 198.45,-217.41"/>
</a>
</g>
</g>
<!-- Node6 -->
<g id="Node000006" class="node">
<title>Node6</title>
<g id="a_Node000006"><a xlink:href="_chat_message_widget_8h.html" target="_top" xlink:title=" ">
<polygon fill="white" stroke="#666666" points="421.38,-224 305.62,-224 305.62,-204 421.38,-204 421.38,-224"/>
<text text-anchor="middle" x="363.5" y="-210.5" font-family="Arial" font-size="10.00">ChatMessageWidget.h</text>
</a>
</g>
</g>
<!-- Node1&#45;&gt;Node6 -->
<g id="edge5_Node000001_Node000006" class="edge">
<title>Node1&#45;&gt;Node6</title>
<g id="a_edge5_Node000001_Node000006"><a xlink:title=" ">
<path fill="none" stroke="#63b8ff" d="M702.67,-281.5C639.37,-273.85 525.81,-258.38 430.5,-236 420.95,-233.76 410.78,-230.85 401.32,-227.91"/>
<polygon fill="#63b8ff" stroke="#63b8ff" points="402.66,-224.67 392.07,-224.96 400.53,-231.34 402.66,-224.67"/>
</a>
</g>
</g>
<!-- Node8 -->
<g id="Node000008" class="node">
<title>Node8</title>
<g id="a_Node000008"><a xlink:title=" ">
<polygon fill="#e0e0e0" stroke="#999999" points="593.5,-224 439.5,-224 439.5,-204 593.5,-204 593.5,-224"/>
<text text-anchor="middle" x="516.5" y="-210.5" font-family="Arial" font-size="10.00">Components/EditableTextBox.h</text>
</a>
</g>
</g>
<!-- Node1&#45;&gt;Node8 -->
<g id="edge9_Node000001_Node000008" class="edge">
<title>Node1&#45;&gt;Node8</title>
<g id="a_edge9_Node000001_Node000008"><a xlink:title=" ">
<path fill="none" stroke="#63b8ff" d="M702.52,-271.99C659.86,-258.92 598.66,-240.17 558.27,-227.8"/>
<polygon fill="#63b8ff" stroke="#63b8ff" points="559.5,-224.51 548.91,-224.93 557.45,-231.21 559.5,-224.51"/>
</a>
</g>
</g>
<!-- Node9 -->
<g id="Node000009" class="node">
<title>Node9</title>
<g id="a_Node000009"><a xlink:title=" ">
<polygon fill="#e0e0e0" stroke="#999999" points="735.88,-224 611.12,-224 611.12,-204 735.88,-204 735.88,-224"/>
<text text-anchor="middle" x="673.5" y="-210.5" font-family="Arial" font-size="10.00">Components/ScrollBox.h</text>
</a>
</g>
</g>
<!-- Node1&#45;&gt;Node9 -->
<g id="edge10_Node000001_Node000009" class="edge">
<title>Node1&#45;&gt;Node9</title>
<g id="a_edge10_Node000001_Node000009"><a xlink:title=" ">
<path fill="none" stroke="#63b8ff" d="M734.96,-271.73C722.31,-260.06 704.89,-243.98 691.83,-231.92"/>
<polygon fill="#63b8ff" stroke="#63b8ff" points="694.42,-229.55 684.7,-225.34 689.67,-234.69 694.42,-229.55"/>
</a>
</g>
</g>
<!-- Node10 -->
<g id="Node000010" class="node">
<title>Node10</title>
<g id="a_Node000010"><a xlink:title=" ">
<polygon fill="#e0e0e0" stroke="#999999" points="907.12,-224 753.88,-224 753.88,-204 907.12,-204 907.12,-224"/>
<text text-anchor="middle" x="830.5" y="-210.5" font-family="Arial" font-size="10.00">GameFramework/PlayerState.h</text>
</a>
</g>
</g>
<!-- Node1&#45;&gt;Node10 -->
<g id="edge11_Node000001_Node000010" class="edge">
<title>Node1&#45;&gt;Node10</title>
<g id="a_edge11_Node000001_Node000010"><a xlink:title=" ">
<path fill="none" stroke="#63b8ff" d="M768.25,-271.73C781.06,-260.06 798.71,-243.98 811.94,-231.92"/>
<polygon fill="#63b8ff" stroke="#63b8ff" points="814.13,-234.65 819.16,-225.33 809.42,-229.48 814.13,-234.65"/>
</a>
</g>
</g>
<!-- Node11 -->
<g id="Node000011" class="node">
<title>Node11</title>
<g id="a_Node000011"><a xlink:href="_main_character_8h.html" target="_top" xlink:title=" ">
<polygon fill="white" stroke="#666666" points="1294.38,-230 1136.62,-230 1136.62,-198 1294.38,-198 1294.38,-230"/>
<text text-anchor="start" x="1144.62" y="-216.5" font-family="Arial" font-size="10.00">MultiplayerShooter</text>
<text text-anchor="middle" x="1215.5" y="-204.5" font-family="Arial" font-size="10.00">/MainCharacter/MainCharacter.h</text>
</a>
</g>
</g>
<!-- Node1&#45;&gt;Node11 -->
<g id="edge12_Node000001_Node000011" class="edge">
<title>Node1&#45;&gt;Node11</title>
<g id="a_edge12_Node000001_Node000011"><a xlink:title=" ">
<path fill="none" stroke="#63b8ff" d="M800.28,-279.43C877.16,-267.5 1027.74,-244.14 1124.88,-229.06"/>
<polygon fill="#63b8ff" stroke="#63b8ff" points="1125.31,-232.54 1134.66,-227.54 1124.24,-225.62 1125.31,-232.54"/>
</a>
</g>
</g>
<!-- Node24 -->
<g id="Node000024" class="node">
<title>Node24</title>
<g id="a_Node000024"><a xlink:href="_my_player_controller_8h.html" target="_top" xlink:title=" ">
<polygon fill="white" stroke="#666666" points="1952,-236 1819,-236 1819,-192 1952,-192 1952,-236"/>
<text text-anchor="start" x="1827" y="-222.5" font-family="Arial" font-size="10.00">MultiplayerShooter</text>
<text text-anchor="start" x="1827" y="-210.5" font-family="Arial" font-size="10.00">/PlayerController/MyPlayer</text>
<text text-anchor="middle" x="1885.5" y="-198.5" font-family="Arial" font-size="10.00">Controller.h</text>
</a>
</g>
</g>
<!-- Node1&#45;&gt;Node24 -->
<g id="edge30_Node000001_Node000024" class="edge">
<title>Node1&#45;&gt;Node24</title>
<g id="a_edge30_Node000001_Node000024"><a xlink:title=" ">
<path fill="none" stroke="#63b8ff" d="M800.23,-283.91C977.54,-272.65 1589.43,-233.8 1807.52,-219.95"/>
<polygon fill="#63b8ff" stroke="#63b8ff" points="1807.58,-223.45 1817.34,-219.33 1807.14,-216.47 1807.58,-223.45"/>
</a>
</g>
</g>
<!-- Node28 -->
<g id="Node000028" class="node">
<title>Node28</title>
<g id="a_Node000028"><a xlink:href="_chat_component_8h.html" target="_top" xlink:title=" ">
<polygon fill="white" stroke="#666666" points="680.62,-156 500.38,-156 500.38,-124 680.62,-124 680.62,-156"/>
<text text-anchor="start" x="508.38" y="-142.5" font-family="Arial" font-size="10.00">MultiplayerShooter</text>
<text text-anchor="middle" x="590.5" y="-130.5" font-family="Arial" font-size="10.00">/ActorComponents/ChatComponent.h</text>
</a>
</g>
</g>
<!-- Node1&#45;&gt;Node28 -->
<g id="edge35_Node000001_Node000028" class="edge">
<title>Node1&#45;&gt;Node28</title>
<g id="a_edge35_Node000001_Node000028"><a xlink:title=" ">
<path fill="none" stroke="#63b8ff" d="M800.37,-286.53C838.78,-283.25 890.07,-271.83 916.5,-236 928.11,-220.26 929.21,-206.86 916.5,-192 915.57,-190.91 787.44,-171.1 692.12,-156.5"/>
<polygon fill="#63b8ff" stroke="#63b8ff" points="692.87,-153.08 682.45,-155.02 691.81,-160 692.87,-153.08"/>
</a>
</g>
</g>
<!-- Node3 -->
<g id="Node000003" class="node">
<title>Node3</title>
<g id="a_Node000003"><a xlink:title=" ">
<polygon fill="#e0e0e0" stroke="#999999" points="1155,-20 1076,-20 1076,0 1155,0 1155,-20"/>
<text text-anchor="middle" x="1115.5" y="-6.5" font-family="Arial" font-size="10.00">CoreMinimal.h</text>
</a>
</g>
</g>
<!-- Node2&#45;&gt;Node3 -->
<g id="edge2_Node000002_Node000003" class="edge">
<title>Node2&#45;&gt;Node3</title>
<g id="a_edge2_Node000002_Node000003"><a xlink:title=" ">
<path fill="none" stroke="#63b8ff" d="M155.93,-203.56C142.79,-185.97 118.96,-147.82 138.5,-124 197.83,-51.67 871.62,-20.36 1064.31,-12.85"/>
<polygon fill="#63b8ff" stroke="#63b8ff" points="1064.4,-16.35 1074.26,-12.47 1064.14,-9.36 1064.4,-16.35"/>
</a>
</g>
</g>
<!-- Node4 -->
<g id="Node000004" class="node">
<title>Node4</title>
<g id="a_Node000004"><a xlink:title=" ">
<polygon fill="#e0e0e0" stroke="#999999" points="265.12,-150 147.88,-150 147.88,-130 265.12,-130 265.12,-150"/>
<text text-anchor="middle" x="206.5" y="-136.5" font-family="Arial" font-size="10.00">Blueprint/UserWidget.h</text>
</a>
</g>
</g>
<!-- Node2&#45;&gt;Node4 -->
<g id="edge3_Node000002_Node000004" class="edge">
<title>Node2&#45;&gt;Node4</title>
<g id="a_edge3_Node000002_Node000004"><a xlink:title=" ">
<path fill="none" stroke="#63b8ff" d="M169.12,-203.59C175.72,-192.53 186.84,-173.91 195.24,-159.85"/>
<polygon fill="#63b8ff" stroke="#63b8ff" points="198.11,-161.87 200.24,-151.49 192.1,-158.28 198.11,-161.87"/>
</a>
</g>
</g>
<!-- Node5 -->
<g id="Node000005" class="node">
<title>Node5</title>
<g id="a_Node000005"><a xlink:title=" ">
<polygon fill="#e0e0e0" stroke="#999999" points="91,-150 0,-150 0,-130 91,-130 91,-150"/>
<text text-anchor="middle" x="45.5" y="-136.5" font-family="Arial" font-size="10.00">Chat.generated.h</text>
</a>
</g>
</g>
<!-- Node2&#45;&gt;Node5 -->
<g id="edge4_Node000002_Node000005" class="edge">
<title>Node2&#45;&gt;Node5</title>
<g id="a_edge4_Node000002_Node000005"><a xlink:title=" ">
<path fill="none" stroke="#63b8ff" d="M148.07,-203.59C128.37,-191.57 94.03,-170.61 70.56,-156.29"/>
<polygon fill="#63b8ff" stroke="#63b8ff" points="72.58,-153.42 62.22,-151.2 68.94,-159.4 72.58,-153.42"/>
</a>
</g>
</g>
<!-- Node6&#45;&gt;Node3 -->
<g id="edge6_Node000006_Node000003" class="edge">
<title>Node6&#45;&gt;Node3</title>
<g id="a_edge6_Node000006_Node000003"><a xlink:title=" ">
<path fill="none" stroke="#63b8ff" d="M384.1,-203.63C403.77,-193.9 433.32,-177.14 453.5,-156 488.82,-119 467.25,-83.33 510.5,-56 556.79,-26.75 927.04,-15.33 1064.43,-12.07"/>
<polygon fill="#63b8ff" stroke="#63b8ff" points="1064.41,-15.57 1074.32,-11.84 1064.24,-8.57 1064.41,-15.57"/>
</a>
</g>
</g>
<!-- Node6&#45;&gt;Node4 -->
<g id="edge7_Node000006_Node000004" class="edge">
<title>Node6&#45;&gt;Node4</title>
<g id="a_edge7_Node000006_Node000004"><a xlink:title=" ">
<path fill="none" stroke="#63b8ff" d="M342.97,-203.59C316.06,-191.24 268.6,-169.48 237.35,-155.15"/>
<polygon fill="#63b8ff" stroke="#63b8ff" points="238.95,-152.03 228.41,-151.05 236.04,-158.4 238.95,-152.03"/>
</a>
</g>
</g>
<!-- Node7 -->
<g id="Node000007" class="node">
<title>Node7</title>
<g id="a_Node000007"><a xlink:title=" ">
<polygon fill="#e0e0e0" stroke="#999999" points="444.25,-150 282.75,-150 282.75,-130 444.25,-130 444.25,-150"/>
<text text-anchor="middle" x="363.5" y="-136.5" font-family="Arial" font-size="10.00">ChatMessageWidget.generated.h</text>
</a>
</g>
</g>
<!-- Node6&#45;&gt;Node7 -->
<g id="edge8_Node000006_Node000007" class="edge">
<title>Node6&#45;&gt;Node7</title>
<g id="a_edge8_Node000006_Node000007"><a xlink:title=" ">
<path fill="none" stroke="#63b8ff" d="M363.5,-203.59C363.5,-192.96 363.5,-175.36 363.5,-161.53"/>
<polygon fill="#63b8ff" stroke="#63b8ff" points="367,-161.7 363.5,-151.7 360,-161.7 367,-161.7"/>
</a>
</g>
</g>
<!-- Node11&#45;&gt;Node3 -->
<g id="edge13_Node000011_Node000003" class="edge">
<title>Node11&#45;&gt;Node3</title>
<g id="a_edge13_Node000011_Node000003"><a xlink:title=" ">
<path fill="none" stroke="#63b8ff" d="M1294.78,-209.63C1428.5,-203.14 1687.09,-186.72 1714.5,-156 1723.97,-145.39 1723.49,-135.02 1714.5,-124 1645.52,-39.41 1298.8,-17.77 1166.71,-12.56"/>
<polygon fill="#63b8ff" stroke="#63b8ff" points="1166.99,-9.07 1156.87,-12.19 1166.73,-16.06 1166.99,-9.07"/>
</a>
</g>
</g>
<!-- Node12 -->
<g id="Node000012" class="node">
<title>Node12</title>
<g id="a_Node000012"><a xlink:title=" ">
<polygon fill="#e0e0e0" stroke="#999999" points="1566,-150 1421,-150 1421,-130 1566,-130 1566,-150"/>
<text text-anchor="middle" x="1493.5" y="-136.5" font-family="Arial" font-size="10.00">GameFramework/Character.h</text>
</a>
</g>
</g>
<!-- Node11&#45;&gt;Node12 -->
<g id="edge14_Node000011_Node000012" class="edge">
<title>Node11&#45;&gt;Node12</title>
<g id="a_edge14_Node000011_Node000012"><a xlink:title=" ">
<path fill="none" stroke="#63b8ff" d="M1275.14,-197.55C1326.13,-184.35 1398.56,-165.59 1445.79,-153.36"/>
<polygon fill="#63b8ff" stroke="#63b8ff" points="1446.66,-156.75 1455.47,-150.85 1444.91,-149.97 1446.66,-156.75"/>
</a>
</g>
</g>
<!-- Node13 -->
<g id="Node000013" class="node">
<title>Node13</title>
<g id="a_Node000013"><a xlink:href="_turning_in_place_8h.html" target="_top" xlink:title=" ">
<polygon fill="white" stroke="#666666" points="1705.38,-156 1583.62,-156 1583.62,-124 1705.38,-124 1705.38,-156"/>
<text text-anchor="start" x="1591.62" y="-142.5" font-family="Arial" font-size="10.00">MultiplayerShooter</text>
<text text-anchor="middle" x="1644.5" y="-130.5" font-family="Arial" font-size="10.00">/Types/TurningInPlace.h</text>
</a>
</g>
</g>
<!-- Node11&#45;&gt;Node13 -->
<g id="edge15_Node000011_Node000013" class="edge">
<title>Node11&#45;&gt;Node13</title>
<g id="a_edge15_Node000011_Node000013"><a xlink:title=" ">
<path fill="none" stroke="#63b8ff" d="M1294.73,-201.78C1365.18,-191.5 1471.25,-175.29 1571.92,-156.62"/>
<polygon fill="#63b8ff" stroke="#63b8ff" points="1572.54,-160.07 1581.73,-154.79 1571.25,-153.19 1572.54,-160.07"/>
</a>
</g>
</g>
<!-- Node14 -->
<g id="Node000014" class="node">
<title>Node14</title>
<g id="a_Node000014"><a xlink:title=" ">
<polygon fill="#e0e0e0" stroke="#999999" points="844.75,-150 698.25,-150 698.25,-130 844.75,-130 844.75,-150"/>
<text text-anchor="middle" x="771.5" y="-136.5" font-family="Arial" font-size="10.00">Camera/CameraComponent.h</text>
</a>
</g>
</g>
<!-- Node11&#45;&gt;Node14 -->
<g id="edge16_Node000011_Node000014" class="edge">
<title>Node11&#45;&gt;Node14</title>
<g id="a_edge16_Node000011_Node000014"><a xlink:title=" ">
<path fill="none" stroke="#63b8ff" d="M1136.19,-201C1062.99,-189.79 951.31,-172.39 854.5,-156 847.77,-154.86 840.75,-153.64 833.75,-152.4"/>
<polygon fill="#63b8ff" stroke="#63b8ff" points="834.78,-149.03 824.32,-150.73 833.55,-155.92 834.78,-149.03"/>
</a>
</g>
</g>
<!-- Node15 -->
<g id="Node000015" class="node">
<title>Node15</title>
<g id="a_Node000015"><a xlink:href="_buff_component_8h.html" target="_top" xlink:title=" ">
<polygon fill="white" stroke="#666666" points="1039.75,-156 863.25,-156 863.25,-124 1039.75,-124 1039.75,-156"/>
<text text-anchor="start" x="871.25" y="-142.5" font-family="Arial" font-size="10.00">MultiplayerShooter</text>
<text text-anchor="middle" x="951.5" y="-130.5" font-family="Arial" font-size="10.00">/ActorComponents/BuffComponent.h</text>
</a>
</g>
</g>
<!-- Node11&#45;&gt;Node15 -->
<g id="edge17_Node000011_Node000015" class="edge">
<title>Node11&#45;&gt;Node15</title>
<g id="a_edge17_Node000011_Node000015"><a xlink:title=" ">
<path fill="none" stroke="#63b8ff" d="M1158.87,-197.55C1117.89,-186.38 1062.34,-171.23 1019.05,-159.42"/>
<polygon fill="#63b8ff" stroke="#63b8ff" points="1020.07,-156.07 1009.5,-156.82 1018.23,-162.83 1020.07,-156.07"/>
</a>
</g>
</g>
<!-- Node18 -->
<g id="Node000018" class="node">
<title>Node18</title>
<g id="a_Node000018"><a xlink:href="_combat_component_8h.html" target="_top" xlink:title=" ">
<polygon fill="white" stroke="#666666" points="1403.38,-156 1209.62,-156 1209.62,-124 1403.38,-124 1403.38,-156"/>
<text text-anchor="start" x="1217.62" y="-142.5" font-family="Arial" font-size="10.00">MultiplayerShooter</text>
<text text-anchor="middle" x="1306.5" y="-130.5" font-family="Arial" font-size="10.00">/ActorComponents/CombatComponent.h</text>
</a>
</g>
</g>
<!-- Node11&#45;&gt;Node18 -->
<g id="edge21_Node000011_Node000018" class="edge">
<title>Node11&#45;&gt;Node18</title>
<g id="a_edge21_Node000011_Node000018"><a xlink:title=" ">
<path fill="none" stroke="#63b8ff" d="M1234.8,-197.73C1247.38,-187.78 1264.02,-174.61 1278.1,-163.47"/>
<polygon fill="#63b8ff" stroke="#63b8ff" points="1280.06,-166.38 1285.73,-157.43 1275.71,-160.89 1280.06,-166.38"/>
</a>
</g>
</g>
<!-- Node23 -->
<g id="Node000023" class="node">
<title>Node23</title>
<g id="a_Node000023"><a xlink:title=" ">
<polygon fill="#e0e0e0" stroke="#999999" points="1191.38,-150 1057.62,-150 1057.62,-130 1191.38,-130 1191.38,-150"/>
<text text-anchor="middle" x="1124.5" y="-136.5" font-family="Arial" font-size="10.00">MainCharacter.generated.h</text>
</a>
</g>
</g>
<!-- Node11&#45;&gt;Node23 -->
<g id="edge29_Node000011_Node000023" class="edge">
<title>Node11&#45;&gt;Node23</title>
<g id="a_edge29_Node000011_Node000023"><a xlink:title=" ">
<path fill="none" stroke="#63b8ff" d="M1196.2,-197.73C1181.17,-185.83 1160.34,-169.36 1145.01,-157.22"/>
<polygon fill="#63b8ff" stroke="#63b8ff" points="1147.47,-154.71 1137.46,-151.25 1143.13,-160.2 1147.47,-154.71"/>
</a>
</g>
</g>
<!-- Node15&#45;&gt;Node3 -->
<g id="edge18_Node000015_Node000003" class="edge">
<title>Node15&#45;&gt;Node3</title>
<g id="a_edge18_Node000015_Node000003"><a xlink:title=" ">
<path fill="none" stroke="#63b8ff" d="M906.4,-123.58C890.23,-115.61 873.73,-104.1 864.5,-88 857.43,-75.66 855.37,-66.91 864.5,-56 889.46,-26.17 998.39,-16.09 1064.27,-12.7"/>
<polygon fill="#63b8ff" stroke="#63b8ff" points="1064.31,-16.2 1074.13,-12.23 1063.98,-9.21 1064.31,-16.2"/>
</a>
</g>
</g>
<!-- Node16 -->
<g id="Node000016" class="node">
<title>Node16</title>
<g id="a_Node000016"><a xlink:title=" ">
<polygon fill="#e0e0e0" stroke="#999999" points="1029.62,-82 873.38,-82 873.38,-62 1029.62,-62 1029.62,-82"/>
<text text-anchor="middle" x="951.5" y="-68.5" font-family="Arial" font-size="10.00">Components/ActorComponent.h</text>
</a>
</g>
</g>
<!-- Node15&#45;&gt;Node16 -->
<g id="edge19_Node000015_Node000016" class="edge">
<title>Node15&#45;&gt;Node16</title>
<g id="a_edge19_Node000015_Node000016"><a xlink:title=" ">
<path fill="none" stroke="#63b8ff" d="M951.5,-123.69C951.5,-114.8 951.5,-103.46 951.5,-93.77"/>
<polygon fill="#63b8ff" stroke="#63b8ff" points="955,-93.83 951.5,-83.83 948,-93.83 955,-93.83"/>
</a>
</g>
</g>
<!-- Node17 -->
<g id="Node000017" class="node">
<title>Node17</title>
<g id="a_Node000017"><a xlink:title=" ">
<polygon fill="#e0e0e0" stroke="#999999" points="1185.25,-82 1047.75,-82 1047.75,-62 1185.25,-62 1185.25,-82"/>
<text text-anchor="middle" x="1116.5" y="-68.5" font-family="Arial" font-size="10.00">BuffComponent.generated.h</text>
</a>
</g>
</g>
<!-- Node15&#45;&gt;Node17 -->
<g id="edge20_Node000015_Node000017" class="edge">
<title>Node15&#45;&gt;Node17</title>
<g id="a_edge20_Node000015_Node000017"><a xlink:title=" ">
<path fill="none" stroke="#63b8ff" d="M990.19,-123.53C1018.15,-112.34 1055.57,-97.37 1082.41,-86.64"/>
<polygon fill="#63b8ff" stroke="#63b8ff" points="1083.46,-89.99 1091.44,-83.02 1080.86,-83.49 1083.46,-89.99"/>
</a>
</g>
</g>
<!-- Node18&#45;&gt;Node3 -->
<g id="edge22_Node000018_Node000003" class="edge">
<title>Node18&#45;&gt;Node3</title>
<g id="a_edge22_Node000018_Node000003"><a xlink:title=" ">
<path fill="none" stroke="#63b8ff" d="M1330.99,-123.52C1354.96,-106.48 1385.33,-78.5 1366.5,-56 1341.54,-26.17 1232.61,-16.09 1166.73,-12.7"/>
<polygon fill="#63b8ff" stroke="#63b8ff" points="1167.02,-9.21 1156.87,-12.23 1166.69,-16.2 1167.02,-9.21"/>
</a>
</g>
</g>
<!-- Node18&#45;&gt;Node16 -->
<g id="edge23_Node000018_Node000016" class="edge">
<title>Node18&#45;&gt;Node16</title>
<g id="a_edge23_Node000018_Node000016"><a xlink:title=" ">
<path fill="none" stroke="#63b8ff" d="M1223.27,-123.53C1159.1,-111.6 1071.77,-95.36 1013.61,-84.55"/>
<polygon fill="#63b8ff" stroke="#63b8ff" points="1014.34,-81.12 1003.87,-82.74 1013.06,-88.01 1014.34,-81.12"/>
</a>
</g>
</g>
<!-- Node19 -->
<g id="Node000019" class="node">
<title>Node19</title>
<g id="a_Node000019"><a xlink:href="_main_h_u_d_8h.html" target="_top" xlink:title=" ">
<polygon fill="white" stroke="#666666" points="1897,-88 1800,-88 1800,-56 1897,-56 1897,-88"/>
<text text-anchor="start" x="1808" y="-74.5" font-family="Arial" font-size="10.00">MultiplayerShooter</text>
<text text-anchor="middle" x="1848.5" y="-62.5" font-family="Arial" font-size="10.00">/HUD/MainHUD.h</text>
</a>
</g>
</g>
<!-- Node18&#45;&gt;Node19 -->
<g id="edge24_Node000018_Node000019" class="edge">
<title>Node18&#45;&gt;Node19</title>
<g id="a_edge24_Node000018_Node000019"><a xlink:title=" ">
<path fill="none" stroke="#63b8ff" d="M1403.82,-125.14C1406.74,-124.75 1409.64,-124.37 1412.5,-124 1546.59,-106.67 1704.22,-88.87 1788.36,-79.57"/>
<polygon fill="#63b8ff" stroke="#63b8ff" points="1788.68,-83.06 1798.23,-78.48 1787.91,-76.1 1788.68,-83.06"/>
</a>
</g>
</g>
<!-- Node22 -->
<g id="Node000022" class="node">
<title>Node22</title>
<g id="a_Node000022"><a xlink:title=" ">
<polygon fill="#e0e0e0" stroke="#999999" points="1357.88,-82 1203.12,-82 1203.12,-62 1357.88,-62 1357.88,-82"/>
<text text-anchor="middle" x="1280.5" y="-68.5" font-family="Arial" font-size="10.00">CombatComponent.generated.h</text>
</a>
</g>
</g>
<!-- Node18&#45;&gt;Node22 -->
<g id="edge28_Node000018_Node000022" class="edge">
<title>Node18&#45;&gt;Node22</title>
<g id="a_edge28_Node000018_Node000022"><a xlink:title=" ">
<path fill="none" stroke="#63b8ff" d="M1300.47,-123.69C1296.85,-114.5 1292.2,-102.7 1288.3,-92.8"/>
<polygon fill="#63b8ff" stroke="#63b8ff" points="1291.65,-91.75 1284.72,-83.72 1285.13,-94.31 1291.65,-91.75"/>
</a>
</g>
</g>
<!-- Node19&#45;&gt;Node3 -->
<g id="edge25_Node000019_Node000003" class="edge">
<title>Node19&#45;&gt;Node3</title>
<g id="a_edge25_Node000019_Node000003"><a xlink:title=" ">
<path fill="none" stroke="#63b8ff" d="M1799.82,-58.56C1795,-57.59 1790.17,-56.71 1785.5,-56 1556.45,-21.29 1279.29,-13.35 1166.72,-11.54"/>
<polygon fill="#63b8ff" stroke="#63b8ff" points="1166.96,-8.04 1156.91,-11.39 1166.86,-15.04 1166.96,-8.04"/>
</a>
</g>
</g>
<!-- Node20 -->
<g id="Node000020" class="node">
<title>Node20</title>
<g id="a_Node000020"><a xlink:title=" ">
<polygon fill="#e0e0e0" stroke="#999999" points="1978.88,-20 1854.12,-20 1854.12,0 1978.88,0 1978.88,-20"/>
<text text-anchor="middle" x="1916.5" y="-6.5" font-family="Arial" font-size="10.00">GameFramework/HUD.h</text>
</a>
</g>
</g>
<!-- Node19&#45;&gt;Node20 -->
<g id="edge26_Node000019_Node000020" class="edge">
<title>Node19&#45;&gt;Node20</title>
<g id="a_edge26_Node000019_Node000020"><a xlink:title=" ">
<path fill="none" stroke="#63b8ff" d="M1866.01,-55.55C1875.65,-47.04 1887.63,-36.48 1897.5,-27.77"/>
<polygon fill="#63b8ff" stroke="#63b8ff" points="1899.52,-30.65 1904.7,-21.41 1894.89,-25.4 1899.52,-30.65"/>
</a>
</g>
</g>
<!-- Node21 -->
<g id="Node000021" class="node">
<title>Node21</title>
<g id="a_Node000021"><a xlink:title=" ">
<polygon fill="#e0e0e0" stroke="#999999" points="1836.25,-20 1722.75,-20 1722.75,0 1836.25,0 1836.25,-20"/>
<text text-anchor="middle" x="1779.5" y="-6.5" font-family="Arial" font-size="10.00">MainHUD.generated.h</text>
</a>
</g>
</g>
<!-- Node19&#45;&gt;Node21 -->
<g id="edge27_Node000019_Node000021" class="edge">
<title>Node19&#45;&gt;Node21</title>
<g id="a_edge27_Node000019_Node000021"><a xlink:title=" ">
<path fill="none" stroke="#63b8ff" d="M1830.73,-55.55C1820.95,-47.04 1808.8,-36.48 1798.78,-27.77"/>
<polygon fill="#63b8ff" stroke="#63b8ff" points="1801.3,-25.32 1791.46,-21.4 1796.71,-30.6 1801.3,-25.32"/>
</a>
</g>
</g>
<!-- Node24&#45;&gt;Node3 -->
<g id="edge31_Node000024_Node000003" class="edge">
<title>Node24&#45;&gt;Node3</title>
<g id="a_edge31_Node000024_Node000003"><a xlink:title=" ">
<path fill="none" stroke="#63b8ff" d="M1849.84,-191.65C1832.01,-180.97 1810.1,-167.82 1790.5,-156 1717.07,-111.72 1706.99,-82.68 1625.5,-56 1541.16,-28.38 1278.1,-16.47 1166.44,-12.57"/>
<polygon fill="#63b8ff" stroke="#63b8ff" points="1166.79,-9.08 1156.68,-12.23 1166.56,-16.07 1166.79,-9.08"/>
</a>
</g>
</g>
<!-- Node25 -->
<g id="Node000025" class="node">
<title>Node25</title>
<g id="a_Node000025"><a xlink:title=" ">
<polygon fill="#e0e0e0" stroke="#999999" points="1971.5,-150 1799.5,-150 1799.5,-130 1971.5,-130 1971.5,-150"/>
<text text-anchor="middle" x="1885.5" y="-136.5" font-family="Arial" font-size="10.00">GameFramework/PlayerController.h</text>
</a>
</g>
</g>
<!-- Node24&#45;&gt;Node25 -->
<g id="edge32_Node000024_Node000025" class="edge">
<title>Node24&#45;&gt;Node25</title>
<g id="a_edge32_Node000024_Node000025"><a xlink:title=" ">
<path fill="none" stroke="#63b8ff" d="M1885.5,-191.79C1885.5,-182.32 1885.5,-171.2 1885.5,-161.78"/>
<polygon fill="#63b8ff" stroke="#63b8ff" points="1889,-161.82 1885.5,-151.82 1882,-161.82 1889,-161.82"/>
</a>
</g>
</g>
<!-- Node26 -->
<g id="Node000026" class="node">
<title>Node26</title>
<g id="a_Node000026"><a xlink:title=" ">
<polygon fill="#e0e0e0" stroke="#999999" points="2097.62,-150 1989.38,-150 1989.38,-130 2097.62,-130 2097.62,-150"/>
<text text-anchor="middle" x="2043.5" y="-136.5" font-family="Arial" font-size="10.00">Sound/SoundClass.h</text>
</a>
</g>
</g>
<!-- Node24&#45;&gt;Node26 -->
<g id="edge33_Node000024_Node000026" class="edge">
<title>Node24&#45;&gt;Node26</title>
<g id="a_edge33_Node000024_Node000026"><a xlink:title=" ">
<path fill="none" stroke="#63b8ff" d="M1932.48,-191.59C1958.27,-179.84 1989.56,-165.58 2012.33,-155.2"/>
<polygon fill="#63b8ff" stroke="#63b8ff" points="2013.74,-158.41 2021.39,-151.08 2010.84,-152.04 2013.74,-158.41"/>
</a>
</g>
</g>
<!-- Node27 -->
<g id="Node000027" class="node">
<title>Node27</title>
<g id="a_Node000027"><a xlink:title=" ">
<polygon fill="#e0e0e0" stroke="#999999" points="2269.12,-150 2115.88,-150 2115.88,-130 2269.12,-130 2269.12,-150"/>
<text text-anchor="middle" x="2192.5" y="-136.5" font-family="Arial" font-size="10.00">MyPlayerController.generated.h</text>
</a>
</g>
</g>
<!-- Node24&#45;&gt;Node27 -->
<g id="edge34_Node000024_Node000027" class="edge">
<title>Node24&#45;&gt;Node27</title>
<g id="a_edge34_Node000024_Node000027"><a xlink:title=" ">
<path fill="none" stroke="#63b8ff" d="M1952.49,-197.29C2009.36,-183.95 2089.76,-165.1 2141.51,-152.96"/>
<polygon fill="#63b8ff" stroke="#63b8ff" points="2142.01,-156.44 2150.95,-150.74 2140.41,-149.62 2142.01,-156.44"/>
</a>
</g>
</g>
<!-- Node28&#45;&gt;Node3 -->
<g id="edge36_Node000028_Node000003" class="edge">
<title>Node28&#45;&gt;Node3</title>
<g id="a_edge36_Node000028_Node000003"><a xlink:title=" ">
<path fill="none" stroke="#63b8ff" d="M633.45,-123.54C685.28,-105.34 775.35,-75.17 854.5,-56 926.73,-38.5 1011.8,-25.16 1064.7,-17.7"/>
<polygon fill="#63b8ff" stroke="#63b8ff" points="1064.89,-21.21 1074.31,-16.36 1063.92,-14.28 1064.89,-21.21"/>
</a>
</g>
</g>
<!-- Node28&#45;&gt;Node16 -->
<g id="edge37_Node000028_Node000016" class="edge">
<title>Node28&#45;&gt;Node16</title>
<g id="a_edge37_Node000028_Node000016"><a xlink:title=" ">
<path fill="none" stroke="#63b8ff" d="M675.14,-123.53C740.53,-111.57 829.57,-95.29 888.71,-84.48"/>
<polygon fill="#63b8ff" stroke="#63b8ff" points="889.06,-87.97 898.27,-82.73 887.8,-81.09 889.06,-87.97"/>
</a>
</g>
</g>
<!-- Node29 -->
<g id="Node000029" class="node">
<title>Node29</title>
<g id="a_Node000029"><a xlink:title=" ">
<polygon fill="#e0e0e0" stroke="#999999" points="661.12,-82 519.88,-82 519.88,-62 661.12,-62 661.12,-82"/>
<text text-anchor="middle" x="590.5" y="-68.5" font-family="Arial" font-size="10.00">ChatComponent.generated.h</text>
</a>
</g>
</g>
<!-- Node28&#45;&gt;Node29 -->
<g id="edge38_Node000028_Node000029" class="edge">
<title>Node28&#45;&gt;Node29</title>
<g id="a_edge38_Node000028_Node000029"><a xlink:title=" ">
<path fill="none" stroke="#63b8ff" d="M590.5,-123.69C590.5,-114.8 590.5,-103.46 590.5,-93.77"/>
<polygon fill="#63b8ff" stroke="#63b8ff" points="594,-93.83 590.5,-83.83 587,-93.83 594,-93.83"/>
</a>
</g>
</g>
</g>
</svg>
