<?xml version="1.0" encoding="UTF-8" standalone="no"?>
<!DOCTYPE svg PUBLIC "-//W3C//DTD SVG 1.1//EN"
 "http://www.w3.org/Graphics/SVG/1.1/DTD/svg11.dtd">
<!-- Generated by graphviz version 12.2.1 (20241206.2353)
 -->
<!-- Title: MultiplayerShooter/HUD/Chat.h Pages: 1 -->
<svg width="777pt" height="120pt"
 viewBox="0.00 0.00 776.88 120.00" xmlns="http://www.w3.org/2000/svg" xmlns:xlink="http://www.w3.org/1999/xlink">
<g id="graph0" class="graph" transform="scale(1 1) rotate(0) translate(4 116)">
<title>MultiplayerShooter/HUD/Chat.h</title>
<!-- Node1 -->
<g id="Node000001" class="node">
<title>Node1</title>
<g id="a_Node000001"><a xlink:title=" ">
<polygon fill="#999999" stroke="#666666" points="425.88,-112 328.88,-112 328.88,-80 425.88,-80 425.88,-112"/>
<text text-anchor="start" x="336.88" y="-98.5" font-family="Arial" font-size="10.00">MultiplayerShooter</text>
<text text-anchor="middle" x="377.38" y="-86.5" font-family="Arial" font-size="10.00">/HUD/Chat.h</text>
</a>
</g>
</g>
<!-- Node2 -->
<g id="Node000002" class="node">
<title>Node2</title>
<g id="a_Node000002"><a xlink:href="_chat_component_8cpp.html" target="_top" xlink:title=" ">
<polygon fill="white" stroke="#666666" points="190.75,-38 0,-38 0,-6 190.75,-6 190.75,-38"/>
<text text-anchor="start" x="8" y="-24.5" font-family="Arial" font-size="10.00">MultiplayerShooter</text>
<text text-anchor="middle" x="95.38" y="-12.5" font-family="Arial" font-size="10.00">/ActorComponents/ChatComponent.cpp</text>
</a>
</g>
</g>
<!-- Node1&#45;&gt;Node2 -->
<g id="edge1_Node000001_Node000002" class="edge">
<title>Node1&#45;&gt;Node2</title>
<g id="a_edge1_Node000001_Node000002"><a xlink:title=" ">
<path fill="none" stroke="#63b8ff" d="M317.51,-79.71C269.9,-67.56 203.6,-50.63 155.84,-38.44"/>
<polygon fill="#63b8ff" stroke="#63b8ff" points="316.55,-83.08 327.11,-82.17 318.29,-76.3 316.55,-83.08"/>
</a>
</g>
</g>
<!-- Node3 -->
<g id="Node000003" class="node">
<title>Node3</title>
<g id="a_Node000003"><a xlink:href="_chat_8cpp.html" target="_top" xlink:title=" ">
<polygon fill="white" stroke="#666666" points="305.88,-38 208.88,-38 208.88,-6 305.88,-6 305.88,-38"/>
<text text-anchor="start" x="216.88" y="-24.5" font-family="Arial" font-size="10.00">MultiplayerShooter</text>
<text text-anchor="middle" x="257.38" y="-12.5" font-family="Arial" font-size="10.00">/HUD/Chat.cpp</text>
</a>
</g>
</g>
<!-- Node1&#45;&gt;Node3 -->
<g id="edge2_Node000001_Node000003" class="edge">
<title>Node1&#45;&gt;Node3</title>
<g id="a_edge2_Node000001_Node000003"><a xlink:title=" ">
<path fill="none" stroke="#63b8ff" d="M341.89,-73.71C323.01,-62.38 300.23,-48.71 283.08,-38.42"/>
<polygon fill="#63b8ff" stroke="#63b8ff" points="339.96,-76.63 350.33,-78.78 343.56,-70.63 339.96,-76.63"/>
</a>
</g>
</g>
<!-- Node4 -->
<g id="Node000004" class="node">
<title>Node4</title>
<g id="a_Node000004"><a xlink:href="_main_h_u_d_8cpp.html" target="_top" xlink:title=" ">
<polygon fill="white" stroke="#666666" points="430.75,-38 324,-38 324,-6 430.75,-6 430.75,-38"/>
<text text-anchor="start" x="332" y="-24.5" font-family="Arial" font-size="10.00">MultiplayerShooter</text>
<text text-anchor="middle" x="377.38" y="-12.5" font-family="Arial" font-size="10.00">/HUD/MainHUD.cpp</text>
</a>
</g>
</g>
<!-- Node1&#45;&gt;Node4 -->
<g id="edge3_Node000001_Node000004" class="edge">
<title>Node1&#45;&gt;Node4</title>
<g id="a_edge3_Node000001_Node000004"><a xlink:title=" ">
<path fill="none" stroke="#63b8ff" d="M377.38,-68.49C377.38,-58.3 377.38,-47.03 377.38,-38.25"/>
<polygon fill="#63b8ff" stroke="#63b8ff" points="373.88,-68.22 377.38,-78.22 380.88,-68.22 373.88,-68.22"/>
</a>
</g>
</g>
<!-- Node5 -->
<g id="Node000005" class="node">
<title>Node5</title>
<g id="a_Node000005"><a xlink:href="_main_character_8cpp.html" target="_top" xlink:title=" ">
<polygon fill="white" stroke="#666666" points="617.5,-38 449.25,-38 449.25,-6 617.5,-6 617.5,-38"/>
<text text-anchor="start" x="457.25" y="-24.5" font-family="Arial" font-size="10.00">MultiplayerShooter</text>
<text text-anchor="middle" x="533.38" y="-12.5" font-family="Arial" font-size="10.00">/MainCharacter/MainCharacter.cpp</text>
</a>
</g>
</g>
<!-- Node1&#45;&gt;Node5 -->
<g id="edge4_Node000001_Node000005" class="edge">
<title>Node1&#45;&gt;Node5</title>
<g id="a_edge4_Node000001_Node000005"><a xlink:title=" ">
<path fill="none" stroke="#63b8ff" d="M421.15,-74.8C446.13,-63.27 476.95,-49.04 499.96,-38.42"/>
<polygon fill="#63b8ff" stroke="#63b8ff" points="419.83,-71.55 412.22,-78.92 422.76,-77.91 419.83,-71.55"/>
</a>
</g>
</g>
<!-- Node6 -->
<g id="Node000006" class="node">
<title>Node6</title>
<g id="a_Node000006"><a xlink:href="_my_player_controller_8cpp.html" target="_top" xlink:title=" ">
<polygon fill="white" stroke="#666666" points="768.88,-44 635.88,-44 635.88,0 768.88,0 768.88,-44"/>
<text text-anchor="start" x="643.88" y="-30.5" font-family="Arial" font-size="10.00">MultiplayerShooter</text>
<text text-anchor="start" x="643.88" y="-18.5" font-family="Arial" font-size="10.00">/PlayerController/MyPlayer</text>
<text text-anchor="middle" x="702.38" y="-6.5" font-family="Arial" font-size="10.00">Controller.cpp</text>
</a>
</g>
</g>
<!-- Node1&#45;&gt;Node6 -->
<g id="edge5_Node000001_Node000006" class="edge">
<title>Node1&#45;&gt;Node6</title>
<g id="a_edge5_Node000001_Node000006"><a xlink:title=" ">
<path fill="none" stroke="#63b8ff" d="M437.32,-83.9C487.91,-74.25 562.15,-59.43 626.38,-44 629.44,-43.26 632.56,-42.49 635.71,-41.69"/>
<polygon fill="#63b8ff" stroke="#63b8ff" points="436.92,-80.41 427.74,-85.72 438.22,-87.29 436.92,-80.41"/>
</a>
</g>
</g>
</g>
</svg>
