<?xml version="1.0" encoding="UTF-8" standalone="no"?>
<!DOCTYPE svg PUBLIC "-//W3C//DTD SVG 1.1//EN"
 "http://www.w3.org/Graphics/SVG/1.1/DTD/svg11.dtd">
<!-- Generated by graphviz version 12.2.1 (20241206.2353)
 -->
<!-- Title: MultiplayerShooter/HUD/ChatMessageWidget.cpp Pages: 1 -->
<svg width="401pt" height="152pt"
 viewBox="0.00 0.00 401.25 152.00" xmlns="http://www.w3.org/2000/svg" xmlns:xlink="http://www.w3.org/1999/xlink">
<g id="graph0" class="graph" transform="scale(1 1) rotate(0) translate(4 148)">
<title>MultiplayerShooter/HUD/ChatMessageWidget.cpp</title>
<!-- Node1 -->
<g id="Node000001" class="node">
<title>Node1</title>
<g id="a_Node000001"><a xlink:title=" ">
<polygon fill="#999999" stroke="#666666" points="301.88,-144 147.12,-144 147.12,-112 301.88,-112 301.88,-144"/>
<text text-anchor="start" x="155.12" y="-130.5" font-family="Arial" font-size="10.00">MultiplayerShooter</text>
<text text-anchor="middle" x="224.5" y="-118.5" font-family="Arial" font-size="10.00">/HUD/ChatMessageWidget.cpp</text>
</a>
</g>
</g>
<!-- Node2 -->
<g id="Node000002" class="node">
<title>Node2</title>
<g id="a_Node000002"><a xlink:href="_chat_message_widget_8h.html" target="_top" xlink:title=" ">
<polygon fill="white" stroke="#666666" points="213.38,-76 97.62,-76 97.62,-56 213.38,-56 213.38,-76"/>
<text text-anchor="middle" x="155.5" y="-62.5" font-family="Arial" font-size="10.00">ChatMessageWidget.h</text>
</a>
</g>
</g>
<!-- Node1&#45;&gt;Node2 -->
<g id="edge1_Node000001_Node000002" class="edge">
<title>Node1&#45;&gt;Node2</title>
<g id="a_edge1_Node000001_Node000002"><a xlink:title=" ">
<path fill="none" stroke="#63b8ff" d="M206.73,-111.55C196.95,-103.04 184.8,-92.48 174.78,-83.77"/>
<polygon fill="#63b8ff" stroke="#63b8ff" points="177.3,-81.32 167.46,-77.4 172.71,-86.6 177.3,-81.32"/>
</a>
</g>
</g>
<!-- Node6 -->
<g id="Node000006" class="node">
<title>Node6</title>
<g id="a_Node000006"><a xlink:title=" ">
<polygon fill="#e0e0e0" stroke="#999999" points="357.62,-76 231.38,-76 231.38,-56 357.62,-56 357.62,-76"/>
<text text-anchor="middle" x="294.5" y="-62.5" font-family="Arial" font-size="10.00">Components/TextBlock.h</text>
</a>
</g>
</g>
<!-- Node1&#45;&gt;Node6 -->
<g id="edge5_Node000001_Node000006" class="edge">
<title>Node1&#45;&gt;Node6</title>
<g id="a_edge5_Node000001_Node000006"><a xlink:title=" ">
<path fill="none" stroke="#63b8ff" d="M242.53,-111.55C252.45,-103.04 264.78,-92.48 274.94,-83.77"/>
<polygon fill="#63b8ff" stroke="#63b8ff" points="277.06,-86.56 282.37,-77.39 272.5,-81.24 277.06,-86.56"/>
</a>
</g>
</g>
<!-- Node3 -->
<g id="Node000003" class="node">
<title>Node3</title>
<g id="a_Node000003"><a xlink:title=" ">
<polygon fill="#e0e0e0" stroke="#999999" points="79,-20 0,-20 0,0 79,0 79,-20"/>
<text text-anchor="middle" x="39.5" y="-6.5" font-family="Arial" font-size="10.00">CoreMinimal.h</text>
</a>
</g>
</g>
<!-- Node2&#45;&gt;Node3 -->
<g id="edge2_Node000002_Node000003" class="edge">
<title>Node2&#45;&gt;Node3</title>
<g id="a_edge2_Node000002_Node000003"><a xlink:title=" ">
<path fill="none" stroke="#63b8ff" d="M135.29,-55.59C117.27,-47.21 90.63,-34.8 70.02,-25.21"/>
<polygon fill="#63b8ff" stroke="#63b8ff" points="71.78,-22.17 61.24,-21.12 68.82,-28.51 71.78,-22.17"/>
</a>
</g>
</g>
<!-- Node4 -->
<g id="Node000004" class="node">
<title>Node4</title>
<g id="a_Node000004"><a xlink:title=" ">
<polygon fill="#e0e0e0" stroke="#999999" points="214.12,-20 96.88,-20 96.88,0 214.12,0 214.12,-20"/>
<text text-anchor="middle" x="155.5" y="-6.5" font-family="Arial" font-size="10.00">Blueprint/UserWidget.h</text>
</a>
</g>
</g>
<!-- Node2&#45;&gt;Node4 -->
<g id="edge3_Node000002_Node000004" class="edge">
<title>Node2&#45;&gt;Node4</title>
<g id="a_edge3_Node000002_Node000004"><a xlink:title=" ">
<path fill="none" stroke="#63b8ff" d="M155.5,-55.59C155.5,-49.01 155.5,-39.96 155.5,-31.73"/>
<polygon fill="#63b8ff" stroke="#63b8ff" points="159,-31.81 155.5,-21.81 152,-31.81 159,-31.81"/>
</a>
</g>
</g>
<!-- Node5 -->
<g id="Node000005" class="node">
<title>Node5</title>
<g id="a_Node000005"><a xlink:title=" ">
<polygon fill="#e0e0e0" stroke="#999999" points="393.25,-20 231.75,-20 231.75,0 393.25,0 393.25,-20"/>
<text text-anchor="middle" x="312.5" y="-6.5" font-family="Arial" font-size="10.00">ChatMessageWidget.generated.h</text>
</a>
</g>
</g>
<!-- Node2&#45;&gt;Node5 -->
<g id="edge4_Node000002_Node000005" class="edge">
<title>Node2&#45;&gt;Node5</title>
<g id="a_edge4_Node000002_Node000005"><a xlink:title=" ">
<path fill="none" stroke="#63b8ff" d="M182.85,-55.59C208.13,-46.9 245.96,-33.89 274.23,-24.16"/>
<polygon fill="#63b8ff" stroke="#63b8ff" points="275.19,-27.53 283.51,-20.97 272.91,-20.91 275.19,-27.53"/>
</a>
</g>
</g>
</g>
</svg>
