<?xml version="1.0" encoding="UTF-8" standalone="no"?>
<!DOCTYPE svg PUBLIC "-//W3C//DTD SVG 1.1//EN"
 "http://www.w3.org/Graphics/SVG/1.1/DTD/svg11.dtd">
<!-- Generated by graphviz version 12.2.1 (20241206.2353)
 -->
<!-- Title: MultiplayerShooter/ActorComponents/ChatComponent.h Pages: 1 -->
<svg width="501pt" height="108pt"
 viewBox="0.00 0.00 500.50 108.00" xmlns="http://www.w3.org/2000/svg" xmlns:xlink="http://www.w3.org/1999/xlink">
<g id="graph0" class="graph" transform="scale(1 1) rotate(0) translate(4 104)">
<title>MultiplayerShooter/ActorComponents/ChatComponent.h</title>
<!-- Node1 -->
<g id="Node000001" class="node">
<title>Node1</title>
<g id="a_Node000001"><a xlink:title=" ">
<polygon fill="#999999" stroke="#666666" points="347.5,-100 167.25,-100 167.25,-68 347.5,-68 347.5,-100"/>
<text text-anchor="start" x="175.25" y="-86.5" font-family="Arial" font-size="10.00">MultiplayerShooter</text>
<text text-anchor="middle" x="257.38" y="-74.5" font-family="Arial" font-size="10.00">/ActorComponents/ChatComponent.h</text>
</a>
</g>
</g>
<!-- Node2 -->
<g id="Node000002" class="node">
<title>Node2</title>
<g id="a_Node000002"><a xlink:href="_chat_component_8cpp.html" target="_top" xlink:title=" ">
<polygon fill="white" stroke="#666666" points="190.75,-32 0,-32 0,0 190.75,0 190.75,-32"/>
<text text-anchor="start" x="8" y="-18.5" font-family="Arial" font-size="10.00">MultiplayerShooter</text>
<text text-anchor="middle" x="95.38" y="-6.5" font-family="Arial" font-size="10.00">/ActorComponents/ChatComponent.cpp</text>
</a>
</g>
</g>
<!-- Node1&#45;&gt;Node2 -->
<g id="edge1_Node000001_Node000002" class="edge">
<title>Node1&#45;&gt;Node2</title>
<g id="a_edge1_Node000001_Node000002"><a xlink:title=" ">
<path fill="none" stroke="#63b8ff" d="M209,-63.29C184.81,-53.44 155.97,-41.69 133.4,-32.49"/>
<polygon fill="#63b8ff" stroke="#63b8ff" points="207.41,-66.42 217.99,-66.95 210.05,-59.94 207.41,-66.42"/>
</a>
</g>
</g>
<!-- Node3 -->
<g id="Node000003" class="node">
<title>Node3</title>
<g id="a_Node000003"><a xlink:href="_chat_8cpp.html" target="_top" xlink:title=" ">
<polygon fill="white" stroke="#666666" points="305.88,-32 208.88,-32 208.88,0 305.88,0 305.88,-32"/>
<text text-anchor="start" x="216.88" y="-18.5" font-family="Arial" font-size="10.00">MultiplayerShooter</text>
<text text-anchor="middle" x="257.38" y="-6.5" font-family="Arial" font-size="10.00">/HUD/Chat.cpp</text>
</a>
</g>
</g>
<!-- Node1&#45;&gt;Node3 -->
<g id="edge2_Node000001_Node000003" class="edge">
<title>Node1&#45;&gt;Node3</title>
<g id="a_edge2_Node000001_Node000003"><a xlink:title=" ">
<path fill="none" stroke="#63b8ff" d="M257.38,-56.31C257.38,-48.12 257.38,-39.38 257.38,-32.22"/>
<polygon fill="#63b8ff" stroke="#63b8ff" points="253.88,-56.18 257.38,-66.18 260.88,-56.18 253.88,-56.18"/>
</a>
</g>
</g>
<!-- Node4 -->
<g id="Node000004" class="node">
<title>Node4</title>
<g id="a_Node000004"><a xlink:href="_main_character_8cpp.html" target="_top" xlink:title=" ">
<polygon fill="white" stroke="#666666" points="492.5,-32 324.25,-32 324.25,0 492.5,0 492.5,-32"/>
<text text-anchor="start" x="332.25" y="-18.5" font-family="Arial" font-size="10.00">MultiplayerShooter</text>
<text text-anchor="middle" x="408.38" y="-6.5" font-family="Arial" font-size="10.00">/MainCharacter/MainCharacter.cpp</text>
</a>
</g>
</g>
<!-- Node1&#45;&gt;Node4 -->
<g id="edge3_Node000001_Node000004" class="edge">
<title>Node1&#45;&gt;Node4</title>
<g id="a_edge3_Node000001_Node000004"><a xlink:title=" ">
<path fill="none" stroke="#63b8ff" d="M303.07,-63.03C325.49,-53.23 352.08,-41.61 372.93,-32.49"/>
<polygon fill="#63b8ff" stroke="#63b8ff" points="301.93,-59.71 294.16,-66.92 304.73,-66.12 301.93,-59.71"/>
</a>
</g>
</g>
</g>
</svg>
