<?xml version="1.0" encoding="UTF-8" standalone="no"?>
<!DOCTYPE svg PUBLIC "-//W3C//DTD SVG 1.1//EN"
 "http://www.w3.org/Graphics/SVG/1.1/DTD/svg11.dtd">
<!-- Generated by graphviz version 12.2.1 (20241206.2353)
 -->
<!-- Title: MultiplayerShooter/ActorComponents/CombatComponent.cpp Pages: 1 -->
<svg width="2534pt" height="312pt"
 viewBox="0.00 0.00 2534.12 312.00" xmlns="http://www.w3.org/2000/svg" xmlns:xlink="http://www.w3.org/1999/xlink">
<g id="graph0" class="graph" transform="scale(1 1) rotate(0) translate(4 308)">
<title>MultiplayerShooter/ActorComponents/CombatComponent.cpp</title>
<!-- Node1 -->
<g id="Node000001" class="node">
<title>Node1</title>
<g id="a_Node000001"><a xlink:title=" ">
<polygon fill="#999999" stroke="#666666" points="1586.88,-304 1382.62,-304 1382.62,-272 1586.88,-272 1586.88,-304"/>
<text text-anchor="start" x="1390.62" y="-290.5" font-family="Arial" font-size="10.00">MultiplayerShooter</text>
<text text-anchor="middle" x="1484.75" y="-278.5" font-family="Arial" font-size="10.00">/ActorComponents/CombatComponent.cpp</text>
</a>
</g>
</g>
<!-- Node2 -->
<g id="Node000002" class="node">
<title>Node2</title>
<g id="a_Node000002"><a xlink:href="_combat_component_8h.html" target="_top" xlink:title=" ">
<polygon fill="white" stroke="#666666" points="437.25,-150 328.25,-150 328.25,-130 437.25,-130 437.25,-150"/>
<text text-anchor="middle" x="382.75" y="-136.5" font-family="Arial" font-size="10.00">CombatComponent.h</text>
</a>
</g>
</g>
<!-- Node1&#45;&gt;Node2 -->
<g id="edge1_Node000001_Node000002" class="edge">
<title>Node1&#45;&gt;Node2</title>
<g id="a_edge1_Node000001_Node000002"><a xlink:title=" ">
<path fill="none" stroke="#63b8ff" d="M1382.5,-285.91C1180.71,-282.98 738.07,-272.48 590.75,-236 520.83,-218.69 445.54,-178.19 407.61,-156.08"/>
<polygon fill="#63b8ff" stroke="#63b8ff" points="409.63,-153.2 399.24,-151.13 406.07,-159.23 409.63,-153.2"/>
</a>
</g>
</g>
<!-- Node9 -->
<g id="Node000009" class="node">
<title>Node9</title>
<g id="a_Node000009"><a xlink:href="_base_weapon_8h.html" target="_top" xlink:title=" ">
<polygon fill="white" stroke="#666666" points="344.62,-230 198.88,-230 198.88,-198 344.62,-198 344.62,-230"/>
<text text-anchor="start" x="206.88" y="-216.5" font-family="Arial" font-size="10.00">MultiplayerShooter</text>
<text text-anchor="middle" x="271.75" y="-204.5" font-family="Arial" font-size="10.00">/BaseWeapon/BaseWeapon.h</text>
</a>
</g>
</g>
<!-- Node1&#45;&gt;Node9 -->
<g id="edge9_Node000001_Node000009" class="edge">
<title>Node1&#45;&gt;Node9</title>
<g id="a_edge9_Node000001_Node000009"><a xlink:title=" ">
<path fill="none" stroke="#63b8ff" d="M1382.34,-286.33C1188.97,-284.14 757.06,-274.91 395.75,-236 382.86,-234.61 369.28,-232.74 356.02,-230.68"/>
<polygon fill="#63b8ff" stroke="#63b8ff" points="356.9,-227.28 346.48,-229.15 355.8,-234.19 356.9,-227.28"/>
</a>
</g>
</g>
<!-- Node12 -->
<g id="Node000012" class="node">
<title>Node12</title>
<g id="a_Node000012"><a xlink:href="_main_character_8h.html" target="_top" xlink:title=" ">
<polygon fill="white" stroke="#666666" points="757.62,-230 599.88,-230 599.88,-198 757.62,-198 757.62,-230"/>
<text text-anchor="start" x="607.88" y="-216.5" font-family="Arial" font-size="10.00">MultiplayerShooter</text>
<text text-anchor="middle" x="678.75" y="-204.5" font-family="Arial" font-size="10.00">/MainCharacter/MainCharacter.h</text>
</a>
</g>
</g>
<!-- Node1&#45;&gt;Node12 -->
<g id="edge13_Node000001_Node000012" class="edge">
<title>Node1&#45;&gt;Node12</title>
<g id="a_edge13_Node000001_Node000012"><a xlink:title=" ">
<path fill="none" stroke="#63b8ff" d="M1382.39,-284.52C1243.43,-280.05 987.67,-267.91 771.75,-236 765.4,-235.06 758.85,-233.93 752.29,-232.68"/>
<polygon fill="#63b8ff" stroke="#63b8ff" points="753.27,-229.3 742.77,-230.77 751.89,-236.17 753.27,-229.3"/>
</a>
</g>
</g>
<!-- Node15 -->
<g id="Node000015" class="node">
<title>Node15</title>
<g id="a_Node000015"><a xlink:title=" ">
<polygon fill="#e0e0e0" stroke="#999999" points="1287,-150 1140.5,-150 1140.5,-130 1287,-130 1287,-150"/>
<text text-anchor="middle" x="1213.75" y="-136.5" font-family="Arial" font-size="10.00">Camera/CameraComponent.h</text>
</a>
</g>
</g>
<!-- Node1&#45;&gt;Node15 -->
<g id="edge38_Node000001_Node000015" class="edge">
<title>Node1&#45;&gt;Node15</title>
<g id="a_edge38_Node000001_Node000015"><a xlink:title=" ">
<path fill="none" stroke="#63b8ff" d="M1382.22,-286.82C1201.86,-285.41 843.15,-277.39 804.75,-236 791.45,-221.66 791.71,-206.58 804.75,-192 852.75,-138.33 1055.46,-166.12 1126.75,-156 1134.49,-154.9 1142.59,-153.65 1150.61,-152.34"/>
<polygon fill="#63b8ff" stroke="#63b8ff" points="1151.06,-155.81 1160.35,-150.72 1149.91,-148.91 1151.06,-155.81"/>
</a>
</g>
</g>
<!-- Node19 -->
<g id="Node000019" class="node">
<title>Node19</title>
<g id="a_Node000019"><a xlink:title=" ">
<polygon fill="#e0e0e0" stroke="#999999" points="961.38,-224 814.12,-224 814.12,-204 961.38,-204 961.38,-224"/>
<text text-anchor="middle" x="887.75" y="-210.5" font-family="Arial" font-size="10.00">Engine/SkeletalMeshSocket.h</text>
</a>
</g>
</g>
<!-- Node1&#45;&gt;Node19 -->
<g id="edge24_Node000001_Node000019" class="edge">
<title>Node1&#45;&gt;Node19</title>
<g id="a_edge24_Node000001_Node000019"><a xlink:title=" ">
<path fill="none" stroke="#63b8ff" d="M1382.23,-281.34C1278.04,-274.53 1112.3,-260.79 970.75,-236 957.73,-233.72 943.73,-230.49 931.02,-227.24"/>
<polygon fill="#63b8ff" stroke="#63b8ff" points="932.25,-223.95 921.69,-224.8 930.48,-230.72 932.25,-223.95"/>
</a>
</g>
</g>
<!-- Node20 -->
<g id="Node000020" class="node">
<title>Node20</title>
<g id="a_Node000020"><a xlink:title=" ">
<polygon fill="#e0e0e0" stroke="#999999" points="1143.62,-224 979.88,-224 979.88,-204 1143.62,-204 1143.62,-224"/>
<text text-anchor="middle" x="1061.75" y="-210.5" font-family="Arial" font-size="10.00">Components/SphereComponent.h</text>
</a>
</g>
</g>
<!-- Node1&#45;&gt;Node20 -->
<g id="edge25_Node000001_Node000020" class="edge">
<title>Node1&#45;&gt;Node20</title>
<g id="a_edge25_Node000001_Node000020"><a xlink:title=" ">
<path fill="none" stroke="#63b8ff" d="M1382.33,-273.27C1316.53,-263.96 1229.35,-250.7 1152.75,-236 1139.07,-233.37 1124.31,-230.14 1110.75,-227.01"/>
<polygon fill="#63b8ff" stroke="#63b8ff" points="1111.7,-223.64 1101.17,-224.77 1110.1,-230.46 1111.7,-223.64"/>
</a>
</g>
</g>
<!-- Node21 -->
<g id="Node000021" class="node">
<title>Node21</title>
<g id="a_Node000021"><a xlink:title=" ">
<polygon fill="#e0e0e0" stroke="#999999" points="1344,-230 1161.5,-230 1161.5,-198 1344,-198 1344,-230"/>
<text text-anchor="start" x="1169.5" y="-216.5" font-family="Arial" font-size="10.00">GameFramework/CharacterMovement</text>
<text text-anchor="middle" x="1252.75" y="-204.5" font-family="Arial" font-size="10.00">Component.h</text>
</a>
</g>
</g>
<!-- Node1&#45;&gt;Node21 -->
<g id="edge26_Node000001_Node000021" class="edge">
<title>Node1&#45;&gt;Node21</title>
<g id="a_edge26_Node000001_Node000021"><a xlink:title=" ">
<path fill="none" stroke="#63b8ff" d="M1434.98,-271.55C1399.35,-260.5 1351.19,-245.55 1313.33,-233.8"/>
<polygon fill="#63b8ff" stroke="#63b8ff" points="1314.47,-230.49 1303.88,-230.87 1312.4,-237.18 1314.47,-230.49"/>
</a>
</g>
</g>
<!-- Node22 -->
<g id="Node000022" class="node">
<title>Node22</title>
<g id="a_Node000022"><a xlink:title=" ">
<polygon fill="#e0e0e0" stroke="#999999" points="1469.88,-224 1361.62,-224 1361.62,-204 1469.88,-204 1469.88,-224"/>
<text text-anchor="middle" x="1415.75" y="-210.5" font-family="Arial" font-size="10.00">Net/UnrealNetwork.h</text>
</a>
</g>
</g>
<!-- Node1&#45;&gt;Node22 -->
<g id="edge27_Node000001_Node000022" class="edge">
<title>Node1&#45;&gt;Node22</title>
<g id="a_edge27_Node000001_Node000022"><a xlink:title=" ">
<path fill="none" stroke="#63b8ff" d="M1470.12,-271.73C1459.15,-260.28 1444.11,-244.59 1432.63,-232.62"/>
<polygon fill="#63b8ff" stroke="#63b8ff" points="1435.17,-230.2 1425.72,-225.4 1430.11,-235.05 1435.17,-230.2"/>
</a>
</g>
</g>
<!-- Node23 -->
<g id="Node000023" class="node">
<title>Node23</title>
<g id="a_Node000023"><a xlink:title=" ">
<polygon fill="#e0e0e0" stroke="#999999" points="1621.25,-224 1488.25,-224 1488.25,-204 1621.25,-204 1621.25,-224"/>
<text text-anchor="middle" x="1554.75" y="-210.5" font-family="Arial" font-size="10.00">Kismet/GameplayStatics.h</text>
</a>
</g>
</g>
<!-- Node1&#45;&gt;Node23 -->
<g id="edge28_Node000001_Node000023" class="edge">
<title>Node1&#45;&gt;Node23</title>
<g id="a_edge28_Node000001_Node000023"><a xlink:title=" ">
<path fill="none" stroke="#63b8ff" d="M1499.6,-271.73C1510.83,-260.17 1526.28,-244.29 1537.96,-232.26"/>
<polygon fill="#63b8ff" stroke="#63b8ff" points="1540.18,-235.01 1544.64,-225.4 1535.16,-230.13 1540.18,-235.01"/>
</a>
</g>
</g>
<!-- Node24 -->
<g id="Node000024" class="node">
<title>Node24</title>
<g id="a_Node000024"><a xlink:title=" ">
<polygon fill="#e0e0e0" stroke="#999999" points="1748.62,-224 1638.88,-224 1638.88,-204 1748.62,-204 1748.62,-224"/>
<text text-anchor="middle" x="1693.75" y="-210.5" font-family="Arial" font-size="10.00">DrawDebugHelpers.h</text>
</a>
</g>
</g>
<!-- Node1&#45;&gt;Node24 -->
<g id="edge29_Node000001_Node000024" class="edge">
<title>Node1&#45;&gt;Node24</title>
<g id="a_edge29_Node000001_Node000024"><a xlink:title=" ">
<path fill="none" stroke="#63b8ff" d="M1529.59,-271.55C1567.03,-258.65 1619.85,-240.46 1655.37,-228.22"/>
<polygon fill="#63b8ff" stroke="#63b8ff" points="1656.51,-231.53 1664.83,-224.96 1654.23,-224.91 1656.51,-231.53"/>
</a>
</g>
</g>
<!-- Node25 -->
<g id="Node000025" class="node">
<title>Node25</title>
<g id="a_Node000025"><a xlink:title=" ">
<polygon fill="#e0e0e0" stroke="#999999" points="1874.88,-224 1766.62,-224 1766.62,-204 1874.88,-204 1874.88,-224"/>
<text text-anchor="middle" x="1820.75" y="-210.5" font-family="Arial" font-size="10.00">NiagaraComponent.h</text>
</a>
</g>
</g>
<!-- Node1&#45;&gt;Node25 -->
<g id="edge30_Node000001_Node000025" class="edge">
<title>Node1&#45;&gt;Node25</title>
<g id="a_edge30_Node000001_Node000025"><a xlink:title=" ">
<path fill="none" stroke="#63b8ff" d="M1585.64,-271.55C1637.46,-262.76 1701.39,-250.59 1757.75,-236 1766.36,-233.77 1775.51,-230.98 1784.09,-228.16"/>
<polygon fill="#63b8ff" stroke="#63b8ff" points="1785.15,-231.5 1793.5,-224.98 1782.91,-224.87 1785.15,-231.5"/>
</a>
</g>
</g>
<!-- Node26 -->
<g id="Node000026" class="node">
<title>Node26</title>
<g id="a_Node000026"><a xlink:title=" ">
<polygon fill="#e0e0e0" stroke="#999999" points="2016.75,-224 1892.75,-224 1892.75,-204 2016.75,-204 2016.75,-224"/>
<text text-anchor="middle" x="1954.75" y="-210.5" font-family="Arial" font-size="10.00">NiagaraFunctionLibrary.h</text>
</a>
</g>
</g>
<!-- Node1&#45;&gt;Node26 -->
<g id="edge31_Node000001_Node000026" class="edge">
<title>Node1&#45;&gt;Node26</title>
<g id="a_edge31_Node000001_Node000026"><a xlink:title=" ">
<path fill="none" stroke="#63b8ff" d="M1587.18,-278.47C1668.23,-270.63 1783.98,-256.99 1883.75,-236 1894.28,-233.78 1905.52,-230.77 1915.87,-227.72"/>
<polygon fill="#63b8ff" stroke="#63b8ff" points="1916.69,-231.13 1925.24,-224.87 1914.65,-224.43 1916.69,-231.13"/>
</a>
</g>
</g>
<!-- Node27 -->
<g id="Node000027" class="node">
<title>Node27</title>
<g id="a_Node000027"><a xlink:title=" ">
<polygon fill="#e0e0e0" stroke="#999999" points="2151,-224 2034.5,-224 2034.5,-204 2151,-204 2151,-224"/>
<text text-anchor="middle" x="2092.75" y="-210.5" font-family="Arial" font-size="10.00">Math/UnitConversion.h</text>
</a>
</g>
</g>
<!-- Node1&#45;&gt;Node27 -->
<g id="edge32_Node000001_Node000027" class="edge">
<title>Node1&#45;&gt;Node27</title>
<g id="a_edge32_Node000001_Node000027"><a xlink:title=" ">
<path fill="none" stroke="#63b8ff" d="M1587.13,-283.74C1696.62,-278.77 1874.89,-266.4 2025.75,-236 2035.82,-233.97 2046.52,-231 2056.35,-227.93"/>
<polygon fill="#63b8ff" stroke="#63b8ff" points="2057.13,-231.36 2065.55,-224.93 2054.96,-224.7 2057.13,-231.36"/>
</a>
</g>
</g>
<!-- Node28 -->
<g id="Node000028" class="node">
<title>Node28</title>
<g id="a_Node000028"><a xlink:href="_my_player_controller_8h.html" target="_top" xlink:title=" ">
<polygon fill="white" stroke="#666666" points="2302.25,-236 2169.25,-236 2169.25,-192 2302.25,-192 2302.25,-236"/>
<text text-anchor="start" x="2177.25" y="-222.5" font-family="Arial" font-size="10.00">MultiplayerShooter</text>
<text text-anchor="start" x="2177.25" y="-210.5" font-family="Arial" font-size="10.00">/PlayerController/MyPlayer</text>
<text text-anchor="middle" x="2235.75" y="-198.5" font-family="Arial" font-size="10.00">Controller.h</text>
</a>
</g>
</g>
<!-- Node1&#45;&gt;Node28 -->
<g id="edge33_Node000001_Node000028" class="edge">
<title>Node1&#45;&gt;Node28</title>
<g id="a_edge33_Node000001_Node000028"><a xlink:title=" ">
<path fill="none" stroke="#63b8ff" d="M1587.29,-285.43C1717.9,-282.04 1950.52,-271.38 2157.68,-236.18"/>
<polygon fill="#63b8ff" stroke="#63b8ff" points="2158.02,-239.67 2167.28,-234.52 2156.83,-232.77 2158.02,-239.67"/>
</a>
</g>
</g>
<!-- Node32 -->
<g id="Node000032" class="node">
<title>Node32</title>
<g id="a_Node000032"><a xlink:title=" ">
<polygon fill="#e0e0e0" stroke="#999999" points="2407,-224 2320.5,-224 2320.5,-204 2407,-204 2407,-224"/>
<text text-anchor="middle" x="2363.75" y="-210.5" font-family="Arial" font-size="10.00">TimerManager.h</text>
</a>
</g>
</g>
<!-- Node1&#45;&gt;Node32 -->
<g id="edge39_Node000001_Node000032" class="edge">
<title>Node1&#45;&gt;Node32</title>
<g id="a_edge39_Node000001_Node000032"><a xlink:title=" ">
<path fill="none" stroke="#63b8ff" d="M1587.23,-284.79C1777.15,-280.01 2176.71,-266.58 2311.75,-236 2319.32,-234.29 2327.21,-231.6 2334.5,-228.72"/>
<polygon fill="#63b8ff" stroke="#63b8ff" points="2335.72,-232.01 2343.57,-224.89 2333,-225.56 2335.72,-232.01"/>
</a>
</g>
</g>
<!-- Node33 -->
<g id="Node000033" class="node">
<title>Node33</title>
<g id="a_Node000033"><a xlink:title=" ">
<polygon fill="#e0e0e0" stroke="#999999" points="2526.12,-224 2425.38,-224 2425.38,-204 2526.12,-204 2526.12,-224"/>
<text text-anchor="middle" x="2475.75" y="-210.5" font-family="Arial" font-size="10.00">Sound/SoundCue.h</text>
</a>
</g>
</g>
<!-- Node1&#45;&gt;Node33 -->
<g id="edge40_Node000001_Node000033" class="edge">
<title>Node1&#45;&gt;Node33</title>
<g id="a_edge40_Node000001_Node000033"><a xlink:title=" ">
<path fill="none" stroke="#63b8ff" d="M1587.36,-285.02C1795.3,-280.41 2259.84,-266.91 2415.75,-236 2424.81,-234.2 2434.35,-231.34 2443.1,-228.3"/>
<polygon fill="#63b8ff" stroke="#63b8ff" points="2444.06,-231.67 2452.24,-224.93 2441.65,-225.1 2444.06,-231.67"/>
</a>
</g>
</g>
<!-- Node3 -->
<g id="Node000003" class="node">
<title>Node3</title>
<g id="a_Node000003"><a xlink:title=" ">
<polygon fill="#e0e0e0" stroke="#999999" points="822.25,-20 743.25,-20 743.25,0 822.25,0 822.25,-20"/>
<text text-anchor="middle" x="782.75" y="-6.5" font-family="Arial" font-size="10.00">CoreMinimal.h</text>
</a>
</g>
</g>
<!-- Node2&#45;&gt;Node3 -->
<g id="edge2_Node000002_Node000003" class="edge">
<title>Node2&#45;&gt;Node3</title>
<g id="a_edge2_Node000002_Node000003"><a xlink:title=" ">
<path fill="none" stroke="#63b8ff" d="M407.59,-129.55C450.25,-113.47 540.31,-80.2 617.75,-56 656.58,-43.87 701.11,-31.83 734.11,-23.26"/>
<polygon fill="#63b8ff" stroke="#63b8ff" points="734.57,-26.76 743.38,-20.87 732.82,-19.98 734.57,-26.76"/>
</a>
</g>
</g>
<!-- Node4 -->
<g id="Node000004" class="node">
<title>Node4</title>
<g id="a_Node000004"><a xlink:title=" ">
<polygon fill="#e0e0e0" stroke="#999999" points="782.88,-82 626.62,-82 626.62,-62 782.88,-62 782.88,-82"/>
<text text-anchor="middle" x="704.75" y="-68.5" font-family="Arial" font-size="10.00">Components/ActorComponent.h</text>
</a>
</g>
</g>
<!-- Node2&#45;&gt;Node4 -->
<g id="edge3_Node000002_Node000004" class="edge">
<title>Node2&#45;&gt;Node4</title>
<g id="a_edge3_Node000002_Node000004"><a xlink:title=" ">
<path fill="none" stroke="#63b8ff" d="M421.34,-129.56C429.4,-127.66 437.84,-125.72 445.75,-124 512.71,-109.44 589.81,-94.49 642.36,-84.57"/>
<polygon fill="#63b8ff" stroke="#63b8ff" points="642.85,-88.04 652.03,-82.75 641.56,-81.16 642.85,-88.04"/>
</a>
</g>
</g>
<!-- Node5 -->
<g id="Node000005" class="node">
<title>Node5</title>
<g id="a_Node000005"><a xlink:href="_main_h_u_d_8h.html" target="_top" xlink:title=" ">
<polygon fill="white" stroke="#666666" points="271.25,-88 174.25,-88 174.25,-56 271.25,-56 271.25,-88"/>
<text text-anchor="start" x="182.25" y="-74.5" font-family="Arial" font-size="10.00">MultiplayerShooter</text>
<text text-anchor="middle" x="222.75" y="-62.5" font-family="Arial" font-size="10.00">/HUD/MainHUD.h</text>
</a>
</g>
</g>
<!-- Node2&#45;&gt;Node5 -->
<g id="edge4_Node000002_Node000005" class="edge">
<title>Node2&#45;&gt;Node5</title>
<g id="a_edge4_Node000002_Node000005"><a xlink:title=" ">
<path fill="none" stroke="#63b8ff" d="M359.83,-129.54C336.66,-119.99 300.18,-104.94 270.67,-92.77"/>
<polygon fill="#63b8ff" stroke="#63b8ff" points="272.13,-89.58 261.55,-89.01 269.46,-96.05 272.13,-89.58"/>
</a>
</g>
</g>
<!-- Node8 -->
<g id="Node000008" class="node">
<title>Node8</title>
<g id="a_Node000008"><a xlink:title=" ">
<polygon fill="#e0e0e0" stroke="#999999" points="482.12,-82 327.38,-82 327.38,-62 482.12,-62 482.12,-82"/>
<text text-anchor="middle" x="404.75" y="-68.5" font-family="Arial" font-size="10.00">CombatComponent.generated.h</text>
</a>
</g>
</g>
<!-- Node2&#45;&gt;Node8 -->
<g id="edge8_Node000002_Node000008" class="edge">
<title>Node2&#45;&gt;Node8</title>
<g id="a_edge8_Node000002_Node000008"><a xlink:title=" ">
<path fill="none" stroke="#63b8ff" d="M385.9,-129.54C389.04,-120.13 393.95,-105.39 397.98,-93.32"/>
<polygon fill="#63b8ff" stroke="#63b8ff" points="401.28,-94.47 401.13,-83.87 394.64,-92.25 401.28,-94.47"/>
</a>
</g>
</g>
<!-- Node5&#45;&gt;Node3 -->
<g id="edge5_Node000005_Node000003" class="edge">
<title>Node5&#45;&gt;Node3</title>
<g id="a_edge5_Node000005_Node000003"><a xlink:title=" ">
<path fill="none" stroke="#63b8ff" d="M271.45,-58.68C276.26,-57.68 281.09,-56.76 285.75,-56 447.32,-29.59 641.16,-17.65 731.6,-13.21"/>
<polygon fill="#63b8ff" stroke="#63b8ff" points="731.55,-16.71 741.37,-12.74 731.22,-9.72 731.55,-16.71"/>
</a>
</g>
</g>
<!-- Node6 -->
<g id="Node000006" class="node">
<title>Node6</title>
<g id="a_Node000006"><a xlink:title=" ">
<polygon fill="#e0e0e0" stroke="#999999" points="354.12,-20 229.38,-20 229.38,0 354.12,0 354.12,-20"/>
<text text-anchor="middle" x="291.75" y="-6.5" font-family="Arial" font-size="10.00">GameFramework/HUD.h</text>
</a>
</g>
</g>
<!-- Node5&#45;&gt;Node6 -->
<g id="edge6_Node000005_Node000006" class="edge">
<title>Node5&#45;&gt;Node6</title>
<g id="a_edge6_Node000005_Node000006"><a xlink:title=" ">
<path fill="none" stroke="#63b8ff" d="M240.52,-55.55C250.3,-47.04 262.45,-36.48 272.47,-27.77"/>
<polygon fill="#63b8ff" stroke="#63b8ff" points="274.54,-30.6 279.79,-21.4 269.95,-25.32 274.54,-30.6"/>
</a>
</g>
</g>
<!-- Node7 -->
<g id="Node000007" class="node">
<title>Node7</title>
<g id="a_Node000007"><a xlink:title=" ">
<polygon fill="#e0e0e0" stroke="#999999" points="211.5,-20 98,-20 98,0 211.5,0 211.5,-20"/>
<text text-anchor="middle" x="154.75" y="-6.5" font-family="Arial" font-size="10.00">MainHUD.generated.h</text>
</a>
</g>
</g>
<!-- Node5&#45;&gt;Node7 -->
<g id="edge7_Node000005_Node000007" class="edge">
<title>Node5&#45;&gt;Node7</title>
<g id="a_edge7_Node000005_Node000007"><a xlink:title=" ">
<path fill="none" stroke="#63b8ff" d="M205.24,-55.55C195.6,-47.04 183.62,-36.48 173.75,-27.77"/>
<polygon fill="#63b8ff" stroke="#63b8ff" points="176.36,-25.4 166.55,-21.41 171.73,-30.65 176.36,-25.4"/>
</a>
</g>
</g>
<!-- Node9&#45;&gt;Node3 -->
<g id="edge10_Node000009_Node000003" class="edge">
<title>Node9&#45;&gt;Node3</title>
<g id="a_edge10_Node000009_Node000003"><a xlink:title=" ">
<path fill="none" stroke="#63b8ff" d="M274.14,-197.69C280.04,-161.88 296.5,-74.3 318.75,-56 350.14,-30.18 617.89,-17.18 731.8,-12.77"/>
<polygon fill="#63b8ff" stroke="#63b8ff" points="731.6,-16.28 741.46,-12.4 731.34,-9.29 731.6,-16.28"/>
</a>
</g>
</g>
<!-- Node10 -->
<g id="Node000010" class="node">
<title>Node10</title>
<g id="a_Node000010"><a xlink:title=" ">
<polygon fill="#e0e0e0" stroke="#999999" points="125.5,-150 0,-150 0,-130 125.5,-130 125.5,-150"/>
<text text-anchor="middle" x="62.75" y="-136.5" font-family="Arial" font-size="10.00">GameFramework/Actor.h</text>
</a>
</g>
</g>
<!-- Node9&#45;&gt;Node10 -->
<g id="edge11_Node000009_Node000010" class="edge">
<title>Node9&#45;&gt;Node10</title>
<g id="a_edge11_Node000009_Node000010"><a xlink:title=" ">
<path fill="none" stroke="#63b8ff" d="M226.91,-197.55C189.47,-184.65 136.65,-166.46 101.13,-154.22"/>
<polygon fill="#63b8ff" stroke="#63b8ff" points="102.27,-150.91 91.67,-150.96 99.99,-157.53 102.27,-150.91"/>
</a>
</g>
</g>
<!-- Node11 -->
<g id="Node000011" class="node">
<title>Node11</title>
<g id="a_Node000011"><a xlink:title=" ">
<polygon fill="#e0e0e0" stroke="#999999" points="271.62,-150 143.88,-150 143.88,-130 271.62,-130 271.62,-150"/>
<text text-anchor="middle" x="207.75" y="-136.5" font-family="Arial" font-size="10.00">BaseWeapon.generated.h</text>
</a>
</g>
</g>
<!-- Node9&#45;&gt;Node11 -->
<g id="edge12_Node000009_Node000011" class="edge">
<title>Node9&#45;&gt;Node11</title>
<g id="a_edge12_Node000009_Node000011"><a xlink:title=" ">
<path fill="none" stroke="#63b8ff" d="M258.18,-197.73C248,-186.28 234.06,-170.59 223.41,-158.62"/>
<polygon fill="#63b8ff" stroke="#63b8ff" points="226.29,-156.59 217.03,-151.44 221.06,-161.24 226.29,-156.59"/>
</a>
</g>
</g>
<!-- Node12&#45;&gt;Node2 -->
<g id="edge22_Node000012_Node000002" class="edge">
<title>Node12&#45;&gt;Node2</title>
<g id="a_edge22_Node000012_Node000002"><a xlink:title=" ">
<path fill="none" stroke="#63b8ff" d="M615.25,-197.55C560.61,-184.26 482.85,-165.35 432.6,-153.12"/>
<polygon fill="#63b8ff" stroke="#63b8ff" points="433.7,-149.79 423.16,-150.83 432.05,-156.59 433.7,-149.79"/>
</a>
</g>
</g>
<!-- Node12&#45;&gt;Node3 -->
<g id="edge14_Node000012_Node000003" class="edge">
<title>Node12&#45;&gt;Node3</title>
<g id="a_edge14_Node000012_Node000003"><a xlink:title=" ">
<path fill="none" stroke="#63b8ff" d="M757.57,-197.53C768.69,-195.55 779.99,-193.65 790.75,-192 857.78,-181.75 1048.72,-206.7 1093.75,-156 1172.48,-67.37 940.88,-28.91 833.85,-16.18"/>
<polygon fill="#63b8ff" stroke="#63b8ff" points="834.5,-12.73 824.17,-15.07 833.7,-19.69 834.5,-12.73"/>
</a>
</g>
</g>
<!-- Node13 -->
<g id="Node000013" class="node">
<title>Node13</title>
<g id="a_Node000013"><a xlink:title=" ">
<polygon fill="#e0e0e0" stroke="#999999" points="751.25,-150 606.25,-150 606.25,-130 751.25,-130 751.25,-150"/>
<text text-anchor="middle" x="678.75" y="-136.5" font-family="Arial" font-size="10.00">GameFramework/Character.h</text>
</a>
</g>
</g>
<!-- Node12&#45;&gt;Node13 -->
<g id="edge15_Node000012_Node000013" class="edge">
<title>Node12&#45;&gt;Node13</title>
<g id="a_edge15_Node000012_Node000013"><a xlink:title=" ">
<path fill="none" stroke="#63b8ff" d="M678.75,-197.73C678.75,-187.18 678.75,-173.03 678.75,-161.5"/>
<polygon fill="#63b8ff" stroke="#63b8ff" points="682.25,-161.82 678.75,-151.82 675.25,-161.82 682.25,-161.82"/>
</a>
</g>
</g>
<!-- Node14 -->
<g id="Node000014" class="node">
<title>Node14</title>
<g id="a_Node000014"><a xlink:href="_turning_in_place_8h.html" target="_top" xlink:title=" ">
<polygon fill="white" stroke="#666666" points="890.62,-156 768.88,-156 768.88,-124 890.62,-124 890.62,-156"/>
<text text-anchor="start" x="776.88" y="-142.5" font-family="Arial" font-size="10.00">MultiplayerShooter</text>
<text text-anchor="middle" x="829.75" y="-130.5" font-family="Arial" font-size="10.00">/Types/TurningInPlace.h</text>
</a>
</g>
</g>
<!-- Node12&#45;&gt;Node14 -->
<g id="edge16_Node000012_Node000014" class="edge">
<title>Node12&#45;&gt;Node14</title>
<g id="a_edge16_Node000012_Node000014"><a xlink:title=" ">
<path fill="none" stroke="#63b8ff" d="M711.14,-197.55C733.34,-186.97 763,-172.83 787.11,-161.33"/>
<polygon fill="#63b8ff" stroke="#63b8ff" points="788.52,-164.53 796.04,-157.07 785.51,-158.22 788.52,-164.53"/>
</a>
</g>
</g>
<!-- Node12&#45;&gt;Node15 -->
<g id="edge17_Node000012_Node000015" class="edge">
<title>Node12&#45;&gt;Node15</title>
<g id="a_edge17_Node000012_Node000015"><a xlink:title=" ">
<path fill="none" stroke="#63b8ff" d="M742.59,-197.52C752.32,-195.47 762.27,-193.54 771.75,-192 928.27,-166.49 969.63,-177.49 1126.75,-156 1134.68,-154.92 1143,-153.65 1151.22,-152.32"/>
<polygon fill="#63b8ff" stroke="#63b8ff" points="1151.53,-155.82 1160.82,-150.73 1150.39,-148.91 1151.53,-155.82"/>
</a>
</g>
</g>
<!-- Node16 -->
<g id="Node000016" class="node">
<title>Node16</title>
<g id="a_Node000016"><a xlink:href="_buff_component_8h.html" target="_top" xlink:title=" ">
<polygon fill="white" stroke="#666666" points="1085,-156 908.5,-156 908.5,-124 1085,-124 1085,-156"/>
<text text-anchor="start" x="916.5" y="-142.5" font-family="Arial" font-size="10.00">MultiplayerShooter</text>
<text text-anchor="middle" x="996.75" y="-130.5" font-family="Arial" font-size="10.00">/ActorComponents/BuffComponent.h</text>
</a>
</g>
</g>
<!-- Node12&#45;&gt;Node16 -->
<g id="edge18_Node000012_Node000016" class="edge">
<title>Node12&#45;&gt;Node16</title>
<g id="a_edge18_Node000012_Node000016"><a xlink:title=" ">
<path fill="none" stroke="#63b8ff" d="M746.97,-197.55C796.98,-186.23 865,-170.83 917.43,-158.96"/>
<polygon fill="#63b8ff" stroke="#63b8ff" points="917.91,-162.44 926.89,-156.82 916.37,-155.61 917.91,-162.44"/>
</a>
</g>
</g>
<!-- Node18 -->
<g id="Node000018" class="node">
<title>Node18</title>
<g id="a_Node000018"><a xlink:title=" ">
<polygon fill="#e0e0e0" stroke="#999999" points="588.62,-150 454.88,-150 454.88,-130 588.62,-130 588.62,-150"/>
<text text-anchor="middle" x="521.75" y="-136.5" font-family="Arial" font-size="10.00">MainCharacter.generated.h</text>
</a>
</g>
</g>
<!-- Node12&#45;&gt;Node18 -->
<g id="edge23_Node000012_Node000018" class="edge">
<title>Node12&#45;&gt;Node18</title>
<g id="a_edge23_Node000012_Node000018"><a xlink:title=" ">
<path fill="none" stroke="#63b8ff" d="M645.07,-197.55C617.67,-184.99 579.31,-167.4 552.68,-155.19"/>
<polygon fill="#63b8ff" stroke="#63b8ff" points="554.33,-152.09 543.78,-151.1 551.41,-158.45 554.33,-152.09"/>
</a>
</g>
</g>
<!-- Node16&#45;&gt;Node3 -->
<g id="edge19_Node000016_Node000003" class="edge">
<title>Node16&#45;&gt;Node3</title>
<g id="a_edge19_Node000016_Node000003"><a xlink:title=" ">
<path fill="none" stroke="#63b8ff" d="M997.76,-123.54C998.09,-104.91 995.61,-73.89 977.75,-56 957.78,-36 884.43,-23.24 833.62,-16.6"/>
<polygon fill="#63b8ff" stroke="#63b8ff" points="834.37,-13.17 824.01,-15.39 833.5,-20.12 834.37,-13.17"/>
</a>
</g>
</g>
<!-- Node16&#45;&gt;Node4 -->
<g id="edge20_Node000016_Node000004" class="edge">
<title>Node16&#45;&gt;Node4</title>
<g id="a_edge20_Node000016_Node000004"><a xlink:title=" ">
<path fill="none" stroke="#63b8ff" d="M928.29,-123.53C876.17,-111.74 805.47,-95.77 757.64,-84.96"/>
<polygon fill="#63b8ff" stroke="#63b8ff" points="758.61,-81.58 748.08,-82.79 757.06,-88.41 758.61,-81.58"/>
</a>
</g>
</g>
<!-- Node17 -->
<g id="Node000017" class="node">
<title>Node17</title>
<g id="a_Node000017"><a xlink:title=" ">
<polygon fill="#e0e0e0" stroke="#999999" points="968.5,-82 831,-82 831,-62 968.5,-62 968.5,-82"/>
<text text-anchor="middle" x="899.75" y="-68.5" font-family="Arial" font-size="10.00">BuffComponent.generated.h</text>
</a>
</g>
</g>
<!-- Node16&#45;&gt;Node17 -->
<g id="edge21_Node000016_Node000017" class="edge">
<title>Node16&#45;&gt;Node17</title>
<g id="a_edge21_Node000016_Node000017"><a xlink:title=" ">
<path fill="none" stroke="#63b8ff" d="M974.25,-123.69C958.83,-113.2 938.42,-99.31 922.86,-88.73"/>
<polygon fill="#63b8ff" stroke="#63b8ff" points="924.93,-85.9 914.69,-83.17 920.99,-91.69 924.93,-85.9"/>
</a>
</g>
</g>
<!-- Node28&#45;&gt;Node3 -->
<g id="edge34_Node000028_Node000003" class="edge">
<title>Node28&#45;&gt;Node3</title>
<g id="a_edge34_Node000028_Node000003"><a xlink:title=" ">
<path fill="none" stroke="#63b8ff" d="M2169.15,-194.03C2165.98,-193.31 2162.84,-192.63 2159.75,-192 1647.58,-88.1 1015.62,-30.39 833.83,-15.13"/>
<polygon fill="#63b8ff" stroke="#63b8ff" points="834.28,-11.66 824.03,-14.32 833.7,-18.64 834.28,-11.66"/>
</a>
</g>
</g>
<!-- Node29 -->
<g id="Node000029" class="node">
<title>Node29</title>
<g id="a_Node000029"><a xlink:title=" ">
<polygon fill="#e0e0e0" stroke="#999999" points="2163.75,-150 1991.75,-150 1991.75,-130 2163.75,-130 2163.75,-150"/>
<text text-anchor="middle" x="2077.75" y="-136.5" font-family="Arial" font-size="10.00">GameFramework/PlayerController.h</text>
</a>
</g>
</g>
<!-- Node28&#45;&gt;Node29 -->
<g id="edge35_Node000028_Node000029" class="edge">
<title>Node28&#45;&gt;Node29</title>
<g id="a_edge35_Node000028_Node000029"><a xlink:title=" ">
<path fill="none" stroke="#63b8ff" d="M2188.77,-191.59C2162.98,-179.84 2131.69,-165.58 2108.92,-155.2"/>
<polygon fill="#63b8ff" stroke="#63b8ff" points="2110.41,-152.04 2099.86,-151.08 2107.51,-158.41 2110.41,-152.04"/>
</a>
</g>
</g>
<!-- Node30 -->
<g id="Node000030" class="node">
<title>Node30</title>
<g id="a_Node000030"><a xlink:title=" ">
<polygon fill="#e0e0e0" stroke="#999999" points="2289.88,-150 2181.62,-150 2181.62,-130 2289.88,-130 2289.88,-150"/>
<text text-anchor="middle" x="2235.75" y="-136.5" font-family="Arial" font-size="10.00">Sound/SoundClass.h</text>
</a>
</g>
</g>
<!-- Node28&#45;&gt;Node30 -->
<g id="edge36_Node000028_Node000030" class="edge">
<title>Node28&#45;&gt;Node30</title>
<g id="a_edge36_Node000028_Node000030"><a xlink:title=" ">
<path fill="none" stroke="#63b8ff" d="M2235.75,-191.79C2235.75,-182.32 2235.75,-171.2 2235.75,-161.78"/>
<polygon fill="#63b8ff" stroke="#63b8ff" points="2239.25,-161.82 2235.75,-151.82 2232.25,-161.82 2239.25,-161.82"/>
</a>
</g>
</g>
<!-- Node31 -->
<g id="Node000031" class="node">
<title>Node31</title>
<g id="a_Node000031"><a xlink:title=" ">
<polygon fill="#e0e0e0" stroke="#999999" points="2461.38,-150 2308.12,-150 2308.12,-130 2461.38,-130 2461.38,-150"/>
<text text-anchor="middle" x="2384.75" y="-136.5" font-family="Arial" font-size="10.00">MyPlayerController.generated.h</text>
</a>
</g>
</g>
<!-- Node28&#45;&gt;Node31 -->
<g id="edge37_Node000028_Node000031" class="edge">
<title>Node28&#45;&gt;Node31</title>
<g id="a_edge37_Node000028_Node000031"><a xlink:title=" ">
<path fill="none" stroke="#63b8ff" d="M2280.05,-191.59C2304.27,-179.89 2333.61,-165.71 2355.06,-155.35"/>
<polygon fill="#63b8ff" stroke="#63b8ff" points="2356.35,-158.61 2363.84,-151.11 2353.31,-152.31 2356.35,-158.61"/>
</a>
</g>
</g>
</g>
</svg>
