<?xml version="1.0" encoding="UTF-8" standalone="no"?>
<!DOCTYPE svg PUBLIC "-//W3C//DTD SVG 1.1//EN"
 "http://www.w3.org/Graphics/SVG/1.1/DTD/svg11.dtd">
<!-- Generated by graphviz version 12.2.1 (20241206.2353)
 -->
<!-- Title: MultiplayerShooter/ActorComponents/CombatComponent.h Pages: 1 -->
<svg width="2804pt" height="188pt"
 viewBox="0.00 0.00 2803.62 188.00" xmlns="http://www.w3.org/2000/svg" xmlns:xlink="http://www.w3.org/1999/xlink">
<g id="graph0" class="graph" transform="scale(1 1) rotate(0) translate(4 184)">
<title>MultiplayerShooter/ActorComponents/CombatComponent.h</title>
<!-- Node1 -->
<g id="Node000001" class="node">
<title>Node1</title>
<g id="a_Node000001"><a xlink:title=" ">
<polygon fill="#999999" stroke="#666666" points="1186,-180 992.25,-180 992.25,-148 1186,-148 1186,-180"/>
<text text-anchor="start" x="1000.25" y="-166.5" font-family="Arial" font-size="10.00">MultiplayerShooter</text>
<text text-anchor="middle" x="1089.12" y="-154.5" font-family="Arial" font-size="10.00">/ActorComponents/CombatComponent.h</text>
</a>
</g>
</g>
<!-- Node2 -->
<g id="Node000002" class="node">
<title>Node2</title>
<g id="a_Node000002"><a xlink:href="_combat_component_8cpp.html" target="_top" xlink:title=" ">
<polygon fill="white" stroke="#666666" points="204.25,-38 0,-38 0,-6 204.25,-6 204.25,-38"/>
<text text-anchor="start" x="8" y="-24.5" font-family="Arial" font-size="10.00">MultiplayerShooter</text>
<text text-anchor="middle" x="102.12" y="-12.5" font-family="Arial" font-size="10.00">/ActorComponents/CombatComponent.cpp</text>
</a>
</g>
</g>
<!-- Node1&#45;&gt;Node2 -->
<g id="edge1_Node000001_Node000002" class="edge">
<title>Node1&#45;&gt;Node2</title>
<g id="a_edge1_Node000001_Node000002"><a xlink:title=" ">
<path fill="none" stroke="#63b8ff" d="M980.36,-153.68C881.89,-144.73 732.98,-129.96 604.12,-112 429.43,-87.65 386.67,-75.51 213.12,-44 203.38,-42.23 193.16,-40.34 183.03,-38.45"/>
<polygon fill="#63b8ff" stroke="#63b8ff" points="980.03,-157.16 990.3,-154.57 980.66,-150.19 980.03,-157.16"/>
</a>
</g>
</g>
<!-- Node3 -->
<g id="Node000003" class="node">
<title>Node3</title>
<g id="a_Node000003"><a xlink:href="_main_character_8cpp.html" target="_top" xlink:title=" ">
<polygon fill="white" stroke="#666666" points="390.25,-38 222,-38 222,-6 390.25,-6 390.25,-38"/>
<text text-anchor="start" x="230" y="-24.5" font-family="Arial" font-size="10.00">MultiplayerShooter</text>
<text text-anchor="middle" x="306.12" y="-12.5" font-family="Arial" font-size="10.00">/MainCharacter/MainCharacter.cpp</text>
</a>
</g>
</g>
<!-- Node1&#45;&gt;Node3 -->
<g id="edge2_Node000001_Node000003" class="edge">
<title>Node1&#45;&gt;Node3</title>
<g id="a_edge2_Node000001_Node000003"><a xlink:title=" ">
<path fill="none" stroke="#63b8ff" d="M980.64,-145.94C844.65,-124.17 604.55,-84.46 400.12,-44 391.51,-42.3 382.48,-40.41 373.56,-38.48"/>
<polygon fill="#63b8ff" stroke="#63b8ff" points="979.94,-149.37 990.37,-147.5 981.04,-142.46 979.94,-149.37"/>
</a>
</g>
</g>
<!-- Node4 -->
<g id="Node000004" class="node">
<title>Node4</title>
<g id="a_Node000004"><a xlink:href="_main_character_8h.html" target="_top" xlink:title=" ">
<polygon fill="white" stroke="#666666" points="1429,-112 1271.25,-112 1271.25,-80 1429,-80 1429,-112"/>
<text text-anchor="start" x="1279.25" y="-98.5" font-family="Arial" font-size="10.00">MultiplayerShooter</text>
<text text-anchor="middle" x="1350.12" y="-86.5" font-family="Arial" font-size="10.00">/MainCharacter/MainCharacter.h</text>
</a>
</g>
</g>
<!-- Node1&#45;&gt;Node4 -->
<g id="edge3_Node000001_Node000004" class="edge">
<title>Node1&#45;&gt;Node4</title>
<g id="a_edge3_Node000001_Node000004"><a xlink:title=" ">
<path fill="none" stroke="#63b8ff" d="M1161.36,-144.73C1201.42,-134.6 1250.7,-122.14 1288.86,-112.49"/>
<polygon fill="#63b8ff" stroke="#63b8ff" points="1160.62,-141.31 1151.79,-147.15 1162.34,-148.1 1160.62,-141.31"/>
</a>
</g>
</g>
<!-- Node17 -->
<g id="Node000017" class="node">
<title>Node17</title>
<g id="a_Node000017"><a xlink:href="_my_player_controller_8cpp.html" target="_top" xlink:title=" ">
<polygon fill="white" stroke="#666666" points="2795.62,-44 2662.62,-44 2662.62,0 2795.62,0 2795.62,-44"/>
<text text-anchor="start" x="2670.62" y="-30.5" font-family="Arial" font-size="10.00">MultiplayerShooter</text>
<text text-anchor="start" x="2670.62" y="-18.5" font-family="Arial" font-size="10.00">/PlayerController/MyPlayer</text>
<text text-anchor="middle" x="2729.12" y="-6.5" font-family="Arial" font-size="10.00">Controller.cpp</text>
</a>
</g>
</g>
<!-- Node1&#45;&gt;Node17 -->
<g id="edge20_Node000001_Node000017" class="edge">
<title>Node1&#45;&gt;Node17</title>
<g id="a_edge20_Node000001_Node000017"><a xlink:title=" ">
<path fill="none" stroke="#63b8ff" d="M1198,-161.94C1453.83,-157.89 2112.51,-138.34 2653.12,-44 2656.09,-43.48 2659.11,-42.9 2662.15,-42.26"/>
<polygon fill="#63b8ff" stroke="#63b8ff" points="1197.95,-158.44 1188,-162.1 1198.05,-165.44 1197.95,-158.44"/>
</a>
</g>
</g>
<!-- Node4&#45;&gt;Node2 -->
<g id="edge5_Node000004_Node000002" class="edge">
<title>Node4&#45;&gt;Node2</title>
<g id="a_edge5_Node000004_Node000002"><a xlink:title=" ">
<path fill="none" stroke="#63b8ff" d="M1259.41,-95.3C1066.27,-94.97 600.45,-89.09 213.12,-44 201.05,-42.59 188.31,-40.64 175.94,-38.48"/>
<polygon fill="#63b8ff" stroke="#63b8ff" points="1259.38,-98.8 1269.39,-95.31 1259.39,-91.8 1259.38,-98.8"/>
</a>
</g>
</g>
<!-- Node4&#45;&gt;Node3 -->
<g id="edge13_Node000004_Node000003" class="edge">
<title>Node4&#45;&gt;Node3</title>
<g id="a_edge13_Node000004_Node000003"><a xlink:title=" ">
<path fill="none" stroke="#63b8ff" d="M1259.53,-95.13C1090,-94.27 713.63,-87.13 400.12,-44 389.85,-42.59 379.04,-40.63 368.56,-38.47"/>
<polygon fill="#63b8ff" stroke="#63b8ff" points="1259.35,-98.63 1269.37,-95.17 1259.38,-91.63 1259.35,-98.63"/>
</a>
</g>
</g>
<!-- Node5 -->
<g id="Node000005" class="node">
<title>Node5</title>
<g id="a_Node000005"><a xlink:href="_buff_component_8cpp.html" target="_top" xlink:title=" ">
<polygon fill="white" stroke="#666666" points="1242.62,-38 1055.62,-38 1055.62,-6 1242.62,-6 1242.62,-38"/>
<text text-anchor="start" x="1063.62" y="-24.5" font-family="Arial" font-size="10.00">MultiplayerShooter</text>
<text text-anchor="middle" x="1149.12" y="-12.5" font-family="Arial" font-size="10.00">/ActorComponents/BuffComponent.cpp</text>
</a>
</g>
</g>
<!-- Node4&#45;&gt;Node5 -->
<g id="edge4_Node000004_Node000005" class="edge">
<title>Node4&#45;&gt;Node5</title>
<g id="a_edge4_Node000004_Node000005"><a xlink:title=" ">
<path fill="none" stroke="#63b8ff" d="M1296.29,-75.72C1263.68,-64.03 1222.63,-49.33 1192.17,-38.42"/>
<polygon fill="#63b8ff" stroke="#63b8ff" points="1294.99,-78.97 1305.58,-79.04 1297.35,-72.38 1294.99,-78.97"/>
</a>
</g>
</g>
<!-- Node6 -->
<g id="Node000006" class="node">
<title>Node6</title>
<g id="a_Node000006"><a xlink:href="_lag_compensation_component_8cpp.html" target="_top" xlink:title=" ">
<polygon fill="white" stroke="#666666" points="1439.88,-44 1260.38,-44 1260.38,0 1439.88,0 1439.88,-44"/>
<text text-anchor="start" x="1268.38" y="-30.5" font-family="Arial" font-size="10.00">MultiplayerShooter</text>
<text text-anchor="start" x="1268.38" y="-18.5" font-family="Arial" font-size="10.00">/ActorComponents/LagCompensation</text>
<text text-anchor="middle" x="1350.12" y="-6.5" font-family="Arial" font-size="10.00">Component.cpp</text>
</a>
</g>
</g>
<!-- Node4&#45;&gt;Node6 -->
<g id="edge6_Node000004_Node000006" class="edge">
<title>Node4&#45;&gt;Node6</title>
<g id="a_edge6_Node000004_Node000006"><a xlink:title=" ">
<path fill="none" stroke="#63b8ff" d="M1350.12,-68.38C1350.12,-60.43 1350.12,-51.82 1350.12,-44.26"/>
<polygon fill="#63b8ff" stroke="#63b8ff" points="1346.63,-68.22 1350.13,-78.22 1353.63,-68.22 1346.63,-68.22"/>
</a>
</g>
</g>
<!-- Node7 -->
<g id="Node000007" class="node">
<title>Node7</title>
<g id="a_Node000007"><a xlink:href="_base_weapon_8cpp.html" target="_top" xlink:title=" ">
<polygon fill="white" stroke="#666666" points="1614.25,-38 1458,-38 1458,-6 1614.25,-6 1614.25,-38"/>
<text text-anchor="start" x="1466" y="-24.5" font-family="Arial" font-size="10.00">MultiplayerShooter</text>
<text text-anchor="middle" x="1536.12" y="-12.5" font-family="Arial" font-size="10.00">/BaseWeapon/BaseWeapon.cpp</text>
</a>
</g>
</g>
<!-- Node4&#45;&gt;Node7 -->
<g id="edge7_Node000004_Node000007" class="edge">
<title>Node4&#45;&gt;Node7</title>
<g id="a_edge7_Node000004_Node000007"><a xlink:title=" ">
<path fill="none" stroke="#63b8ff" d="M1400.73,-75.41C1430.78,-63.78 1468.35,-49.23 1496.29,-38.42"/>
<polygon fill="#63b8ff" stroke="#63b8ff" points="1399.5,-72.13 1391.44,-79.01 1402.03,-78.66 1399.5,-72.13"/>
</a>
</g>
</g>
<!-- Node8 -->
<g id="Node000008" class="node">
<title>Node8</title>
<g id="a_Node000008"><a xlink:href="_projectile_8cpp.html" target="_top" xlink:title=" ">
<polygon fill="white" stroke="#666666" points="1793.5,-44 1632.75,-44 1632.75,0 1793.5,0 1793.5,-44"/>
<text text-anchor="start" x="1640.75" y="-30.5" font-family="Arial" font-size="10.00">MultiplayerShooter</text>
<text text-anchor="start" x="1640.75" y="-18.5" font-family="Arial" font-size="10.00">/BaseWeapon/ProjectileWeapons</text>
<text text-anchor="middle" x="1713.12" y="-6.5" font-family="Arial" font-size="10.00">/Projectile.cpp</text>
</a>
</g>
</g>
<!-- Node4&#45;&gt;Node8 -->
<g id="edge8_Node000004_Node000008" class="edge">
<title>Node4&#45;&gt;Node8</title>
<g id="a_edge8_Node000004_Node000008"><a xlink:title=" ">
<path fill="none" stroke="#63b8ff" d="M1440.58,-79.15C1493.83,-69.55 1562.44,-56.74 1623.12,-44 1626.27,-43.34 1629.46,-42.66 1632.69,-41.95"/>
<polygon fill="#63b8ff" stroke="#63b8ff" points="1440.17,-75.66 1430.94,-80.88 1441.4,-82.55 1440.17,-75.66"/>
</a>
</g>
</g>
<!-- Node9 -->
<g id="Node000009" class="node">
<title>Node9</title>
<g id="a_Node000009"><a xlink:href="_projectile_bullet_8cpp.html" target="_top" xlink:title=" ">
<polygon fill="white" stroke="#666666" points="1972.5,-44 1811.75,-44 1811.75,0 1972.5,0 1972.5,-44"/>
<text text-anchor="start" x="1819.75" y="-30.5" font-family="Arial" font-size="10.00">MultiplayerShooter</text>
<text text-anchor="start" x="1819.75" y="-18.5" font-family="Arial" font-size="10.00">/BaseWeapon/ProjectileWeapons</text>
<text text-anchor="middle" x="1892.12" y="-6.5" font-family="Arial" font-size="10.00">/ProjectileBullet.cpp</text>
</a>
</g>
</g>
<!-- Node4&#45;&gt;Node9 -->
<g id="edge9_Node000004_Node000009" class="edge">
<title>Node4&#45;&gt;Node9</title>
<g id="a_edge9_Node000004_Node000009"><a xlink:title=" ">
<path fill="none" stroke="#63b8ff" d="M1440.76,-87.91C1532.34,-80.01 1677.68,-65.46 1802.12,-44 1805.13,-43.48 1808.18,-42.92 1811.26,-42.34"/>
<polygon fill="#63b8ff" stroke="#63b8ff" points="1440.49,-84.42 1430.82,-88.76 1441.09,-91.4 1440.49,-84.42"/>
</a>
</g>
</g>
<!-- Node10 -->
<g id="Node000010" class="node">
<title>Node10</title>
<g id="a_Node000010"><a xlink:href="_projectile_weapon_8cpp.html" target="_top" xlink:title=" ">
<polygon fill="white" stroke="#666666" points="2151.5,-44 1990.75,-44 1990.75,0 2151.5,0 2151.5,-44"/>
<text text-anchor="start" x="1998.75" y="-30.5" font-family="Arial" font-size="10.00">MultiplayerShooter</text>
<text text-anchor="start" x="1998.75" y="-18.5" font-family="Arial" font-size="10.00">/BaseWeapon/ProjectileWeapons</text>
<text text-anchor="middle" x="2071.12" y="-6.5" font-family="Arial" font-size="10.00">/ProjectileWeapon.cpp</text>
</a>
</g>
</g>
<!-- Node4&#45;&gt;Node10 -->
<g id="edge10_Node000004_Node000010" class="edge">
<title>Node4&#45;&gt;Node10</title>
<g id="a_edge10_Node000004_Node000010"><a xlink:title=" ">
<path fill="none" stroke="#63b8ff" d="M1440.47,-91.92C1563.42,-86.76 1790,-73.85 1981.12,-44 1984.14,-43.53 1987.2,-43.01 1990.28,-42.46"/>
<polygon fill="#63b8ff" stroke="#63b8ff" points="1440.63,-88.41 1430.78,-92.32 1440.91,-95.4 1440.63,-88.41"/>
</a>
</g>
</g>
<!-- Node11 -->
<g id="Node000011" class="node">
<title>Node11</title>
<g id="a_Node000011"><a xlink:href="_main_game_mode_8cpp.html" target="_top" xlink:title=" ">
<polygon fill="white" stroke="#666666" points="2332.25,-38 2170,-38 2170,-6 2332.25,-6 2332.25,-38"/>
<text text-anchor="start" x="2178" y="-24.5" font-family="Arial" font-size="10.00">MultiplayerShooter</text>
<text text-anchor="middle" x="2251.12" y="-12.5" font-family="Arial" font-size="10.00">/GameMode/MainGameMode.cpp</text>
</a>
</g>
</g>
<!-- Node4&#45;&gt;Node11 -->
<g id="edge11_Node000004_Node000011" class="edge">
<title>Node4&#45;&gt;Node11</title>
<g id="a_edge11_Node000004_Node000011"><a xlink:title=" ">
<path fill="none" stroke="#63b8ff" d="M1440.75,-94.13C1591.02,-91.6 1900.92,-81.81 2160.12,-44 2170.07,-42.55 2180.54,-40.57 2190.69,-38.4"/>
<polygon fill="#63b8ff" stroke="#63b8ff" points="1440.79,-90.63 1430.84,-94.29 1440.9,-97.62 1440.79,-90.63"/>
</a>
</g>
</g>
<!-- Node12 -->
<g id="Node000012" class="node">
<title>Node12</title>
<g id="a_Node000012"><a xlink:href="_chat_8cpp.html" target="_top" xlink:title=" ">
<polygon fill="white" stroke="#666666" points="2447.62,-38 2350.62,-38 2350.62,-6 2447.62,-6 2447.62,-38"/>
<text text-anchor="start" x="2358.62" y="-24.5" font-family="Arial" font-size="10.00">MultiplayerShooter</text>
<text text-anchor="middle" x="2399.12" y="-12.5" font-family="Arial" font-size="10.00">/HUD/Chat.cpp</text>
</a>
</g>
</g>
<!-- Node4&#45;&gt;Node12 -->
<g id="edge12_Node000004_Node000012" class="edge">
<title>Node4&#45;&gt;Node12</title>
<g id="a_edge12_Node000004_Node000012"><a xlink:title=" ">
<path fill="none" stroke="#63b8ff" d="M1440.55,-93.76C1651.36,-90.31 2170.44,-78.49 2341.12,-44 2347.84,-42.64 2354.83,-40.65 2361.52,-38.43"/>
<polygon fill="#63b8ff" stroke="#63b8ff" points="1440.69,-90.26 1430.75,-93.92 1440.8,-97.25 1440.69,-90.26"/>
</a>
</g>
</g>
<!-- Node13 -->
<g id="Node000013" class="node">
<title>Node13</title>
<g id="a_Node000013"><a xlink:href="_my_anim_instance_8cpp.html" target="_top" xlink:title=" ">
<polygon fill="white" stroke="#666666" points="2644.12,-38 2466.12,-38 2466.12,-6 2644.12,-6 2644.12,-38"/>
<text text-anchor="start" x="2474.12" y="-24.5" font-family="Arial" font-size="10.00">MultiplayerShooter</text>
<text text-anchor="middle" x="2555.12" y="-12.5" font-family="Arial" font-size="10.00">/MainCharacter/MyAnimInstance.cpp</text>
</a>
</g>
</g>
<!-- Node4&#45;&gt;Node13 -->
<g id="edge14_Node000004_Node000013" class="edge">
<title>Node4&#45;&gt;Node13</title>
<g id="a_edge14_Node000004_Node000013"><a xlink:title=" ">
<path fill="none" stroke="#63b8ff" d="M1440.65,-95.87C1630.12,-96.58 2081.99,-92.5 2457.12,-44 2467.91,-42.61 2479.27,-40.64 2490.28,-38.47"/>
<polygon fill="#63b8ff" stroke="#63b8ff" points="1440.9,-92.37 1430.89,-95.83 1440.87,-99.37 1440.9,-92.37"/>
</a>
</g>
</g>
<!-- Node14 -->
<g id="Node000014" class="node">
<title>Node14</title>
<g id="a_Node000014"><a xlink:href="_damage_pickup_8cpp.html" target="_top" xlink:title=" ">
<polygon fill="white" stroke="#666666" points="551.5,-38 408.75,-38 408.75,-6 551.5,-6 551.5,-38"/>
<text text-anchor="start" x="416.75" y="-24.5" font-family="Arial" font-size="10.00">MultiplayerShooter</text>
<text text-anchor="middle" x="480.12" y="-12.5" font-family="Arial" font-size="10.00">/Pickups/DamagePickup.cpp</text>
</a>
</g>
</g>
<!-- Node4&#45;&gt;Node14 -->
<g id="edge15_Node000004_Node000014" class="edge">
<title>Node4&#45;&gt;Node14</title>
<g id="a_edge15_Node000004_Node000014"><a xlink:title=" ">
<path fill="none" stroke="#63b8ff" d="M1259.71,-94.69C1112.42,-92.96 811.93,-84.25 561.12,-44 552.23,-42.57 542.9,-40.61 533.85,-38.44"/>
<polygon fill="#63b8ff" stroke="#63b8ff" points="1259.35,-98.19 1269.39,-94.8 1259.43,-91.19 1259.35,-98.19"/>
</a>
</g>
</g>
<!-- Node15 -->
<g id="Node000015" class="node">
<title>Node15</title>
<g id="a_Node000015"><a xlink:href="_health_pickup_8cpp.html" target="_top" xlink:title=" ">
<polygon fill="white" stroke="#666666" points="704.38,-38 569.88,-38 569.88,-6 704.38,-6 704.38,-38"/>
<text text-anchor="start" x="577.88" y="-24.5" font-family="Arial" font-size="10.00">MultiplayerShooter</text>
<text text-anchor="middle" x="637.12" y="-12.5" font-family="Arial" font-size="10.00">/Pickups/HealthPickup.cpp</text>
</a>
</g>
</g>
<!-- Node4&#45;&gt;Node15 -->
<g id="edge16_Node000004_Node000015" class="edge">
<title>Node4&#45;&gt;Node15</title>
<g id="a_edge16_Node000004_Node000015"><a xlink:title=" ">
<path fill="none" stroke="#63b8ff" d="M1259.5,-93.14C1135.35,-89.37 905.82,-78.02 713.12,-44 704.9,-42.55 696.28,-40.6 687.92,-38.46"/>
<polygon fill="#63b8ff" stroke="#63b8ff" points="1259.2,-96.63 1269.3,-93.43 1259.41,-89.64 1259.2,-96.63"/>
</a>
</g>
</g>
<!-- Node16 -->
<g id="Node000016" class="node">
<title>Node16</title>
<g id="a_Node000016"><a xlink:href="_speed_pickup_8cpp.html" target="_top" xlink:title=" ">
<polygon fill="white" stroke="#666666" points="856,-38 722.25,-38 722.25,-6 856,-6 856,-38"/>
<text text-anchor="start" x="730.25" y="-24.5" font-family="Arial" font-size="10.00">MultiplayerShooter</text>
<text text-anchor="middle" x="789.12" y="-12.5" font-family="Arial" font-size="10.00">/Pickups/SpeedPickup.cpp</text>
</a>
</g>
</g>
<!-- Node4&#45;&gt;Node16 -->
<g id="edge17_Node000004_Node000016" class="edge">
<title>Node4&#45;&gt;Node16</title>
<g id="a_edge17_Node000004_Node000016"><a xlink:title=" ">
<path fill="none" stroke="#63b8ff" d="M1259.67,-89.96C1161.77,-83.46 1001.36,-69.8 865.12,-44 857.19,-42.5 848.88,-40.57 840.78,-38.5"/>
<polygon fill="#63b8ff" stroke="#63b8ff" points="1259.28,-93.44 1269.49,-90.6 1259.74,-86.45 1259.28,-93.44"/>
</a>
</g>
</g>
<!-- Node4&#45;&gt;Node17 -->
<g id="edge18_Node000004_Node000017" class="edge">
<title>Node4&#45;&gt;Node17</title>
<g id="a_edge18_Node000004_Node000017"><a xlink:title=" ">
<path fill="none" stroke="#63b8ff" d="M1440.18,-92.68C1715.47,-85.41 2534.32,-62.48 2653.12,-44 2656.1,-43.54 2659.13,-43 2662.17,-42.4"/>
<polygon fill="#63b8ff" stroke="#63b8ff" points="1440.47,-89.17 1430.56,-92.93 1440.65,-96.17 1440.47,-89.17"/>
</a>
</g>
</g>
<!-- Node18 -->
<g id="Node000018" class="node">
<title>Node18</title>
<g id="a_Node000018"><a xlink:href="_main_player_state_8cpp.html" target="_top" xlink:title=" ">
<polygon fill="white" stroke="#666666" points="1038,-38 874.25,-38 874.25,-6 1038,-6 1038,-38"/>
<text text-anchor="start" x="882.25" y="-24.5" font-family="Arial" font-size="10.00">MultiplayerShooter</text>
<text text-anchor="middle" x="956.12" y="-12.5" font-family="Arial" font-size="10.00">/PlayerState/MainPlayerState.cpp</text>
</a>
</g>
</g>
<!-- Node4&#45;&gt;Node18 -->
<g id="edge19_Node000004_Node000018" class="edge">
<title>Node4&#45;&gt;Node18</title>
<g id="a_edge19_Node000004_Node000018"><a xlink:title=" ">
<path fill="none" stroke="#63b8ff" d="M1259.76,-81.37C1199.15,-71.85 1117.63,-58.33 1046.12,-44 1037.63,-42.3 1028.71,-40.38 1019.93,-38.41"/>
<polygon fill="#63b8ff" stroke="#63b8ff" points="1258.91,-84.78 1269.33,-82.86 1259.99,-77.86 1258.91,-84.78"/>
</a>
</g>
</g>
</g>
</svg>
