<?xml version="1.0" encoding="UTF-8" standalone="no"?>
<!DOCTYPE svg PUBLIC "-//W3C//DTD SVG 1.1//EN"
 "http://www.w3.org/Graphics/SVG/1.1/DTD/svg11.dtd">
<!-- Generated by graphviz version 12.2.1 (20241206.2353)
 -->
<!-- Title: MultiplayerShooter/ActorComponents/CombatComponent.h Pages: 1 -->
<svg width="467pt" height="164pt"
 viewBox="0.00 0.00 466.77 164.00" xmlns="http://www.w3.org/2000/svg" xmlns:xlink="http://www.w3.org/1999/xlink">

<svg id="main" version="1.1" xmlns="http://www.w3.org/2000/svg" xmlns:xlink="http://www.w3.org/1999/xlink" xml:space="preserve">

<style type="text/css"><![CDATA[
.node, .edge {opacity: 0.7;}
.node.selected, .edge.selected {opacity: 1;}
.edge:hover path { stroke: red; }
.edge:hover polygon { stroke: red; fill: red; }
]]></style>
<script type="application/ecmascript" xlink:href="svg.min.js"/>
<svg id="graph" class="graph">
<g id="graph0" class="graph" transform="scale(1 1) rotate(0) translate(4 160)">
<title>MultiplayerShooter/ActorComponents/CombatComponent.h</title>
<!-- Node1 -->
<g id="Node000001" class="node">
<title>Node1</title>
<g id="a_Node000001"><a xlink:title=" ">
<polygon fill="#999999" stroke="#666666" points="261.27,-156 67.52,-156 67.52,-124 261.27,-124 261.27,-156"/>
<text text-anchor="start" x="75.52" y="-142.5" font-family="Arial" font-size="10.00">MultiplayerShooter</text>
<text text-anchor="middle" x="164.39" y="-130.5" font-family="Arial" font-size="10.00">/ActorComponents/CombatComponent.h</text>
</a>
</g>
</g>
<!-- Node2 -->
<g id="Node000002" class="node">
<title>Node2</title>
<g id="a_Node000002"><a xlink:title=" ">
<polygon fill="#e0e0e0" stroke="#999999" points="90.89,-20 11.89,-20 11.89,0 90.89,0 90.89,-20"/>
<text text-anchor="middle" x="51.39" y="-6.5" font-family="Arial" font-size="10.00">CoreMinimal.h</text>
</a>
</g>
</g>
<!-- Node1&#45;&gt;Node2 -->
<g id="edge1_Node000001_Node000002" class="edge">
<title>Node1&#45;&gt;Node2</title>
<g id="a_edge1_Node000001_Node000002"><a xlink:title=" ">
<path fill="none" stroke="#63b8ff" d="M67.02,-128.18C43.11,-120.65 20.17,-108.26 5.39,-88 -2.99,-76.51 -0.12,-69.11 5.39,-56 10.08,-44.84 19.05,-35.07 27.82,-27.5"/>
<polygon fill="#63b8ff" stroke="#63b8ff" points="29.86,-30.35 35.53,-21.4 25.52,-24.87 29.86,-30.35"/>
</a>
</g>
</g>
<!-- Node3 -->
<g id="Node000003" class="node">
<title>Node3</title>
<g id="a_Node000003"><a xlink:title=" ">
<polygon fill="#e0e0e0" stroke="#999999" points="170.52,-82 14.27,-82 14.27,-62 170.52,-62 170.52,-82"/>
<text text-anchor="middle" x="92.39" y="-68.5" font-family="Arial" font-size="10.00">Components/ActorComponent.h</text>
</a>
</g>
</g>
<!-- Node1&#45;&gt;Node3 -->
<g id="edge2_Node000001_Node000003" class="edge">
<title>Node1&#45;&gt;Node3</title>
<g id="a_edge2_Node000001_Node000003"><a xlink:title=" ">
<path fill="none" stroke="#63b8ff" d="M147.69,-123.69C136.68,-113.6 122.24,-100.36 110.88,-89.95"/>
<polygon fill="#63b8ff" stroke="#63b8ff" points="113.41,-87.52 103.67,-83.34 108.68,-92.68 113.41,-87.52"/>
</a>
</g>
</g>
<!-- Node4 -->
<g id="Node000004" class="node">
<title>Node4</title>
<g id="a_Node000004"><a xlink:href="_main_h_u_d_8h.html" target="_top" xlink:title=" ">
<polygon fill="white" stroke="#666666" points="285.89,-88 188.89,-88 188.89,-56 285.89,-56 285.89,-88"/>
<text text-anchor="start" x="196.89" y="-74.5" font-family="Arial" font-size="10.00">MultiplayerShooter</text>
<text text-anchor="middle" x="237.39" y="-62.5" font-family="Arial" font-size="10.00">/HUD/MainHUD.h</text>
</a>
</g>
</g>
<!-- Node1&#45;&gt;Node4 -->
<g id="edge3_Node000001_Node000004" class="edge">
<title>Node1&#45;&gt;Node4</title>
<g id="a_edge3_Node000001_Node000004"><a xlink:title=" ">
<path fill="none" stroke="#63b8ff" d="M181.32,-123.69C190.38,-115.5 201.72,-105.25 211.82,-96.12"/>
<polygon fill="#63b8ff" stroke="#63b8ff" points="214.1,-98.77 219.18,-89.47 209.41,-93.58 214.1,-98.77"/>
</a>
</g>
</g>
<!-- Node7 -->
<g id="Node000007" class="node">
<title>Node7</title>
<g id="a_Node000007"><a xlink:title=" ">
<polygon fill="#e0e0e0" stroke="#999999" points="458.77,-82 304.02,-82 304.02,-62 458.77,-62 458.77,-82"/>
<text text-anchor="middle" x="381.39" y="-68.5" font-family="Arial" font-size="10.00">CombatComponent.generated.h</text>
</a>
</g>
</g>
<!-- Node1&#45;&gt;Node7 -->
<g id="edge7_Node000001_Node000007" class="edge">
<title>Node1&#45;&gt;Node7</title>
<g id="a_edge7_Node000001_Node000007"><a xlink:title=" ">
<path fill="none" stroke="#63b8ff" d="M215.27,-123.53C253.02,-112.04 303.89,-96.57 339.35,-85.79"/>
<polygon fill="#63b8ff" stroke="#63b8ff" points="340.29,-89.16 348.84,-82.9 338.25,-82.46 340.29,-89.16"/>
</a>
</g>
</g>
<!-- Node4&#45;&gt;Node2 -->
<g id="edge4_Node000004_Node000002" class="edge">
<title>Node4&#45;&gt;Node2</title>
<g id="a_edge4_Node000004_Node000002"><a xlink:title=" ">
<path fill="none" stroke="#63b8ff" d="M189.49,-55.55C159.18,-45.77 120.43,-33.27 91.7,-24"/>
<polygon fill="#63b8ff" stroke="#63b8ff" points="92.86,-20.7 82.27,-20.96 90.71,-27.36 92.86,-20.7"/>
</a>
</g>
</g>
<!-- Node5 -->
<g id="Node000005" class="node">
<title>Node5</title>
<g id="a_Node000005"><a xlink:title=" ">
<polygon fill="#e0e0e0" stroke="#999999" points="266.77,-20 142.02,-20 142.02,0 266.77,0 266.77,-20"/>
<text text-anchor="middle" x="204.39" y="-6.5" font-family="Arial" font-size="10.00">GameFramework/HUD.h</text>
</a>
</g>
</g>
<!-- Node4&#45;&gt;Node5 -->
<g id="edge5_Node000004_Node000005" class="edge">
<title>Node4&#45;&gt;Node5</title>
<g id="a_edge5_Node000004_Node000005"><a xlink:title=" ">
<path fill="none" stroke="#63b8ff" d="M228.89,-55.55C224.69,-47.91 219.58,-38.61 215.11,-30.49"/>
<polygon fill="#63b8ff" stroke="#63b8ff" points="218.18,-28.81 210.29,-21.73 212.05,-32.18 218.18,-28.81"/>
</a>
</g>
</g>
<!-- Node6 -->
<g id="Node000006" class="node">
<title>Node6</title>
<g id="a_Node000006"><a xlink:title=" ">
<polygon fill="#e0e0e0" stroke="#999999" points="398.14,-20 284.64,-20 284.64,0 398.14,0 398.14,-20"/>
<text text-anchor="middle" x="341.39" y="-6.5" font-family="Arial" font-size="10.00">MainHUD.generated.h</text>
</a>
</g>
</g>
<!-- Node4&#45;&gt;Node6 -->
<g id="edge6_Node000004_Node000006" class="edge">
<title>Node4&#45;&gt;Node6</title>
<g id="a_edge6_Node000004_Node000006"><a xlink:title=" ">
<path fill="none" stroke="#63b8ff" d="M264.17,-55.55C279.97,-46.43 299.87,-34.96 315.51,-25.93"/>
<polygon fill="#63b8ff" stroke="#63b8ff" points="316.86,-29.19 323.77,-21.16 313.36,-23.13 316.86,-29.19"/>
</a>
</g>
</g>
</g>
</svg>
</svg>

<style type='text/css'>
<![CDATA[
[data-mouse-over-selected='false'] { opacity: 0.7; }
[data-mouse-over-selected='true']  { opacity: 1.0; }
]]>
</style>
<script type="application/ecmascript"><![CDATA[
document.addEventListener('DOMContentLoaded', (event) => {
  highlightEdges();
  highlightAdjacentNodes();
});
]]></script>
</svg>
