<?xml version="1.0" encoding="UTF-8" standalone="no"?>
<!DOCTYPE svg PUBLIC "-//W3C//DTD SVG 1.1//EN"
 "http://www.w3.org/Graphics/SVG/1.1/DTD/svg11.dtd">
<!-- Generated by graphviz version 12.2.1 (20241206.2353)
 -->
<!-- Title: MultiplayerShooter/Pickups/DamagePickup.h Pages: 1 -->
<svg width="328pt" height="108pt"
 viewBox="0.00 0.00 327.62 108.00" xmlns="http://www.w3.org/2000/svg" xmlns:xlink="http://www.w3.org/1999/xlink">
<g id="graph0" class="graph" transform="scale(1 1) rotate(0) translate(4 104)">
<title>MultiplayerShooter/Pickups/DamagePickup.h</title>
<!-- Node1 -->
<g id="Node000001" class="node">
<title>Node1</title>
<g id="a_Node000001"><a xlink:title=" ">
<polygon fill="#999999" stroke="#666666" points="221.5,-100 89.25,-100 89.25,-68 221.5,-68 221.5,-100"/>
<text text-anchor="start" x="97.25" y="-86.5" font-family="Arial" font-size="10.00">MultiplayerShooter</text>
<text text-anchor="middle" x="155.38" y="-74.5" font-family="Arial" font-size="10.00">/Pickups/DamagePickup.h</text>
</a>
</g>
</g>
<!-- Node2 -->
<g id="Node000002" class="node">
<title>Node2</title>
<g id="a_Node000002"><a xlink:href="_damage_pickup_8cpp.html" target="_top" xlink:title=" ">
<polygon fill="white" stroke="#666666" points="142.75,-32 0,-32 0,0 142.75,0 142.75,-32"/>
<text text-anchor="start" x="8" y="-18.5" font-family="Arial" font-size="10.00">MultiplayerShooter</text>
<text text-anchor="middle" x="71.38" y="-6.5" font-family="Arial" font-size="10.00">/Pickups/DamagePickup.cpp</text>
</a>
</g>
</g>
<!-- Node1&#45;&gt;Node2 -->
<g id="edge1_Node000001_Node000002" class="edge">
<title>Node1&#45;&gt;Node2</title>
<g id="a_edge1_Node000001_Node000002"><a xlink:title=" ">
<path fill="none" stroke="#63b8ff" d="M126.86,-60.6C115.08,-51.34 101.71,-40.83 91.04,-32.45"/>
<polygon fill="#63b8ff" stroke="#63b8ff" points="124.68,-63.33 134.7,-66.76 129,-57.83 124.68,-63.33"/>
</a>
</g>
</g>
<!-- Node3 -->
<g id="Node000003" class="node">
<title>Node3</title>
<g id="a_Node000003"><a xlink:href="_pickup_spawn_point_8cpp.html" target="_top" xlink:title=" ">
<polygon fill="white" stroke="#666666" points="319.62,-32 161.12,-32 161.12,0 319.62,0 319.62,-32"/>
<text text-anchor="start" x="169.12" y="-18.5" font-family="Arial" font-size="10.00">MultiplayerShooter</text>
<text text-anchor="middle" x="240.38" y="-6.5" font-family="Arial" font-size="10.00">/Pickups/PickupSpawnPoint.cpp</text>
</a>
</g>
</g>
<!-- Node1&#45;&gt;Node3 -->
<g id="edge2_Node000001_Node000003" class="edge">
<title>Node1&#45;&gt;Node3</title>
<g id="a_edge2_Node000001_Node000003"><a xlink:title=" ">
<path fill="none" stroke="#63b8ff" d="M183.87,-60.87C195.88,-51.55 209.58,-40.91 220.47,-32.45"/>
<polygon fill="#63b8ff" stroke="#63b8ff" points="182.04,-57.87 176.28,-66.76 186.33,-63.4 182.04,-57.87"/>
</a>
</g>
</g>
</g>
</svg>
