<?xml version="1.0" encoding="UTF-8" standalone="no"?>
<!DOCTYPE svg PUBLIC "-//W3C//DTD SVG 1.1//EN"
 "http://www.w3.org/Graphics/SVG/1.1/DTD/svg11.dtd">
<!-- Generated by graphviz version 12.2.1 (20241206.2353)
 -->
<!-- Title: MultiplayerShooter/Pickups/HealthPickup.cpp Pages: 1 -->
<svg width="1597pt" height="300pt"
 viewBox="0.00 0.00 1597.12 300.00" xmlns="http://www.w3.org/2000/svg" xmlns:xlink="http://www.w3.org/1999/xlink">
<g id="graph0" class="graph" transform="scale(1 1) rotate(0) translate(4 296)">
<title>MultiplayerShooter/Pickups/HealthPickup.cpp</title>
<!-- Node1 -->
<g id="Node000001" class="node">
<title>Node1</title>
<g id="a_Node000001"><a xlink:title=" ">
<polygon fill="#999999" stroke="#666666" points="951,-292 816.5,-292 816.5,-260 951,-260 951,-292"/>
<text text-anchor="start" x="824.5" y="-278.5" font-family="Arial" font-size="10.00">MultiplayerShooter</text>
<text text-anchor="middle" x="883.75" y="-266.5" font-family="Arial" font-size="10.00">/Pickups/HealthPickup.cpp</text>
</a>
</g>
</g>
<!-- Node2 -->
<g id="Node000002" class="node">
<title>Node2</title>
<g id="a_Node000002"><a xlink:href="_health_pickup_8h.html" target="_top" xlink:title=" ">
<polygon fill="white" stroke="#666666" points="330.12,-150 247.38,-150 247.38,-130 330.12,-130 330.12,-150"/>
<text text-anchor="middle" x="288.75" y="-136.5" font-family="Arial" font-size="10.00">HealthPickup.h</text>
</a>
</g>
</g>
<!-- Node1&#45;&gt;Node2 -->
<g id="edge1_Node000001_Node000002" class="edge">
<title>Node1&#45;&gt;Node2</title>
<g id="a_edge1_Node000001_Node000002"><a xlink:title=" ">
<path fill="none" stroke="#63b8ff" d="M816.08,-259.76C696.35,-232.79 449.63,-177.23 341.49,-152.88"/>
<polygon fill="#63b8ff" stroke="#63b8ff" points="342.55,-149.53 332.02,-150.75 341.01,-156.36 342.55,-149.53"/>
</a>
</g>
</g>
<!-- Node8 -->
<g id="Node000008" class="node">
<title>Node8</title>
<g id="a_Node000008"><a xlink:href="_main_character_8h.html" target="_top" xlink:title=" ">
<polygon fill="white" stroke="#666666" points="855.62,-224 697.88,-224 697.88,-192 855.62,-192 855.62,-224"/>
<text text-anchor="start" x="705.88" y="-210.5" font-family="Arial" font-size="10.00">MultiplayerShooter</text>
<text text-anchor="middle" x="776.75" y="-198.5" font-family="Arial" font-size="10.00">/MainCharacter/MainCharacter.h</text>
</a>
</g>
</g>
<!-- Node1&#45;&gt;Node8 -->
<g id="edge8_Node000001_Node000008" class="edge">
<title>Node1&#45;&gt;Node8</title>
<g id="a_edge8_Node000001_Node000008"><a xlink:title=" ">
<path fill="none" stroke="#63b8ff" d="M858.66,-259.53C844.58,-250.84 826.79,-239.86 811.39,-230.37"/>
<polygon fill="#63b8ff" stroke="#63b8ff" points="813.32,-227.44 802.97,-225.17 809.64,-233.4 813.32,-227.44"/>
</a>
</g>
</g>
<!-- Node12 -->
<g id="Node000012" class="node">
<title>Node12</title>
<g id="a_Node000012"><a xlink:href="_buff_component_8h.html" target="_top" xlink:title=" ">
<polygon fill="white" stroke="#666666" points="1196,-156 1019.5,-156 1019.5,-124 1196,-124 1196,-156"/>
<text text-anchor="start" x="1027.5" y="-142.5" font-family="Arial" font-size="10.00">MultiplayerShooter</text>
<text text-anchor="middle" x="1107.75" y="-130.5" font-family="Arial" font-size="10.00">/ActorComponents/BuffComponent.h</text>
</a>
</g>
</g>
<!-- Node1&#45;&gt;Node12 -->
<g id="edge26_Node000001_Node000012" class="edge">
<title>Node1&#45;&gt;Node12</title>
<g id="a_edge26_Node000001_Node000012"><a xlink:title=" ">
<path fill="none" stroke="#63b8ff" d="M882.79,-259.59C882.51,-241.01 885.04,-210.04 902.75,-192 911.34,-183.25 966.86,-169.73 1017.96,-158.81"/>
<polygon fill="#63b8ff" stroke="#63b8ff" points="1018.58,-162.26 1027.64,-156.76 1017.13,-155.41 1018.58,-162.26"/>
</a>
</g>
</g>
<!-- Node21 -->
<g id="Node000021" class="node">
<title>Node21</title>
<g id="a_Node000021"><a xlink:title=" ">
<polygon fill="#e0e0e0" stroke="#999999" points="1035.75,-218 911.75,-218 911.75,-198 1035.75,-198 1035.75,-218"/>
<text text-anchor="middle" x="973.75" y="-204.5" font-family="Arial" font-size="10.00">NiagaraFunctionLibrary.h</text>
</a>
</g>
</g>
<!-- Node1&#45;&gt;Node21 -->
<g id="edge27_Node000001_Node000021" class="edge">
<title>Node1&#45;&gt;Node21</title>
<g id="a_edge27_Node000001_Node000021"><a xlink:title=" ">
<path fill="none" stroke="#63b8ff" d="M904.62,-259.69C918.8,-249.3 937.51,-235.57 951.89,-225.03"/>
<polygon fill="#63b8ff" stroke="#63b8ff" points="953.83,-227.95 959.83,-219.21 949.69,-222.3 953.83,-227.95"/>
</a>
</g>
</g>
<!-- Node22 -->
<g id="Node000022" class="node">
<title>Node22</title>
<g id="a_Node000022"><a xlink:title=" ">
<polygon fill="#e0e0e0" stroke="#999999" points="1161.88,-218 1053.62,-218 1053.62,-198 1161.88,-198 1161.88,-218"/>
<text text-anchor="middle" x="1107.75" y="-204.5" font-family="Arial" font-size="10.00">NiagaraComponent.h</text>
</a>
</g>
</g>
<!-- Node1&#45;&gt;Node22 -->
<g id="edge28_Node000001_Node000022" class="edge">
<title>Node1&#45;&gt;Node22</title>
<g id="a_edge28_Node000001_Node000022"><a xlink:title=" ">
<path fill="none" stroke="#63b8ff" d="M936.27,-259.53C975.41,-247.99 1028.2,-232.44 1064.83,-221.65"/>
<polygon fill="#63b8ff" stroke="#63b8ff" points="1065.59,-225.07 1074.19,-218.89 1063.61,-218.36 1065.59,-225.07"/>
</a>
</g>
</g>
<!-- Node3 -->
<g id="Node000003" class="node">
<title>Node3</title>
<g id="a_Node000003"><a xlink:title=" ">
<polygon fill="#e0e0e0" stroke="#999999" points="730.25,-20 651.25,-20 651.25,0 730.25,0 730.25,-20"/>
<text text-anchor="middle" x="690.75" y="-6.5" font-family="Arial" font-size="10.00">CoreMinimal.h</text>
</a>
</g>
</g>
<!-- Node2&#45;&gt;Node3 -->
<g id="edge2_Node000002_Node000003" class="edge">
<title>Node2&#45;&gt;Node3</title>
<g id="a_edge2_Node000002_Node000003"><a xlink:title=" ">
<path fill="none" stroke="#63b8ff" d="M297.15,-129.54C314.94,-109.74 356.29,-65.02 374.75,-56 420.33,-33.73 562.36,-20.29 639.56,-14.45"/>
<polygon fill="#63b8ff" stroke="#63b8ff" points="639.69,-17.95 649.4,-13.72 639.17,-10.97 639.69,-17.95"/>
</a>
</g>
</g>
<!-- Node4 -->
<g id="Node000004" class="node">
<title>Node4</title>
<g id="a_Node000004"><a xlink:href="_pickup_8h.html" target="_top" xlink:title=" ">
<polygon fill="white" stroke="#666666" points="176.25,-88 79.25,-88 79.25,-56 176.25,-56 176.25,-88"/>
<text text-anchor="start" x="87.25" y="-74.5" font-family="Arial" font-size="10.00">MultiplayerShooter</text>
<text text-anchor="middle" x="127.75" y="-62.5" font-family="Arial" font-size="10.00">/Pickups/Pickup.h</text>
</a>
</g>
</g>
<!-- Node2&#45;&gt;Node4 -->
<g id="edge3_Node000002_Node000004" class="edge">
<title>Node2&#45;&gt;Node4</title>
<g id="a_edge3_Node000002_Node000004"><a xlink:title=" ">
<path fill="none" stroke="#63b8ff" d="M265.68,-129.54C242.37,-119.99 205.66,-104.94 175.97,-92.77"/>
<polygon fill="#63b8ff" stroke="#63b8ff" points="177.37,-89.56 166.79,-89 174.71,-96.03 177.37,-89.56"/>
</a>
</g>
</g>
<!-- Node7 -->
<g id="Node000007" class="node">
<title>Node7</title>
<g id="a_Node000007"><a xlink:title=" ">
<polygon fill="#e0e0e0" stroke="#999999" points="323,-82 194.5,-82 194.5,-62 323,-62 323,-82"/>
<text text-anchor="middle" x="258.75" y="-68.5" font-family="Arial" font-size="10.00">HealthPickup.generated.h</text>
</a>
</g>
</g>
<!-- Node2&#45;&gt;Node7 -->
<g id="edge7_Node000002_Node000007" class="edge">
<title>Node2&#45;&gt;Node7</title>
<g id="a_edge7_Node000002_Node000007"><a xlink:title=" ">
<path fill="none" stroke="#63b8ff" d="M284.45,-129.54C280.09,-119.94 273.19,-104.78 267.65,-92.57"/>
<polygon fill="#63b8ff" stroke="#63b8ff" points="270.99,-91.47 263.67,-83.82 264.62,-94.37 270.99,-91.47"/>
</a>
</g>
</g>
<!-- Node4&#45;&gt;Node3 -->
<g id="edge4_Node000004_Node000003" class="edge">
<title>Node4&#45;&gt;Node3</title>
<g id="a_edge4_Node000004_Node000003"><a xlink:title=" ">
<path fill="none" stroke="#63b8ff" d="M176.67,-57.74C179.73,-57.1 182.78,-56.51 185.75,-56 350.07,-27.63 547.74,-16.6 639.42,-12.79"/>
<polygon fill="#63b8ff" stroke="#63b8ff" points="639.49,-16.29 649.34,-12.39 639.21,-9.3 639.49,-16.29"/>
</a>
</g>
</g>
<!-- Node5 -->
<g id="Node000005" class="node">
<title>Node5</title>
<g id="a_Node000005"><a xlink:title=" ">
<polygon fill="#e0e0e0" stroke="#999999" points="125.5,-20 0,-20 0,0 125.5,0 125.5,-20"/>
<text text-anchor="middle" x="62.75" y="-6.5" font-family="Arial" font-size="10.00">GameFramework/Actor.h</text>
</a>
</g>
</g>
<!-- Node4&#45;&gt;Node5 -->
<g id="edge5_Node000004_Node000005" class="edge">
<title>Node4&#45;&gt;Node5</title>
<g id="a_edge5_Node000004_Node000005"><a xlink:title=" ">
<path fill="none" stroke="#63b8ff" d="M111.01,-55.55C101.89,-47.13 90.58,-36.69 81.21,-28.04"/>
<polygon fill="#63b8ff" stroke="#63b8ff" points="83.78,-25.65 74.05,-21.43 79.03,-30.79 83.78,-25.65"/>
</a>
</g>
</g>
<!-- Node6 -->
<g id="Node000006" class="node">
<title>Node6</title>
<g id="a_Node000006"><a xlink:title=" ">
<polygon fill="#e0e0e0" stroke="#999999" points="243.75,-20 143.75,-20 143.75,0 243.75,0 243.75,-20"/>
<text text-anchor="middle" x="193.75" y="-6.5" font-family="Arial" font-size="10.00">Pickup.generated.h</text>
</a>
</g>
</g>
<!-- Node4&#45;&gt;Node6 -->
<g id="edge6_Node000004_Node000006" class="edge">
<title>Node4&#45;&gt;Node6</title>
<g id="a_edge6_Node000004_Node000006"><a xlink:title=" ">
<path fill="none" stroke="#63b8ff" d="M144.75,-55.55C154.01,-47.13 165.49,-36.69 175.01,-28.04"/>
<polygon fill="#63b8ff" stroke="#63b8ff" points="177.24,-30.74 182.28,-21.43 172.53,-25.56 177.24,-30.74"/>
</a>
</g>
</g>
<!-- Node8&#45;&gt;Node3 -->
<g id="edge9_Node000008_Node000003" class="edge">
<title>Node8&#45;&gt;Node3</title>
<g id="a_edge9_Node000008_Node000003"><a xlink:title=" ">
<path fill="none" stroke="#63b8ff" d="M697.74,-199.2C588.02,-187.99 401.75,-167.41 391.75,-156 316.53,-70.16 536.13,-30.4 639.81,-16.76"/>
<polygon fill="#63b8ff" stroke="#63b8ff" points="639.98,-20.27 649.45,-15.53 639.09,-13.32 639.98,-20.27"/>
</a>
</g>
</g>
<!-- Node9 -->
<g id="Node000009" class="node">
<title>Node9</title>
<g id="a_Node000009"><a xlink:title=" ">
<polygon fill="#e0e0e0" stroke="#999999" points="546.25,-150 401.25,-150 401.25,-130 546.25,-130 546.25,-150"/>
<text text-anchor="middle" x="473.75" y="-136.5" font-family="Arial" font-size="10.00">GameFramework/Character.h</text>
</a>
</g>
</g>
<!-- Node8&#45;&gt;Node9 -->
<g id="edge10_Node000008_Node000009" class="edge">
<title>Node8&#45;&gt;Node9</title>
<g id="a_edge10_Node000008_Node000009"><a xlink:title=" ">
<path fill="none" stroke="#63b8ff" d="M705.71,-191.53C651.51,-179.72 577.95,-163.7 528.32,-152.89"/>
<polygon fill="#63b8ff" stroke="#63b8ff" points="529.17,-149.49 518.66,-150.78 527.68,-156.33 529.17,-149.49"/>
</a>
</g>
</g>
<!-- Node10 -->
<g id="Node000010" class="node">
<title>Node10</title>
<g id="a_Node000010"><a xlink:href="_turning_in_place_8h.html" target="_top" xlink:title=" ">
<polygon fill="white" stroke="#666666" points="685.62,-156 563.88,-156 563.88,-124 685.62,-124 685.62,-156"/>
<text text-anchor="start" x="571.88" y="-142.5" font-family="Arial" font-size="10.00">MultiplayerShooter</text>
<text text-anchor="middle" x="624.75" y="-130.5" font-family="Arial" font-size="10.00">/Types/TurningInPlace.h</text>
</a>
</g>
</g>
<!-- Node8&#45;&gt;Node10 -->
<g id="edge11_Node000008_Node000010" class="edge">
<title>Node8&#45;&gt;Node10</title>
<g id="a_edge11_Node000008_Node000010"><a xlink:title=" ">
<path fill="none" stroke="#63b8ff" d="M741.11,-191.53C720.13,-182.41 693.36,-170.79 670.79,-160.99"/>
<polygon fill="#63b8ff" stroke="#63b8ff" points="672.38,-157.87 661.82,-157.09 669.59,-164.29 672.38,-157.87"/>
</a>
</g>
</g>
<!-- Node11 -->
<g id="Node000011" class="node">
<title>Node11</title>
<g id="a_Node000011"><a xlink:title=" ">
<polygon fill="#e0e0e0" stroke="#999999" points="850,-150 703.5,-150 703.5,-130 850,-130 850,-150"/>
<text text-anchor="middle" x="776.75" y="-136.5" font-family="Arial" font-size="10.00">Camera/CameraComponent.h</text>
</a>
</g>
</g>
<!-- Node8&#45;&gt;Node11 -->
<g id="edge12_Node000008_Node000011" class="edge">
<title>Node8&#45;&gt;Node11</title>
<g id="a_edge12_Node000008_Node000011"><a xlink:title=" ">
<path fill="none" stroke="#63b8ff" d="M776.75,-191.69C776.75,-182.8 776.75,-171.46 776.75,-161.77"/>
<polygon fill="#63b8ff" stroke="#63b8ff" points="780.25,-161.83 776.75,-151.83 773.25,-161.83 780.25,-161.83"/>
</a>
</g>
</g>
<!-- Node8&#45;&gt;Node12 -->
<g id="edge13_Node000008_Node000012" class="edge">
<title>Node8&#45;&gt;Node12</title>
<g id="a_edge13_Node000008_Node000012"><a xlink:title=" ">
<path fill="none" stroke="#63b8ff" d="M854.35,-191.53C903.67,-181.69 967.64,-168.94 1018.97,-158.7"/>
<polygon fill="#63b8ff" stroke="#63b8ff" points="1019.45,-162.18 1028.57,-156.79 1018.08,-155.31 1019.45,-162.18"/>
</a>
</g>
</g>
<!-- Node15 -->
<g id="Node000015" class="node">
<title>Node15</title>
<g id="a_Node000015"><a xlink:href="_combat_component_8h.html" target="_top" xlink:title=" ">
<polygon fill="white" stroke="#666666" points="1407.62,-156 1213.88,-156 1213.88,-124 1407.62,-124 1407.62,-156"/>
<text text-anchor="start" x="1221.88" y="-142.5" font-family="Arial" font-size="10.00">MultiplayerShooter</text>
<text text-anchor="middle" x="1310.75" y="-130.5" font-family="Arial" font-size="10.00">/ActorComponents/CombatComponent.h</text>
</a>
</g>
</g>
<!-- Node8&#45;&gt;Node15 -->
<g id="edge17_Node000008_Node000015" class="edge">
<title>Node8&#45;&gt;Node15</title>
<g id="a_edge17_Node000008_Node000015"><a xlink:title=" ">
<path fill="none" stroke="#63b8ff" d="M855.77,-197.6C964.86,-184.61 1153.04,-162.2 1202.07,-156.26"/>
<polygon fill="#63b8ff" stroke="#63b8ff" points="1202.43,-159.74 1211.93,-155.04 1201.58,-152.79 1202.43,-159.74"/>
</a>
</g>
</g>
<!-- Node20 -->
<g id="Node000020" class="node">
<title>Node20</title>
<g id="a_Node000020"><a xlink:title=" ">
<polygon fill="#e0e0e0" stroke="#999999" points="1001.62,-150 867.88,-150 867.88,-130 1001.62,-130 1001.62,-150"/>
<text text-anchor="middle" x="934.75" y="-136.5" font-family="Arial" font-size="10.00">MainCharacter.generated.h</text>
</a>
</g>
</g>
<!-- Node8&#45;&gt;Node20 -->
<g id="edge25_Node000008_Node000020" class="edge">
<title>Node8&#45;&gt;Node20</title>
<g id="a_edge25_Node000008_Node000020"><a xlink:title=" ">
<path fill="none" stroke="#63b8ff" d="M813.79,-191.53C840.45,-180.39 876.08,-165.51 901.76,-154.78"/>
<polygon fill="#63b8ff" stroke="#63b8ff" points="902.83,-158.13 910.71,-151.04 900.13,-151.67 902.83,-158.13"/>
</a>
</g>
</g>
<!-- Node12&#45;&gt;Node3 -->
<g id="edge14_Node000012_Node000003" class="edge">
<title>Node12&#45;&gt;Node3</title>
<g id="a_edge14_Node000012_Node000003"><a xlink:title=" ">
<path fill="none" stroke="#63b8ff" d="M1076.97,-123.61C1058.92,-114.14 1035.96,-101.29 1016.75,-88 998.59,-75.44 998.84,-65.15 978.75,-56 901.25,-20.7 801.19,-12.36 741.72,-10.79"/>
<polygon fill="#63b8ff" stroke="#63b8ff" points="741.97,-7.3 731.9,-10.6 741.83,-14.3 741.97,-7.3"/>
</a>
</g>
</g>
<!-- Node13 -->
<g id="Node000013" class="node">
<title>Node13</title>
<g id="a_Node000013"><a xlink:title=" ">
<polygon fill="#e0e0e0" stroke="#999999" points="1181.88,-82 1025.62,-82 1025.62,-62 1181.88,-62 1181.88,-82"/>
<text text-anchor="middle" x="1103.75" y="-68.5" font-family="Arial" font-size="10.00">Components/ActorComponent.h</text>
</a>
</g>
</g>
<!-- Node12&#45;&gt;Node13 -->
<g id="edge15_Node000012_Node000013" class="edge">
<title>Node12&#45;&gt;Node13</title>
<g id="a_edge15_Node000012_Node000013"><a xlink:title=" ">
<path fill="none" stroke="#63b8ff" d="M1106.82,-123.69C1106.28,-114.8 1105.6,-103.46 1105.01,-93.77"/>
<polygon fill="#63b8ff" stroke="#63b8ff" points="1108.5,-93.6 1104.41,-83.83 1101.52,-94.02 1108.5,-93.6"/>
</a>
</g>
</g>
<!-- Node14 -->
<g id="Node000014" class="node">
<title>Node14</title>
<g id="a_Node000014"><a xlink:title=" ">
<polygon fill="#e0e0e0" stroke="#999999" points="969.5,-82 832,-82 832,-62 969.5,-62 969.5,-82"/>
<text text-anchor="middle" x="900.75" y="-68.5" font-family="Arial" font-size="10.00">BuffComponent.generated.h</text>
</a>
</g>
</g>
<!-- Node12&#45;&gt;Node14 -->
<g id="edge16_Node000012_Node000014" class="edge">
<title>Node12&#45;&gt;Node14</title>
<g id="a_edge16_Node000012_Node000014"><a xlink:title=" ">
<path fill="none" stroke="#63b8ff" d="M1059.22,-123.53C1023.36,-112.09 975.1,-96.71 941.29,-85.93"/>
<polygon fill="#63b8ff" stroke="#63b8ff" points="942.45,-82.62 931.86,-82.92 940.33,-89.29 942.45,-82.62"/>
</a>
</g>
</g>
<!-- Node15&#45;&gt;Node3 -->
<g id="edge18_Node000015_Node000003" class="edge">
<title>Node15&#45;&gt;Node3</title>
<g id="a_edge18_Node000015_Node000003"><a xlink:title=" ">
<path fill="none" stroke="#63b8ff" d="M1283.9,-123.63C1267.58,-113.96 1246.52,-100.91 1228.75,-88 1210.89,-75.03 1211.13,-64.49 1190.75,-56 1110.7,-22.64 852.97,-13.95 742.17,-11.74"/>
<polygon fill="#63b8ff" stroke="#63b8ff" points="742.24,-8.24 732.17,-11.55 742.11,-15.24 742.24,-8.24"/>
</a>
</g>
</g>
<!-- Node15&#45;&gt;Node13 -->
<g id="edge19_Node000015_Node000013" class="edge">
<title>Node15&#45;&gt;Node13</title>
<g id="a_edge19_Node000015_Node000013"><a xlink:title=" ">
<path fill="none" stroke="#63b8ff" d="M1262.22,-123.53C1226.36,-112.09 1178.1,-96.71 1144.29,-85.93"/>
<polygon fill="#63b8ff" stroke="#63b8ff" points="1145.45,-82.62 1134.86,-82.92 1143.33,-89.29 1145.45,-82.62"/>
</a>
</g>
</g>
<!-- Node16 -->
<g id="Node000016" class="node">
<title>Node16</title>
<g id="a_Node000016"><a xlink:href="_main_h_u_d_8h.html" target="_top" xlink:title=" ">
<polygon fill="white" stroke="#666666" points="1507.25,-88 1410.25,-88 1410.25,-56 1507.25,-56 1507.25,-88"/>
<text text-anchor="start" x="1418.25" y="-74.5" font-family="Arial" font-size="10.00">MultiplayerShooter</text>
<text text-anchor="middle" x="1458.75" y="-62.5" font-family="Arial" font-size="10.00">/HUD/MainHUD.h</text>
</a>
</g>
</g>
<!-- Node15&#45;&gt;Node16 -->
<g id="edge20_Node000015_Node000016" class="edge">
<title>Node15&#45;&gt;Node16</title>
<g id="a_edge20_Node000015_Node000016"><a xlink:title=" ">
<path fill="none" stroke="#63b8ff" d="M1345.45,-123.53C1365.79,-114.46 1391.71,-102.9 1413.62,-93.13"/>
<polygon fill="#63b8ff" stroke="#63b8ff" points="1414.92,-96.38 1422.63,-89.11 1412.07,-89.98 1414.92,-96.38"/>
</a>
</g>
</g>
<!-- Node19 -->
<g id="Node000019" class="node">
<title>Node19</title>
<g id="a_Node000019"><a xlink:title=" ">
<polygon fill="#e0e0e0" stroke="#999999" points="1392.12,-82 1237.38,-82 1237.38,-62 1392.12,-62 1392.12,-82"/>
<text text-anchor="middle" x="1314.75" y="-68.5" font-family="Arial" font-size="10.00">CombatComponent.generated.h</text>
</a>
</g>
</g>
<!-- Node15&#45;&gt;Node19 -->
<g id="edge24_Node000015_Node000019" class="edge">
<title>Node15&#45;&gt;Node19</title>
<g id="a_edge24_Node000015_Node000019"><a xlink:title=" ">
<path fill="none" stroke="#63b8ff" d="M1311.68,-123.69C1312.22,-114.8 1312.9,-103.46 1313.49,-93.77"/>
<polygon fill="#63b8ff" stroke="#63b8ff" points="1316.98,-94.02 1314.09,-83.83 1310,-93.6 1316.98,-94.02"/>
</a>
</g>
</g>
<!-- Node16&#45;&gt;Node3 -->
<g id="edge21_Node000016_Node000003" class="edge">
<title>Node16&#45;&gt;Node3</title>
<g id="a_edge21_Node000016_Node000003"><a xlink:title=" ">
<path fill="none" stroke="#63b8ff" d="M1409.84,-57.65C1406.78,-57.04 1403.73,-56.48 1400.75,-56 1156.36,-17.02 859.59,-11.49 742.14,-10.93"/>
<polygon fill="#63b8ff" stroke="#63b8ff" points="742.21,-7.43 732.2,-10.89 742.19,-14.43 742.21,-7.43"/>
</a>
</g>
</g>
<!-- Node17 -->
<g id="Node000017" class="node">
<title>Node17</title>
<g id="a_Node000017"><a xlink:title=" ">
<polygon fill="#e0e0e0" stroke="#999999" points="1589.12,-20 1464.38,-20 1464.38,0 1589.12,0 1589.12,-20"/>
<text text-anchor="middle" x="1526.75" y="-6.5" font-family="Arial" font-size="10.00">GameFramework/HUD.h</text>
</a>
</g>
</g>
<!-- Node16&#45;&gt;Node17 -->
<g id="edge22_Node000016_Node000017" class="edge">
<title>Node16&#45;&gt;Node17</title>
<g id="a_edge22_Node000016_Node000017"><a xlink:title=" ">
<path fill="none" stroke="#63b8ff" d="M1476.26,-55.55C1485.9,-47.04 1497.88,-36.48 1507.75,-27.77"/>
<polygon fill="#63b8ff" stroke="#63b8ff" points="1509.77,-30.65 1514.95,-21.41 1505.14,-25.4 1509.77,-30.65"/>
</a>
</g>
</g>
<!-- Node18 -->
<g id="Node000018" class="node">
<title>Node18</title>
<g id="a_Node000018"><a xlink:title=" ">
<polygon fill="#e0e0e0" stroke="#999999" points="1446.5,-20 1333,-20 1333,0 1446.5,0 1446.5,-20"/>
<text text-anchor="middle" x="1389.75" y="-6.5" font-family="Arial" font-size="10.00">MainHUD.generated.h</text>
</a>
</g>
</g>
<!-- Node16&#45;&gt;Node18 -->
<g id="edge23_Node000016_Node000018" class="edge">
<title>Node16&#45;&gt;Node18</title>
<g id="a_edge23_Node000016_Node000018"><a xlink:title=" ">
<path fill="none" stroke="#63b8ff" d="M1440.98,-55.55C1431.2,-47.04 1419.05,-36.48 1409.03,-27.77"/>
<polygon fill="#63b8ff" stroke="#63b8ff" points="1411.55,-25.32 1401.71,-21.4 1406.96,-30.6 1411.55,-25.32"/>
</a>
</g>
</g>
</g>
</svg>
