<?xml version="1.0" encoding="UTF-8" standalone="no"?>
<!DOCTYPE svg PUBLIC "-//W3C//DTD SVG 1.1//EN"
 "http://www.w3.org/Graphics/SVG/1.1/DTD/svg11.dtd">
<!-- Generated by graphviz version 12.2.1 (20241206.2353)
 -->
<!-- Title: MultiplayerShooter/GameMode/LobbyGameMode.cpp Pages: 1 -->
<svg width="1604pt" height="176pt"
 viewBox="0.00 0.00 1603.50 176.00" xmlns="http://www.w3.org/2000/svg" xmlns:xlink="http://www.w3.org/1999/xlink">
<g id="graph0" class="graph" transform="scale(1 1) rotate(0) translate(4 172)">
<title>MultiplayerShooter/GameMode/LobbyGameMode.cpp</title>
<!-- Node1 -->
<g id="Node000001" class="node">
<title>Node1</title>
<g id="a_Node000001"><a xlink:title=" ">
<polygon fill="#999999" stroke="#666666" points="858.12,-168 690.62,-168 690.62,-136 858.12,-136 858.12,-168"/>
<text text-anchor="start" x="698.62" y="-154.5" font-family="Arial" font-size="10.00">MultiplayerShooter</text>
<text text-anchor="middle" x="774.38" y="-142.5" font-family="Arial" font-size="10.00">/GameMode/LobbyGameMode.cpp</text>
</a>
</g>
</g>
<!-- Node2 -->
<g id="Node000002" class="node">
<title>Node2</title>
<g id="a_Node000002"><a xlink:href="_lobby_game_mode_8h.html" target="_top" xlink:title=" ">
<polygon fill="white" stroke="#666666" points="245.75,-88 145,-88 145,-68 245.75,-68 245.75,-88"/>
<text text-anchor="middle" x="195.38" y="-74.5" font-family="Arial" font-size="10.00">LobbyGameMode.h</text>
</a>
</g>
</g>
<!-- Node1&#45;&gt;Node2 -->
<g id="edge1_Node000001_Node000002" class="edge">
<title>Node1&#45;&gt;Node2</title>
<g id="a_edge1_Node000001_Node000002"><a xlink:title=" ">
<path fill="none" stroke="#63b8ff" d="M690.27,-148.89C586.81,-144.89 406.33,-133.33 255.38,-100 246.68,-98.08 237.51,-95.29 229.03,-92.36"/>
<polygon fill="#63b8ff" stroke="#63b8ff" points="230.38,-89.13 219.79,-89.01 228,-95.71 230.38,-89.13"/>
</a>
</g>
</g>
<!-- Node7 -->
<g id="Node000007" class="node">
<title>Node7</title>
<g id="a_Node000007"><a xlink:title=" ">
<polygon fill="#e0e0e0" stroke="#999999" points="438.5,-88 264.25,-88 264.25,-68 438.5,-68 438.5,-88"/>
<text text-anchor="middle" x="351.38" y="-74.5" font-family="Arial" font-size="10.00">GameFramework/GameStateBase.h</text>
</a>
</g>
</g>
<!-- Node1&#45;&gt;Node7 -->
<g id="edge6_Node000001_Node000007" class="edge">
<title>Node1&#45;&gt;Node7</title>
<g id="a_edge6_Node000001_Node000007"><a xlink:title=" ">
<path fill="none" stroke="#63b8ff" d="M690.13,-139.29C623.95,-129.75 529.55,-115.38 447.38,-100 432.95,-97.3 417.38,-94.04 403.07,-90.91"/>
<polygon fill="#63b8ff" stroke="#63b8ff" points="403.9,-87.51 393.38,-88.76 402.39,-94.34 403.9,-87.51"/>
</a>
</g>
</g>
<!-- Node8 -->
<g id="Node000008" class="node">
<title>Node8</title>
<g id="a_Node000008"><a xlink:title=" ">
<polygon fill="#e0e0e0" stroke="#999999" points="538.38,-88 456.38,-88 456.38,-68 538.38,-68 538.38,-88"/>
<text text-anchor="middle" x="497.38" y="-74.5" font-family="Arial" font-size="10.00">Engine/World.h</text>
</a>
</g>
</g>
<!-- Node1&#45;&gt;Node8 -->
<g id="edge7_Node000001_Node000008" class="edge">
<title>Node1&#45;&gt;Node8</title>
<g id="a_edge7_Node000001_Node000008"><a xlink:title=" ">
<path fill="none" stroke="#63b8ff" d="M690.15,-135.77C646.97,-127.03 593.83,-114.85 547.38,-100 540.94,-97.94 534.18,-95.39 527.79,-92.78"/>
<polygon fill="#63b8ff" stroke="#63b8ff" points="529.47,-89.69 518.9,-89 526.73,-96.13 529.47,-89.69"/>
</a>
</g>
</g>
<!-- Node9 -->
<g id="Node000009" class="node">
<title>Node9</title>
<g id="a_Node000009"><a xlink:title=" ">
<polygon fill="#e0e0e0" stroke="#999999" points="644,-88 556.75,-88 556.75,-68 644,-68 644,-88"/>
<text text-anchor="middle" x="600.38" y="-74.5" font-family="Arial" font-size="10.00">Engine/Engine.h</text>
</a>
</g>
</g>
<!-- Node1&#45;&gt;Node9 -->
<g id="edge8_Node000001_Node000009" class="edge">
<title>Node1&#45;&gt;Node9</title>
<g id="a_edge8_Node000001_Node000009"><a xlink:title=" ">
<path fill="none" stroke="#63b8ff" d="M737.05,-135.55C706.41,-122.88 663.42,-105.09 633.87,-92.86"/>
<polygon fill="#63b8ff" stroke="#63b8ff" points="635.24,-89.64 624.66,-89.05 632.56,-96.11 635.24,-89.64"/>
</a>
</g>
</g>
<!-- Node10 -->
<g id="Node000010" class="node">
<title>Node10</title>
<g id="a_Node000010"><a xlink:title=" ">
<polygon fill="#e0e0e0" stroke="#999999" points="1297.38,-20 1125.38,-20 1125.38,0 1297.38,0 1297.38,-20"/>
<text text-anchor="middle" x="1211.38" y="-6.5" font-family="Arial" font-size="10.00">GameFramework/PlayerController.h</text>
</a>
</g>
</g>
<!-- Node1&#45;&gt;Node10 -->
<g id="edge9_Node000001_Node000010" class="edge">
<title>Node1&#45;&gt;Node10</title>
<g id="a_edge9_Node000001_Node000010"><a xlink:title=" ">
<path fill="none" stroke="#63b8ff" d="M858.43,-147.67C984.56,-141.79 1210.73,-127.52 1235.38,-100 1252.84,-80.5 1238.18,-49.57 1225.32,-29.79"/>
<polygon fill="#63b8ff" stroke="#63b8ff" points="1228.2,-27.8 1219.63,-21.58 1222.45,-31.79 1228.2,-27.8"/>
</a>
</g>
</g>
<!-- Node11 -->
<g id="Node000011" class="node">
<title>Node11</title>
<g id="a_Node000011"><a xlink:title=" ">
<polygon fill="#e0e0e0" stroke="#999999" points="902.12,-88 776.62,-88 776.62,-68 902.12,-68 902.12,-88"/>
<text text-anchor="middle" x="839.38" y="-74.5" font-family="Arial" font-size="10.00">GameFramework/Actor.h</text>
</a>
</g>
</g>
<!-- Node1&#45;&gt;Node11 -->
<g id="edge10_Node000001_Node000011" class="edge">
<title>Node1&#45;&gt;Node11</title>
<g id="a_edge10_Node000001_Node000011"><a xlink:title=" ">
<path fill="none" stroke="#63b8ff" d="M788.16,-135.73C798.49,-124.28 812.66,-108.59 823.47,-96.62"/>
<polygon fill="#63b8ff" stroke="#63b8ff" points="825.85,-99.2 829.95,-89.43 820.66,-94.51 825.85,-99.2"/>
</a>
</g>
</g>
<!-- Node12 -->
<g id="Node000012" class="node">
<title>Node12</title>
<g id="a_Node000012"><a xlink:title=" ">
<polygon fill="#e0e0e0" stroke="#999999" points="1074.75,-88 920,-88 920,-68 1074.75,-68 1074.75,-88"/>
<text text-anchor="middle" x="997.38" y="-74.5" font-family="Arial" font-size="10.00">Components/InputComponent.h</text>
</a>
</g>
</g>
<!-- Node1&#45;&gt;Node12 -->
<g id="edge11_Node000001_Node000012" class="edge">
<title>Node1&#45;&gt;Node12</title>
<g id="a_edge11_Node000001_Node000012"><a xlink:title=" ">
<path fill="none" stroke="#63b8ff" d="M822.21,-135.55C862.52,-122.54 919.51,-104.14 957.41,-91.9"/>
<polygon fill="#63b8ff" stroke="#63b8ff" points="958.16,-95.34 966.6,-88.94 956.01,-88.68 958.16,-95.34"/>
</a>
</g>
</g>
<!-- Node13 -->
<g id="Node000013" class="node">
<title>Node13</title>
<g id="a_Node000013"><a xlink:title=" ">
<polygon fill="#e0e0e0" stroke="#999999" points="1225.88,-88 1092.88,-88 1092.88,-68 1225.88,-68 1225.88,-88"/>
<text text-anchor="middle" x="1159.38" y="-74.5" font-family="Arial" font-size="10.00">Kismet/GameplayStatics.h</text>
</a>
</g>
</g>
<!-- Node1&#45;&gt;Node13 -->
<g id="edge12_Node000001_Node000013" class="edge">
<title>Node1&#45;&gt;Node13</title>
<g id="a_edge12_Node000001_Node000013"><a xlink:title=" ">
<path fill="none" stroke="#63b8ff" d="M858.44,-139.59C920.84,-130.52 1007.84,-116.62 1083.38,-100 1094.39,-97.58 1106.18,-94.54 1117.12,-91.53"/>
<polygon fill="#63b8ff" stroke="#63b8ff" points="1117.99,-94.92 1126.67,-88.85 1116.1,-88.18 1117.99,-94.92"/>
</a>
</g>
</g>
<!-- Node14 -->
<g id="Node000014" class="node">
<title>Node14</title>
<g id="a_Node000014"><a xlink:href="_main_h_u_d_8h.html" target="_top" xlink:title=" ">
<polygon fill="white" stroke="#666666" points="758.88,-94 661.88,-94 661.88,-62 758.88,-62 758.88,-94"/>
<text text-anchor="start" x="669.88" y="-80.5" font-family="Arial" font-size="10.00">MultiplayerShooter</text>
<text text-anchor="middle" x="710.38" y="-68.5" font-family="Arial" font-size="10.00">/HUD/MainHUD.h</text>
</a>
</g>
</g>
<!-- Node1&#45;&gt;Node14 -->
<g id="edge13_Node000001_Node000014" class="edge">
<title>Node1&#45;&gt;Node14</title>
<g id="a_edge13_Node000001_Node000014"><a xlink:title=" ">
<path fill="none" stroke="#63b8ff" d="M760.8,-135.73C752.23,-126.09 740.99,-113.44 731.29,-102.53"/>
<polygon fill="#63b8ff" stroke="#63b8ff" points="734.19,-100.53 724.93,-95.38 728.96,-105.18 734.19,-100.53"/>
</a>
</g>
</g>
<!-- Node17 -->
<g id="Node000017" class="node">
<title>Node17</title>
<g id="a_Node000017"><a xlink:href="_my_player_controller_8h.html" target="_top" xlink:title=" ">
<polygon fill="white" stroke="#666666" points="1415.88,-100 1282.88,-100 1282.88,-56 1415.88,-56 1415.88,-100"/>
<text text-anchor="start" x="1290.88" y="-86.5" font-family="Arial" font-size="10.00">MultiplayerShooter</text>
<text text-anchor="start" x="1290.88" y="-74.5" font-family="Arial" font-size="10.00">/PlayerController/MyPlayer</text>
<text text-anchor="middle" x="1349.38" y="-62.5" font-family="Arial" font-size="10.00">Controller.h</text>
</a>
</g>
</g>
<!-- Node1&#45;&gt;Node17 -->
<g id="edge17_Node000001_Node000017" class="edge">
<title>Node1&#45;&gt;Node17</title>
<g id="a_edge17_Node000001_Node000017"><a xlink:title=" ">
<path fill="none" stroke="#63b8ff" d="M858.39,-146.2C957.12,-139.66 1125.61,-125.72 1268.38,-100 1269.55,-99.79 1270.74,-99.57 1271.94,-99.34"/>
<polygon fill="#63b8ff" stroke="#63b8ff" points="1272.23,-102.85 1281.32,-97.41 1270.82,-95.99 1272.23,-102.85"/>
</a>
</g>
</g>
<!-- Node3 -->
<g id="Node000003" class="node">
<title>Node3</title>
<g id="a_Node000003"><a xlink:title=" ">
<polygon fill="#e0e0e0" stroke="#999999" points="629.88,-20 550.88,-20 550.88,0 629.88,0 629.88,-20"/>
<text text-anchor="middle" x="590.38" y="-6.5" font-family="Arial" font-size="10.00">CoreMinimal.h</text>
</a>
</g>
</g>
<!-- Node2&#45;&gt;Node3 -->
<g id="edge2_Node000002_Node000003" class="edge">
<title>Node2&#45;&gt;Node3</title>
<g id="a_edge2_Node000002_Node000003"><a xlink:title=" ">
<path fill="none" stroke="#63b8ff" d="M218.7,-67.6C229.67,-63.49 243.03,-58.96 255.38,-56 354.3,-32.3 472.85,-20.07 539.09,-14.63"/>
<polygon fill="#63b8ff" stroke="#63b8ff" points="539.25,-18.13 548.94,-13.85 538.69,-11.16 539.25,-18.13"/>
</a>
</g>
</g>
<!-- Node4 -->
<g id="Node000004" class="node">
<title>Node4</title>
<g id="a_Node000004"><a xlink:title=" ">
<polygon fill="#e0e0e0" stroke="#999999" points="100.75,-20 0,-20 0,0 100.75,0 100.75,-20"/>
<text text-anchor="middle" x="50.38" y="-6.5" font-family="Arial" font-size="10.00">Sound/SoundCue.h</text>
</a>
</g>
</g>
<!-- Node2&#45;&gt;Node4 -->
<g id="edge3_Node000002_Node000004" class="edge">
<title>Node2&#45;&gt;Node4</title>
<g id="a_edge3_Node000002_Node000004"><a xlink:title=" ">
<path fill="none" stroke="#63b8ff" d="M174.6,-67.54C150.27,-56.47 109.71,-38.01 81.59,-25.21"/>
<polygon fill="#63b8ff" stroke="#63b8ff" points="83.04,-22.02 72.49,-21.07 80.14,-28.39 83.04,-22.02"/>
</a>
</g>
</g>
<!-- Node5 -->
<g id="Node000005" class="node">
<title>Node5</title>
<g id="a_Node000005"><a xlink:title=" ">
<polygon fill="#e0e0e0" stroke="#999999" points="271.62,-20 119.12,-20 119.12,0 271.62,0 271.62,-20"/>
<text text-anchor="middle" x="195.38" y="-6.5" font-family="Arial" font-size="10.00">GameFramework/GameMode.h</text>
</a>
</g>
</g>
<!-- Node2&#45;&gt;Node5 -->
<g id="edge4_Node000002_Node000005" class="edge">
<title>Node2&#45;&gt;Node5</title>
<g id="a_edge4_Node000002_Node000005"><a xlink:title=" ">
<path fill="none" stroke="#63b8ff" d="M195.38,-67.54C195.38,-58.23 195.38,-43.7 195.38,-31.7"/>
<polygon fill="#63b8ff" stroke="#63b8ff" points="198.88,-31.95 195.38,-21.95 191.88,-31.95 198.88,-31.95"/>
</a>
</g>
</g>
<!-- Node6 -->
<g id="Node000006" class="node">
<title>Node6</title>
<g id="a_Node000006"><a xlink:title=" ">
<polygon fill="#e0e0e0" stroke="#999999" points="436.62,-20 290.12,-20 290.12,0 436.62,0 436.62,-20"/>
<text text-anchor="middle" x="363.38" y="-6.5" font-family="Arial" font-size="10.00">LobbyGameMode.generated.h</text>
</a>
</g>
</g>
<!-- Node2&#45;&gt;Node6 -->
<g id="edge5_Node000002_Node000006" class="edge">
<title>Node2&#45;&gt;Node6</title>
<g id="a_edge5_Node000002_Node000006"><a xlink:title=" ">
<path fill="none" stroke="#63b8ff" d="M219.45,-67.54C248.14,-56.27 296.3,-37.35 328.93,-24.53"/>
<polygon fill="#63b8ff" stroke="#63b8ff" points="329.91,-27.91 337.94,-20.99 327.35,-21.39 329.91,-27.91"/>
</a>
</g>
</g>
<!-- Node14&#45;&gt;Node3 -->
<g id="edge14_Node000014_Node000003" class="edge">
<title>Node14&#45;&gt;Node3</title>
<g id="a_edge14_Node000014_Node000003"><a xlink:title=" ">
<path fill="none" stroke="#63b8ff" d="M682.24,-61.53C662.72,-50.79 636.86,-36.56 617.55,-25.94"/>
<polygon fill="#63b8ff" stroke="#63b8ff" points="619.35,-22.94 608.9,-21.19 615.98,-29.08 619.35,-22.94"/>
</a>
</g>
</g>
<!-- Node15 -->
<g id="Node000015" class="node">
<title>Node15</title>
<g id="a_Node000015"><a xlink:title=" ">
<polygon fill="#e0e0e0" stroke="#999999" points="772.75,-20 648,-20 648,0 772.75,0 772.75,-20"/>
<text text-anchor="middle" x="710.38" y="-6.5" font-family="Arial" font-size="10.00">GameFramework/HUD.h</text>
</a>
</g>
</g>
<!-- Node14&#45;&gt;Node15 -->
<g id="edge15_Node000014_Node000015" class="edge">
<title>Node14&#45;&gt;Node15</title>
<g id="a_edge15_Node000014_Node000015"><a xlink:title=" ">
<path fill="none" stroke="#63b8ff" d="M710.38,-61.69C710.38,-52.8 710.38,-41.46 710.38,-31.77"/>
<polygon fill="#63b8ff" stroke="#63b8ff" points="713.88,-31.83 710.38,-21.83 706.88,-31.83 713.88,-31.83"/>
</a>
</g>
</g>
<!-- Node16 -->
<g id="Node000016" class="node">
<title>Node16</title>
<g id="a_Node000016"><a xlink:title=" ">
<polygon fill="#e0e0e0" stroke="#999999" points="904.12,-20 790.62,-20 790.62,0 904.12,0 904.12,-20"/>
<text text-anchor="middle" x="847.38" y="-6.5" font-family="Arial" font-size="10.00">MainHUD.generated.h</text>
</a>
</g>
</g>
<!-- Node14&#45;&gt;Node16 -->
<g id="edge16_Node000014_Node000016" class="edge">
<title>Node14&#45;&gt;Node16</title>
<g id="a_edge16_Node000014_Node000016"><a xlink:title=" ">
<path fill="none" stroke="#63b8ff" d="M742.5,-61.53C765.2,-50.59 795.41,-36.04 817.57,-25.36"/>
<polygon fill="#63b8ff" stroke="#63b8ff" points="818.88,-28.61 826.37,-21.12 815.85,-22.3 818.88,-28.61"/>
</a>
</g>
</g>
<!-- Node17&#45;&gt;Node3 -->
<g id="edge18_Node000017_Node000003" class="edge">
<title>Node17&#45;&gt;Node3</title>
<g id="a_edge18_Node000017_Node000003"><a xlink:title=" ">
<path fill="none" stroke="#63b8ff" d="M1282.67,-63.31C1267.2,-60.52 1250.76,-57.87 1235.38,-56 975.55,-24.34 904.73,-51.27 641.23,-20.06"/>
<polygon fill="#63b8ff" stroke="#63b8ff" points="642.01,-16.62 631.66,-18.91 641.17,-23.57 642.01,-16.62"/>
</a>
</g>
</g>
<!-- Node17&#45;&gt;Node10 -->
<g id="edge19_Node000017_Node000010" class="edge">
<title>Node17&#45;&gt;Node10</title>
<g id="a_edge19_Node000017_Node000010"><a xlink:title=" ">
<path fill="none" stroke="#63b8ff" d="M1304.57,-55.57C1283.78,-45.63 1259.64,-34.08 1241.13,-25.23"/>
<polygon fill="#63b8ff" stroke="#63b8ff" points="1242.85,-22.18 1232.32,-21.02 1239.83,-28.49 1242.85,-22.18"/>
</a>
</g>
</g>
<!-- Node18 -->
<g id="Node000018" class="node">
<title>Node18</title>
<g id="a_Node000018"><a xlink:title=" ">
<polygon fill="#e0e0e0" stroke="#999999" points="1595.5,-20 1487.25,-20 1487.25,0 1595.5,0 1595.5,-20"/>
<text text-anchor="middle" x="1541.38" y="-6.5" font-family="Arial" font-size="10.00">Sound/SoundClass.h</text>
</a>
</g>
</g>
<!-- Node17&#45;&gt;Node18 -->
<g id="edge20_Node000017_Node000018" class="edge">
<title>Node17&#45;&gt;Node18</title>
<g id="a_edge20_Node000017_Node000018"><a xlink:title=" ">
<path fill="none" stroke="#63b8ff" d="M1411.71,-55.57C1441.89,-45.2 1477.15,-33.08 1503.28,-24.09"/>
<polygon fill="#63b8ff" stroke="#63b8ff" points="1504.13,-27.5 1512.45,-20.94 1501.85,-20.89 1504.13,-27.5"/>
</a>
</g>
</g>
<!-- Node19 -->
<g id="Node000019" class="node">
<title>Node19</title>
<g id="a_Node000019"><a xlink:title=" ">
<polygon fill="#e0e0e0" stroke="#999999" points="1469,-20 1315.75,-20 1315.75,0 1469,0 1469,-20"/>
<text text-anchor="middle" x="1392.38" y="-6.5" font-family="Arial" font-size="10.00">MyPlayerController.generated.h</text>
</a>
</g>
</g>
<!-- Node17&#45;&gt;Node19 -->
<g id="edge21_Node000017_Node000019" class="edge">
<title>Node17&#45;&gt;Node19</title>
<g id="a_edge21_Node000017_Node000019"><a xlink:title=" ">
<path fill="none" stroke="#63b8ff" d="M1363.22,-55.75C1368.61,-47.47 1374.75,-38.06 1379.99,-30.01"/>
<polygon fill="#63b8ff" stroke="#63b8ff" points="1382.89,-31.98 1385.41,-21.69 1377.02,-28.16 1382.89,-31.98"/>
</a>
</g>
</g>
</g>
</svg>
