<?xml version="1.0" encoding="UTF-8" standalone="no"?>
<!DOCTYPE svg PUBLIC "-//W3C//DTD SVG 1.1//EN"
 "http://www.w3.org/Graphics/SVG/1.1/DTD/svg11.dtd">
<!-- Generated by graphviz version 12.2.1 (20241206.2353)
 -->
<!-- Title: MultiplayerShooter/GameMode/MainGameMode.cpp Pages: 1 -->
<!--zoomable 312 -->

<svg id="main" version="1.1" xmlns="http://www.w3.org/2000/svg" xmlns:xlink="http://www.w3.org/1999/xlink" xml:space="preserve" onload="init(evt)">

<style type="text/css"><![CDATA[
.node, .edge {opacity: 0.7;}
.node.selected, .edge.selected {opacity: 1;}
.edge:hover path { stroke: red; }
.edge:hover polygon { stroke: red; fill: red; }
]]></style>

<defs>
  <circle id="rim" cx="0" cy="0" r="7"/>
  <circle id="rim2" cx="0" cy="0" r="3.5"/>
  <g id="zoomPlus">
    <use xlink:href="#rim" fill="#404040"><set attributeName="fill" to="#808080" begin="zoomplus.mouseover" end="zoomplus.mouseout"/></use>
    <path d="M-4,0h8M0,-4v8" fill="none" stroke="white" stroke-width="1.5" pointer-events="none"/>
  </g>
  <g id="zoomMin">
    <use xlink:href="#rim" fill="#404040"><set attributeName="fill" to="#808080" begin="zoomminus.mouseover" end="zoomminus.mouseout"/></use>
    <path d="M-4,0h8" fill="none" stroke="white" stroke-width="1.5" pointer-events="none"/>
  </g>
  <g id="arrowUp" transform="translate(30 24)">
    <use xlink:href="#rim"/>
    <path pointer-events="none" fill="none" stroke="white" stroke-width="1.5" d="M0,-3.0v7 M-2.5,-0.5L0,-3.0L2.5,-0.5"/>
  </g>
  <g id="arrowRight" transform="rotate(90) translate(36 -43)">
    <use xlink:href="#rim"/>
    <path pointer-events="none" fill="none" stroke="white" stroke-width="1.5" d="M0,-3.0v7 M-2.5,-0.5L0,-3.0L2.5,-0.5"/>
  </g>
  <g id="arrowDown" transform="rotate(180) translate(-30 -48)">
    <use xlink:href="#rim"/>
    <path pointer-events="none" fill="none" stroke="white" stroke-width="1.5" d="M0,-3.0v7 M-2.5,-0.5L0,-3.0L2.5,-0.5"/>
  </g>
  <g id="arrowLeft" transform="rotate(270) translate(-36 17)">
    <use xlink:href="#rim"/>
    <path pointer-events="none" fill="none" stroke="white" stroke-width="1.5" d="M0,-3.0v7 M-2.5,-0.5L0,-3.0L2.5,-0.5"/>
  </g>
  <g id="resetDef">
    <use xlink:href="#rim2" fill="#404040"><set attributeName="fill" to="#808080" begin="reset.mouseover" end="reset.mouseout"/></use>
  </g>
</defs>
<script type="application/ecmascript">
var viewWidth = 3714;
var viewHeight = 312;
var sectionId = 'dynsection-0';
</script>
<script type="application/ecmascript" xlink:href="svg.min.js"/>
<svg id="graph" class="graph">
<g id="viewport">
<title>MultiplayerShooter/GameMode/MainGameMode.cpp</title>
<!-- Node1 -->
<g id="Node000001" class="node">
<title>Node1</title>
<g id="a_Node000001"><a xlink:title=" ">
<polygon fill="#999999" stroke="#666666" points="3043.38,-304 2881.12,-304 2881.12,-272 3043.38,-272 3043.38,-304"/>
<text text-anchor="start" x="2889.12" y="-290.5" font-family="Arial" font-size="10.00">MultiplayerShooter</text>
<text text-anchor="middle" x="2962.25" y="-278.5" font-family="Arial" font-size="10.00">/GameMode/MainGameMode.cpp</text>
</a>
</g>
</g>
<!-- Node2 -->
<g id="Node000002" class="node">
<title>Node2</title>
<g id="a_Node000002"><a xlink:href="_main_game_mode_8h.html" target="_top" xlink:title=" ">
<polygon fill="white" stroke="#666666" points="3086,-224 2990.5,-224 2990.5,-204 3086,-204 3086,-224"/>
<text text-anchor="middle" x="3038.25" y="-210.5" font-family="Arial" font-size="10.00">MainGameMode.h</text>
</a>
</g>
</g>
<!-- Node1&#45;&gt;Node2 -->
<g id="edge1_Node000001_Node000002" class="edge">
<title>Node1&#45;&gt;Node2</title>
<g id="a_edge1_Node000001_Node000002"><a xlink:title=" ">
<path fill="none" stroke="#63b8ff" d="M2978.37,-271.73C2990.69,-260.06 3007.66,-243.98 3020.39,-231.92"/>
<polygon fill="#63b8ff" stroke="#63b8ff" points="3022.47,-234.77 3027.32,-225.35 3017.66,-229.69 3022.47,-234.77"/>
</a>
</g>
</g>
<!-- Node7 -->
<g id="Node000007" class="node">
<title>Node7</title>
<g id="a_Node000007"><a xlink:title=" ">
<polygon fill="#e0e0e0" stroke="#999999" points="3204.62,-224 3103.88,-224 3103.88,-204 3204.62,-204 3204.62,-224"/>
<text text-anchor="middle" x="3154.25" y="-210.5" font-family="Arial" font-size="10.00">ModuleDescriptor.h</text>
</a>
</g>
</g>
<!-- Node1&#45;&gt;Node7 -->
<g id="edge6_Node000001_Node000007" class="edge">
<title>Node1&#45;&gt;Node7</title>
<g id="a_edge6_Node000001_Node000007"><a xlink:title=" ">
<path fill="none" stroke="#63b8ff" d="M3003.44,-271.55C3037.69,-258.71 3085.94,-240.61 3118.57,-228.38"/>
<polygon fill="#63b8ff" stroke="#63b8ff" points="3119.44,-231.79 3127.58,-225 3116.98,-225.24 3119.44,-231.79"/>
</a>
</g>
</g>
<!-- Node8 -->
<g id="Node000008" class="node">
<title>Node8</title>
<g id="a_Node000008"><a xlink:href="_main_character_8h.html" target="_top" xlink:title=" ">
<polygon fill="white" stroke="#666666" points="785.12,-230 627.38,-230 627.38,-198 785.12,-198 785.12,-230"/>
<text text-anchor="start" x="635.38" y="-216.5" font-family="Arial" font-size="10.00">MultiplayerShooter</text>
<text text-anchor="middle" x="706.25" y="-204.5" font-family="Arial" font-size="10.00">/MainCharacter/MainCharacter.h</text>
</a>
</g>
</g>
<!-- Node1&#45;&gt;Node8 -->
<g id="edge7_Node000001_Node000008" class="edge">
<title>Node1&#45;&gt;Node8</title>
<g id="a_edge7_Node000001_Node000008"><a xlink:title=" ">
<path fill="none" stroke="#63b8ff" d="M2880.96,-284.41C2532.11,-273.27 1163.02,-229.58 796.77,-217.89"/>
<polygon fill="#63b8ff" stroke="#63b8ff" points="797.07,-214.4 786.97,-217.58 796.85,-221.39 797.07,-214.4"/>
</a>
</g>
</g>
<!-- Node21 -->
<g id="Node000021" class="node">
<title>Node21</title>
<g id="a_Node000021"><a xlink:href="_my_player_controller_8h.html" target="_top" xlink:title=" ">
<polygon fill="white" stroke="#666666" points="1514.5,-236 1380,-236 1380,-192 1514.5,-192 1514.5,-236"/>
<text text-anchor="start" x="1388" y="-222.5" font-family="Arial" font-size="10.00">MultiplayerShooter</text>
<text text-anchor="start" x="1388" y="-210.5" font-family="Arial" font-size="10.00">/PlayerController/MYPlayer</text>
<text text-anchor="middle" x="1447.25" y="-198.5" font-family="Arial" font-size="10.00">Controller.h</text>
</a>
</g>
</g>
<!-- Node1&#45;&gt;Node21 -->
<g id="edge25_Node000001_Node000021" class="edge">
<title>Node1&#45;&gt;Node21</title>
<g id="a_edge25_Node000001_Node000021"><a xlink:title=" ">
<path fill="none" stroke="#63b8ff" d="M2880.95,-283.95C2690.47,-276.69 2200.47,-257.4 1791.25,-236 1700.26,-231.24 1595.81,-224.71 1526.1,-220.21"/>
<polygon fill="#63b8ff" stroke="#63b8ff" points="1526.5,-216.72 1516.3,-219.57 1526.05,-223.71 1526.5,-216.72"/>
</a>
</g>
</g>
<!-- Node25 -->
<g id="Node000025" class="node">
<title>Node25</title>
<g id="a_Node000025"><a xlink:title=" ">
<polygon fill="#e0e0e0" stroke="#999999" points="3355.75,-224 3222.75,-224 3222.75,-204 3355.75,-204 3355.75,-224"/>
<text text-anchor="middle" x="3289.25" y="-210.5" font-family="Arial" font-size="10.00">Kismet/GameplayStatics.h</text>
</a>
</g>
</g>
<!-- Node1&#45;&gt;Node25 -->
<g id="edge30_Node000001_Node000025" class="edge">
<title>Node1&#45;&gt;Node25</title>
<g id="a_edge30_Node000001_Node000025"><a xlink:title=" ">
<path fill="none" stroke="#63b8ff" d="M3043.67,-271.94C3092.94,-262.45 3156.92,-249.49 3213.25,-236 3223.92,-233.44 3235.36,-230.43 3246.04,-227.5"/>
<polygon fill="#63b8ff" stroke="#63b8ff" points="3246.68,-230.95 3255.37,-224.9 3244.8,-224.21 3246.68,-230.95"/>
</a>
</g>
</g>
<!-- Node26 -->
<g id="Node000026" class="node">
<title>Node26</title>
<g id="a_Node000026"><a xlink:title=" ">
<polygon fill="#e0e0e0" stroke="#999999" points="3524.75,-224 3373.75,-224 3373.75,-204 3524.75,-204 3524.75,-224"/>
<text text-anchor="middle" x="3449.25" y="-210.5" font-family="Arial" font-size="10.00">GameFramework/PlayerStart.h</text>
</a>
</g>
</g>
<!-- Node1&#45;&gt;Node26 -->
<g id="edge31_Node000001_Node000026" class="edge">
<title>Node1&#45;&gt;Node26</title>
<g id="a_edge31_Node000001_Node000026"><a xlink:title=" ">
<path fill="none" stroke="#63b8ff" d="M3043.74,-279.56C3125.46,-271.43 3254.69,-256.74 3365.25,-236 3378.16,-233.58 3392.05,-230.36 3404.74,-227.18"/>
<polygon fill="#63b8ff" stroke="#63b8ff" points="3405.25,-230.66 3414.06,-224.78 3403.51,-223.88 3405.25,-230.66"/>
</a>
</g>
</g>
<!-- Node27 -->
<g id="Node000027" class="node">
<title>Node27</title>
<g id="a_Node000027"><a xlink:href="_main_game_state_8h.html" target="_top" xlink:title=" ">
<polygon fill="white" stroke="#666666" points="1950.38,-230 1800.12,-230 1800.12,-198 1950.38,-198 1950.38,-230"/>
<text text-anchor="start" x="1808.12" y="-216.5" font-family="Arial" font-size="10.00">MultiplayerShooter</text>
<text text-anchor="middle" x="1875.25" y="-204.5" font-family="Arial" font-size="10.00">/GameState/MainGameState.h</text>
</a>
</g>
</g>
<!-- Node1&#45;&gt;Node27 -->
<g id="edge32_Node000001_Node000027" class="edge">
<title>Node1&#45;&gt;Node27</title>
<g id="a_edge32_Node000001_Node000027"><a xlink:title=" ">
<path fill="none" stroke="#63b8ff" d="M2880.63,-282.11C2735.34,-273.35 2422.32,-254.17 2158.25,-236 2092.38,-231.47 2017.92,-225.92 1961.91,-221.67"/>
<polygon fill="#63b8ff" stroke="#63b8ff" points="1962.35,-218.2 1952.12,-220.93 1961.82,-225.18 1962.35,-218.2"/>
</a>
</g>
</g>
<!-- Node30 -->
<g id="Node000030" class="node">
<title>Node30</title>
<g id="a_Node000030"><a xlink:href="_main_player_state_8h.html" target="_top" xlink:title=" ">
<polygon fill="white" stroke="#666666" points="2320.88,-230 2167.62,-230 2167.62,-198 2320.88,-198 2320.88,-230"/>
<text text-anchor="start" x="2175.62" y="-216.5" font-family="Arial" font-size="10.00">MultiplayerShooter</text>
<text text-anchor="middle" x="2244.25" y="-204.5" font-family="Arial" font-size="10.00">/PlayerState/MainPlayerState.h</text>
</a>
</g>
</g>
<!-- Node1&#45;&gt;Node30 -->
<g id="edge36_Node000001_Node000030" class="edge">
<title>Node1&#45;&gt;Node30</title>
<g id="a_edge36_Node000001_Node000030"><a xlink:title=" ">
<path fill="none" stroke="#63b8ff" d="M2880.93,-278.85C2745.01,-265.22 2472.76,-237.91 2332.4,-223.84"/>
<polygon fill="#63b8ff" stroke="#63b8ff" points="2333.1,-220.39 2322.8,-222.88 2332.4,-227.36 2333.1,-220.39"/>
</a>
</g>
</g>
<!-- Node33 -->
<g id="Node000033" class="node">
<title>Node33</title>
<g id="a_Node000033"><a xlink:title=" ">
<polygon fill="#e0e0e0" stroke="#999999" points="3706.12,-224 3542.38,-224 3542.38,-204 3706.12,-204 3706.12,-224"/>
<text text-anchor="middle" x="3624.25" y="-210.5" font-family="Arial" font-size="10.00">GameFramework/GameSession.h</text>
</a>
</g>
</g>
<!-- Node1&#45;&gt;Node33 -->
<g id="edge40_Node000001_Node000033" class="edge">
<title>Node1&#45;&gt;Node33</title>
<g id="a_edge40_Node000001_Node000033"><a xlink:title=" ">
<path fill="none" stroke="#63b8ff" d="M3043.68,-283.34C3155.02,-277.52 3360.75,-263.84 3534.25,-236 3548.63,-233.69 3564.12,-230.38 3578.13,-227.07"/>
<polygon fill="#63b8ff" stroke="#63b8ff" points="3578.63,-230.55 3587.53,-224.79 3576.98,-223.75 3578.63,-230.55"/>
</a>
</g>
</g>
<!-- Node34 -->
<g id="Node000034" class="node">
<title>Node34</title>
<g id="a_Node000034"><a xlink:href="_buff_database_manager_8h.html" target="_top" xlink:title=" ">
<polygon fill="white" stroke="#666666" points="2746.75,-230 2577.75,-230 2577.75,-198 2746.75,-198 2746.75,-230"/>
<text text-anchor="start" x="2585.75" y="-216.5" font-family="Arial" font-size="10.00">MultiplayerShooter</text>
<text text-anchor="middle" x="2662.25" y="-204.5" font-family="Arial" font-size="10.00">/Database/BuffDatabaseManager.h</text>
</a>
</g>
</g>
<!-- Node1&#45;&gt;Node34 -->
<g id="edge41_Node000001_Node000034" class="edge">
<title>Node1&#45;&gt;Node34</title>
<g id="a_edge41_Node000001_Node000034"><a xlink:title=" ">
<path fill="none" stroke="#63b8ff" d="M2897.89,-271.55C2850.91,-260.28 2787.08,-244.96 2737.7,-233.11"/>
<polygon fill="#63b8ff" stroke="#63b8ff" points="2738.77,-229.77 2728.23,-230.84 2737.14,-236.57 2738.77,-229.77"/>
</a>
</g>
</g>
<!-- Node39 -->
<g id="Node000039" class="node">
<title>Node39</title>
<g id="a_Node000039"><a xlink:href="_health_pickup_8h.html" target="_top" xlink:title=" ">
<polygon fill="white" stroke="#666666" points="3133.25,-156 3009.25,-156 3009.25,-124 3133.25,-124 3133.25,-156"/>
<text text-anchor="start" x="3017.25" y="-142.5" font-family="Arial" font-size="10.00">MultiplayerShooter</text>
<text text-anchor="middle" x="3071.25" y="-130.5" font-family="Arial" font-size="10.00">/Pickups/HealthPickup.h</text>
</a>
</g>
</g>
<!-- Node1&#45;&gt;Node39 -->
<g id="edge47_Node000001_Node000039" class="edge">
<title>Node1&#45;&gt;Node39</title>
<g id="a_edge47_Node000001_Node000039"><a xlink:title=" ">
<path fill="none" stroke="#63b8ff" d="M2961.57,-271.65C2961.45,-251.48 2964,-215.85 2981.25,-192 2990.48,-179.24 3003.95,-169.23 3017.68,-161.6"/>
<polygon fill="#63b8ff" stroke="#63b8ff" points="3019.03,-164.84 3026.31,-157.14 3015.82,-158.62 3019.03,-164.84"/>
</a>
</g>
</g>
<!-- Node3 -->
<g id="Node000003" class="node">
<title>Node3</title>
<g id="a_Node000003"><a xlink:title=" ">
<polygon fill="#e0e0e0" stroke="#999999" points="1966.75,-20 1887.75,-20 1887.75,0 1966.75,0 1966.75,-20"/>
<text text-anchor="middle" x="1927.25" y="-6.5" font-family="Arial" font-size="10.00">CoreMinimal.h</text>
</a>
</g>
</g>
<!-- Node2&#45;&gt;Node3 -->
<g id="edge2_Node000002_Node000003" class="edge">
<title>Node2&#45;&gt;Node3</title>
<g id="a_edge2_Node000002_Node000003"><a xlink:title=" ">
<path fill="none" stroke="#63b8ff" d="M3061.58,-203.54C3089.38,-191.73 3133.23,-171.24 3142.25,-156 3164.9,-117.76 3173.09,-88 3142.25,-56 3101.31,-13.51 2204.78,-10.92 1978.67,-10.94"/>
<polygon fill="#63b8ff" stroke="#63b8ff" points="1978.7,-7.44 1968.7,-10.94 1978.7,-14.44 1978.7,-7.44"/>
</a>
</g>
</g>
<!-- Node4 -->
<g id="Node000004" class="node">
<title>Node4</title>
<g id="a_Node000004"><a xlink:title=" ">
<polygon fill="#e0e0e0" stroke="#999999" points="3449.62,-150 3348.88,-150 3348.88,-130 3449.62,-130 3449.62,-150"/>
<text text-anchor="middle" x="3399.25" y="-136.5" font-family="Arial" font-size="10.00">Sound/SoundCue.h</text>
</a>
</g>
</g>
<!-- Node2&#45;&gt;Node4 -->
<g id="edge3_Node000002_Node000004" class="edge">
<title>Node2&#45;&gt;Node4</title>
<g id="a_edge3_Node000002_Node000004"><a xlink:title=" ">
<path fill="none" stroke="#63b8ff" d="M3060.65,-203.52C3071.02,-199.46 3083.6,-194.97 3095.25,-192 3201.9,-164.83 3232.33,-177.59 3340.25,-156 3344.56,-155.14 3349.02,-154.16 3353.48,-153.13"/>
<polygon fill="#63b8ff" stroke="#63b8ff" points="3354.07,-156.59 3362.97,-150.84 3352.43,-149.78 3354.07,-156.59"/>
</a>
</g>
</g>
<!-- Node5 -->
<g id="Node000005" class="node">
<title>Node5</title>
<g id="a_Node000005"><a xlink:title=" ">
<polygon fill="#e0e0e0" stroke="#999999" points="3620.5,-150 3468,-150 3468,-130 3620.5,-130 3620.5,-150"/>
<text text-anchor="middle" x="3544.25" y="-136.5" font-family="Arial" font-size="10.00">GameFramework/GameMode.h</text>
</a>
</g>
</g>
<!-- Node2&#45;&gt;Node5 -->
<g id="edge4_Node000002_Node000005" class="edge">
<title>Node2&#45;&gt;Node5</title>
<g id="a_edge4_Node000002_Node000005"><a xlink:title=" ">
<path fill="none" stroke="#63b8ff" d="M3059.78,-203.59C3070.29,-199.39 3083.22,-194.76 3095.25,-192 3253.25,-155.68 3297.62,-177.94 3458.25,-156 3466.2,-154.91 3474.54,-153.64 3482.77,-152.29"/>
<polygon fill="#63b8ff" stroke="#63b8ff" points="3483.09,-155.79 3492.38,-150.68 3481.94,-148.88 3483.09,-155.79"/>
</a>
</g>
</g>
<!-- Node6 -->
<g id="Node000006" class="node">
<title>Node6</title>
<g id="a_Node000006"><a xlink:title=" ">
<polygon fill="#e0e0e0" stroke="#999999" points="3330.88,-150 3189.62,-150 3189.62,-130 3330.88,-130 3330.88,-150"/>
<text text-anchor="middle" x="3260.25" y="-136.5" font-family="Arial" font-size="10.00">MainGameMode.generated.h</text>
</a>
</g>
</g>
<!-- Node2&#45;&gt;Node6 -->
<g id="edge5_Node000002_Node000006" class="edge">
<title>Node2&#45;&gt;Node6</title>
<g id="a_edge5_Node000002_Node000006"><a xlink:title=" ">
<path fill="none" stroke="#63b8ff" d="M3063.12,-203.51C3073.07,-199.8 3084.66,-195.58 3095.25,-192 3136.33,-178.09 3183.67,-163.62 3217.07,-153.66"/>
<polygon fill="#63b8ff" stroke="#63b8ff" points="3217.8,-157.1 3226.39,-150.89 3215.8,-150.39 3217.8,-157.1"/>
</a>
</g>
</g>
<!-- Node8&#45;&gt;Node3 -->
<g id="edge8_Node000008_Node000003" class="edge">
<title>Node8&#45;&gt;Node3</title>
<g id="a_edge8_Node000008_Node000003"><a xlink:title=" ">
<path fill="none" stroke="#63b8ff" d="M785.45,-209.63C850.22,-204.3 942.76,-190.68 1016.25,-156 1036.22,-146.58 1034.04,-132.89 1054.25,-124 1203.85,-58.21 1712.78,-23.48 1876.25,-13.83"/>
<polygon fill="#63b8ff" stroke="#63b8ff" points="1876.12,-17.34 1885.9,-13.27 1875.71,-10.35 1876.12,-17.34"/>
</a>
</g>
</g>
<!-- Node9 -->
<g id="Node000009" class="node">
<title>Node9</title>
<g id="a_Node000009"><a xlink:title=" ">
<polygon fill="#e0e0e0" stroke="#999999" points="867.75,-150 722.75,-150 722.75,-130 867.75,-130 867.75,-150"/>
<text text-anchor="middle" x="795.25" y="-136.5" font-family="Arial" font-size="10.00">GameFramework/Character.h</text>
</a>
</g>
</g>
<!-- Node8&#45;&gt;Node9 -->
<g id="edge9_Node000008_Node000009" class="edge">
<title>Node8&#45;&gt;Node9</title>
<g id="a_edge9_Node000008_Node000009"><a xlink:title=" ">
<path fill="none" stroke="#63b8ff" d="M725.12,-197.73C739.83,-185.83 760.2,-169.36 775.19,-157.22"/>
<polygon fill="#63b8ff" stroke="#63b8ff" points="776.99,-160.27 782.56,-151.26 772.59,-154.83 776.99,-160.27"/>
</a>
</g>
</g>
<!-- Node10 -->
<g id="Node000010" class="node">
<title>Node10</title>
<g id="a_Node000010"><a xlink:href="_turning_in_place_8h.html" target="_top" xlink:title=" ">
<polygon fill="white" stroke="#666666" points="1007.12,-156 885.38,-156 885.38,-124 1007.12,-124 1007.12,-156"/>
<text text-anchor="start" x="893.38" y="-142.5" font-family="Arial" font-size="10.00">MultiplayerShooter</text>
<text text-anchor="middle" x="946.25" y="-130.5" font-family="Arial" font-size="10.00">/Types/TurningInPlace.h</text>
</a>
</g>
</g>
<!-- Node8&#45;&gt;Node10 -->
<g id="edge10_Node000008_Node000010" class="edge">
<title>Node8&#45;&gt;Node10</title>
<g id="a_edge10_Node000008_Node000010"><a xlink:title=" ">
<path fill="none" stroke="#63b8ff" d="M757.74,-197.55C794.67,-186.47 844.63,-171.49 883.84,-159.72"/>
<polygon fill="#63b8ff" stroke="#63b8ff" points="884.83,-163.08 893.4,-156.86 882.82,-156.38 884.83,-163.08"/>
</a>
</g>
</g>
<!-- Node11 -->
<g id="Node000011" class="node">
<title>Node11</title>
<g id="a_Node000011"><a xlink:title=" ">
<polygon fill="#e0e0e0" stroke="#999999" points="146.5,-150 0,-150 0,-130 146.5,-130 146.5,-150"/>
<text text-anchor="middle" x="73.25" y="-136.5" font-family="Arial" font-size="10.00">Camera/CameraComponent.h</text>
</a>
</g>
</g>
<!-- Node8&#45;&gt;Node11 -->
<g id="edge11_Node000008_Node000011" class="edge">
<title>Node8&#45;&gt;Node11</title>
<g id="a_edge11_Node000008_Node000011"><a xlink:title=" ">
<path fill="none" stroke="#63b8ff" d="M627.09,-206.76C519.84,-197.86 322.57,-179.92 155.25,-156 147.84,-154.94 140.07,-153.7 132.4,-152.39"/>
<polygon fill="#63b8ff" stroke="#63b8ff" points="133.22,-148.98 122.77,-150.69 132.01,-155.87 133.22,-148.98"/>
</a>
</g>
</g>
<!-- Node12 -->
<g id="Node000012" class="node">
<title>Node12</title>
<g id="a_Node000012"><a xlink:href="_buff_component_8h.html" target="_top" xlink:title=" ">
<polygon fill="white" stroke="#666666" points="704.5,-156 528,-156 528,-124 704.5,-124 704.5,-156"/>
<text text-anchor="start" x="536" y="-142.5" font-family="Arial" font-size="10.00">MultiplayerShooter</text>
<text text-anchor="middle" x="616.25" y="-130.5" font-family="Arial" font-size="10.00">/ActorComponents/BuffComponent.h</text>
</a>
</g>
</g>
<!-- Node8&#45;&gt;Node12 -->
<g id="edge12_Node000008_Node000012" class="edge">
<title>Node8&#45;&gt;Node12</title>
<g id="a_edge12_Node000008_Node000012"><a xlink:title=" ">
<path fill="none" stroke="#63b8ff" d="M687.16,-197.73C674.72,-187.78 658.26,-174.61 644.34,-163.47"/>
<polygon fill="#63b8ff" stroke="#63b8ff" points="646.8,-160.95 636.8,-157.44 642.42,-166.42 646.8,-160.95"/>
</a>
</g>
</g>
<!-- Node15 -->
<g id="Node000015" class="node">
<title>Node15</title>
<g id="a_Node000015"><a xlink:href="_combat_component_8h.html" target="_top" xlink:title=" ">
<polygon fill="white" stroke="#666666" points="510.12,-156 316.38,-156 316.38,-124 510.12,-124 510.12,-156"/>
<text text-anchor="start" x="324.38" y="-142.5" font-family="Arial" font-size="10.00">MultiplayerShooter</text>
<text text-anchor="middle" x="413.25" y="-130.5" font-family="Arial" font-size="10.00">/ActorComponents/CombatComponent.h</text>
</a>
</g>
</g>
<!-- Node8&#45;&gt;Node15 -->
<g id="edge16_Node000008_Node000015" class="edge">
<title>Node8&#45;&gt;Node15</title>
<g id="a_edge16_Node000008_Node000015"><a xlink:title=" ">
<path fill="none" stroke="#63b8ff" d="M643.39,-197.55C597.61,-186.3 535.43,-171.02 487.25,-159.18"/>
<polygon fill="#63b8ff" stroke="#63b8ff" points="488.27,-155.83 477.72,-156.84 486.6,-162.63 488.27,-155.83"/>
</a>
</g>
</g>
<!-- Node20 -->
<g id="Node000020" class="node">
<title>Node20</title>
<g id="a_Node000020"><a xlink:title=" ">
<polygon fill="#e0e0e0" stroke="#999999" points="298.12,-150 164.38,-150 164.38,-130 298.12,-130 298.12,-150"/>
<text text-anchor="middle" x="231.25" y="-136.5" font-family="Arial" font-size="10.00">MainCharacter.generated.h</text>
</a>
</g>
</g>
<!-- Node8&#45;&gt;Node20 -->
<g id="edge24_Node000008_Node000020" class="edge">
<title>Node8&#45;&gt;Node20</title>
<g id="a_edge24_Node000008_Node000020"><a xlink:title=" ">
<path fill="none" stroke="#63b8ff" d="M626.95,-202.93C546.29,-192.39 417.8,-174.79 307.25,-156 300.96,-154.93 294.4,-153.74 287.88,-152.52"/>
<polygon fill="#63b8ff" stroke="#63b8ff" points="288.96,-149.16 278.48,-150.72 287.64,-156.04 288.96,-149.16"/>
</a>
</g>
</g>
<!-- Node12&#45;&gt;Node3 -->
<g id="edge13_Node000012_Node000003" class="edge">
<title>Node12&#45;&gt;Node3</title>
<g id="a_edge13_Node000012_Node000003"><a xlink:title=" ">
<path fill="none" stroke="#63b8ff" d="M690.99,-123.53C805.74,-99.81 1013.03,-57.04 1021.25,-56 1344.62,-15.08 1737.3,-10.91 1875.86,-10.82"/>
<polygon fill="#63b8ff" stroke="#63b8ff" points="1875.81,-14.32 1885.81,-10.82 1875.81,-7.32 1875.81,-14.32"/>
</a>
</g>
</g>
<!-- Node13 -->
<g id="Node000013" class="node">
<title>Node13</title>
<g id="a_Node000013"><a xlink:title=" ">
<polygon fill="#e0e0e0" stroke="#999999" points="698.38,-82 542.12,-82 542.12,-62 698.38,-62 698.38,-82"/>
<text text-anchor="middle" x="620.25" y="-68.5" font-family="Arial" font-size="10.00">Components/ActorComponent.h</text>
</a>
</g>
</g>
<!-- Node12&#45;&gt;Node13 -->
<g id="edge14_Node000012_Node000013" class="edge">
<title>Node12&#45;&gt;Node13</title>
<g id="a_edge14_Node000012_Node000013"><a xlink:title=" ">
<path fill="none" stroke="#63b8ff" d="M617.18,-123.69C617.72,-114.8 618.4,-103.46 618.99,-93.77"/>
<polygon fill="#63b8ff" stroke="#63b8ff" points="622.48,-94.02 619.59,-83.83 615.5,-93.6 622.48,-94.02"/>
</a>
</g>
</g>
<!-- Node14 -->
<g id="Node000014" class="node">
<title>Node14</title>
<g id="a_Node000014"><a xlink:title=" ">
<polygon fill="#e0e0e0" stroke="#999999" points="854,-82 716.5,-82 716.5,-62 854,-62 854,-82"/>
<text text-anchor="middle" x="785.25" y="-68.5" font-family="Arial" font-size="10.00">BuffComponent.generated.h</text>
</a>
</g>
</g>
<!-- Node12&#45;&gt;Node14 -->
<g id="edge15_Node000012_Node000014" class="edge">
<title>Node12&#45;&gt;Node14</title>
<g id="a_edge15_Node000012_Node000014"><a xlink:title=" ">
<path fill="none" stroke="#63b8ff" d="M655.87,-123.53C684.51,-112.34 722.84,-97.37 750.33,-86.64"/>
<polygon fill="#63b8ff" stroke="#63b8ff" points="751.58,-89.91 759.62,-83.01 749.03,-83.39 751.58,-89.91"/>
</a>
</g>
</g>
<!-- Node15&#45;&gt;Node3 -->
<g id="edge17_Node000015_Node000003" class="edge">
<title>Node15&#45;&gt;Node3</title>
<g id="a_edge17_Node000015_Node000003"><a xlink:title=" ">
<path fill="none" stroke="#63b8ff" d="M440.1,-123.63C456.42,-113.96 477.48,-100.91 495.25,-88 513.11,-75.03 512.63,-63.9 533.25,-56 660.33,-7.28 1639.4,-9.43 1875.93,-10.67"/>
<polygon fill="#63b8ff" stroke="#63b8ff" points="1875.74,-14.17 1885.76,-10.73 1875.78,-7.17 1875.74,-14.17"/>
</a>
</g>
</g>
<!-- Node15&#45;&gt;Node13 -->
<g id="edge18_Node000015_Node000013" class="edge">
<title>Node15&#45;&gt;Node13</title>
<g id="a_edge18_Node000015_Node000013"><a xlink:title=" ">
<path fill="none" stroke="#63b8ff" d="M461.78,-123.53C497.64,-112.09 545.9,-96.71 579.71,-85.93"/>
<polygon fill="#63b8ff" stroke="#63b8ff" points="580.67,-89.29 589.14,-82.92 578.55,-82.62 580.67,-89.29"/>
</a>
</g>
</g>
<!-- Node16 -->
<g id="Node000016" class="node">
<title>Node16</title>
<g id="a_Node000016"><a xlink:href="_main_h_u_d_8h.html" target="_top" xlink:title=" ">
<polygon fill="white" stroke="#666666" points="313.75,-88 216.75,-88 216.75,-56 313.75,-56 313.75,-88"/>
<text text-anchor="start" x="224.75" y="-74.5" font-family="Arial" font-size="10.00">MultiplayerShooter</text>
<text text-anchor="middle" x="265.25" y="-62.5" font-family="Arial" font-size="10.00">/HUD/MainHUD.h</text>
</a>
</g>
</g>
<!-- Node15&#45;&gt;Node16 -->
<g id="edge19_Node000015_Node000016" class="edge">
<title>Node15&#45;&gt;Node16</title>
<g id="a_edge19_Node000015_Node000016"><a xlink:title=" ">
<path fill="none" stroke="#63b8ff" d="M378.55,-123.53C358.21,-114.46 332.29,-102.9 310.38,-93.13"/>
<polygon fill="#63b8ff" stroke="#63b8ff" points="311.93,-89.98 301.37,-89.11 309.08,-96.38 311.93,-89.98"/>
</a>
</g>
</g>
<!-- Node19 -->
<g id="Node000019" class="node">
<title>Node19</title>
<g id="a_Node000019"><a xlink:title=" ">
<polygon fill="#e0e0e0" stroke="#999999" points="486.62,-82 331.88,-82 331.88,-62 486.62,-62 486.62,-82"/>
<text text-anchor="middle" x="409.25" y="-68.5" font-family="Arial" font-size="10.00">CombatComponent.generated.h</text>
</a>
</g>
</g>
<!-- Node15&#45;&gt;Node19 -->
<g id="edge23_Node000015_Node000019" class="edge">
<title>Node15&#45;&gt;Node19</title>
<g id="a_edge23_Node000015_Node000019"><a xlink:title=" ">
<path fill="none" stroke="#63b8ff" d="M412.32,-123.69C411.78,-114.8 411.1,-103.46 410.51,-93.77"/>
<polygon fill="#63b8ff" stroke="#63b8ff" points="414,-93.6 409.91,-83.83 407.02,-94.02 414,-93.6"/>
</a>
</g>
</g>
<!-- Node16&#45;&gt;Node3 -->
<g id="edge20_Node000016_Node000003" class="edge">
<title>Node16&#45;&gt;Node3</title>
<g id="a_edge20_Node000016_Node000003"><a xlink:title=" ">
<path fill="none" stroke="#63b8ff" d="M314.14,-57.53C317.21,-56.94 320.26,-56.42 323.25,-56 633.5,-12.1 1637.03,-10.61 1875.88,-10.89"/>
<polygon fill="#63b8ff" stroke="#63b8ff" points="1875.8,-14.39 1885.81,-10.9 1875.81,-7.39 1875.8,-14.39"/>
</a>
</g>
</g>
<!-- Node17 -->
<g id="Node000017" class="node">
<title>Node17</title>
<g id="a_Node000017"><a xlink:title=" ">
<polygon fill="#e0e0e0" stroke="#999999" points="259.62,-20 134.88,-20 134.88,0 259.62,0 259.62,-20"/>
<text text-anchor="middle" x="197.25" y="-6.5" font-family="Arial" font-size="10.00">GameFramework/HUD.h</text>
</a>
</g>
</g>
<!-- Node16&#45;&gt;Node17 -->
<g id="edge21_Node000016_Node000017" class="edge">
<title>Node16&#45;&gt;Node17</title>
<g id="a_edge21_Node000016_Node000017"><a xlink:title=" ">
<path fill="none" stroke="#63b8ff" d="M247.74,-55.55C238.1,-47.04 226.12,-36.48 216.25,-27.77"/>
<polygon fill="#63b8ff" stroke="#63b8ff" points="218.86,-25.4 209.05,-21.41 214.23,-30.65 218.86,-25.4"/>
</a>
</g>
</g>
<!-- Node18 -->
<g id="Node000018" class="node">
<title>Node18</title>
<g id="a_Node000018"><a xlink:title=" ">
<polygon fill="#e0e0e0" stroke="#999999" points="391,-20 277.5,-20 277.5,0 391,0 391,-20"/>
<text text-anchor="middle" x="334.25" y="-6.5" font-family="Arial" font-size="10.00">MainHUD.generated.h</text>
</a>
</g>
</g>
<!-- Node16&#45;&gt;Node18 -->
<g id="edge22_Node000016_Node000018" class="edge">
<title>Node16&#45;&gt;Node18</title>
<g id="a_edge22_Node000016_Node000018"><a xlink:title=" ">
<path fill="none" stroke="#63b8ff" d="M283.02,-55.55C292.8,-47.04 304.95,-36.48 314.97,-27.77"/>
<polygon fill="#63b8ff" stroke="#63b8ff" points="317.04,-30.6 322.29,-21.4 312.45,-25.32 317.04,-30.6"/>
</a>
</g>
</g>
<!-- Node21&#45;&gt;Node3 -->
<g id="edge26_Node000021_Node000003" class="edge">
<title>Node21&#45;&gt;Node3</title>
<g id="a_edge26_Node000021_Node000003"><a xlink:title=" ">
<path fill="none" stroke="#63b8ff" d="M1486.04,-191.61C1503.62,-181.44 1524.41,-168.74 1542.25,-156 1560.22,-143.17 1560.95,-134.73 1580.25,-124 1678.21,-69.54 1806.48,-36.39 1876.4,-21.1"/>
<polygon fill="#63b8ff" stroke="#63b8ff" points="1876.99,-24.55 1886.03,-19.03 1875.52,-17.71 1876.99,-24.55"/>
</a>
</g>
</g>
<!-- Node22 -->
<g id="Node000022" class="node">
<title>Node22</title>
<g id="a_Node000022"><a xlink:title=" ">
<polygon fill="#e0e0e0" stroke="#999999" points="1533.25,-150 1361.25,-150 1361.25,-130 1533.25,-130 1533.25,-150"/>
<text text-anchor="middle" x="1447.25" y="-136.5" font-family="Arial" font-size="10.00">GameFramework/PlayerController.h</text>
</a>
</g>
</g>
<!-- Node21&#45;&gt;Node22 -->
<g id="edge27_Node000021_Node000022" class="edge">
<title>Node21&#45;&gt;Node22</title>
<g id="a_edge27_Node000021_Node000022"><a xlink:title=" ">
<path fill="none" stroke="#63b8ff" d="M1447.25,-191.79C1447.25,-182.32 1447.25,-171.2 1447.25,-161.78"/>
<polygon fill="#63b8ff" stroke="#63b8ff" points="1450.75,-161.82 1447.25,-151.82 1443.75,-161.82 1450.75,-161.82"/>
</a>
</g>
</g>
<!-- Node23 -->
<g id="Node000023" class="node">
<title>Node23</title>
<g id="a_Node000023"><a xlink:title=" ">
<polygon fill="#e0e0e0" stroke="#999999" points="1171.38,-150 1063.12,-150 1063.12,-130 1171.38,-130 1171.38,-150"/>
<text text-anchor="middle" x="1117.25" y="-136.5" font-family="Arial" font-size="10.00">Sound/SoundClass.h</text>
</a>
</g>
</g>
<!-- Node21&#45;&gt;Node23 -->
<g id="edge28_Node000021_Node000023" class="edge">
<title>Node21&#45;&gt;Node23</title>
<g id="a_edge28_Node000021_Node000023"><a xlink:title=" ">
<path fill="none" stroke="#63b8ff" d="M1379.67,-199.03C1325.63,-187.75 1247.98,-171.29 1180.25,-156 1175.99,-155.04 1171.58,-154.02 1167.15,-152.99"/>
<polygon fill="#63b8ff" stroke="#63b8ff" points="1168.21,-149.65 1157.67,-150.77 1166.61,-156.46 1168.21,-149.65"/>
</a>
</g>
</g>
<!-- Node24 -->
<g id="Node000024" class="node">
<title>Node24</title>
<g id="a_Node000024"><a xlink:title=" ">
<polygon fill="#e0e0e0" stroke="#999999" points="1342.88,-150 1189.62,-150 1189.62,-130 1342.88,-130 1342.88,-150"/>
<text text-anchor="middle" x="1266.25" y="-136.5" font-family="Arial" font-size="10.00">MyPlayerController.generated.h</text>
</a>
</g>
</g>
<!-- Node21&#45;&gt;Node24 -->
<g id="edge29_Node000021_Node000024" class="edge">
<title>Node21&#45;&gt;Node24</title>
<g id="a_edge29_Node000021_Node000024"><a xlink:title=" ">
<path fill="none" stroke="#63b8ff" d="M1393.43,-191.59C1363.34,-179.62 1326.74,-165.06 1300.54,-154.64"/>
<polygon fill="#63b8ff" stroke="#63b8ff" points="1301.99,-151.45 1291.41,-151.01 1299.41,-157.96 1301.99,-151.45"/>
</a>
</g>
</g>
<!-- Node27&#45;&gt;Node3 -->
<g id="edge33_Node000027_Node000003" class="edge">
<title>Node27&#45;&gt;Node3</title>
<g id="a_edge33_Node000027_Node000003"><a xlink:title=" ">
<path fill="none" stroke="#63b8ff" d="M1886.26,-197.83C1893.71,-186.78 1903.1,-171.16 1908.25,-156 1922.7,-113.47 1926.25,-60.48 1927.07,-31.79"/>
<polygon fill="#63b8ff" stroke="#63b8ff" points="1930.56,-32.02 1927.25,-21.96 1923.57,-31.89 1930.56,-32.02"/>
</a>
</g>
</g>
<!-- Node28 -->
<g id="Node000028" class="node">
<title>Node28</title>
<g id="a_Node000028"><a xlink:title=" ">
<polygon fill="#e0e0e0" stroke="#999999" points="1899.12,-150 1747.38,-150 1747.38,-130 1899.12,-130 1899.12,-150"/>
<text text-anchor="middle" x="1823.25" y="-136.5" font-family="Arial" font-size="10.00">GameFramework/GameState.h</text>
</a>
</g>
</g>
<!-- Node27&#45;&gt;Node28 -->
<g id="edge34_Node000027_Node000028" class="edge">
<title>Node27&#45;&gt;Node28</title>
<g id="a_edge34_Node000027_Node000028"><a xlink:title=" ">
<path fill="none" stroke="#63b8ff" d="M1864.22,-197.73C1856.12,-186.51 1845.07,-171.21 1836.48,-159.32"/>
<polygon fill="#63b8ff" stroke="#63b8ff" points="1839.55,-157.6 1830.86,-151.54 1833.88,-161.69 1839.55,-157.6"/>
</a>
</g>
</g>
<!-- Node29 -->
<g id="Node000029" class="node">
<title>Node29</title>
<g id="a_Node000029"><a xlink:title=" ">
<polygon fill="#e0e0e0" stroke="#999999" points="1729.5,-150 1589,-150 1589,-130 1729.5,-130 1729.5,-150"/>
<text text-anchor="middle" x="1659.25" y="-136.5" font-family="Arial" font-size="10.00">MainGameState.generated.h</text>
</a>
</g>
</g>
<!-- Node27&#45;&gt;Node29 -->
<g id="edge35_Node000027_Node000029" class="edge">
<title>Node27&#45;&gt;Node29</title>
<g id="a_edge35_Node000027_Node000029"><a xlink:title=" ">
<path fill="none" stroke="#63b8ff" d="M1828.91,-197.55C1790.04,-184.6 1735.15,-166.3 1698.44,-154.06"/>
<polygon fill="#63b8ff" stroke="#63b8ff" points="1699.69,-150.79 1689.1,-150.95 1697.48,-157.43 1699.69,-150.79"/>
</a>
</g>
</g>
<!-- Node30&#45;&gt;Node3 -->
<g id="edge37_Node000030_Node000003" class="edge">
<title>Node30&#45;&gt;Node3</title>
<g id="a_edge37_Node000030_Node000003"><a xlink:title=" ">
<path fill="none" stroke="#63b8ff" d="M2258.51,-197.64C2274.14,-178.89 2294.91,-146.86 2278.25,-124 2242.45,-74.87 2066.58,-36.44 1978.17,-19.88"/>
<polygon fill="#63b8ff" stroke="#63b8ff" points="1979.03,-16.48 1968.56,-18.1 1977.76,-23.36 1979.03,-16.48"/>
</a>
</g>
</g>
<!-- Node31 -->
<g id="Node000031" class="node">
<title>Node31</title>
<g id="a_Node000031"><a xlink:title=" ">
<polygon fill="#e0e0e0" stroke="#999999" points="2268.88,-150 2115.62,-150 2115.62,-130 2268.88,-130 2268.88,-150"/>
<text text-anchor="middle" x="2192.25" y="-136.5" font-family="Arial" font-size="10.00">GameFramework/PlayerState.h</text>
</a>
</g>
</g>
<!-- Node30&#45;&gt;Node31 -->
<g id="edge38_Node000030_Node000031" class="edge">
<title>Node30&#45;&gt;Node31</title>
<g id="a_edge38_Node000030_Node000031"><a xlink:title=" ">
<path fill="none" stroke="#63b8ff" d="M2233.22,-197.73C2225.12,-186.51 2214.07,-171.21 2205.48,-159.32"/>
<polygon fill="#63b8ff" stroke="#63b8ff" points="2208.55,-157.6 2199.86,-151.54 2202.88,-161.69 2208.55,-157.6"/>
</a>
</g>
</g>
<!-- Node32 -->
<g id="Node000032" class="node">
<title>Node32</title>
<g id="a_Node000032"><a xlink:title=" ">
<polygon fill="#e0e0e0" stroke="#999999" points="2097.25,-150 1955.25,-150 1955.25,-130 2097.25,-130 2097.25,-150"/>
<text text-anchor="middle" x="2026.25" y="-136.5" font-family="Arial" font-size="10.00">MainPlayerState.generated.h</text>
</a>
</g>
</g>
<!-- Node30&#45;&gt;Node32 -->
<g id="edge39_Node000030_Node000032" class="edge">
<title>Node30&#45;&gt;Node32</title>
<g id="a_edge39_Node000030_Node000032"><a xlink:title=" ">
<path fill="none" stroke="#63b8ff" d="M2197.48,-197.55C2158.25,-184.6 2102.85,-166.3 2065.8,-154.06"/>
<polygon fill="#63b8ff" stroke="#63b8ff" points="2066.96,-150.76 2056.36,-150.95 2064.76,-157.41 2066.96,-150.76"/>
</a>
</g>
</g>
<!-- Node34&#45;&gt;Node3 -->
<g id="edge42_Node000034_Node000003" class="edge">
<title>Node34&#45;&gt;Node3</title>
<g id="a_edge42_Node000034_Node000003"><a xlink:title=" ">
<path fill="none" stroke="#63b8ff" d="M2577.51,-206.08C2514.27,-198.84 2426.65,-184.38 2354.25,-156 2276.88,-125.67 2273.88,-85.67 2196.25,-56 2123.57,-28.23 2033.37,-17.57 1978.08,-13.49"/>
<polygon fill="#63b8ff" stroke="#63b8ff" points="1978.56,-10.02 1968.34,-12.83 1978.08,-17 1978.56,-10.02"/>
</a>
</g>
</g>
<!-- Node35 -->
<g id="Node000035" class="node">
<title>Node35</title>
<g id="a_Node000035"><a xlink:title=" ">
<polygon fill="#e0e0e0" stroke="#999999" points="2493.62,-150 2362.88,-150 2362.88,-130 2493.62,-130 2493.62,-150"/>
<text text-anchor="middle" x="2428.25" y="-136.5" font-family="Arial" font-size="10.00">UObject/NoExportTypes.h</text>
</a>
</g>
</g>
<!-- Node34&#45;&gt;Node35 -->
<g id="edge43_Node000034_Node000035" class="edge">
<title>Node34&#45;&gt;Node35</title>
<g id="a_edge43_Node000034_Node000035"><a xlink:title=" ">
<path fill="none" stroke="#63b8ff" d="M2612.05,-197.55C2569.67,-184.51 2509.7,-166.06 2469.93,-153.83"/>
<polygon fill="#63b8ff" stroke="#63b8ff" points="2471.06,-150.51 2460.48,-150.92 2469.01,-157.2 2471.06,-150.51"/>
</a>
</g>
</g>
<!-- Node36 -->
<g id="Node000036" class="node">
<title>Node36</title>
<g id="a_Node000036"><a xlink:title=" ">
<polygon fill="#e0e0e0" stroke="#999999" points="2657.12,-150 2511.38,-150 2511.38,-130 2657.12,-130 2657.12,-150"/>
<text text-anchor="middle" x="2584.25" y="-136.5" font-family="Arial" font-size="10.00">SQLiteDatabaseConnection.h</text>
</a>
</g>
</g>
<!-- Node34&#45;&gt;Node36 -->
<g id="edge44_Node000034_Node000036" class="edge">
<title>Node34&#45;&gt;Node36</title>
<g id="a_edge44_Node000034_Node000036"><a xlink:title=" ">
<path fill="none" stroke="#63b8ff" d="M2645.71,-197.73C2633.06,-186.06 2615.64,-169.98 2602.58,-157.92"/>
<polygon fill="#63b8ff" stroke="#63b8ff" points="2605.17,-155.55 2595.45,-151.34 2600.42,-160.69 2605.17,-155.55"/>
</a>
</g>
</g>
<!-- Node37 -->
<g id="Node000037" class="node">
<title>Node37</title>
<g id="a_Node000037"><a xlink:title=" ">
<polygon fill="#e0e0e0" stroke="#999999" points="2807,-156 2675.5,-156 2675.5,-124 2807,-124 2807,-156"/>
<text text-anchor="start" x="2683.5" y="-142.5" font-family="Arial" font-size="10.00">SQLiteCore/Public/Include</text>
<text text-anchor="middle" x="2741.25" y="-130.5" font-family="Arial" font-size="10.00">SQLite.h</text>
</a>
</g>
</g>
<!-- Node34&#45;&gt;Node37 -->
<g id="edge45_Node000034_Node000037" class="edge">
<title>Node34&#45;&gt;Node37</title>
<g id="a_edge45_Node000034_Node000037"><a xlink:title=" ">
<path fill="none" stroke="#63b8ff" d="M2679,-197.73C2689.72,-187.96 2703.82,-175.11 2715.89,-164.11"/>
<polygon fill="#63b8ff" stroke="#63b8ff" points="2718.1,-166.84 2723.13,-157.52 2713.38,-161.66 2718.1,-166.84"/>
</a>
</g>
</g>
<!-- Node38 -->
<g id="Node000038" class="node">
<title>Node38</title>
<g id="a_Node000038"><a xlink:title=" ">
<polygon fill="#e0e0e0" stroke="#999999" points="2991.62,-150 2824.88,-150 2824.88,-130 2991.62,-130 2991.62,-150"/>
<text text-anchor="middle" x="2908.25" y="-136.5" font-family="Arial" font-size="10.00">BuffDatabaseManager.generated.h</text>
</a>
</g>
</g>
<!-- Node34&#45;&gt;Node38 -->
<g id="edge46_Node000034_Node000038" class="edge">
<title>Node34&#45;&gt;Node38</title>
<g id="a_edge46_Node000034_Node000038"><a xlink:title=" ">
<path fill="none" stroke="#63b8ff" d="M2715.02,-197.55C2759.77,-184.46 2823.16,-165.9 2864.97,-153.67"/>
<polygon fill="#63b8ff" stroke="#63b8ff" points="2865.82,-157.06 2874.44,-150.9 2863.86,-150.35 2865.82,-157.06"/>
</a>
</g>
</g>
<!-- Node39&#45;&gt;Node3 -->
<g id="edge48_Node000039_Node000003" class="edge">
<title>Node39&#45;&gt;Node3</title>
<g id="a_edge48_Node000039_Node000003"><a xlink:title=" ">
<path fill="none" stroke="#63b8ff" d="M3008.98,-125.46C3006.03,-124.94 3003.11,-124.45 3000.25,-124 2609.39,-62.3 2132.96,-25.48 1978.33,-14.5"/>
<polygon fill="#63b8ff" stroke="#63b8ff" points="1978.63,-11.01 1968.41,-13.8 1978.14,-17.99 1978.63,-11.01"/>
</a>
</g>
</g>
<!-- Node40 -->
<g id="Node000040" class="node">
<title>Node40</title>
<g id="a_Node000040"><a xlink:href="_pickup_8h.html" target="_top" xlink:title=" ">
<polygon fill="white" stroke="#666666" points="3286.75,-88 3189.75,-88 3189.75,-56 3286.75,-56 3286.75,-88"/>
<text text-anchor="start" x="3197.75" y="-74.5" font-family="Arial" font-size="10.00">MultiplayerShooter</text>
<text text-anchor="middle" x="3238.25" y="-62.5" font-family="Arial" font-size="10.00">/Pickups/Pickup.h</text>
</a>
</g>
</g>
<!-- Node39&#45;&gt;Node40 -->
<g id="edge49_Node000039_Node000040" class="edge">
<title>Node39&#45;&gt;Node40</title>
<g id="a_edge49_Node000039_Node000040"><a xlink:title=" ">
<path fill="none" stroke="#63b8ff" d="M3110.4,-123.53C3133.77,-114.29 3163.66,-102.48 3188.67,-92.6"/>
<polygon fill="#63b8ff" stroke="#63b8ff" points="3189.63,-95.98 3197.64,-89.05 3187.06,-89.47 3189.63,-95.98"/>
</a>
</g>
</g>
<!-- Node43 -->
<g id="Node000043" class="node">
<title>Node43</title>
<g id="a_Node000043"><a xlink:title=" ">
<polygon fill="#e0e0e0" stroke="#999999" points="3133.5,-82 3005,-82 3005,-62 3133.5,-62 3133.5,-82"/>
<text text-anchor="middle" x="3069.25" y="-68.5" font-family="Arial" font-size="10.00">HealthPickup.generated.h</text>
</a>
</g>
</g>
<!-- Node39&#45;&gt;Node43 -->
<g id="edge53_Node000039_Node000043" class="edge">
<title>Node39&#45;&gt;Node43</title>
<g id="a_edge53_Node000039_Node000043"><a xlink:title=" ">
<path fill="none" stroke="#63b8ff" d="M3070.79,-123.69C3070.52,-114.8 3070.17,-103.46 3069.88,-93.77"/>
<polygon fill="#63b8ff" stroke="#63b8ff" points="3073.38,-93.72 3069.58,-83.83 3066.38,-93.93 3073.38,-93.72"/>
</a>
</g>
</g>
<!-- Node40&#45;&gt;Node3 -->
<g id="edge50_Node000040_Node000003" class="edge">
<title>Node40&#45;&gt;Node3</title>
<g id="a_edge50_Node000040_Node000003"><a xlink:title=" ">
<path fill="none" stroke="#63b8ff" d="M3189.59,-58.41C3184.77,-57.47 3179.93,-56.64 3175.25,-56 2938.16,-23.82 2182.21,-13.68 1978.33,-11.5"/>
<polygon fill="#63b8ff" stroke="#63b8ff" points="1978.64,-8 1968.6,-11.39 1978.56,-15 1978.64,-8"/>
</a>
</g>
</g>
<!-- Node41 -->
<g id="Node000041" class="node">
<title>Node41</title>
<g id="a_Node000041"><a xlink:title=" ">
<polygon fill="#e0e0e0" stroke="#999999" points="3366,-20 3240.5,-20 3240.5,0 3366,0 3366,-20"/>
<text text-anchor="middle" x="3303.25" y="-6.5" font-family="Arial" font-size="10.00">GameFramework/Actor.h</text>
</a>
</g>
</g>
<!-- Node40&#45;&gt;Node41 -->
<g id="edge51_Node000040_Node000041" class="edge">
<title>Node40&#45;&gt;Node41</title>
<g id="a_edge51_Node000040_Node000041"><a xlink:title=" ">
<path fill="none" stroke="#63b8ff" d="M3254.99,-55.55C3264.11,-47.13 3275.42,-36.69 3284.79,-28.04"/>
<polygon fill="#63b8ff" stroke="#63b8ff" points="3286.97,-30.79 3291.95,-21.43 3282.22,-25.65 3286.97,-30.79"/>
</a>
</g>
</g>
<!-- Node42 -->
<g id="Node000042" class="node">
<title>Node42</title>
<g id="a_Node000042"><a xlink:title=" ">
<polygon fill="#e0e0e0" stroke="#999999" points="3222.25,-20 3122.25,-20 3122.25,0 3222.25,0 3222.25,-20"/>
<text text-anchor="middle" x="3172.25" y="-6.5" font-family="Arial" font-size="10.00">Pickup.generated.h</text>
</a>
</g>
</g>
<!-- Node40&#45;&gt;Node42 -->
<g id="edge52_Node000040_Node000042" class="edge">
<title>Node40&#45;&gt;Node42</title>
<g id="a_edge52_Node000040_Node000042"><a xlink:title=" ">
<path fill="none" stroke="#63b8ff" d="M3221.25,-55.55C3211.99,-47.13 3200.51,-36.69 3190.99,-28.04"/>
<polygon fill="#63b8ff" stroke="#63b8ff" points="3193.47,-25.56 3183.72,-21.43 3188.76,-30.74 3193.47,-25.56"/>
</a>
</g>
</g>
</g>
</svg>

<g id="navigator" transform="translate(0 0)" fill="#404254">
  <rect fill="#f2f5e9" fill-opacity="0.5" stroke="#606060" stroke-width=".5" x="0" y="0" width="60" height="60"/>
  <use id="zoomplus" xlink:href="#zoomPlus" x="17" y="9" onmousedown="handleZoom(evt,'in')"/>
  <use id="zoomminus" xlink:href="#zoomMin" x="42" y="9" onmousedown="handleZoom(evt,'out')"/>
  <use id="reset" xlink:href="#resetDef" x="30" y="36" onmousedown="handleReset()"/>
   <use id="arrowup" xlink:href="#arrowUp" x="0" y="0" onmousedown="handlePan(0,-1)"/>
  <use id="arrowright" xlink:href="#arrowRight" x="0" y="0" onmousedown="handlePan(1,0)"/>
  <use id="arrowdown" xlink:href="#arrowDown" x="0" y="0" onmousedown="handlePan(0,1)"/>
  <use id="arrowleft" xlink:href="#arrowLeft" x="0" y="0" onmousedown="handlePan(-1,0)"/>
</g>
<svg viewBox="0 0 15 15" width="100%" height="30px" preserveAspectRatio="xMaxYMin meet">
 <g id="arrow_out" transform="scale(0.3 0.3)">
  <a xlink:href="_main_game_mode_8cpp__incl_org.svg" target="_base">
   <rect id="button" ry="5" rx="5" y="6" x="6" height="38" width="38"
        fill="#f2f5e9" fill-opacity="0.5" stroke="#606060" stroke-width="1.0"/>
   <path id="arrow"
     d="M 11.500037,31.436501 C 11.940474,20.09759 22.043105,11.32322 32.158766,21.979434 L 37.068811,17.246167 C 37.068811,17.246167 37.088388,32 37.088388,32 L 22.160133,31.978069 C 22.160133,31.978069 26.997745,27.140456 26.997745,27.140456 C 18.528582,18.264221 13.291696,25.230495 11.500037,31.436501 z"
     style="fill:#404040;"/>
  </a>
 </g>
</svg>

<style type='text/css'>
<![CDATA[
[data-mouse-over-selected='false'] { opacity: 0.7; }
[data-mouse-over-selected='true']  { opacity: 1.0; }
]]>
</style>
<script type="application/ecmascript"><![CDATA[
document.addEventListener('DOMContentLoaded', (event) => {
  highlightEdges();
  highlightAdjacentNodes();
});
]]></script>
</svg>
