<?xml version="1.0" encoding="UTF-8" standalone="no"?>
<!DOCTYPE svg PUBLIC "-//W3C//DTD SVG 1.1//EN"
 "http://www.w3.org/Graphics/SVG/1.1/DTD/svg11.dtd">
<!-- Generated by graphviz version 12.2.1 (20241206.2353)
 -->
<!-- Title: MultiplayerShooter/GameState/MainGameState.cpp Pages: 1 -->
<svg width="752pt" height="164pt"
 viewBox="0.00 0.00 751.88 164.00" xmlns="http://www.w3.org/2000/svg" xmlns:xlink="http://www.w3.org/1999/xlink">
<g id="graph0" class="graph" transform="scale(1 1) rotate(0) translate(4 160)">
<title>MultiplayerShooter/GameState/MainGameState.cpp</title>
<!-- Node1 -->
<g id="Node000001" class="node">
<title>Node1</title>
<g id="a_Node000001"><a xlink:title=" ">
<polygon fill="#999999" stroke="#666666" points="439.25,-156 278.5,-156 278.5,-124 439.25,-124 439.25,-156"/>
<text text-anchor="start" x="286.5" y="-142.5" font-family="Arial" font-size="10.00">MultiplayerShooter</text>
<text text-anchor="middle" x="358.88" y="-130.5" font-family="Arial" font-size="10.00">/GameState/MainGameState.cpp</text>
</a>
</g>
</g>
<!-- Node2 -->
<g id="Node000002" class="node">
<title>Node2</title>
<g id="a_Node000002"><a xlink:href="_main_game_state_8h.html" target="_top" xlink:title=" ">
<polygon fill="white" stroke="#666666" points="286.25,-82 191.5,-82 191.5,-62 286.25,-62 286.25,-82"/>
<text text-anchor="middle" x="238.88" y="-68.5" font-family="Arial" font-size="10.00">MainGameState.h</text>
</a>
</g>
</g>
<!-- Node1&#45;&gt;Node2 -->
<g id="edge1_Node000001_Node000002" class="edge">
<title>Node1&#45;&gt;Node2</title>
<g id="a_edge1_Node000001_Node000002"><a xlink:title=" ">
<path fill="none" stroke="#63b8ff" d="M330.74,-123.53C311.22,-112.79 285.36,-98.56 266.05,-87.94"/>
<polygon fill="#63b8ff" stroke="#63b8ff" points="267.85,-84.94 257.4,-83.19 264.48,-91.08 267.85,-84.94"/>
</a>
</g>
</g>
<!-- Node6 -->
<g id="Node000006" class="node">
<title>Node6</title>
<g id="a_Node000006"><a xlink:title=" ">
<polygon fill="#e0e0e0" stroke="#999999" points="413,-82 304.75,-82 304.75,-62 413,-62 413,-82"/>
<text text-anchor="middle" x="358.88" y="-68.5" font-family="Arial" font-size="10.00">Net/UnrealNetwork.h</text>
</a>
</g>
</g>
<!-- Node1&#45;&gt;Node6 -->
<g id="edge5_Node000001_Node000006" class="edge">
<title>Node1&#45;&gt;Node6</title>
<g id="a_edge5_Node000001_Node000006"><a xlink:title=" ">
<path fill="none" stroke="#63b8ff" d="M358.88,-123.69C358.88,-114.8 358.88,-103.46 358.88,-93.77"/>
<polygon fill="#63b8ff" stroke="#63b8ff" points="362.38,-93.83 358.88,-83.83 355.38,-93.83 362.38,-93.83"/>
</a>
</g>
</g>
<!-- Node7 -->
<g id="Node000007" class="node">
<title>Node7</title>
<g id="a_Node000007"><a xlink:href="_main_player_state_8h.html" target="_top" xlink:title=" ">
<polygon fill="white" stroke="#666666" points="584.5,-88 431.25,-88 431.25,-56 584.5,-56 584.5,-88"/>
<text text-anchor="start" x="439.25" y="-74.5" font-family="Arial" font-size="10.00">MultiplayerShooter</text>
<text text-anchor="middle" x="507.88" y="-62.5" font-family="Arial" font-size="10.00">/PlayerState/MainPlayerState.h</text>
</a>
</g>
</g>
<!-- Node1&#45;&gt;Node7 -->
<g id="edge6_Node000001_Node000007" class="edge">
<title>Node1&#45;&gt;Node7</title>
<g id="a_edge6_Node000001_Node000007"><a xlink:title=" ">
<path fill="none" stroke="#63b8ff" d="M393.81,-123.53C414.28,-114.46 440.38,-102.9 462.44,-93.13"/>
<polygon fill="#63b8ff" stroke="#63b8ff" points="463.79,-96.35 471.52,-89.1 460.96,-89.95 463.79,-96.35"/>
</a>
</g>
</g>
<!-- Node3 -->
<g id="Node000003" class="node">
<title>Node3</title>
<g id="a_Node000003"><a xlink:title=" ">
<polygon fill="#e0e0e0" stroke="#999999" points="410.38,-20 331.38,-20 331.38,0 410.38,0 410.38,-20"/>
<text text-anchor="middle" x="370.88" y="-6.5" font-family="Arial" font-size="10.00">CoreMinimal.h</text>
</a>
</g>
</g>
<!-- Node2&#45;&gt;Node3 -->
<g id="edge2_Node000002_Node000003" class="edge">
<title>Node2&#45;&gt;Node3</title>
<g id="a_edge2_Node000002_Node000003"><a xlink:title=" ">
<path fill="none" stroke="#63b8ff" d="M259.5,-61.62C281.1,-51.81 315.27,-36.27 340.07,-25"/>
<polygon fill="#63b8ff" stroke="#63b8ff" points="341.36,-28.26 349.02,-20.94 338.46,-21.89 341.36,-28.26"/>
</a>
</g>
</g>
<!-- Node4 -->
<g id="Node000004" class="node">
<title>Node4</title>
<g id="a_Node000004"><a xlink:title=" ">
<polygon fill="#e0e0e0" stroke="#999999" points="151.75,-20 0,-20 0,0 151.75,0 151.75,-20"/>
<text text-anchor="middle" x="75.88" y="-6.5" font-family="Arial" font-size="10.00">GameFramework/GameState.h</text>
</a>
</g>
</g>
<!-- Node2&#45;&gt;Node4 -->
<g id="edge3_Node000002_Node000004" class="edge">
<title>Node2&#45;&gt;Node4</title>
<g id="a_edge3_Node000002_Node000004"><a xlink:title=" ">
<path fill="none" stroke="#63b8ff" d="M213.41,-61.62C186.21,-51.62 142.89,-35.67 112.14,-24.35"/>
<polygon fill="#63b8ff" stroke="#63b8ff" points="113.45,-21.1 102.85,-20.93 111.03,-27.67 113.45,-21.1"/>
</a>
</g>
</g>
<!-- Node5 -->
<g id="Node000005" class="node">
<title>Node5</title>
<g id="a_Node000005"><a xlink:title=" ">
<polygon fill="#e0e0e0" stroke="#999999" points="310.12,-20 169.62,-20 169.62,0 310.12,0 310.12,-20"/>
<text text-anchor="middle" x="239.88" y="-6.5" font-family="Arial" font-size="10.00">MainGameState.generated.h</text>
</a>
</g>
</g>
<!-- Node2&#45;&gt;Node5 -->
<g id="edge4_Node000002_Node000005" class="edge">
<title>Node2&#45;&gt;Node5</title>
<g id="a_edge4_Node000002_Node000005"><a xlink:title=" ">
<path fill="none" stroke="#63b8ff" d="M239.03,-61.62C239.17,-53.56 239.36,-41.65 239.53,-31.41"/>
<polygon fill="#63b8ff" stroke="#63b8ff" points="243.03,-31.68 239.7,-21.63 236.03,-31.57 243.03,-31.68"/>
</a>
</g>
</g>
<!-- Node7&#45;&gt;Node3 -->
<g id="edge7_Node000007_Node000003" class="edge">
<title>Node7&#45;&gt;Node3</title>
<g id="a_edge7_Node000007_Node000003"><a xlink:title=" ">
<path fill="none" stroke="#63b8ff" d="M472.59,-55.55C450.99,-46.09 423.57,-34.08 402.64,-24.91"/>
<polygon fill="#63b8ff" stroke="#63b8ff" points="404.31,-21.82 393.74,-21.02 401.5,-28.23 404.31,-21.82"/>
</a>
</g>
</g>
<!-- Node8 -->
<g id="Node000008" class="node">
<title>Node8</title>
<g id="a_Node000008"><a xlink:title=" ">
<polygon fill="#e0e0e0" stroke="#999999" points="583.5,-20 430.25,-20 430.25,0 583.5,0 583.5,-20"/>
<text text-anchor="middle" x="506.88" y="-6.5" font-family="Arial" font-size="10.00">GameFramework/PlayerState.h</text>
</a>
</g>
</g>
<!-- Node7&#45;&gt;Node8 -->
<g id="edge8_Node000007_Node000008" class="edge">
<title>Node7&#45;&gt;Node8</title>
<g id="a_edge8_Node000007_Node000008"><a xlink:title=" ">
<path fill="none" stroke="#63b8ff" d="M507.62,-55.55C507.5,-48.34 507.35,-39.66 507.22,-31.88"/>
<polygon fill="#63b8ff" stroke="#63b8ff" points="510.72,-31.86 507.06,-21.92 503.72,-31.98 510.72,-31.86"/>
</a>
</g>
</g>
<!-- Node9 -->
<g id="Node000009" class="node">
<title>Node9</title>
<g id="a_Node000009"><a xlink:title=" ">
<polygon fill="#e0e0e0" stroke="#999999" points="743.88,-20 601.88,-20 601.88,0 743.88,0 743.88,-20"/>
<text text-anchor="middle" x="672.88" y="-6.5" font-family="Arial" font-size="10.00">MainPlayerState.generated.h</text>
</a>
</g>
</g>
<!-- Node7&#45;&gt;Node9 -->
<g id="edge9_Node000007_Node000009" class="edge">
<title>Node7&#45;&gt;Node9</title>
<g id="a_edge9_Node000007_Node000009"><a xlink:title=" ">
<path fill="none" stroke="#63b8ff" d="M550.37,-55.55C576.98,-45.87 610.93,-33.53 636.34,-24.29"/>
<polygon fill="#63b8ff" stroke="#63b8ff" points="637.38,-27.63 645.58,-20.93 634.99,-21.05 637.38,-27.63"/>
</a>
</g>
</g>
</g>
</svg>
