<?xml version="1.0" encoding="UTF-8" standalone="no"?>
<!DOCTYPE svg PUBLIC "-//W3C//DTD SVG 1.1//EN"
 "http://www.w3.org/Graphics/SVG/1.1/DTD/svg11.dtd">
<!-- Generated by graphviz version 12.2.1 (20241206.2353)
 -->
<!-- Title: MultiplayerShooter/GameMode/MainGameMode.h Pages: 1 -->
<svg width="536pt" height="96pt"
 viewBox="0.00 0.00 536.12 96.00" xmlns="http://www.w3.org/2000/svg" xmlns:xlink="http://www.w3.org/1999/xlink">
<g id="graph0" class="graph" transform="scale(1 1) rotate(0) translate(4 92)">
<title>MultiplayerShooter/GameMode/MainGameMode.h</title>
<!-- Node1 -->
<g id="Node000001" class="node">
<title>Node1</title>
<g id="a_Node000001"><a xlink:title=" ">
<polygon fill="#999999" stroke="#666666" points="295.38,-88 143.62,-88 143.62,-56 295.38,-56 295.38,-88"/>
<text text-anchor="start" x="151.62" y="-74.5" font-family="Arial" font-size="10.00">MultiplayerShooter</text>
<text text-anchor="middle" x="219.5" y="-62.5" font-family="Arial" font-size="10.00">/GameMode/MainGameMode.h</text>
</a>
</g>
</g>
<!-- Node2 -->
<g id="Node000002" class="node">
<title>Node2</title>
<g id="a_Node000002"><a xlink:title=" ">
<polygon fill="#e0e0e0" stroke="#999999" points="79,-20 0,-20 0,0 79,0 79,-20"/>
<text text-anchor="middle" x="39.5" y="-6.5" font-family="Arial" font-size="10.00">CoreMinimal.h</text>
</a>
</g>
</g>
<!-- Node1&#45;&gt;Node2 -->
<g id="edge1_Node000001_Node000002" class="edge">
<title>Node1&#45;&gt;Node2</title>
<g id="a_edge1_Node000001_Node000002"><a xlink:title=" ">
<path fill="none" stroke="#63b8ff" d="M173.15,-55.55C143.94,-45.81 106.65,-33.38 78.88,-24.13"/>
<polygon fill="#63b8ff" stroke="#63b8ff" points="80.02,-20.82 69.42,-20.97 77.8,-27.46 80.02,-20.82"/>
</a>
</g>
</g>
<!-- Node3 -->
<g id="Node000003" class="node">
<title>Node3</title>
<g id="a_Node000003"><a xlink:title=" ">
<polygon fill="#e0e0e0" stroke="#999999" points="197.88,-20 97.12,-20 97.12,0 197.88,0 197.88,-20"/>
<text text-anchor="middle" x="147.5" y="-6.5" font-family="Arial" font-size="10.00">Sound/SoundCue.h</text>
</a>
</g>
</g>
<!-- Node1&#45;&gt;Node3 -->
<g id="edge2_Node000001_Node000003" class="edge">
<title>Node1&#45;&gt;Node3</title>
<g id="a_edge2_Node000001_Node000003"><a xlink:title=" ">
<path fill="none" stroke="#63b8ff" d="M200.96,-55.55C190.75,-47.04 178.07,-36.48 167.62,-27.77"/>
<polygon fill="#63b8ff" stroke="#63b8ff" points="169.88,-25.09 159.95,-21.38 165.39,-30.47 169.88,-25.09"/>
</a>
</g>
</g>
<!-- Node4 -->
<g id="Node000004" class="node">
<title>Node4</title>
<g id="a_Node000004"><a xlink:title=" ">
<polygon fill="#e0e0e0" stroke="#999999" points="368.75,-20 216.25,-20 216.25,0 368.75,0 368.75,-20"/>
<text text-anchor="middle" x="292.5" y="-6.5" font-family="Arial" font-size="10.00">GameFramework/GameMode.h</text>
</a>
</g>
</g>
<!-- Node1&#45;&gt;Node4 -->
<g id="edge3_Node000001_Node000004" class="edge">
<title>Node1&#45;&gt;Node4</title>
<g id="a_edge3_Node000001_Node000004"><a xlink:title=" ">
<path fill="none" stroke="#63b8ff" d="M238.3,-55.55C248.75,-46.95 261.77,-36.26 272.42,-27.5"/>
<polygon fill="#63b8ff" stroke="#63b8ff" points="274.38,-30.42 279.88,-21.37 269.94,-25.01 274.38,-30.42"/>
</a>
</g>
</g>
<!-- Node5 -->
<g id="Node000005" class="node">
<title>Node5</title>
<g id="a_Node000005"><a xlink:title=" ">
<polygon fill="#e0e0e0" stroke="#999999" points="528.12,-20 386.88,-20 386.88,0 528.12,0 528.12,-20"/>
<text text-anchor="middle" x="457.5" y="-6.5" font-family="Arial" font-size="10.00">MainGameMode.generated.h</text>
</a>
</g>
</g>
<!-- Node1&#45;&gt;Node5 -->
<g id="edge4_Node000001_Node000005" class="edge">
<title>Node1&#45;&gt;Node5</title>
<g id="a_edge4_Node000001_Node000005"><a xlink:title=" ">
<path fill="none" stroke="#63b8ff" d="M280.79,-55.55C320.61,-45.51 371.8,-32.61 408.82,-23.27"/>
<polygon fill="#63b8ff" stroke="#63b8ff" points="409.52,-26.7 418.36,-20.87 407.81,-19.92 409.52,-26.7"/>
</a>
</g>
</g>
</g>
</svg>
