<?xml version="1.0" encoding="UTF-8" standalone="no"?>
<!DOCTYPE svg PUBLIC "-//W3C//DTD SVG 1.1//EN"
 "http://www.w3.org/Graphics/SVG/1.1/DTD/svg11.dtd">
<!-- Generated by graphviz version 12.2.1 (20241206.2353)
 -->
<!-- Title: MultiplayerShooter/HUD/MainHUD.cpp Pages: 1 -->
<!--zoomable 152 -->

<svg id="main" version="1.1" xmlns="http://www.w3.org/2000/svg" xmlns:xlink="http://www.w3.org/1999/xlink" xml:space="preserve" onload="init(evt)">

<style type="text/css"><![CDATA[
.node, .edge {opacity: 0.7;}
.node.selected, .edge.selected {opacity: 1;}
.edge:hover path { stroke: red; }
.edge:hover polygon { stroke: red; fill: red; }
]]></style>

<defs>
  <circle id="rim" cx="0" cy="0" r="7"/>
  <circle id="rim2" cx="0" cy="0" r="3.5"/>
  <g id="zoomPlus">
    <use xlink:href="#rim" fill="#404040"><set attributeName="fill" to="#808080" begin="zoomplus.mouseover" end="zoomplus.mouseout"/></use>
    <path d="M-4,0h8M0,-4v8" fill="none" stroke="white" stroke-width="1.5" pointer-events="none"/>
  </g>
  <g id="zoomMin">
    <use xlink:href="#rim" fill="#404040"><set attributeName="fill" to="#808080" begin="zoomminus.mouseover" end="zoomminus.mouseout"/></use>
    <path d="M-4,0h8" fill="none" stroke="white" stroke-width="1.5" pointer-events="none"/>
  </g>
  <g id="arrowUp" transform="translate(30 24)">
    <use xlink:href="#rim"/>
    <path pointer-events="none" fill="none" stroke="white" stroke-width="1.5" d="M0,-3.0v7 M-2.5,-0.5L0,-3.0L2.5,-0.5"/>
  </g>
  <g id="arrowRight" transform="rotate(90) translate(36 -43)">
    <use xlink:href="#rim"/>
    <path pointer-events="none" fill="none" stroke="white" stroke-width="1.5" d="M0,-3.0v7 M-2.5,-0.5L0,-3.0L2.5,-0.5"/>
  </g>
  <g id="arrowDown" transform="rotate(180) translate(-30 -48)">
    <use xlink:href="#rim"/>
    <path pointer-events="none" fill="none" stroke="white" stroke-width="1.5" d="M0,-3.0v7 M-2.5,-0.5L0,-3.0L2.5,-0.5"/>
  </g>
  <g id="arrowLeft" transform="rotate(270) translate(-36 17)">
    <use xlink:href="#rim"/>
    <path pointer-events="none" fill="none" stroke="white" stroke-width="1.5" d="M0,-3.0v7 M-2.5,-0.5L0,-3.0L2.5,-0.5"/>
  </g>
  <g id="resetDef">
    <use xlink:href="#rim2" fill="#404040"><set attributeName="fill" to="#808080" begin="reset.mouseover" end="reset.mouseout"/></use>
  </g>
</defs>
<script type="application/ecmascript">
var viewWidth = 1069;
var viewHeight = 152;
var sectionId = 'dynsection-0';
</script>
<script type="application/ecmascript" xlink:href="svg.min.js"/>
<svg id="graph" class="graph">
<g id="viewport">
<title>MultiplayerShooter/HUD/MainHUD.cpp</title>
<!-- Node1 -->
<g id="Node000001" class="node">
<title>Node1</title>
<g id="a_Node000001"><a xlink:title=" ">
<polygon fill="#999999" stroke="#666666" points="600,-144 493.25,-144 493.25,-112 600,-112 600,-144"/>
<text text-anchor="start" x="501.25" y="-130.5" font-family="Arial" font-size="10.00">MultiplayerShooter</text>
<text text-anchor="middle" x="546.62" y="-118.5" font-family="Arial" font-size="10.00">/HUD/MainHUD.cpp</text>
</a>
</g>
</g>
<!-- Node2 -->
<g id="Node000002" class="node">
<title>Node2</title>
<g id="a_Node000002"><a xlink:href="_main_h_u_d_8h.html" target="_top" xlink:title=" ">
<polygon fill="white" stroke="#666666" points="674.5,-76 606.75,-76 606.75,-56 674.5,-56 674.5,-76"/>
<text text-anchor="middle" x="640.62" y="-62.5" font-family="Arial" font-size="10.00">MainHUD.h</text>
</a>
</g>
</g>
<!-- Node1&#45;&gt;Node2 -->
<g id="edge1_Node000001_Node000002" class="edge">
<title>Node1&#45;&gt;Node2</title>
<g id="a_edge1_Node000001_Node000002"><a xlink:title=" ">
<path fill="none" stroke="#63b8ff" d="M570.83,-111.55C584.84,-102.61 602.41,-91.39 616.42,-82.45"/>
<polygon fill="#63b8ff" stroke="#63b8ff" points="618.06,-85.55 624.61,-77.22 614.3,-79.65 618.06,-85.55"/>
</a>
</g>
</g>
<!-- Node6 -->
<g id="Node000006" class="node">
<title>Node6</title>
<g id="a_Node000006"><a xlink:title=" ">
<polygon fill="#e0e0e0" stroke="#999999" points="864.62,-76 692.62,-76 692.62,-56 864.62,-56 864.62,-76"/>
<text text-anchor="middle" x="778.62" y="-62.5" font-family="Arial" font-size="10.00">GameFramework/PlayerController.h</text>
</a>
</g>
</g>
<!-- Node1&#45;&gt;Node6 -->
<g id="edge5_Node000001_Node000006" class="edge">
<title>Node1&#45;&gt;Node6</title>
<g id="a_edge5_Node000001_Node000006"><a xlink:title=" ">
<path fill="none" stroke="#63b8ff" d="M600.43,-113.08C640.03,-102.84 693.35,-89.05 731.32,-79.23"/>
<polygon fill="#63b8ff" stroke="#63b8ff" points="731.82,-82.72 740.62,-76.83 730.06,-75.94 731.82,-82.72"/>
</a>
</g>
</g>
<!-- Node7 -->
<g id="Node000007" class="node">
<title>Node7</title>
<g id="a_Node000007"><a xlink:href="_character_overlay_8h.html" target="_top" xlink:title=" ">
<polygon fill="white" stroke="#666666" points="486.62,-76 386.62,-76 386.62,-56 486.62,-56 486.62,-76"/>
<text text-anchor="middle" x="436.62" y="-62.5" font-family="Arial" font-size="10.00">CharacterOverlay.h</text>
</a>
</g>
</g>
<!-- Node1&#45;&gt;Node7 -->
<g id="edge6_Node000001_Node000007" class="edge">
<title>Node1&#45;&gt;Node7</title>
<g id="a_edge6_Node000001_Node000007"><a xlink:title=" ">
<path fill="none" stroke="#63b8ff" d="M518.3,-111.55C501.43,-102.35 480.14,-90.74 463.53,-81.68"/>
<polygon fill="#63b8ff" stroke="#63b8ff" points="465.66,-78.85 455.2,-77.13 462.3,-84.99 465.66,-78.85"/>
</a>
</g>
</g>
<!-- Node10 -->
<g id="Node000010" class="node">
<title>Node10</title>
<g id="a_Node000010"><a xlink:href="_announcement_8h.html" target="_top" xlink:title=" ">
<polygon fill="white" stroke="#666666" points="305.38,-76 215.88,-76 215.88,-56 305.38,-56 305.38,-76"/>
<text text-anchor="middle" x="260.62" y="-62.5" font-family="Arial" font-size="10.00">Announcement.h</text>
</a>
</g>
</g>
<!-- Node1&#45;&gt;Node10 -->
<g id="edge10_Node000001_Node000010" class="edge">
<title>Node1&#45;&gt;Node10</title>
<g id="a_edge10_Node000001_Node000010"><a xlink:title=" ">
<path fill="none" stroke="#63b8ff" d="M492.83,-115.71C442.59,-105.17 367.88,-89.5 316.86,-78.8"/>
<polygon fill="#63b8ff" stroke="#63b8ff" points="317.7,-75.4 307.19,-76.77 316.26,-82.25 317.7,-75.4"/>
</a>
</g>
</g>
<!-- Node12 -->
<g id="Node000012" class="node">
<title>Node12</title>
<g id="a_Node000012"><a xlink:href="_chat_8h.html" target="_top" xlink:title=" ">
<polygon fill="white" stroke="#666666" points="368.25,-76 323,-76 323,-56 368.25,-56 368.25,-76"/>
<text text-anchor="middle" x="345.62" y="-62.5" font-family="Arial" font-size="10.00">Chat.h</text>
</a>
</g>
</g>
<!-- Node1&#45;&gt;Node12 -->
<g id="edge14_Node000001_Node000012" class="edge">
<title>Node1&#45;&gt;Node12</title>
<g id="a_edge14_Node000001_Node000012"><a xlink:title=" ">
<path fill="none" stroke="#63b8ff" d="M494.86,-111.55C458.5,-100.69 410.91,-86.49 379.35,-77.07"/>
<polygon fill="#63b8ff" stroke="#63b8ff" points="380.54,-73.77 369.95,-74.26 378.53,-80.48 380.54,-73.77"/>
</a>
</g>
</g>
<!-- Node14 -->
<g id="Node000014" class="node">
<title>Node14</title>
<g id="a_Node000014"><a xlink:href="_settings_menu_8h.html" target="_top" xlink:title=" ">
<polygon fill="white" stroke="#666666" points="588.75,-76 504.5,-76 504.5,-56 588.75,-56 588.75,-76"/>
<text text-anchor="middle" x="546.62" y="-62.5" font-family="Arial" font-size="10.00">SettingsMenu.h</text>
</a>
</g>
</g>
<!-- Node1&#45;&gt;Node14 -->
<g id="edge18_Node000001_Node000014" class="edge">
<title>Node1&#45;&gt;Node14</title>
<g id="a_edge18_Node000001_Node000014"><a xlink:title=" ">
<path fill="none" stroke="#63b8ff" d="M546.62,-111.55C546.62,-104.34 546.62,-95.66 546.62,-87.88"/>
<polygon fill="#63b8ff" stroke="#63b8ff" points="550.13,-87.92 546.63,-77.92 543.13,-87.92 550.13,-87.92"/>
</a>
</g>
</g>
<!-- Node16 -->
<g id="Node000016" class="node">
<title>Node16</title>
<g id="a_Node000016"><a xlink:title=" ">
<polygon fill="#e0e0e0" stroke="#999999" points="1008.75,-76 882.5,-76 882.5,-56 1008.75,-56 1008.75,-76"/>
<text text-anchor="middle" x="945.62" y="-62.5" font-family="Arial" font-size="10.00">Components/TextBlock.h</text>
</a>
</g>
</g>
<!-- Node1&#45;&gt;Node16 -->
<g id="edge22_Node000001_Node000016" class="edge">
<title>Node1&#45;&gt;Node16</title>
<g id="a_edge22_Node000001_Node000016"><a xlink:title=" ">
<path fill="none" stroke="#63b8ff" d="M600.44,-118.91C670.28,-108.41 792.51,-90.02 871.21,-78.19"/>
<polygon fill="#63b8ff" stroke="#63b8ff" points="871.63,-81.67 881,-76.72 870.59,-74.74 871.63,-81.67"/>
</a>
</g>
</g>
<!-- Node3 -->
<g id="Node000003" class="node">
<title>Node3</title>
<g id="a_Node000003"><a xlink:title=" ">
<polygon fill="#e0e0e0" stroke="#999999" points="476.12,-20 397.12,-20 397.12,0 476.12,0 476.12,-20"/>
<text text-anchor="middle" x="436.62" y="-6.5" font-family="Arial" font-size="10.00">CoreMinimal.h</text>
</a>
</g>
</g>
<!-- Node2&#45;&gt;Node3 -->
<g id="edge2_Node000002_Node000003" class="edge">
<title>Node2&#45;&gt;Node3</title>
<g id="a_edge2_Node000002_Node000003"><a xlink:title=" ">
<path fill="none" stroke="#63b8ff" d="M606.48,-55.96C572.62,-47 520.5,-33.2 482.92,-23.26"/>
<polygon fill="#63b8ff" stroke="#63b8ff" points="484.28,-19.99 473.72,-20.82 482.49,-26.76 484.28,-19.99"/>
</a>
</g>
</g>
<!-- Node4 -->
<g id="Node000004" class="node">
<title>Node4</title>
<g id="a_Node000004"><a xlink:title=" ">
<polygon fill="#e0e0e0" stroke="#999999" points="930,-20 805.25,-20 805.25,0 930,0 930,-20"/>
<text text-anchor="middle" x="867.62" y="-6.5" font-family="Arial" font-size="10.00">GameFramework/HUD.h</text>
</a>
</g>
</g>
<!-- Node2&#45;&gt;Node4 -->
<g id="edge3_Node000002_Node000004" class="edge">
<title>Node2&#45;&gt;Node4</title>
<g id="a_edge3_Node000002_Node000004"><a xlink:title=" ">
<path fill="none" stroke="#63b8ff" d="M674.61,-56.92C712.3,-47.95 773.51,-33.39 816.89,-23.07"/>
<polygon fill="#63b8ff" stroke="#63b8ff" points="817.67,-26.48 826.58,-20.76 816.05,-19.67 817.67,-26.48"/>
</a>
</g>
</g>
<!-- Node5 -->
<g id="Node000005" class="node">
<title>Node5</title>
<g id="a_Node000005"><a xlink:title=" ">
<polygon fill="#e0e0e0" stroke="#999999" points="1061.38,-20 947.88,-20 947.88,0 1061.38,0 1061.38,-20"/>
<text text-anchor="middle" x="1004.62" y="-6.5" font-family="Arial" font-size="10.00">MainHUD.generated.h</text>
</a>
</g>
</g>
<!-- Node2&#45;&gt;Node5 -->
<g id="edge4_Node000002_Node000005" class="edge">
<title>Node2&#45;&gt;Node5</title>
<g id="a_edge4_Node000002_Node000005"><a xlink:title=" ">
<path fill="none" stroke="#63b8ff" d="M674.85,-57.62C677.81,-57.05 680.77,-56.5 683.62,-56 707.9,-51.76 849.2,-32.26 936.04,-20.37"/>
<polygon fill="#63b8ff" stroke="#63b8ff" points="936.46,-23.84 945.89,-19.02 935.51,-16.91 936.46,-23.84"/>
</a>
</g>
</g>
<!-- Node7&#45;&gt;Node3 -->
<g id="edge7_Node000007_Node000003" class="edge">
<title>Node7&#45;&gt;Node3</title>
<g id="a_edge7_Node000007_Node000003"><a xlink:title=" ">
<path fill="none" stroke="#63b8ff" d="M436.62,-55.59C436.62,-49.01 436.62,-39.96 436.62,-31.73"/>
<polygon fill="#63b8ff" stroke="#63b8ff" points="440.13,-31.81 436.63,-21.81 433.13,-31.81 440.13,-31.81"/>
</a>
</g>
</g>
<!-- Node8 -->
<g id="Node000008" class="node">
<title>Node8</title>
<g id="a_Node000008"><a xlink:title=" ">
<polygon fill="#e0e0e0" stroke="#999999" points="379.25,-20 262,-20 262,0 379.25,0 379.25,-20"/>
<text text-anchor="middle" x="320.62" y="-6.5" font-family="Arial" font-size="10.00">Blueprint/UserWidget.h</text>
</a>
</g>
</g>
<!-- Node7&#45;&gt;Node8 -->
<g id="edge8_Node000007_Node000008" class="edge">
<title>Node7&#45;&gt;Node8</title>
<g id="a_edge8_Node000007_Node000008"><a xlink:title=" ">
<path fill="none" stroke="#63b8ff" d="M416.42,-55.59C398.4,-47.21 371.76,-34.8 351.14,-25.21"/>
<polygon fill="#63b8ff" stroke="#63b8ff" points="352.9,-22.17 342.36,-21.12 349.95,-28.51 352.9,-22.17"/>
</a>
</g>
</g>
<!-- Node9 -->
<g id="Node000009" class="node">
<title>Node9</title>
<g id="a_Node000009"><a xlink:title=" ">
<polygon fill="#e0e0e0" stroke="#999999" points="639.5,-20 493.75,-20 493.75,0 639.5,0 639.5,-20"/>
<text text-anchor="middle" x="566.62" y="-6.5" font-family="Arial" font-size="10.00">CharacterOverlay.generated.h</text>
</a>
</g>
</g>
<!-- Node7&#45;&gt;Node9 -->
<g id="edge9_Node000007_Node000009" class="edge">
<title>Node7&#45;&gt;Node9</title>
<g id="a_edge9_Node000007_Node000009"><a xlink:title=" ">
<path fill="none" stroke="#63b8ff" d="M459.27,-55.59C479.74,-47.09 510.14,-34.46 533.37,-24.81"/>
<polygon fill="#63b8ff" stroke="#63b8ff" points="534.51,-28.13 542.41,-21.06 531.83,-21.66 534.51,-28.13"/>
</a>
</g>
</g>
<!-- Node10&#45;&gt;Node3 -->
<g id="edge11_Node000010_Node000003" class="edge">
<title>Node10&#45;&gt;Node3</title>
<g id="a_edge11_Node000010_Node000003"><a xlink:title=" ">
<path fill="none" stroke="#63b8ff" d="M291.28,-55.59C320,-46.78 363.16,-33.54 394.99,-23.78"/>
<polygon fill="#63b8ff" stroke="#63b8ff" points="395.75,-27.2 404.28,-20.92 393.7,-20.51 395.75,-27.2"/>
</a>
</g>
</g>
<!-- Node10&#45;&gt;Node8 -->
<g id="edge12_Node000010_Node000008" class="edge">
<title>Node10&#45;&gt;Node8</title>
<g id="a_edge12_Node000010_Node000008"><a xlink:title=" ">
<path fill="none" stroke="#63b8ff" d="M271.08,-55.59C279.59,-47.93 291.84,-36.91 302.02,-27.75"/>
<polygon fill="#63b8ff" stroke="#63b8ff" points="304.08,-30.6 309.17,-21.31 299.39,-25.4 304.08,-30.6"/>
</a>
</g>
</g>
<!-- Node11 -->
<g id="Node000011" class="node">
<title>Node11</title>
<g id="a_Node000011"><a xlink:title=" ">
<polygon fill="#e0e0e0" stroke="#999999" points="135.25,-20 0,-20 0,0 135.25,0 135.25,-20"/>
<text text-anchor="middle" x="67.62" y="-6.5" font-family="Arial" font-size="10.00">Announcement.generated.h</text>
</a>
</g>
</g>
<!-- Node10&#45;&gt;Node11 -->
<g id="edge13_Node000010_Node000011" class="edge">
<title>Node10&#45;&gt;Node11</title>
<g id="a_edge13_Node000010_Node000011"><a xlink:title=" ">
<path fill="none" stroke="#63b8ff" d="M227.01,-55.59C195.24,-46.71 147.36,-33.31 112.38,-23.52"/>
<polygon fill="#63b8ff" stroke="#63b8ff" points="113.54,-20.21 102.96,-20.89 111.65,-26.95 113.54,-20.21"/>
</a>
</g>
</g>
<!-- Node12&#45;&gt;Node3 -->
<g id="edge15_Node000012_Node000003" class="edge">
<title>Node12&#45;&gt;Node3</title>
<g id="a_edge15_Node000012_Node000003"><a xlink:title=" ">
<path fill="none" stroke="#63b8ff" d="M361.48,-55.59C375.09,-47.51 394.99,-35.71 410.89,-26.27"/>
<polygon fill="#63b8ff" stroke="#63b8ff" points="412.53,-29.37 419.35,-21.25 408.96,-23.35 412.53,-29.37"/>
</a>
</g>
</g>
<!-- Node12&#45;&gt;Node8 -->
<g id="edge16_Node000012_Node000008" class="edge">
<title>Node12&#45;&gt;Node8</title>
<g id="a_edge16_Node000012_Node000008"><a xlink:title=" ">
<path fill="none" stroke="#63b8ff" d="M341.27,-55.59C338.08,-48.7 333.64,-39.1 329.69,-30.57"/>
<polygon fill="#63b8ff" stroke="#63b8ff" points="332.94,-29.28 325.57,-21.67 326.59,-32.22 332.94,-29.28"/>
</a>
</g>
</g>
<!-- Node13 -->
<g id="Node000013" class="node">
<title>Node13</title>
<g id="a_Node000013"><a xlink:title=" ">
<polygon fill="#e0e0e0" stroke="#999999" points="244.12,-20 153.12,-20 153.12,0 244.12,0 244.12,-20"/>
<text text-anchor="middle" x="198.62" y="-6.5" font-family="Arial" font-size="10.00">Chat.generated.h</text>
</a>
</g>
</g>
<!-- Node12&#45;&gt;Node13 -->
<g id="edge17_Node000012_Node000013" class="edge">
<title>Node12&#45;&gt;Node13</title>
<g id="a_edge17_Node000012_Node000013"><a xlink:title=" ">
<path fill="none" stroke="#63b8ff" d="M322.66,-56.56C299.24,-47.96 262.55,-34.48 235.14,-24.41"/>
<polygon fill="#63b8ff" stroke="#63b8ff" points="236.41,-21.15 225.82,-20.99 234,-27.72 236.41,-21.15"/>
</a>
</g>
</g>
<!-- Node14&#45;&gt;Node3 -->
<g id="edge19_Node000014_Node000003" class="edge">
<title>Node14&#45;&gt;Node3</title>
<g id="a_edge19_Node000014_Node000003"><a xlink:title=" ">
<path fill="none" stroke="#63b8ff" d="M527.46,-55.59C510.53,-47.28 485.58,-35.03 466.1,-25.47"/>
<polygon fill="#63b8ff" stroke="#63b8ff" points="467.81,-22.41 457.29,-21.15 464.73,-28.7 467.81,-22.41"/>
</a>
</g>
</g>
<!-- Node14&#45;&gt;Node8 -->
<g id="edge20_Node000014_Node000008" class="edge">
<title>Node14&#45;&gt;Node8</title>
<g id="a_edge20_Node000014_Node000008"><a xlink:title=" ">
<path fill="none" stroke="#63b8ff" d="M507,-55.53C469.28,-46.52 412.33,-32.91 371.32,-23.11"/>
<polygon fill="#63b8ff" stroke="#63b8ff" points="372.22,-19.73 361.68,-20.81 370.59,-26.54 372.22,-19.73"/>
</a>
</g>
</g>
<!-- Node15 -->
<g id="Node000015" class="node">
<title>Node15</title>
<g id="a_Node000015"><a xlink:title=" ">
<polygon fill="#e0e0e0" stroke="#999999" points="787.62,-20 657.62,-20 657.62,0 787.62,0 787.62,-20"/>
<text text-anchor="middle" x="722.62" y="-6.5" font-family="Arial" font-size="10.00">SettingsMenu.generated.h</text>
</a>
</g>
</g>
<!-- Node14&#45;&gt;Node15 -->
<g id="edge21_Node000014_Node000015" class="edge">
<title>Node14&#45;&gt;Node15</title>
<g id="a_edge21_Node000014_Node000015"><a xlink:title=" ">
<path fill="none" stroke="#63b8ff" d="M577.28,-55.59C606,-46.78 649.16,-33.54 680.99,-23.78"/>
<polygon fill="#63b8ff" stroke="#63b8ff" points="681.75,-27.2 690.28,-20.92 679.7,-20.51 681.75,-27.2"/>
</a>
</g>
</g>
</g>
</svg>

<g id="navigator" transform="translate(0 0)" fill="#404254">
  <rect fill="#f2f5e9" fill-opacity="0.5" stroke="#606060" stroke-width=".5" x="0" y="0" width="60" height="60"/>
  <use id="zoomplus" xlink:href="#zoomPlus" x="17" y="9" onmousedown="handleZoom(evt,'in')"/>
  <use id="zoomminus" xlink:href="#zoomMin" x="42" y="9" onmousedown="handleZoom(evt,'out')"/>
  <use id="reset" xlink:href="#resetDef" x="30" y="36" onmousedown="handleReset()"/>
   <use id="arrowup" xlink:href="#arrowUp" x="0" y="0" onmousedown="handlePan(0,-1)"/>
  <use id="arrowright" xlink:href="#arrowRight" x="0" y="0" onmousedown="handlePan(1,0)"/>
  <use id="arrowdown" xlink:href="#arrowDown" x="0" y="0" onmousedown="handlePan(0,1)"/>
  <use id="arrowleft" xlink:href="#arrowLeft" x="0" y="0" onmousedown="handlePan(-1,0)"/>
</g>
<svg viewBox="0 0 15 15" width="100%" height="30px" preserveAspectRatio="xMaxYMin meet">
 <g id="arrow_out" transform="scale(0.3 0.3)">
  <a xlink:href="_main_h_u_d_8cpp__incl_org.svg" target="_base">
   <rect id="button" ry="5" rx="5" y="6" x="6" height="38" width="38"
        fill="#f2f5e9" fill-opacity="0.5" stroke="#606060" stroke-width="1.0"/>
   <path id="arrow"
     d="M 11.500037,31.436501 C 11.940474,20.09759 22.043105,11.32322 32.158766,21.979434 L 37.068811,17.246167 C 37.068811,17.246167 37.088388,32 37.088388,32 L 22.160133,31.978069 C 22.160133,31.978069 26.997745,27.140456 26.997745,27.140456 C 18.528582,18.264221 13.291696,25.230495 11.500037,31.436501 z"
     style="fill:#404040;"/>
  </a>
 </g>
</svg>

<style type='text/css'>
<![CDATA[
[data-mouse-over-selected='false'] { opacity: 0.7; }
[data-mouse-over-selected='true']  { opacity: 1.0; }
]]>
</style>
<script type="application/ecmascript"><![CDATA[
document.addEventListener('DOMContentLoaded', (event) => {
  highlightEdges();
  highlightAdjacentNodes();
});
]]></script>
</svg>
