<?xml version="1.0" encoding="UTF-8" standalone="no"?>
<!DOCTYPE svg PUBLIC "-//W3C//DTD SVG 1.1//EN"
 "http://www.w3.org/Graphics/SVG/1.1/DTD/svg11.dtd">
<!-- Generated by graphviz version 12.2.1 (20241206.2353)
 -->
<!-- Title: MultiplayerShooter/PlayerState/MainPlayerState.cpp Pages: 1 -->
<svg width="1948pt" height="312pt"
 viewBox="0.00 0.00 1947.50 312.00" xmlns="http://www.w3.org/2000/svg" xmlns:xlink="http://www.w3.org/1999/xlink">
<g id="graph0" class="graph" transform="scale(1 1) rotate(0) translate(4 308)">
<title>MultiplayerShooter/PlayerState/MainPlayerState.cpp</title>
<!-- Node1 -->
<g id="Node000001" class="node">
<title>Node1</title>
<g id="a_Node000001"><a xlink:title=" ">
<polygon fill="#999999" stroke="#666666" points="1603.75,-304 1440,-304 1440,-272 1603.75,-272 1603.75,-304"/>
<text text-anchor="start" x="1448" y="-290.5" font-family="Arial" font-size="10.00">MultiplayerShooter</text>
<text text-anchor="middle" x="1521.88" y="-278.5" font-family="Arial" font-size="10.00">/PlayerState/MainPlayerState.cpp</text>
</a>
</g>
</g>
<!-- Node2 -->
<g id="Node000002" class="node">
<title>Node2</title>
<g id="a_Node000002"><a xlink:href="_main_player_state_8h.html" target="_top" xlink:title=" ">
<polygon fill="white" stroke="#666666" points="1646,-224 1549.75,-224 1549.75,-204 1646,-204 1646,-224"/>
<text text-anchor="middle" x="1597.88" y="-210.5" font-family="Arial" font-size="10.00">MainPlayerState.h</text>
</a>
</g>
</g>
<!-- Node1&#45;&gt;Node2 -->
<g id="edge1_Node000001_Node000002" class="edge">
<title>Node1&#45;&gt;Node2</title>
<g id="a_edge1_Node000001_Node000002"><a xlink:title=" ">
<path fill="none" stroke="#63b8ff" d="M1537.99,-271.73C1550.31,-260.06 1567.29,-243.98 1580.02,-231.92"/>
<polygon fill="#63b8ff" stroke="#63b8ff" points="1582.1,-234.77 1586.95,-225.35 1577.28,-229.69 1582.1,-234.77"/>
</a>
</g>
</g>
<!-- Node6 -->
<g id="Node000006" class="node">
<title>Node6</title>
<g id="a_Node000006"><a xlink:href="_main_character_8h.html" target="_top" xlink:title=" ">
<polygon fill="white" stroke="#666666" points="656.75,-230 499,-230 499,-198 656.75,-198 656.75,-230"/>
<text text-anchor="start" x="507" y="-216.5" font-family="Arial" font-size="10.00">MultiplayerShooter</text>
<text text-anchor="middle" x="577.88" y="-204.5" font-family="Arial" font-size="10.00">/MainCharacter/MainCharacter.h</text>
</a>
</g>
</g>
<!-- Node1&#45;&gt;Node6 -->
<g id="edge5_Node000001_Node000006" class="edge">
<title>Node1&#45;&gt;Node6</title>
<g id="a_edge5_Node000001_Node000006"><a xlink:title=" ">
<path fill="none" stroke="#63b8ff" d="M1439.75,-280.74C1263.87,-267.32 851.92,-235.9 668.61,-221.92"/>
<polygon fill="#63b8ff" stroke="#63b8ff" points="668.88,-218.43 658.65,-221.16 668.35,-225.41 668.88,-218.43"/>
</a>
</g>
</g>
<!-- Node19 -->
<g id="Node000019" class="node">
<title>Node19</title>
<g id="a_Node000019"><a xlink:href="_my_player_controller_8h.html" target="_top" xlink:title=" ">
<polygon fill="white" stroke="#666666" points="1512.38,-236 1379.38,-236 1379.38,-192 1512.38,-192 1512.38,-236"/>
<text text-anchor="start" x="1387.38" y="-222.5" font-family="Arial" font-size="10.00">MultiplayerShooter</text>
<text text-anchor="start" x="1387.38" y="-210.5" font-family="Arial" font-size="10.00">/PlayerController/MyPlayer</text>
<text text-anchor="middle" x="1445.88" y="-198.5" font-family="Arial" font-size="10.00">Controller.h</text>
</a>
</g>
</g>
<!-- Node1&#45;&gt;Node19 -->
<g id="edge23_Node000001_Node000019" class="edge">
<title>Node1&#45;&gt;Node19</title>
<g id="a_edge23_Node000001_Node000019"><a xlink:title=" ">
<path fill="none" stroke="#63b8ff" d="M1505.76,-271.73C1497.25,-263.67 1486.52,-253.5 1476.5,-244.01"/>
<polygon fill="#63b8ff" stroke="#63b8ff" points="1479.08,-241.63 1469.41,-237.3 1474.26,-246.71 1479.08,-241.63"/>
</a>
</g>
</g>
<!-- Node23 -->
<g id="Node000023" class="node">
<title>Node23</title>
<g id="a_Node000023"><a xlink:title=" ">
<polygon fill="#e0e0e0" stroke="#999999" points="1772,-224 1663.75,-224 1663.75,-204 1772,-204 1772,-224"/>
<text text-anchor="middle" x="1717.88" y="-210.5" font-family="Arial" font-size="10.00">Net/UnrealNetwork.h</text>
</a>
</g>
</g>
<!-- Node1&#45;&gt;Node23 -->
<g id="edge28_Node000001_Node000023" class="edge">
<title>Node1&#45;&gt;Node23</title>
<g id="a_edge28_Node000001_Node000023"><a xlink:title=" ">
<path fill="none" stroke="#63b8ff" d="M1563.92,-271.55C1598.89,-258.71 1648.15,-240.61 1681.45,-228.38"/>
<polygon fill="#63b8ff" stroke="#63b8ff" points="1682.49,-231.73 1690.67,-224.99 1680.08,-225.16 1682.49,-231.73"/>
</a>
</g>
</g>
<!-- Node3 -->
<g id="Node000003" class="node">
<title>Node3</title>
<g id="a_Node000003"><a xlink:title=" ">
<polygon fill="#e0e0e0" stroke="#999999" points="1061.38,-20 982.38,-20 982.38,0 1061.38,0 1061.38,-20"/>
<text text-anchor="middle" x="1021.88" y="-6.5" font-family="Arial" font-size="10.00">CoreMinimal.h</text>
</a>
</g>
</g>
<!-- Node2&#45;&gt;Node3 -->
<g id="edge2_Node000002_Node000003" class="edge">
<title>Node2&#45;&gt;Node3</title>
<g id="a_edge2_Node000002_Node000003"><a xlink:title=" ">
<path fill="none" stroke="#63b8ff" d="M1595.65,-203.68C1591.1,-186.29 1579.32,-148.46 1557.88,-124 1519.99,-80.78 1502.26,-74.6 1447.88,-56 1379.66,-32.68 1170.45,-18.87 1072.92,-13.54"/>
<polygon fill="#63b8ff" stroke="#63b8ff" points="1073.28,-10.06 1063.11,-13.02 1072.9,-17.05 1073.28,-10.06"/>
</a>
</g>
</g>
<!-- Node4 -->
<g id="Node000004" class="node">
<title>Node4</title>
<g id="a_Node000004"><a xlink:title=" ">
<polygon fill="#e0e0e0" stroke="#999999" points="1939.5,-150 1786.25,-150 1786.25,-130 1939.5,-130 1939.5,-150"/>
<text text-anchor="middle" x="1862.88" y="-136.5" font-family="Arial" font-size="10.00">GameFramework/PlayerState.h</text>
</a>
</g>
</g>
<!-- Node2&#45;&gt;Node4 -->
<g id="edge3_Node000002_Node000004" class="edge">
<title>Node2&#45;&gt;Node4</title>
<g id="a_edge3_Node000002_Node000004"><a xlink:title=" ">
<path fill="none" stroke="#63b8ff" d="M1621.8,-203.5C1631.92,-199.67 1643.88,-195.36 1654.88,-192 1705.85,-176.42 1764.96,-162.29 1807.11,-152.88"/>
<polygon fill="#63b8ff" stroke="#63b8ff" points="1807.77,-156.32 1816.78,-150.74 1806.26,-149.48 1807.77,-156.32"/>
</a>
</g>
</g>
<!-- Node5 -->
<g id="Node000005" class="node">
<title>Node5</title>
<g id="a_Node000005"><a xlink:title=" ">
<polygon fill="#e0e0e0" stroke="#999999" points="1767.88,-150 1625.88,-150 1625.88,-130 1767.88,-130 1767.88,-150"/>
<text text-anchor="middle" x="1696.88" y="-136.5" font-family="Arial" font-size="10.00">MainPlayerState.generated.h</text>
</a>
</g>
</g>
<!-- Node2&#45;&gt;Node5 -->
<g id="edge4_Node000002_Node000005" class="edge">
<title>Node2&#45;&gt;Node5</title>
<g id="a_edge4_Node000002_Node000005"><a xlink:title=" ">
<path fill="none" stroke="#63b8ff" d="M1610.82,-203.59C1627.05,-191.78 1655.13,-171.36 1674.79,-157.07"/>
<polygon fill="#63b8ff" stroke="#63b8ff" points="1676.68,-160.02 1682.71,-151.31 1672.56,-154.36 1676.68,-160.02"/>
</a>
</g>
</g>
<!-- Node6&#45;&gt;Node3 -->
<g id="edge6_Node000006_Node000003" class="edge">
<title>Node6&#45;&gt;Node3</title>
<g id="a_edge6_Node000006_Node000003"><a xlink:title=" ">
<path fill="none" stroke="#63b8ff" d="M586.87,-197.8C593.39,-186.48 602.2,-170.54 608.88,-156 628.72,-112.8 609.42,-85.28 646.88,-56 696.12,-17.5 879.99,-11.39 970.66,-10.77"/>
<polygon fill="#63b8ff" stroke="#63b8ff" points="970.53,-14.27 980.51,-10.73 970.5,-7.27 970.53,-14.27"/>
</a>
</g>
</g>
<!-- Node7 -->
<g id="Node000007" class="node">
<title>Node7</title>
<g id="a_Node000007"><a xlink:title=" ">
<polygon fill="#e0e0e0" stroke="#999999" points="296.38,-150 151.38,-150 151.38,-130 296.38,-130 296.38,-150"/>
<text text-anchor="middle" x="223.88" y="-136.5" font-family="Arial" font-size="10.00">GameFramework/Character.h</text>
</a>
</g>
</g>
<!-- Node6&#45;&gt;Node7 -->
<g id="edge7_Node000006_Node000007" class="edge">
<title>Node6&#45;&gt;Node7</title>
<g id="a_edge7_Node000006_Node000007"><a xlink:title=" ">
<path fill="none" stroke="#63b8ff" d="M501.93,-197.55C435.9,-184.12 341.64,-164.95 281.61,-152.74"/>
<polygon fill="#63b8ff" stroke="#63b8ff" points="282.42,-149.34 271.92,-150.77 281.03,-156.2 282.42,-149.34"/>
</a>
</g>
</g>
<!-- Node8 -->
<g id="Node000008" class="node">
<title>Node8</title>
<g id="a_Node000008"><a xlink:href="_turning_in_place_8h.html" target="_top" xlink:title=" ">
<polygon fill="white" stroke="#666666" points="435.75,-156 314,-156 314,-124 435.75,-124 435.75,-156"/>
<text text-anchor="start" x="322" y="-142.5" font-family="Arial" font-size="10.00">MultiplayerShooter</text>
<text text-anchor="middle" x="374.88" y="-130.5" font-family="Arial" font-size="10.00">/Types/TurningInPlace.h</text>
</a>
</g>
</g>
<!-- Node6&#45;&gt;Node8 -->
<g id="edge8_Node000006_Node000008" class="edge">
<title>Node6&#45;&gt;Node8</title>
<g id="a_edge8_Node000006_Node000008"><a xlink:title=" ">
<path fill="none" stroke="#63b8ff" d="M534.33,-197.55C503.55,-186.64 462.09,-171.93 429.16,-160.26"/>
<polygon fill="#63b8ff" stroke="#63b8ff" points="430.37,-156.97 419.78,-156.93 428.03,-163.57 430.37,-156.97"/>
</a>
</g>
</g>
<!-- Node9 -->
<g id="Node000009" class="node">
<title>Node9</title>
<g id="a_Node000009"><a xlink:title=" ">
<polygon fill="#e0e0e0" stroke="#999999" points="600.12,-150 453.62,-150 453.62,-130 600.12,-130 600.12,-150"/>
<text text-anchor="middle" x="526.88" y="-136.5" font-family="Arial" font-size="10.00">Camera/CameraComponent.h</text>
</a>
</g>
</g>
<!-- Node6&#45;&gt;Node9 -->
<g id="edge9_Node000006_Node000009" class="edge">
<title>Node6&#45;&gt;Node9</title>
<g id="a_edge9_Node000006_Node000009"><a xlink:title=" ">
<path fill="none" stroke="#63b8ff" d="M567.06,-197.73C559.19,-186.62 548.49,-171.51 540.11,-159.68"/>
<polygon fill="#63b8ff" stroke="#63b8ff" points="542.98,-157.68 534.35,-151.55 537.27,-161.73 542.98,-157.68"/>
</a>
</g>
</g>
<!-- Node10 -->
<g id="Node000010" class="node">
<title>Node10</title>
<g id="a_Node000010"><a xlink:href="_buff_component_8h.html" target="_top" xlink:title=" ">
<polygon fill="white" stroke="#666666" points="1044.12,-156 867.62,-156 867.62,-124 1044.12,-124 1044.12,-156"/>
<text text-anchor="start" x="875.62" y="-142.5" font-family="Arial" font-size="10.00">MultiplayerShooter</text>
<text text-anchor="middle" x="955.88" y="-130.5" font-family="Arial" font-size="10.00">/ActorComponents/BuffComponent.h</text>
</a>
</g>
</g>
<!-- Node6&#45;&gt;Node10 -->
<g id="edge10_Node000006_Node000010" class="edge">
<title>Node6&#45;&gt;Node10</title>
<g id="a_edge10_Node000006_Node000010"><a xlink:title=" ">
<path fill="none" stroke="#63b8ff" d="M657.12,-197.91C717.36,-186.43 800.38,-170.62 863.62,-158.57"/>
<polygon fill="#63b8ff" stroke="#63b8ff" points="864.13,-162.04 873.3,-156.73 862.82,-155.16 864.13,-162.04"/>
</a>
</g>
</g>
<!-- Node13 -->
<g id="Node000013" class="node">
<title>Node13</title>
<g id="a_Node000013"><a xlink:href="_combat_component_8h.html" target="_top" xlink:title=" ">
<polygon fill="white" stroke="#666666" points="849.75,-156 656,-156 656,-124 849.75,-124 849.75,-156"/>
<text text-anchor="start" x="664" y="-142.5" font-family="Arial" font-size="10.00">MultiplayerShooter</text>
<text text-anchor="middle" x="752.88" y="-130.5" font-family="Arial" font-size="10.00">/ActorComponents/CombatComponent.h</text>
</a>
</g>
</g>
<!-- Node6&#45;&gt;Node13 -->
<g id="edge14_Node000006_Node000013" class="edge">
<title>Node6&#45;&gt;Node13</title>
<g id="a_edge14_Node000006_Node000013"><a xlink:title=" ">
<path fill="none" stroke="#63b8ff" d="M615.42,-197.55C641.6,-186.78 676.76,-172.32 704.96,-160.71"/>
<polygon fill="#63b8ff" stroke="#63b8ff" points="706.08,-164.04 714,-157 703.42,-157.56 706.08,-164.04"/>
</a>
</g>
</g>
<!-- Node18 -->
<g id="Node000018" class="node">
<title>Node18</title>
<g id="a_Node000018"><a xlink:title=" ">
<polygon fill="#e0e0e0" stroke="#999999" points="133.75,-150 0,-150 0,-130 133.75,-130 133.75,-150"/>
<text text-anchor="middle" x="66.88" y="-136.5" font-family="Arial" font-size="10.00">MainCharacter.generated.h</text>
</a>
</g>
</g>
<!-- Node6&#45;&gt;Node18 -->
<g id="edge22_Node000006_Node000018" class="edge">
<title>Node6&#45;&gt;Node18</title>
<g id="a_edge22_Node000006_Node000018"><a xlink:title=" ">
<path fill="none" stroke="#63b8ff" d="M498.88,-204.29C411.35,-194.27 266.15,-176.53 141.88,-156 135.58,-154.96 129.01,-153.78 122.48,-152.56"/>
<polygon fill="#63b8ff" stroke="#63b8ff" points="123.57,-149.2 113.09,-150.74 122.24,-156.07 123.57,-149.2"/>
</a>
</g>
</g>
<!-- Node10&#45;&gt;Node3 -->
<g id="edge11_Node000010_Node000003" class="edge">
<title>Node10&#45;&gt;Node3</title>
<g id="a_edge11_Node000010_Node000003"><a xlink:title=" ">
<path fill="none" stroke="#63b8ff" d="M1044.51,-124.88C1105.68,-114.22 1177.62,-99.53 1186.88,-88 1221.19,-45.28 1133.4,-25.11 1073.12,-16.54"/>
<polygon fill="#63b8ff" stroke="#63b8ff" points="1073.72,-13.09 1063.35,-15.23 1072.79,-20.03 1073.72,-13.09"/>
</a>
</g>
</g>
<!-- Node11 -->
<g id="Node000011" class="node">
<title>Node11</title>
<g id="a_Node000011"><a xlink:title=" ">
<polygon fill="#e0e0e0" stroke="#999999" points="1022,-82 865.75,-82 865.75,-62 1022,-62 1022,-82"/>
<text text-anchor="middle" x="943.88" y="-68.5" font-family="Arial" font-size="10.00">Components/ActorComponent.h</text>
</a>
</g>
</g>
<!-- Node10&#45;&gt;Node11 -->
<g id="edge12_Node000010_Node000011" class="edge">
<title>Node10&#45;&gt;Node11</title>
<g id="a_edge12_Node000010_Node000011"><a xlink:title=" ">
<path fill="none" stroke="#63b8ff" d="M953.09,-123.69C951.46,-114.7 949.37,-103.21 947.59,-93.44"/>
<polygon fill="#63b8ff" stroke="#63b8ff" points="951.07,-93.02 945.84,-83.81 944.18,-94.27 951.07,-93.02"/>
</a>
</g>
</g>
<!-- Node12 -->
<g id="Node000012" class="node">
<title>Node12</title>
<g id="a_Node000012"><a xlink:title=" ">
<polygon fill="#e0e0e0" stroke="#999999" points="1177.62,-82 1040.12,-82 1040.12,-62 1177.62,-62 1177.62,-82"/>
<text text-anchor="middle" x="1108.88" y="-68.5" font-family="Arial" font-size="10.00">BuffComponent.generated.h</text>
</a>
</g>
</g>
<!-- Node10&#45;&gt;Node12 -->
<g id="edge13_Node000010_Node000012" class="edge">
<title>Node10&#45;&gt;Node12</title>
<g id="a_edge13_Node000010_Node000012"><a xlink:title=" ">
<path fill="none" stroke="#63b8ff" d="M991.75,-123.53C1017.44,-112.44 1051.76,-97.64 1076.6,-86.92"/>
<polygon fill="#63b8ff" stroke="#63b8ff" points="1077.76,-90.23 1085.56,-83.06 1074.99,-83.81 1077.76,-90.23"/>
</a>
</g>
</g>
<!-- Node13&#45;&gt;Node3 -->
<g id="edge15_Node000013_Node000003" class="edge">
<title>Node13&#45;&gt;Node3</title>
<g id="a_edge15_Node000013_Node000003"><a xlink:title=" ">
<path fill="none" stroke="#63b8ff" d="M773.27,-123.59C786.4,-113.59 803.77,-100.18 818.88,-88 836.06,-74.14 837.32,-66.26 856.88,-56 892.78,-37.17 937.33,-25.62 971.09,-18.95"/>
<polygon fill="#63b8ff" stroke="#63b8ff" points="971.43,-22.44 980.61,-17.15 970.13,-15.57 971.43,-22.44"/>
</a>
</g>
</g>
<!-- Node13&#45;&gt;Node11 -->
<g id="edge16_Node000013_Node000011" class="edge">
<title>Node13&#45;&gt;Node11</title>
<g id="a_edge16_Node000013_Node000011"><a xlink:title=" ">
<path fill="none" stroke="#63b8ff" d="M797.66,-123.53C830.46,-112.19 874.5,-96.97 905.65,-86.21"/>
<polygon fill="#63b8ff" stroke="#63b8ff" points="906.76,-89.53 915.07,-82.95 904.47,-82.91 906.76,-89.53"/>
</a>
</g>
</g>
<!-- Node14 -->
<g id="Node000014" class="node">
<title>Node14</title>
<g id="a_Node000014"><a xlink:href="_main_h_u_d_8h.html" target="_top" xlink:title=" ">
<polygon fill="white" stroke="#666666" points="599.38,-88 502.38,-88 502.38,-56 599.38,-56 599.38,-88"/>
<text text-anchor="start" x="510.38" y="-74.5" font-family="Arial" font-size="10.00">MultiplayerShooter</text>
<text text-anchor="middle" x="550.88" y="-62.5" font-family="Arial" font-size="10.00">/HUD/MainHUD.h</text>
</a>
</g>
</g>
<!-- Node13&#45;&gt;Node14 -->
<g id="edge17_Node000013_Node000014" class="edge">
<title>Node13&#45;&gt;Node14</title>
<g id="a_edge17_Node000013_Node000014"><a xlink:title=" ">
<path fill="none" stroke="#63b8ff" d="M705.51,-123.53C676.62,-114.09 639.47,-101.95 608.83,-91.94"/>
<polygon fill="#63b8ff" stroke="#63b8ff" points="610.32,-88.74 599.73,-88.96 608.15,-95.39 610.32,-88.74"/>
</a>
</g>
</g>
<!-- Node17 -->
<g id="Node000017" class="node">
<title>Node17</title>
<g id="a_Node000017"><a xlink:title=" ">
<polygon fill="#e0e0e0" stroke="#999999" points="810.25,-82 655.5,-82 655.5,-62 810.25,-62 810.25,-82"/>
<text text-anchor="middle" x="732.88" y="-68.5" font-family="Arial" font-size="10.00">CombatComponent.generated.h</text>
</a>
</g>
</g>
<!-- Node13&#45;&gt;Node17 -->
<g id="edge21_Node000013_Node000017" class="edge">
<title>Node13&#45;&gt;Node17</title>
<g id="a_edge21_Node000013_Node000017"><a xlink:title=" ">
<path fill="none" stroke="#63b8ff" d="M748.24,-123.69C745.48,-114.6 741.95,-102.95 738.97,-93.12"/>
<polygon fill="#63b8ff" stroke="#63b8ff" points="742.39,-92.32 736.14,-83.76 735.69,-94.35 742.39,-92.32"/>
</a>
</g>
</g>
<!-- Node14&#45;&gt;Node3 -->
<g id="edge18_Node000014_Node000003" class="edge">
<title>Node14&#45;&gt;Node3</title>
<g id="a_edge18_Node000014_Node000003"><a xlink:title=" ">
<path fill="none" stroke="#63b8ff" d="M599.59,-58.77C604.4,-57.75 609.22,-56.81 613.88,-56 741.27,-33.9 893.03,-20.52 970.62,-14.6"/>
<polygon fill="#63b8ff" stroke="#63b8ff" points="970.75,-18.1 980.46,-13.86 970.23,-11.12 970.75,-18.1"/>
</a>
</g>
</g>
<!-- Node15 -->
<g id="Node000015" class="node">
<title>Node15</title>
<g id="a_Node000015"><a xlink:title=" ">
<polygon fill="#e0e0e0" stroke="#999999" points="545.25,-20 420.5,-20 420.5,0 545.25,0 545.25,-20"/>
<text text-anchor="middle" x="482.88" y="-6.5" font-family="Arial" font-size="10.00">GameFramework/HUD.h</text>
</a>
</g>
</g>
<!-- Node14&#45;&gt;Node15 -->
<g id="edge19_Node000014_Node000015" class="edge">
<title>Node14&#45;&gt;Node15</title>
<g id="a_edge19_Node000014_Node000015"><a xlink:title=" ">
<path fill="none" stroke="#63b8ff" d="M533.36,-55.55C523.72,-47.04 511.75,-36.48 501.88,-27.77"/>
<polygon fill="#63b8ff" stroke="#63b8ff" points="504.49,-25.4 494.67,-21.41 499.86,-30.65 504.49,-25.4"/>
</a>
</g>
</g>
<!-- Node16 -->
<g id="Node000016" class="node">
<title>Node16</title>
<g id="a_Node000016"><a xlink:title=" ">
<polygon fill="#e0e0e0" stroke="#999999" points="676.62,-20 563.12,-20 563.12,0 676.62,0 676.62,-20"/>
<text text-anchor="middle" x="619.88" y="-6.5" font-family="Arial" font-size="10.00">MainHUD.generated.h</text>
</a>
</g>
</g>
<!-- Node14&#45;&gt;Node16 -->
<g id="edge20_Node000014_Node000016" class="edge">
<title>Node14&#45;&gt;Node16</title>
<g id="a_edge20_Node000014_Node000016"><a xlink:title=" ">
<path fill="none" stroke="#63b8ff" d="M568.64,-55.55C578.43,-47.04 590.58,-36.48 600.59,-27.77"/>
<polygon fill="#63b8ff" stroke="#63b8ff" points="602.66,-30.6 607.91,-21.4 598.07,-25.32 602.66,-30.6"/>
</a>
</g>
</g>
<!-- Node19&#45;&gt;Node3 -->
<g id="edge24_Node000019_Node000003" class="edge">
<title>Node19&#45;&gt;Node3</title>
<g id="a_edge24_Node000019_Node000003"><a xlink:title=" ">
<path fill="none" stroke="#63b8ff" d="M1495.9,-191.53C1528.46,-174.51 1561.36,-149.43 1540.88,-124 1482.36,-51.38 1192.32,-22.97 1073.14,-14.25"/>
<polygon fill="#63b8ff" stroke="#63b8ff" points="1073.55,-10.77 1063.33,-13.55 1073.05,-17.75 1073.55,-10.77"/>
</a>
</g>
</g>
<!-- Node20 -->
<g id="Node000020" class="node">
<title>Node20</title>
<g id="a_Node000020"><a xlink:title=" ">
<polygon fill="#e0e0e0" stroke="#999999" points="1531.88,-150 1359.88,-150 1359.88,-130 1531.88,-130 1531.88,-150"/>
<text text-anchor="middle" x="1445.88" y="-136.5" font-family="Arial" font-size="10.00">GameFramework/PlayerController.h</text>
</a>
</g>
</g>
<!-- Node19&#45;&gt;Node20 -->
<g id="edge25_Node000019_Node000020" class="edge">
<title>Node19&#45;&gt;Node20</title>
<g id="a_edge25_Node000019_Node000020"><a xlink:title=" ">
<path fill="none" stroke="#63b8ff" d="M1445.88,-191.79C1445.88,-182.32 1445.88,-171.2 1445.88,-161.78"/>
<polygon fill="#63b8ff" stroke="#63b8ff" points="1449.38,-161.82 1445.88,-151.82 1442.38,-161.82 1449.38,-161.82"/>
</a>
</g>
</g>
<!-- Node21 -->
<g id="Node000021" class="node">
<title>Node21</title>
<g id="a_Node000021"><a xlink:title=" ">
<polygon fill="#e0e0e0" stroke="#999999" points="1170,-150 1061.75,-150 1061.75,-130 1170,-130 1170,-150"/>
<text text-anchor="middle" x="1115.88" y="-136.5" font-family="Arial" font-size="10.00">Sound/SoundClass.h</text>
</a>
</g>
</g>
<!-- Node19&#45;&gt;Node21 -->
<g id="edge26_Node000019_Node000021" class="edge">
<title>Node19&#45;&gt;Node21</title>
<g id="a_edge26_Node000019_Node000021"><a xlink:title=" ">
<path fill="none" stroke="#63b8ff" d="M1379.12,-199.2C1325.05,-187.92 1246.96,-171.37 1178.88,-156 1174.62,-155.04 1170.2,-154.02 1165.77,-152.99"/>
<polygon fill="#63b8ff" stroke="#63b8ff" points="1166.83,-149.65 1156.3,-150.77 1165.23,-156.46 1166.83,-149.65"/>
</a>
</g>
</g>
<!-- Node22 -->
<g id="Node000022" class="node">
<title>Node22</title>
<g id="a_Node000022"><a xlink:title=" ">
<polygon fill="#e0e0e0" stroke="#999999" points="1341.5,-150 1188.25,-150 1188.25,-130 1341.5,-130 1341.5,-150"/>
<text text-anchor="middle" x="1264.88" y="-136.5" font-family="Arial" font-size="10.00">MyPlayerController.generated.h</text>
</a>
</g>
</g>
<!-- Node19&#45;&gt;Node22 -->
<g id="edge27_Node000019_Node000022" class="edge">
<title>Node19&#45;&gt;Node22</title>
<g id="a_edge27_Node000019_Node000022"><a xlink:title=" ">
<path fill="none" stroke="#63b8ff" d="M1392.06,-191.59C1361.97,-179.62 1325.37,-165.06 1299.17,-154.64"/>
<polygon fill="#63b8ff" stroke="#63b8ff" points="1300.62,-151.45 1290.03,-151.01 1298.03,-157.96 1300.62,-151.45"/>
</a>
</g>
</g>
</g>
</svg>
