<?xml version="1.0" encoding="UTF-8" standalone="no"?>
<!DOCTYPE svg PUBLIC "-//W3C//DTD SVG 1.1//EN"
 "http://www.w3.org/Graphics/SVG/1.1/DTD/svg11.dtd">
<!-- Generated by graphviz version 12.2.1 (20241206.2353)
 -->
<!-- Title: MultiplayerShooter/MultiplayerShooter.h Pages: 1 -->
<svg width="690pt" height="120pt"
 viewBox="0.00 0.00 690.12 120.00" xmlns="http://www.w3.org/2000/svg" xmlns:xlink="http://www.w3.org/1999/xlink">
<g id="graph0" class="graph" transform="scale(1 1) rotate(0) translate(4 116)">
<title>MultiplayerShooter/MultiplayerShooter.h</title>
<!-- Node1 -->
<g id="Node000001" class="node">
<title>Node1</title>
<g id="a_Node000001"><a xlink:title=" ">
<polygon fill="#999999" stroke="#666666" points="422.88,-112 314.62,-112 314.62,-80 422.88,-80 422.88,-112"/>
<text text-anchor="start" x="322.62" y="-98.5" font-family="Arial" font-size="10.00">MultiplayerShooter</text>
<text text-anchor="middle" x="368.75" y="-86.5" font-family="Arial" font-size="10.00">/MultiplayerShooter.h</text>
</a>
</g>
</g>
<!-- Node2 -->
<g id="Node000002" class="node">
<title>Node2</title>
<g id="a_Node000002"><a xlink:href="_lag_compensation_component_8cpp.html" target="_top" xlink:title=" ">
<polygon fill="white" stroke="#666666" points="179.5,-44 0,-44 0,0 179.5,0 179.5,-44"/>
<text text-anchor="start" x="8" y="-30.5" font-family="Arial" font-size="10.00">MultiplayerShooter</text>
<text text-anchor="start" x="8" y="-18.5" font-family="Arial" font-size="10.00">/ActorComponents/LagCompensation</text>
<text text-anchor="middle" x="89.75" y="-6.5" font-family="Arial" font-size="10.00">Component.cpp</text>
</a>
</g>
</g>
<!-- Node1&#45;&gt;Node2 -->
<g id="edge1_Node000001_Node000002" class="edge">
<title>Node1&#45;&gt;Node2</title>
<g id="a_edge1_Node000001_Node000002"><a xlink:title=" ">
<path fill="none" stroke="#63b8ff" d="M303.36,-78.12C264.42,-68.08 214.64,-55.23 172.92,-44.46"/>
<polygon fill="#63b8ff" stroke="#63b8ff" points="302.27,-81.46 312.83,-80.57 304.02,-74.68 302.27,-81.46"/>
</a>
</g>
</g>
<!-- Node3 -->
<g id="Node000003" class="node">
<title>Node3</title>
<g id="a_Node000003"><a xlink:href="_projectile_8cpp.html" target="_top" xlink:title=" ">
<polygon fill="white" stroke="#666666" points="358.12,-44 197.38,-44 197.38,0 358.12,0 358.12,-44"/>
<text text-anchor="start" x="205.38" y="-30.5" font-family="Arial" font-size="10.00">MultiplayerShooter</text>
<text text-anchor="start" x="205.38" y="-18.5" font-family="Arial" font-size="10.00">/BaseWeapon/ProjectileWeapons</text>
<text text-anchor="middle" x="277.75" y="-6.5" font-family="Arial" font-size="10.00">/Projectile.cpp</text>
</a>
</g>
</g>
<!-- Node1&#45;&gt;Node3 -->
<g id="edge2_Node000001_Node000003" class="edge">
<title>Node1&#45;&gt;Node3</title>
<g id="a_edge2_Node000001_Node000003"><a xlink:title=" ">
<path fill="none" stroke="#63b8ff" d="M340.68,-72.79C329.2,-63.71 315.97,-53.24 304.61,-44.26"/>
<polygon fill="#63b8ff" stroke="#63b8ff" points="338.25,-75.33 348.26,-78.79 342.59,-69.84 338.25,-75.33"/>
</a>
</g>
</g>
<!-- Node4 -->
<g id="Node000004" class="node">
<title>Node4</title>
<g id="a_Node000004"><a xlink:href="_main_character_8cpp.html" target="_top" xlink:title=" ">
<polygon fill="white" stroke="#666666" points="544.88,-38 376.62,-38 376.62,-6 544.88,-6 544.88,-38"/>
<text text-anchor="start" x="384.62" y="-24.5" font-family="Arial" font-size="10.00">MultiplayerShooter</text>
<text text-anchor="middle" x="460.75" y="-12.5" font-family="Arial" font-size="10.00">/MainCharacter/MainCharacter.cpp</text>
</a>
</g>
</g>
<!-- Node1&#45;&gt;Node4 -->
<g id="edge3_Node000001_Node000004" class="edge">
<title>Node1&#45;&gt;Node4</title>
<g id="a_edge3_Node000001_Node000004"><a xlink:title=" ">
<path fill="none" stroke="#63b8ff" d="M397.14,-72.78C411.34,-61.67 428.17,-48.5 440.95,-38.5"/>
<polygon fill="#63b8ff" stroke="#63b8ff" points="395.17,-69.88 389.45,-78.8 399.48,-75.39 395.17,-69.88"/>
</a>
</g>
</g>
<!-- Node5 -->
<g id="Node000005" class="node">
<title>Node5</title>
<g id="a_Node000005"><a xlink:href="_multiplayer_shooter_8cpp.html" target="_top" xlink:title=" ">
<polygon fill="white" stroke="#666666" points="682.12,-38 563.38,-38 563.38,-6 682.12,-6 682.12,-38"/>
<text text-anchor="start" x="571.38" y="-24.5" font-family="Arial" font-size="10.00">MultiplayerShooter</text>
<text text-anchor="middle" x="622.75" y="-12.5" font-family="Arial" font-size="10.00">/MultiplayerShooter.cpp</text>
</a>
</g>
</g>
<!-- Node1&#45;&gt;Node5 -->
<g id="edge4_Node000001_Node000005" class="edge">
<title>Node1&#45;&gt;Node5</title>
<g id="a_edge4_Node000001_Node000005"><a xlink:title=" ">
<path fill="none" stroke="#63b8ff" d="M433.8,-77.52C469.32,-67.86 514.02,-55.52 553.75,-44 559.88,-42.22 566.31,-40.32 572.67,-38.41"/>
<polygon fill="#63b8ff" stroke="#63b8ff" points="433.29,-74.03 424.55,-80.03 435.12,-80.79 433.29,-74.03"/>
</a>
</g>
</g>
</g>
</svg>
