<?xml version="1.0" encoding="UTF-8" standalone="no"?>
<!DOCTYPE svg PUBLIC "-//W3C//DTD SVG 1.1//EN"
 "http://www.w3.org/Graphics/SVG/1.1/DTD/svg11.dtd">
<!-- Generated by graphviz version 12.2.1 (20241206.2353)
 -->
<!-- Title: MultiplayerShooter/MainCharacter/MyAnimInstance.cpp Pages: 1 -->
<!--zoomable 300 -->

<svg id="main" version="1.1" xmlns="http://www.w3.org/2000/svg" xmlns:xlink="http://www.w3.org/1999/xlink" xml:space="preserve" onload="init(evt)">

<style type="text/css"><![CDATA[
.node, .edge {opacity: 0.7;}
.node.selected, .edge.selected {opacity: 1;}
.edge:hover path { stroke: red; }
.edge:hover polygon { stroke: red; fill: red; }
]]></style>

<defs>
  <circle id="rim" cx="0" cy="0" r="7"/>
  <circle id="rim2" cx="0" cy="0" r="3.5"/>
  <g id="zoomPlus">
    <use xlink:href="#rim" fill="#404040"><set attributeName="fill" to="#808080" begin="zoomplus.mouseover" end="zoomplus.mouseout"/></use>
    <path d="M-4,0h8M0,-4v8" fill="none" stroke="white" stroke-width="1.5" pointer-events="none"/>
  </g>
  <g id="zoomMin">
    <use xlink:href="#rim" fill="#404040"><set attributeName="fill" to="#808080" begin="zoomminus.mouseover" end="zoomminus.mouseout"/></use>
    <path d="M-4,0h8" fill="none" stroke="white" stroke-width="1.5" pointer-events="none"/>
  </g>
  <g id="arrowUp" transform="translate(30 24)">
    <use xlink:href="#rim"/>
    <path pointer-events="none" fill="none" stroke="white" stroke-width="1.5" d="M0,-3.0v7 M-2.5,-0.5L0,-3.0L2.5,-0.5"/>
  </g>
  <g id="arrowRight" transform="rotate(90) translate(36 -43)">
    <use xlink:href="#rim"/>
    <path pointer-events="none" fill="none" stroke="white" stroke-width="1.5" d="M0,-3.0v7 M-2.5,-0.5L0,-3.0L2.5,-0.5"/>
  </g>
  <g id="arrowDown" transform="rotate(180) translate(-30 -48)">
    <use xlink:href="#rim"/>
    <path pointer-events="none" fill="none" stroke="white" stroke-width="1.5" d="M0,-3.0v7 M-2.5,-0.5L0,-3.0L2.5,-0.5"/>
  </g>
  <g id="arrowLeft" transform="rotate(270) translate(-36 17)">
    <use xlink:href="#rim"/>
    <path pointer-events="none" fill="none" stroke="white" stroke-width="1.5" d="M0,-3.0v7 M-2.5,-0.5L0,-3.0L2.5,-0.5"/>
  </g>
  <g id="resetDef">
    <use xlink:href="#rim2" fill="#404040"><set attributeName="fill" to="#808080" begin="reset.mouseover" end="reset.mouseout"/></use>
  </g>
</defs>
<script type="application/ecmascript">
var viewWidth = 1941;
var viewHeight = 300;
var sectionId = 'dynsection-0';
</script>
<script type="application/ecmascript" xlink:href="svg.min.js"/>
<svg id="graph" class="graph">
<g id="viewport">
<title>MultiplayerShooter/MainCharacter/MyAnimInstance.cpp</title>
<!-- Node1 -->
<g id="Node000001" class="node">
<title>Node1</title>
<g id="a_Node000001"><a xlink:title=" ">
<polygon fill="#999999" stroke="#666666" points="1591.75,-292 1413.75,-292 1413.75,-260 1591.75,-260 1591.75,-292"/>
<text text-anchor="start" x="1421.75" y="-278.5" font-family="Arial" font-size="10.00">MultiplayerShooter</text>
<text text-anchor="middle" x="1502.75" y="-266.5" font-family="Arial" font-size="10.00">/MainCharacter/MyAnimInstance.cpp</text>
</a>
</g>
</g>
<!-- Node2 -->
<g id="Node000002" class="node">
<title>Node2</title>
<g id="a_Node000002"><a xlink:href="_my_anim_instance_8h.html" target="_top" xlink:title=" ">
<polygon fill="white" stroke="#666666" points="1359.62,-218 1261.88,-218 1261.88,-198 1359.62,-198 1359.62,-218"/>
<text text-anchor="middle" x="1310.75" y="-204.5" font-family="Arial" font-size="10.00">MyAnimInstance.h</text>
</a>
</g>
</g>
<!-- Node1&#45;&gt;Node2 -->
<g id="edge1_Node000001_Node000002" class="edge">
<title>Node1&#45;&gt;Node2</title>
<g id="a_edge1_Node000001_Node000002"><a xlink:title=" ">
<path fill="none" stroke="#63b8ff" d="M1457.73,-259.53C1424.62,-248.14 1380.1,-232.84 1348.76,-222.07"/>
<polygon fill="#63b8ff" stroke="#63b8ff" points="1350.3,-218.89 1339.7,-218.95 1348.02,-225.51 1350.3,-218.89"/>
</a>
</g>
</g>
<!-- Node7 -->
<g id="Node000007" class="node">
<title>Node7</title>
<g id="a_Node000007"><a xlink:href="_main_character_8h.html" target="_top" xlink:title=" ">
<polygon fill="white" stroke="#666666" points="764.75,-218 676.75,-218 676.75,-198 764.75,-198 764.75,-218"/>
<text text-anchor="middle" x="720.75" y="-204.5" font-family="Arial" font-size="10.00">MainCharacter.h</text>
</a>
</g>
</g>
<!-- Node1&#45;&gt;Node7 -->
<g id="edge6_Node000001_Node000007" class="edge">
<title>Node1&#45;&gt;Node7</title>
<g id="a_edge6_Node000001_Node000007"><a xlink:title=" ">
<path fill="none" stroke="#63b8ff" d="M1413.43,-267.46C1250.46,-253.71 909.42,-224.92 775.96,-213.66"/>
<polygon fill="#63b8ff" stroke="#63b8ff" points="776.6,-210.2 766.34,-212.85 776.01,-217.18 776.6,-210.2"/>
</a>
</g>
</g>
<!-- Node19 -->
<g id="Node000019" class="node">
<title>Node19</title>
<g id="a_Node000019"><a xlink:title=" ">
<polygon fill="#e0e0e0" stroke="#999999" points="1776,-224 1593.5,-224 1593.5,-192 1776,-192 1776,-224"/>
<text text-anchor="start" x="1601.5" y="-210.5" font-family="Arial" font-size="10.00">GameFramework/CharacterMovement</text>
<text text-anchor="middle" x="1684.75" y="-198.5" font-family="Arial" font-size="10.00">Component.h</text>
</a>
</g>
</g>
<!-- Node1&#45;&gt;Node19 -->
<g id="edge24_Node000001_Node000019" class="edge">
<title>Node1&#45;&gt;Node19</title>
<g id="a_edge24_Node000001_Node000019"><a xlink:title=" ">
<path fill="none" stroke="#63b8ff" d="M1545.42,-259.53C1571.11,-250.21 1604.05,-238.27 1631.44,-228.33"/>
<polygon fill="#63b8ff" stroke="#63b8ff" points="1632.4,-231.71 1640.61,-225.01 1630.01,-225.13 1632.4,-231.71"/>
</a>
</g>
</g>
<!-- Node20 -->
<g id="Node000020" class="node">
<title>Node20</title>
<g id="a_Node000020"><a xlink:title=" ">
<polygon fill="#e0e0e0" stroke="#999999" points="1933.25,-218 1794.25,-218 1794.25,-198 1933.25,-198 1933.25,-218"/>
<text text-anchor="middle" x="1863.75" y="-204.5" font-family="Arial" font-size="10.00">Kismet/KismetMathLibrary.h</text>
</a>
</g>
</g>
<!-- Node1&#45;&gt;Node20 -->
<g id="edge25_Node000001_Node000020" class="edge">
<title>Node1&#45;&gt;Node20</title>
<g id="a_edge25_Node000001_Node000020"><a xlink:title=" ">
<path fill="none" stroke="#63b8ff" d="M1589.49,-259.51C1645.28,-249.5 1719.32,-236.13 1784.75,-224 1790.76,-222.89 1797.02,-221.72 1803.27,-220.54"/>
<polygon fill="#63b8ff" stroke="#63b8ff" points="1803.79,-224 1812.97,-218.71 1802.49,-217.12 1803.79,-224"/>
</a>
</g>
</g>
<!-- Node21 -->
<g id="Node000021" class="node">
<title>Node21</title>
<g id="a_Node000021"><a xlink:href="_base_weapon_8h.html" target="_top" xlink:title=" ">
<polygon fill="white" stroke="#666666" points="1575.62,-224 1429.88,-224 1429.88,-192 1575.62,-192 1575.62,-224"/>
<text text-anchor="start" x="1437.88" y="-210.5" font-family="Arial" font-size="10.00">MultiplayerShooter</text>
<text text-anchor="middle" x="1502.75" y="-198.5" font-family="Arial" font-size="10.00">/BaseWeapon/BaseWeapon.h</text>
</a>
</g>
</g>
<!-- Node1&#45;&gt;Node21 -->
<g id="edge26_Node000001_Node000021" class="edge">
<title>Node1&#45;&gt;Node21</title>
<g id="a_edge26_Node000001_Node000021"><a xlink:title=" ">
<path fill="none" stroke="#63b8ff" d="M1502.75,-259.69C1502.75,-252.53 1502.75,-243.79 1502.75,-235.59"/>
<polygon fill="#63b8ff" stroke="#63b8ff" points="1506.25,-235.74 1502.75,-225.74 1499.25,-235.74 1506.25,-235.74"/>
</a>
</g>
</g>
<!-- Node3 -->
<g id="Node000003" class="node">
<title>Node3</title>
<g id="a_Node000003"><a xlink:title=" ">
<polygon fill="#e0e0e0" stroke="#999999" points="943.25,-20 864.25,-20 864.25,0 943.25,0 943.25,-20"/>
<text text-anchor="middle" x="903.75" y="-6.5" font-family="Arial" font-size="10.00">CoreMinimal.h</text>
</a>
</g>
</g>
<!-- Node2&#45;&gt;Node3 -->
<g id="edge2_Node000002_Node000003" class="edge">
<title>Node2&#45;&gt;Node3</title>
<g id="a_edge2_Node000002_Node000003"><a xlink:title=" ">
<path fill="none" stroke="#63b8ff" d="M1338.65,-197.62C1357.34,-189.71 1380.51,-176.37 1391.75,-156 1398.62,-143.55 1400.6,-135.13 1391.75,-124 1337.47,-55.72 1068.59,-25.06 954.78,-14.99"/>
<polygon fill="#63b8ff" stroke="#63b8ff" points="955.39,-11.53 945.12,-14.16 954.78,-18.5 955.39,-11.53"/>
</a>
</g>
</g>
<!-- Node4 -->
<g id="Node000004" class="node">
<title>Node4</title>
<g id="a_Node000004"><a xlink:title=" ">
<polygon fill="#e0e0e0" stroke="#999999" points="1221.12,-150 1090.38,-150 1090.38,-130 1221.12,-130 1221.12,-150"/>
<text text-anchor="middle" x="1155.75" y="-136.5" font-family="Arial" font-size="10.00">Animation/AnimInstance.h</text>
</a>
</g>
</g>
<!-- Node2&#45;&gt;Node4 -->
<g id="edge3_Node000002_Node000004" class="edge">
<title>Node2&#45;&gt;Node4</title>
<g id="a_edge3_Node000002_Node000004"><a xlink:title=" ">
<path fill="none" stroke="#63b8ff" d="M1288.54,-197.54C1262.3,-186.37 1218.41,-167.68 1188.32,-154.87"/>
<polygon fill="#63b8ff" stroke="#63b8ff" points="1189.88,-151.73 1179.31,-151.03 1187.14,-158.17 1189.88,-151.73"/>
</a>
</g>
</g>
<!-- Node5 -->
<g id="Node000005" class="node">
<title>Node5</title>
<g id="a_Node000005"><a xlink:href="_turning_in_place_8h.html" target="_top" xlink:title=" ">
<polygon fill="white" stroke="#666666" points="1072.62,-156 950.88,-156 950.88,-124 1072.62,-124 1072.62,-156"/>
<text text-anchor="start" x="958.88" y="-142.5" font-family="Arial" font-size="10.00">MultiplayerShooter</text>
<text text-anchor="middle" x="1011.75" y="-130.5" font-family="Arial" font-size="10.00">/Types/TurningInPlace.h</text>
</a>
</g>
</g>
<!-- Node2&#45;&gt;Node5 -->
<g id="edge4_Node000002_Node000005" class="edge">
<title>Node2&#45;&gt;Node5</title>
<g id="a_edge4_Node000002_Node000005"><a xlink:title=" ">
<path fill="none" stroke="#63b8ff" d="M1267.91,-197.54C1220,-186.97 1141.59,-169.66 1084.12,-156.97"/>
<polygon fill="#63b8ff" stroke="#63b8ff" points="1084.92,-153.57 1074.4,-154.83 1083.41,-160.4 1084.92,-153.57"/>
</a>
</g>
</g>
<!-- Node6 -->
<g id="Node000006" class="node">
<title>Node6</title>
<g id="a_Node000006"><a xlink:title=" ">
<polygon fill="#e0e0e0" stroke="#999999" points="1382.5,-150 1239,-150 1239,-130 1382.5,-130 1382.5,-150"/>
<text text-anchor="middle" x="1310.75" y="-136.5" font-family="Arial" font-size="10.00">MyAnimInstance.generated.h</text>
</a>
</g>
</g>
<!-- Node2&#45;&gt;Node6 -->
<g id="edge5_Node000002_Node000006" class="edge">
<title>Node2&#45;&gt;Node6</title>
<g id="a_edge5_Node000002_Node000006"><a xlink:title=" ">
<path fill="none" stroke="#63b8ff" d="M1310.75,-197.54C1310.75,-188.23 1310.75,-173.7 1310.75,-161.7"/>
<polygon fill="#63b8ff" stroke="#63b8ff" points="1314.25,-161.95 1310.75,-151.95 1307.25,-161.95 1314.25,-161.95"/>
</a>
</g>
</g>
<!-- Node7&#45;&gt;Node3 -->
<g id="edge7_Node000007_Node000003" class="edge">
<title>Node7&#45;&gt;Node3</title>
<g id="a_edge7_Node000007_Node000003"><a xlink:title=" ">
<path fill="none" stroke="#63b8ff" d="M764.82,-200.89C813.42,-193.13 886.99,-178.06 903.75,-156 931.45,-119.53 919.78,-61.66 910.71,-31.23"/>
<polygon fill="#63b8ff" stroke="#63b8ff" points="914.06,-30.24 907.68,-21.78 907.4,-32.37 914.06,-30.24"/>
</a>
</g>
</g>
<!-- Node7&#45;&gt;Node5 -->
<g id="edge9_Node000007_Node000005" class="edge">
<title>Node7&#45;&gt;Node5</title>
<g id="a_edge9_Node000007_Node000005"><a xlink:title=" ">
<path fill="none" stroke="#63b8ff" d="M762.44,-197.54C808.63,-187.07 883.94,-169.99 939.72,-157.34"/>
<polygon fill="#63b8ff" stroke="#63b8ff" points="940.15,-160.83 949.13,-155.2 938.6,-154 940.15,-160.83"/>
</a>
</g>
</g>
<!-- Node8 -->
<g id="Node000008" class="node">
<title>Node8</title>
<g id="a_Node000008"><a xlink:title=" ">
<polygon fill="#e0e0e0" stroke="#999999" points="384.25,-150 239.25,-150 239.25,-130 384.25,-130 384.25,-150"/>
<text text-anchor="middle" x="311.75" y="-136.5" font-family="Arial" font-size="10.00">GameFramework/Character.h</text>
</a>
</g>
</g>
<!-- Node7&#45;&gt;Node8 -->
<g id="edge8_Node000007_Node000008" class="edge">
<title>Node7&#45;&gt;Node8</title>
<g id="a_edge8_Node000007_Node000008"><a xlink:title=" ">
<path fill="none" stroke="#63b8ff" d="M676.26,-200.44C613.29,-191.07 494.59,-173.08 393.75,-156 387.26,-154.9 380.49,-153.72 373.74,-152.52"/>
<polygon fill="#63b8ff" stroke="#63b8ff" points="374.41,-149.08 363.94,-150.76 373.17,-155.97 374.41,-149.08"/>
</a>
</g>
</g>
<!-- Node9 -->
<g id="Node000009" class="node">
<title>Node9</title>
<g id="a_Node000009"><a xlink:title=" ">
<polygon fill="#e0e0e0" stroke="#999999" points="549,-150 402.5,-150 402.5,-130 549,-130 549,-150"/>
<text text-anchor="middle" x="475.75" y="-136.5" font-family="Arial" font-size="10.00">Camera/CameraComponent.h</text>
</a>
</g>
</g>
<!-- Node7&#45;&gt;Node9 -->
<g id="edge10_Node000007_Node000009" class="edge">
<title>Node7&#45;&gt;Node9</title>
<g id="a_edge10_Node000007_Node000009"><a xlink:title=" ">
<path fill="none" stroke="#63b8ff" d="M685.65,-197.54C642.53,-185.93 569.27,-166.19 521.7,-153.38"/>
<polygon fill="#63b8ff" stroke="#63b8ff" points="522.82,-150.05 512.25,-150.83 520.99,-156.81 522.82,-150.05"/>
</a>
</g>
</g>
<!-- Node10 -->
<g id="Node000010" class="node">
<title>Node10</title>
<g id="a_Node000010"><a xlink:href="_buff_component_8h.html" target="_top" xlink:title=" ">
<polygon fill="white" stroke="#666666" points="895,-156 718.5,-156 718.5,-124 895,-124 895,-156"/>
<text text-anchor="start" x="726.5" y="-142.5" font-family="Arial" font-size="10.00">MultiplayerShooter</text>
<text text-anchor="middle" x="806.75" y="-130.5" font-family="Arial" font-size="10.00">/ActorComponents/BuffComponent.h</text>
</a>
</g>
</g>
<!-- Node7&#45;&gt;Node10 -->
<g id="edge11_Node000007_Node000010" class="edge">
<title>Node7&#45;&gt;Node10</title>
<g id="a_edge11_Node000007_Node000010"><a xlink:title=" ">
<path fill="none" stroke="#63b8ff" d="M733.07,-197.54C744.69,-188.63 762.53,-174.93 777.75,-163.25"/>
<polygon fill="#63b8ff" stroke="#63b8ff" points="779.81,-166.09 785.61,-157.22 775.55,-160.53 779.81,-166.09"/>
</a>
</g>
</g>
<!-- Node13 -->
<g id="Node000013" class="node">
<title>Node13</title>
<g id="a_Node000013"><a xlink:href="_combat_component_8h.html" target="_top" xlink:title=" ">
<polygon fill="white" stroke="#666666" points="221.62,-156 27.88,-156 27.88,-124 221.62,-124 221.62,-156"/>
<text text-anchor="start" x="35.88" y="-142.5" font-family="Arial" font-size="10.00">MultiplayerShooter</text>
<text text-anchor="middle" x="124.75" y="-130.5" font-family="Arial" font-size="10.00">/ActorComponents/CombatComponent.h</text>
</a>
</g>
</g>
<!-- Node7&#45;&gt;Node13 -->
<g id="edge15_Node000007_Node000013" class="edge">
<title>Node7&#45;&gt;Node13</title>
<g id="a_edge15_Node000007_Node000013"><a xlink:title=" ">
<path fill="none" stroke="#63b8ff" d="M676.34,-202.96C592.02,-195.17 402.68,-177.09 233.36,-156.42"/>
<polygon fill="#63b8ff" stroke="#63b8ff" points="233.84,-152.95 223.49,-155.21 232.98,-159.9 233.84,-152.95"/>
</a>
</g>
</g>
<!-- Node18 -->
<g id="Node000018" class="node">
<title>Node18</title>
<g id="a_Node000018"><a xlink:title=" ">
<polygon fill="#e0e0e0" stroke="#999999" points="700.62,-150 566.88,-150 566.88,-130 700.62,-130 700.62,-150"/>
<text text-anchor="middle" x="633.75" y="-136.5" font-family="Arial" font-size="10.00">MainCharacter.generated.h</text>
</a>
</g>
</g>
<!-- Node7&#45;&gt;Node18 -->
<g id="edge23_Node000007_Node000018" class="edge">
<title>Node7&#45;&gt;Node18</title>
<g id="a_edge23_Node000007_Node000018"><a xlink:title=" ">
<path fill="none" stroke="#63b8ff" d="M708.29,-197.54C694.46,-187.06 671.91,-169.95 655.23,-157.29"/>
<polygon fill="#63b8ff" stroke="#63b8ff" points="657.48,-154.61 647.4,-151.35 653.25,-160.19 657.48,-154.61"/>
</a>
</g>
</g>
<!-- Node10&#45;&gt;Node3 -->
<g id="edge12_Node000010_Node000003" class="edge">
<title>Node10&#45;&gt;Node3</title>
<g id="a_edge12_Node000010_Node000003"><a xlink:title=" ">
<path fill="none" stroke="#63b8ff" d="M828.58,-123.56C840.63,-114.26 855.23,-101.6 865.75,-88 879.4,-70.35 890.08,-47.02 896.59,-30.68"/>
<polygon fill="#63b8ff" stroke="#63b8ff" points="899.76,-32.21 900.05,-21.62 893.21,-29.72 899.76,-32.21"/>
</a>
</g>
</g>
<!-- Node11 -->
<g id="Node000011" class="node">
<title>Node11</title>
<g id="a_Node000011"><a xlink:title=" ">
<polygon fill="#e0e0e0" stroke="#999999" points="629.88,-82 473.62,-82 473.62,-62 629.88,-62 629.88,-82"/>
<text text-anchor="middle" x="551.75" y="-68.5" font-family="Arial" font-size="10.00">Components/ActorComponent.h</text>
</a>
</g>
</g>
<!-- Node10&#45;&gt;Node11 -->
<g id="edge13_Node000010_Node000011" class="edge">
<title>Node10&#45;&gt;Node11</title>
<g id="a_edge13_Node000010_Node000011"><a xlink:title=" ">
<path fill="none" stroke="#63b8ff" d="M746.96,-123.53C701.93,-111.87 641.01,-96.1 599.27,-85.3"/>
<polygon fill="#63b8ff" stroke="#63b8ff" points="600.32,-81.96 589.77,-82.84 598.57,-88.73 600.32,-81.96"/>
</a>
</g>
</g>
<!-- Node12 -->
<g id="Node000012" class="node">
<title>Node12</title>
<g id="a_Node000012"><a xlink:title=" ">
<polygon fill="#e0e0e0" stroke="#999999" points="856.5,-82 719,-82 719,-62 856.5,-62 856.5,-82"/>
<text text-anchor="middle" x="787.75" y="-68.5" font-family="Arial" font-size="10.00">BuffComponent.generated.h</text>
</a>
</g>
</g>
<!-- Node10&#45;&gt;Node12 -->
<g id="edge14_Node000010_Node000012" class="edge">
<title>Node10&#45;&gt;Node12</title>
<g id="a_edge14_Node000010_Node000012"><a xlink:title=" ">
<path fill="none" stroke="#63b8ff" d="M802.34,-123.69C799.72,-114.6 796.37,-102.95 793.54,-93.12"/>
<polygon fill="#63b8ff" stroke="#63b8ff" points="796.98,-92.41 790.85,-83.77 790.25,-94.35 796.98,-92.41"/>
</a>
</g>
</g>
<!-- Node13&#45;&gt;Node3 -->
<g id="edge16_Node000013_Node000003" class="edge">
<title>Node13&#45;&gt;Node3</title>
<g id="a_edge16_Node000013_Node000003"><a xlink:title=" ">
<path fill="none" stroke="#63b8ff" d="M141.72,-123.83C168,-100.42 216.04,-57.93 220.75,-56 278.62,-32.26 703.3,-17.13 852.28,-12.51"/>
<polygon fill="#63b8ff" stroke="#63b8ff" points="852.36,-16.01 862.25,-12.2 852.15,-9.01 852.36,-16.01"/>
</a>
</g>
</g>
<!-- Node13&#45;&gt;Node11 -->
<g id="edge17_Node000013_Node000011" class="edge">
<title>Node13&#45;&gt;Node11</title>
<g id="a_edge17_Node000013_Node000011"><a xlink:title=" ">
<path fill="none" stroke="#63b8ff" d="M221.91,-123.98C300.17,-111.89 408.45,-95.15 479.27,-84.2"/>
<polygon fill="#63b8ff" stroke="#63b8ff" points="479.46,-87.72 488.81,-82.73 478.39,-80.8 479.46,-87.72"/>
</a>
</g>
</g>
<!-- Node14 -->
<g id="Node000014" class="node">
<title>Node14</title>
<g id="a_Node000014"><a xlink:href="_main_h_u_d_8h.html" target="_top" xlink:title=" ">
<polygon fill="white" stroke="#666666" points="173.25,-88 76.25,-88 76.25,-56 173.25,-56 173.25,-88"/>
<text text-anchor="start" x="84.25" y="-74.5" font-family="Arial" font-size="10.00">MultiplayerShooter</text>
<text text-anchor="middle" x="124.75" y="-62.5" font-family="Arial" font-size="10.00">/HUD/MainHUD.h</text>
</a>
</g>
</g>
<!-- Node13&#45;&gt;Node14 -->
<g id="edge18_Node000013_Node000014" class="edge">
<title>Node13&#45;&gt;Node14</title>
<g id="a_edge18_Node000013_Node000014"><a xlink:title=" ">
<path fill="none" stroke="#63b8ff" d="M124.75,-123.69C124.75,-116.53 124.75,-107.79 124.75,-99.59"/>
<polygon fill="#63b8ff" stroke="#63b8ff" points="128.25,-99.74 124.75,-89.74 121.25,-99.74 128.25,-99.74"/>
</a>
</g>
</g>
<!-- Node17 -->
<g id="Node000017" class="node">
<title>Node17</title>
<g id="a_Node000017"><a xlink:title=" ">
<polygon fill="#e0e0e0" stroke="#999999" points="384.12,-82 229.38,-82 229.38,-62 384.12,-62 384.12,-82"/>
<text text-anchor="middle" x="306.75" y="-68.5" font-family="Arial" font-size="10.00">CombatComponent.generated.h</text>
</a>
</g>
</g>
<!-- Node13&#45;&gt;Node17 -->
<g id="edge22_Node000013_Node000017" class="edge">
<title>Node13&#45;&gt;Node17</title>
<g id="a_edge22_Node000013_Node000017"><a xlink:title=" ">
<path fill="none" stroke="#63b8ff" d="M167.42,-123.53C198.54,-112.24 240.28,-97.11 269.93,-86.35"/>
<polygon fill="#63b8ff" stroke="#63b8ff" points="271.03,-89.68 279.24,-82.98 268.65,-83.09 271.03,-89.68"/>
</a>
</g>
</g>
<!-- Node14&#45;&gt;Node3 -->
<g id="edge19_Node000014_Node000003" class="edge">
<title>Node14&#45;&gt;Node3</title>
<g id="a_edge19_Node000014_Node000003"><a xlink:title=" ">
<path fill="none" stroke="#63b8ff" d="M173.43,-58.54C178.25,-57.57 183.08,-56.7 187.75,-56 434.87,-19.09 734.37,-12.4 852.4,-11.22"/>
<polygon fill="#63b8ff" stroke="#63b8ff" points="852.43,-14.72 862.4,-11.14 852.37,-7.73 852.43,-14.72"/>
</a>
</g>
</g>
<!-- Node15 -->
<g id="Node000015" class="node">
<title>Node15</title>
<g id="a_Node000015"><a xlink:title=" ">
<polygon fill="#e0e0e0" stroke="#999999" points="256.12,-20 131.38,-20 131.38,0 256.12,0 256.12,-20"/>
<text text-anchor="middle" x="193.75" y="-6.5" font-family="Arial" font-size="10.00">GameFramework/HUD.h</text>
</a>
</g>
</g>
<!-- Node14&#45;&gt;Node15 -->
<g id="edge20_Node000014_Node000015" class="edge">
<title>Node14&#45;&gt;Node15</title>
<g id="a_edge20_Node000014_Node000015"><a xlink:title=" ">
<path fill="none" stroke="#63b8ff" d="M142.52,-55.55C152.3,-47.04 164.45,-36.48 174.47,-27.77"/>
<polygon fill="#63b8ff" stroke="#63b8ff" points="176.54,-30.6 181.79,-21.4 171.95,-25.32 176.54,-30.6"/>
</a>
</g>
</g>
<!-- Node16 -->
<g id="Node000016" class="node">
<title>Node16</title>
<g id="a_Node000016"><a xlink:title=" ">
<polygon fill="#e0e0e0" stroke="#999999" points="113.5,-20 0,-20 0,0 113.5,0 113.5,-20"/>
<text text-anchor="middle" x="56.75" y="-6.5" font-family="Arial" font-size="10.00">MainHUD.generated.h</text>
</a>
</g>
</g>
<!-- Node14&#45;&gt;Node16 -->
<g id="edge21_Node000014_Node000016" class="edge">
<title>Node14&#45;&gt;Node16</title>
<g id="a_edge21_Node000014_Node000016"><a xlink:title=" ">
<path fill="none" stroke="#63b8ff" d="M107.24,-55.55C97.6,-47.04 85.62,-36.48 75.75,-27.77"/>
<polygon fill="#63b8ff" stroke="#63b8ff" points="78.36,-25.4 68.55,-21.41 73.73,-30.65 78.36,-25.4"/>
</a>
</g>
</g>
<!-- Node21&#45;&gt;Node3 -->
<g id="edge27_Node000021_Node000003" class="edge">
<title>Node21&#45;&gt;Node3</title>
<g id="a_edge27_Node000021_Node000003"><a xlink:title=" ">
<path fill="none" stroke="#63b8ff" d="M1538.08,-191.54C1552.51,-183.24 1567.68,-171.49 1575.75,-156 1582.32,-143.39 1584.52,-135.2 1575.75,-124 1499.41,-26.48 1098.47,-12.89 954.93,-11.18"/>
<polygon fill="#63b8ff" stroke="#63b8ff" points="954.99,-7.68 944.96,-11.07 954.92,-14.68 954.99,-7.68"/>
</a>
</g>
</g>
<!-- Node22 -->
<g id="Node000022" class="node">
<title>Node22</title>
<g id="a_Node000022"><a xlink:title=" ">
<polygon fill="#e0e0e0" stroke="#999999" points="1748.5,-150 1623,-150 1623,-130 1748.5,-130 1748.5,-150"/>
<text text-anchor="middle" x="1685.75" y="-136.5" font-family="Arial" font-size="10.00">GameFramework/Actor.h</text>
</a>
</g>
</g>
<!-- Node21&#45;&gt;Node22 -->
<g id="edge28_Node000021_Node000022" class="edge">
<title>Node21&#45;&gt;Node22</title>
<g id="a_edge28_Node000021_Node000022"><a xlink:title=" ">
<path fill="none" stroke="#63b8ff" d="M1545.66,-191.53C1576.94,-180.24 1618.91,-165.11 1648.73,-154.35"/>
<polygon fill="#63b8ff" stroke="#63b8ff" points="1649.88,-157.66 1658.1,-150.97 1647.5,-151.07 1649.88,-157.66"/>
</a>
</g>
</g>
<!-- Node23 -->
<g id="Node000023" class="node">
<title>Node23</title>
<g id="a_Node000023"><a xlink:title=" ">
<polygon fill="#e0e0e0" stroke="#999999" points="1566.62,-150 1438.88,-150 1438.88,-130 1566.62,-130 1566.62,-150"/>
<text text-anchor="middle" x="1502.75" y="-136.5" font-family="Arial" font-size="10.00">BaseWeapon.generated.h</text>
</a>
</g>
</g>
<!-- Node21&#45;&gt;Node23 -->
<g id="edge29_Node000021_Node000023" class="edge">
<title>Node21&#45;&gt;Node23</title>
<g id="a_edge29_Node000021_Node000023"><a xlink:title=" ">
<path fill="none" stroke="#63b8ff" d="M1502.75,-191.69C1502.75,-182.8 1502.75,-171.46 1502.75,-161.77"/>
<polygon fill="#63b8ff" stroke="#63b8ff" points="1506.25,-161.83 1502.75,-151.83 1499.25,-161.83 1506.25,-161.83"/>
</a>
</g>
</g>
</g>
</svg>

<g id="navigator" transform="translate(0 0)" fill="#404254">
  <rect fill="#f2f5e9" fill-opacity="0.5" stroke="#606060" stroke-width=".5" x="0" y="0" width="60" height="60"/>
  <use id="zoomplus" xlink:href="#zoomPlus" x="17" y="9" onmousedown="handleZoom(evt,'in')"/>
  <use id="zoomminus" xlink:href="#zoomMin" x="42" y="9" onmousedown="handleZoom(evt,'out')"/>
  <use id="reset" xlink:href="#resetDef" x="30" y="36" onmousedown="handleReset()"/>
   <use id="arrowup" xlink:href="#arrowUp" x="0" y="0" onmousedown="handlePan(0,-1)"/>
  <use id="arrowright" xlink:href="#arrowRight" x="0" y="0" onmousedown="handlePan(1,0)"/>
  <use id="arrowdown" xlink:href="#arrowDown" x="0" y="0" onmousedown="handlePan(0,1)"/>
  <use id="arrowleft" xlink:href="#arrowLeft" x="0" y="0" onmousedown="handlePan(-1,0)"/>
</g>
<svg viewBox="0 0 15 15" width="100%" height="30px" preserveAspectRatio="xMaxYMin meet">
 <g id="arrow_out" transform="scale(0.3 0.3)">
  <a xlink:href="_my_anim_instance_8cpp__incl_org.svg" target="_base">
   <rect id="button" ry="5" rx="5" y="6" x="6" height="38" width="38"
        fill="#f2f5e9" fill-opacity="0.5" stroke="#606060" stroke-width="1.0"/>
   <path id="arrow"
     d="M 11.500037,31.436501 C 11.940474,20.09759 22.043105,11.32322 32.158766,21.979434 L 37.068811,17.246167 C 37.068811,17.246167 37.088388,32 37.088388,32 L 22.160133,31.978069 C 22.160133,31.978069 26.997745,27.140456 26.997745,27.140456 C 18.528582,18.264221 13.291696,25.230495 11.500037,31.436501 z"
     style="fill:#404040;"/>
  </a>
 </g>
</svg>

<style type='text/css'>
<![CDATA[
[data-mouse-over-selected='false'] { opacity: 0.7; }
[data-mouse-over-selected='true']  { opacity: 1.0; }
]]>
</style>
<script type="application/ecmascript"><![CDATA[
document.addEventListener('DOMContentLoaded', (event) => {
  highlightEdges();
  highlightAdjacentNodes();
});
]]></script>
</svg>
