<?xml version="1.0" encoding="UTF-8" standalone="no"?>
<!DOCTYPE svg PUBLIC "-//W3C//DTD SVG 1.1//EN"
 "http://www.w3.org/Graphics/SVG/1.1/DTD/svg11.dtd">
<!-- Generated by graphviz version 12.2.1 (20241206.2353)
 -->
<!-- Title: MultiplayerShooter/MainCharacter/MyAnimInstance.h Pages: 1 -->
<svg width="537pt" height="108pt"
 viewBox="0.00 0.00 537.25 108.00" xmlns="http://www.w3.org/2000/svg" xmlns:xlink="http://www.w3.org/1999/xlink">
<g id="graph0" class="graph" transform="scale(1 1) rotate(0) translate(4 104)">
<title>MultiplayerShooter/MainCharacter/MyAnimInstance.h</title>
<!-- Node1 -->
<g id="Node000001" class="node">
<title>Node1</title>
<g id="a_Node000001"><a xlink:title=" ">
<polygon fill="#999999" stroke="#666666" points="318.25,-100 150.75,-100 150.75,-68 318.25,-68 318.25,-100"/>
<text text-anchor="start" x="158.75" y="-86.5" font-family="Arial" font-size="10.00">MultiplayerShooter</text>
<text text-anchor="middle" x="234.5" y="-74.5" font-family="Arial" font-size="10.00">/MainCharacter/MyAnimInstance.h</text>
</a>
</g>
</g>
<!-- Node2 -->
<g id="Node000002" class="node">
<title>Node2</title>
<g id="a_Node000002"><a xlink:title=" ">
<polygon fill="#e0e0e0" stroke="#999999" points="79,-26 0,-26 0,-6 79,-6 79,-26"/>
<text text-anchor="middle" x="39.5" y="-12.5" font-family="Arial" font-size="10.00">CoreMinimal.h</text>
</a>
</g>
</g>
<!-- Node1&#45;&gt;Node2 -->
<g id="edge1_Node000001_Node000002" class="edge">
<title>Node1&#45;&gt;Node2</title>
<g id="a_edge1_Node000001_Node000002"><a xlink:title=" ">
<path fill="none" stroke="#63b8ff" d="M188.78,-67.53C155.15,-56.14 109.93,-40.84 78.11,-30.07"/>
<polygon fill="#63b8ff" stroke="#63b8ff" points="79.48,-26.84 68.88,-26.95 77.23,-33.47 79.48,-26.84"/>
</a>
</g>
</g>
<!-- Node3 -->
<g id="Node000003" class="node">
<title>Node3</title>
<g id="a_Node000003"><a xlink:title=" ">
<polygon fill="#e0e0e0" stroke="#999999" points="227.88,-26 97.12,-26 97.12,-6 227.88,-6 227.88,-26"/>
<text text-anchor="middle" x="162.5" y="-12.5" font-family="Arial" font-size="10.00">Animation/AnimInstance.h</text>
</a>
</g>
</g>
<!-- Node1&#45;&gt;Node3 -->
<g id="edge2_Node000001_Node000003" class="edge">
<title>Node1&#45;&gt;Node3</title>
<g id="a_edge2_Node000001_Node000003"><a xlink:title=" ">
<path fill="none" stroke="#63b8ff" d="M217.8,-67.69C206.79,-57.6 192.35,-44.36 180.99,-33.95"/>
<polygon fill="#63b8ff" stroke="#63b8ff" points="183.52,-31.52 173.78,-27.34 178.79,-36.68 183.52,-31.52"/>
</a>
</g>
</g>
<!-- Node4 -->
<g id="Node000004" class="node">
<title>Node4</title>
<g id="a_Node000004"><a xlink:href="_turning_in_place_8h.html" target="_top" xlink:title=" ">
<polygon fill="white" stroke="#666666" points="367.38,-32 245.62,-32 245.62,0 367.38,0 367.38,-32"/>
<text text-anchor="start" x="253.62" y="-18.5" font-family="Arial" font-size="10.00">MultiplayerShooter</text>
<text text-anchor="middle" x="306.5" y="-6.5" font-family="Arial" font-size="10.00">/Types/TurningInPlace.h</text>
</a>
</g>
</g>
<!-- Node1&#45;&gt;Node4 -->
<g id="edge3_Node000001_Node000004" class="edge">
<title>Node1&#45;&gt;Node4</title>
<g id="a_edge3_Node000001_Node000004"><a xlink:title=" ">
<path fill="none" stroke="#63b8ff" d="M251.2,-67.69C260.2,-59.45 271.48,-49.11 281.5,-39.92"/>
<polygon fill="#63b8ff" stroke="#63b8ff" points="283.77,-42.58 288.78,-33.25 279.04,-37.42 283.77,-42.58"/>
</a>
</g>
</g>
<!-- Node5 -->
<g id="Node000005" class="node">
<title>Node5</title>
<g id="a_Node000005"><a xlink:title=" ">
<polygon fill="#e0e0e0" stroke="#999999" points="529.25,-26 385.75,-26 385.75,-6 529.25,-6 529.25,-26"/>
<text text-anchor="middle" x="457.5" y="-12.5" font-family="Arial" font-size="10.00">MyAnimInstance.generated.h</text>
</a>
</g>
</g>
<!-- Node1&#45;&gt;Node5 -->
<g id="edge4_Node000001_Node000005" class="edge">
<title>Node1&#45;&gt;Node5</title>
<g id="a_edge4_Node000001_Node000005"><a xlink:title=" ">
<path fill="none" stroke="#63b8ff" d="M286.78,-67.53C325.75,-55.99 378.31,-40.44 414.77,-29.65"/>
<polygon fill="#63b8ff" stroke="#63b8ff" points="415.49,-33.08 424.09,-26.89 413.5,-26.37 415.49,-33.08"/>
</a>
</g>
</g>
</g>
</svg>
