<?xml version="1.0" encoding="UTF-8" standalone="no"?>
<!DOCTYPE svg PUBLIC "-//W3C//DTD SVG 1.1//EN"
 "http://www.w3.org/Graphics/SVG/1.1/DTD/svg11.dtd">
<!-- Generated by graphviz version 12.2.1 (20241206.2353)
 -->
<!-- Title: MultiplayerShooter/PlayerController/MyPlayerController.h Pages: 1 -->
<svg width="1897pt" height="132pt"
 viewBox="0.00 0.00 1897.12 132.00" xmlns="http://www.w3.org/2000/svg" xmlns:xlink="http://www.w3.org/1999/xlink">
<g id="graph0" class="graph" transform="scale(1 1) rotate(0) translate(4 128)">
<title>MultiplayerShooter/PlayerController/MyPlayerController.h</title>
<!-- Node1 -->
<g id="Node000001" class="node">
<title>Node1</title>
<g id="a_Node000001"><a xlink:title=" ">
<polygon fill="#999999" stroke="#666666" points="1056.62,-124 923.62,-124 923.62,-80 1056.62,-80 1056.62,-124"/>
<text text-anchor="start" x="931.62" y="-110.5" font-family="Arial" font-size="10.00">MultiplayerShooter</text>
<text text-anchor="start" x="931.62" y="-98.5" font-family="Arial" font-size="10.00">/PlayerController/MyPlayer</text>
<text text-anchor="middle" x="990.12" y="-86.5" font-family="Arial" font-size="10.00">Controller.h</text>
</a>
</g>
</g>
<!-- Node2 -->
<g id="Node000002" class="node">
<title>Node2</title>
<g id="a_Node000002"><a xlink:href="_combat_component_8cpp.html" target="_top" xlink:title=" ">
<polygon fill="white" stroke="#666666" points="204.25,-38 0,-38 0,-6 204.25,-6 204.25,-38"/>
<text text-anchor="start" x="8" y="-24.5" font-family="Arial" font-size="10.00">MultiplayerShooter</text>
<text text-anchor="middle" x="102.12" y="-12.5" font-family="Arial" font-size="10.00">/ActorComponents/CombatComponent.cpp</text>
</a>
</g>
</g>
<!-- Node1&#45;&gt;Node2 -->
<g id="edge1_Node000001_Node000002" class="edge">
<title>Node1&#45;&gt;Node2</title>
<g id="a_edge1_Node000001_Node000002"><a xlink:title=" ">
<path fill="none" stroke="#63b8ff" d="M911.89,-98.21C771.46,-92.54 467.5,-77.28 213.12,-44 201.55,-42.49 189.37,-40.54 177.47,-38.45"/>
<polygon fill="#63b8ff" stroke="#63b8ff" points="911.7,-101.7 921.83,-98.6 911.98,-94.71 911.7,-101.7"/>
</a>
</g>
</g>
<!-- Node3 -->
<g id="Node000003" class="node">
<title>Node3</title>
<g id="a_Node000003"><a xlink:href="_base_weapon_8cpp.html" target="_top" xlink:title=" ">
<polygon fill="white" stroke="#666666" points="378.25,-38 222,-38 222,-6 378.25,-6 378.25,-38"/>
<text text-anchor="start" x="230" y="-24.5" font-family="Arial" font-size="10.00">MultiplayerShooter</text>
<text text-anchor="middle" x="300.12" y="-12.5" font-family="Arial" font-size="10.00">/BaseWeapon/BaseWeapon.cpp</text>
</a>
</g>
</g>
<!-- Node1&#45;&gt;Node3 -->
<g id="edge2_Node000001_Node000003" class="edge">
<title>Node1&#45;&gt;Node3</title>
<g id="a_edge2_Node000001_Node000003"><a xlink:title=" ">
<path fill="none" stroke="#63b8ff" d="M911.87,-97.09C796.59,-90.55 574.61,-74.92 388.12,-44 378.98,-42.48 369.38,-40.55 360.02,-38.47"/>
<polygon fill="#63b8ff" stroke="#63b8ff" points="911.68,-100.59 921.86,-97.65 912.07,-93.6 911.68,-100.59"/>
</a>
</g>
</g>
<!-- Node4 -->
<g id="Node000004" class="node">
<title>Node4</title>
<g id="a_Node000004"><a xlink:href="_projectile_bullet_8cpp.html" target="_top" xlink:title=" ">
<polygon fill="white" stroke="#666666" points="557.5,-44 396.75,-44 396.75,0 557.5,0 557.5,-44"/>
<text text-anchor="start" x="404.75" y="-30.5" font-family="Arial" font-size="10.00">MultiplayerShooter</text>
<text text-anchor="start" x="404.75" y="-18.5" font-family="Arial" font-size="10.00">/BaseWeapon/ProjectileWeapons</text>
<text text-anchor="middle" x="477.12" y="-6.5" font-family="Arial" font-size="10.00">/ProjectileBullet.cpp</text>
</a>
</g>
</g>
<!-- Node1&#45;&gt;Node4 -->
<g id="edge3_Node000001_Node000004" class="edge">
<title>Node1&#45;&gt;Node4</title>
<g id="a_edge3_Node000001_Node000004"><a xlink:title=" ">
<path fill="none" stroke="#63b8ff" d="M911.93,-92.81C826.57,-83.34 686.05,-66.16 566.12,-44 563.31,-43.48 560.46,-42.93 557.58,-42.36"/>
<polygon fill="#63b8ff" stroke="#63b8ff" points="911.52,-96.29 921.84,-93.91 912.28,-89.33 911.52,-96.29"/>
</a>
</g>
</g>
<!-- Node5 -->
<g id="Node000005" class="node">
<title>Node5</title>
<g id="a_Node000005"><a xlink:href="_lobby_game_mode_8cpp.html" target="_top" xlink:title=" ">
<polygon fill="white" stroke="#666666" points="742.88,-38 575.38,-38 575.38,-6 742.88,-6 742.88,-38"/>
<text text-anchor="start" x="583.38" y="-24.5" font-family="Arial" font-size="10.00">MultiplayerShooter</text>
<text text-anchor="middle" x="659.12" y="-12.5" font-family="Arial" font-size="10.00">/GameMode/LobbyGameMode.cpp</text>
</a>
</g>
</g>
<!-- Node1&#45;&gt;Node5 -->
<g id="edge4_Node000001_Node000005" class="edge">
<title>Node1&#45;&gt;Node5</title>
<g id="a_edge4_Node000001_Node000005"><a xlink:title=" ">
<path fill="none" stroke="#63b8ff" d="M912.02,-82.59C855.06,-69.17 778.73,-51.19 724.88,-38.49"/>
<polygon fill="#63b8ff" stroke="#63b8ff" points="911.13,-85.98 921.67,-84.87 912.74,-79.17 911.13,-85.98"/>
</a>
</g>
</g>
<!-- Node6 -->
<g id="Node000006" class="node">
<title>Node6</title>
<g id="a_Node000006"><a xlink:href="_main_game_mode_8cpp.html" target="_top" xlink:title=" ">
<polygon fill="white" stroke="#666666" points="923.25,-38 761,-38 761,-6 923.25,-6 923.25,-38"/>
<text text-anchor="start" x="769" y="-24.5" font-family="Arial" font-size="10.00">MultiplayerShooter</text>
<text text-anchor="middle" x="842.12" y="-12.5" font-family="Arial" font-size="10.00">/GameMode/MainGameMode.cpp</text>
</a>
</g>
</g>
<!-- Node1&#45;&gt;Node6 -->
<g id="edge5_Node000001_Node000006" class="edge">
<title>Node1&#45;&gt;Node6</title>
<g id="a_edge5_Node000001_Node000006"><a xlink:title=" ">
<path fill="none" stroke="#63b8ff" d="M939.8,-74.48C916.96,-62.44 890.77,-48.64 871.25,-38.35"/>
<polygon fill="#63b8ff" stroke="#63b8ff" points="937.87,-77.41 948.34,-78.98 941.13,-71.22 937.87,-77.41"/>
</a>
</g>
</g>
<!-- Node7 -->
<g id="Node000007" class="node">
<title>Node7</title>
<g id="a_Node000007"><a xlink:href="_chat_8cpp.html" target="_top" xlink:title=" ">
<polygon fill="white" stroke="#666666" points="1038.62,-38 941.62,-38 941.62,-6 1038.62,-6 1038.62,-38"/>
<text text-anchor="start" x="949.62" y="-24.5" font-family="Arial" font-size="10.00">MultiplayerShooter</text>
<text text-anchor="middle" x="990.12" y="-12.5" font-family="Arial" font-size="10.00">/HUD/Chat.cpp</text>
</a>
</g>
</g>
<!-- Node1&#45;&gt;Node7 -->
<g id="edge6_Node000001_Node000007" class="edge">
<title>Node1&#45;&gt;Node7</title>
<g id="a_edge6_Node000001_Node000007"><a xlink:title=" ">
<path fill="none" stroke="#63b8ff" d="M990.12,-68.28C990.12,-57.8 990.12,-46.7 990.12,-38.11"/>
<polygon fill="#63b8ff" stroke="#63b8ff" points="986.63,-68.17 990.13,-78.17 993.63,-68.17 986.63,-68.17"/>
</a>
</g>
</g>
<!-- Node8 -->
<g id="Node000008" class="node">
<title>Node8</title>
<g id="a_Node000008"><a xlink:href="_settings_menu_8cpp.html" target="_top" xlink:title=" ">
<polygon fill="white" stroke="#666666" points="1179.75,-38 1056.5,-38 1056.5,-6 1179.75,-6 1179.75,-38"/>
<text text-anchor="start" x="1064.5" y="-24.5" font-family="Arial" font-size="10.00">MultiplayerShooter</text>
<text text-anchor="middle" x="1118.12" y="-12.5" font-family="Arial" font-size="10.00">/HUD/SettingsMenu.cpp</text>
</a>
</g>
</g>
<!-- Node1&#45;&gt;Node8 -->
<g id="edge7_Node000001_Node000008" class="edge">
<title>Node1&#45;&gt;Node8</title>
<g id="a_edge7_Node000001_Node000008"><a xlink:title=" ">
<path fill="none" stroke="#63b8ff" d="M1034.72,-73.83C1054.21,-61.95 1076.36,-48.45 1092.93,-38.35"/>
<polygon fill="#63b8ff" stroke="#63b8ff" points="1033.11,-70.71 1026.39,-78.9 1036.75,-76.68 1033.11,-70.71"/>
</a>
</g>
</g>
<!-- Node9 -->
<g id="Node000009" class="node">
<title>Node9</title>
<g id="a_Node000009"><a xlink:href="_main_character_8cpp.html" target="_top" xlink:title=" ">
<polygon fill="white" stroke="#666666" points="1366.25,-38 1198,-38 1198,-6 1366.25,-6 1366.25,-38"/>
<text text-anchor="start" x="1206" y="-24.5" font-family="Arial" font-size="10.00">MultiplayerShooter</text>
<text text-anchor="middle" x="1282.12" y="-12.5" font-family="Arial" font-size="10.00">/MainCharacter/MainCharacter.cpp</text>
</a>
</g>
</g>
<!-- Node1&#45;&gt;Node9 -->
<g id="edge8_Node000001_Node000009" class="edge">
<title>Node1&#45;&gt;Node9</title>
<g id="a_edge8_Node000001_Node000009"><a xlink:title=" ">
<path fill="none" stroke="#63b8ff" d="M1068.03,-80.19C1117.17,-67.06 1179.58,-50.39 1224.32,-38.44"/>
<polygon fill="#63b8ff" stroke="#63b8ff" points="1067.34,-76.75 1058.58,-82.71 1069.14,-83.52 1067.34,-76.75"/>
</a>
</g>
</g>
<!-- Node10 -->
<g id="Node000010" class="node">
<title>Node10</title>
<g id="a_Node000010"><a xlink:href="_my_player_controller_8cpp.html" target="_top" xlink:title=" ">
<polygon fill="white" stroke="#666666" points="1517.62,-44 1384.62,-44 1384.62,0 1517.62,0 1517.62,-44"/>
<text text-anchor="start" x="1392.62" y="-30.5" font-family="Arial" font-size="10.00">MultiplayerShooter</text>
<text text-anchor="start" x="1392.62" y="-18.5" font-family="Arial" font-size="10.00">/PlayerController/MyPlayer</text>
<text text-anchor="middle" x="1451.12" y="-6.5" font-family="Arial" font-size="10.00">Controller.cpp</text>
</a>
</g>
</g>
<!-- Node1&#45;&gt;Node10 -->
<g id="edge9_Node000001_Node000010" class="edge">
<title>Node1&#45;&gt;Node10</title>
<g id="a_edge9_Node000001_Node000010"><a xlink:title=" ">
<path fill="none" stroke="#63b8ff" d="M1068.18,-92.29C1146.32,-82.91 1269.74,-66.27 1375.12,-44 1378.21,-43.35 1381.35,-42.65 1384.51,-41.9"/>
<polygon fill="#63b8ff" stroke="#63b8ff" points="1068.01,-88.79 1058.49,-93.44 1068.84,-95.74 1068.01,-88.79"/>
</a>
</g>
</g>
<!-- Node11 -->
<g id="Node000011" class="node">
<title>Node11</title>
<g id="a_Node000011"><a xlink:href="_main_player_state_8cpp.html" target="_top" xlink:title=" ">
<polygon fill="white" stroke="#666666" points="1699,-38 1535.25,-38 1535.25,-6 1699,-6 1699,-38"/>
<text text-anchor="start" x="1543.25" y="-24.5" font-family="Arial" font-size="10.00">MultiplayerShooter</text>
<text text-anchor="middle" x="1617.12" y="-12.5" font-family="Arial" font-size="10.00">/PlayerState/MainPlayerState.cpp</text>
</a>
</g>
</g>
<!-- Node1&#45;&gt;Node11 -->
<g id="edge10_Node000001_Node000011" class="edge">
<title>Node1&#45;&gt;Node11</title>
<g id="a_edge10_Node000001_Node000011"><a xlink:title=" ">
<path fill="none" stroke="#63b8ff" d="M1068.47,-95.73C1173.41,-87.98 1365.18,-71.38 1527.12,-44 1536.3,-42.45 1545.94,-40.52 1555.36,-38.47"/>
<polygon fill="#63b8ff" stroke="#63b8ff" points="1068.27,-92.24 1058.55,-96.46 1068.78,-99.22 1068.27,-92.24"/>
</a>
</g>
</g>
<!-- Node12 -->
<g id="Node000012" class="node">
<title>Node12</title>
<g id="a_Node000012"><a xlink:href="_my_player_controller_tests_8cpp.html" target="_top" xlink:title=" ">
<polygon fill="white" stroke="#666666" points="1889.12,-38 1717.12,-38 1717.12,-6 1889.12,-6 1889.12,-38"/>
<text text-anchor="start" x="1725.12" y="-24.5" font-family="Arial" font-size="10.00">MultiplayerShooter</text>
<text text-anchor="middle" x="1803.12" y="-12.5" font-family="Arial" font-size="10.00">/Tests/MyPlayerControllerTests.cpp</text>
</a>
</g>
</g>
<!-- Node1&#45;&gt;Node12 -->
<g id="edge11_Node000001_Node000012" class="edge">
<title>Node1&#45;&gt;Node12</title>
<g id="a_edge11_Node000001_Node000012"><a xlink:title=" ">
<path fill="none" stroke="#63b8ff" d="M1067.98,-98.35C1200.2,-93.06 1476.8,-78.58 1708.12,-44 1718.06,-42.51 1728.52,-40.58 1738.7,-38.5"/>
<polygon fill="#63b8ff" stroke="#63b8ff" points="1068.16,-94.84 1058.31,-98.73 1068.44,-101.83 1068.16,-94.84"/>
</a>
</g>
</g>
</g>
</svg>
