<?xml version="1.0" encoding="UTF-8" standalone="no"?>
<!DOCTYPE svg PUBLIC "-//W3C//DTD SVG 1.1//EN"
 "http://www.w3.org/Graphics/SVG/1.1/DTD/svg11.dtd">
<!-- Generated by graphviz version 12.2.1 (20241206.2353)
 -->
<!-- Title: MultiplayerShooter/PlayerController/MyPlayerController.h Pages: 1 -->
<svg width="1707pt" height="132pt"
 viewBox="0.00 0.00 1707.00 132.00" xmlns="http://www.w3.org/2000/svg" xmlns:xlink="http://www.w3.org/1999/xlink">
<g id="graph0" class="graph" transform="scale(1 1) rotate(0) translate(4 128)">
<title>MultiplayerShooter/PlayerController/MyPlayerController.h</title>
<!-- Node1 -->
<g id="Node000001" class="node">
<title>Node1</title>
<g id="a_Node000001"><a xlink:title=" ">
<polygon fill="#999999" stroke="#666666" points="982.62,-124 849.62,-124 849.62,-80 982.62,-80 982.62,-124"/>
<text text-anchor="start" x="857.62" y="-110.5" font-family="Arial" font-size="10.00">MultiplayerShooter</text>
<text text-anchor="start" x="857.62" y="-98.5" font-family="Arial" font-size="10.00">/PlayerController/MyPlayer</text>
<text text-anchor="middle" x="916.12" y="-86.5" font-family="Arial" font-size="10.00">Controller.h</text>
</a>
</g>
</g>
<!-- Node2 -->
<g id="Node000002" class="node">
<title>Node2</title>
<g id="a_Node000002"><a xlink:href="_combat_component_8cpp.html" target="_top" xlink:title=" ">
<polygon fill="white" stroke="#666666" points="204.25,-38 0,-38 0,-6 204.25,-6 204.25,-38"/>
<text text-anchor="start" x="8" y="-24.5" font-family="Arial" font-size="10.00">MultiplayerShooter</text>
<text text-anchor="middle" x="102.12" y="-12.5" font-family="Arial" font-size="10.00">/ActorComponents/CombatComponent.cpp</text>
</a>
</g>
</g>
<!-- Node1&#45;&gt;Node2 -->
<g id="edge1_Node000001_Node000002" class="edge">
<title>Node1&#45;&gt;Node2</title>
<g id="a_edge1_Node000001_Node000002"><a xlink:title=" ">
<path fill="none" stroke="#63b8ff" d="M838.09,-97.38C708.05,-90.75 439,-74.44 213.12,-44 201.75,-42.47 189.78,-40.54 178.08,-38.48"/>
<polygon fill="#63b8ff" stroke="#63b8ff" points="837.8,-100.87 847.97,-97.88 838.16,-93.88 837.8,-100.87"/>
</a>
</g>
</g>
<!-- Node3 -->
<g id="Node000003" class="node">
<title>Node3</title>
<g id="a_Node000003"><a xlink:href="_base_weapon_8cpp.html" target="_top" xlink:title=" ">
<polygon fill="white" stroke="#666666" points="378.25,-38 222,-38 222,-6 378.25,-6 378.25,-38"/>
<text text-anchor="start" x="230" y="-24.5" font-family="Arial" font-size="10.00">MultiplayerShooter</text>
<text text-anchor="middle" x="300.12" y="-12.5" font-family="Arial" font-size="10.00">/BaseWeapon/BaseWeapon.cpp</text>
</a>
</g>
</g>
<!-- Node1&#45;&gt;Node3 -->
<g id="edge2_Node000001_Node000003" class="edge">
<title>Node1&#45;&gt;Node3</title>
<g id="a_edge2_Node000001_Node000003"><a xlink:title=" ">
<path fill="none" stroke="#63b8ff" d="M838.22,-95.69C734.83,-87.94 546.85,-71.39 388.12,-44 379.15,-42.45 369.72,-40.53 360.51,-38.47"/>
<polygon fill="#63b8ff" stroke="#63b8ff" points="837.74,-99.17 847.97,-96.42 838.26,-92.19 837.74,-99.17"/>
</a>
</g>
</g>
<!-- Node4 -->
<g id="Node000004" class="node">
<title>Node4</title>
<g id="a_Node000004"><a xlink:href="_projectile_bullet_8cpp.html" target="_top" xlink:title=" ">
<polygon fill="white" stroke="#666666" points="557.5,-44 396.75,-44 396.75,0 557.5,0 557.5,-44"/>
<text text-anchor="start" x="404.75" y="-30.5" font-family="Arial" font-size="10.00">MultiplayerShooter</text>
<text text-anchor="start" x="404.75" y="-18.5" font-family="Arial" font-size="10.00">/BaseWeapon/ProjectileWeapons</text>
<text text-anchor="middle" x="477.12" y="-6.5" font-family="Arial" font-size="10.00">/ProjectileBullet.cpp</text>
</a>
</g>
</g>
<!-- Node1&#45;&gt;Node4 -->
<g id="edge3_Node000001_Node000004" class="edge">
<title>Node1&#45;&gt;Node4</title>
<g id="a_edge3_Node000001_Node000004"><a xlink:title=" ">
<path fill="none" stroke="#63b8ff" d="M838.34,-89.93C767.23,-79.44 659.26,-62.55 566.12,-44 563.32,-43.44 560.47,-42.86 557.6,-42.26"/>
<polygon fill="#63b8ff" stroke="#63b8ff" points="837.53,-93.35 847.93,-91.34 838.55,-86.43 837.53,-93.35"/>
</a>
</g>
</g>
<!-- Node5 -->
<g id="Node000005" class="node">
<title>Node5</title>
<g id="a_Node000005"><a xlink:href="_lobby_game_mode_8cpp.html" target="_top" xlink:title=" ">
<polygon fill="white" stroke="#666666" points="742.88,-38 575.38,-38 575.38,-6 742.88,-6 742.88,-38"/>
<text text-anchor="start" x="583.38" y="-24.5" font-family="Arial" font-size="10.00">MultiplayerShooter</text>
<text text-anchor="middle" x="659.12" y="-12.5" font-family="Arial" font-size="10.00">/GameMode/LobbyGameMode.cpp</text>
</a>
</g>
</g>
<!-- Node1&#45;&gt;Node5 -->
<g id="edge4_Node000001_Node000005" class="edge">
<title>Node1&#45;&gt;Node5</title>
<g id="a_edge4_Node000001_Node000005"><a xlink:title=" ">
<path fill="none" stroke="#63b8ff" d="M838.31,-77.38C796.62,-64.73 746.45,-49.5 709.81,-38.38"/>
<polygon fill="#63b8ff" stroke="#63b8ff" points="837.24,-80.72 847.82,-80.27 839.27,-74.02 837.24,-80.72"/>
</a>
</g>
</g>
<!-- Node6 -->
<g id="Node000006" class="node">
<title>Node6</title>
<g id="a_Node000006"><a xlink:href="_main_game_mode_8cpp.html" target="_top" xlink:title=" ">
<polygon fill="white" stroke="#666666" points="923.25,-38 761,-38 761,-6 923.25,-6 923.25,-38"/>
<text text-anchor="start" x="769" y="-24.5" font-family="Arial" font-size="10.00">MultiplayerShooter</text>
<text text-anchor="middle" x="842.12" y="-12.5" font-family="Arial" font-size="10.00">/GameMode/MainGameMode.cpp</text>
</a>
</g>
</g>
<!-- Node1&#45;&gt;Node6 -->
<g id="edge5_Node000001_Node000006" class="edge">
<title>Node1&#45;&gt;Node6</title>
<g id="a_edge5_Node000001_Node000006"><a xlink:title=" ">
<path fill="none" stroke="#63b8ff" d="M888.27,-71.64C877.43,-60.22 865.48,-47.62 856.46,-38.11"/>
<polygon fill="#63b8ff" stroke="#63b8ff" points="885.44,-73.74 894.86,-78.59 890.52,-68.92 885.44,-73.74"/>
</a>
</g>
</g>
<!-- Node7 -->
<g id="Node000007" class="node">
<title>Node7</title>
<g id="a_Node000007"><a xlink:href="_chat_8cpp.html" target="_top" xlink:title=" ">
<polygon fill="white" stroke="#666666" points="1038.62,-38 941.62,-38 941.62,-6 1038.62,-6 1038.62,-38"/>
<text text-anchor="start" x="949.62" y="-24.5" font-family="Arial" font-size="10.00">MultiplayerShooter</text>
<text text-anchor="middle" x="990.12" y="-12.5" font-family="Arial" font-size="10.00">/HUD/Chat.cpp</text>
</a>
</g>
</g>
<!-- Node1&#45;&gt;Node7 -->
<g id="edge6_Node000001_Node000007" class="edge">
<title>Node1&#45;&gt;Node7</title>
<g id="a_edge6_Node000001_Node000007"><a xlink:title=" ">
<path fill="none" stroke="#63b8ff" d="M943.98,-71.64C954.82,-60.22 966.77,-47.62 975.79,-38.11"/>
<polygon fill="#63b8ff" stroke="#63b8ff" points="941.73,-68.92 937.39,-78.59 946.81,-73.74 941.73,-68.92"/>
</a>
</g>
</g>
<!-- Node8 -->
<g id="Node000008" class="node">
<title>Node8</title>
<g id="a_Node000008"><a xlink:href="_settings_menu_8cpp.html" target="_top" xlink:title=" ">
<polygon fill="white" stroke="#666666" points="1179.75,-38 1056.5,-38 1056.5,-6 1179.75,-6 1179.75,-38"/>
<text text-anchor="start" x="1064.5" y="-24.5" font-family="Arial" font-size="10.00">MultiplayerShooter</text>
<text text-anchor="middle" x="1118.12" y="-12.5" font-family="Arial" font-size="10.00">/HUD/SettingsMenu.cpp</text>
</a>
</g>
</g>
<!-- Node1&#45;&gt;Node8 -->
<g id="edge7_Node000001_Node000008" class="edge">
<title>Node1&#45;&gt;Node8</title>
<g id="a_edge7_Node000001_Node000008"><a xlink:title=" ">
<path fill="none" stroke="#63b8ff" d="M982.12,-75.52C1013.82,-63.28 1050.78,-49.01 1078.16,-38.43"/>
<polygon fill="#63b8ff" stroke="#63b8ff" points="981.07,-72.17 973,-79.04 983.59,-78.7 981.07,-72.17"/>
</a>
</g>
</g>
<!-- Node9 -->
<g id="Node000009" class="node">
<title>Node9</title>
<g id="a_Node000009"><a xlink:href="_main_character_8cpp.html" target="_top" xlink:title=" ">
<polygon fill="white" stroke="#666666" points="1366.25,-38 1198,-38 1198,-6 1366.25,-6 1366.25,-38"/>
<text text-anchor="start" x="1206" y="-24.5" font-family="Arial" font-size="10.00">MultiplayerShooter</text>
<text text-anchor="middle" x="1282.12" y="-12.5" font-family="Arial" font-size="10.00">/MainCharacter/MainCharacter.cpp</text>
</a>
</g>
</g>
<!-- Node1&#45;&gt;Node9 -->
<g id="edge8_Node000001_Node000009" class="edge">
<title>Node1&#45;&gt;Node9</title>
<g id="a_edge8_Node000001_Node000009"><a xlink:title=" ">
<path fill="none" stroke="#63b8ff" d="M993.95,-85.1C1048.6,-73.85 1123.39,-58.28 1189.12,-44 1197.21,-42.24 1205.69,-40.37 1214.09,-38.5"/>
<polygon fill="#63b8ff" stroke="#63b8ff" points="993.52,-81.62 984.43,-87.06 994.93,-88.47 993.52,-81.62"/>
</a>
</g>
</g>
<!-- Node10 -->
<g id="Node000010" class="node">
<title>Node10</title>
<g id="a_Node000010"><a xlink:href="_my_player_controller_8cpp.html" target="_top" xlink:title=" ">
<polygon fill="white" stroke="#666666" points="1517.62,-44 1384.62,-44 1384.62,0 1517.62,0 1517.62,-44"/>
<text text-anchor="start" x="1392.62" y="-30.5" font-family="Arial" font-size="10.00">MultiplayerShooter</text>
<text text-anchor="start" x="1392.62" y="-18.5" font-family="Arial" font-size="10.00">/PlayerController/MyPlayer</text>
<text text-anchor="middle" x="1451.12" y="-6.5" font-family="Arial" font-size="10.00">Controller.cpp</text>
</a>
</g>
</g>
<!-- Node1&#45;&gt;Node10 -->
<g id="edge9_Node000001_Node000010" class="edge">
<title>Node1&#45;&gt;Node10</title>
<g id="a_edge9_Node000001_Node000010"><a xlink:title=" ">
<path fill="none" stroke="#63b8ff" d="M994.55,-94.77C1086.37,-86.67 1242.77,-70.36 1375.12,-44 1378.21,-43.39 1381.36,-42.71 1384.53,-41.99"/>
<polygon fill="#63b8ff" stroke="#63b8ff" points="994.29,-91.28 984.63,-95.64 994.9,-98.26 994.29,-91.28"/>
</a>
</g>
</g>
<!-- Node11 -->
<g id="Node000011" class="node">
<title>Node11</title>
<g id="a_Node000011"><a xlink:href="_main_player_state_8cpp.html" target="_top" xlink:title=" ">
<polygon fill="white" stroke="#666666" points="1699,-38 1535.25,-38 1535.25,-6 1699,-6 1699,-38"/>
<text text-anchor="start" x="1543.25" y="-24.5" font-family="Arial" font-size="10.00">MultiplayerShooter</text>
<text text-anchor="middle" x="1617.12" y="-12.5" font-family="Arial" font-size="10.00">/PlayerState/MainPlayerState.cpp</text>
</a>
</g>
</g>
<!-- Node1&#45;&gt;Node11 -->
<g id="edge10_Node000001_Node000011" class="edge">
<title>Node1&#45;&gt;Node11</title>
<g id="a_edge10_Node000001_Node000011"><a xlink:title=" ">
<path fill="none" stroke="#63b8ff" d="M994.23,-97.13C1110.84,-90.57 1337.07,-74.89 1527.12,-44 1536.47,-42.48 1546.29,-40.55 1555.86,-38.47"/>
<polygon fill="#63b8ff" stroke="#63b8ff" points="994.26,-93.62 984.47,-97.67 994.64,-100.61 994.26,-93.62"/>
</a>
</g>
</g>
</g>
</svg>
