<?xml version="1.0" encoding="UTF-8" standalone="no"?>
<!DOCTYPE svg PUBLIC "-//W3C//DTD SVG 1.1//EN"
 "http://www.w3.org/Graphics/SVG/1.1/DTD/svg11.dtd">
<!-- Generated by graphviz version 12.2.1 (20241206.2353)
 -->
<!-- Title: MultiplayerShooter/HUD/OverheadWidget.cpp Pages: 1 -->
<svg width="383pt" height="152pt"
 viewBox="0.00 0.00 382.88 152.00" xmlns="http://www.w3.org/2000/svg" xmlns:xlink="http://www.w3.org/1999/xlink">
<g id="graph0" class="graph" transform="scale(1 1) rotate(0) translate(4 148)">
<title>MultiplayerShooter/HUD/OverheadWidget.cpp</title>
<!-- Node1 -->
<g id="Node000001" class="node">
<title>Node1</title>
<g id="a_Node000001"><a xlink:title=" ">
<polygon fill="#999999" stroke="#666666" points="288.5,-144 152.5,-144 152.5,-112 288.5,-112 288.5,-144"/>
<text text-anchor="start" x="160.5" y="-130.5" font-family="Arial" font-size="10.00">MultiplayerShooter</text>
<text text-anchor="middle" x="220.5" y="-118.5" font-family="Arial" font-size="10.00">/HUD/OverheadWidget.cpp</text>
</a>
</g>
</g>
<!-- Node2 -->
<g id="Node000002" class="node">
<title>Node2</title>
<g id="a_Node000002"><a xlink:href="_overhead_widget_8h.html" target="_top" xlink:title=" ">
<polygon fill="white" stroke="#666666" points="204,-76 107,-76 107,-56 204,-56 204,-76"/>
<text text-anchor="middle" x="155.5" y="-62.5" font-family="Arial" font-size="10.00">OverheadWidget.h</text>
</a>
</g>
</g>
<!-- Node1&#45;&gt;Node2 -->
<g id="edge1_Node000001_Node000002" class="edge">
<title>Node1&#45;&gt;Node2</title>
<g id="a_edge1_Node000001_Node000002"><a xlink:title=" ">
<path fill="none" stroke="#63b8ff" d="M203.76,-111.55C194.64,-103.13 183.33,-92.69 173.96,-84.04"/>
<polygon fill="#63b8ff" stroke="#63b8ff" points="176.53,-81.65 166.8,-77.43 171.78,-86.79 176.53,-81.65"/>
</a>
</g>
</g>
<!-- Node6 -->
<g id="Node000006" class="node">
<title>Node6</title>
<g id="a_Node000006"><a xlink:title=" ">
<polygon fill="#e0e0e0" stroke="#999999" points="348.62,-76 222.38,-76 222.38,-56 348.62,-56 348.62,-76"/>
<text text-anchor="middle" x="285.5" y="-62.5" font-family="Arial" font-size="10.00">Components/TextBlock.h</text>
</a>
</g>
</g>
<!-- Node1&#45;&gt;Node6 -->
<g id="edge5_Node000001_Node000006" class="edge">
<title>Node1&#45;&gt;Node6</title>
<g id="a_edge5_Node000001_Node000006"><a xlink:title=" ">
<path fill="none" stroke="#63b8ff" d="M237.24,-111.55C246.36,-103.13 257.67,-92.69 267.04,-84.04"/>
<polygon fill="#63b8ff" stroke="#63b8ff" points="269.22,-86.79 274.2,-77.43 264.47,-81.65 269.22,-86.79"/>
</a>
</g>
</g>
<!-- Node3 -->
<g id="Node000003" class="node">
<title>Node3</title>
<g id="a_Node000003"><a xlink:title=" ">
<polygon fill="#e0e0e0" stroke="#999999" points="79,-20 0,-20 0,0 79,0 79,-20"/>
<text text-anchor="middle" x="39.5" y="-6.5" font-family="Arial" font-size="10.00">CoreMinimal.h</text>
</a>
</g>
</g>
<!-- Node2&#45;&gt;Node3 -->
<g id="edge2_Node000002_Node000003" class="edge">
<title>Node2&#45;&gt;Node3</title>
<g id="a_edge2_Node000002_Node000003"><a xlink:title=" ">
<path fill="none" stroke="#63b8ff" d="M135.29,-55.59C117.27,-47.21 90.63,-34.8 70.02,-25.21"/>
<polygon fill="#63b8ff" stroke="#63b8ff" points="71.78,-22.17 61.24,-21.12 68.82,-28.51 71.78,-22.17"/>
</a>
</g>
</g>
<!-- Node4 -->
<g id="Node000004" class="node">
<title>Node4</title>
<g id="a_Node000004"><a xlink:title=" ">
<polygon fill="#e0e0e0" stroke="#999999" points="214.12,-20 96.88,-20 96.88,0 214.12,0 214.12,-20"/>
<text text-anchor="middle" x="155.5" y="-6.5" font-family="Arial" font-size="10.00">Blueprint/UserWidget.h</text>
</a>
</g>
</g>
<!-- Node2&#45;&gt;Node4 -->
<g id="edge3_Node000002_Node000004" class="edge">
<title>Node2&#45;&gt;Node4</title>
<g id="a_edge3_Node000002_Node000004"><a xlink:title=" ">
<path fill="none" stroke="#63b8ff" d="M155.5,-55.59C155.5,-49.01 155.5,-39.96 155.5,-31.73"/>
<polygon fill="#63b8ff" stroke="#63b8ff" points="159,-31.81 155.5,-21.81 152,-31.81 159,-31.81"/>
</a>
</g>
</g>
<!-- Node5 -->
<g id="Node000005" class="node">
<title>Node5</title>
<g id="a_Node000005"><a xlink:title=" ">
<polygon fill="#e0e0e0" stroke="#999999" points="374.88,-20 232.12,-20 232.12,0 374.88,0 374.88,-20"/>
<text text-anchor="middle" x="303.5" y="-6.5" font-family="Arial" font-size="10.00">OverheadWidget.generated.h</text>
</a>
</g>
</g>
<!-- Node2&#45;&gt;Node5 -->
<g id="edge4_Node000002_Node000005" class="edge">
<title>Node2&#45;&gt;Node5</title>
<g id="a_edge4_Node000002_Node000005"><a xlink:title=" ">
<path fill="none" stroke="#63b8ff" d="M181.28,-55.59C204.9,-46.97 240.14,-34.12 266.72,-24.42"/>
<polygon fill="#63b8ff" stroke="#63b8ff" points="267.9,-27.71 276.1,-21 265.5,-21.14 267.9,-27.71"/>
</a>
</g>
</g>
</g>
</svg>
