<?xml version="1.0" encoding="UTF-8" standalone="no"?>
<!DOCTYPE svg PUBLIC "-//W3C//DTD SVG 1.1//EN"
 "http://www.w3.org/Graphics/SVG/1.1/DTD/svg11.dtd">
<!-- Generated by graphviz version 12.2.1 (20241206.2353)
 -->
<!-- Title: MultiplayerShooter/Pickups/PickupSpawnPoint.cpp Pages: 1 -->
<svg width="1282pt" height="220pt"
 viewBox="0.00 0.00 1281.88 220.00" xmlns="http://www.w3.org/2000/svg" xmlns:xlink="http://www.w3.org/1999/xlink">
<g id="graph0" class="graph" transform="scale(1 1) rotate(0) translate(4 216)">
<title>MultiplayerShooter/Pickups/PickupSpawnPoint.cpp</title>
<!-- Node1 -->
<g id="Node000001" class="node">
<title>Node1</title>
<g id="a_Node000001"><a xlink:title=" ">
<polygon fill="#999999" stroke="#666666" points="559.5,-212 401,-212 401,-180 559.5,-180 559.5,-212"/>
<text text-anchor="start" x="409" y="-198.5" font-family="Arial" font-size="10.00">MultiplayerShooter</text>
<text text-anchor="middle" x="480.25" y="-186.5" font-family="Arial" font-size="10.00">/Pickups/PickupSpawnPoint.cpp</text>
</a>
</g>
</g>
<!-- Node2 -->
<g id="Node000002" class="node">
<title>Node2</title>
<g id="a_Node000002"><a xlink:href="_pickup_spawn_point_8h.html" target="_top" xlink:title=" ">
<polygon fill="white" stroke="#666666" points="154.62,-76 47.88,-76 47.88,-56 154.62,-56 154.62,-76"/>
<text text-anchor="middle" x="101.25" y="-62.5" font-family="Arial" font-size="10.00">PickupSpawnPoint.h</text>
</a>
</g>
</g>
<!-- Node1&#45;&gt;Node2 -->
<g id="edge1_Node000001_Node000002" class="edge">
<title>Node1&#45;&gt;Node2</title>
<g id="a_edge1_Node000001_Node000002"><a xlink:title=" ">
<path fill="none" stroke="#63b8ff" d="M409.86,-179.59C371.69,-170.55 323.93,-158.14 282.25,-144 227.59,-125.45 166.21,-97.83 130.81,-81.2"/>
<polygon fill="#63b8ff" stroke="#63b8ff" points="132.6,-78.18 122.06,-77.07 129.6,-84.51 132.6,-78.18"/>
</a>
</g>
</g>
<!-- Node6 -->
<g id="Node000006" class="node">
<title>Node6</title>
<g id="a_Node000006"><a xlink:href="_damage_pickup_8h.html" target="_top" xlink:title=" ">
<polygon fill="white" stroke="#666666" points="382.75,-138 291.75,-138 291.75,-118 382.75,-118 382.75,-138"/>
<text text-anchor="middle" x="337.25" y="-124.5" font-family="Arial" font-size="10.00">DamagePickup.h</text>
</a>
</g>
</g>
<!-- Node1&#45;&gt;Node6 -->
<g id="edge5_Node000001_Node000006" class="edge">
<title>Node1&#45;&gt;Node6</title>
<g id="a_edge5_Node000001_Node000006"><a xlink:title=" ">
<path fill="none" stroke="#63b8ff" d="M446.72,-179.53C422.92,-168.54 391.21,-153.9 368.04,-143.21"/>
<polygon fill="#63b8ff" stroke="#63b8ff" points="369.67,-140.11 359.12,-139.09 366.73,-146.46 369.67,-140.11"/>
</a>
</g>
</g>
<!-- Node7 -->
<g id="Node000007" class="node">
<title>Node7</title>
<g id="a_Node000007"><a xlink:href="_pickup_8h.html" target="_top" xlink:title=" ">
<polygon fill="white" stroke="#666666" points="419.38,-76 365.12,-76 365.12,-56 419.38,-56 419.38,-76"/>
<text text-anchor="middle" x="392.25" y="-62.5" font-family="Arial" font-size="10.00">Pickup.h</text>
</a>
</g>
</g>
<!-- Node1&#45;&gt;Node7 -->
<g id="edge16_Node000001_Node000007" class="edge">
<title>Node1&#45;&gt;Node7</title>
<g id="a_edge16_Node000001_Node000007"><a xlink:title=" ">
<path fill="none" stroke="#63b8ff" d="M462.61,-179.65C452.32,-170.09 439.58,-157.15 430.25,-144 417.34,-125.8 406.54,-102.56 399.79,-86.4"/>
<polygon fill="#63b8ff" stroke="#63b8ff" points="403.17,-85.42 396.19,-77.45 396.68,-88.04 403.17,-85.42"/>
</a>
</g>
</g>
<!-- Node10 -->
<g id="Node000010" class="node">
<title>Node10</title>
<g id="a_Node000010"><a xlink:href="_health_pickup_8h.html" target="_top" xlink:title=" ">
<polygon fill="white" stroke="#666666" points="521.62,-138 438.88,-138 438.88,-118 521.62,-118 521.62,-138"/>
<text text-anchor="middle" x="480.25" y="-124.5" font-family="Arial" font-size="10.00">HealthPickup.h</text>
</a>
</g>
</g>
<!-- Node1&#45;&gt;Node10 -->
<g id="edge12_Node000001_Node000010" class="edge">
<title>Node1&#45;&gt;Node10</title>
<g id="a_edge12_Node000001_Node000010"><a xlink:title=" ">
<path fill="none" stroke="#63b8ff" d="M480.25,-179.69C480.25,-170.8 480.25,-159.46 480.25,-149.77"/>
<polygon fill="#63b8ff" stroke="#63b8ff" points="483.75,-149.83 480.25,-139.83 476.75,-149.83 483.75,-149.83"/>
</a>
</g>
</g>
<!-- Node12 -->
<g id="Node000012" class="node">
<title>Node12</title>
<g id="a_Node000012"><a xlink:href="_speed_pickup_8h.html" target="_top" xlink:title=" ">
<polygon fill="white" stroke="#666666" points="647.25,-138 565.25,-138 565.25,-118 647.25,-118 647.25,-138"/>
<text text-anchor="middle" x="606.25" y="-124.5" font-family="Arial" font-size="10.00">SpeedPickup.h</text>
</a>
</g>
</g>
<!-- Node1&#45;&gt;Node12 -->
<g id="edge17_Node000001_Node000012" class="edge">
<title>Node1&#45;&gt;Node12</title>
<g id="a_edge17_Node000001_Node000012"><a xlink:title=" ">
<path fill="none" stroke="#63b8ff" d="M509.79,-179.53C530.38,-168.74 557.7,-154.43 578,-143.8"/>
<polygon fill="#63b8ff" stroke="#63b8ff" points="579.61,-146.9 586.85,-139.16 576.37,-140.7 579.61,-146.9"/>
</a>
</g>
</g>
<!-- Node14 -->
<g id="Node000014" class="node">
<title>Node14</title>
<g id="a_Node000014"><a xlink:title=" ">
<polygon fill="#e0e0e0" stroke="#999999" points="1080.75,-138 947.75,-138 947.75,-118 1080.75,-118 1080.75,-138"/>
<text text-anchor="middle" x="1014.25" y="-124.5" font-family="Arial" font-size="10.00">Kismet/GameplayStatics.h</text>
</a>
</g>
</g>
<!-- Node1&#45;&gt;Node14 -->
<g id="edge21_Node000001_Node000014" class="edge">
<title>Node1&#45;&gt;Node14</title>
<g id="a_edge21_Node000001_Node000014"><a xlink:title=" ">
<path fill="none" stroke="#63b8ff" d="M559.72,-188.28C651.46,-180.03 806.74,-164.57 939.25,-144 945.72,-143 952.49,-141.82 959.19,-140.58"/>
<polygon fill="#63b8ff" stroke="#63b8ff" points="959.69,-144.05 968.86,-138.73 958.38,-137.17 959.69,-144.05"/>
</a>
</g>
</g>
<!-- Node15 -->
<g id="Node000015" class="node">
<title>Node15</title>
<g id="a_Node000015"><a xlink:href="_main_game_mode_8h.html" target="_top" xlink:title=" ">
<polygon fill="white" stroke="#666666" points="930.12,-144 778.38,-144 778.38,-112 930.12,-112 930.12,-144"/>
<text text-anchor="start" x="786.38" y="-130.5" font-family="Arial" font-size="10.00">MultiplayerShooter</text>
<text text-anchor="middle" x="854.25" y="-118.5" font-family="Arial" font-size="10.00">/GameMode/MainGameMode.h</text>
</a>
</g>
</g>
<!-- Node1&#45;&gt;Node15 -->
<g id="edge22_Node000001_Node000015" class="edge">
<title>Node1&#45;&gt;Node15</title>
<g id="a_edge22_Node000001_Node000015"><a xlink:title=" ">
<path fill="none" stroke="#63b8ff" d="M559.57,-181C620.35,-170.28 704.16,-155.49 766.87,-144.42"/>
<polygon fill="#63b8ff" stroke="#63b8ff" points="767.19,-147.92 776.43,-142.73 765.98,-141.02 767.19,-147.92"/>
</a>
</g>
</g>
<!-- Node3 -->
<g id="Node000003" class="node">
<title>Node3</title>
<g id="a_Node000003"><a xlink:title=" ">
<polygon fill="#e0e0e0" stroke="#999999" points="511.75,-20 432.75,-20 432.75,0 511.75,0 511.75,-20"/>
<text text-anchor="middle" x="472.25" y="-6.5" font-family="Arial" font-size="10.00">CoreMinimal.h</text>
</a>
</g>
</g>
<!-- Node2&#45;&gt;Node3 -->
<g id="edge2_Node000002_Node000003" class="edge">
<title>Node2&#45;&gt;Node3</title>
<g id="a_edge2_Node000002_Node000003"><a xlink:title=" ">
<path fill="none" stroke="#63b8ff" d="M154.86,-57.33C158.04,-56.88 161.19,-56.43 164.25,-56 275.73,-40.29 306.61,-38.6 421.08,-20.29"/>
<polygon fill="#63b8ff" stroke="#63b8ff" points="421.62,-23.75 430.93,-18.7 420.51,-16.84 421.62,-23.75"/>
</a>
</g>
</g>
<!-- Node4 -->
<g id="Node000004" class="node">
<title>Node4</title>
<g id="a_Node000004"><a xlink:title=" ">
<polygon fill="#e0e0e0" stroke="#999999" points="296,-20 170.5,-20 170.5,0 296,0 296,-20"/>
<text text-anchor="middle" x="233.25" y="-6.5" font-family="Arial" font-size="10.00">GameFramework/Actor.h</text>
</a>
</g>
</g>
<!-- Node2&#45;&gt;Node4 -->
<g id="edge3_Node000002_Node000004" class="edge">
<title>Node2&#45;&gt;Node4</title>
<g id="a_edge3_Node000002_Node000004"><a xlink:title=" ">
<path fill="none" stroke="#63b8ff" d="M124.24,-55.59C145.03,-47.09 175.9,-34.46 199.49,-24.81"/>
<polygon fill="#63b8ff" stroke="#63b8ff" points="200.75,-28.08 208.68,-21.05 198.1,-21.6 200.75,-28.08"/>
</a>
</g>
</g>
<!-- Node5 -->
<g id="Node000005" class="node">
<title>Node5</title>
<g id="a_Node000005"><a xlink:title=" ">
<polygon fill="#e0e0e0" stroke="#999999" points="152.5,-20 0,-20 0,0 152.5,0 152.5,-20"/>
<text text-anchor="middle" x="76.25" y="-6.5" font-family="Arial" font-size="10.00">PickupSpawnPoint.generated.h</text>
</a>
</g>
</g>
<!-- Node2&#45;&gt;Node5 -->
<g id="edge4_Node000002_Node000005" class="edge">
<title>Node2&#45;&gt;Node5</title>
<g id="a_edge4_Node000002_Node000005"><a xlink:title=" ">
<path fill="none" stroke="#63b8ff" d="M96.9,-55.59C93.7,-48.7 89.26,-39.1 85.31,-30.57"/>
<polygon fill="#63b8ff" stroke="#63b8ff" points="88.57,-29.28 81.19,-21.67 82.22,-32.22 88.57,-29.28"/>
</a>
</g>
</g>
<!-- Node6&#45;&gt;Node3 -->
<g id="edge6_Node000006_Node000003" class="edge">
<title>Node6&#45;&gt;Node3</title>
<g id="a_edge6_Node000006_Node000003"><a xlink:title=" ">
<path fill="none" stroke="#63b8ff" d="M337.18,-117.94C337.55,-103.14 340.4,-73.67 356.25,-56 366.18,-44.93 399,-32.74 427.2,-23.85"/>
<polygon fill="#63b8ff" stroke="#63b8ff" points="428.15,-27.22 436.68,-20.94 426.09,-20.53 428.15,-27.22"/>
</a>
</g>
</g>
<!-- Node6&#45;&gt;Node7 -->
<g id="edge7_Node000006_Node000007" class="edge">
<title>Node6&#45;&gt;Node7</title>
<g id="a_edge7_Node000006_Node000007"><a xlink:title=" ">
<path fill="none" stroke="#63b8ff" d="M345.84,-117.62C353.96,-108.77 366.34,-95.26 376.28,-84.43"/>
<polygon fill="#63b8ff" stroke="#63b8ff" points="378.7,-86.97 382.87,-77.23 373.54,-82.23 378.7,-86.97"/>
</a>
</g>
</g>
<!-- Node9 -->
<g id="Node000009" class="node">
<title>Node9</title>
<g id="a_Node000009"><a xlink:title=" ">
<polygon fill="#e0e0e0" stroke="#999999" points="309.62,-76 172.88,-76 172.88,-56 309.62,-56 309.62,-76"/>
<text text-anchor="middle" x="241.25" y="-62.5" font-family="Arial" font-size="10.00">DamagePickup.generated.h</text>
</a>
</g>
</g>
<!-- Node6&#45;&gt;Node9 -->
<g id="edge11_Node000006_Node000009" class="edge">
<title>Node6&#45;&gt;Node9</title>
<g id="a_edge11_Node000006_Node000009"><a xlink:title=" ">
<path fill="none" stroke="#63b8ff" d="M322.25,-117.62C307.17,-108.2 283.68,-93.52 265.87,-82.39"/>
<polygon fill="#63b8ff" stroke="#63b8ff" points="267.76,-79.44 257.43,-77.11 264.05,-85.38 267.76,-79.44"/>
</a>
</g>
</g>
<!-- Node7&#45;&gt;Node3 -->
<g id="edge8_Node000007_Node000003" class="edge">
<title>Node7&#45;&gt;Node3</title>
<g id="a_edge8_Node000007_Node000003"><a xlink:title=" ">
<path fill="none" stroke="#63b8ff" d="M406.18,-55.59C417.93,-47.67 434.98,-36.16 448.82,-26.82"/>
<polygon fill="#63b8ff" stroke="#63b8ff" points="450.62,-29.82 456.95,-21.33 446.71,-24.02 450.62,-29.82"/>
</a>
</g>
</g>
<!-- Node7&#45;&gt;Node4 -->
<g id="edge9_Node000007_Node000004" class="edge">
<title>Node7&#45;&gt;Node4</title>
<g id="a_edge9_Node000007_Node000004"><a xlink:title=" ">
<path fill="none" stroke="#63b8ff" d="M364.92,-55.72C339.29,-47.01 300.7,-33.91 271.92,-24.13"/>
<polygon fill="#63b8ff" stroke="#63b8ff" points="273.05,-20.82 262.46,-20.92 270.8,-27.45 273.05,-20.82"/>
</a>
</g>
</g>
<!-- Node8 -->
<g id="Node000008" class="node">
<title>Node8</title>
<g id="a_Node000008"><a xlink:title=" ">
<polygon fill="#e0e0e0" stroke="#999999" points="414.25,-20 314.25,-20 314.25,0 414.25,0 414.25,-20"/>
<text text-anchor="middle" x="364.25" y="-6.5" font-family="Arial" font-size="10.00">Pickup.generated.h</text>
</a>
</g>
</g>
<!-- Node7&#45;&gt;Node8 -->
<g id="edge10_Node000007_Node000008" class="edge">
<title>Node7&#45;&gt;Node8</title>
<g id="a_edge10_Node000007_Node000008"><a xlink:title=" ">
<path fill="none" stroke="#63b8ff" d="M387.37,-55.59C383.76,-48.63 378.71,-38.89 374.25,-30.29"/>
<polygon fill="#63b8ff" stroke="#63b8ff" points="377.48,-28.91 369.77,-21.64 371.26,-32.13 377.48,-28.91"/>
</a>
</g>
</g>
<!-- Node10&#45;&gt;Node3 -->
<g id="edge13_Node000010_Node000003" class="edge">
<title>Node10&#45;&gt;Node3</title>
<g id="a_edge13_Node000010_Node000003"><a xlink:title=" ">
<path fill="none" stroke="#63b8ff" d="M476.9,-117.76C473.44,-107.66 468.26,-90.92 466.25,-76 465.06,-67.19 465.66,-64.87 466.25,-56 466.78,-47.94 467.85,-39.13 468.94,-31.45"/>
<polygon fill="#63b8ff" stroke="#63b8ff" points="472.37,-32.18 470.42,-21.77 465.45,-31.13 472.37,-32.18"/>
</a>
</g>
</g>
<!-- Node10&#45;&gt;Node7 -->
<g id="edge14_Node000010_Node000007" class="edge">
<title>Node10&#45;&gt;Node7</title>
<g id="a_edge14_Node000010_Node000007"><a xlink:title=" ">
<path fill="none" stroke="#63b8ff" d="M466.5,-117.62C452.81,-108.29 431.55,-93.79 415.28,-82.7"/>
<polygon fill="#63b8ff" stroke="#63b8ff" points="417.39,-79.9 407.15,-77.16 413.44,-85.69 417.39,-79.9"/>
</a>
</g>
</g>
<!-- Node11 -->
<g id="Node000011" class="node">
<title>Node11</title>
<g id="a_Node000011"><a xlink:title=" ">
<polygon fill="#e0e0e0" stroke="#999999" points="603.5,-76 475,-76 475,-56 603.5,-56 603.5,-76"/>
<text text-anchor="middle" x="539.25" y="-62.5" font-family="Arial" font-size="10.00">HealthPickup.generated.h</text>
</a>
</g>
</g>
<!-- Node10&#45;&gt;Node11 -->
<g id="edge15_Node000010_Node000011" class="edge">
<title>Node10&#45;&gt;Node11</title>
<g id="a_edge15_Node000010_Node000011"><a xlink:title=" ">
<path fill="none" stroke="#63b8ff" d="M489.47,-117.62C498.27,-108.68 511.73,-94.99 522.43,-84.1"/>
<polygon fill="#63b8ff" stroke="#63b8ff" points="524.71,-86.78 529.23,-77.19 519.72,-81.87 524.71,-86.78"/>
</a>
</g>
</g>
<!-- Node12&#45;&gt;Node3 -->
<g id="edge18_Node000012_Node000003" class="edge">
<title>Node12&#45;&gt;Node3</title>
<g id="a_edge18_Node000012_Node000003"><a xlink:title=" ">
<path fill="none" stroke="#63b8ff" d="M610.59,-117.68C616.69,-103.02 625.66,-74.39 612.25,-56 592.02,-28.25 554.41,-17.24 523.26,-13.04"/>
<polygon fill="#63b8ff" stroke="#63b8ff" points="523.96,-9.59 513.63,-11.95 523.17,-16.55 523.96,-9.59"/>
</a>
</g>
</g>
<!-- Node12&#45;&gt;Node7 -->
<g id="edge19_Node000012_Node000007" class="edge">
<title>Node12&#45;&gt;Node7</title>
<g id="a_edge19_Node000012_Node000007"><a xlink:title=" ">
<path fill="none" stroke="#63b8ff" d="M572.81,-117.62C534.32,-106.83 471.21,-89.14 430.71,-77.78"/>
<polygon fill="#63b8ff" stroke="#63b8ff" points="431.71,-74.43 421.14,-75.1 429.82,-81.17 431.71,-74.43"/>
</a>
</g>
</g>
<!-- Node13 -->
<g id="Node000013" class="node">
<title>Node13</title>
<g id="a_Node000013"><a xlink:title=" ">
<polygon fill="#e0e0e0" stroke="#999999" points="787.12,-76 659.38,-76 659.38,-56 787.12,-56 787.12,-76"/>
<text text-anchor="middle" x="723.25" y="-62.5" font-family="Arial" font-size="10.00">SpeedPickup.generated.h</text>
</a>
</g>
</g>
<!-- Node12&#45;&gt;Node13 -->
<g id="edge20_Node000012_Node000013" class="edge">
<title>Node12&#45;&gt;Node13</title>
<g id="a_edge20_Node000012_Node000013"><a xlink:title=" ">
<path fill="none" stroke="#63b8ff" d="M624.53,-117.62C643.42,-107.94 673.15,-92.69 695.06,-81.46"/>
<polygon fill="#63b8ff" stroke="#63b8ff" points="696.45,-84.68 703.75,-77 693.26,-78.45 696.45,-84.68"/>
</a>
</g>
</g>
<!-- Node15&#45;&gt;Node3 -->
<g id="edge23_Node000015_Node000003" class="edge">
<title>Node15&#45;&gt;Node3</title>
<g id="a_edge23_Node000015_Node000003"><a xlink:title=" ">
<path fill="none" stroke="#63b8ff" d="M846.33,-111.64C836.83,-94.95 819.28,-68.94 796.25,-56 750.59,-30.35 602.56,-18.3 523.36,-13.57"/>
<polygon fill="#63b8ff" stroke="#63b8ff" points="523.89,-10.09 513.7,-13.01 523.48,-17.08 523.89,-10.09"/>
</a>
</g>
</g>
<!-- Node16 -->
<g id="Node000016" class="node">
<title>Node16</title>
<g id="a_Node000016"><a xlink:title=" ">
<polygon fill="#e0e0e0" stroke="#999999" points="943.62,-76 842.88,-76 842.88,-56 943.62,-56 943.62,-76"/>
<text text-anchor="middle" x="893.25" y="-62.5" font-family="Arial" font-size="10.00">Sound/SoundCue.h</text>
</a>
</g>
</g>
<!-- Node15&#45;&gt;Node16 -->
<g id="edge24_Node000015_Node000016" class="edge">
<title>Node15&#45;&gt;Node16</title>
<g id="a_edge24_Node000015_Node000016"><a xlink:title=" ">
<path fill="none" stroke="#63b8ff" d="M864.29,-111.55C869.37,-103.74 875.58,-94.19 880.94,-85.94"/>
<polygon fill="#63b8ff" stroke="#63b8ff" points="883.79,-87.97 886.31,-77.68 877.93,-84.15 883.79,-87.97"/>
</a>
</g>
</g>
<!-- Node17 -->
<g id="Node000017" class="node">
<title>Node17</title>
<g id="a_Node000017"><a xlink:title=" ">
<polygon fill="#e0e0e0" stroke="#999999" points="1114.5,-76 962,-76 962,-56 1114.5,-56 1114.5,-76"/>
<text text-anchor="middle" x="1038.25" y="-62.5" font-family="Arial" font-size="10.00">GameFramework/GameMode.h</text>
</a>
</g>
</g>
<!-- Node15&#45;&gt;Node17 -->
<g id="edge25_Node000015_Node000017" class="edge">
<title>Node15&#45;&gt;Node17</title>
<g id="a_edge25_Node000015_Node000017"><a xlink:title=" ">
<path fill="none" stroke="#63b8ff" d="M901.63,-111.55C931.62,-101.77 969.95,-89.27 998.38,-80"/>
<polygon fill="#63b8ff" stroke="#63b8ff" points="999.27,-83.39 1007.69,-76.97 997.1,-76.74 999.27,-83.39"/>
</a>
</g>
</g>
<!-- Node18 -->
<g id="Node000018" class="node">
<title>Node18</title>
<g id="a_Node000018"><a xlink:title=" ">
<polygon fill="#e0e0e0" stroke="#999999" points="1273.88,-76 1132.62,-76 1132.62,-56 1273.88,-56 1273.88,-76"/>
<text text-anchor="middle" x="1203.25" y="-62.5" font-family="Arial" font-size="10.00">MainGameMode.generated.h</text>
</a>
</g>
</g>
<!-- Node15&#45;&gt;Node18 -->
<g id="edge26_Node000015_Node000018" class="edge">
<title>Node15&#45;&gt;Node18</title>
<g id="a_edge26_Node000015_Node000018"><a xlink:title=" ">
<path fill="none" stroke="#63b8ff" d="M930.25,-113.57C933.29,-113.04 936.3,-112.51 939.25,-112 1006.18,-100.39 1082.71,-87.37 1136.07,-78.34"/>
<polygon fill="#63b8ff" stroke="#63b8ff" points="1136.33,-81.85 1145.61,-76.73 1135.16,-74.94 1136.33,-81.85"/>
</a>
</g>
</g>
</g>
</svg>
