<?xml version="1.0" encoding="UTF-8" standalone="no"?>
<!DOCTYPE svg PUBLIC "-//W3C//DTD SVG 1.1//EN"
 "http://www.w3.org/Graphics/SVG/1.1/DTD/svg11.dtd">
<!-- Generated by graphviz version 12.2.1 (20241206.2353)
 -->
<!-- Title: MultiplayerShooter/Pickups/Pickup.cpp Pages: 1 -->
<svg width="914pt" height="152pt"
 viewBox="0.00 0.00 914.38 152.00" xmlns="http://www.w3.org/2000/svg" xmlns:xlink="http://www.w3.org/1999/xlink">
<g id="graph0" class="graph" transform="scale(1 1) rotate(0) translate(4 148)">
<title>MultiplayerShooter/Pickups/Pickup.cpp</title>
<!-- Node1 -->
<g id="Node000001" class="node">
<title>Node1</title>
<g id="a_Node000001"><a xlink:title=" ">
<polygon fill="#999999" stroke="#666666" points="522.5,-144 416.5,-144 416.5,-112 522.5,-112 522.5,-144"/>
<text text-anchor="start" x="424.5" y="-130.5" font-family="Arial" font-size="10.00">MultiplayerShooter</text>
<text text-anchor="middle" x="469.5" y="-118.5" font-family="Arial" font-size="10.00">/Pickups/Pickup.cpp</text>
</a>
</g>
</g>
<!-- Node2 -->
<g id="Node000002" class="node">
<title>Node2</title>
<g id="a_Node000002"><a xlink:href="_pickup_8h.html" target="_top" xlink:title=" ">
<polygon fill="white" stroke="#666666" points="186.62,-76 132.38,-76 132.38,-56 186.62,-56 186.62,-76"/>
<text text-anchor="middle" x="159.5" y="-62.5" font-family="Arial" font-size="10.00">Pickup.h</text>
</a>
</g>
</g>
<!-- Node1&#45;&gt;Node2 -->
<g id="edge1_Node000001_Node000002" class="edge">
<title>Node1&#45;&gt;Node2</title>
<g id="a_edge1_Node000001_Node000002"><a xlink:title=" ">
<path fill="none" stroke="#63b8ff" d="M416.01,-118.04C363.02,-108.94 279.31,-93.96 197.92,-76.43"/>
<polygon fill="#63b8ff" stroke="#63b8ff" points="198.97,-73.08 188.46,-74.37 197.49,-79.92 198.97,-73.08"/>
</a>
</g>
</g>
<!-- Node6 -->
<g id="Node000006" class="node">
<title>Node6</title>
<g id="a_Node000006"><a xlink:title=" ">
<polygon fill="#e0e0e0" stroke="#999999" points="328.5,-76 204.5,-76 204.5,-56 328.5,-56 328.5,-76"/>
<text text-anchor="middle" x="266.5" y="-62.5" font-family="Arial" font-size="10.00">NiagaraFunctionLibrary.h</text>
</a>
</g>
</g>
<!-- Node1&#45;&gt;Node6 -->
<g id="edge5_Node000001_Node000006" class="edge">
<title>Node1&#45;&gt;Node6</title>
<g id="a_edge5_Node000001_Node000006"><a xlink:title=" ">
<path fill="none" stroke="#63b8ff" d="M417.22,-111.55C383.85,-101.68 341.1,-89.05 309.66,-79.76"/>
<polygon fill="#63b8ff" stroke="#63b8ff" points="310.66,-76.4 300.08,-76.93 308.68,-83.12 310.66,-76.4"/>
</a>
</g>
</g>
<!-- Node7 -->
<g id="Node000007" class="node">
<title>Node7</title>
<g id="a_Node000007"><a xlink:title=" ">
<polygon fill="#e0e0e0" stroke="#999999" points="454.62,-76 346.38,-76 346.38,-56 454.62,-56 454.62,-76"/>
<text text-anchor="middle" x="400.5" y="-62.5" font-family="Arial" font-size="10.00">NiagaraComponent.h</text>
</a>
</g>
</g>
<!-- Node1&#45;&gt;Node7 -->
<g id="edge6_Node000001_Node000007" class="edge">
<title>Node1&#45;&gt;Node7</title>
<g id="a_edge6_Node000001_Node000007"><a xlink:title=" ">
<path fill="none" stroke="#63b8ff" d="M451.73,-111.55C441.95,-103.04 429.8,-92.48 419.78,-83.77"/>
<polygon fill="#63b8ff" stroke="#63b8ff" points="422.3,-81.32 412.46,-77.4 417.71,-86.6 422.3,-81.32"/>
</a>
</g>
</g>
<!-- Node8 -->
<g id="Node000008" class="node">
<title>Node8</title>
<g id="a_Node000008"><a xlink:title=" ">
<polygon fill="#e0e0e0" stroke="#999999" points="606,-76 473,-76 473,-56 606,-56 606,-76"/>
<text text-anchor="middle" x="539.5" y="-62.5" font-family="Arial" font-size="10.00">Kismet/GameplayStatics.h</text>
</a>
</g>
</g>
<!-- Node1&#45;&gt;Node8 -->
<g id="edge7_Node000001_Node000008" class="edge">
<title>Node1&#45;&gt;Node8</title>
<g id="a_edge7_Node000001_Node000008"><a xlink:title=" ">
<path fill="none" stroke="#63b8ff" d="M487.53,-111.55C497.45,-103.04 509.78,-92.48 519.94,-83.77"/>
<polygon fill="#63b8ff" stroke="#63b8ff" points="522.06,-86.56 527.37,-77.39 517.5,-81.24 522.06,-86.56"/>
</a>
</g>
</g>
<!-- Node9 -->
<g id="Node000009" class="node">
<title>Node9</title>
<g id="a_Node000009"><a xlink:title=" ">
<polygon fill="#e0e0e0" stroke="#999999" points="724.88,-76 624.12,-76 624.12,-56 724.88,-56 724.88,-76"/>
<text text-anchor="middle" x="674.5" y="-62.5" font-family="Arial" font-size="10.00">Sound/SoundCue.h</text>
</a>
</g>
</g>
<!-- Node1&#45;&gt;Node9 -->
<g id="edge8_Node000001_Node000009" class="edge">
<title>Node1&#45;&gt;Node9</title>
<g id="a_edge8_Node000001_Node000009"><a xlink:title=" ">
<path fill="none" stroke="#63b8ff" d="M522.29,-111.55C556.15,-101.64 599.54,-88.94 631.33,-79.64"/>
<polygon fill="#63b8ff" stroke="#63b8ff" points="631.99,-83.09 640.6,-76.92 630.02,-76.37 631.99,-83.09"/>
</a>
</g>
</g>
<!-- Node10 -->
<g id="Node000010" class="node">
<title>Node10</title>
<g id="a_Node000010"><a xlink:title=" ">
<polygon fill="#e0e0e0" stroke="#999999" points="906.38,-76 742.62,-76 742.62,-56 906.38,-56 906.38,-76"/>
<text text-anchor="middle" x="824.5" y="-62.5" font-family="Arial" font-size="10.00">Components/SphereComponent.h</text>
</a>
</g>
</g>
<!-- Node1&#45;&gt;Node10 -->
<g id="edge9_Node000001_Node000010" class="edge">
<title>Node1&#45;&gt;Node10</title>
<g id="a_edge9_Node000001_Node000010"><a xlink:title=" ">
<path fill="none" stroke="#63b8ff" d="M522.65,-118.02C585.22,-107.44 689.22,-89.86 757.32,-78.35"/>
<polygon fill="#63b8ff" stroke="#63b8ff" points="757.58,-81.86 766.86,-76.74 756.41,-74.96 757.58,-81.86"/>
</a>
</g>
</g>
<!-- Node3 -->
<g id="Node000003" class="node">
<title>Node3</title>
<g id="a_Node000003"><a xlink:title=" ">
<polygon fill="#e0e0e0" stroke="#999999" points="79,-20 0,-20 0,0 79,0 79,-20"/>
<text text-anchor="middle" x="39.5" y="-6.5" font-family="Arial" font-size="10.00">CoreMinimal.h</text>
</a>
</g>
</g>
<!-- Node2&#45;&gt;Node3 -->
<g id="edge2_Node000002_Node000003" class="edge">
<title>Node2&#45;&gt;Node3</title>
<g id="a_edge2_Node000002_Node000003"><a xlink:title=" ">
<path fill="none" stroke="#63b8ff" d="M138.6,-55.59C119.87,-47.17 92.14,-34.69 70.78,-25.07"/>
<polygon fill="#63b8ff" stroke="#63b8ff" points="72.5,-22.01 61.95,-21.1 69.63,-28.4 72.5,-22.01"/>
</a>
</g>
</g>
<!-- Node4 -->
<g id="Node000004" class="node">
<title>Node4</title>
<g id="a_Node000004"><a xlink:title=" ">
<polygon fill="#e0e0e0" stroke="#999999" points="222.25,-20 96.75,-20 96.75,0 222.25,0 222.25,-20"/>
<text text-anchor="middle" x="159.5" y="-6.5" font-family="Arial" font-size="10.00">GameFramework/Actor.h</text>
</a>
</g>
</g>
<!-- Node2&#45;&gt;Node4 -->
<g id="edge3_Node000002_Node000004" class="edge">
<title>Node2&#45;&gt;Node4</title>
<g id="a_edge3_Node000002_Node000004"><a xlink:title=" ">
<path fill="none" stroke="#63b8ff" d="M159.5,-55.59C159.5,-49.01 159.5,-39.96 159.5,-31.73"/>
<polygon fill="#63b8ff" stroke="#63b8ff" points="163,-31.81 159.5,-21.81 156,-31.81 163,-31.81"/>
</a>
</g>
</g>
<!-- Node5 -->
<g id="Node000005" class="node">
<title>Node5</title>
<g id="a_Node000005"><a xlink:title=" ">
<polygon fill="#e0e0e0" stroke="#999999" points="340.5,-20 240.5,-20 240.5,0 340.5,0 340.5,-20"/>
<text text-anchor="middle" x="290.5" y="-6.5" font-family="Arial" font-size="10.00">Pickup.generated.h</text>
</a>
</g>
</g>
<!-- Node2&#45;&gt;Node5 -->
<g id="edge4_Node000002_Node000005" class="edge">
<title>Node2&#45;&gt;Node5</title>
<g id="a_edge4_Node000002_Node000005"><a xlink:title=" ">
<path fill="none" stroke="#63b8ff" d="M182.32,-55.59C202.95,-47.09 233.58,-34.46 256.99,-24.81"/>
<polygon fill="#63b8ff" stroke="#63b8ff" points="258.19,-28.1 266.1,-21.06 255.52,-21.63 258.19,-28.1"/>
</a>
</g>
</g>
</g>
</svg>
