<?xml version="1.0" encoding="UTF-8" standalone="no"?>
<!DOCTYPE svg PUBLIC "-//W3C//DTD SVG 1.1//EN"
 "http://www.w3.org/Graphics/SVG/1.1/DTD/svg11.dtd">
<!-- Generated by graphviz version 12.2.1 (20241206.2353)
 -->
<!-- Title: MultiplayerShooter/BaseWeapon/ProjectileWeapons/Projectile.h Pages: 1 -->
<svg width="359pt" height="108pt"
 viewBox="0.00 0.00 358.75 108.00" xmlns="http://www.w3.org/2000/svg" xmlns:xlink="http://www.w3.org/1999/xlink">
<g id="graph0" class="graph" transform="scale(1 1) rotate(0) translate(4 104)">
<title>MultiplayerShooter/BaseWeapon/ProjectileWeapons/Projectile.h</title>
<!-- Node1 -->
<g id="Node000001" class="node">
<title>Node1</title>
<g id="a_Node000001"><a xlink:title=" ">
<polygon fill="#999999" stroke="#666666" points="239.88,-100 79.12,-100 79.12,-56 239.88,-56 239.88,-100"/>
<text text-anchor="start" x="87.12" y="-86.5" font-family="Arial" font-size="10.00">MultiplayerShooter</text>
<text text-anchor="start" x="87.12" y="-74.5" font-family="Arial" font-size="10.00">/BaseWeapon/ProjectileWeapons</text>
<text text-anchor="middle" x="159.5" y="-62.5" font-family="Arial" font-size="10.00">/Projectile.h</text>
</a>
</g>
</g>
<!-- Node2 -->
<g id="Node000002" class="node">
<title>Node2</title>
<g id="a_Node000002"><a xlink:title=" ">
<polygon fill="#e0e0e0" stroke="#999999" points="79,-20 0,-20 0,0 79,0 79,-20"/>
<text text-anchor="middle" x="39.5" y="-6.5" font-family="Arial" font-size="10.00">CoreMinimal.h</text>
</a>
</g>
</g>
<!-- Node1&#45;&gt;Node2 -->
<g id="edge1_Node000001_Node000002" class="edge">
<title>Node1&#45;&gt;Node2</title>
<g id="a_edge1_Node000001_Node000002"><a xlink:title=" ">
<path fill="none" stroke="#63b8ff" d="M120.54,-55.57C102.8,-45.81 82.25,-34.51 66.28,-25.73"/>
<polygon fill="#63b8ff" stroke="#63b8ff" points="68.3,-22.85 57.85,-21.09 64.93,-28.98 68.3,-22.85"/>
</a>
</g>
</g>
<!-- Node3 -->
<g id="Node000003" class="node">
<title>Node3</title>
<g id="a_Node000003"><a xlink:title=" ">
<polygon fill="#e0e0e0" stroke="#999999" points="222.25,-20 96.75,-20 96.75,0 222.25,0 222.25,-20"/>
<text text-anchor="middle" x="159.5" y="-6.5" font-family="Arial" font-size="10.00">GameFramework/Actor.h</text>
</a>
</g>
</g>
<!-- Node1&#45;&gt;Node3 -->
<g id="edge2_Node000001_Node000003" class="edge">
<title>Node1&#45;&gt;Node3</title>
<g id="a_edge2_Node000001_Node000003"><a xlink:title=" ">
<path fill="none" stroke="#63b8ff" d="M159.5,-55.75C159.5,-48.13 159.5,-39.53 159.5,-31.93"/>
<polygon fill="#63b8ff" stroke="#63b8ff" points="163,-31.93 159.5,-21.93 156,-31.93 163,-31.93"/>
</a>
</g>
</g>
<!-- Node4 -->
<g id="Node000004" class="node">
<title>Node4</title>
<g id="a_Node000004"><a xlink:title=" ">
<polygon fill="#e0e0e0" stroke="#999999" points="350.75,-20 240.25,-20 240.25,0 350.75,0 350.75,-20"/>
<text text-anchor="middle" x="295.5" y="-6.5" font-family="Arial" font-size="10.00">Projectile.generated.h</text>
</a>
</g>
</g>
<!-- Node1&#45;&gt;Node4 -->
<g id="edge3_Node000001_Node000004" class="edge">
<title>Node1&#45;&gt;Node4</title>
<g id="a_edge3_Node000001_Node000004"><a xlink:title=" ">
<path fill="none" stroke="#63b8ff" d="M203.66,-55.57C224.05,-45.68 247.72,-34.19 265.92,-25.36"/>
<polygon fill="#63b8ff" stroke="#63b8ff" points="267.37,-28.54 274.84,-21.03 264.32,-22.24 267.37,-28.54"/>
</a>
</g>
</g>
</g>
</svg>
