<?xml version="1.0" encoding="UTF-8" standalone="no"?>
<!DOCTYPE svg PUBLIC "-//W3C//DTD SVG 1.1//EN"
 "http://www.w3.org/Graphics/SVG/1.1/DTD/svg11.dtd">
<!-- Generated by graphviz version 12.2.1 (20241206.2353)
 -->
<!-- Title: MultiplayerShooter/BaseWeapon/ProjectileWeapons/Projectile.cpp Pages: 1 -->
<svg width="2476pt" height="312pt"
 viewBox="0.00 0.00 2476.12 312.00" xmlns="http://www.w3.org/2000/svg" xmlns:xlink="http://www.w3.org/1999/xlink">
<g id="graph0" class="graph" transform="scale(1 1) rotate(0) translate(4 308)">
<title>MultiplayerShooter/BaseWeapon/ProjectileWeapons/Projectile.cpp</title>
<!-- Node1 -->
<g id="Node000001" class="node">
<title>Node1</title>
<g id="a_Node000001"><a xlink:title=" ">
<polygon fill="#999999" stroke="#666666" points="1900.12,-304 1739.38,-304 1739.38,-260 1900.12,-260 1900.12,-304"/>
<text text-anchor="start" x="1747.38" y="-290.5" font-family="Arial" font-size="10.00">MultiplayerShooter</text>
<text text-anchor="start" x="1747.38" y="-278.5" font-family="Arial" font-size="10.00">/BaseWeapon/ProjectileWeapons</text>
<text text-anchor="middle" x="1819.75" y="-266.5" font-family="Arial" font-size="10.00">/Projectile.cpp</text>
</a>
</g>
</g>
<!-- Node2 -->
<g id="Node000002" class="node">
<title>Node2</title>
<g id="a_Node000002"><a xlink:href="_projectile_8h.html" target="_top" xlink:title=" ">
<polygon fill="white" stroke="#666666" points="1482.12,-218 1417.38,-218 1417.38,-198 1482.12,-198 1482.12,-218"/>
<text text-anchor="middle" x="1449.75" y="-204.5" font-family="Arial" font-size="10.00">Projectile.h</text>
</a>
</g>
</g>
<!-- Node1&#45;&gt;Node2 -->
<g id="edge1_Node000001_Node000002" class="edge">
<title>Node1&#45;&gt;Node2</title>
<g id="a_edge1_Node000001_Node000002"><a xlink:title=" ">
<path fill="none" stroke="#63b8ff" d="M1739.01,-265.29C1663.5,-250.59 1553.58,-229.21 1493.31,-217.48"/>
<polygon fill="#63b8ff" stroke="#63b8ff" points="1494.27,-214.1 1483.79,-215.62 1492.94,-220.97 1494.27,-214.1"/>
</a>
</g>
</g>
<!-- Node6 -->
<g id="Node000006" class="node">
<title>Node6</title>
<g id="a_Node000006"><a xlink:title=" ">
<polygon fill="#e0e0e0" stroke="#999999" points="1726.75,-218 1602.75,-218 1602.75,-198 1726.75,-198 1726.75,-218"/>
<text text-anchor="middle" x="1664.75" y="-204.5" font-family="Arial" font-size="10.00">NiagaraFunctionLibrary.h</text>
</a>
</g>
</g>
<!-- Node1&#45;&gt;Node6 -->
<g id="edge5_Node000001_Node000006" class="edge">
<title>Node1&#45;&gt;Node6</title>
<g id="a_edge5_Node000001_Node000006"><a xlink:title=" ">
<path fill="none" stroke="#63b8ff" d="M1773.66,-259.59C1748.36,-247.84 1717.67,-233.58 1695.33,-223.2"/>
<polygon fill="#63b8ff" stroke="#63b8ff" points="1697.01,-220.12 1686.46,-219.09 1694.06,-226.47 1697.01,-220.12"/>
</a>
</g>
</g>
<!-- Node7 -->
<g id="Node000007" class="node">
<title>Node7</title>
<g id="a_Node000007"><a xlink:title=" ">
<polygon fill="#e0e0e0" stroke="#999999" points="1894.88,-218 1744.62,-218 1744.62,-198 1894.88,-198 1894.88,-218"/>
<text text-anchor="middle" x="1819.75" y="-204.5" font-family="Arial" font-size="10.00">Components/BoxComponent.h</text>
</a>
</g>
</g>
<!-- Node1&#45;&gt;Node7 -->
<g id="edge6_Node000001_Node000007" class="edge">
<title>Node1&#45;&gt;Node7</title>
<g id="a_edge6_Node000001_Node000007"><a xlink:title=" ">
<path fill="none" stroke="#63b8ff" d="M1819.75,-259.79C1819.75,-250.32 1819.75,-239.2 1819.75,-229.78"/>
<polygon fill="#63b8ff" stroke="#63b8ff" points="1823.25,-229.82 1819.75,-219.82 1816.25,-229.82 1823.25,-229.82"/>
</a>
</g>
</g>
<!-- Node8 -->
<g id="Node000008" class="node">
<title>Node8</title>
<g id="a_Node000008"><a xlink:title=" ">
<polygon fill="#e0e0e0" stroke="#999999" points="2047,-224 1912.5,-224 1912.5,-192 2047,-192 2047,-224"/>
<text text-anchor="start" x="1920.5" y="-210.5" font-family="Arial" font-size="10.00">GameFramework/Projectile</text>
<text text-anchor="middle" x="1979.75" y="-198.5" font-family="Arial" font-size="10.00">MovementComponent.h</text>
</a>
</g>
</g>
<!-- Node1&#45;&gt;Node8 -->
<g id="edge7_Node000001_Node000008" class="edge">
<title>Node1&#45;&gt;Node8</title>
<g id="a_edge7_Node000001_Node000008"><a xlink:title=" ">
<path fill="none" stroke="#63b8ff" d="M1867.32,-259.59C1888.76,-249.95 1913.93,-238.62 1935.02,-229.13"/>
<polygon fill="#63b8ff" stroke="#63b8ff" points="1936.25,-232.41 1943.94,-225.12 1933.38,-226.03 1936.25,-232.41"/>
</a>
</g>
</g>
<!-- Node9 -->
<g id="Node000009" class="node">
<title>Node9</title>
<g id="a_Node000009"><a xlink:title=" ">
<polygon fill="#e0e0e0" stroke="#999999" points="2198.25,-218 2065.25,-218 2065.25,-198 2198.25,-198 2198.25,-218"/>
<text text-anchor="middle" x="2131.75" y="-204.5" font-family="Arial" font-size="10.00">Kismet/GameplayStatics.h</text>
</a>
</g>
</g>
<!-- Node1&#45;&gt;Node9 -->
<g id="edge8_Node000001_Node000009" class="edge">
<title>Node1&#45;&gt;Node9</title>
<g id="a_edge8_Node000001_Node000009"><a xlink:title=" ">
<path fill="none" stroke="#63b8ff" d="M1900.5,-262.36C1957.12,-249.3 2031.13,-232.22 2079.99,-220.95"/>
<polygon fill="#63b8ff" stroke="#63b8ff" points="2080.49,-224.42 2089.45,-218.76 2078.92,-217.6 2080.49,-224.42"/>
</a>
</g>
</g>
<!-- Node10 -->
<g id="Node000010" class="node">
<title>Node10</title>
<g id="a_Node000010"><a xlink:href="_main_character_8h.html" target="_top" xlink:title=" ">
<polygon fill="white" stroke="#666666" points="863.62,-224 705.88,-224 705.88,-192 863.62,-192 863.62,-224"/>
<text text-anchor="start" x="713.88" y="-210.5" font-family="Arial" font-size="10.00">MultiplayerShooter</text>
<text text-anchor="middle" x="784.75" y="-198.5" font-family="Arial" font-size="10.00">/MainCharacter/MainCharacter.h</text>
</a>
</g>
</g>
<!-- Node1&#45;&gt;Node10 -->
<g id="edge9_Node000001_Node000010" class="edge">
<title>Node1&#45;&gt;Node10</title>
<g id="a_edge9_Node000001_Node000010"><a xlink:title=" ">
<path fill="none" stroke="#63b8ff" d="M1738.97,-275.38C1548.91,-262.16 1074.5,-229.16 875.19,-215.29"/>
<polygon fill="#63b8ff" stroke="#63b8ff" points="875.63,-211.81 865.41,-214.61 875.14,-218.8 875.63,-211.81"/>
</a>
</g>
</g>
<!-- Node23 -->
<g id="Node000023" class="node">
<title>Node23</title>
<g id="a_Node000023"><a xlink:title=" ">
<polygon fill="#e0e0e0" stroke="#999999" points="2348.88,-218 2216.62,-218 2216.62,-198 2348.88,-198 2348.88,-218"/>
<text text-anchor="middle" x="2282.75" y="-204.5" font-family="Arial" font-size="10.00">Particles/ParticleSystem.h</text>
</a>
</g>
</g>
<!-- Node1&#45;&gt;Node23 -->
<g id="edge27_Node000001_Node000023" class="edge">
<title>Node1&#45;&gt;Node23</title>
<g id="a_edge27_Node000001_Node000023"><a xlink:title=" ">
<path fill="none" stroke="#63b8ff" d="M1900.57,-270.36C1979.19,-259.72 2101.93,-242.34 2207.75,-224 2213.72,-222.97 2219.94,-221.82 2226.14,-220.64"/>
<polygon fill="#63b8ff" stroke="#63b8ff" points="2226.57,-224.13 2235.72,-218.79 2225.24,-217.25 2226.57,-224.13"/>
</a>
</g>
</g>
<!-- Node24 -->
<g id="Node000024" class="node">
<title>Node24</title>
<g id="a_Node000024"><a xlink:title=" ">
<polygon fill="#e0e0e0" stroke="#999999" points="2468.12,-218 2367.38,-218 2367.38,-198 2468.12,-198 2468.12,-218"/>
<text text-anchor="middle" x="2417.75" y="-204.5" font-family="Arial" font-size="10.00">Sound/SoundCue.h</text>
</a>
</g>
</g>
<!-- Node1&#45;&gt;Node24 -->
<g id="edge28_Node000001_Node000024" class="edge">
<title>Node1&#45;&gt;Node24</title>
<g id="a_edge28_Node000001_Node000024"><a xlink:title=" ">
<path fill="none" stroke="#63b8ff" d="M1900.45,-275.97C2006.11,-268.59 2196.82,-252.5 2357.75,-224 2362.45,-223.17 2367.32,-222.17 2372.17,-221.1"/>
<polygon fill="#63b8ff" stroke="#63b8ff" points="2372.93,-224.51 2381.87,-218.82 2371.33,-217.7 2372.93,-224.51"/>
</a>
</g>
</g>
<!-- Node25 -->
<g id="Node000025" class="node">
<title>Node25</title>
<g id="a_Node000025"><a xlink:href="_multiplayer_shooter_8h.html" target="_top" xlink:title=" ">
<polygon fill="white" stroke="#666666" points="1586.88,-88 1478.62,-88 1478.62,-56 1586.88,-56 1586.88,-88"/>
<text text-anchor="start" x="1486.62" y="-74.5" font-family="Arial" font-size="10.00">MultiplayerShooter</text>
<text text-anchor="middle" x="1532.75" y="-62.5" font-family="Arial" font-size="10.00">/MultiplayerShooter.h</text>
</a>
</g>
</g>
<!-- Node1&#45;&gt;Node25 -->
<g id="edge29_Node000001_Node000025" class="edge">
<title>Node1&#45;&gt;Node25</title>
<g id="a_edge29_Node000001_Node000025"><a xlink:title=" ">
<path fill="none" stroke="#63b8ff" d="M1739.04,-278.71C1691.6,-273.35 1633.34,-259.25 1593.75,-224 1558.24,-192.39 1573.98,-167.91 1555.75,-124 1552.27,-115.61 1548.26,-106.55 1544.58,-98.42"/>
<polygon fill="#63b8ff" stroke="#63b8ff" points="1547.81,-97.08 1540.47,-89.45 1541.45,-100 1547.81,-97.08"/>
</a>
</g>
</g>
<!-- Node3 -->
<g id="Node000003" class="node">
<title>Node3</title>
<g id="a_Node000003"><a xlink:title=" ">
<polygon fill="#e0e0e0" stroke="#999999" points="557.25,-20 478.25,-20 478.25,0 557.25,0 557.25,-20"/>
<text text-anchor="middle" x="517.75" y="-6.5" font-family="Arial" font-size="10.00">CoreMinimal.h</text>
</a>
</g>
</g>
<!-- Node2&#45;&gt;Node3 -->
<g id="edge2_Node000002_Node000003" class="edge">
<title>Node2&#45;&gt;Node3</title>
<g id="a_edge2_Node000002_Node000003"><a xlink:title=" ">
<path fill="none" stroke="#63b8ff" d="M1445.99,-197.58C1438.37,-179.81 1419.24,-141.55 1389.75,-124 1249.32,-40.42 733.81,-17.6 568.87,-12.37"/>
<polygon fill="#63b8ff" stroke="#63b8ff" points="569.23,-8.88 559.12,-12.07 569.01,-15.88 569.23,-8.88"/>
</a>
</g>
</g>
<!-- Node4 -->
<g id="Node000004" class="node">
<title>Node4</title>
<g id="a_Node000004"><a xlink:title=" ">
<polygon fill="#e0e0e0" stroke="#999999" points="1380.5,-150 1255,-150 1255,-130 1380.5,-130 1380.5,-150"/>
<text text-anchor="middle" x="1317.75" y="-136.5" font-family="Arial" font-size="10.00">GameFramework/Actor.h</text>
</a>
</g>
</g>
<!-- Node2&#45;&gt;Node4 -->
<g id="edge3_Node000002_Node000004" class="edge">
<title>Node2&#45;&gt;Node4</title>
<g id="a_edge3_Node000002_Node000004"><a xlink:title=" ">
<path fill="none" stroke="#63b8ff" d="M1430.84,-197.54C1408.88,-186.57 1372.42,-168.33 1346.85,-155.55"/>
<polygon fill="#63b8ff" stroke="#63b8ff" points="1348.49,-152.46 1337.98,-151.12 1345.36,-158.72 1348.49,-152.46"/>
</a>
</g>
</g>
<!-- Node5 -->
<g id="Node000005" class="node">
<title>Node5</title>
<g id="a_Node000005"><a xlink:title=" ">
<polygon fill="#e0e0e0" stroke="#999999" points="1547,-150 1436.5,-150 1436.5,-130 1547,-130 1547,-150"/>
<text text-anchor="middle" x="1491.75" y="-136.5" font-family="Arial" font-size="10.00">Projectile.generated.h</text>
</a>
</g>
</g>
<!-- Node2&#45;&gt;Node5 -->
<g id="edge4_Node000002_Node000005" class="edge">
<title>Node2&#45;&gt;Node5</title>
<g id="a_edge4_Node000002_Node000005"><a xlink:title=" ">
<path fill="none" stroke="#63b8ff" d="M1455.77,-197.54C1462.01,-187.74 1471.92,-172.16 1479.77,-159.83"/>
<polygon fill="#63b8ff" stroke="#63b8ff" points="1482.52,-162.03 1484.93,-151.72 1476.61,-158.27 1482.52,-162.03"/>
</a>
</g>
</g>
<!-- Node10&#45;&gt;Node3 -->
<g id="edge10_Node000010_Node000003" class="edge">
<title>Node10&#45;&gt;Node3</title>
<g id="a_edge10_Node000010_Node000003"><a xlink:title=" ">
<path fill="none" stroke="#63b8ff" d="M705.48,-205.63C557.85,-202.25 252.79,-191.07 220.75,-156 190.77,-123.19 191.77,-89.7 220.75,-56 251.84,-19.85 390.05,-12.38 466.49,-11.07"/>
<polygon fill="#63b8ff" stroke="#63b8ff" points="466.29,-14.57 476.24,-10.93 466.19,-7.57 466.29,-14.57"/>
</a>
</g>
</g>
<!-- Node11 -->
<g id="Node000011" class="node">
<title>Node11</title>
<g id="a_Node000011"><a xlink:title=" ">
<polygon fill="#e0e0e0" stroke="#999999" points="781.25,-150 636.25,-150 636.25,-130 781.25,-130 781.25,-150"/>
<text text-anchor="middle" x="708.75" y="-136.5" font-family="Arial" font-size="10.00">GameFramework/Character.h</text>
</a>
</g>
</g>
<!-- Node10&#45;&gt;Node11 -->
<g id="edge11_Node000010_Node000011" class="edge">
<title>Node10&#45;&gt;Node11</title>
<g id="a_edge11_Node000010_Node000011"><a xlink:title=" ">
<path fill="none" stroke="#63b8ff" d="M767.12,-191.69C755.38,-181.5 739.96,-168.1 727.91,-157.64"/>
<polygon fill="#63b8ff" stroke="#63b8ff" points="730.47,-155.22 720.62,-151.31 725.88,-160.51 730.47,-155.22"/>
</a>
</g>
</g>
<!-- Node12 -->
<g id="Node000012" class="node">
<title>Node12</title>
<g id="a_Node000012"><a xlink:href="_turning_in_place_8h.html" target="_top" xlink:title=" ">
<polygon fill="white" stroke="#666666" points="920.62,-156 798.88,-156 798.88,-124 920.62,-124 920.62,-156"/>
<text text-anchor="start" x="806.88" y="-142.5" font-family="Arial" font-size="10.00">MultiplayerShooter</text>
<text text-anchor="middle" x="859.75" y="-130.5" font-family="Arial" font-size="10.00">/Types/TurningInPlace.h</text>
</a>
</g>
</g>
<!-- Node10&#45;&gt;Node12 -->
<g id="edge12_Node000010_Node000012" class="edge">
<title>Node10&#45;&gt;Node12</title>
<g id="a_edge12_Node000010_Node000012"><a xlink:title=" ">
<path fill="none" stroke="#63b8ff" d="M802.15,-191.69C811.54,-183.42 823.33,-173.05 833.8,-163.84"/>
<polygon fill="#63b8ff" stroke="#63b8ff" points="835.86,-166.69 841.05,-157.45 831.23,-161.43 835.86,-166.69"/>
</a>
</g>
</g>
<!-- Node13 -->
<g id="Node000013" class="node">
<title>Node13</title>
<g id="a_Node000013"><a xlink:title=" ">
<polygon fill="#e0e0e0" stroke="#999999" points="1085,-150 938.5,-150 938.5,-130 1085,-130 1085,-150"/>
<text text-anchor="middle" x="1011.75" y="-136.5" font-family="Arial" font-size="10.00">Camera/CameraComponent.h</text>
</a>
</g>
</g>
<!-- Node10&#45;&gt;Node13 -->
<g id="edge13_Node000010_Node000013" class="edge">
<title>Node10&#45;&gt;Node13</title>
<g id="a_edge13_Node000010_Node000013"><a xlink:title=" ">
<path fill="none" stroke="#63b8ff" d="M837.97,-191.53C877.64,-179.99 931.14,-164.44 968.25,-153.65"/>
<polygon fill="#63b8ff" stroke="#63b8ff" points="969.13,-157.04 977.76,-150.88 967.18,-150.31 969.13,-157.04"/>
</a>
</g>
</g>
<!-- Node14 -->
<g id="Node000014" class="node">
<title>Node14</title>
<g id="a_Node000014"><a xlink:href="_buff_component_8h.html" target="_top" xlink:title=" ">
<polygon fill="white" stroke="#666666" points="618,-156 441.5,-156 441.5,-124 618,-124 618,-156"/>
<text text-anchor="start" x="449.5" y="-142.5" font-family="Arial" font-size="10.00">MultiplayerShooter</text>
<text text-anchor="middle" x="529.75" y="-130.5" font-family="Arial" font-size="10.00">/ActorComponents/BuffComponent.h</text>
</a>
</g>
</g>
<!-- Node10&#45;&gt;Node14 -->
<g id="edge14_Node000010_Node000014" class="edge">
<title>Node10&#45;&gt;Node14</title>
<g id="a_edge14_Node000010_Node000014"><a xlink:title=" ">
<path fill="none" stroke="#63b8ff" d="M724.96,-191.53C687.77,-181.9 639.75,-169.47 600.64,-159.35"/>
<polygon fill="#63b8ff" stroke="#63b8ff" points="601.63,-155.99 591.07,-156.87 599.87,-162.76 601.63,-155.99"/>
</a>
</g>
</g>
<!-- Node17 -->
<g id="Node000017" class="node">
<title>Node17</title>
<g id="a_Node000017"><a xlink:href="_combat_component_8h.html" target="_top" xlink:title=" ">
<polygon fill="white" stroke="#666666" points="423.62,-156 229.88,-156 229.88,-124 423.62,-124 423.62,-156"/>
<text text-anchor="start" x="237.88" y="-142.5" font-family="Arial" font-size="10.00">MultiplayerShooter</text>
<text text-anchor="middle" x="326.75" y="-130.5" font-family="Arial" font-size="10.00">/ActorComponents/CombatComponent.h</text>
</a>
</g>
</g>
<!-- Node10&#45;&gt;Node17 -->
<g id="edge18_Node000010_Node000017" class="edge">
<title>Node10&#45;&gt;Node17</title>
<g id="a_edge18_Node000010_Node000017"><a xlink:title=" ">
<path fill="none" stroke="#63b8ff" d="M705.5,-195.58C630.84,-184.82 518.37,-168.61 435.38,-156.65"/>
<polygon fill="#63b8ff" stroke="#63b8ff" points="436.02,-153.21 425.62,-155.25 435.02,-160.14 436.02,-153.21"/>
</a>
</g>
</g>
<!-- Node22 -->
<g id="Node000022" class="node">
<title>Node22</title>
<g id="a_Node000022"><a xlink:title=" ">
<polygon fill="#e0e0e0" stroke="#999999" points="1236.62,-150 1102.88,-150 1102.88,-130 1236.62,-130 1236.62,-150"/>
<text text-anchor="middle" x="1169.75" y="-136.5" font-family="Arial" font-size="10.00">MainCharacter.generated.h</text>
</a>
</g>
</g>
<!-- Node10&#45;&gt;Node22 -->
<g id="edge26_Node000010_Node000022" class="edge">
<title>Node10&#45;&gt;Node22</title>
<g id="a_edge26_Node000010_Node000022"><a xlink:title=" ">
<path fill="none" stroke="#63b8ff" d="M863.93,-194.63C926.43,-184.7 1015.77,-170.13 1093.75,-156 1099.71,-154.92 1105.91,-153.76 1112.11,-152.57"/>
<polygon fill="#63b8ff" stroke="#63b8ff" points="1112.53,-156.06 1121.68,-150.72 1111.2,-149.18 1112.53,-156.06"/>
</a>
</g>
</g>
<!-- Node14&#45;&gt;Node3 -->
<g id="edge15_Node000014_Node000003" class="edge">
<title>Node14&#45;&gt;Node3</title>
<g id="a_edge15_Node000014_Node000003"><a xlink:title=" ">
<path fill="none" stroke="#63b8ff" d="M566.41,-123.54C581.11,-115.3 596.5,-103.59 604.75,-88 611.4,-75.43 612.14,-68.15 604.75,-56 595.91,-41.48 580.72,-31.44 565.48,-24.6"/>
<polygon fill="#63b8ff" stroke="#63b8ff" points="566.98,-21.43 556.4,-20.92 564.35,-27.92 566.98,-21.43"/>
</a>
</g>
</g>
<!-- Node15 -->
<g id="Node000015" class="node">
<title>Node15</title>
<g id="a_Node000015"><a xlink:title=" ">
<polygon fill="#e0e0e0" stroke="#999999" points="595.88,-82 439.62,-82 439.62,-62 595.88,-62 595.88,-82"/>
<text text-anchor="middle" x="517.75" y="-68.5" font-family="Arial" font-size="10.00">Components/ActorComponent.h</text>
</a>
</g>
</g>
<!-- Node14&#45;&gt;Node15 -->
<g id="edge16_Node000014_Node000015" class="edge">
<title>Node14&#45;&gt;Node15</title>
<g id="a_edge16_Node000014_Node000015"><a xlink:title=" ">
<path fill="none" stroke="#63b8ff" d="M526.97,-123.69C525.33,-114.7 523.24,-103.21 521.47,-93.44"/>
<polygon fill="#63b8ff" stroke="#63b8ff" points="524.95,-93.02 519.71,-83.81 518.06,-94.27 524.95,-93.02"/>
</a>
</g>
</g>
<!-- Node16 -->
<g id="Node000016" class="node">
<title>Node16</title>
<g id="a_Node000016"><a xlink:title=" ">
<polygon fill="#e0e0e0" stroke="#999999" points="789.5,-82 652,-82 652,-62 789.5,-62 789.5,-82"/>
<text text-anchor="middle" x="720.75" y="-68.5" font-family="Arial" font-size="10.00">BuffComponent.generated.h</text>
</a>
</g>
</g>
<!-- Node14&#45;&gt;Node16 -->
<g id="edge17_Node000014_Node000016" class="edge">
<title>Node14&#45;&gt;Node16</title>
<g id="a_edge17_Node000014_Node000016"><a xlink:title=" ">
<path fill="none" stroke="#63b8ff" d="M574.53,-123.53C607.33,-112.19 651.37,-96.97 682.52,-86.21"/>
<polygon fill="#63b8ff" stroke="#63b8ff" points="683.63,-89.53 691.94,-82.95 681.35,-82.91 683.63,-89.53"/>
</a>
</g>
</g>
<!-- Node17&#45;&gt;Node3 -->
<g id="edge19_Node000017_Node000003" class="edge">
<title>Node17&#45;&gt;Node3</title>
<g id="a_edge19_Node000017_Node000003"><a xlink:title=" ">
<path fill="none" stroke="#63b8ff" d="M347.14,-123.59C360.27,-113.59 377.65,-100.18 392.75,-88 409.93,-74.14 412.39,-68.26 430.75,-56 448.32,-44.27 469.32,-33.33 486.29,-25.17"/>
<polygon fill="#63b8ff" stroke="#63b8ff" points="487.34,-28.55 494.9,-21.12 484.36,-22.21 487.34,-28.55"/>
</a>
</g>
</g>
<!-- Node17&#45;&gt;Node15 -->
<g id="edge20_Node000017_Node000015" class="edge">
<title>Node17&#45;&gt;Node15</title>
<g id="a_edge20_Node000017_Node000015"><a xlink:title=" ">
<path fill="none" stroke="#63b8ff" d="M371.53,-123.53C404.33,-112.19 448.37,-96.97 479.52,-86.21"/>
<polygon fill="#63b8ff" stroke="#63b8ff" points="480.63,-89.53 488.94,-82.95 478.35,-82.91 480.63,-89.53"/>
</a>
</g>
</g>
<!-- Node18 -->
<g id="Node000018" class="node">
<title>Node18</title>
<g id="a_Node000018"><a xlink:href="_main_h_u_d_8h.html" target="_top" xlink:title=" ">
<polygon fill="white" stroke="#666666" points="173.25,-88 76.25,-88 76.25,-56 173.25,-56 173.25,-88"/>
<text text-anchor="start" x="84.25" y="-74.5" font-family="Arial" font-size="10.00">MultiplayerShooter</text>
<text text-anchor="middle" x="124.75" y="-62.5" font-family="Arial" font-size="10.00">/HUD/MainHUD.h</text>
</a>
</g>
</g>
<!-- Node17&#45;&gt;Node18 -->
<g id="edge21_Node000017_Node000018" class="edge">
<title>Node17&#45;&gt;Node18</title>
<g id="a_edge21_Node000017_Node000018"><a xlink:title=" ">
<path fill="none" stroke="#63b8ff" d="M279.39,-123.53C250.5,-114.09 213.35,-101.95 182.71,-91.94"/>
<polygon fill="#63b8ff" stroke="#63b8ff" points="184.19,-88.74 173.6,-88.96 182.02,-95.39 184.19,-88.74"/>
</a>
</g>
</g>
<!-- Node21 -->
<g id="Node000021" class="node">
<title>Node21</title>
<g id="a_Node000021"><a xlink:title=" ">
<polygon fill="#e0e0e0" stroke="#999999" points="384.12,-82 229.38,-82 229.38,-62 384.12,-62 384.12,-82"/>
<text text-anchor="middle" x="306.75" y="-68.5" font-family="Arial" font-size="10.00">CombatComponent.generated.h</text>
</a>
</g>
</g>
<!-- Node17&#45;&gt;Node21 -->
<g id="edge25_Node000017_Node000021" class="edge">
<title>Node17&#45;&gt;Node21</title>
<g id="a_edge25_Node000017_Node000021"><a xlink:title=" ">
<path fill="none" stroke="#63b8ff" d="M322.11,-123.69C319.35,-114.6 315.83,-102.95 312.85,-93.12"/>
<polygon fill="#63b8ff" stroke="#63b8ff" points="316.26,-92.32 310.01,-83.76 309.56,-94.35 316.26,-92.32"/>
</a>
</g>
</g>
<!-- Node18&#45;&gt;Node3 -->
<g id="edge22_Node000018_Node000003" class="edge">
<title>Node18&#45;&gt;Node3</title>
<g id="a_edge22_Node000018_Node000003"><a xlink:title=" ">
<path fill="none" stroke="#63b8ff" d="M173.49,-58.9C178.29,-57.85 183.11,-56.87 187.75,-56 285.87,-37.67 401.73,-23.6 466.77,-16.38"/>
<polygon fill="#63b8ff" stroke="#63b8ff" points="466.86,-19.89 476.42,-15.32 466.1,-12.93 466.86,-19.89"/>
</a>
</g>
</g>
<!-- Node19 -->
<g id="Node000019" class="node">
<title>Node19</title>
<g id="a_Node000019"><a xlink:title=" ">
<polygon fill="#e0e0e0" stroke="#999999" points="256.12,-20 131.38,-20 131.38,0 256.12,0 256.12,-20"/>
<text text-anchor="middle" x="193.75" y="-6.5" font-family="Arial" font-size="10.00">GameFramework/HUD.h</text>
</a>
</g>
</g>
<!-- Node18&#45;&gt;Node19 -->
<g id="edge23_Node000018_Node000019" class="edge">
<title>Node18&#45;&gt;Node19</title>
<g id="a_edge23_Node000018_Node000019"><a xlink:title=" ">
<path fill="none" stroke="#63b8ff" d="M142.52,-55.55C152.3,-47.04 164.45,-36.48 174.47,-27.77"/>
<polygon fill="#63b8ff" stroke="#63b8ff" points="176.54,-30.6 181.79,-21.4 171.95,-25.32 176.54,-30.6"/>
</a>
</g>
</g>
<!-- Node20 -->
<g id="Node000020" class="node">
<title>Node20</title>
<g id="a_Node000020"><a xlink:title=" ">
<polygon fill="#e0e0e0" stroke="#999999" points="113.5,-20 0,-20 0,0 113.5,0 113.5,-20"/>
<text text-anchor="middle" x="56.75" y="-6.5" font-family="Arial" font-size="10.00">MainHUD.generated.h</text>
</a>
</g>
</g>
<!-- Node18&#45;&gt;Node20 -->
<g id="edge24_Node000018_Node000020" class="edge">
<title>Node18&#45;&gt;Node20</title>
<g id="a_edge24_Node000018_Node000020"><a xlink:title=" ">
<path fill="none" stroke="#63b8ff" d="M107.24,-55.55C97.6,-47.04 85.62,-36.48 75.75,-27.77"/>
<polygon fill="#63b8ff" stroke="#63b8ff" points="78.36,-25.4 68.55,-21.41 73.73,-30.65 78.36,-25.4"/>
</a>
</g>
</g>
<!-- Node25&#45;&gt;Node3 -->
<g id="edge30_Node000025_Node000003" class="edge">
<title>Node25&#45;&gt;Node3</title>
<g id="a_edge30_Node000025_Node000003"><a xlink:title=" ">
<path fill="none" stroke="#63b8ff" d="M1478.3,-62.63C1460.62,-60.17 1440.89,-57.68 1422.75,-56 1098.56,-25.89 707.04,-15.05 568.95,-12.01"/>
<polygon fill="#63b8ff" stroke="#63b8ff" points="569.12,-8.51 559.05,-11.79 568.97,-15.51 569.12,-8.51"/>
</a>
</g>
</g>
</g>
</svg>
