<?xml version="1.0" encoding="UTF-8" standalone="no"?>
<!DOCTYPE svg PUBLIC "-//W3C//DTD SVG 1.1//EN"
 "http://www.w3.org/Graphics/SVG/1.1/DTD/svg11.dtd">
<!-- Generated by graphviz version 12.2.1 (20241206.2353)
 -->
<!-- Title: MultiplayerShooter/BaseWeapon/ProjectileWeapons/ProjectileWeapon.cpp Pages: 1 -->
<svg width="1515pt" height="312pt"
 viewBox="0.00 0.00 1514.62 312.00" xmlns="http://www.w3.org/2000/svg" xmlns:xlink="http://www.w3.org/1999/xlink">
<g id="graph0" class="graph" transform="scale(1 1) rotate(0) translate(4 308)">
<title>MultiplayerShooter/BaseWeapon/ProjectileWeapons/ProjectileWeapon.cpp</title>
<!-- Node1 -->
<g id="Node000001" class="node">
<title>Node1</title>
<g id="a_Node000001"><a xlink:title=" ">
<polygon fill="#999999" stroke="#666666" points="319.25,-304 158.5,-304 158.5,-260 319.25,-260 319.25,-304"/>
<text text-anchor="start" x="166.5" y="-290.5" font-family="Arial" font-size="10.00">MultiplayerShooter</text>
<text text-anchor="start" x="166.5" y="-278.5" font-family="Arial" font-size="10.00">/BaseWeapon/ProjectileWeapons</text>
<text text-anchor="middle" x="238.88" y="-266.5" font-family="Arial" font-size="10.00">/ProjectileWeapon.cpp</text>
</a>
</g>
</g>
<!-- Node2 -->
<g id="Node000002" class="node">
<title>Node2</title>
<g id="a_Node000002"><a xlink:href="_projectile_weapon_8h.html" target="_top" xlink:title=" ">
<polygon fill="white" stroke="#666666" points="203.88,-150 103.88,-150 103.88,-130 203.88,-130 203.88,-150"/>
<text text-anchor="middle" x="153.88" y="-136.5" font-family="Arial" font-size="10.00">ProjectileWeapon.h</text>
</a>
</g>
</g>
<!-- Node1&#45;&gt;Node2 -->
<g id="edge1_Node000001_Node000002" class="edge">
<title>Node1&#45;&gt;Node2</title>
<g id="a_edge1_Node000001_Node000002"><a xlink:title=" ">
<path fill="none" stroke="#63b8ff" d="M158.05,-263.84C137.26,-255.37 117.29,-242.77 104.88,-224 90.05,-201.59 113.1,-174.64 132.35,-157.66"/>
<polygon fill="#63b8ff" stroke="#63b8ff" points="134.44,-160.47 139.87,-151.37 129.96,-155.09 134.44,-160.47"/>
</a>
</g>
</g>
<!-- Node8 -->
<g id="Node000008" class="node">
<title>Node8</title>
<g id="a_Node000008"><a xlink:title=" ">
<polygon fill="#e0e0e0" stroke="#999999" points="261.5,-218 114.25,-218 114.25,-198 261.5,-198 261.5,-218"/>
<text text-anchor="middle" x="187.88" y="-204.5" font-family="Arial" font-size="10.00">Engine/SkeletalMeshSocket.h</text>
</a>
</g>
</g>
<!-- Node1&#45;&gt;Node8 -->
<g id="edge8_Node000001_Node000008" class="edge">
<title>Node1&#45;&gt;Node8</title>
<g id="a_edge8_Node000001_Node000008"><a xlink:title=" ">
<path fill="none" stroke="#63b8ff" d="M223.85,-259.79C216.61,-249.57 208.01,-237.42 201.03,-227.57"/>
<polygon fill="#63b8ff" stroke="#63b8ff" points="203.98,-225.68 195.35,-219.55 198.27,-229.73 203.98,-225.68"/>
</a>
</g>
</g>
<!-- Node9 -->
<g id="Node000009" class="node">
<title>Node9</title>
<g id="a_Node000009"><a xlink:href="_projectile_8h.html" target="_top" xlink:title=" ">
<polygon fill="white" stroke="#666666" points="398.25,-82 333.5,-82 333.5,-62 398.25,-62 398.25,-82"/>
<text text-anchor="middle" x="365.88" y="-68.5" font-family="Arial" font-size="10.00">Projectile.h</text>
</a>
</g>
</g>
<!-- Node1&#45;&gt;Node9 -->
<g id="edge9_Node000001_Node000009" class="edge">
<title>Node1&#45;&gt;Node9</title>
<g id="a_edge9_Node000001_Node000009"><a xlink:title=" ">
<path fill="none" stroke="#63b8ff" d="M251.8,-259.74C257.96,-249.19 265.2,-236.13 270.88,-224 291.01,-180.93 281.95,-163.19 308.88,-124 318.04,-110.66 331.4,-98.46 342.88,-89.34"/>
<polygon fill="#63b8ff" stroke="#63b8ff" points="344.9,-92.2 350.74,-83.37 340.66,-86.63 344.9,-92.2"/>
</a>
</g>
</g>
<!-- Node11 -->
<g id="Node000011" class="node">
<title>Node11</title>
<g id="a_Node000011"><a xlink:href="_main_character_8h.html" target="_top" xlink:title=" ">
<polygon fill="white" stroke="#666666" points="734.75,-224 577,-224 577,-192 734.75,-192 734.75,-224"/>
<text text-anchor="start" x="585" y="-210.5" font-family="Arial" font-size="10.00">MultiplayerShooter</text>
<text text-anchor="middle" x="655.88" y="-198.5" font-family="Arial" font-size="10.00">/MainCharacter/MainCharacter.h</text>
</a>
</g>
</g>
<!-- Node1&#45;&gt;Node11 -->
<g id="edge13_Node000001_Node000011" class="edge">
<title>Node1&#45;&gt;Node11</title>
<g id="a_edge13_Node000001_Node000011"><a xlink:title=" ">
<path fill="none" stroke="#63b8ff" d="M319.28,-267.12C389.85,-254.93 492.39,-237.23 565.73,-224.57"/>
<polygon fill="#63b8ff" stroke="#63b8ff" points="566.03,-228.06 575.29,-222.91 564.84,-221.17 566.03,-228.06"/>
</a>
</g>
</g>
<!-- Node3 -->
<g id="Node000003" class="node">
<title>Node3</title>
<g id="a_Node000003"><a xlink:title=" ">
<polygon fill="#e0e0e0" stroke="#999999" points="525.38,-20 446.38,-20 446.38,0 525.38,0 525.38,-20"/>
<text text-anchor="middle" x="485.88" y="-6.5" font-family="Arial" font-size="10.00">CoreMinimal.h</text>
</a>
</g>
</g>
<!-- Node2&#45;&gt;Node3 -->
<g id="edge2_Node000002_Node000003" class="edge">
<title>Node2&#45;&gt;Node3</title>
<g id="a_edge2_Node000002_Node000003"><a xlink:title=" ">
<path fill="none" stroke="#63b8ff" d="M204.21,-137.2C257.38,-133.45 342.29,-122.1 406.88,-88 434.03,-73.67 458.15,-47.09 472.39,-29.22"/>
<polygon fill="#63b8ff" stroke="#63b8ff" points="474.99,-31.58 478.32,-21.53 469.45,-27.31 474.99,-31.58"/>
</a>
</g>
</g>
<!-- Node4 -->
<g id="Node000004" class="node">
<title>Node4</title>
<g id="a_Node000004"><a xlink:href="_base_weapon_8h.html" target="_top" xlink:title=" ">
<polygon fill="white" stroke="#666666" points="309.75,-88 164,-88 164,-56 309.75,-56 309.75,-88"/>
<text text-anchor="start" x="172" y="-74.5" font-family="Arial" font-size="10.00">MultiplayerShooter</text>
<text text-anchor="middle" x="236.88" y="-62.5" font-family="Arial" font-size="10.00">/BaseWeapon/BaseWeapon.h</text>
</a>
</g>
</g>
<!-- Node2&#45;&gt;Node4 -->
<g id="edge3_Node000002_Node000004" class="edge">
<title>Node2&#45;&gt;Node4</title>
<g id="a_edge3_Node000002_Node000004"><a xlink:title=" ">
<path fill="none" stroke="#63b8ff" d="M165.77,-129.54C176.98,-120.63 194.2,-106.93 208.89,-95.25"/>
<polygon fill="#63b8ff" stroke="#63b8ff" points="210.8,-98.21 216.45,-89.24 206.44,-92.73 210.8,-98.21"/>
</a>
</g>
</g>
<!-- Node7 -->
<g id="Node000007" class="node">
<title>Node7</title>
<g id="a_Node000007"><a xlink:title=" ">
<polygon fill="#e0e0e0" stroke="#999999" points="145.75,-82 0,-82 0,-62 145.75,-62 145.75,-82"/>
<text text-anchor="middle" x="72.88" y="-68.5" font-family="Arial" font-size="10.00">ProjectileWeapon.generated.h</text>
</a>
</g>
</g>
<!-- Node2&#45;&gt;Node7 -->
<g id="edge7_Node000002_Node000007" class="edge">
<title>Node2&#45;&gt;Node7</title>
<g id="a_edge7_Node000002_Node000007"><a xlink:title=" ">
<path fill="none" stroke="#63b8ff" d="M142.27,-129.54C129.52,-119.15 108.79,-102.27 93.31,-89.65"/>
<polygon fill="#63b8ff" stroke="#63b8ff" points="95.6,-87 85.63,-83.39 91.17,-92.42 95.6,-87"/>
</a>
</g>
</g>
<!-- Node4&#45;&gt;Node3 -->
<g id="edge4_Node000004_Node000003" class="edge">
<title>Node4&#45;&gt;Node3</title>
<g id="a_edge4_Node000004_Node000003"><a xlink:title=" ">
<path fill="none" stroke="#63b8ff" d="M301,-55.55C342.84,-45.47 396.67,-32.49 435.45,-23.15"/>
<polygon fill="#63b8ff" stroke="#63b8ff" points="436.09,-26.6 444.99,-20.85 434.45,-19.79 436.09,-26.6"/>
</a>
</g>
</g>
<!-- Node5 -->
<g id="Node000005" class="node">
<title>Node5</title>
<g id="a_Node000005"><a xlink:title=" ">
<polygon fill="#e0e0e0" stroke="#999999" points="299.62,-20 174.12,-20 174.12,0 299.62,0 299.62,-20"/>
<text text-anchor="middle" x="236.88" y="-6.5" font-family="Arial" font-size="10.00">GameFramework/Actor.h</text>
</a>
</g>
</g>
<!-- Node4&#45;&gt;Node5 -->
<g id="edge5_Node000004_Node000005" class="edge">
<title>Node4&#45;&gt;Node5</title>
<g id="a_edge5_Node000004_Node000005"><a xlink:title=" ">
<path fill="none" stroke="#63b8ff" d="M236.88,-55.55C236.88,-48.34 236.88,-39.66 236.88,-31.88"/>
<polygon fill="#63b8ff" stroke="#63b8ff" points="240.38,-31.92 236.88,-21.92 233.38,-31.92 240.38,-31.92"/>
</a>
</g>
</g>
<!-- Node6 -->
<g id="Node000006" class="node">
<title>Node6</title>
<g id="a_Node000006"><a xlink:title=" ">
<polygon fill="#e0e0e0" stroke="#999999" points="155.75,-20 28,-20 28,0 155.75,0 155.75,-20"/>
<text text-anchor="middle" x="91.88" y="-6.5" font-family="Arial" font-size="10.00">BaseWeapon.generated.h</text>
</a>
</g>
</g>
<!-- Node4&#45;&gt;Node6 -->
<g id="edge6_Node000004_Node000006" class="edge">
<title>Node4&#45;&gt;Node6</title>
<g id="a_edge6_Node000004_Node000006"><a xlink:title=" ">
<path fill="none" stroke="#63b8ff" d="M199.53,-55.55C176.56,-46.04 147.38,-33.97 125.19,-24.79"/>
<polygon fill="#63b8ff" stroke="#63b8ff" points="126.59,-21.58 116.01,-20.99 123.91,-28.04 126.59,-21.58"/>
</a>
</g>
</g>
<!-- Node9&#45;&gt;Node3 -->
<g id="edge10_Node000009_Node000003" class="edge">
<title>Node9&#45;&gt;Node3</title>
<g id="a_edge10_Node000009_Node000003"><a xlink:title=" ">
<path fill="none" stroke="#63b8ff" d="M384.62,-61.62C404.09,-51.89 434.77,-36.55 457.26,-25.31"/>
<polygon fill="#63b8ff" stroke="#63b8ff" points="458.52,-28.59 465.9,-20.99 455.39,-22.33 458.52,-28.59"/>
</a>
</g>
</g>
<!-- Node9&#45;&gt;Node5 -->
<g id="edge11_Node000009_Node000005" class="edge">
<title>Node9&#45;&gt;Node5</title>
<g id="a_edge11_Node000009_Node000005"><a xlink:title=" ">
<path fill="none" stroke="#63b8ff" d="M345.72,-61.62C324.7,-51.85 291.51,-36.41 267.3,-25.15"/>
<polygon fill="#63b8ff" stroke="#63b8ff" points="268.81,-21.99 258.26,-20.95 265.85,-28.34 268.81,-21.99"/>
</a>
</g>
</g>
<!-- Node10 -->
<g id="Node000010" class="node">
<title>Node10</title>
<g id="a_Node000010"><a xlink:title=" ">
<polygon fill="#e0e0e0" stroke="#999999" points="428.12,-20 317.62,-20 317.62,0 428.12,0 428.12,-20"/>
<text text-anchor="middle" x="372.88" y="-6.5" font-family="Arial" font-size="10.00">Projectile.generated.h</text>
</a>
</g>
</g>
<!-- Node9&#45;&gt;Node10 -->
<g id="edge12_Node000009_Node000010" class="edge">
<title>Node9&#45;&gt;Node10</title>
<g id="a_edge12_Node000009_Node000010"><a xlink:title=" ">
<path fill="none" stroke="#63b8ff" d="M366.97,-61.62C367.91,-53.56 369.3,-41.65 370.49,-31.41"/>
<polygon fill="#63b8ff" stroke="#63b8ff" points="373.95,-31.95 371.64,-21.62 367,-31.14 373.95,-31.95"/>
</a>
</g>
</g>
<!-- Node11&#45;&gt;Node3 -->
<g id="edge14_Node000011_Node000003" class="edge">
<title>Node11&#45;&gt;Node3</title>
<g id="a_edge14_Node000011_Node000003"><a xlink:title=" ">
<path fill="none" stroke="#63b8ff" d="M576.84,-199.46C547.98,-192.58 517.81,-179.75 498.88,-156 470.21,-120.05 475.72,-61.96 481.31,-31.36"/>
<polygon fill="#63b8ff" stroke="#63b8ff" points="484.67,-32.39 483.24,-21.89 477.81,-30.99 484.67,-32.39"/>
</a>
</g>
</g>
<!-- Node12 -->
<g id="Node000012" class="node">
<title>Node12</title>
<g id="a_Node000012"><a xlink:title=" ">
<polygon fill="#e0e0e0" stroke="#999999" points="653.38,-150 508.38,-150 508.38,-130 653.38,-130 653.38,-150"/>
<text text-anchor="middle" x="580.88" y="-136.5" font-family="Arial" font-size="10.00">GameFramework/Character.h</text>
</a>
</g>
</g>
<!-- Node11&#45;&gt;Node12 -->
<g id="edge15_Node000011_Node000012" class="edge">
<title>Node11&#45;&gt;Node12</title>
<g id="a_edge15_Node000011_Node000012"><a xlink:title=" ">
<path fill="none" stroke="#63b8ff" d="M638.48,-191.69C626.89,-181.5 611.67,-168.1 599.79,-157.64"/>
<polygon fill="#63b8ff" stroke="#63b8ff" points="602.42,-155.29 592.6,-151.32 597.79,-160.55 602.42,-155.29"/>
</a>
</g>
</g>
<!-- Node13 -->
<g id="Node000013" class="node">
<title>Node13</title>
<g id="a_Node000013"><a xlink:href="_turning_in_place_8h.html" target="_top" xlink:title=" ">
<polygon fill="white" stroke="#666666" points="792.75,-156 671,-156 671,-124 792.75,-124 792.75,-156"/>
<text text-anchor="start" x="679" y="-142.5" font-family="Arial" font-size="10.00">MultiplayerShooter</text>
<text text-anchor="middle" x="731.88" y="-130.5" font-family="Arial" font-size="10.00">/Types/TurningInPlace.h</text>
</a>
</g>
</g>
<!-- Node11&#45;&gt;Node13 -->
<g id="edge16_Node000011_Node000013" class="edge">
<title>Node11&#45;&gt;Node13</title>
<g id="a_edge16_Node000011_Node000013"><a xlink:title=" ">
<path fill="none" stroke="#63b8ff" d="M673.5,-191.69C683.03,-183.42 694.97,-173.05 705.57,-163.84"/>
<polygon fill="#63b8ff" stroke="#63b8ff" points="707.68,-166.65 712.94,-157.45 703.09,-161.36 707.68,-166.65"/>
</a>
</g>
</g>
<!-- Node14 -->
<g id="Node000014" class="node">
<title>Node14</title>
<g id="a_Node000014"><a xlink:title=" ">
<polygon fill="#e0e0e0" stroke="#999999" points="957.12,-150 810.62,-150 810.62,-130 957.12,-130 957.12,-150"/>
<text text-anchor="middle" x="883.88" y="-136.5" font-family="Arial" font-size="10.00">Camera/CameraComponent.h</text>
</a>
</g>
</g>
<!-- Node11&#45;&gt;Node14 -->
<g id="edge17_Node000011_Node000014" class="edge">
<title>Node11&#45;&gt;Node14</title>
<g id="a_edge17_Node000011_Node000014"><a xlink:title=" ">
<path fill="none" stroke="#63b8ff" d="M709.33,-191.53C749.17,-179.99 802.91,-164.44 840.19,-153.65"/>
<polygon fill="#63b8ff" stroke="#63b8ff" points="841.11,-157.02 849.74,-150.88 839.16,-150.3 841.11,-157.02"/>
</a>
</g>
</g>
<!-- Node15 -->
<g id="Node000015" class="node">
<title>Node15</title>
<g id="a_Node000015"><a xlink:href="_buff_component_8h.html" target="_top" xlink:title=" ">
<polygon fill="white" stroke="#666666" points="1152.12,-156 975.62,-156 975.62,-124 1152.12,-124 1152.12,-156"/>
<text text-anchor="start" x="983.62" y="-142.5" font-family="Arial" font-size="10.00">MultiplayerShooter</text>
<text text-anchor="middle" x="1063.88" y="-130.5" font-family="Arial" font-size="10.00">/ActorComponents/BuffComponent.h</text>
</a>
</g>
</g>
<!-- Node11&#45;&gt;Node15 -->
<g id="edge18_Node000011_Node000015" class="edge">
<title>Node11&#45;&gt;Node15</title>
<g id="a_edge18_Node000011_Node000015"><a xlink:title=" ">
<path fill="none" stroke="#63b8ff" d="M735.03,-194.2C800.47,-183.61 893.76,-168.52 964.27,-157.11"/>
<polygon fill="#63b8ff" stroke="#63b8ff" points="964.58,-160.61 973.89,-155.56 963.46,-153.7 964.58,-160.61"/>
</a>
</g>
</g>
<!-- Node18 -->
<g id="Node000018" class="node">
<title>Node18</title>
<g id="a_Node000018"><a xlink:href="_combat_component_8h.html" target="_top" xlink:title=" ">
<polygon fill="white" stroke="#666666" points="1363.75,-156 1170,-156 1170,-124 1363.75,-124 1363.75,-156"/>
<text text-anchor="start" x="1178" y="-142.5" font-family="Arial" font-size="10.00">MultiplayerShooter</text>
<text text-anchor="middle" x="1266.88" y="-130.5" font-family="Arial" font-size="10.00">/ActorComponents/CombatComponent.h</text>
</a>
</g>
</g>
<!-- Node11&#45;&gt;Node18 -->
<g id="edge22_Node000011_Node000018" class="edge">
<title>Node11&#45;&gt;Node18</title>
<g id="a_edge22_Node000011_Node000018"><a xlink:title=" ">
<path fill="none" stroke="#63b8ff" d="M735.14,-199.98C832.35,-191.15 1002.42,-174.99 1158.36,-156.28"/>
<polygon fill="#63b8ff" stroke="#63b8ff" points="1158.55,-159.78 1168.06,-155.11 1157.72,-152.83 1158.55,-159.78"/>
</a>
</g>
</g>
<!-- Node23 -->
<g id="Node000023" class="node">
<title>Node23</title>
<g id="a_Node000023"><a xlink:title=" ">
<polygon fill="#e0e0e0" stroke="#999999" points="451.75,-150 318,-150 318,-130 451.75,-130 451.75,-150"/>
<text text-anchor="middle" x="384.88" y="-136.5" font-family="Arial" font-size="10.00">MainCharacter.generated.h</text>
</a>
</g>
</g>
<!-- Node11&#45;&gt;Node23 -->
<g id="edge30_Node000011_Node000023" class="edge">
<title>Node11&#45;&gt;Node23</title>
<g id="a_edge30_Node000011_Node000023"><a xlink:title=" ">
<path fill="none" stroke="#63b8ff" d="M592.34,-191.53C544.27,-179.82 479.18,-163.97 434.81,-153.16"/>
<polygon fill="#63b8ff" stroke="#63b8ff" points="435.73,-149.78 425.19,-150.82 434.08,-156.59 435.73,-149.78"/>
</a>
</g>
</g>
<!-- Node15&#45;&gt;Node3 -->
<g id="edge19_Node000015_Node000003" class="edge">
<title>Node15&#45;&gt;Node3</title>
<g id="a_edge19_Node000015_Node000003"><a xlink:title=" ">
<path fill="none" stroke="#63b8ff" d="M975.26,-124.65C919.78,-115.24 846.91,-102.09 782.88,-88 692.4,-68.09 587.79,-39.7 530,-23.53"/>
<polygon fill="#63b8ff" stroke="#63b8ff" points="531.12,-20.21 520.54,-20.88 529.23,-26.95 531.12,-20.21"/>
</a>
</g>
</g>
<!-- Node16 -->
<g id="Node000016" class="node">
<title>Node16</title>
<g id="a_Node000016"><a xlink:title=" ">
<polygon fill="#e0e0e0" stroke="#999999" points="1104,-82 947.75,-82 947.75,-62 1104,-62 1104,-82"/>
<text text-anchor="middle" x="1025.88" y="-68.5" font-family="Arial" font-size="10.00">Components/ActorComponent.h</text>
</a>
</g>
</g>
<!-- Node15&#45;&gt;Node16 -->
<g id="edge20_Node000015_Node000016" class="edge">
<title>Node15&#45;&gt;Node16</title>
<g id="a_edge20_Node000015_Node000016"><a xlink:title=" ">
<path fill="none" stroke="#63b8ff" d="M1055.06,-123.69C1049.65,-114.3 1042.68,-102.18 1036.9,-92.15"/>
<polygon fill="#63b8ff" stroke="#63b8ff" points="1040.02,-90.55 1031.99,-83.63 1033.95,-94.04 1040.02,-90.55"/>
</a>
</g>
</g>
<!-- Node17 -->
<g id="Node000017" class="node">
<title>Node17</title>
<g id="a_Node000017"><a xlink:title=" ">
<polygon fill="#e0e0e0" stroke="#999999" points="929.62,-82 792.12,-82 792.12,-62 929.62,-62 929.62,-82"/>
<text text-anchor="middle" x="860.88" y="-68.5" font-family="Arial" font-size="10.00">BuffComponent.generated.h</text>
</a>
</g>
</g>
<!-- Node15&#45;&gt;Node17 -->
<g id="edge21_Node000015_Node000017" class="edge">
<title>Node15&#45;&gt;Node17</title>
<g id="a_edge21_Node000015_Node000017"><a xlink:title=" ">
<path fill="none" stroke="#63b8ff" d="M1016.28,-123.53C981.11,-112.09 933.79,-96.71 900.63,-85.93"/>
<polygon fill="#63b8ff" stroke="#63b8ff" points="902,-82.69 891.41,-82.93 899.84,-89.35 902,-82.69"/>
</a>
</g>
</g>
<!-- Node18&#45;&gt;Node3 -->
<g id="edge23_Node000018_Node000003" class="edge">
<title>Node18&#45;&gt;Node3</title>
<g id="a_edge23_Node000018_Node000003"><a xlink:title=" ">
<path fill="none" stroke="#63b8ff" d="M1277.51,-123.7C1288.93,-105.23 1303.24,-74.37 1285.88,-56 1260.1,-28.73 709.34,-15.46 536.97,-11.96"/>
<polygon fill="#63b8ff" stroke="#63b8ff" points="537.28,-8.47 527.22,-11.77 537.14,-15.47 537.28,-8.47"/>
</a>
</g>
</g>
<!-- Node18&#45;&gt;Node16 -->
<g id="edge24_Node000018_Node000016" class="edge">
<title>Node18&#45;&gt;Node16</title>
<g id="a_edge24_Node000018_Node000016"><a xlink:title=" ">
<path fill="none" stroke="#63b8ff" d="M1210.37,-123.53C1167.99,-111.92 1110.72,-96.24 1071.29,-85.44"/>
<polygon fill="#63b8ff" stroke="#63b8ff" points="1072.45,-82.13 1061.88,-82.86 1070.6,-88.88 1072.45,-82.13"/>
</a>
</g>
</g>
<!-- Node19 -->
<g id="Node000019" class="node">
<title>Node19</title>
<g id="a_Node000019"><a xlink:href="_main_h_u_d_8h.html" target="_top" xlink:title=" ">
<polygon fill="white" stroke="#666666" points="1430.38,-88 1333.38,-88 1333.38,-56 1430.38,-56 1430.38,-88"/>
<text text-anchor="start" x="1341.38" y="-74.5" font-family="Arial" font-size="10.00">MultiplayerShooter</text>
<text text-anchor="middle" x="1381.88" y="-62.5" font-family="Arial" font-size="10.00">/HUD/MainHUD.h</text>
</a>
</g>
</g>
<!-- Node18&#45;&gt;Node19 -->
<g id="edge25_Node000018_Node000019" class="edge">
<title>Node18&#45;&gt;Node19</title>
<g id="a_edge25_Node000018_Node000019"><a xlink:title=" ">
<path fill="none" stroke="#63b8ff" d="M1293.84,-123.53C1309.12,-114.75 1328.46,-103.66 1345.12,-94.1"/>
<polygon fill="#63b8ff" stroke="#63b8ff" points="1346.84,-97.14 1353.77,-89.13 1343.35,-91.07 1346.84,-97.14"/>
</a>
</g>
</g>
<!-- Node22 -->
<g id="Node000022" class="node">
<title>Node22</title>
<g id="a_Node000022"><a xlink:title=" ">
<polygon fill="#e0e0e0" stroke="#999999" points="1277.25,-82 1122.5,-82 1122.5,-62 1277.25,-62 1277.25,-82"/>
<text text-anchor="middle" x="1199.88" y="-68.5" font-family="Arial" font-size="10.00">CombatComponent.generated.h</text>
</a>
</g>
</g>
<!-- Node18&#45;&gt;Node22 -->
<g id="edge29_Node000018_Node000022" class="edge">
<title>Node18&#45;&gt;Node22</title>
<g id="a_edge29_Node000018_Node000022"><a xlink:title=" ">
<path fill="none" stroke="#63b8ff" d="M1251.34,-123.69C1241.19,-113.7 1227.92,-100.63 1217.4,-90.26"/>
<polygon fill="#63b8ff" stroke="#63b8ff" points="1219.99,-87.9 1210.41,-83.38 1215.08,-92.89 1219.99,-87.9"/>
</a>
</g>
</g>
<!-- Node19&#45;&gt;Node3 -->
<g id="edge26_Node000019_Node000003" class="edge">
<title>Node19&#45;&gt;Node3</title>
<g id="a_edge26_Node000019_Node000003"><a xlink:title=" ">
<path fill="none" stroke="#63b8ff" d="M1333.2,-58.5C1328.38,-57.54 1323.55,-56.68 1318.88,-56 1024.96,-13.42 667.43,-10.18 536.78,-10.58"/>
<polygon fill="#63b8ff" stroke="#63b8ff" points="537.08,-7.08 527.09,-10.62 537.11,-14.08 537.08,-7.08"/>
</a>
</g>
</g>
<!-- Node20 -->
<g id="Node000020" class="node">
<title>Node20</title>
<g id="a_Node000020"><a xlink:title=" ">
<polygon fill="#e0e0e0" stroke="#999999" points="1375.25,-20 1250.5,-20 1250.5,0 1375.25,0 1375.25,-20"/>
<text text-anchor="middle" x="1312.88" y="-6.5" font-family="Arial" font-size="10.00">GameFramework/HUD.h</text>
</a>
</g>
</g>
<!-- Node19&#45;&gt;Node20 -->
<g id="edge27_Node000019_Node000020" class="edge">
<title>Node19&#45;&gt;Node20</title>
<g id="a_edge27_Node000019_Node000020"><a xlink:title=" ">
<path fill="none" stroke="#63b8ff" d="M1364.11,-55.55C1354.32,-47.04 1342.17,-36.48 1332.16,-27.77"/>
<polygon fill="#63b8ff" stroke="#63b8ff" points="1334.68,-25.32 1324.84,-21.4 1330.09,-30.6 1334.68,-25.32"/>
</a>
</g>
</g>
<!-- Node21 -->
<g id="Node000021" class="node">
<title>Node21</title>
<g id="a_Node000021"><a xlink:title=" ">
<polygon fill="#e0e0e0" stroke="#999999" points="1506.62,-20 1393.12,-20 1393.12,0 1506.62,0 1506.62,-20"/>
<text text-anchor="middle" x="1449.88" y="-6.5" font-family="Arial" font-size="10.00">MainHUD.generated.h</text>
</a>
</g>
</g>
<!-- Node19&#45;&gt;Node21 -->
<g id="edge28_Node000019_Node000021" class="edge">
<title>Node19&#45;&gt;Node21</title>
<g id="a_edge28_Node000019_Node000021"><a xlink:title=" ">
<path fill="none" stroke="#63b8ff" d="M1399.39,-55.55C1409.03,-47.04 1421,-36.48 1430.87,-27.77"/>
<polygon fill="#63b8ff" stroke="#63b8ff" points="1432.89,-30.65 1438.08,-21.41 1428.26,-25.4 1432.89,-30.65"/>
</a>
</g>
</g>
</g>
</svg>
