<?xml version="1.0" encoding="UTF-8" standalone="no"?>
<!DOCTYPE svg PUBLIC "-//W3C//DTD SVG 1.1//EN"
 "http://www.w3.org/Graphics/SVG/1.1/DTD/svg11.dtd">
<!-- Generated by graphviz version 12.2.1 (20241206.2353)
 -->
<!-- Title: MultiplayerShooter/Persistence/SettingsSaveGame.cpp Pages: 1 -->
<svg width="429pt" height="152pt"
 viewBox="0.00 0.00 428.88 152.00" xmlns="http://www.w3.org/2000/svg" xmlns:xlink="http://www.w3.org/1999/xlink">

<svg id="main" version="1.1" xmlns="http://www.w3.org/2000/svg" xmlns:xlink="http://www.w3.org/1999/xlink" xml:space="preserve">

<style type="text/css"><![CDATA[
.node, .edge {opacity: 0.7;}
.node.selected, .edge.selected {opacity: 1;}
.edge:hover path { stroke: red; }
.edge:hover polygon { stroke: red; fill: red; }
]]></style>
<script type="application/ecmascript" xlink:href="svg.min.js"/>
<svg id="graph" class="graph">
<g id="graph0" class="graph" transform="scale(1 1) rotate(0) translate(4 148)">
<title>MultiplayerShooter/Persistence/SettingsSaveGame.cpp</title>
<!-- Node1 -->
<g id="Node000001" class="node">
<title>Node1</title>
<g id="a_Node000001"><a xlink:title=" ">
<polygon fill="#999999" stroke="#666666" points="261.12,-144 83.88,-144 83.88,-112 261.12,-112 261.12,-144"/>
<text text-anchor="start" x="91.88" y="-130.5" font-family="Arial" font-size="10.00">MultiplayerShooter</text>
<text text-anchor="middle" x="172.5" y="-118.5" font-family="Arial" font-size="10.00">/Persistence/SettingsSaveGame.cpp</text>
</a>
</g>
</g>
<!-- Node2 -->
<g id="Node000002" class="node">
<title>Node2</title>
<g id="a_Node000002"><a xlink:href="_settings_save_game_8h.html" target="_top" xlink:title=" ">
<polygon fill="white" stroke="#666666" points="227,-76 118,-76 118,-56 227,-56 227,-76"/>
<text text-anchor="middle" x="172.5" y="-62.5" font-family="Arial" font-size="10.00">SettingsSaveGame.h</text>
</a>
</g>
</g>
<!-- Node1&#45;&gt;Node2 -->
<g id="edge1_Node000001_Node000002" class="edge">
<title>Node1&#45;&gt;Node2</title>
<g id="a_edge1_Node000001_Node000002"><a xlink:title=" ">
<path fill="none" stroke="#63b8ff" d="M172.5,-111.55C172.5,-104.34 172.5,-95.66 172.5,-87.88"/>
<polygon fill="#63b8ff" stroke="#63b8ff" points="176,-87.92 172.5,-77.92 169,-87.92 176,-87.92"/>
</a>
</g>
</g>
<!-- Node3 -->
<g id="Node000003" class="node">
<title>Node3</title>
<g id="a_Node000003"><a xlink:title=" ">
<polygon fill="#e0e0e0" stroke="#999999" points="79,-20 0,-20 0,0 79,0 79,-20"/>
<text text-anchor="middle" x="39.5" y="-6.5" font-family="Arial" font-size="10.00">CoreMinimal.h</text>
</a>
</g>
</g>
<!-- Node2&#45;&gt;Node3 -->
<g id="edge2_Node000002_Node000003" class="edge">
<title>Node2&#45;&gt;Node3</title>
<g id="a_edge2_Node000002_Node000003"><a xlink:title=" ">
<path fill="none" stroke="#63b8ff" d="M149.33,-55.59C128.29,-47.05 97,-34.35 73.2,-24.68"/>
<polygon fill="#63b8ff" stroke="#63b8ff" points="74.83,-21.57 64.25,-21.05 72.2,-28.05 74.83,-21.57"/>
</a>
</g>
</g>
<!-- Node4 -->
<g id="Node000004" class="node">
<title>Node4</title>
<g id="a_Node000004"><a xlink:title=" ">
<polygon fill="#e0e0e0" stroke="#999999" points="248,-20 97,-20 97,0 248,0 248,-20"/>
<text text-anchor="middle" x="172.5" y="-6.5" font-family="Arial" font-size="10.00">GameFramework/SaveGame.h</text>
</a>
</g>
</g>
<!-- Node2&#45;&gt;Node4 -->
<g id="edge3_Node000002_Node000004" class="edge">
<title>Node2&#45;&gt;Node4</title>
<g id="a_edge3_Node000002_Node000004"><a xlink:title=" ">
<path fill="none" stroke="#63b8ff" d="M172.5,-55.59C172.5,-49.01 172.5,-39.96 172.5,-31.73"/>
<polygon fill="#63b8ff" stroke="#63b8ff" points="176,-31.81 172.5,-21.81 169,-31.81 176,-31.81"/>
</a>
</g>
</g>
<!-- Node5 -->
<g id="Node000005" class="node">
<title>Node5</title>
<g id="a_Node000005"><a xlink:title=" ">
<polygon fill="#e0e0e0" stroke="#999999" points="420.88,-20 266.12,-20 266.12,0 420.88,0 420.88,-20"/>
<text text-anchor="middle" x="343.5" y="-6.5" font-family="Arial" font-size="10.00">SettingsSaveGame.generated.h</text>
</a>
</g>
</g>
<!-- Node2&#45;&gt;Node5 -->
<g id="edge4_Node000002_Node000005" class="edge">
<title>Node2&#45;&gt;Node5</title>
<g id="a_edge4_Node000002_Node000005"><a xlink:title=" ">
<path fill="none" stroke="#63b8ff" d="M202.29,-55.59C230.07,-46.82 271.75,-33.66 302.64,-23.9"/>
<polygon fill="#63b8ff" stroke="#63b8ff" points="303.56,-27.28 312.04,-20.94 301.45,-20.61 303.56,-27.28"/>
</a>
</g>
</g>
</g>
</svg>
</svg>

<style type='text/css'>
<![CDATA[
[data-mouse-over-selected='false'] { opacity: 0.7; }
[data-mouse-over-selected='true']  { opacity: 1.0; }
]]>
</style>
<script type="application/ecmascript"><![CDATA[
document.addEventListener('DOMContentLoaded', (event) => {
  highlightEdges();
  highlightAdjacentNodes();
});
]]></script>
</svg>
