<?xml version="1.0" encoding="UTF-8" standalone="no"?>
<!DOCTYPE svg PUBLIC "-//W3C//DTD SVG 1.1//EN"
 "http://www.w3.org/Graphics/SVG/1.1/DTD/svg11.dtd">
<!-- Generated by graphviz version 12.2.1 (20241206.2353)
 -->
<!-- Title: MultiplayerShooter/Persistence/SettingsSaveGame.h Pages: 1 -->
<svg width="664pt" height="120pt"
 viewBox="0.00 0.00 664.12 120.00" xmlns="http://www.w3.org/2000/svg" xmlns:xlink="http://www.w3.org/1999/xlink">
<g id="graph0" class="graph" transform="scale(1 1) rotate(0) translate(4 116)">
<title>MultiplayerShooter/Persistence/SettingsSaveGame.h</title>
<!-- Node1 -->
<g id="Node000001" class="node">
<title>Node1</title>
<g id="a_Node000001"><a xlink:title=" ">
<polygon fill="#999999" stroke="#666666" points="404,-112 237.25,-112 237.25,-80 404,-80 404,-112"/>
<text text-anchor="start" x="245.25" y="-98.5" font-family="Arial" font-size="10.00">MultiplayerShooter</text>
<text text-anchor="middle" x="320.62" y="-86.5" font-family="Arial" font-size="10.00">/Persistence/SettingsSaveGame.h</text>
</a>
</g>
</g>
<!-- Node2 -->
<g id="Node000002" class="node">
<title>Node2</title>
<g id="a_Node000002"><a xlink:href="_settings_menu_8cpp.html" target="_top" xlink:title=" ">
<polygon fill="white" stroke="#666666" points="123.25,-38 0,-38 0,-6 123.25,-6 123.25,-38"/>
<text text-anchor="start" x="8" y="-24.5" font-family="Arial" font-size="10.00">MultiplayerShooter</text>
<text text-anchor="middle" x="61.62" y="-12.5" font-family="Arial" font-size="10.00">/HUD/SettingsMenu.cpp</text>
</a>
</g>
</g>
<!-- Node1&#45;&gt;Node2 -->
<g id="edge1_Node000001_Node000002" class="edge">
<title>Node1&#45;&gt;Node2</title>
<g id="a_edge1_Node000001_Node000002"><a xlink:title=" ">
<path fill="none" stroke="#63b8ff" d="M251.75,-76.72C216.14,-67.16 171.99,-55.16 132.62,-44 126.32,-42.21 119.71,-40.3 113.16,-38.39"/>
<polygon fill="#63b8ff" stroke="#63b8ff" points="250.49,-80 261.06,-79.21 252.3,-73.24 250.49,-80"/>
</a>
</g>
</g>
<!-- Node3 -->
<g id="Node000003" class="node">
<title>Node3</title>
<g id="a_Node000003"><a xlink:href="_main_character_8cpp.html" target="_top" xlink:title=" ">
<polygon fill="white" stroke="#666666" points="309.75,-38 141.5,-38 141.5,-6 309.75,-6 309.75,-38"/>
<text text-anchor="start" x="149.5" y="-24.5" font-family="Arial" font-size="10.00">MultiplayerShooter</text>
<text text-anchor="middle" x="225.62" y="-12.5" font-family="Arial" font-size="10.00">/MainCharacter/MainCharacter.cpp</text>
</a>
</g>
</g>
<!-- Node1&#45;&gt;Node3 -->
<g id="edge2_Node000001_Node000003" class="edge">
<title>Node1&#45;&gt;Node3</title>
<g id="a_edge2_Node000001_Node000003"><a xlink:title=" ">
<path fill="none" stroke="#63b8ff" d="M291.31,-72.78C276.65,-61.67 259.27,-48.5 246.07,-38.5"/>
<polygon fill="#63b8ff" stroke="#63b8ff" points="289.19,-75.57 299.27,-78.82 293.42,-69.99 289.19,-75.57"/>
</a>
</g>
</g>
<!-- Node4 -->
<g id="Node000004" class="node">
<title>Node4</title>
<g id="a_Node000004"><a xlink:href="_settings_save_game_8cpp.html" target="_top" xlink:title=" ">
<polygon fill="white" stroke="#666666" points="505.25,-38 328,-38 328,-6 505.25,-6 505.25,-38"/>
<text text-anchor="start" x="336" y="-24.5" font-family="Arial" font-size="10.00">MultiplayerShooter</text>
<text text-anchor="middle" x="416.62" y="-12.5" font-family="Arial" font-size="10.00">/Persistence/SettingsSaveGame.cpp</text>
</a>
</g>
</g>
<!-- Node1&#45;&gt;Node4 -->
<g id="edge3_Node000001_Node000004" class="edge">
<title>Node1&#45;&gt;Node4</title>
<g id="a_edge3_Node000001_Node000004"><a xlink:title=" ">
<path fill="none" stroke="#63b8ff" d="M349.83,-73.1C364.73,-61.92 382.5,-48.59 395.96,-38.5"/>
<polygon fill="#63b8ff" stroke="#63b8ff" points="348.09,-70.02 342.19,-78.82 352.29,-75.62 348.09,-70.02"/>
</a>
</g>
</g>
<!-- Node5 -->
<g id="Node000005" class="node">
<title>Node5</title>
<g id="a_Node000005"><a xlink:href="_my_player_controller_8cpp.html" target="_top" xlink:title=" ">
<polygon fill="white" stroke="#666666" points="656.12,-44 523.12,-44 523.12,0 656.12,0 656.12,-44"/>
<text text-anchor="start" x="531.12" y="-30.5" font-family="Arial" font-size="10.00">MultiplayerShooter</text>
<text text-anchor="start" x="531.12" y="-18.5" font-family="Arial" font-size="10.00">/PlayerController/MyPlayer</text>
<text text-anchor="middle" x="589.62" y="-6.5" font-family="Arial" font-size="10.00">Controller.cpp</text>
</a>
</g>
</g>
<!-- Node1&#45;&gt;Node5 -->
<g id="edge4_Node000001_Node000005" class="edge">
<title>Node1&#45;&gt;Node5</title>
<g id="a_edge4_Node000001_Node000005"><a xlink:title=" ">
<path fill="none" stroke="#63b8ff" d="M391.66,-76.62C428.41,-67.03 473.96,-55.04 514.62,-44 517.37,-43.26 520.16,-42.49 522.98,-41.72"/>
<polygon fill="#63b8ff" stroke="#63b8ff" points="390.82,-73.22 382.02,-79.13 392.58,-79.99 390.82,-73.22"/>
</a>
</g>
</g>
</g>
</svg>
