<?xml version="1.0" encoding="UTF-8" standalone="no"?>
<!DOCTYPE svg PUBLIC "-//W3C//DTD SVG 1.1//EN"
 "http://www.w3.org/Graphics/SVG/1.1/DTD/svg11.dtd">
<!-- Generated by graphviz version 12.2.1 (20241206.2353)
 -->
<!-- Title: AMyPlayerController::ServerTryCheckMatchState Pages: 1 -->
<svg width="294pt" height="58pt"
 viewBox="0.00 0.00 293.50 58.00" xmlns="http://www.w3.org/2000/svg" xmlns:xlink="http://www.w3.org/1999/xlink">
<g id="graph0" class="graph" transform="scale(1 1) rotate(0) translate(4 54)">
<title>AMyPlayerController::ServerTryCheckMatchState</title>
<!-- Node1 -->
<g id="Node000001" class="node">
<title>Node1</title>
<g id="a_Node000001"><a xlink:title=" ">
<polygon fill="#999999" stroke="#666666" points="285.5,-32 142,-32 142,0 285.5,0 285.5,-32"/>
<text text-anchor="start" x="150" y="-18.5" font-family="Arial" font-size="10.00">AMyPlayerController</text>
<text text-anchor="middle" x="213.75" y="-6.5" font-family="Arial" font-size="10.00">::ServerTryCheckMatchState</text>
</a>
</g>
</g>
<!-- Node1&#45;&gt;Node1 -->
<g id="edge2_Node000001_Node000001" class="edge">
<title>Node1&#45;&gt;Node1</title>
<g id="a_edge2_Node000001_Node000001"><a xlink:title=" ">
<path fill="none" stroke="#63b8ff" d="M240.54,-43.71C236.07,-47.48 227.14,-50 213.75,-50 189.26,-50 179.69,-41.58 185.05,-32.44"/>
<polygon fill="#63b8ff" stroke="#63b8ff" points="243.97,-44.38 242.2,-33.93 237.07,-43.21 243.97,-44.38"/>
</a>
</g>
</g>
<!-- Node2 -->
<g id="Node000002" class="node">
<title>Node2</title>
<g id="a_Node000002"><a xlink:href="class_a_my_player_controller.html#abd8d1819b94d2770b53e575337358f68" target="_top" xlink:title=" ">
<polygon fill="white" stroke="#666666" points="106,-32 0,-32 0,0 106,0 106,-32"/>
<text text-anchor="start" x="8" y="-18.5" font-family="Arial" font-size="10.00">AMyPlayerController</text>
<text text-anchor="middle" x="53" y="-6.5" font-family="Arial" font-size="10.00">::BeginPlay</text>
</a>
</g>
</g>
<!-- Node1&#45;&gt;Node2 -->
<g id="edge1_Node000001_Node000002" class="edge">
<title>Node1&#45;&gt;Node2</title>
<g id="a_edge1_Node000001_Node000002"><a xlink:title=" ">
<path fill="none" stroke="#63b8ff" d="M130.27,-16C122.15,-16 114.08,-16 106.39,-16"/>
<polygon fill="#63b8ff" stroke="#63b8ff" points="130.22,-19.5 140.22,-16 130.22,-12.5 130.22,-19.5"/>
</a>
</g>
</g>
</g>
</svg>
