<?xml version="1.0" encoding="UTF-8" standalone="no"?>
<!DOCTYPE svg PUBLIC "-//W3C//DTD SVG 1.1//EN"
 "http://www.w3.org/Graphics/SVG/1.1/DTD/svg11.dtd">
<!-- Generated by graphviz version 12.2.1 (20241206.2353)
 -->
<!-- Title: AMainGameMode::RequestRespawn Pages: 1 -->
<svg width="1090pt" height="131pt"
 viewBox="0.00 0.00 1090.25 131.00" xmlns="http://www.w3.org/2000/svg" xmlns:xlink="http://www.w3.org/1999/xlink">
<g id="graph0" class="graph" transform="scale(1 1) rotate(0) translate(4 127)">
<title>AMainGameMode::RequestRespawn</title>
<!-- Node1 -->
<g id="Node000001" class="node">
<title>Node1</title>
<g id="a_Node000001"><a xlink:title=" ">
<polygon fill="#999999" stroke="#666666" points="1082.25,-48 904.25,-48 904.25,-28 1082.25,-28 1082.25,-48"/>
<text text-anchor="middle" x="993.25" y="-34.5" font-family="Arial" font-size="10.00">AMainGameMode::RequestRespawn</text>
</a>
</g>
</g>
<!-- Node2 -->
<g id="Node000002" class="node">
<title>Node2</title>
<g id="a_Node000002"><a xlink:href="class_a_main_character.html#aea17dde5a15443622f0bf918c57cce6f" target="_top" xlink:title=" ">
<polygon fill="white" stroke="#666666" points="868.25,-76 731.5,-76 731.5,-44 868.25,-44 868.25,-76"/>
<text text-anchor="start" x="739.5" y="-62.5" font-family="Arial" font-size="10.00">AMainCharacter::ElimTimer</text>
<text text-anchor="middle" x="799.88" y="-50.5" font-family="Arial" font-size="10.00">Finished</text>
</a>
</g>
</g>
<!-- Node1&#45;&gt;Node2 -->
<g id="edge1_Node000001_Node000002" class="edge">
<title>Node1&#45;&gt;Node2</title>
<g id="a_edge1_Node000001_Node000002"><a xlink:title=" ">
<path fill="none" stroke="#63b8ff" d="M892.44,-49.47C884.37,-50.4 876.34,-51.33 868.58,-52.22"/>
<polygon fill="#63b8ff" stroke="#63b8ff" points="892.81,-52.95 902.34,-48.34 892.01,-46 892.81,-52.95"/>
</a>
</g>
</g>
<!-- Node6 -->
<g id="Node000006" class="node">
<title>Node6</title>
<g id="a_Node000006"><a xlink:href="class_a_main_game_mode.html#a3673993b38825474635502e6aad2e05e" target="_top" xlink:title=" ">
<polygon fill="white" stroke="#666666" points="332,-32 178.75,-32 178.75,0 332,0 332,-32"/>
<text text-anchor="start" x="186.75" y="-18.5" font-family="Arial" font-size="10.00">AMainGameMode::FMainGame</text>
<text text-anchor="middle" x="255.38" y="-6.5" font-family="Arial" font-size="10.00">ModeBeginPlayTest</text>
</a>
</g>
</g>
<!-- Node1&#45;&gt;Node6 -->
<g id="edge10_Node000001_Node000006" class="edge">
<title>Node1&#45;&gt;Node6</title>
<g id="a_edge10_Node000001_Node000006"><a xlink:title=" ">
<path fill="none" stroke="#63b8ff" d="M892.48,-35.02C743.52,-30.56 466.24,-22.27 332.46,-18.27"/>
<polygon fill="#63b8ff" stroke="#63b8ff" points="892.24,-38.51 902.34,-35.31 892.45,-31.51 892.24,-38.51"/>
</a>
</g>
</g>
<!-- Node3 -->
<g id="Node000003" class="node">
<title>Node3</title>
<g id="a_Node000003"><a xlink:href="class_a_main_character.html#a9d0b7a05e0580099815730100ad9bfb6" target="_top" xlink:title="Elimination.">
<polygon fill="white" stroke="#666666" points="695.5,-70 583.5,-70 583.5,-50 695.5,-50 695.5,-70"/>
<text text-anchor="middle" x="639.5" y="-56.5" font-family="Arial" font-size="10.00">AMainCharacter::Elim</text>
</a>
</g>
</g>
<!-- Node2&#45;&gt;Node3 -->
<g id="edge2_Node000002_Node000003" class="edge">
<title>Node2&#45;&gt;Node3</title>
<g id="a_edge2_Node000002_Node000003"><a xlink:title=" ">
<path fill="none" stroke="#63b8ff" d="M719.87,-60C711.79,-60 703.71,-60 695.96,-60"/>
<polygon fill="#63b8ff" stroke="#63b8ff" points="719.74,-63.5 729.74,-60 719.74,-56.5 719.74,-63.5"/>
</a>
</g>
</g>
<!-- Node4 -->
<g id="Node000004" class="node">
<title>Node4</title>
<g id="a_Node000004"><a xlink:href="class_a_main_character.html#a501bd7ba0eb90bf0c1da39ec8496f6e0" target="_top" xlink:title=" ">
<polygon fill="white" stroke="#666666" points="535.12,-105 386.38,-105 386.38,-85 535.12,-85 535.12,-105"/>
<text text-anchor="middle" x="460.75" y="-91.5" font-family="Arial" font-size="10.00">AMainCharacter::MulticastFire</text>
</a>
</g>
</g>
<!-- Node3&#45;&gt;Node4 -->
<g id="edge3_Node000003_Node000004" class="edge">
<title>Node3&#45;&gt;Node4</title>
<g id="a_edge3_Node000003_Node000004"><a xlink:title=" ">
<path fill="none" stroke="#63b8ff" d="M574.89,-72.6C555.16,-76.5 533.64,-80.77 514.71,-84.51"/>
<polygon fill="#63b8ff" stroke="#63b8ff" points="575.33,-76.08 584.46,-70.7 573.97,-69.21 575.33,-76.08"/>
</a>
</g>
</g>
<!-- Node5 -->
<g id="Node000005" class="node">
<title>Node5</title>
<g id="a_Node000005"><a xlink:href="class_a_main_game_mode.html#a67e1cb2f93133f0c044f3f0ed73c970c" target="_top" xlink:title=" ">
<polygon fill="white" stroke="#666666" points="547.5,-67 374,-67 374,-47 547.5,-47 547.5,-67"/>
<text text-anchor="middle" x="460.75" y="-53.5" font-family="Arial" font-size="10.00">AMainGameMode::PlayerEliminated</text>
</a>
</g>
</g>
<!-- Node3&#45;&gt;Node5 -->
<g id="edge5_Node000003_Node000005" class="edge">
<title>Node3&#45;&gt;Node5</title>
<g id="a_edge5_Node000003_Node000005"><a xlink:title=" ">
<path fill="none" stroke="#63b8ff" d="M571.76,-58.87C563.91,-58.73 555.82,-58.6 547.75,-58.46"/>
<polygon fill="#63b8ff" stroke="#63b8ff" points="571.49,-62.36 581.55,-59.03 571.61,-55.36 571.49,-62.36"/>
</a>
</g>
</g>
<!-- Node4&#45;&gt;Node4 -->
<g id="edge4_Node000004_Node000004" class="edge">
<title>Node4&#45;&gt;Node4</title>
<g id="a_edge4_Node000004_Node000004"><a xlink:title=" ">
<path fill="none" stroke="#63b8ff" d="M492.68,-116.11C488.87,-120.14 478.23,-123 460.75,-123 429.68,-123 420.21,-113.98 432.35,-105.34"/>
<polygon fill="#63b8ff" stroke="#63b8ff" points="496.06,-115.19 489.62,-106.78 489.41,-117.37 496.06,-115.19"/>
</a>
</g>
</g>
<!-- Node5&#45;&gt;Node6 -->
<g id="edge6_Node000005_Node000006" class="edge">
<title>Node5&#45;&gt;Node6</title>
<g id="a_edge6_Node000005_Node000006"><a xlink:title=" ">
<path fill="none" stroke="#63b8ff" d="M396.84,-44.32C376.43,-40.2 353.57,-35.59 332.32,-31.31"/>
<polygon fill="#63b8ff" stroke="#63b8ff" points="395.93,-47.7 406.42,-46.25 397.31,-40.84 395.93,-47.7"/>
</a>
</g>
</g>
<!-- Node7 -->
<g id="Node000007" class="node">
<title>Node7</title>
<g id="a_Node000007"><a xlink:href="class_a_main_character.html#a33d3267c0046be93c39178a2ed3944b3" target="_top" xlink:title=" ">
<polygon fill="white" stroke="#666666" points="338,-88 172.75,-88 172.75,-68 338,-68 338,-88"/>
<text text-anchor="middle" x="255.38" y="-74.5" font-family="Arial" font-size="10.00">AMainCharacter::ReceiveDamage</text>
</a>
</g>
</g>
<!-- Node5&#45;&gt;Node7 -->
<g id="edge8_Node000005_Node000007" class="edge">
<title>Node5&#45;&gt;Node7</title>
<g id="a_edge8_Node000005_Node000007"><a xlink:title=" ">
<path fill="none" stroke="#63b8ff" d="M362.2,-67.07C354.18,-67.9 346.12,-68.73 338.23,-69.55"/>
<polygon fill="#63b8ff" stroke="#63b8ff" points="362.41,-70.57 372,-66.06 361.69,-63.61 362.41,-70.57"/>
</a>
</g>
</g>
<!-- Node6&#45;&gt;Node6 -->
<g id="edge7_Node000006_Node000006" class="edge">
<title>Node6&#45;&gt;Node6</title>
<g id="a_edge7_Node000006_Node000006"><a xlink:title=" ">
<path fill="none" stroke="#63b8ff" d="M286.54,-43.71C281.34,-47.48 270.95,-50 255.38,-50 226.89,-50 215.76,-41.58 221.99,-32.44"/>
<polygon fill="#63b8ff" stroke="#63b8ff" points="289.97,-44.42 288.47,-33.93 283.1,-43.06 289.97,-44.42"/>
</a>
</g>
</g>
<!-- Node8 -->
<g id="Node000008" class="node">
<title>Node8</title>
<g id="a_Node000008"><a xlink:href="class_a_main_character.html#a096ef46022cd84777b571482729ed02f" target="_top" xlink:title=" ">
<polygon fill="white" stroke="#666666" points="136.75,-88 0,-88 0,-68 136.75,-68 136.75,-88"/>
<text text-anchor="middle" x="68.38" y="-74.5" font-family="Arial" font-size="10.00">AMainCharacter::BeginPlay</text>
</a>
</g>
</g>
<!-- Node7&#45;&gt;Node8 -->
<g id="edge9_Node000007_Node000008" class="edge">
<title>Node7&#45;&gt;Node8</title>
<g id="a_edge9_Node000007_Node000008"><a xlink:title=" ">
<path fill="none" stroke="#63b8ff" d="M161.05,-78C152.99,-78 144.93,-78 137.13,-78"/>
<polygon fill="#63b8ff" stroke="#63b8ff" points="160.91,-81.5 170.91,-78 160.91,-74.5 160.91,-81.5"/>
</a>
</g>
</g>
</g>
</svg>
