<?xml version="1.0" encoding="UTF-8" standalone="no"?>
<!DOCTYPE svg PUBLIC "-//W3C//DTD SVG 1.1//EN"
 "http://www.w3.org/Graphics/SVG/1.1/DTD/svg11.dtd">
<!-- Generated by graphviz version 12.2.1 (20241206.2353)
 -->
<!-- Title: AMyPlayerController Pages: 1 -->
<!--zoomable 900 -->

<svg id="main" version="1.1" xmlns="http://www.w3.org/2000/svg" xmlns:xlink="http://www.w3.org/1999/xlink" xml:space="preserve" onload="init(evt)">

<style type="text/css"><![CDATA[
.node, .edge {opacity: 0.7;}
.node.selected, .edge.selected {opacity: 1;}
.edge:hover path { stroke: red; }
.edge:hover polygon { stroke: red; fill: red; }
]]></style>

<defs>
  <circle id="rim" cx="0" cy="0" r="7"/>
  <circle id="rim2" cx="0" cy="0" r="3.5"/>
  <g id="zoomPlus">
    <use xlink:href="#rim" fill="#404040"><set attributeName="fill" to="#808080" begin="zoomplus.mouseover" end="zoomplus.mouseout"/></use>
    <path d="M-4,0h8M0,-4v8" fill="none" stroke="white" stroke-width="1.5" pointer-events="none"/>
  </g>
  <g id="zoomMin">
    <use xlink:href="#rim" fill="#404040"><set attributeName="fill" to="#808080" begin="zoomminus.mouseover" end="zoomminus.mouseout"/></use>
    <path d="M-4,0h8" fill="none" stroke="white" stroke-width="1.5" pointer-events="none"/>
  </g>
  <g id="arrowUp" transform="translate(30 24)">
    <use xlink:href="#rim"/>
    <path pointer-events="none" fill="none" stroke="white" stroke-width="1.5" d="M0,-3.0v7 M-2.5,-0.5L0,-3.0L2.5,-0.5"/>
  </g>
  <g id="arrowRight" transform="rotate(90) translate(36 -43)">
    <use xlink:href="#rim"/>
    <path pointer-events="none" fill="none" stroke="white" stroke-width="1.5" d="M0,-3.0v7 M-2.5,-0.5L0,-3.0L2.5,-0.5"/>
  </g>
  <g id="arrowDown" transform="rotate(180) translate(-30 -48)">
    <use xlink:href="#rim"/>
    <path pointer-events="none" fill="none" stroke="white" stroke-width="1.5" d="M0,-3.0v7 M-2.5,-0.5L0,-3.0L2.5,-0.5"/>
  </g>
  <g id="arrowLeft" transform="rotate(270) translate(-36 17)">
    <use xlink:href="#rim"/>
    <path pointer-events="none" fill="none" stroke="white" stroke-width="1.5" d="M0,-3.0v7 M-2.5,-0.5L0,-3.0L2.5,-0.5"/>
  </g>
  <g id="resetDef">
    <use xlink:href="#rim2" fill="#404040"><set attributeName="fill" to="#808080" begin="reset.mouseover" end="reset.mouseout"/></use>
  </g>
</defs>
<script type="application/ecmascript">
var viewWidth = 184;
var viewHeight = 900;
var sectionId = 'dynsection-0';
</script>
<script type="application/ecmascript" xlink:href="svg.min.js"/>
<svg id="graph" class="graph">
<g id="viewport">
<title>AMyPlayerController</title>
<!-- Node1 -->
<g id="Node000001" class="node">
<title>Node1</title>
<g id="a_Node000001"><a xlink:title=" ">
<polygon fill="#999999" stroke="none" points="176.25,-804 0,-804 0,0 176.25,0 176.25,-804"/>
<text text-anchor="start" x="43.12" y="-790.5" font-family="Arial" font-size="10.00">AMyPlayerController</text>
<text text-anchor="start" x="4" y="-774.5" font-family="Arial" font-size="10.00">+</text>
<text text-anchor="start" x="14" y="-774.5" font-family="Arial" font-size="10.00">SingleTripTime</text>
<text text-anchor="start" x="4" y="-758.5" font-family="Arial" font-size="10.00">+</text>
<text text-anchor="start" x="14" y="-758.5" font-family="Arial" font-size="10.00">HighPingDelegate</text>
<text text-anchor="start" x="4" y="-742.5" font-family="Arial" font-size="10.00">+</text>
<text text-anchor="start" x="14" y="-742.5" font-family="Arial" font-size="10.00">MainHUD</text>
<text text-anchor="start" x="4" y="-726.5" font-family="Arial" font-size="10.00">+</text>
<text text-anchor="start" x="14" y="-726.5" font-family="Arial" font-size="10.00">MyMix</text>
<text text-anchor="start" x="4" y="-710.5" font-family="Arial" font-size="10.00">+</text>
<text text-anchor="start" x="14" y="-710.5" font-family="Arial" font-size="10.00">SFXClass</text>
<text text-anchor="start" x="4" y="-694.5" font-family="Arial" font-size="10.00">+</text>
<text text-anchor="start" x="14" y="-694.5" font-family="Arial" font-size="10.00">BackgroundMusicClass</text>
<text text-anchor="start" x="4" y="-678.5" font-family="Arial" font-size="10.00">+</text>
<text text-anchor="start" x="14" y="-678.5" font-family="Arial" font-size="10.00">SaveGameObject</text>
<text text-anchor="start" x="4" y="-662.5" font-family="Arial" font-size="10.00">+</text>
<text text-anchor="start" x="14" y="-662.5" font-family="Arial" font-size="10.00">BackgroundMusic</text>
<text text-anchor="start" x="4" y="-646.5" font-family="Arial" font-size="10.00">+</text>
<text text-anchor="start" x="14" y="-646.5" font-family="Arial" font-size="10.00">MusicAudioComponent</text>
<text text-anchor="start" x="4.38" y="-630.5" font-family="Arial" font-size="10.00">#</text>
<text text-anchor="start" x="14" y="-630.5" font-family="Arial" font-size="10.00">ClientServerDelta</text>
<text text-anchor="start" x="4.38" y="-614.5" font-family="Arial" font-size="10.00">#</text>
<text text-anchor="start" x="14" y="-614.5" font-family="Arial" font-size="10.00">TimeSyncFrequency</text>
<text text-anchor="start" x="4.38" y="-598.5" font-family="Arial" font-size="10.00">#</text>
<text text-anchor="start" x="14" y="-598.5" font-family="Arial" font-size="10.00">TimeSyncRunningTime</text>
<text text-anchor="start" x="5.5" y="-582.5" font-family="Arial" font-size="10.00">&#45;</text>
<text text-anchor="start" x="14" y="-582.5" font-family="Arial" font-size="10.00">SettingsMenuIsOpen</text>
<text text-anchor="start" x="5.5" y="-566.5" font-family="Arial" font-size="10.00">&#45;</text>
<text text-anchor="start" x="14" y="-566.5" font-family="Arial" font-size="10.00">LevelStartingTime</text>
<text text-anchor="start" x="5.5" y="-550.5" font-family="Arial" font-size="10.00">&#45;</text>
<text text-anchor="start" x="14" y="-550.5" font-family="Arial" font-size="10.00">MatchTime</text>
<text text-anchor="start" x="5.5" y="-534.5" font-family="Arial" font-size="10.00">&#45;</text>
<text text-anchor="start" x="14" y="-534.5" font-family="Arial" font-size="10.00">WarmupTime</text>
<text text-anchor="start" x="5.5" y="-518.5" font-family="Arial" font-size="10.00">&#45;</text>
<text text-anchor="start" x="14" y="-518.5" font-family="Arial" font-size="10.00">CooldownTime</text>
<text text-anchor="start" x="5.5" y="-502.5" font-family="Arial" font-size="10.00">&#45;</text>
<text text-anchor="start" x="14" y="-502.5" font-family="Arial" font-size="10.00">CountdownInt</text>
<text text-anchor="start" x="5.5" y="-486.5" font-family="Arial" font-size="10.00">&#45;</text>
<text text-anchor="start" x="14" y="-486.5" font-family="Arial" font-size="10.00">MatchState</text>
<text text-anchor="start" x="5.5" y="-470.5" font-family="Arial" font-size="10.00">&#45;</text>
<text text-anchor="start" x="14" y="-470.5" font-family="Arial" font-size="10.00">CharacterOverlay</text>
<text text-anchor="start" x="5.5" y="-454.5" font-family="Arial" font-size="10.00">&#45;</text>
<text text-anchor="start" x="14" y="-454.5" font-family="Arial" font-size="10.00">bInitializeCharacterOverlay</text>
<text text-anchor="start" x="5.5" y="-438.5" font-family="Arial" font-size="10.00">&#45;</text>
<text text-anchor="start" x="14" y="-438.5" font-family="Arial" font-size="10.00">HUDHealth</text>
<text text-anchor="start" x="14" y="-422.5" font-family="Arial" font-size="10.00">and 7 more...</text>
<text text-anchor="start" x="4" y="-406.5" font-family="Arial" font-size="10.00">+</text>
<text text-anchor="start" x="14" y="-406.5" font-family="Arial" font-size="10.00">SetHUDHealth()</text>
<text text-anchor="start" x="4" y="-390.5" font-family="Arial" font-size="10.00">+</text>
<text text-anchor="start" x="14" y="-390.5" font-family="Arial" font-size="10.00">SetHUDScore()</text>
<text text-anchor="start" x="4" y="-374.5" font-family="Arial" font-size="10.00">+</text>
<text text-anchor="start" x="14" y="-374.5" font-family="Arial" font-size="10.00">SetHUDWeaponAmmo()</text>
<text text-anchor="start" x="4" y="-358.5" font-family="Arial" font-size="10.00">+</text>
<text text-anchor="start" x="14" y="-358.5" font-family="Arial" font-size="10.00">SetHUDMatchCountdown()</text>
<text text-anchor="start" x="4" y="-342.5" font-family="Arial" font-size="10.00">+</text>
<text text-anchor="start" x="14" y="-342.5" font-family="Arial" font-size="10.00">SetHUDAnnouncementCountdown()</text>
<text text-anchor="start" x="4" y="-326.5" font-family="Arial" font-size="10.00">+</text>
<text text-anchor="start" x="14" y="-326.5" font-family="Arial" font-size="10.00">HandleMatchHasStarted()</text>
<text text-anchor="start" x="4" y="-310.5" font-family="Arial" font-size="10.00">+</text>
<text text-anchor="start" x="14" y="-310.5" font-family="Arial" font-size="10.00">Tick()</text>
<text text-anchor="start" x="4" y="-294.5" font-family="Arial" font-size="10.00">+</text>
<text text-anchor="start" x="14" y="-294.5" font-family="Arial" font-size="10.00">GetLifetimeReplicatedProps()</text>
<text text-anchor="start" x="4" y="-278.5" font-family="Arial" font-size="10.00">+</text>
<text text-anchor="start" x="14" y="-278.5" font-family="Arial" font-size="10.00">GetServerTime()</text>
<text text-anchor="start" x="4" y="-262.5" font-family="Arial" font-size="10.00">+</text>
<text text-anchor="start" x="14" y="-262.5" font-family="Arial" font-size="10.00">ReceivedPlayer()</text>
<text text-anchor="start" x="14" y="-246.5" font-family="Arial" font-size="10.00">and 13 more...</text>
<text text-anchor="start" x="4.38" y="-230.5" font-family="Arial" font-size="10.00">#</text>
<text text-anchor="start" x="14" y="-230.5" font-family="Arial" font-size="10.00">BeginPlay()</text>
<text text-anchor="start" x="4.38" y="-214.5" font-family="Arial" font-size="10.00">#</text>
<text text-anchor="start" x="14" y="-214.5" font-family="Arial" font-size="10.00">OnPossess()</text>
<text text-anchor="start" x="4.38" y="-198.5" font-family="Arial" font-size="10.00">#</text>
<text text-anchor="start" x="14" y="-198.5" font-family="Arial" font-size="10.00">SetHUDTime()</text>
<text text-anchor="start" x="4.38" y="-182.5" font-family="Arial" font-size="10.00">#</text>
<text text-anchor="start" x="14" y="-182.5" font-family="Arial" font-size="10.00">PollInit()</text>
<text text-anchor="start" x="4.38" y="-166.5" font-family="Arial" font-size="10.00">#</text>
<text text-anchor="start" x="14" y="-166.5" font-family="Arial" font-size="10.00">ServerRequestServerTime()</text>
<text text-anchor="start" x="4.38" y="-150.5" font-family="Arial" font-size="10.00">#</text>
<text text-anchor="start" x="14" y="-150.5" font-family="Arial" font-size="10.00">ClientReportServerTime()</text>
<text text-anchor="start" x="4.38" y="-134.5" font-family="Arial" font-size="10.00">#</text>
<text text-anchor="start" x="14" y="-134.5" font-family="Arial" font-size="10.00">CheckTimeSync()</text>
<text text-anchor="start" x="4.38" y="-118.5" font-family="Arial" font-size="10.00">#</text>
<text text-anchor="start" x="14" y="-118.5" font-family="Arial" font-size="10.00">ServerCheckMatchState()</text>
<text text-anchor="start" x="4.38" y="-102.5" font-family="Arial" font-size="10.00">#</text>
<text text-anchor="start" x="14" y="-102.5" font-family="Arial" font-size="10.00">ClientJoinMidgame()</text>
<text text-anchor="start" x="4.38" y="-86.5" font-family="Arial" font-size="10.00">#</text>
<text text-anchor="start" x="14" y="-86.5" font-family="Arial" font-size="10.00">HighPingWarning()</text>
<text text-anchor="start" x="4.38" y="-70.5" font-family="Arial" font-size="10.00">#</text>
<text text-anchor="start" x="14" y="-70.5" font-family="Arial" font-size="10.00">StopHighPingWarning()</text>
<text text-anchor="start" x="4.38" y="-54.5" font-family="Arial" font-size="10.00">#</text>
<text text-anchor="start" x="14" y="-54.5" font-family="Arial" font-size="10.00">CheckPing()</text>
<text text-anchor="start" x="5.5" y="-38.5" font-family="Arial" font-size="10.00">&#45;</text>
<text text-anchor="start" x="14" y="-38.5" font-family="Arial" font-size="10.00">ServerTryCheckMatchState()</text>
<text text-anchor="start" x="5.5" y="-22.5" font-family="Arial" font-size="10.00">&#45;</text>
<text text-anchor="start" x="14" y="-22.5" font-family="Arial" font-size="10.00">OnRep_MatchState()</text>
<text text-anchor="start" x="5.5" y="-6.5" font-family="Arial" font-size="10.00">&#45;</text>
<text text-anchor="start" x="14" y="-6.5" font-family="Arial" font-size="10.00">ServerReportPingStatus()</text>
<polygon fill="#666666" stroke="#666666" points="0,-786 0,-786 176.25,-786 176.25,-786 0,-786"/>
<polygon fill="#666666" stroke="#666666" points="0,-418 0,-418 12,-418 12,-418 0,-418"/>
<polygon fill="#666666" stroke="#666666" points="12,-418 12,-418 176.25,-418 176.25,-418 12,-418"/>
<polygon fill="none" stroke="#666666" points="0,0 0,-804 176.25,-804 176.25,0 0,0"/>
</a>
</g>
</g>
<!-- Node2 -->
<g id="Node000002" class="node">
<title>Node2</title>
<g id="a_Node000002"><a xlink:title=" ">
<polygon fill="white" stroke="none" points="130.38,-892 45.88,-892 45.88,-840 130.38,-840 130.38,-892"/>
<text text-anchor="start" x="49.88" y="-878.5" font-family="Arial" font-size="10.00">APlayerController</text>
<text text-anchor="start" x="86.62" y="-862.5" font-family="Arial" font-size="10.00"> </text>
<text text-anchor="start" x="86.62" y="-846.5" font-family="Arial" font-size="10.00"> </text>
<polygon fill="#666666" stroke="#666666" points="45.88,-874 45.88,-874 130.38,-874 130.38,-874 45.88,-874"/>
<polygon fill="#666666" stroke="#666666" points="45.88,-858 45.88,-858 130.38,-858 130.38,-858 45.88,-858"/>
<polygon fill="none" stroke="#666666" points="45.88,-840 45.88,-892 130.38,-892 130.38,-840 45.88,-840"/>
</a>
</g>
</g>
<!-- Node2&#45;&gt;Node1 -->
<g id="edge1_Node000001_Node000002" class="edge">
<title>Node2&#45;&gt;Node1</title>
<g id="a_edge1_Node000001_Node000002"><a xlink:title=" ">
<path fill="none" stroke="#63b8ff" d="M88.12,-828.7C88.12,-821.34 88.12,-813.04 88.12,-803.95"/>
<polygon fill="none" stroke="#63b8ff" points="84.63,-828.65 88.13,-838.65 91.63,-828.65 84.63,-828.65"/>
</a>
</g>
</g>
</g>
</svg>

<g id="navigator" transform="translate(0 0)" fill="#404254">
  <rect fill="#f2f5e9" fill-opacity="0.5" stroke="#606060" stroke-width=".5" x="0" y="0" width="60" height="60"/>
  <use id="zoomplus" xlink:href="#zoomPlus" x="17" y="9" onmousedown="handleZoom(evt,'in')"/>
  <use id="zoomminus" xlink:href="#zoomMin" x="42" y="9" onmousedown="handleZoom(evt,'out')"/>
  <use id="reset" xlink:href="#resetDef" x="30" y="36" onmousedown="handleReset()"/>
   <use id="arrowup" xlink:href="#arrowUp" x="0" y="0" onmousedown="handlePan(0,-1)"/>
  <use id="arrowright" xlink:href="#arrowRight" x="0" y="0" onmousedown="handlePan(1,0)"/>
  <use id="arrowdown" xlink:href="#arrowDown" x="0" y="0" onmousedown="handlePan(0,1)"/>
  <use id="arrowleft" xlink:href="#arrowLeft" x="0" y="0" onmousedown="handlePan(-1,0)"/>
</g>
<svg viewBox="0 0 15 15" width="100%" height="30px" preserveAspectRatio="xMaxYMin meet">
 <g id="arrow_out" transform="scale(0.3 0.3)">
  <a xlink:href="class_a_my_player_controller__inherit__graph_org.svg" target="_base">
   <rect id="button" ry="5" rx="5" y="6" x="6" height="38" width="38"
        fill="#f2f5e9" fill-opacity="0.5" stroke="#606060" stroke-width="1.0"/>
   <path id="arrow"
     d="M 11.500037,31.436501 C 11.940474,20.09759 22.043105,11.32322 32.158766,21.979434 L 37.068811,17.246167 C 37.068811,17.246167 37.088388,32 37.088388,32 L 22.160133,31.978069 C 22.160133,31.978069 26.997745,27.140456 26.997745,27.140456 C 18.528582,18.264221 13.291696,25.230495 11.500037,31.436501 z"
     style="fill:#404040;"/>
  </a>
 </g>
</svg>

<style type='text/css'>
<![CDATA[
[data-mouse-over-selected='false'] { opacity: 0.7; }
[data-mouse-over-selected='true']  { opacity: 1.0; }
]]>
</style>
<script type="application/ecmascript"><![CDATA[
document.addEventListener('DOMContentLoaded', (event) => {
  highlightEdges();
  highlightAdjacentNodes();
});
]]></script>
</svg>
