<?xml version="1.0" encoding="UTF-8" standalone="no"?>
<!DOCTYPE svg PUBLIC "-//W3C//DTD SVG 1.1//EN"
 "http://www.w3.org/Graphics/SVG/1.1/DTD/svg11.dtd">
<!-- Generated by graphviz version 12.2.1 (20241206.2353)
 -->
<!-- Title: AMainGameState::UpdateTopScore Pages: 1 -->
<svg width="738pt" height="96pt"
 viewBox="0.00 0.00 738.00 96.00" xmlns="http://www.w3.org/2000/svg" xmlns:xlink="http://www.w3.org/1999/xlink">
<g id="graph0" class="graph" transform="scale(1 1) rotate(0) translate(4 92)">
<title>AMainGameState::UpdateTopScore</title>
<!-- Node1 -->
<g id="Node000001" class="node">
<title>Node1</title>
<g id="a_Node000001"><a xlink:title=" ">
<polygon fill="#999999" stroke="#666666" points="730,-48 583.5,-48 583.5,-16 730,-16 730,-48"/>
<text text-anchor="start" x="591.5" y="-34.5" font-family="Arial" font-size="10.00">AMainGameState::UpdateTop</text>
<text text-anchor="middle" x="656.75" y="-22.5" font-family="Arial" font-size="10.00">Score</text>
</a>
</g>
</g>
<!-- Node2 -->
<g id="Node000002" class="node">
<title>Node2</title>
<g id="a_Node000002"><a xlink:href="class_a_main_game_mode.html#a67e1cb2f93133f0c044f3f0ed73c970c" target="_top" xlink:title=" ">
<polygon fill="white" stroke="#666666" points="547.5,-42 374,-42 374,-22 547.5,-22 547.5,-42"/>
<text text-anchor="middle" x="460.75" y="-28.5" font-family="Arial" font-size="10.00">AMainGameMode::PlayerEliminated</text>
</a>
</g>
</g>
<!-- Node1&#45;&gt;Node2 -->
<g id="edge1_Node000001_Node000002" class="edge">
<title>Node1&#45;&gt;Node2</title>
<g id="a_edge1_Node000001_Node000002"><a xlink:title=" ">
<path fill="none" stroke="#63b8ff" d="M571.77,-32C563.86,-32 555.84,-32 547.92,-32"/>
<polygon fill="#63b8ff" stroke="#63b8ff" points="571.72,-35.5 581.72,-32 571.72,-28.5 571.72,-35.5"/>
</a>
</g>
</g>
<!-- Node3 -->
<g id="Node000003" class="node">
<title>Node3</title>
<g id="a_Node000003"><a xlink:href="class_a_main_game_mode.html#a3673993b38825474635502e6aad2e05e" target="_top" xlink:title=" ">
<polygon fill="white" stroke="#666666" points="332,-70 178.75,-70 178.75,-38 332,-38 332,-70"/>
<text text-anchor="start" x="186.75" y="-56.5" font-family="Arial" font-size="10.00">AMainGameMode::FMainGame</text>
<text text-anchor="middle" x="255.38" y="-44.5" font-family="Arial" font-size="10.00">ModeBeginPlayTest</text>
</a>
</g>
</g>
<!-- Node2&#45;&gt;Node3 -->
<g id="edge2_Node000002_Node000003" class="edge">
<title>Node2&#45;&gt;Node3</title>
<g id="a_edge2_Node000002_Node000003"><a xlink:title=" ">
<path fill="none" stroke="#63b8ff" d="M362.25,-42.55C352.24,-43.63 342.18,-44.72 332.45,-45.77"/>
<polygon fill="#63b8ff" stroke="#63b8ff" points="362.43,-46.05 372,-41.49 361.68,-39.09 362.43,-46.05"/>
</a>
</g>
</g>
<!-- Node4 -->
<g id="Node000004" class="node">
<title>Node4</title>
<g id="a_Node000004"><a xlink:href="class_a_main_character.html#a33d3267c0046be93c39178a2ed3944b3" target="_top" xlink:title=" ">
<polygon fill="white" stroke="#666666" points="338,-20 172.75,-20 172.75,0 338,0 338,-20"/>
<text text-anchor="middle" x="255.38" y="-6.5" font-family="Arial" font-size="10.00">AMainCharacter::ReceiveDamage</text>
</a>
</g>
</g>
<!-- Node2&#45;&gt;Node4 -->
<g id="edge4_Node000002_Node000004" class="edge">
<title>Node2&#45;&gt;Node4</title>
<g id="a_edge4_Node000002_Node000004"><a xlink:title=" ">
<path fill="none" stroke="#63b8ff" d="M362.2,-21.45C354.18,-20.58 346.12,-19.71 338.23,-18.85"/>
<polygon fill="#63b8ff" stroke="#63b8ff" points="361.68,-24.91 372,-22.51 362.43,-17.95 361.68,-24.91"/>
</a>
</g>
</g>
<!-- Node3&#45;&gt;Node3 -->
<g id="edge3_Node000003_Node000003" class="edge">
<title>Node3&#45;&gt;Node3</title>
<g id="a_edge3_Node000003_Node000003"><a xlink:title=" ">
<path fill="none" stroke="#63b8ff" d="M286.54,-81.71C281.34,-85.48 270.95,-88 255.38,-88 226.89,-88 215.76,-79.58 221.99,-70.44"/>
<polygon fill="#63b8ff" stroke="#63b8ff" points="289.97,-82.42 288.47,-71.93 283.1,-81.06 289.97,-82.42"/>
</a>
</g>
</g>
<!-- Node5 -->
<g id="Node000005" class="node">
<title>Node5</title>
<g id="a_Node000005"><a xlink:href="class_a_main_character.html#a096ef46022cd84777b571482729ed02f" target="_top" xlink:title=" ">
<polygon fill="white" stroke="#666666" points="136.75,-20 0,-20 0,0 136.75,0 136.75,-20"/>
<text text-anchor="middle" x="68.38" y="-6.5" font-family="Arial" font-size="10.00">AMainCharacter::BeginPlay</text>
</a>
</g>
</g>
<!-- Node4&#45;&gt;Node5 -->
<g id="edge5_Node000004_Node000005" class="edge">
<title>Node4&#45;&gt;Node5</title>
<g id="a_edge5_Node000004_Node000005"><a xlink:title=" ">
<path fill="none" stroke="#63b8ff" d="M161.05,-10C152.99,-10 144.93,-10 137.13,-10"/>
<polygon fill="#63b8ff" stroke="#63b8ff" points="160.91,-13.5 170.91,-10 160.91,-6.5 160.91,-13.5"/>
</a>
</g>
</g>
</g>
</svg>
