<?xml version="1.0" encoding="UTF-8" standalone="no"?>
<!DOCTYPE svg PUBLIC "-//W3C//DTD SVG 1.1//EN"
 "http://www.w3.org/Graphics/SVG/1.1/DTD/svg11.dtd">
<!-- Generated by graphviz version 12.2.1 (20241206.2353)
 -->
<!-- Title: ABaseWeapon::OnRep_Owner Pages: 1 -->
<svg width="516pt" height="40pt"
 viewBox="0.00 0.00 515.75 40.00" xmlns="http://www.w3.org/2000/svg" xmlns:xlink="http://www.w3.org/1999/xlink">
<g id="graph0" class="graph" transform="scale(1 1) rotate(0) translate(4 36)">
<title>ABaseWeapon::OnRep_Owner</title>
<!-- Node1 -->
<g id="Node000001" class="node">
<title>Node1</title>
<g id="a_Node000001"><a xlink:title=" ">
<polygon fill="#999999" stroke="#666666" points="117.25,-32 0,-32 0,0 117.25,0 117.25,-32"/>
<text text-anchor="start" x="8" y="-18.5" font-family="Arial" font-size="10.00">ABaseWeapon::OnRep</text>
<text text-anchor="middle" x="58.62" y="-6.5" font-family="Arial" font-size="10.00">_Owner</text>
</a>
</g>
</g>
<!-- Node2 -->
<g id="Node000002" class="node">
<title>Node2</title>
<g id="a_Node000002"><a xlink:href="class_a_base_weapon.html#a87d9c1d39b25aae299790b857b07182d" target="_top" xlink:title=" ">
<polygon fill="white" stroke="#666666" points="305.75,-26 153.25,-26 153.25,-6 305.75,-6 305.75,-26"/>
<text text-anchor="middle" x="229.5" y="-12.5" font-family="Arial" font-size="10.00">ABaseWeapon::SetHUDAmmo</text>
</a>
</g>
</g>
<!-- Node1&#45;&gt;Node2 -->
<g id="edge1_Node000001_Node000002" class="edge">
<title>Node1&#45;&gt;Node2</title>
<g id="a_edge1_Node000001_Node000002"><a xlink:title=" ">
<path fill="none" stroke="#63b8ff" d="M117.74,-16C125.46,-16 133.5,-16 141.58,-16"/>
<polygon fill="#63b8ff" stroke="#63b8ff" points="141.46,-19.5 151.46,-16 141.46,-12.5 141.46,-19.5"/>
</a>
</g>
</g>
<!-- Node3 -->
<g id="Node000003" class="node">
<title>Node3</title>
<g id="a_Node000003"><a xlink:href="class_a_main_h_u_d.html#a3109ae3556f10687da6dc383ac708f47" target="_top" xlink:title=" ">
<polygon fill="white" stroke="#666666" points="507.75,-26 341.75,-26 341.75,-6 507.75,-6 507.75,-26"/>
<text text-anchor="middle" x="424.75" y="-12.5" font-family="Arial" font-size="10.00">AMainHUD::AddCharacterOverlay</text>
</a>
</g>
</g>
<!-- Node2&#45;&gt;Node3 -->
<g id="edge2_Node000002_Node000003" class="edge">
<title>Node2&#45;&gt;Node3</title>
<g id="a_edge2_Node000002_Node000003"><a xlink:title=" ">
<path fill="none" stroke="#63b8ff" d="M306.05,-16C313.96,-16 322.07,-16 330.16,-16"/>
<polygon fill="#63b8ff" stroke="#63b8ff" points="330.03,-19.5 340.03,-16 330.03,-12.5 330.03,-19.5"/>
</a>
</g>
</g>
</g>
</svg>
