<?xml version="1.0" encoding="UTF-8" standalone="no"?>
<!DOCTYPE svg PUBLIC "-//W3C//DTD SVG 1.1//EN"
 "http://www.w3.org/Graphics/SVG/1.1/DTD/svg11.dtd">
<!-- Generated by graphviz version 12.2.1 (20241206.2353)
 -->
<!-- Title: AMyPlayerController Pages: 1 -->
<!--zoomable 1325 -->

<svg id="main" version="1.1" xmlns="http://www.w3.org/2000/svg" xmlns:xlink="http://www.w3.org/1999/xlink" xml:space="preserve" onload="init(evt)">

<style type="text/css"><![CDATA[
.node, .edge {opacity: 0.7;}
.node.selected, .edge.selected {opacity: 1;}
.edge:hover path { stroke: red; }
.edge:hover polygon { stroke: red; fill: red; }
]]></style>

<defs>
  <circle id="rim" cx="0" cy="0" r="7"/>
  <circle id="rim2" cx="0" cy="0" r="3.5"/>
  <g id="zoomPlus">
    <use xlink:href="#rim" fill="#404040"><set attributeName="fill" to="#808080" begin="zoomplus.mouseover" end="zoomplus.mouseout"/></use>
    <path d="M-4,0h8M0,-4v8" fill="none" stroke="white" stroke-width="1.5" pointer-events="none"/>
  </g>
  <g id="zoomMin">
    <use xlink:href="#rim" fill="#404040"><set attributeName="fill" to="#808080" begin="zoomminus.mouseover" end="zoomminus.mouseout"/></use>
    <path d="M-4,0h8" fill="none" stroke="white" stroke-width="1.5" pointer-events="none"/>
  </g>
  <g id="arrowUp" transform="translate(30 24)">
    <use xlink:href="#rim"/>
    <path pointer-events="none" fill="none" stroke="white" stroke-width="1.5" d="M0,-3.0v7 M-2.5,-0.5L0,-3.0L2.5,-0.5"/>
  </g>
  <g id="arrowRight" transform="rotate(90) translate(36 -43)">
    <use xlink:href="#rim"/>
    <path pointer-events="none" fill="none" stroke="white" stroke-width="1.5" d="M0,-3.0v7 M-2.5,-0.5L0,-3.0L2.5,-0.5"/>
  </g>
  <g id="arrowDown" transform="rotate(180) translate(-30 -48)">
    <use xlink:href="#rim"/>
    <path pointer-events="none" fill="none" stroke="white" stroke-width="1.5" d="M0,-3.0v7 M-2.5,-0.5L0,-3.0L2.5,-0.5"/>
  </g>
  <g id="arrowLeft" transform="rotate(270) translate(-36 17)">
    <use xlink:href="#rim"/>
    <path pointer-events="none" fill="none" stroke="white" stroke-width="1.5" d="M0,-3.0v7 M-2.5,-0.5L0,-3.0L2.5,-0.5"/>
  </g>
  <g id="resetDef">
    <use xlink:href="#rim2" fill="#404040"><set attributeName="fill" to="#808080" begin="reset.mouseover" end="reset.mouseout"/></use>
  </g>
</defs>
<script type="application/ecmascript">
var viewWidth = 789;
var viewHeight = 1325;
var sectionId = 'dynsection-1';
</script>
<script type="application/ecmascript" xlink:href="svg.min.js"/>
<svg id="graph" class="graph">
<g id="viewport">
<title>AMyPlayerController</title>
<!-- Node1 -->
<g id="Node000001" class="node">
<title>Node1</title>
<g id="a_Node000001"><a xlink:title=" ">
<polygon fill="#999999" stroke="none" points="366.62,-772 190.38,-772 190.38,0 366.62,0 366.62,-772"/>
<text text-anchor="start" x="233.5" y="-758.5" font-family="Arial" font-size="10.00">AMyPlayerController</text>
<text text-anchor="start" x="194.38" y="-742.5" font-family="Arial" font-size="10.00">+</text>
<text text-anchor="start" x="204.38" y="-742.5" font-family="Arial" font-size="10.00">SingleTripTime</text>
<text text-anchor="start" x="194.38" y="-726.5" font-family="Arial" font-size="10.00">+</text>
<text text-anchor="start" x="204.38" y="-726.5" font-family="Arial" font-size="10.00">HighPingDelegate</text>
<text text-anchor="start" x="194.38" y="-710.5" font-family="Arial" font-size="10.00">+</text>
<text text-anchor="start" x="204.38" y="-710.5" font-family="Arial" font-size="10.00">MyMix</text>
<text text-anchor="start" x="194.38" y="-694.5" font-family="Arial" font-size="10.00">+</text>
<text text-anchor="start" x="204.38" y="-694.5" font-family="Arial" font-size="10.00">SFXClass</text>
<text text-anchor="start" x="194.38" y="-678.5" font-family="Arial" font-size="10.00">+</text>
<text text-anchor="start" x="204.38" y="-678.5" font-family="Arial" font-size="10.00">BackgroundMusicClass</text>
<text text-anchor="start" x="194.38" y="-662.5" font-family="Arial" font-size="10.00">+</text>
<text text-anchor="start" x="204.38" y="-662.5" font-family="Arial" font-size="10.00">BackgroundMusic</text>
<text text-anchor="start" x="194.38" y="-646.5" font-family="Arial" font-size="10.00">+</text>
<text text-anchor="start" x="204.38" y="-646.5" font-family="Arial" font-size="10.00">MusicAudioComponent</text>
<text text-anchor="start" x="194.75" y="-630.5" font-family="Arial" font-size="10.00">#</text>
<text text-anchor="start" x="204.38" y="-630.5" font-family="Arial" font-size="10.00">ClientServerDelta</text>
<text text-anchor="start" x="194.75" y="-614.5" font-family="Arial" font-size="10.00">#</text>
<text text-anchor="start" x="204.38" y="-614.5" font-family="Arial" font-size="10.00">TimeSyncFrequency</text>
<text text-anchor="start" x="194.75" y="-598.5" font-family="Arial" font-size="10.00">#</text>
<text text-anchor="start" x="204.38" y="-598.5" font-family="Arial" font-size="10.00">TimeSyncRunningTime</text>
<text text-anchor="start" x="195.88" y="-582.5" font-family="Arial" font-size="10.00">&#45;</text>
<text text-anchor="start" x="204.38" y="-582.5" font-family="Arial" font-size="10.00">SettingsMenuIsOpen</text>
<text text-anchor="start" x="195.88" y="-566.5" font-family="Arial" font-size="10.00">&#45;</text>
<text text-anchor="start" x="204.38" y="-566.5" font-family="Arial" font-size="10.00">LevelStartingTime</text>
<text text-anchor="start" x="195.88" y="-550.5" font-family="Arial" font-size="10.00">&#45;</text>
<text text-anchor="start" x="204.38" y="-550.5" font-family="Arial" font-size="10.00">MatchTime</text>
<text text-anchor="start" x="195.88" y="-534.5" font-family="Arial" font-size="10.00">&#45;</text>
<text text-anchor="start" x="204.38" y="-534.5" font-family="Arial" font-size="10.00">WarmupTime</text>
<text text-anchor="start" x="195.88" y="-518.5" font-family="Arial" font-size="10.00">&#45;</text>
<text text-anchor="start" x="204.38" y="-518.5" font-family="Arial" font-size="10.00">CooldownTime</text>
<text text-anchor="start" x="195.88" y="-502.5" font-family="Arial" font-size="10.00">&#45;</text>
<text text-anchor="start" x="204.38" y="-502.5" font-family="Arial" font-size="10.00">CountdownInt</text>
<text text-anchor="start" x="195.88" y="-486.5" font-family="Arial" font-size="10.00">&#45;</text>
<text text-anchor="start" x="204.38" y="-486.5" font-family="Arial" font-size="10.00">MatchState</text>
<text text-anchor="start" x="195.88" y="-470.5" font-family="Arial" font-size="10.00">&#45;</text>
<text text-anchor="start" x="204.38" y="-470.5" font-family="Arial" font-size="10.00">bInitializeCharacterOverlay</text>
<text text-anchor="start" x="195.88" y="-454.5" font-family="Arial" font-size="10.00">&#45;</text>
<text text-anchor="start" x="204.38" y="-454.5" font-family="Arial" font-size="10.00">HUDHealth</text>
<text text-anchor="start" x="195.88" y="-438.5" font-family="Arial" font-size="10.00">&#45;</text>
<text text-anchor="start" x="204.38" y="-438.5" font-family="Arial" font-size="10.00">HUDMaxHealth</text>
<text text-anchor="start" x="204.38" y="-422.5" font-family="Arial" font-size="10.00">and 6 more...</text>
<text text-anchor="start" x="194.38" y="-406.5" font-family="Arial" font-size="10.00">+</text>
<text text-anchor="start" x="204.38" y="-406.5" font-family="Arial" font-size="10.00">SetHUDHealth()</text>
<text text-anchor="start" x="194.38" y="-390.5" font-family="Arial" font-size="10.00">+</text>
<text text-anchor="start" x="204.38" y="-390.5" font-family="Arial" font-size="10.00">SetHUDScore()</text>
<text text-anchor="start" x="194.38" y="-374.5" font-family="Arial" font-size="10.00">+</text>
<text text-anchor="start" x="204.38" y="-374.5" font-family="Arial" font-size="10.00">SetHUDWeaponAmmo()</text>
<text text-anchor="start" x="194.38" y="-358.5" font-family="Arial" font-size="10.00">+</text>
<text text-anchor="start" x="204.38" y="-358.5" font-family="Arial" font-size="10.00">SetHUDMatchCountdown()</text>
<text text-anchor="start" x="194.38" y="-342.5" font-family="Arial" font-size="10.00">+</text>
<text text-anchor="start" x="204.38" y="-342.5" font-family="Arial" font-size="10.00">SetHUDAnnouncementCountdown()</text>
<text text-anchor="start" x="194.38" y="-326.5" font-family="Arial" font-size="10.00">+</text>
<text text-anchor="start" x="204.38" y="-326.5" font-family="Arial" font-size="10.00">HandleMatchHasStarted()</text>
<text text-anchor="start" x="194.38" y="-310.5" font-family="Arial" font-size="10.00">+</text>
<text text-anchor="start" x="204.38" y="-310.5" font-family="Arial" font-size="10.00">Tick()</text>
<text text-anchor="start" x="194.38" y="-294.5" font-family="Arial" font-size="10.00">+</text>
<text text-anchor="start" x="204.38" y="-294.5" font-family="Arial" font-size="10.00">GetLifetimeReplicatedProps()</text>
<text text-anchor="start" x="194.38" y="-278.5" font-family="Arial" font-size="10.00">+</text>
<text text-anchor="start" x="204.38" y="-278.5" font-family="Arial" font-size="10.00">GetServerTime()</text>
<text text-anchor="start" x="194.38" y="-262.5" font-family="Arial" font-size="10.00">+</text>
<text text-anchor="start" x="204.38" y="-262.5" font-family="Arial" font-size="10.00">ReceivedPlayer()</text>
<text text-anchor="start" x="204.38" y="-246.5" font-family="Arial" font-size="10.00">and 13 more...</text>
<text text-anchor="start" x="194.75" y="-230.5" font-family="Arial" font-size="10.00">#</text>
<text text-anchor="start" x="204.38" y="-230.5" font-family="Arial" font-size="10.00">BeginPlay()</text>
<text text-anchor="start" x="194.75" y="-214.5" font-family="Arial" font-size="10.00">#</text>
<text text-anchor="start" x="204.38" y="-214.5" font-family="Arial" font-size="10.00">OnPossess()</text>
<text text-anchor="start" x="194.75" y="-198.5" font-family="Arial" font-size="10.00">#</text>
<text text-anchor="start" x="204.38" y="-198.5" font-family="Arial" font-size="10.00">SetHUDTime()</text>
<text text-anchor="start" x="194.75" y="-182.5" font-family="Arial" font-size="10.00">#</text>
<text text-anchor="start" x="204.38" y="-182.5" font-family="Arial" font-size="10.00">PollInit()</text>
<text text-anchor="start" x="194.75" y="-166.5" font-family="Arial" font-size="10.00">#</text>
<text text-anchor="start" x="204.38" y="-166.5" font-family="Arial" font-size="10.00">ServerRequestServerTime()</text>
<text text-anchor="start" x="194.75" y="-150.5" font-family="Arial" font-size="10.00">#</text>
<text text-anchor="start" x="204.38" y="-150.5" font-family="Arial" font-size="10.00">ClientReportServerTime()</text>
<text text-anchor="start" x="194.75" y="-134.5" font-family="Arial" font-size="10.00">#</text>
<text text-anchor="start" x="204.38" y="-134.5" font-family="Arial" font-size="10.00">CheckTimeSync()</text>
<text text-anchor="start" x="194.75" y="-118.5" font-family="Arial" font-size="10.00">#</text>
<text text-anchor="start" x="204.38" y="-118.5" font-family="Arial" font-size="10.00">ServerCheckMatchState()</text>
<text text-anchor="start" x="194.75" y="-102.5" font-family="Arial" font-size="10.00">#</text>
<text text-anchor="start" x="204.38" y="-102.5" font-family="Arial" font-size="10.00">ClientJoinMidgame()</text>
<text text-anchor="start" x="194.75" y="-86.5" font-family="Arial" font-size="10.00">#</text>
<text text-anchor="start" x="204.38" y="-86.5" font-family="Arial" font-size="10.00">HighPingWarning()</text>
<text text-anchor="start" x="194.75" y="-70.5" font-family="Arial" font-size="10.00">#</text>
<text text-anchor="start" x="204.38" y="-70.5" font-family="Arial" font-size="10.00">StopHighPingWarning()</text>
<text text-anchor="start" x="194.75" y="-54.5" font-family="Arial" font-size="10.00">#</text>
<text text-anchor="start" x="204.38" y="-54.5" font-family="Arial" font-size="10.00">CheckPing()</text>
<text text-anchor="start" x="195.88" y="-38.5" font-family="Arial" font-size="10.00">&#45;</text>
<text text-anchor="start" x="204.38" y="-38.5" font-family="Arial" font-size="10.00">ServerTryCheckMatchState()</text>
<text text-anchor="start" x="195.88" y="-22.5" font-family="Arial" font-size="10.00">&#45;</text>
<text text-anchor="start" x="204.38" y="-22.5" font-family="Arial" font-size="10.00">OnRep_MatchState()</text>
<text text-anchor="start" x="195.88" y="-6.5" font-family="Arial" font-size="10.00">&#45;</text>
<text text-anchor="start" x="204.38" y="-6.5" font-family="Arial" font-size="10.00">ServerReportPingStatus()</text>
<polygon fill="#666666" stroke="#666666" points="190.38,-754 190.38,-754 366.62,-754 366.62,-754 190.38,-754"/>
<polygon fill="#666666" stroke="#666666" points="190.38,-418 190.38,-418 202.38,-418 202.38,-418 190.38,-418"/>
<polygon fill="#666666" stroke="#666666" points="202.38,-418 202.38,-418 366.62,-418 366.62,-418 202.38,-418"/>
<polygon fill="none" stroke="#666666" points="190.38,0 190.38,-772 366.62,-772 366.62,0 190.38,0"/>
</a>
</g>
</g>
<!-- Node2 -->
<g id="Node000002" class="node">
<title>Node2</title>
<g id="a_Node000002"><a xlink:title=" ">
<polygon fill="white" stroke="none" points="194.75,-960 110.25,-960 110.25,-908 194.75,-908 194.75,-960"/>
<text text-anchor="start" x="114.25" y="-946.5" font-family="Arial" font-size="10.00">APlayerController</text>
<text text-anchor="start" x="151" y="-930.5" font-family="Arial" font-size="10.00"> </text>
<text text-anchor="start" x="151" y="-914.5" font-family="Arial" font-size="10.00"> </text>
<polygon fill="#666666" stroke="#666666" points="110.25,-942 110.25,-942 194.75,-942 194.75,-942 110.25,-942"/>
<polygon fill="#666666" stroke="#666666" points="110.25,-926 110.25,-926 194.75,-926 194.75,-926 110.25,-926"/>
<polygon fill="none" stroke="#666666" points="110.25,-908 110.25,-960 194.75,-960 194.75,-908 110.25,-908"/>
</a>
</g>
</g>
<!-- Node2&#45;&gt;Node1 -->
<g id="edge1_Node000001_Node000002" class="edge">
<title>Node2&#45;&gt;Node1</title>
<g id="a_edge1_Node000001_Node000002"><a xlink:title=" ">
<path fill="none" stroke="#63b8ff" d="M160.78,-897.1C167.68,-867.24 178.29,-821.25 190.38,-768.87"/>
<polygon fill="none" stroke="#63b8ff" points="157.42,-896.11 158.58,-906.65 164.24,-897.69 157.42,-896.11"/>
</a>
</g>
</g>
<!-- Node3 -->
<g id="Node000003" class="node">
<title>Node3</title>
<g id="a_Node000003"><a xlink:href="class_a_main_h_u_d.html" target="_top" xlink:title=" ">
<polygon fill="white" stroke="none" points="451.5,-1048 331.5,-1048 331.5,-820 451.5,-820 451.5,-1048"/>
<text text-anchor="start" x="366.38" y="-1034.5" font-family="Arial" font-size="10.00">AMainHUD</text>
<text text-anchor="start" x="335.5" y="-1018.5" font-family="Arial" font-size="10.00">+</text>
<text text-anchor="start" x="345.5" y="-1018.5" font-family="Arial" font-size="10.00">CrosshairSpreadMax</text>
<text text-anchor="start" x="335.5" y="-1002.5" font-family="Arial" font-size="10.00">+</text>
<text text-anchor="start" x="345.5" y="-1002.5" font-family="Arial" font-size="10.00">CharacterOverlayClass</text>
<text text-anchor="start" x="335.5" y="-986.5" font-family="Arial" font-size="10.00">+</text>
<text text-anchor="start" x="345.5" y="-986.5" font-family="Arial" font-size="10.00">AnnouncementClass</text>
<text text-anchor="start" x="335.5" y="-970.5" font-family="Arial" font-size="10.00">+</text>
<text text-anchor="start" x="345.5" y="-970.5" font-family="Arial" font-size="10.00">ChatClass</text>
<text text-anchor="start" x="335.5" y="-954.5" font-family="Arial" font-size="10.00">+</text>
<text text-anchor="start" x="345.5" y="-954.5" font-family="Arial" font-size="10.00">SettignsClass</text>
<text text-anchor="start" x="335.5" y="-938.5" font-family="Arial" font-size="10.00">+</text>
<text text-anchor="start" x="345.5" y="-938.5" font-family="Arial" font-size="10.00">DrawHUD()</text>
<text text-anchor="start" x="335.5" y="-922.5" font-family="Arial" font-size="10.00">+</text>
<text text-anchor="start" x="345.5" y="-922.5" font-family="Arial" font-size="10.00">DrawCrosshair()</text>
<text text-anchor="start" x="335.5" y="-906.5" font-family="Arial" font-size="10.00">+</text>
<text text-anchor="start" x="345.5" y="-906.5" font-family="Arial" font-size="10.00">AddCharacterOverlay()</text>
<text text-anchor="start" x="335.5" y="-890.5" font-family="Arial" font-size="10.00">+</text>
<text text-anchor="start" x="345.5" y="-890.5" font-family="Arial" font-size="10.00">AddAnnouncement()</text>
<text text-anchor="start" x="335.5" y="-874.5" font-family="Arial" font-size="10.00">+</text>
<text text-anchor="start" x="345.5" y="-874.5" font-family="Arial" font-size="10.00">AddChat()</text>
<text text-anchor="start" x="335.5" y="-858.5" font-family="Arial" font-size="10.00">+</text>
<text text-anchor="start" x="345.5" y="-858.5" font-family="Arial" font-size="10.00">AddSettings()</text>
<text text-anchor="start" x="335.5" y="-842.5" font-family="Arial" font-size="10.00">+</text>
<text text-anchor="start" x="345.5" y="-842.5" font-family="Arial" font-size="10.00">SetHUDPackage()</text>
<text text-anchor="start" x="335.88" y="-826.5" font-family="Arial" font-size="10.00">#</text>
<text text-anchor="start" x="345.5" y="-826.5" font-family="Arial" font-size="10.00">BeginPlay()</text>
<polygon fill="#666666" stroke="#666666" points="331.5,-1030 331.5,-1030 451.5,-1030 451.5,-1030 331.5,-1030"/>
<polygon fill="#666666" stroke="#666666" points="331.5,-950 331.5,-950 343.5,-950 343.5,-950 331.5,-950"/>
<polygon fill="#666666" stroke="#666666" points="343.5,-950 343.5,-950 451.5,-950 451.5,-950 343.5,-950"/>
<polygon fill="none" stroke="#666666" points="331.5,-820 331.5,-1048 451.5,-1048 451.5,-820 331.5,-820"/>
</a>
</g>
</g>
<!-- Node3&#45;&gt;Node1 -->
<g id="edge2_Node000001_Node000003" class="edge">
<title>Node3&#45;&gt;Node1</title>
<g id="a_edge2_Node000001_Node000003"><a xlink:title=" ">
<path fill="none" stroke="#63b8ff" d="M368.15,-820.2C365.79,-808.78 363.31,-796.79 360.74,-784.35"/>
<polygon fill="none" stroke="#63b8ff" points="360.75,-784.41 355.62,-779.35 358.32,-772.66 363.45,-777.73 360.75,-784.41"/>
</a>
</g>
<text text-anchor="middle" x="390.44" y="-792.5" font-family="Arial" font-size="10.00" fill="grey"> +MainHUD</text>
</g>
<!-- Node4 -->
<g id="Node000004" class="node">
<title>Node4</title>
<g id="a_Node000004"><a xlink:title=" ">
<polygon fill="white" stroke="none" points="578.12,-1188 540.88,-1188 540.88,-1136 578.12,-1136 578.12,-1188"/>
<text text-anchor="start" x="544.88" y="-1174.5" font-family="Arial" font-size="10.00">AHUD</text>
<text text-anchor="start" x="558" y="-1158.5" font-family="Arial" font-size="10.00"> </text>
<text text-anchor="start" x="558" y="-1142.5" font-family="Arial" font-size="10.00"> </text>
<polygon fill="#666666" stroke="#666666" points="540.88,-1170 540.88,-1170 578.12,-1170 578.12,-1170 540.88,-1170"/>
<polygon fill="#666666" stroke="#666666" points="540.88,-1154 540.88,-1154 578.12,-1154 578.12,-1154 540.88,-1154"/>
<polygon fill="none" stroke="#666666" points="540.88,-1136 540.88,-1188 578.12,-1188 578.12,-1136 540.88,-1136"/>
</a>
</g>
</g>
<!-- Node4&#45;&gt;Node3 -->
<g id="edge3_Node000003_Node000004" class="edge">
<title>Node4&#45;&gt;Node3</title>
<g id="a_edge3_Node000003_Node000004"><a xlink:title=" ">
<path fill="none" stroke="#63b8ff" d="M545.3,-1125.67C541.11,-1115.94 536.35,-1105.45 531.5,-1096 511.31,-1056.61 479.47,-1018.91 451.24,-989.91"/>
<polygon fill="none" stroke="#63b8ff" points="542.06,-1127 549.17,-1134.86 548.51,-1124.29 542.06,-1127"/>
</a>
</g>
</g>
<!-- Node5 -->
<g id="Node000005" class="node">
<title>Node5</title>
<g id="a_Node000005"><a xlink:href="class_u_character_overlay.html" target="_top" xlink:title=" ">
<polygon fill="white" stroke="none" points="268.25,-1220 152.75,-1220 152.75,-1104 268.25,-1104 268.25,-1220"/>
<text text-anchor="start" x="168.5" y="-1206.5" font-family="Arial" font-size="10.00">UCharacterOverlay</text>
<text text-anchor="start" x="156.75" y="-1190.5" font-family="Arial" font-size="10.00">+</text>
<text text-anchor="start" x="166.75" y="-1190.5" font-family="Arial" font-size="10.00">HealthText</text>
<text text-anchor="start" x="156.75" y="-1174.5" font-family="Arial" font-size="10.00">+</text>
<text text-anchor="start" x="166.75" y="-1174.5" font-family="Arial" font-size="10.00">ScoreAmount</text>
<text text-anchor="start" x="156.75" y="-1158.5" font-family="Arial" font-size="10.00">+</text>
<text text-anchor="start" x="166.75" y="-1158.5" font-family="Arial" font-size="10.00">WeaponAmmoAmount</text>
<text text-anchor="start" x="156.75" y="-1142.5" font-family="Arial" font-size="10.00">+</text>
<text text-anchor="start" x="166.75" y="-1142.5" font-family="Arial" font-size="10.00">MatchCountdownText</text>
<text text-anchor="start" x="156.75" y="-1126.5" font-family="Arial" font-size="10.00">+</text>
<text text-anchor="start" x="166.75" y="-1126.5" font-family="Arial" font-size="10.00">HighPingText</text>
<text text-anchor="start" x="209" y="-1110.5" font-family="Arial" font-size="10.00"> </text>
<polygon fill="#666666" stroke="#666666" points="152.75,-1202 152.75,-1202 268.25,-1202 268.25,-1202 152.75,-1202"/>
<polygon fill="#666666" stroke="#666666" points="152.75,-1122 152.75,-1122 164.75,-1122 164.75,-1122 152.75,-1122"/>
<polygon fill="#666666" stroke="#666666" points="164.75,-1122 164.75,-1122 268.25,-1122 268.25,-1122 164.75,-1122"/>
<polygon fill="none" stroke="#666666" points="152.75,-1104 152.75,-1220 268.25,-1220 268.25,-1104 152.75,-1104"/>
</a>
</g>
</g>
<!-- Node5&#45;&gt;Node1 -->
<g id="edge15_Node000001_Node000005" class="edge">
<title>Node5&#45;&gt;Node1</title>
<g id="a_edge15_Node000001_Node000005"><a xlink:title=" ">
<path fill="none" stroke="#63b8ff" d="M215.37,-1104.28C221.18,-1036.61 231.23,-920.04 240,-820 241.02,-808.41 242.05,-796.64 243.1,-784.76"/>
<polygon fill="none" stroke="#63b8ff" points="243.1,-784.68 239.65,-778.35 244.16,-772.72 247.61,-779.05 243.1,-784.68"/>
</a>
</g>
<text text-anchor="middle" x="281.25" y="-930.5" font-family="Arial" font-size="10.00" fill="grey"> &#45;CharacterOverlay</text>
</g>
<!-- Node5&#45;&gt;Node3 -->
<g id="edge4_Node000003_Node000005" class="edge">
<title>Node5&#45;&gt;Node3</title>
<g id="a_edge4_Node000003_Node000005"><a xlink:title=" ">
<path fill="none" stroke="#63b8ff" d="M241.2,-1104.36C250.67,-1090.51 262.06,-1076.63 275,-1066 290.85,-1052.98 301.76,-1061.15 317.5,-1048 319.2,-1046.58 320.88,-1045.11 322.53,-1043.6"/>
<polygon fill="none" stroke="#63b8ff" points="322.55,-1043.57 323.99,-1036.51 331.07,-1035.12 329.63,-1042.19 322.55,-1043.57"/>
</a>
</g>
<text text-anchor="middle" x="317.75" y="-1068.5" font-family="Arial" font-size="10.00" fill="grey"> +CharacterOverlay</text>
</g>
<!-- Node6 -->
<g id="Node000006" class="node">
<title>Node6</title>
<g id="a_Node000006"><a xlink:title=" ">
<polygon fill="white" stroke="none" points="284.12,-1317 216.88,-1317 216.88,-1265 284.12,-1265 284.12,-1317"/>
<text text-anchor="start" x="220.88" y="-1303.5" font-family="Arial" font-size="10.00">UUserWidget</text>
<text text-anchor="start" x="249" y="-1287.5" font-family="Arial" font-size="10.00"> </text>
<text text-anchor="start" x="249" y="-1271.5" font-family="Arial" font-size="10.00"> </text>
<polygon fill="#666666" stroke="#666666" points="216.88,-1299 216.88,-1299 284.12,-1299 284.12,-1299 216.88,-1299"/>
<polygon fill="#666666" stroke="#666666" points="216.88,-1283 216.88,-1283 284.12,-1283 284.12,-1283 216.88,-1283"/>
<polygon fill="none" stroke="#666666" points="216.88,-1265 216.88,-1317 284.12,-1317 284.12,-1265 216.88,-1265"/>
</a>
</g>
</g>
<!-- Node6&#45;&gt;Node5 -->
<g id="edge5_Node000005_Node000006" class="edge">
<title>Node6&#45;&gt;Node5</title>
<g id="a_edge5_Node000005_Node000006"><a xlink:title=" ">
<path fill="none" stroke="#63b8ff" d="M239.33,-1254.53C235.93,-1243.75 232.11,-1231.62 228.39,-1219.81"/>
<polygon fill="none" stroke="#63b8ff" points="235.9,-1255.28 242.24,-1263.77 242.57,-1253.18 235.9,-1255.28"/>
</a>
</g>
</g>
<!-- Node7 -->
<g id="Node000007" class="node">
<title>Node7</title>
<g id="a_Node000007"><a xlink:href="class_u_announcement.html" target="_top" xlink:title=" ">
<polygon fill="white" stroke="none" points="698.5,-1204 596.5,-1204 596.5,-1120 698.5,-1120 698.5,-1204"/>
<text text-anchor="start" x="611.12" y="-1190.5" font-family="Arial" font-size="10.00">UAnnouncement</text>
<text text-anchor="start" x="600.5" y="-1174.5" font-family="Arial" font-size="10.00">+</text>
<text text-anchor="start" x="610.5" y="-1174.5" font-family="Arial" font-size="10.00">WarmupTime</text>
<text text-anchor="start" x="600.5" y="-1158.5" font-family="Arial" font-size="10.00">+</text>
<text text-anchor="start" x="610.5" y="-1158.5" font-family="Arial" font-size="10.00">AnnouncementText</text>
<text text-anchor="start" x="600.5" y="-1142.5" font-family="Arial" font-size="10.00">+</text>
<text text-anchor="start" x="610.5" y="-1142.5" font-family="Arial" font-size="10.00">InfoText</text>
<text text-anchor="start" x="646" y="-1126.5" font-family="Arial" font-size="10.00"> </text>
<polygon fill="#666666" stroke="#666666" points="596.5,-1186 596.5,-1186 698.5,-1186 698.5,-1186 596.5,-1186"/>
<polygon fill="#666666" stroke="#666666" points="596.5,-1138 596.5,-1138 608.5,-1138 608.5,-1138 596.5,-1138"/>
<polygon fill="#666666" stroke="#666666" points="608.5,-1138 608.5,-1138 698.5,-1138 698.5,-1138 608.5,-1138"/>
<polygon fill="none" stroke="#666666" points="596.5,-1120 596.5,-1204 698.5,-1204 698.5,-1120 596.5,-1120"/>
</a>
</g>
</g>
<!-- Node6&#45;&gt;Node7 -->
<g id="edge7_Node000007_Node000006" class="edge">
<title>Node6&#45;&gt;Node7</title>
<g id="a_edge7_Node000007_Node000006"><a xlink:title=" ">
<path fill="none" stroke="#63b8ff" d="M295.38,-1290.55C362.93,-1289.51 492.89,-1280.14 587.5,-1228 598.53,-1221.92 608.65,-1213.07 617.31,-1203.84"/>
<polygon fill="none" stroke="#63b8ff" points="295.39,-1287.04 285.42,-1290.64 295.45,-1294.04 295.39,-1287.04"/>
</a>
</g>
</g>
<!-- Node8 -->
<g id="Node000008" class="node">
<title>Node8</title>
<g id="a_Node000008"><a xlink:href="class_u_chat.html" target="_top" xlink:title=" ">
<polygon fill="white" stroke="none" points="135,-1212 0,-1212 0,-1112 135,-1112 135,-1212"/>
<text text-anchor="start" x="53.25" y="-1198.5" font-family="Arial" font-size="10.00">UChat</text>
<text text-anchor="start" x="4" y="-1182.5" font-family="Arial" font-size="10.00">+</text>
<text text-anchor="start" x="14" y="-1182.5" font-family="Arial" font-size="10.00">InputField</text>
<text text-anchor="start" x="4" y="-1166.5" font-family="Arial" font-size="10.00">+</text>
<text text-anchor="start" x="14" y="-1166.5" font-family="Arial" font-size="10.00">ChatHistoryBox</text>
<text text-anchor="start" x="4" y="-1150.5" font-family="Arial" font-size="10.00">+</text>
<text text-anchor="start" x="14" y="-1150.5" font-family="Arial" font-size="10.00">ChatMessageWidgetClass</text>
<text text-anchor="start" x="4" y="-1134.5" font-family="Arial" font-size="10.00">+</text>
<text text-anchor="start" x="14" y="-1134.5" font-family="Arial" font-size="10.00">NativeConstruct()</text>
<text text-anchor="start" x="4" y="-1118.5" font-family="Arial" font-size="10.00">+</text>
<text text-anchor="start" x="14" y="-1118.5" font-family="Arial" font-size="10.00">OnChatTextCommitted()</text>
<polygon fill="#666666" stroke="#666666" points="0,-1194 0,-1194 135,-1194 135,-1194 0,-1194"/>
<polygon fill="#666666" stroke="#666666" points="0,-1146 0,-1146 12,-1146 12,-1146 0,-1146"/>
<polygon fill="#666666" stroke="#666666" points="12,-1146 12,-1146 135,-1146 135,-1146 12,-1146"/>
<polygon fill="none" stroke="#666666" points="0,-1112 0,-1212 135,-1212 135,-1112 0,-1112"/>
</a>
</g>
</g>
<!-- Node6&#45;&gt;Node8 -->
<g id="edge9_Node000008_Node000006" class="edge">
<title>Node6&#45;&gt;Node8</title>
<g id="a_edge9_Node000008_Node000006"><a xlink:title=" ">
<path fill="none" stroke="#63b8ff" d="M207.19,-1267.27C187.27,-1256.22 163.64,-1242.27 143.5,-1228 136.42,-1222.98 129.2,-1217.44 122.17,-1211.78"/>
<polygon fill="none" stroke="#63b8ff" points="205.46,-1270.31 215.91,-1272.04 208.82,-1264.17 205.46,-1270.31"/>
</a>
</g>
</g>
<!-- Node9 -->
<g id="Node000009" class="node">
<title>Node9</title>
<g id="a_Node000009"><a xlink:href="class_u_settings_menu.html" target="_top" xlink:title=" ">
<polygon fill="white" stroke="none" points="408.25,-1228 286.75,-1228 286.75,-1096 408.25,-1096 408.25,-1228"/>
<text text-anchor="start" x="313.75" y="-1214.5" font-family="Arial" font-size="10.00">USettingsMenu</text>
<text text-anchor="start" x="290.75" y="-1198.5" font-family="Arial" font-size="10.00">+</text>
<text text-anchor="start" x="300.75" y="-1198.5" font-family="Arial" font-size="10.00">VolumeSlider</text>
<text text-anchor="start" x="290.75" y="-1182.5" font-family="Arial" font-size="10.00">+</text>
<text text-anchor="start" x="300.75" y="-1182.5" font-family="Arial" font-size="10.00">SensitivitySlider</text>
<text text-anchor="start" x="290.75" y="-1166.5" font-family="Arial" font-size="10.00">+</text>
<text text-anchor="start" x="300.75" y="-1166.5" font-family="Arial" font-size="10.00">SlideInAnimation</text>
<text text-anchor="start" x="290.75" y="-1150.5" font-family="Arial" font-size="10.00">+</text>
<text text-anchor="start" x="300.75" y="-1150.5" font-family="Arial" font-size="10.00">OnSensitivityChanged()</text>
<text text-anchor="start" x="290.75" y="-1134.5" font-family="Arial" font-size="10.00">+</text>
<text text-anchor="start" x="300.75" y="-1134.5" font-family="Arial" font-size="10.00">NativeConstruct()</text>
<text text-anchor="start" x="290.75" y="-1118.5" font-family="Arial" font-size="10.00">+</text>
<text text-anchor="start" x="300.75" y="-1118.5" font-family="Arial" font-size="10.00">NativeOnKeyDown()</text>
<text text-anchor="start" x="290.75" y="-1102.5" font-family="Arial" font-size="10.00">+</text>
<text text-anchor="start" x="300.75" y="-1102.5" font-family="Arial" font-size="10.00">OnVolumeChanged()</text>
<polygon fill="#666666" stroke="#666666" points="286.75,-1210 286.75,-1210 408.25,-1210 408.25,-1210 286.75,-1210"/>
<polygon fill="#666666" stroke="#666666" points="286.75,-1162 286.75,-1162 298.75,-1162 298.75,-1162 286.75,-1162"/>
<polygon fill="#666666" stroke="#666666" points="298.75,-1162 298.75,-1162 408.25,-1162 408.25,-1162 298.75,-1162"/>
<polygon fill="none" stroke="#666666" points="286.75,-1096 286.75,-1228 408.25,-1228 408.25,-1096 286.75,-1096"/>
</a>
</g>
</g>
<!-- Node6&#45;&gt;Node9 -->
<g id="edge11_Node000009_Node000006" class="edge">
<title>Node6&#45;&gt;Node9</title>
<g id="a_edge11_Node000009_Node000006"><a xlink:title=" ">
<path fill="none" stroke="#63b8ff" d="M276.38,-1256.11C283.09,-1247.34 290.53,-1237.59 298.01,-1227.79"/>
<polygon fill="none" stroke="#63b8ff" points="273.64,-1253.94 270.35,-1264.01 279.2,-1258.19 273.64,-1253.94"/>
</a>
</g>
</g>
<!-- Node7&#45;&gt;Node3 -->
<g id="edge6_Node000003_Node000007" class="edge">
<title>Node7&#45;&gt;Node3</title>
<g id="a_edge6_Node000003_Node000007"><a xlink:title=" ">
<path fill="none" stroke="#63b8ff" d="M611.53,-1120.3C603.81,-1112.05 595.54,-1103.59 587.5,-1096 547.37,-1058.13 499.57,-1018.76 461.22,-988.43"/>
<polygon fill="none" stroke="#63b8ff" points="461.31,-988.5 454.13,-987.93 451.89,-981.08 459.07,-981.65 461.31,-988.5"/>
</a>
</g>
<text text-anchor="middle" x="604.41" y="-1068.5" font-family="Arial" font-size="10.00" fill="grey"> +Announcement</text>
</g>
<!-- Node8&#45;&gt;Node3 -->
<g id="edge8_Node000003_Node000008" class="edge">
<title>Node8&#45;&gt;Node3</title>
<g id="a_edge8_Node000003_Node000008"><a xlink:title=" ">
<path fill="none" stroke="#63b8ff" d="M119.6,-1112.18C127.29,-1106.26 135.37,-1100.67 143.5,-1096 178.6,-1075.83 190.47,-1076.75 229.5,-1066 267.99,-1055.4 284.47,-1070.42 317.5,-1048 318.89,-1047.06 320.26,-1046.08 321.61,-1045.06"/>
<polygon fill="none" stroke="#63b8ff" points="321.71,-1044.98 323.73,-1038.06 330.9,-1037.27 328.87,-1044.19 321.71,-1044.98"/>
</a>
</g>
<text text-anchor="middle" x="244.5" y="-1068.5" font-family="Arial" font-size="10.00" fill="grey"> +Chat</text>
</g>
<!-- Node9&#45;&gt;Node3 -->
<g id="edge10_Node000003_Node000009" class="edge">
<title>Node9&#45;&gt;Node3</title>
<g id="a_edge10_Node000003_Node000009"><a xlink:title=" ">
<path fill="none" stroke="#63b8ff" d="M360.11,-1096.24C362.34,-1084.79 364.72,-1072.53 367.15,-1060.08"/>
<polygon fill="none" stroke="#63b8ff" points="367.12,-1060.24 364.34,-1053.59 369.41,-1048.46 372.19,-1055.12 367.12,-1060.24"/>
</a>
</g>
<text text-anchor="middle" x="388.06" y="-1068.5" font-family="Arial" font-size="10.00" fill="grey"> +Settigns</text>
</g>
<!-- Node10 -->
<g id="Node000010" class="node">
<title>Node10</title>
<g id="a_Node000010"><a xlink:href="struct_f_h_u_d_package.html" target="_top" xlink:title=" ">
<polygon fill="white" stroke="none" points="522.88,-1228 426.12,-1228 426.12,-1096 522.88,-1096 522.88,-1228"/>
<text text-anchor="start" x="441.12" y="-1214.5" font-family="Arial" font-size="10.00">FHUDPackage</text>
<text text-anchor="start" x="430.12" y="-1198.5" font-family="Arial" font-size="10.00">+</text>
<text text-anchor="start" x="440.12" y="-1198.5" font-family="Arial" font-size="10.00">CrosshairsCenter</text>
<text text-anchor="start" x="430.12" y="-1182.5" font-family="Arial" font-size="10.00">+</text>
<text text-anchor="start" x="440.12" y="-1182.5" font-family="Arial" font-size="10.00">CrosshairsLeft</text>
<text text-anchor="start" x="430.12" y="-1166.5" font-family="Arial" font-size="10.00">+</text>
<text text-anchor="start" x="440.12" y="-1166.5" font-family="Arial" font-size="10.00">CrosshairsRight</text>
<text text-anchor="start" x="430.12" y="-1150.5" font-family="Arial" font-size="10.00">+</text>
<text text-anchor="start" x="440.12" y="-1150.5" font-family="Arial" font-size="10.00">CrosshairsTop</text>
<text text-anchor="start" x="430.12" y="-1134.5" font-family="Arial" font-size="10.00">+</text>
<text text-anchor="start" x="440.12" y="-1134.5" font-family="Arial" font-size="10.00">CrosshairsBottom</text>
<text text-anchor="start" x="430.12" y="-1118.5" font-family="Arial" font-size="10.00">+</text>
<text text-anchor="start" x="440.12" y="-1118.5" font-family="Arial" font-size="10.00">CrosshairSpread</text>
<text text-anchor="start" x="473" y="-1102.5" font-family="Arial" font-size="10.00"> </text>
<polygon fill="#666666" stroke="#666666" points="426.12,-1210 426.12,-1210 522.88,-1210 522.88,-1210 426.12,-1210"/>
<polygon fill="#666666" stroke="#666666" points="426.12,-1114 426.12,-1114 438.12,-1114 438.12,-1114 426.12,-1114"/>
<polygon fill="#666666" stroke="#666666" points="438.12,-1114 438.12,-1114 522.88,-1114 522.88,-1114 438.12,-1114"/>
<polygon fill="none" stroke="#666666" points="426.12,-1096 426.12,-1228 522.88,-1228 522.88,-1096 426.12,-1096"/>
</a>
</g>
</g>
<!-- Node10&#45;&gt;Node3 -->
<g id="edge12_Node000003_Node000010" class="edge">
<title>Node10&#45;&gt;Node3</title>
<g id="a_edge12_Node000003_Node000010"><a xlink:title=" ">
<path fill="none" stroke="#63b8ff" d="M450.72,-1096.24C446.47,-1084.67 441.92,-1072.28 437.29,-1059.69"/>
<polygon fill="none" stroke="#63b8ff" points="437.29,-1059.69 431.47,-1055.43 433.16,-1048.42 438.98,-1052.68 437.29,-1059.69"/>
</a>
</g>
<text text-anchor="middle" x="476.25" y="-1068.5" font-family="Arial" font-size="10.00" fill="grey"> &#45;HUDPackage</text>
</g>
<!-- Node11 -->
<g id="Node000011" class="node">
<title>Node11</title>
<g id="a_Node000011"><a xlink:href="class_u_settings_save_game.html" target="_top" xlink:title=" ">
<polygon fill="white" stroke="none" points="666.62,-968 566.38,-968 566.38,-900 666.62,-900 666.62,-968"/>
<text text-anchor="start" x="570.38" y="-954.5" font-family="Arial" font-size="10.00">USettingsSaveGame</text>
<text text-anchor="start" x="572.56" y="-938.5" font-family="Arial" font-size="10.00">+</text>
<text text-anchor="start" x="584.75" y="-938.5" font-family="Arial" font-size="10.00">SavedVolume</text>
<text text-anchor="start" x="572.56" y="-922.5" font-family="Arial" font-size="10.00">+</text>
<text text-anchor="start" x="584.75" y="-922.5" font-family="Arial" font-size="10.00">SavedSensitivity</text>
<text text-anchor="start" x="615" y="-906.5" font-family="Arial" font-size="10.00"> </text>
<polygon fill="#666666" stroke="#666666" points="566.38,-950 566.38,-950 666.62,-950 666.62,-950 566.38,-950"/>
<polygon fill="#666666" stroke="#666666" points="566.38,-918 566.38,-918 582.75,-918 582.75,-918 566.38,-918"/>
<polygon fill="#666666" stroke="#666666" points="582.75,-918 582.75,-918 666.62,-918 666.62,-918 582.75,-918"/>
<polygon fill="none" stroke="#666666" points="566.38,-900 566.38,-968 666.62,-968 666.62,-900 566.38,-900"/>
</a>
</g>
</g>
<!-- Node11&#45;&gt;Node1 -->
<g id="edge13_Node000001_Node000011" class="edge">
<title>Node11&#45;&gt;Node1</title>
<g id="a_edge13_Node000001_Node000011"><a xlink:title=" ">
<path fill="none" stroke="#63b8ff" d="M596.12,-900.07C553.02,-830.46 450.29,-664.51 373.25,-540.06"/>
<polygon fill="none" stroke="#63b8ff" points="373.37,-540.26 366.81,-537.26 367.06,-530.05 373.62,-533.05 373.37,-540.26"/>
</a>
</g>
<text text-anchor="middle" x="577.94" y="-792.5" font-family="Arial" font-size="10.00" fill="grey"> +SaveGameObject</text>
</g>
<!-- Node12 -->
<g id="Node000012" class="node">
<title>Node12</title>
<g id="a_Node000012"><a xlink:title=" ">
<polygon fill="white" stroke="none" points="780.62,-1188 716.38,-1188 716.38,-1136 780.62,-1136 780.62,-1188"/>
<text text-anchor="start" x="720.38" y="-1174.5" font-family="Arial" font-size="10.00">USaveGame</text>
<text text-anchor="start" x="747" y="-1158.5" font-family="Arial" font-size="10.00"> </text>
<text text-anchor="start" x="747" y="-1142.5" font-family="Arial" font-size="10.00"> </text>
<polygon fill="#666666" stroke="#666666" points="716.38,-1170 716.38,-1170 780.62,-1170 780.62,-1170 716.38,-1170"/>
<polygon fill="#666666" stroke="#666666" points="716.38,-1154 716.38,-1154 780.62,-1154 780.62,-1154 716.38,-1154"/>
<polygon fill="none" stroke="#666666" points="716.38,-1136 716.38,-1188 780.62,-1188 780.62,-1136 716.38,-1136"/>
</a>
</g>
</g>
<!-- Node12&#45;&gt;Node11 -->
<g id="edge14_Node000011_Node000012" class="edge">
<title>Node12&#45;&gt;Node11</title>
<g id="a_edge14_Node000011_Node000012"><a xlink:title=" ">
<path fill="none" stroke="#63b8ff" d="M730.88,-1126.01C721.57,-1107.92 709.76,-1085.58 698.5,-1066 678.97,-1032.04 655.05,-994.21 638.09,-967.97"/>
<polygon fill="none" stroke="#63b8ff" points="727.69,-1127.46 735.36,-1134.77 733.92,-1124.28 727.69,-1127.46"/>
</a>
</g>
</g>
</g>
</svg>

<g id="navigator" transform="translate(0 0)" fill="#404254">
  <rect fill="#f2f5e9" fill-opacity="0.5" stroke="#606060" stroke-width=".5" x="0" y="0" width="60" height="60"/>
  <use id="zoomplus" xlink:href="#zoomPlus" x="17" y="9" onmousedown="handleZoom(evt,'in')"/>
  <use id="zoomminus" xlink:href="#zoomMin" x="42" y="9" onmousedown="handleZoom(evt,'out')"/>
  <use id="reset" xlink:href="#resetDef" x="30" y="36" onmousedown="handleReset()"/>
   <use id="arrowup" xlink:href="#arrowUp" x="0" y="0" onmousedown="handlePan(0,-1)"/>
  <use id="arrowright" xlink:href="#arrowRight" x="0" y="0" onmousedown="handlePan(1,0)"/>
  <use id="arrowdown" xlink:href="#arrowDown" x="0" y="0" onmousedown="handlePan(0,1)"/>
  <use id="arrowleft" xlink:href="#arrowLeft" x="0" y="0" onmousedown="handlePan(-1,0)"/>
</g>
<svg viewBox="0 0 15 15" width="100%" height="30px" preserveAspectRatio="xMaxYMin meet">
 <g id="arrow_out" transform="scale(0.3 0.3)">
  <a xlink:href="class_a_my_player_controller__coll__graph_org.svg" target="_base">
   <rect id="button" ry="5" rx="5" y="6" x="6" height="38" width="38"
        fill="#f2f5e9" fill-opacity="0.5" stroke="#606060" stroke-width="1.0"/>
   <path id="arrow"
     d="M 11.500037,31.436501 C 11.940474,20.09759 22.043105,11.32322 32.158766,21.979434 L 37.068811,17.246167 C 37.068811,17.246167 37.088388,32 37.088388,32 L 22.160133,31.978069 C 22.160133,31.978069 26.997745,27.140456 26.997745,27.140456 C 18.528582,18.264221 13.291696,25.230495 11.500037,31.436501 z"
     style="fill:#404040;"/>
  </a>
 </g>
</svg>

<style type='text/css'>
<![CDATA[
[data-mouse-over-selected='false'] { opacity: 0.7; }
[data-mouse-over-selected='true']  { opacity: 1.0; }
]]>
</style>
<script type="application/ecmascript"><![CDATA[
document.addEventListener('DOMContentLoaded', (event) => {
  highlightEdges();
  highlightAdjacentNodes();
});
]]></script>
</svg>
