<?xml version="1.0" encoding="UTF-8" standalone="no"?>
<!DOCTYPE svg PUBLIC "-//W3C//DTD SVG 1.1//EN"
 "http://www.w3.org/Graphics/SVG/1.1/DTD/svg11.dtd">
<!-- Generated by graphviz version 12.2.1 (20241206.2353)
 -->
<!-- Title: AMyPlayerController::SetHUDAnnouncementCountdown Pages: 1 -->
<svg width="885pt" height="158pt"
 viewBox="0.00 0.00 885.25 158.00" xmlns="http://www.w3.org/2000/svg" xmlns:xlink="http://www.w3.org/1999/xlink">
<g id="graph0" class="graph" transform="scale(1 1) rotate(0) translate(4 154)">
<title>AMyPlayerController::SetHUDAnnouncementCountdown</title>
<!-- Node1 -->
<g id="Node000001" class="node">
<title>Node1</title>
<g id="a_Node000001"><a xlink:title=" ">
<polygon fill="#999999" stroke="#666666" points="877.25,-57 703,-57 703,-25 877.25,-25 877.25,-57"/>
<text text-anchor="start" x="711" y="-43.5" font-family="Arial" font-size="10.00">AMyPlayerController</text>
<text text-anchor="middle" x="790.12" y="-31.5" font-family="Arial" font-size="10.00">::SetHUDAnnouncementCountdown</text>
</a>
</g>
</g>
<!-- Node2 -->
<g id="Node000002" class="node">
<title>Node2</title>
<g id="a_Node000002"><a xlink:href="class_a_my_player_controller.html#a572fee9304cdf938bb02635e9eb91f66" target="_top" xlink:title=" ">
<polygon fill="white" stroke="#666666" points="667,-82 561,-82 561,-50 667,-50 667,-82"/>
<text text-anchor="start" x="569" y="-68.5" font-family="Arial" font-size="10.00">AMyPlayerController</text>
<text text-anchor="middle" x="614" y="-56.5" font-family="Arial" font-size="10.00">::HandleCooldown</text>
</a>
</g>
</g>
<!-- Node1&#45;&gt;Node2 -->
<g id="edge1_Node000001_Node000002" class="edge">
<title>Node1&#45;&gt;Node2</title>
<g id="a_edge1_Node000001_Node000002"><a xlink:title=" ">
<path fill="none" stroke="#63b8ff" d="M691.23,-55.05C682.96,-56.24 674.82,-57.41 667.11,-58.52"/>
<polygon fill="#63b8ff" stroke="#63b8ff" points="691.67,-58.53 701.07,-53.64 690.68,-51.6 691.67,-58.53"/>
</a>
</g>
</g>
<!-- Node7 -->
<g id="Node000007" class="node">
<title>Node7</title>
<g id="a_Node000007"><a xlink:href="class_a_my_player_controller.html#a5e7f3a4755da2121e0e81ac727883566" target="_top" xlink:title=" ">
<polygon fill="white" stroke="#666666" points="667,-32 561,-32 561,0 667,0 667,-32"/>
<text text-anchor="start" x="569" y="-18.5" font-family="Arial" font-size="10.00">AMyPlayerController</text>
<text text-anchor="middle" x="614" y="-6.5" font-family="Arial" font-size="10.00">::SetHUDTime</text>
</a>
</g>
</g>
<!-- Node1&#45;&gt;Node7 -->
<g id="edge7_Node000001_Node000007" class="edge">
<title>Node1&#45;&gt;Node7</title>
<g id="a_edge7_Node000001_Node000007"><a xlink:title=" ">
<path fill="none" stroke="#63b8ff" d="M691.23,-26.95C682.96,-25.76 674.82,-24.59 667.11,-23.48"/>
<polygon fill="#63b8ff" stroke="#63b8ff" points="690.68,-30.4 701.07,-28.36 691.67,-23.47 690.68,-30.4"/>
</a>
</g>
</g>
<!-- Node3 -->
<g id="Node000003" class="node">
<title>Node3</title>
<g id="a_Node000003"><a xlink:href="class_a_my_player_controller.html#a58bb90e2c607ae458ec045dbf2822b39" target="_top" xlink:title=" ">
<polygon fill="white" stroke="#666666" points="523.88,-132 417.88,-132 417.88,-100 523.88,-100 523.88,-132"/>
<text text-anchor="start" x="425.88" y="-118.5" font-family="Arial" font-size="10.00">AMyPlayerController</text>
<text text-anchor="middle" x="470.88" y="-106.5" font-family="Arial" font-size="10.00">::OnMatchStateSet</text>
</a>
</g>
</g>
<!-- Node2&#45;&gt;Node3 -->
<g id="edge2_Node000002_Node000003" class="edge">
<title>Node2&#45;&gt;Node3</title>
<g id="a_edge2_Node000002_Node000003"><a xlink:title=" ">
<path fill="none" stroke="#63b8ff" d="M555.95,-86.21C543.4,-90.66 530.26,-95.32 518.19,-99.59"/>
<polygon fill="#63b8ff" stroke="#63b8ff" points="557.11,-89.52 565.36,-82.88 554.77,-82.92 557.11,-89.52"/>
</a>
</g>
</g>
<!-- Node6 -->
<g id="Node000006" class="node">
<title>Node6</title>
<g id="a_Node000006"><a xlink:href="class_a_my_player_controller.html#a6dc3bb158cda98a6fe1dab6933d2ca5d" target="_top" xlink:title=" ">
<polygon fill="white" stroke="#666666" points="525,-82 416.75,-82 416.75,-50 525,-50 525,-82"/>
<text text-anchor="start" x="424.75" y="-68.5" font-family="Arial" font-size="10.00">AMyPlayerController</text>
<text text-anchor="middle" x="470.88" y="-56.5" font-family="Arial" font-size="10.00">::OnRep_MatchState</text>
</a>
</g>
</g>
<!-- Node2&#45;&gt;Node6 -->
<g id="edge6_Node000002_Node000006" class="edge">
<title>Node2&#45;&gt;Node6</title>
<g id="a_edge6_Node000002_Node000006"><a xlink:title=" ">
<path fill="none" stroke="#63b8ff" d="M549.51,-66C541.4,-66 533.16,-66 525.23,-66"/>
<polygon fill="#63b8ff" stroke="#63b8ff" points="549.34,-69.5 559.34,-66 549.34,-62.5 549.34,-69.5"/>
</a>
</g>
</g>
<!-- Node4 -->
<g id="Node000004" class="node">
<title>Node4</title>
<g id="a_Node000004"><a xlink:href="class_a_main_game_mode.html#a9ce74e01903ba5be1fe712f629b2aa77" target="_top" xlink:title=" ">
<polygon fill="white" stroke="#666666" points="380.75,-126 202.75,-126 202.75,-106 380.75,-106 380.75,-126"/>
<text text-anchor="middle" x="291.75" y="-112.5" font-family="Arial" font-size="10.00">AMainGameMode::OnMatchStateSet</text>
</a>
</g>
</g>
<!-- Node3&#45;&gt;Node4 -->
<g id="edge3_Node000003_Node000004" class="edge">
<title>Node3&#45;&gt;Node4</title>
<g id="a_edge3_Node000003_Node000004"><a xlink:title=" ">
<path fill="none" stroke="#63b8ff" d="M406.34,-116C398.13,-116 389.62,-116 381.11,-116"/>
<polygon fill="#63b8ff" stroke="#63b8ff" points="406.18,-119.5 416.18,-116 406.18,-112.5 406.18,-119.5"/>
</a>
</g>
</g>
<!-- Node5 -->
<g id="Node000005" class="node">
<title>Node5</title>
<g id="a_Node000005"><a xlink:href="class_a_main_game_mode.html#ad1f68127027609b6b9083e860ffdeaf1" target="_top" xlink:title=" ">
<polygon fill="white" stroke="#666666" points="166.75,-132 0,-132 0,-100 166.75,-100 166.75,-132"/>
<text text-anchor="start" x="8" y="-118.5" font-family="Arial" font-size="10.00">AMainGameMode::GetMusicAudio</text>
<text text-anchor="middle" x="83.38" y="-106.5" font-family="Arial" font-size="10.00">Component</text>
</a>
</g>
</g>
<!-- Node4&#45;&gt;Node5 -->
<g id="edge4_Node000004_Node000005" class="edge">
<title>Node4&#45;&gt;Node5</title>
<g id="a_edge4_Node000004_Node000005"><a xlink:title=" ">
<path fill="none" stroke="#63b8ff" d="M191.02,-116C183,-116 174.94,-116 167.06,-116"/>
<polygon fill="#63b8ff" stroke="#63b8ff" points="190.82,-119.5 200.82,-116 190.82,-112.5 190.82,-119.5"/>
</a>
</g>
</g>
<!-- Node5&#45;&gt;Node5 -->
<g id="edge5_Node000005_Node000005" class="edge">
<title>Node5&#45;&gt;Node5</title>
<g id="a_edge5_Node000005_Node000005"><a xlink:title=" ">
<path fill="none" stroke="#63b8ff" d="M118.34,-143.54C112.64,-147.41 100.98,-150 83.38,-150 51.63,-150 39.23,-141.58 46.17,-132.44"/>
<polygon fill="#63b8ff" stroke="#63b8ff" points="121.74,-144.42 120.28,-133.93 114.88,-143.04 121.74,-144.42"/>
</a>
</g>
</g>
<!-- Node8 -->
<g id="Node000008" class="node">
<title>Node8</title>
<g id="a_Node000008"><a xlink:href="class_a_my_player_controller.html#ad0cd7f4f1cfcf6d8abd038d6a090f87e" target="_top" xlink:title=" ">
<polygon fill="white" stroke="#666666" points="523.88,-32 417.88,-32 417.88,0 523.88,0 523.88,-32"/>
<text text-anchor="start" x="425.88" y="-18.5" font-family="Arial" font-size="10.00">AMyPlayerController</text>
<text text-anchor="middle" x="470.88" y="-6.5" font-family="Arial" font-size="10.00">::Tick</text>
</a>
</g>
</g>
<!-- Node7&#45;&gt;Node8 -->
<g id="edge8_Node000007_Node000008" class="edge">
<title>Node7&#45;&gt;Node8</title>
<g id="a_edge8_Node000007_Node000008"><a xlink:title=" ">
<path fill="none" stroke="#63b8ff" d="M549.49,-16C541.06,-16 532.49,-16 524.28,-16"/>
<polygon fill="#63b8ff" stroke="#63b8ff" points="549.34,-19.5 559.34,-16 549.34,-12.5 549.34,-19.5"/>
</a>
</g>
</g>
</g>
</svg>
