<?xml version="1.0" encoding="UTF-8" standalone="no"?>
<!DOCTYPE svg PUBLIC "-//W3C//DTD SVG 1.1//EN"
 "http://www.w3.org/Graphics/SVG/1.1/DTD/svg11.dtd">
<!-- Generated by graphviz version 12.2.1 (20241206.2353)
 -->
<!-- Title: AMainCharacter::RotateInPlace Pages: 1 -->
<svg width="678pt" height="154pt"
 viewBox="0.00 0.00 678.00 154.00" xmlns="http://www.w3.org/2000/svg" xmlns:xlink="http://www.w3.org/1999/xlink">
<g id="graph0" class="graph" transform="scale(1 1) rotate(0) translate(4 150)">
<title>AMainCharacter::RotateInPlace</title>
<!-- Node1 -->
<g id="Node000001" class="node">
<title>Node1</title>
<g id="a_Node000001"><a xlink:title=" ">
<polygon fill="#999999" stroke="#666666" points="130,-102 0,-102 0,-70 130,-70 130,-102"/>
<text text-anchor="start" x="8" y="-88.5" font-family="Arial" font-size="10.00">AMainCharacter::RotateIn</text>
<text text-anchor="middle" x="65" y="-76.5" font-family="Arial" font-size="10.00">Place</text>
</a>
</g>
</g>
<!-- Node2 -->
<g id="Node000002" class="node">
<title>Node2</title>
<g id="a_Node000002"><a xlink:href="class_a_main_character.html#a6fa9a33c3dd4522ed81944aabc3114b8" target="_top" xlink:title=" ">
<polygon fill="white" stroke="#666666" points="302,-96 166,-96 166,-76 302,-76 302,-96"/>
<text text-anchor="middle" x="234" y="-82.5" font-family="Arial" font-size="10.00">AMainCharacter::AimOffset</text>
</a>
</g>
</g>
<!-- Node1&#45;&gt;Node2 -->
<g id="edge1_Node000001_Node000002" class="edge">
<title>Node1&#45;&gt;Node2</title>
<g id="a_edge1_Node000001_Node000002"><a xlink:title=" ">
<path fill="none" stroke="#63b8ff" d="M130.09,-86C138.03,-86 146.22,-86 154.34,-86"/>
<polygon fill="#63b8ff" stroke="#63b8ff" points="154.25,-89.5 164.25,-86 154.25,-82.5 154.25,-89.5"/>
</a>
</g>
</g>
<!-- Node3 -->
<g id="Node000003" class="node">
<title>Node3</title>
<g id="a_Node000003"><a xlink:href="class_a_main_character.html#a9294b45704fcfc1746e5f4c1433fcf0b" target="_top" xlink:title=" ">
<polygon fill="white" stroke="#666666" points="486,-146 352.25,-146 352.25,-114 486,-114 486,-146"/>
<text text-anchor="start" x="360.25" y="-132.5" font-family="Arial" font-size="10.00">AMainCharacter::Calculate</text>
<text text-anchor="middle" x="419.12" y="-120.5" font-family="Arial" font-size="10.00">AO_Pitch</text>
</a>
</g>
</g>
<!-- Node1&#45;&gt;Node3 -->
<g id="edge5_Node000001_Node000003" class="edge">
<title>Node1&#45;&gt;Node3</title>
<g id="a_edge5_Node000001_Node000003"><a xlink:title=" ">
<path fill="none" stroke="#63b8ff" d="M130.41,-99.11C142.22,-101.26 154.46,-103.33 166,-105 224.26,-113.41 290.51,-119.86 340.47,-124.1"/>
<polygon fill="#63b8ff" stroke="#63b8ff" points="340.07,-127.58 350.33,-124.92 340.66,-120.6 340.07,-127.58"/>
</a>
</g>
</g>
<!-- Node6 -->
<g id="Node000006" class="node">
<title>Node6</title>
<g id="a_Node000006"><a xlink:href="class_a_main_character.html#a0d4eb83adaa4bae05412bdc575f9c50b" target="_top" xlink:title=" ">
<polygon fill="white" stroke="#666666" points="295.62,-42 172.38,-42 172.38,-10 295.62,-10 295.62,-42"/>
<text text-anchor="start" x="180.38" y="-28.5" font-family="Arial" font-size="10.00">AMainCharacter::OnRep</text>
<text text-anchor="middle" x="234" y="-16.5" font-family="Arial" font-size="10.00">_ReplicatedMovement</text>
</a>
</g>
</g>
<!-- Node1&#45;&gt;Node6 -->
<g id="edge6_Node000001_Node000006" class="edge">
<title>Node1&#45;&gt;Node6</title>
<g id="a_edge6_Node000001_Node000006"><a xlink:title=" ">
<path fill="none" stroke="#63b8ff" d="M111.63,-69.6C131.62,-62.42 155.27,-53.93 176.37,-46.35"/>
<polygon fill="#63b8ff" stroke="#63b8ff" points="177.48,-49.67 185.71,-42.99 175.11,-43.08 177.48,-49.67"/>
</a>
</g>
</g>
<!-- Node2&#45;&gt;Node3 -->
<g id="edge2_Node000002_Node000003" class="edge">
<title>Node2&#45;&gt;Node3</title>
<g id="a_edge2_Node000002_Node000003"><a xlink:title=" ">
<path fill="none" stroke="#63b8ff" d="M278.4,-96.43C297.04,-100.91 319.41,-106.28 340.73,-111.4"/>
<polygon fill="#63b8ff" stroke="#63b8ff" points="339.74,-114.77 350.28,-113.7 341.38,-107.96 339.74,-114.77"/>
</a>
</g>
</g>
<!-- Node4 -->
<g id="Node000004" class="node">
<title>Node4</title>
<g id="a_Node000004"><a xlink:href="class_a_main_character.html#a9596fe587a29a2671db7db619b16b46d" target="_top" xlink:title=" ">
<polygon fill="white" stroke="#666666" points="670,-64 536.25,-64 536.25,-32 670,-32 670,-64"/>
<text text-anchor="start" x="544.25" y="-50.5" font-family="Arial" font-size="10.00">AMainCharacter::Calculate</text>
<text text-anchor="middle" x="603.12" y="-38.5" font-family="Arial" font-size="10.00">Speed</text>
</a>
</g>
</g>
<!-- Node2&#45;&gt;Node4 -->
<g id="edge3_Node000002_Node000004" class="edge">
<title>Node2&#45;&gt;Node4</title>
<g id="a_edge3_Node000002_Node000004"><a xlink:title=" ">
<path fill="none" stroke="#63b8ff" d="M302.25,-83.28C356,-80.61 433.17,-75.63 500.25,-67 508.22,-65.97 516.52,-64.73 524.78,-63.37"/>
<polygon fill="#63b8ff" stroke="#63b8ff" points="525.23,-66.84 534.5,-61.71 524.05,-59.94 525.23,-66.84"/>
</a>
</g>
</g>
<!-- Node5 -->
<g id="Node000005" class="node">
<title>Node5</title>
<g id="a_Node000005"><a xlink:href="class_a_main_character.html#a11a0d4e525d8b74552333de269a1e59d" target="_top" xlink:title=" ">
<polygon fill="white" stroke="#666666" points="491.62,-58 346.62,-58 346.62,-38 491.62,-38 491.62,-58"/>
<text text-anchor="middle" x="419.12" y="-44.5" font-family="Arial" font-size="10.00">AMainCharacter::TurnInPlace</text>
</a>
</g>
</g>
<!-- Node2&#45;&gt;Node5 -->
<g id="edge4_Node000002_Node000005" class="edge">
<title>Node2&#45;&gt;Node5</title>
<g id="a_edge4_Node000002_Node000005"><a xlink:title=" ">
<path fill="none" stroke="#63b8ff" d="M285.52,-75.52C307.54,-70.95 333.55,-65.55 356.67,-60.75"/>
<polygon fill="#63b8ff" stroke="#63b8ff" points="357.2,-64.22 366.28,-58.76 355.78,-57.36 357.2,-64.22"/>
</a>
</g>
</g>
<!-- Node7 -->
<g id="Node000007" class="node">
<title>Node7</title>
<g id="a_Node000007"><a xlink:href="class_a_main_character.html#ad664d0ab39058e928e96c8abf84f36bf" target="_top" xlink:title=" ">
<polygon fill="white" stroke="#666666" points="500.25,-20 338,-20 338,0 500.25,0 500.25,-20"/>
<text text-anchor="middle" x="419.12" y="-6.5" font-family="Arial" font-size="10.00">AMainCharacter::SimProxiesTurn</text>
</a>
</g>
</g>
<!-- Node6&#45;&gt;Node7 -->
<g id="edge7_Node000006_Node000007" class="edge">
<title>Node6&#45;&gt;Node7</title>
<g id="a_edge7_Node000006_Node000007"><a xlink:title=" ">
<path fill="none" stroke="#63b8ff" d="M295.98,-20.67C305.76,-19.82 316.06,-18.92 326.37,-18.02"/>
<polygon fill="#63b8ff" stroke="#63b8ff" points="326.37,-21.53 336.03,-17.17 325.76,-14.56 326.37,-21.53"/>
</a>
</g>
</g>
<!-- Node7&#45;&gt;Node4 -->
<g id="edge8_Node000007_Node000004" class="edge">
<title>Node7&#45;&gt;Node4</title>
<g id="a_edge8_Node000007_Node000004"><a xlink:title=" ">
<path fill="none" stroke="#63b8ff" d="M470.34,-20.48C487.23,-24.01 506.5,-28.03 524.98,-31.89"/>
<polygon fill="#63b8ff" stroke="#63b8ff" points="524.06,-35.28 534.57,-33.89 525.49,-28.42 524.06,-35.28"/>
</a>
</g>
</g>
</g>
</svg>
