<?xml version="1.0" encoding="UTF-8" standalone="no"?>
<!DOCTYPE svg PUBLIC "-//W3C//DTD SVG 1.1//EN"
 "http://www.w3.org/Graphics/SVG/1.1/DTD/svg11.dtd">
<!-- Generated by graphviz version 12.2.1 (20241206.2353)
 -->
<!-- Title: AMainGameMode::GetMusicAudioComponent Pages: 1 -->
<svg width="971pt" height="225pt"
 viewBox="0.00 0.00 970.75 225.00" xmlns="http://www.w3.org/2000/svg" xmlns:xlink="http://www.w3.org/1999/xlink">
<g id="graph0" class="graph" transform="scale(1 1) rotate(0) translate(4 221)">
<title>AMainGameMode::GetMusicAudioComponent</title>
<!-- Node1 -->
<g id="Node000001" class="node">
<title>Node1</title>
<g id="a_Node000001"><a xlink:title=" ">
<polygon fill="#999999" stroke="#666666" points="166.75,-135 0,-135 0,-103 166.75,-103 166.75,-135"/>
<text text-anchor="start" x="8" y="-121.5" font-family="Arial" font-size="10.00">AMainGameMode::GetMusicAudio</text>
<text text-anchor="middle" x="83.38" y="-109.5" font-family="Arial" font-size="10.00">Component</text>
</a>
</g>
</g>
<!-- Node1&#45;&gt;Node1 -->
<g id="edge4_Node000001_Node000001" class="edge">
<title>Node1&#45;&gt;Node1</title>
<g id="a_edge4_Node000001_Node000001"><a xlink:title=" ">
<path fill="none" stroke="#63b8ff" d="M46.17,-135.44C39.23,-144.58 51.63,-153 83.38,-153 100.98,-153 112.64,-150.41 118.34,-146.54"/>
<polygon fill="#63b8ff" stroke="#63b8ff" points="121.74,-147.42 120.28,-136.93 114.88,-146.04 121.74,-147.42"/>
</a>
</g>
</g>
<!-- Node2 -->
<g id="Node000002" class="node">
<title>Node2</title>
<g id="a_Node000002"><a xlink:href="class_a_main_game_mode.html#adcc0f620c93ea4cef3b00ca95dea68e7" target="_top" xlink:title=" ">
<polygon fill="white" stroke="#666666" points="363.88,-186 219.62,-186 219.62,-166 363.88,-166 363.88,-186"/>
<text text-anchor="middle" x="291.75" y="-172.5" font-family="Arial" font-size="10.00">AMainGameMode::BeginPlay</text>
</a>
</g>
</g>
<!-- Node1&#45;&gt;Node2 -->
<g id="edge1_Node000001_Node000002" class="edge">
<title>Node1&#45;&gt;Node2</title>
<g id="a_edge1_Node000001_Node000002"><a xlink:title=" ">
<path fill="none" stroke="#63b8ff" d="M143.06,-135.43C162.1,-140.74 183.31,-146.64 202.75,-152 215.27,-155.45 228.79,-159.15 241.39,-162.59"/>
<polygon fill="#63b8ff" stroke="#63b8ff" points="240.16,-165.88 250.72,-165.13 242,-159.13 240.16,-165.88"/>
</a>
</g>
</g>
<!-- Node5 -->
<g id="Node000005" class="node">
<title>Node5</title>
<g id="a_Node000005"><a xlink:href="class_a_main_game_mode.html#aac3b82e6acfa520c65769ca3c2f60c2b" target="_top" xlink:title=" ">
<polygon fill="white" stroke="#666666" points="587.25,-126 416.75,-126 416.75,-106 587.25,-106 587.25,-126"/>
<text text-anchor="middle" x="502" y="-112.5" font-family="Arial" font-size="10.00">AMainGameMode::HandleHighPing</text>
</a>
</g>
</g>
<!-- Node1&#45;&gt;Node5 -->
<g id="edge5_Node000001_Node000005" class="edge">
<title>Node1&#45;&gt;Node5</title>
<g id="a_edge5_Node000001_Node000005"><a xlink:title=" ">
<path fill="none" stroke="#63b8ff" d="M167.1,-119.55C226.54,-119.81 308.59,-119.9 380.75,-119 388.56,-118.9 396.65,-118.77 404.77,-118.61"/>
<polygon fill="#63b8ff" stroke="#63b8ff" points="404.82,-122.11 414.74,-118.41 404.67,-115.12 404.82,-122.11"/>
</a>
</g>
</g>
<!-- Node6 -->
<g id="Node000006" class="node">
<title>Node6</title>
<g id="a_Node000006"><a xlink:href="class_a_main_game_mode.html#a9ce74e01903ba5be1fe712f629b2aa77" target="_top" xlink:title=" ">
<polygon fill="white" stroke="#666666" points="380.75,-72 202.75,-72 202.75,-52 380.75,-52 380.75,-72"/>
<text text-anchor="middle" x="291.75" y="-58.5" font-family="Arial" font-size="10.00">AMainGameMode::OnMatchStateSet</text>
</a>
</g>
</g>
<!-- Node1&#45;&gt;Node6 -->
<g id="edge6_Node000001_Node000006" class="edge">
<title>Node1&#45;&gt;Node6</title>
<g id="a_edge6_Node000001_Node000006"><a xlink:title=" ">
<path fill="none" stroke="#63b8ff" d="M131.86,-102.58C153.36,-95.45 179.19,-87.31 202.75,-81 210.64,-78.89 218.97,-76.85 227.24,-74.93"/>
<polygon fill="#63b8ff" stroke="#63b8ff" points="227.97,-78.36 236.95,-72.75 226.43,-71.53 227.97,-78.36"/>
</a>
</g>
</g>
<!-- Node13 -->
<g id="Node000013" class="node">
<title>Node13</title>
<g id="a_Node000013"><a xlink:href="class_a_main_game_mode.html#a801f2a355cc703b4311b08db58d0ed9b" target="_top" xlink:title=" ">
<polygon fill="white" stroke="#666666" points="363.5,-110 220,-110 220,-90 363.5,-90 363.5,-110"/>
<text text-anchor="middle" x="291.75" y="-96.5" font-family="Arial" font-size="10.00">AMainGameMode::PostLogin</text>
</a>
</g>
</g>
<!-- Node1&#45;&gt;Node13 -->
<g id="edge13_Node000001_Node000013" class="edge">
<title>Node1&#45;&gt;Node13</title>
<g id="a_edge13_Node000001_Node000013"><a xlink:title=" ">
<path fill="none" stroke="#63b8ff" d="M167.13,-111.38C180.71,-110.13 194.78,-108.84 208.35,-107.59"/>
<polygon fill="#63b8ff" stroke="#63b8ff" points="208.46,-111.09 218.1,-106.69 207.82,-104.12 208.46,-111.09"/>
</a>
</g>
</g>
<!-- Node3 -->
<g id="Node000003" class="node">
<title>Node3</title>
<g id="a_Node000003"><a xlink:href="class_u_buff_database_manager.html#ae866f9a543fc1382dfa84a64cc7e8384" target="_top" xlink:title=" ">
<polygon fill="white" stroke="#666666" points="573,-217 431,-217 431,-197 573,-197 573,-217"/>
<text text-anchor="middle" x="502" y="-203.5" font-family="Arial" font-size="10.00">UBuffDatabaseManager::Get</text>
</a>
</g>
</g>
<!-- Node2&#45;&gt;Node3 -->
<g id="edge2_Node000002_Node000003" class="edge">
<title>Node2&#45;&gt;Node3</title>
<g id="a_edge2_Node000002_Node000003"><a xlink:title=" ">
<path fill="none" stroke="#63b8ff" d="M363.25,-186.5C381.23,-189.17 400.71,-192.07 419.2,-194.82"/>
<polygon fill="#63b8ff" stroke="#63b8ff" points="418.67,-198.28 429.07,-196.29 419.7,-191.36 418.67,-198.28"/>
</a>
</g>
</g>
<!-- Node4 -->
<g id="Node000004" class="node">
<title>Node4</title>
<g id="a_Node000004"><a xlink:href="class_u_buff_database_manager.html#abe0d0f39929b126a6f911df6b1555228" target="_top" xlink:title=" ">
<polygon fill="white" stroke="#666666" points="562.12,-179 441.88,-179 441.88,-147 562.12,-147 562.12,-179"/>
<text text-anchor="start" x="449.88" y="-165.5" font-family="Arial" font-size="10.00">UBuffDatabaseManager</text>
<text text-anchor="middle" x="502" y="-153.5" font-family="Arial" font-size="10.00">::LoadBuffs</text>
</a>
</g>
</g>
<!-- Node2&#45;&gt;Node4 -->
<g id="edge3_Node000002_Node000004" class="edge">
<title>Node2&#45;&gt;Node4</title>
<g id="a_edge3_Node000002_Node000004"><a xlink:title=" ">
<path fill="none" stroke="#63b8ff" d="M364.13,-171.54C385.48,-170.21 408.89,-168.75 430.21,-167.42"/>
<polygon fill="#63b8ff" stroke="#63b8ff" points="430.21,-170.93 439.97,-166.81 429.77,-163.94 430.21,-170.93"/>
</a>
</g>
</g>
<!-- Node7 -->
<g id="Node000007" class="node">
<title>Node7</title>
<g id="a_Node000007"><a xlink:href="class_a_my_player_controller.html#a58bb90e2c607ae458ec045dbf2822b39" target="_top" xlink:title=" ">
<polygon fill="white" stroke="#666666" points="555,-82 449,-82 449,-50 555,-50 555,-82"/>
<text text-anchor="start" x="457" y="-68.5" font-family="Arial" font-size="10.00">AMyPlayerController</text>
<text text-anchor="middle" x="502" y="-56.5" font-family="Arial" font-size="10.00">::OnMatchStateSet</text>
</a>
</g>
</g>
<!-- Node6&#45;&gt;Node7 -->
<g id="edge7_Node000006_Node000007" class="edge">
<title>Node6&#45;&gt;Node7</title>
<g id="a_edge7_Node000006_Node000007"><a xlink:title=" ">
<path fill="none" stroke="#63b8ff" d="M381.07,-63.7C399.98,-64.06 419.61,-64.44 437.37,-64.78"/>
<polygon fill="#63b8ff" stroke="#63b8ff" points="437.17,-68.27 447.24,-64.97 437.31,-61.28 437.17,-68.27"/>
</a>
</g>
</g>
<!-- Node12 -->
<g id="Node000012" class="node">
<title>Node12</title>
<g id="a_Node000012"><a xlink:href="class_a_my_player_controller.html#a340478fbf93615262721ae64cee4274d" target="_top" xlink:title=" ">
<polygon fill="white" stroke="#666666" points="564,-32 440,-32 440,0 564,0 564,-32"/>
<text text-anchor="start" x="448" y="-18.5" font-family="Arial" font-size="10.00">AMyPlayerController</text>
<text text-anchor="middle" x="502" y="-6.5" font-family="Arial" font-size="10.00">::SetMatchStateUpdated</text>
</a>
</g>
</g>
<!-- Node6&#45;&gt;Node12 -->
<g id="edge12_Node000006_Node000012" class="edge">
<title>Node6&#45;&gt;Node12</title>
<g id="a_edge12_Node000006_Node000012"><a xlink:title=" ">
<path fill="none" stroke="#63b8ff" d="M340.27,-51.5C366.45,-45.72 399.5,-38.42 428.81,-31.95"/>
<polygon fill="#63b8ff" stroke="#63b8ff" points="429.35,-35.41 438.36,-29.84 427.84,-28.58 429.35,-35.41"/>
</a>
</g>
</g>
<!-- Node8 -->
<g id="Node000008" class="node">
<title>Node8</title>
<g id="a_Node000008"><a xlink:href="class_a_my_player_controller.html#a572fee9304cdf938bb02635e9eb91f66" target="_top" xlink:title=" ">
<polygon fill="white" stroke="#666666" points="740.88,-107 634.88,-107 634.88,-75 740.88,-75 740.88,-107"/>
<text text-anchor="start" x="642.88" y="-93.5" font-family="Arial" font-size="10.00">AMyPlayerController</text>
<text text-anchor="middle" x="687.88" y="-81.5" font-family="Arial" font-size="10.00">::HandleCooldown</text>
</a>
</g>
</g>
<!-- Node7&#45;&gt;Node8 -->
<g id="edge8_Node000007_Node000008" class="edge">
<title>Node7&#45;&gt;Node8</title>
<g id="a_edge8_Node000007_Node000008"><a xlink:title=" ">
<path fill="none" stroke="#63b8ff" d="M555.2,-73.1C576.36,-75.97 600.99,-79.32 623.19,-82.34"/>
<polygon fill="#63b8ff" stroke="#63b8ff" points="622.66,-85.8 633.05,-83.68 623.61,-78.87 622.66,-85.8"/>
</a>
</g>
</g>
<!-- Node11 -->
<g id="Node000011" class="node">
<title>Node11</title>
<g id="a_Node000011"><a xlink:href="class_a_my_player_controller.html#a60eda2b87c5436856db0f5b2167af8a6" target="_top" xlink:title=" ">
<polygon fill="white" stroke="#666666" points="752.5,-57 623.25,-57 623.25,-25 752.5,-25 752.5,-57"/>
<text text-anchor="start" x="631.25" y="-43.5" font-family="Arial" font-size="10.00">AMyPlayerController</text>
<text text-anchor="middle" x="687.88" y="-31.5" font-family="Arial" font-size="10.00">::HandleMatchHasStarted</text>
</a>
</g>
</g>
<!-- Node7&#45;&gt;Node11 -->
<g id="edge11_Node000007_Node000011" class="edge">
<title>Node7&#45;&gt;Node11</title>
<g id="a_edge11_Node000007_Node000011"><a xlink:title=" ">
<path fill="none" stroke="#63b8ff" d="M555.2,-58.9C572.69,-56.52 592.56,-53.82 611.46,-51.25"/>
<polygon fill="#63b8ff" stroke="#63b8ff" points="611.83,-54.74 621.27,-49.92 610.89,-47.8 611.83,-54.74"/>
</a>
</g>
</g>
<!-- Node9 -->
<g id="Node000009" class="node">
<title>Node9</title>
<g id="a_Node000009"><a xlink:href="class_a_main_character.html#afd1dc526cd36c5de139a7e5ff2b48432" target="_top" xlink:title=" ">
<polygon fill="white" stroke="#666666" points="947,-123 804.25,-123 804.25,-103 947,-103 947,-123"/>
<text text-anchor="middle" x="875.62" y="-109.5" font-family="Arial" font-size="10.00">AMainCharacter::GetCombat</text>
</a>
</g>
</g>
<!-- Node8&#45;&gt;Node9 -->
<g id="edge9_Node000008_Node000009" class="edge">
<title>Node8&#45;&gt;Node9</title>
<g id="a_edge9_Node000008_Node000009"><a xlink:title=" ">
<path fill="none" stroke="#63b8ff" d="M741.11,-97.19C757.13,-99.08 775.16,-101.22 792.67,-103.29"/>
<polygon fill="#63b8ff" stroke="#63b8ff" points="792.22,-106.76 802.56,-104.47 793.05,-99.81 792.22,-106.76"/>
</a>
</g>
</g>
<!-- Node10 -->
<g id="Node000010" class="node">
<title>Node10</title>
<g id="a_Node000010"><a xlink:href="class_a_my_player_controller.html#a23312ab13b910b000bc7bfaf675a2899" target="_top" xlink:title=" ">
<polygon fill="white" stroke="#666666" points="962.75,-85 788.5,-85 788.5,-53 962.75,-53 962.75,-85"/>
<text text-anchor="start" x="796.5" y="-71.5" font-family="Arial" font-size="10.00">AMyPlayerController</text>
<text text-anchor="middle" x="875.62" y="-59.5" font-family="Arial" font-size="10.00">::SetHUDAnnouncementCountdown</text>
</a>
</g>
</g>
<!-- Node8&#45;&gt;Node10 -->
<g id="edge10_Node000008_Node000010" class="edge">
<title>Node8&#45;&gt;Node10</title>
<g id="a_edge10_Node000008_Node000010"><a xlink:title=" ">
<path fill="none" stroke="#63b8ff" d="M741.11,-84.81C752.37,-83.48 764.61,-82.03 776.97,-80.57"/>
<polygon fill="#63b8ff" stroke="#63b8ff" points="777.31,-84.05 786.83,-79.4 776.49,-77.1 777.31,-84.05"/>
</a>
</g>
</g>
<!-- Node13&#45;&gt;Node5 -->
<g id="edge14_Node000013_Node000005" class="edge">
<title>Node13&#45;&gt;Node5</title>
<g id="a_edge14_Node000013_Node000005"><a xlink:title=" ">
<path fill="none" stroke="#63b8ff" d="M363.84,-105.46C377.22,-106.49 391.43,-107.58 405.42,-108.66"/>
<polygon fill="#63b8ff" stroke="#63b8ff" points="404.83,-112.12 415.07,-109.4 405.37,-105.14 404.83,-112.12"/>
</a>
</g>
</g>
</g>
</svg>
