<?xml version="1.0" encoding="UTF-8" standalone="no"?>
<!DOCTYPE svg PUBLIC "-//W3C//DTD SVG 1.1//EN"
 "http://www.w3.org/Graphics/SVG/1.1/DTD/svg11.dtd">
<!-- Generated by graphviz version 12.2.1 (20241206.2353)
 -->
<!-- Title: AProjectileBullet::OnHit Pages: 1 -->
<svg width="325pt" height="128pt"
 viewBox="0.00 0.00 325.00 128.00" xmlns="http://www.w3.org/2000/svg" xmlns:xlink="http://www.w3.org/1999/xlink">
<g id="graph0" class="graph" transform="scale(1 1) rotate(0) translate(4 124)">
<title>AProjectileBullet::OnHit</title>
<!-- Node1 -->
<g id="Node000001" class="node">
<title>Node1</title>
<g id="a_Node000001"><a xlink:title=" ">
<polygon fill="#999999" stroke="#666666" points="94,-76 0,-76 0,-44 94,-44 94,-76"/>
<text text-anchor="start" x="8" y="-62.5" font-family="Arial" font-size="10.00">AProjectileBullet::</text>
<text text-anchor="middle" x="47" y="-50.5" font-family="Arial" font-size="10.00">OnHit</text>
</a>
</g>
</g>
<!-- Node2 -->
<g id="Node000002" class="node">
<title>Node2</title>
<g id="a_Node000002"><a xlink:href="class_a_main_character.html#a8d65d0a87c24d6dad50502cbd01ae7ef" target="_top" xlink:title=" ">
<polygon fill="white" stroke="#666666" points="296,-120 151,-120 151,-88 296,-88 296,-120"/>
<text text-anchor="start" x="159" y="-106.5" font-family="Arial" font-size="10.00">AMainCharacter::GetDamage</text>
<text text-anchor="middle" x="223.5" y="-94.5" font-family="Arial" font-size="10.00">Multiplier</text>
</a>
</g>
</g>
<!-- Node1&#45;&gt;Node2 -->
<g id="edge1_Node000001_Node000002" class="edge">
<title>Node1&#45;&gt;Node2</title>
<g id="a_edge1_Node000001_Node000002"><a xlink:title=" ">
<path fill="none" stroke="#63b8ff" d="M94.3,-71.68C110.28,-75.7 128.61,-80.33 146.33,-84.79"/>
<polygon fill="#63b8ff" stroke="#63b8ff" points="145.24,-88.13 155.79,-87.18 146.95,-81.34 145.24,-88.13"/>
</a>
</g>
</g>
<!-- Node3 -->
<g id="Node000003" class="node">
<title>Node3</title>
<g id="a_Node000003"><a xlink:href="class_a_main_character.html#a5a6433b6b91ca0944568e9f217648fdd" target="_top" xlink:title=" ">
<polygon fill="white" stroke="#666666" points="317,-70 130,-70 130,-50 317,-50 317,-70"/>
<text text-anchor="middle" x="223.5" y="-56.5" font-family="Arial" font-size="10.00">AMainCharacter::GetLagCompensation</text>
</a>
</g>
</g>
<!-- Node1&#45;&gt;Node3 -->
<g id="edge2_Node000001_Node000003" class="edge">
<title>Node1&#45;&gt;Node3</title>
<g id="a_edge2_Node000001_Node000003"><a xlink:title=" ">
<path fill="none" stroke="#63b8ff" d="M94.3,-60C101.87,-60 109.97,-60 118.28,-60"/>
<polygon fill="#63b8ff" stroke="#63b8ff" points="118.2,-63.5 128.2,-60 118.2,-56.5 118.2,-63.5"/>
</a>
</g>
</g>
<!-- Node4 -->
<g id="Node000004" class="node">
<title>Node4</title>
<g id="a_Node000004"><a xlink:href="class_a_my_player_controller.html#a72a209272a3fddb39a6446c83d1dd330" target="_top" xlink:title=" ">
<polygon fill="white" stroke="#666666" points="276.5,-32 170.5,-32 170.5,0 276.5,0 276.5,-32"/>
<text text-anchor="start" x="178.5" y="-18.5" font-family="Arial" font-size="10.00">AMyPlayerController</text>
<text text-anchor="middle" x="223.5" y="-6.5" font-family="Arial" font-size="10.00">::GetServerTime</text>
</a>
</g>
</g>
<!-- Node1&#45;&gt;Node4 -->
<g id="edge3_Node000001_Node000004" class="edge">
<title>Node1&#45;&gt;Node4</title>
<g id="a_edge3_Node000001_Node000004"><a xlink:title=" ">
<path fill="none" stroke="#63b8ff" d="M94.3,-48.32C114.17,-43.32 137.69,-37.38 159.13,-31.98"/>
<polygon fill="#63b8ff" stroke="#63b8ff" points="159.81,-35.42 168.65,-29.58 158.1,-28.63 159.81,-35.42"/>
</a>
</g>
</g>
</g>
</svg>
