<?xml version="1.0" encoding="UTF-8" standalone="no"?>
<!DOCTYPE svg PUBLIC "-//W3C//DTD SVG 1.1//EN"
 "http://www.w3.org/Graphics/SVG/1.1/DTD/svg11.dtd">
<!-- Generated by graphviz version 12.2.1 (20241206.2353)
 -->
<!-- Title: ABaseWeapon::ClientUpdateAmmo Pages: 1 -->
<svg width="498pt" height="46pt"
 viewBox="0.00 0.00 497.75 46.00" xmlns="http://www.w3.org/2000/svg" xmlns:xlink="http://www.w3.org/1999/xlink">
<g id="graph0" class="graph" transform="scale(1 1) rotate(0) translate(4 42)">
<title>ABaseWeapon::ClientUpdateAmmo</title>
<!-- Node1 -->
<g id="Node000001" class="node">
<title>Node1</title>
<g id="a_Node000001"><a xlink:title=" ">
<polygon fill="#999999" stroke="#666666" points="489.75,-20 317.75,-20 317.75,0 489.75,0 489.75,-20"/>
<text text-anchor="middle" x="403.75" y="-6.5" font-family="Arial" font-size="10.00">ABaseWeapon::ClientUpdateAmmo</text>
</a>
</g>
</g>
<!-- Node1&#45;&gt;Node1 -->
<g id="edge1_Node000001_Node000001" class="edge">
<title>Node1&#45;&gt;Node1</title>
<g id="a_edge1_Node000001_Node000001"><a xlink:title=" ">
<path fill="none" stroke="#63b8ff" d="M438.29,-31.11C434.17,-35.14 422.66,-38 403.75,-38 370.14,-38 359.89,-28.98 373.02,-20.34"/>
<polygon fill="#63b8ff" stroke="#63b8ff" points="441.62,-30.02 434.98,-21.77 435.02,-32.36 441.62,-30.02"/>
</a>
</g>
</g>
<!-- Node2 -->
<g id="Node000002" class="node">
<title>Node2</title>
<g id="a_Node000002"><a xlink:href="class_a_base_weapon.html#aca65357c857be2de97da359100804be2" target="_top" xlink:title=" ">
<polygon fill="white" stroke="#666666" points="281.75,-20 139,-20 139,0 281.75,0 281.75,-20"/>
<text text-anchor="middle" x="210.38" y="-6.5" font-family="Arial" font-size="10.00">ABaseWeapon::SpendRound</text>
</a>
</g>
</g>
<!-- Node1&#45;&gt;Node2 -->
<g id="edge2_Node000001_Node000002" class="edge">
<title>Node1&#45;&gt;Node2</title>
<g id="a_edge2_Node000001_Node000002"><a xlink:title=" ">
<path fill="none" stroke="#63b8ff" d="M306.07,-3.25C298.04,-3.26 290.01,-3.32 282.22,-3.46"/>
<polygon fill="#63b8ff" stroke="#63b8ff" points="305.89,-6.75 315.9,-3.28 305.91,0.25 305.89,-6.75"/>
</a>
</g>
</g>
<!-- Node2&#45;&gt;Node1 -->
<g id="edge3_Node000002_Node000001" class="edge">
<title>Node2&#45;&gt;Node1</title>
<g id="a_edge3_Node000002_Node000001"><a xlink:title=" ">
<path fill="none" stroke="#63b8ff" d="M293.64,-16.69C301.52,-16.76 309.51,-16.77 317.42,-16.71"/>
<polygon fill="#63b8ff" stroke="#63b8ff" points="293.78,-13.19 283.73,-16.56 293.69,-20.19 293.78,-13.19"/>
</a>
</g>
</g>
<!-- Node3 -->
<g id="Node000003" class="node">
<title>Node3</title>
<g id="a_Node000003"><a xlink:href="class_a_base_weapon.html#a106c429cae78229f74086bb175e1cf7e" target="_top" xlink:title=" ">
<polygon fill="white" stroke="#666666" points="103,-20 0,-20 0,0 103,0 103,-20"/>
<text text-anchor="middle" x="51.5" y="-6.5" font-family="Arial" font-size="10.00">ABaseWeapon::Fire</text>
</a>
</g>
</g>
<!-- Node2&#45;&gt;Node3 -->
<g id="edge4_Node000002_Node000003" class="edge">
<title>Node2&#45;&gt;Node3</title>
<g id="a_edge4_Node000002_Node000003"><a xlink:title=" ">
<path fill="none" stroke="#63b8ff" d="M127.29,-10C119.19,-10 111.15,-10 103.5,-10"/>
<polygon fill="#63b8ff" stroke="#63b8ff" points="127.23,-13.5 137.23,-10 127.23,-6.5 127.23,-13.5"/>
</a>
</g>
</g>
</g>
</svg>
