<?xml version="1.0" encoding="UTF-8" standalone="no"?>
<!DOCTYPE svg PUBLIC "-//W3C//DTD SVG 1.1//EN"
 "http://www.w3.org/Graphics/SVG/1.1/DTD/svg11.dtd">
<!-- Generated by graphviz version 12.2.1 (20241206.2353)
 -->
<!-- Title: UBuffDatabaseManager::LoadBuffs Pages: 1 -->
<svg width="511pt" height="58pt"
 viewBox="0.00 0.00 511.25 58.00" xmlns="http://www.w3.org/2000/svg" xmlns:xlink="http://www.w3.org/1999/xlink">
<g id="graph0" class="graph" transform="scale(1 1) rotate(0) translate(4 54)">
<title>UBuffDatabaseManager::LoadBuffs</title>
<!-- Node1 -->
<g id="Node000001" class="node">
<title>Node1</title>
<g id="a_Node000001"><a xlink:title=" ">
<polygon fill="#999999" stroke="#666666" points="503.25,-32 383,-32 383,0 503.25,0 503.25,-32"/>
<text text-anchor="start" x="391" y="-18.5" font-family="Arial" font-size="10.00">UBuffDatabaseManager</text>
<text text-anchor="middle" x="443.12" y="-6.5" font-family="Arial" font-size="10.00">::LoadBuffs</text>
</a>
</g>
</g>
<!-- Node2 -->
<g id="Node000002" class="node">
<title>Node2</title>
<g id="a_Node000002"><a xlink:href="class_a_main_game_mode.html#adcc0f620c93ea4cef3b00ca95dea68e7" target="_top" xlink:title=" ">
<polygon fill="white" stroke="#666666" points="347,-26 202.75,-26 202.75,-6 347,-6 347,-26"/>
<text text-anchor="middle" x="274.88" y="-12.5" font-family="Arial" font-size="10.00">AMainGameMode::BeginPlay</text>
</a>
</g>
</g>
<!-- Node1&#45;&gt;Node2 -->
<g id="edge1_Node000001_Node000002" class="edge">
<title>Node1&#45;&gt;Node2</title>
<g id="a_edge1_Node000001_Node000002"><a xlink:title=" ">
<path fill="none" stroke="#63b8ff" d="M371.12,-16C363.2,-16 355.13,-16 347.21,-16"/>
<polygon fill="#63b8ff" stroke="#63b8ff" points="371.06,-19.5 381.06,-16 371.06,-12.5 371.06,-19.5"/>
</a>
</g>
</g>
<!-- Node3 -->
<g id="Node000003" class="node">
<title>Node3</title>
<g id="a_Node000003"><a xlink:href="class_a_main_game_mode.html#ad1f68127027609b6b9083e860ffdeaf1" target="_top" xlink:title=" ">
<polygon fill="white" stroke="#666666" points="166.75,-32 0,-32 0,0 166.75,0 166.75,-32"/>
<text text-anchor="start" x="8" y="-18.5" font-family="Arial" font-size="10.00">AMainGameMode::GetMusicAudio</text>
<text text-anchor="middle" x="83.38" y="-6.5" font-family="Arial" font-size="10.00">Component</text>
</a>
</g>
</g>
<!-- Node2&#45;&gt;Node3 -->
<g id="edge2_Node000002_Node000003" class="edge">
<title>Node2&#45;&gt;Node3</title>
<g id="a_edge2_Node000002_Node000003"><a xlink:title=" ">
<path fill="none" stroke="#63b8ff" d="M191.01,-16C183.09,-16 175.06,-16 167.14,-16"/>
<polygon fill="#63b8ff" stroke="#63b8ff" points="190.99,-19.5 200.99,-16 190.99,-12.5 190.99,-19.5"/>
</a>
</g>
</g>
<!-- Node3&#45;&gt;Node3 -->
<g id="edge3_Node000003_Node000003" class="edge">
<title>Node3&#45;&gt;Node3</title>
<g id="a_edge3_Node000003_Node000003"><a xlink:title=" ">
<path fill="none" stroke="#63b8ff" d="M115.29,-43.71C109.97,-47.48 99.33,-50 83.38,-50 54.2,-50 42.81,-41.58 49.19,-32.44"/>
<polygon fill="#63b8ff" stroke="#63b8ff" points="118.71,-44.42 117.26,-33.93 111.85,-43.04 118.71,-44.42"/>
</a>
</g>
</g>
</g>
</svg>
