<?xml version="1.0" encoding="UTF-8" standalone="no"?>
<!DOCTYPE svg PUBLIC "-//W3C//DTD SVG 1.1//EN"
 "http://www.w3.org/Graphics/SVG/1.1/DTD/svg11.dtd">
<!-- Generated by graphviz version 12.2.1 (20241206.2353)
 -->
<!-- Title: AMainCharacter::SetOverlappingWeapon Pages: 1 -->
<svg width="534pt" height="78pt"
 viewBox="0.00 0.00 533.75 78.00" xmlns="http://www.w3.org/2000/svg" xmlns:xlink="http://www.w3.org/1999/xlink">
<g id="graph0" class="graph" transform="scale(1 1) rotate(0) translate(4 74)">
<title>AMainCharacter::SetOverlappingWeapon</title>
<!-- Node1 -->
<g id="Node000001" class="node">
<title>Node1</title>
<g id="a_Node000001"><a xlink:title=" ">
<polygon fill="#999999" stroke="#666666" points="525.75,-48 366.5,-48 366.5,-16 525.75,-16 525.75,-48"/>
<text text-anchor="start" x="374.5" y="-34.5" font-family="Arial" font-size="10.00">AMainCharacter::SetOverlapping</text>
<text text-anchor="middle" x="446.12" y="-22.5" font-family="Arial" font-size="10.00">Weapon</text>
</a>
</g>
</g>
<!-- Node2 -->
<g id="Node000002" class="node">
<title>Node2</title>
<g id="a_Node000002"><a xlink:href="class_a_base_weapon.html#ad77388ee16e510acd1991a7e041d4a91" target="_top" xlink:title=" ">
<polygon fill="white" stroke="#666666" points="322.25,-70 175,-70 175,-38 322.25,-38 322.25,-70"/>
<text text-anchor="start" x="183" y="-56.5" font-family="Arial" font-size="10.00">ABaseWeapon::OnSphereEnd</text>
<text text-anchor="middle" x="248.62" y="-44.5" font-family="Arial" font-size="10.00">Overlap</text>
</a>
</g>
</g>
<!-- Node1&#45;&gt;Node2 -->
<g id="edge1_Node000001_Node000002" class="edge">
<title>Node1&#45;&gt;Node2</title>
<g id="a_edge1_Node000001_Node000002"><a xlink:title=" ">
<path fill="none" stroke="#63b8ff" d="M354.93,-42.15C344.09,-43.37 333.11,-44.61 322.55,-45.79"/>
<polygon fill="#63b8ff" stroke="#63b8ff" points="355.12,-45.65 364.67,-41.05 354.34,-38.69 355.12,-45.65"/>
</a>
</g>
</g>
<!-- Node4 -->
<g id="Node000004" class="node">
<title>Node4</title>
<g id="a_Node000004"><a xlink:href="class_a_base_weapon.html#a961a7c76a6ab11f316c2e4fa2ccf2c39" target="_top" xlink:title=" ">
<polygon fill="white" stroke="#666666" points="330.5,-20 166.75,-20 166.75,0 330.5,0 330.5,-20"/>
<text text-anchor="middle" x="248.62" y="-6.5" font-family="Arial" font-size="10.00">ABaseWeapon::OnSphereOverlap</text>
</a>
</g>
</g>
<!-- Node1&#45;&gt;Node4 -->
<g id="edge3_Node000001_Node000004" class="edge">
<title>Node1&#45;&gt;Node4</title>
<g id="a_edge3_Node000001_Node000004"><a xlink:title=" ">
<path fill="none" stroke="#63b8ff" d="M354.88,-21.84C346.84,-20.94 338.74,-20.03 330.79,-19.13"/>
<polygon fill="#63b8ff" stroke="#63b8ff" points="354.34,-25.31 364.67,-22.95 355.12,-18.35 354.34,-25.31"/>
</a>
</g>
</g>
<!-- Node3 -->
<g id="Node000003" class="node">
<title>Node3</title>
<g id="a_Node000003"><a xlink:href="class_a_base_weapon.html#a4a74e461d7c371a1d0ec9626d1325229" target="_top" xlink:title=" ">
<polygon fill="white" stroke="#666666" points="130.75,-42 0,-42 0,-22 130.75,-22 130.75,-42"/>
<text text-anchor="middle" x="65.38" y="-28.5" font-family="Arial" font-size="10.00">ABaseWeapon::BeginPlay</text>
</a>
</g>
</g>
<!-- Node2&#45;&gt;Node3 -->
<g id="edge2_Node000002_Node000003" class="edge">
<title>Node2&#45;&gt;Node3</title>
<g id="a_edge2_Node000002_Node000003"><a xlink:title=" ">
<path fill="none" stroke="#63b8ff" d="M163.41,-43.78C152.51,-42.46 141.49,-41.12 130.98,-39.84"/>
<polygon fill="#63b8ff" stroke="#63b8ff" points="162.84,-47.23 173.18,-44.96 163.68,-40.28 162.84,-47.23"/>
</a>
</g>
</g>
<!-- Node4&#45;&gt;Node3 -->
<g id="edge4_Node000004_Node000003" class="edge">
<title>Node4&#45;&gt;Node3</title>
<g id="a_edge4_Node000004_Node000003"><a xlink:title=" ">
<path fill="none" stroke="#63b8ff" d="M154.94,-21.25C146.9,-22.23 138.89,-23.2 131.16,-24.14"/>
<polygon fill="#63b8ff" stroke="#63b8ff" points="155.27,-24.74 164.78,-20.06 154.43,-17.79 155.27,-24.74"/>
</a>
</g>
</g>
</g>
</svg>
