<?xml version="1.0" encoding="UTF-8" standalone="no"?>
<!DOCTYPE svg PUBLIC "-//W3C//DTD SVG 1.1//EN"
 "http://www.w3.org/Graphics/SVG/1.1/DTD/svg11.dtd">
<!-- Generated by graphviz version 12.2.1 (20241206.2353)
 -->
<!-- Title: AMainCharacter::MulticastFire Pages: 1 -->
<svg width="728pt" height="143pt"
 viewBox="0.00 0.00 728.25 143.00" xmlns="http://www.w3.org/2000/svg" xmlns:xlink="http://www.w3.org/1999/xlink">
<g id="graph0" class="graph" transform="scale(1 1) rotate(0) translate(4 139)">
<title>AMainCharacter::MulticastFire</title>
<!-- Node1 -->
<g id="Node000001" class="node">
<title>Node1</title>
<g id="a_Node000001"><a xlink:title=" ">
<polygon fill="#999999" stroke="#666666" points="148.75,-48 0,-48 0,-28 148.75,-28 148.75,-48"/>
<text text-anchor="middle" x="74.38" y="-34.5" font-family="Arial" font-size="10.00">AMainCharacter::MulticastFire</text>
</a>
</g>
</g>
<!-- Node1&#45;&gt;Node1 -->
<g id="edge6_Node000001_Node000001" class="edge">
<title>Node1&#45;&gt;Node1</title>
<g id="a_edge6_Node000001_Node000001"><a xlink:title=" ">
<path fill="none" stroke="#63b8ff" d="M47.05,-48.34C35.37,-56.98 44.48,-66 74.38,-66 91.19,-66 101.43,-63.14 105.1,-59.11"/>
<polygon fill="#63b8ff" stroke="#63b8ff" points="108.5,-58.27 102.16,-49.78 101.82,-60.37 108.5,-58.27"/>
</a>
</g>
</g>
<!-- Node2 -->
<g id="Node000002" class="node">
<title>Node2</title>
<g id="a_Node000002"><a xlink:href="class_a_main_character.html#a9d0b7a05e0580099815730100ad9bfb6" target="_top" xlink:title="Elimination.">
<polygon fill="white" stroke="#666666" points="302.38,-70 190.38,-70 190.38,-50 302.38,-50 302.38,-70"/>
<text text-anchor="middle" x="246.38" y="-56.5" font-family="Arial" font-size="10.00">AMainCharacter::Elim</text>
</a>
</g>
</g>
<!-- Node1&#45;&gt;Node2 -->
<g id="edge1_Node000001_Node000002" class="edge">
<title>Node1&#45;&gt;Node2</title>
<g id="a_edge1_Node000001_Node000002"><a xlink:title=" ">
<path fill="none" stroke="#63b8ff" d="M148.95,-47.52C158.82,-48.8 168.9,-50.1 178.64,-51.36"/>
<polygon fill="#63b8ff" stroke="#63b8ff" points="178.02,-54.81 188.39,-52.62 178.92,-47.87 178.02,-54.81"/>
</a>
</g>
</g>
<!-- Node6 -->
<g id="Node000006" class="node">
<title>Node6</title>
<g id="a_Node000006"><a xlink:href="class_a_main_character.html#a0d4eb83adaa4bae05412bdc575f9c50b" target="_top" xlink:title=" ">
<polygon fill="white" stroke="#666666" points="308,-32 184.75,-32 184.75,0 308,0 308,-32"/>
<text text-anchor="start" x="192.75" y="-18.5" font-family="Arial" font-size="10.00">AMainCharacter::OnRep</text>
<text text-anchor="middle" x="246.38" y="-6.5" font-family="Arial" font-size="10.00">_ReplicatedMovement</text>
</a>
</g>
</g>
<!-- Node1&#45;&gt;Node6 -->
<g id="edge7_Node000001_Node000006" class="edge">
<title>Node1&#45;&gt;Node6</title>
<g id="a_edge7_Node000001_Node000006"><a xlink:title=" ">
<path fill="none" stroke="#63b8ff" d="M148.95,-28.48C157,-27.44 165.19,-26.38 173.23,-25.34"/>
<polygon fill="#63b8ff" stroke="#63b8ff" points="173.48,-28.83 182.95,-24.08 172.58,-21.89 173.48,-28.83"/>
</a>
</g>
</g>
<!-- Node3 -->
<g id="Node000003" class="node">
<title>Node3</title>
<g id="a_Node000003"><a xlink:href="class_a_main_character.html#aea17dde5a15443622f0bf918c57cce6f" target="_top" xlink:title=" ">
<polygon fill="white" stroke="#666666" points="493.5,-135 356.75,-135 356.75,-103 493.5,-103 493.5,-135"/>
<text text-anchor="start" x="364.75" y="-121.5" font-family="Arial" font-size="10.00">AMainCharacter::ElimTimer</text>
<text text-anchor="middle" x="425.12" y="-109.5" font-family="Arial" font-size="10.00">Finished</text>
</a>
</g>
</g>
<!-- Node2&#45;&gt;Node3 -->
<g id="edge2_Node000002_Node000003" class="edge">
<title>Node2&#45;&gt;Node3</title>
<g id="a_edge2_Node000002_Node000003"><a xlink:title=" ">
<path fill="none" stroke="#63b8ff" d="M276.03,-70.39C295.21,-77.26 321.05,-86.38 344,-94 349.09,-95.69 354.38,-97.41 359.69,-99.12"/>
<polygon fill="#63b8ff" stroke="#63b8ff" points="358.56,-102.43 369.15,-102.13 360.69,-95.76 358.56,-102.43"/>
</a>
</g>
</g>
<!-- Node5 -->
<g id="Node000005" class="node">
<title>Node5</title>
<g id="a_Node000005"><a xlink:href="class_a_main_character.html#a5691a3d428c1f9d6f6ed3d28cb29df10" target="_top" xlink:title=" ">
<polygon fill="white" stroke="#666666" points="503.62,-67 346.62,-67 346.62,-47 503.62,-47 503.62,-67"/>
<text text-anchor="middle" x="425.12" y="-53.5" font-family="Arial" font-size="10.00">AMainCharacter::Multicast_Elim</text>
</a>
</g>
</g>
<!-- Node2&#45;&gt;Node5 -->
<g id="edge4_Node000002_Node000005" class="edge">
<title>Node2&#45;&gt;Node5</title>
<g id="a_edge4_Node000002_Node000005"><a xlink:title=" ">
<path fill="none" stroke="#63b8ff" d="M302.81,-59.06C313.03,-58.89 323.94,-58.7 334.86,-58.52"/>
<polygon fill="#63b8ff" stroke="#63b8ff" points="334.77,-62.02 344.71,-58.35 334.65,-55.02 334.77,-62.02"/>
</a>
</g>
</g>
<!-- Node4 -->
<g id="Node000004" class="node">
<title>Node4</title>
<g id="a_Node000004"><a xlink:href="class_a_main_game_mode.html#a3713d86d5420f9c8fc8c0e5b055955a2" target="_top" xlink:title=" ">
<polygon fill="white" stroke="#666666" points="720.25,-129 542.25,-129 542.25,-109 720.25,-109 720.25,-129"/>
<text text-anchor="middle" x="631.25" y="-115.5" font-family="Arial" font-size="10.00">AMainGameMode::RequestRespawn</text>
</a>
</g>
</g>
<!-- Node3&#45;&gt;Node4 -->
<g id="edge3_Node000003_Node000004" class="edge">
<title>Node3&#45;&gt;Node4</title>
<g id="a_edge3_Node000003_Node000004"><a xlink:title=" ">
<path fill="none" stroke="#63b8ff" d="M493.81,-119C505.63,-119 518.14,-119 530.61,-119"/>
<polygon fill="#63b8ff" stroke="#63b8ff" points="530.51,-122.5 540.51,-119 530.51,-115.5 530.51,-122.5"/>
</a>
</g>
</g>
<!-- Node5&#45;&gt;Node5 -->
<g id="edge5_Node000005_Node000005" class="edge">
<title>Node5&#45;&gt;Node5</title>
<g id="a_edge5_Node000005_Node000005"><a xlink:title=" ">
<path fill="none" stroke="#63b8ff" d="M396.72,-67.34C384.59,-75.98 394.05,-85 425.12,-85 442.6,-85 453.24,-82.14 457.05,-78.11"/>
<polygon fill="#63b8ff" stroke="#63b8ff" points="460.43,-77.19 454,-68.78 453.78,-79.37 460.43,-77.19"/>
</a>
</g>
</g>
<!-- Node7 -->
<g id="Node000007" class="node">
<title>Node7</title>
<g id="a_Node000007"><a xlink:href="class_a_main_character.html#ad664d0ab39058e928e96c8abf84f36bf" target="_top" xlink:title=" ">
<polygon fill="white" stroke="#666666" points="506.25,-26 344,-26 344,-6 506.25,-6 506.25,-26"/>
<text text-anchor="middle" x="425.12" y="-12.5" font-family="Arial" font-size="10.00">AMainCharacter::SimProxiesTurn</text>
</a>
</g>
</g>
<!-- Node6&#45;&gt;Node7 -->
<g id="edge8_Node000006_Node000007" class="edge">
<title>Node6&#45;&gt;Node7</title>
<g id="a_edge8_Node000006_Node000007"><a xlink:title=" ">
<path fill="none" stroke="#63b8ff" d="M308.2,-16C315.94,-16 323.99,-16 332.08,-16"/>
<polygon fill="#63b8ff" stroke="#63b8ff" points="332.01,-19.5 342.01,-16 332.01,-12.5 332.01,-19.5"/>
</a>
</g>
</g>
<!-- Node8 -->
<g id="Node000008" class="node">
<title>Node8</title>
<g id="a_Node000008"><a xlink:href="class_a_main_character.html#a9596fe587a29a2671db7db619b16b46d" target="_top" xlink:title=" ">
<polygon fill="white" stroke="#666666" points="698.12,-32 564.38,-32 564.38,0 698.12,0 698.12,-32"/>
<text text-anchor="start" x="572.38" y="-18.5" font-family="Arial" font-size="10.00">AMainCharacter::Calculate</text>
<text text-anchor="middle" x="631.25" y="-6.5" font-family="Arial" font-size="10.00">Speed</text>
</a>
</g>
</g>
<!-- Node7&#45;&gt;Node8 -->
<g id="edge9_Node000007_Node000008" class="edge">
<title>Node7&#45;&gt;Node8</title>
<g id="a_edge9_Node000007_Node000008"><a xlink:title=" ">
<path fill="none" stroke="#63b8ff" d="M506.51,-16C521.71,-16 537.59,-16 552.7,-16"/>
<polygon fill="#63b8ff" stroke="#63b8ff" points="552.57,-19.5 562.57,-16 552.57,-12.5 552.57,-19.5"/>
</a>
</g>
</g>
</g>
</svg>
