<?xml version="1.0" encoding="UTF-8" standalone="no"?>
<!DOCTYPE svg PUBLIC "-//W3C//DTD SVG 1.1//EN"
 "http://www.w3.org/Graphics/SVG/1.1/DTD/svg11.dtd">
<!-- Generated by graphviz version 12.2.1 (20241206.2353)
 -->
<!-- Title: AMyPlayerController::OnMatchStateSet Pages: 1 -->
<svg width="490pt" height="106pt"
 viewBox="0.00 0.00 489.50 106.00" xmlns="http://www.w3.org/2000/svg" xmlns:xlink="http://www.w3.org/1999/xlink">
<g id="graph0" class="graph" transform="scale(1 1) rotate(0) translate(4 102)">
<title>AMyPlayerController::OnMatchStateSet</title>
<!-- Node1 -->
<g id="Node000001" class="node">
<title>Node1</title>
<g id="a_Node000001"><a xlink:title=" ">
<polygon fill="#999999" stroke="#666666" points="106,-57 0,-57 0,-25 106,-25 106,-57"/>
<text text-anchor="start" x="8" y="-43.5" font-family="Arial" font-size="10.00">AMyPlayerController</text>
<text text-anchor="middle" x="53" y="-31.5" font-family="Arial" font-size="10.00">::OnMatchStateSet</text>
</a>
</g>
</g>
<!-- Node2 -->
<g id="Node000002" class="node">
<title>Node2</title>
<g id="a_Node000002"><a xlink:href="class_a_my_player_controller.html#a572fee9304cdf938bb02635e9eb91f66" target="_top" xlink:title=" ">
<polygon fill="white" stroke="#666666" points="259.62,-82 153.62,-82 153.62,-50 259.62,-50 259.62,-82"/>
<text text-anchor="start" x="161.62" y="-68.5" font-family="Arial" font-size="10.00">AMyPlayerController</text>
<text text-anchor="middle" x="206.62" y="-56.5" font-family="Arial" font-size="10.00">::HandleCooldown</text>
</a>
</g>
</g>
<!-- Node1&#45;&gt;Node2 -->
<g id="edge1_Node000001_Node000002" class="edge">
<title>Node1&#45;&gt;Node2</title>
<g id="a_edge1_Node000001_Node000002"><a xlink:title=" ">
<path fill="none" stroke="#63b8ff" d="M106.18,-49.6C117.74,-51.51 130.1,-53.55 142.06,-55.52"/>
<polygon fill="#63b8ff" stroke="#63b8ff" points="141.42,-58.96 151.85,-57.13 142.56,-52.05 141.42,-58.96"/>
</a>
</g>
</g>
<!-- Node5 -->
<g id="Node000005" class="node">
<title>Node5</title>
<g id="a_Node000005"><a xlink:href="class_a_my_player_controller.html#a60eda2b87c5436856db0f5b2167af8a6" target="_top" xlink:title=" ">
<polygon fill="white" stroke="#666666" points="271.25,-32 142,-32 142,0 271.25,0 271.25,-32"/>
<text text-anchor="start" x="150" y="-18.5" font-family="Arial" font-size="10.00">AMyPlayerController</text>
<text text-anchor="middle" x="206.62" y="-6.5" font-family="Arial" font-size="10.00">::HandleMatchHasStarted</text>
</a>
</g>
</g>
<!-- Node1&#45;&gt;Node5 -->
<g id="edge4_Node000001_Node000005" class="edge">
<title>Node1&#45;&gt;Node5</title>
<g id="a_edge4_Node000001_Node000005"><a xlink:title=" ">
<path fill="none" stroke="#63b8ff" d="M106.18,-32.4C114.01,-31.1 122.22,-29.75 130.42,-28.4"/>
<polygon fill="#63b8ff" stroke="#63b8ff" points="130.76,-31.89 140.06,-26.81 129.62,-24.98 130.76,-31.89"/>
</a>
</g>
</g>
<!-- Node3 -->
<g id="Node000003" class="node">
<title>Node3</title>
<g id="a_Node000003"><a xlink:href="class_a_main_character.html#afd1dc526cd36c5de139a7e5ff2b48432" target="_top" xlink:title=" ">
<polygon fill="white" stroke="#666666" points="465.75,-98 323,-98 323,-78 465.75,-78 465.75,-98"/>
<text text-anchor="middle" x="394.38" y="-84.5" font-family="Arial" font-size="10.00">AMainCharacter::GetCombat</text>
</a>
</g>
</g>
<!-- Node2&#45;&gt;Node3 -->
<g id="edge2_Node000002_Node000003" class="edge">
<title>Node2&#45;&gt;Node3</title>
<g id="a_edge2_Node000002_Node000003"><a xlink:title=" ">
<path fill="none" stroke="#63b8ff" d="M259.86,-72.19C275.88,-74.08 293.91,-76.22 311.42,-78.29"/>
<polygon fill="#63b8ff" stroke="#63b8ff" points="310.97,-81.76 321.31,-79.47 311.8,-74.81 310.97,-81.76"/>
</a>
</g>
</g>
<!-- Node4 -->
<g id="Node000004" class="node">
<title>Node4</title>
<g id="a_Node000004"><a xlink:href="class_a_my_player_controller.html#a23312ab13b910b000bc7bfaf675a2899" target="_top" xlink:title=" ">
<polygon fill="white" stroke="#666666" points="481.5,-60 307.25,-60 307.25,-28 481.5,-28 481.5,-60"/>
<text text-anchor="start" x="315.25" y="-46.5" font-family="Arial" font-size="10.00">AMyPlayerController</text>
<text text-anchor="middle" x="394.38" y="-34.5" font-family="Arial" font-size="10.00">::SetHUDAnnouncementCountdown</text>
</a>
</g>
</g>
<!-- Node2&#45;&gt;Node4 -->
<g id="edge3_Node000002_Node000004" class="edge">
<title>Node2&#45;&gt;Node4</title>
<g id="a_edge3_Node000002_Node000004"><a xlink:title=" ">
<path fill="none" stroke="#63b8ff" d="M259.86,-59.81C271.12,-58.48 283.36,-57.03 295.72,-55.57"/>
<polygon fill="#63b8ff" stroke="#63b8ff" points="296.06,-59.05 305.58,-54.4 295.24,-52.1 296.06,-59.05"/>
</a>
</g>
</g>
</g>
</svg>
