<?xml version="1.0" encoding="UTF-8" standalone="no"?>
<!DOCTYPE svg PUBLIC "-//W3C//DTD SVG 1.1//EN"
 "http://www.w3.org/Graphics/SVG/1.1/DTD/svg11.dtd">
<!-- Generated by graphviz version 12.2.1 (20241206.2353)
 -->
<!-- Title: AMainCharacter::ElimTimerFinished Pages: 1 -->
<svg width="876pt" height="106pt"
 viewBox="0.00 0.00 876.25 106.00" xmlns="http://www.w3.org/2000/svg" xmlns:xlink="http://www.w3.org/1999/xlink">
<g id="graph0" class="graph" transform="scale(1 1) rotate(0) translate(4 102)">
<title>AMainCharacter::ElimTimerFinished</title>
<!-- Node1 -->
<g id="Node000001" class="node">
<title>Node1</title>
<g id="a_Node000001"><a xlink:title=" ">
<polygon fill="#999999" stroke="#666666" points="868.25,-67 731.5,-67 731.5,-35 868.25,-35 868.25,-67"/>
<text text-anchor="start" x="739.5" y="-53.5" font-family="Arial" font-size="10.00">AMainCharacter::ElimTimer</text>
<text text-anchor="middle" x="799.88" y="-41.5" font-family="Arial" font-size="10.00">Finished</text>
</a>
</g>
</g>
<!-- Node2 -->
<g id="Node000002" class="node">
<title>Node2</title>
<g id="a_Node000002"><a xlink:href="class_a_main_character.html#a9d0b7a05e0580099815730100ad9bfb6" target="_top" xlink:title="Elimination.">
<polygon fill="white" stroke="#666666" points="695.5,-61 583.5,-61 583.5,-41 695.5,-41 695.5,-61"/>
<text text-anchor="middle" x="639.5" y="-47.5" font-family="Arial" font-size="10.00">AMainCharacter::Elim</text>
</a>
</g>
</g>
<!-- Node1&#45;&gt;Node2 -->
<g id="edge1_Node000001_Node000002" class="edge">
<title>Node1&#45;&gt;Node2</title>
<g id="a_edge1_Node000001_Node000002"><a xlink:title=" ">
<path fill="none" stroke="#63b8ff" d="M719.87,-51C711.79,-51 703.71,-51 695.96,-51"/>
<polygon fill="#63b8ff" stroke="#63b8ff" points="719.74,-54.5 729.74,-51 719.74,-47.5 719.74,-54.5"/>
</a>
</g>
</g>
<!-- Node3 -->
<g id="Node000003" class="node">
<title>Node3</title>
<g id="a_Node000003"><a xlink:href="class_a_main_character.html#a501bd7ba0eb90bf0c1da39ec8496f6e0" target="_top" xlink:title=" ">
<polygon fill="white" stroke="#666666" points="535.12,-80 386.38,-80 386.38,-60 535.12,-60 535.12,-80"/>
<text text-anchor="middle" x="460.75" y="-66.5" font-family="Arial" font-size="10.00">AMainCharacter::MulticastFire</text>
</a>
</g>
</g>
<!-- Node2&#45;&gt;Node3 -->
<g id="edge2_Node000002_Node000003" class="edge">
<title>Node2&#45;&gt;Node3</title>
<g id="a_edge2_Node000002_Node000003"><a xlink:title=" ">
<path fill="none" stroke="#63b8ff" d="M571.87,-58.16C559.98,-59.44 547.54,-60.78 535.47,-62.08"/>
<polygon fill="#63b8ff" stroke="#63b8ff" points="571.99,-61.67 581.56,-57.12 571.24,-54.71 571.99,-61.67"/>
</a>
</g>
</g>
<!-- Node4 -->
<g id="Node000004" class="node">
<title>Node4</title>
<g id="a_Node000004"><a xlink:href="class_a_main_game_mode.html#a67e1cb2f93133f0c044f3f0ed73c970c" target="_top" xlink:title=" ">
<polygon fill="white" stroke="#666666" points="547.5,-42 374,-42 374,-22 547.5,-22 547.5,-42"/>
<text text-anchor="middle" x="460.75" y="-28.5" font-family="Arial" font-size="10.00">AMainGameMode::PlayerEliminated</text>
</a>
</g>
</g>
<!-- Node2&#45;&gt;Node4 -->
<g id="edge4_Node000002_Node000004" class="edge">
<title>Node2&#45;&gt;Node4</title>
<g id="a_edge4_Node000002_Node000004"><a xlink:title=" ">
<path fill="none" stroke="#63b8ff" d="M571.76,-43.83C563.91,-42.98 555.82,-42.11 547.75,-41.24"/>
<polygon fill="#63b8ff" stroke="#63b8ff" points="571.24,-47.29 581.56,-44.88 571.99,-40.33 571.24,-47.29"/>
</a>
</g>
</g>
<!-- Node3&#45;&gt;Node3 -->
<g id="edge3_Node000003_Node000003" class="edge">
<title>Node3&#45;&gt;Node3</title>
<g id="a_edge3_Node000003_Node000003"><a xlink:title=" ">
<path fill="none" stroke="#63b8ff" d="M492.68,-91.11C488.87,-95.14 478.23,-98 460.75,-98 429.68,-98 420.21,-88.98 432.35,-80.34"/>
<polygon fill="#63b8ff" stroke="#63b8ff" points="496.06,-90.19 489.62,-81.78 489.41,-92.37 496.06,-90.19"/>
</a>
</g>
</g>
<!-- Node5 -->
<g id="Node000005" class="node">
<title>Node5</title>
<g id="a_Node000005"><a xlink:href="class_a_main_game_mode.html#a3673993b38825474635502e6aad2e05e" target="_top" xlink:title=" ">
<polygon fill="white" stroke="#666666" points="332,-70 178.75,-70 178.75,-38 332,-38 332,-70"/>
<text text-anchor="start" x="186.75" y="-56.5" font-family="Arial" font-size="10.00">AMainGameMode::FMainGame</text>
<text text-anchor="middle" x="255.38" y="-44.5" font-family="Arial" font-size="10.00">ModeBeginPlayTest</text>
</a>
</g>
</g>
<!-- Node4&#45;&gt;Node5 -->
<g id="edge5_Node000004_Node000005" class="edge">
<title>Node4&#45;&gt;Node5</title>
<g id="a_edge5_Node000004_Node000005"><a xlink:title=" ">
<path fill="none" stroke="#63b8ff" d="M362.25,-42.55C352.24,-43.63 342.18,-44.72 332.45,-45.77"/>
<polygon fill="#63b8ff" stroke="#63b8ff" points="362.43,-46.05 372,-41.49 361.68,-39.09 362.43,-46.05"/>
</a>
</g>
</g>
<!-- Node6 -->
<g id="Node000006" class="node">
<title>Node6</title>
<g id="a_Node000006"><a xlink:href="class_a_main_character.html#a33d3267c0046be93c39178a2ed3944b3" target="_top" xlink:title=" ">
<polygon fill="white" stroke="#666666" points="338,-20 172.75,-20 172.75,0 338,0 338,-20"/>
<text text-anchor="middle" x="255.38" y="-6.5" font-family="Arial" font-size="10.00">AMainCharacter::ReceiveDamage</text>
</a>
</g>
</g>
<!-- Node4&#45;&gt;Node6 -->
<g id="edge7_Node000004_Node000006" class="edge">
<title>Node4&#45;&gt;Node6</title>
<g id="a_edge7_Node000004_Node000006"><a xlink:title=" ">
<path fill="none" stroke="#63b8ff" d="M362.2,-21.45C354.18,-20.58 346.12,-19.71 338.23,-18.85"/>
<polygon fill="#63b8ff" stroke="#63b8ff" points="361.68,-24.91 372,-22.51 362.43,-17.95 361.68,-24.91"/>
</a>
</g>
</g>
<!-- Node5&#45;&gt;Node5 -->
<g id="edge6_Node000005_Node000005" class="edge">
<title>Node5&#45;&gt;Node5</title>
<g id="a_edge6_Node000005_Node000005"><a xlink:title=" ">
<path fill="none" stroke="#63b8ff" d="M286.54,-81.71C281.34,-85.48 270.95,-88 255.38,-88 226.89,-88 215.76,-79.58 221.99,-70.44"/>
<polygon fill="#63b8ff" stroke="#63b8ff" points="289.97,-82.42 288.47,-71.93 283.1,-81.06 289.97,-82.42"/>
</a>
</g>
</g>
<!-- Node7 -->
<g id="Node000007" class="node">
<title>Node7</title>
<g id="a_Node000007"><a xlink:href="class_a_main_character.html#a096ef46022cd84777b571482729ed02f" target="_top" xlink:title=" ">
<polygon fill="white" stroke="#666666" points="136.75,-20 0,-20 0,0 136.75,0 136.75,-20"/>
<text text-anchor="middle" x="68.38" y="-6.5" font-family="Arial" font-size="10.00">AMainCharacter::BeginPlay</text>
</a>
</g>
</g>
<!-- Node6&#45;&gt;Node7 -->
<g id="edge8_Node000006_Node000007" class="edge">
<title>Node6&#45;&gt;Node7</title>
<g id="a_edge8_Node000006_Node000007"><a xlink:title=" ">
<path fill="none" stroke="#63b8ff" d="M161.05,-10C152.99,-10 144.93,-10 137.13,-10"/>
<polygon fill="#63b8ff" stroke="#63b8ff" points="160.91,-13.5 170.91,-10 160.91,-6.5 160.91,-13.5"/>
</a>
</g>
</g>
</g>
</svg>
