<?xml version="1.0" encoding="UTF-8" standalone="no"?>
<!DOCTYPE svg PUBLIC "-//W3C//DTD SVG 1.1//EN"
 "http://www.w3.org/Graphics/SVG/1.1/DTD/svg11.dtd">
<!-- Generated by graphviz version 12.2.1 (20241206.2353)
 -->
<!-- Title: AMainCharacter::CalculateSpeed Pages: 1 -->
<svg width="844pt" height="96pt"
 viewBox="0.00 0.00 844.00 96.00" xmlns="http://www.w3.org/2000/svg" xmlns:xlink="http://www.w3.org/1999/xlink">
<g id="graph0" class="graph" transform="scale(1 1) rotate(0) translate(4 92)">
<title>AMainCharacter::CalculateSpeed</title>
<!-- Node1 -->
<g id="Node000001" class="node">
<title>Node1</title>
<g id="a_Node000001"><a xlink:title=" ">
<polygon fill="#999999" stroke="#666666" points="836,-66 702.25,-66 702.25,-34 836,-34 836,-66"/>
<text text-anchor="start" x="710.25" y="-52.5" font-family="Arial" font-size="10.00">AMainCharacter::Calculate</text>
<text text-anchor="middle" x="769.12" y="-40.5" font-family="Arial" font-size="10.00">Speed</text>
</a>
</g>
</g>
<!-- Node2 -->
<g id="Node000002" class="node">
<title>Node2</title>
<g id="a_Node000002"><a xlink:href="class_a_main_character.html#a6fa9a33c3dd4522ed81944aabc3114b8" target="_top" xlink:title=" ">
<polygon fill="white" stroke="#666666" points="468,-82 332,-82 332,-62 468,-62 468,-82"/>
<text text-anchor="middle" x="400" y="-68.5" font-family="Arial" font-size="10.00">AMainCharacter::AimOffset</text>
</a>
</g>
</g>
<!-- Node1&#45;&gt;Node2 -->
<g id="edge1_Node000001_Node000002" class="edge">
<title>Node1&#45;&gt;Node2</title>
<g id="a_edge1_Node000001_Node000002"><a xlink:title=" ">
<path fill="none" stroke="#63b8ff" d="M690.93,-54.63C625.05,-58.57 531.28,-64.19 468.39,-67.96"/>
<polygon fill="#63b8ff" stroke="#63b8ff" points="690.78,-58.14 700.56,-54.05 690.36,-51.15 690.78,-58.14"/>
</a>
</g>
</g>
<!-- Node5 -->
<g id="Node000005" class="node">
<title>Node5</title>
<g id="a_Node000005"><a xlink:href="class_a_main_character.html#ad664d0ab39058e928e96c8abf84f36bf" target="_top" xlink:title=" ">
<polygon fill="white" stroke="#666666" points="666.25,-41 504,-41 504,-21 666.25,-21 666.25,-41"/>
<text text-anchor="middle" x="585.12" y="-27.5" font-family="Arial" font-size="10.00">AMainCharacter::SimProxiesTurn</text>
</a>
</g>
</g>
<!-- Node1&#45;&gt;Node5 -->
<g id="edge4_Node000001_Node000005" class="edge">
<title>Node1&#45;&gt;Node5</title>
<g id="a_edge4_Node000001_Node000005"><a xlink:title=" ">
<path fill="none" stroke="#63b8ff" d="M690.72,-41.92C682.72,-41.08 674.58,-40.23 666.55,-39.4"/>
<polygon fill="#63b8ff" stroke="#63b8ff" points="690.09,-45.37 700.4,-42.93 690.82,-38.41 690.09,-45.37"/>
</a>
</g>
</g>
<!-- Node3 -->
<g id="Node000003" class="node">
<title>Node3</title>
<g id="a_Node000003"><a xlink:href="class_a_main_character.html#a909b1b0adf502bef351cceca49e4eb68" target="_top" xlink:title=" ">
<polygon fill="white" stroke="#666666" points="286.62,-88 156.62,-88 156.62,-56 286.62,-56 286.62,-88"/>
<text text-anchor="start" x="164.62" y="-74.5" font-family="Arial" font-size="10.00">AMainCharacter::RotateIn</text>
<text text-anchor="middle" x="221.62" y="-62.5" font-family="Arial" font-size="10.00">Place</text>
</a>
</g>
</g>
<!-- Node2&#45;&gt;Node3 -->
<g id="edge2_Node000002_Node000003" class="edge">
<title>Node2&#45;&gt;Node3</title>
<g id="a_edge2_Node000002_Node000003"><a xlink:title=" ">
<path fill="none" stroke="#63b8ff" d="M320.15,-72C309.1,-72 297.86,-72 287.12,-72"/>
<polygon fill="#63b8ff" stroke="#63b8ff" points="320.05,-75.5 330.05,-72 320.05,-68.5 320.05,-75.5"/>
</a>
</g>
</g>
<!-- Node4 -->
<g id="Node000004" class="node">
<title>Node4</title>
<g id="a_Node000004"><a xlink:href="class_a_main_character.html#a44a6be77fb1c8617c144a85fc084ad2b" target="_top" xlink:title=" ">
<polygon fill="white" stroke="#666666" points="111.25,-82 0,-82 0,-62 111.25,-62 111.25,-82"/>
<text text-anchor="middle" x="55.62" y="-68.5" font-family="Arial" font-size="10.00">AMainCharacter::Tick</text>
</a>
</g>
</g>
<!-- Node3&#45;&gt;Node4 -->
<g id="edge3_Node000003_Node000004" class="edge">
<title>Node3&#45;&gt;Node4</title>
<g id="a_edge3_Node000003_Node000004"><a xlink:title=" ">
<path fill="none" stroke="#63b8ff" d="M145.05,-72C133.74,-72 122.27,-72 111.5,-72"/>
<polygon fill="#63b8ff" stroke="#63b8ff" points="144.77,-75.5 154.77,-72 144.76,-68.5 144.77,-75.5"/>
</a>
</g>
</g>
<!-- Node6 -->
<g id="Node000006" class="node">
<title>Node6</title>
<g id="a_Node000006"><a xlink:href="class_a_main_character.html#a0d4eb83adaa4bae05412bdc575f9c50b" target="_top" xlink:title=" ">
<polygon fill="white" stroke="#666666" points="461.62,-44 338.38,-44 338.38,-12 461.62,-12 461.62,-44"/>
<text text-anchor="start" x="346.38" y="-30.5" font-family="Arial" font-size="10.00">AMainCharacter::OnRep</text>
<text text-anchor="middle" x="400" y="-18.5" font-family="Arial" font-size="10.00">_ReplicatedMovement</text>
</a>
</g>
</g>
<!-- Node5&#45;&gt;Node6 -->
<g id="edge5_Node000005_Node000006" class="edge">
<title>Node5&#45;&gt;Node6</title>
<g id="a_edge5_Node000005_Node000006"><a xlink:title=" ">
<path fill="none" stroke="#63b8ff" d="M492.07,-29.49C481.9,-29.33 471.73,-29.16 462.08,-29"/>
<polygon fill="#63b8ff" stroke="#63b8ff" points="491.97,-32.99 502.02,-29.65 492.08,-25.99 491.97,-32.99"/>
</a>
</g>
</g>
<!-- Node6&#45;&gt;Node3 -->
<g id="edge8_Node000006_Node000003" class="edge">
<title>Node6&#45;&gt;Node3</title>
<g id="a_edge8_Node000006_Node000003"><a xlink:title=" ">
<path fill="none" stroke="#63b8ff" d="M327.27,-45.89C313.96,-49.22 300.12,-52.67 287.05,-55.93"/>
<polygon fill="#63b8ff" stroke="#63b8ff" points="327.98,-49.33 336.83,-43.51 326.28,-42.53 327.98,-49.33"/>
</a>
</g>
</g>
<!-- Node7 -->
<g id="Node000007" class="node">
<title>Node7</title>
<g id="a_Node000007"><a xlink:href="class_a_main_character.html#a501bd7ba0eb90bf0c1da39ec8496f6e0" target="_top" xlink:title=" ">
<polygon fill="white" stroke="#666666" points="296,-20 147.25,-20 147.25,0 296,0 296,-20"/>
<text text-anchor="middle" x="221.62" y="-6.5" font-family="Arial" font-size="10.00">AMainCharacter::MulticastFire</text>
</a>
</g>
</g>
<!-- Node6&#45;&gt;Node7 -->
<g id="edge6_Node000006_Node000007" class="edge">
<title>Node6&#45;&gt;Node7</title>
<g id="a_edge6_Node000006_Node000007"><a xlink:title=" ">
<path fill="none" stroke="#63b8ff" d="M327,-20.65C316.85,-19.62 306.4,-18.55 296.23,-17.51"/>
<polygon fill="#63b8ff" stroke="#63b8ff" points="326.49,-24.12 336.8,-21.65 327.2,-17.15 326.49,-24.12"/>
</a>
</g>
</g>
<!-- Node7&#45;&gt;Node7 -->
<g id="edge7_Node000007_Node000007" class="edge">
<title>Node7&#45;&gt;Node7</title>
<g id="a_edge7_Node000007_Node000007"><a xlink:title=" ">
<path fill="none" stroke="#63b8ff" d="M250.96,-31.44C247.19,-35.3 237.41,-38 221.62,-38 192.77,-38 183.98,-28.98 195.25,-20.34"/>
<polygon fill="#63b8ff" stroke="#63b8ff" points="254.35,-30.56 248.39,-21.8 247.59,-32.37 254.35,-30.56"/>
</a>
</g>
</g>
</g>
</svg>
