<?xml version="1.0" encoding="UTF-8" standalone="no"?>
<!DOCTYPE svg PUBLIC "-//W3C//DTD SVG 1.1//EN"
 "http://www.w3.org/Graphics/SVG/1.1/DTD/svg11.dtd">
<!-- Generated by graphviz version 12.2.1 (20241206.2353)
 -->
<!-- Title: AMainCharacter::Tick Pages: 1 -->
<svg width="870pt" height="198pt"
 viewBox="0.00 0.00 870.25 198.00" xmlns="http://www.w3.org/2000/svg" xmlns:xlink="http://www.w3.org/1999/xlink">
<g id="graph0" class="graph" transform="scale(1 1) rotate(0) translate(4 194)">
<title>AMainCharacter::Tick</title>
<!-- Node1 -->
<g id="Node000001" class="node">
<title>Node1</title>
<g id="a_Node000001"><a xlink:title=" ">
<polygon fill="#999999" stroke="#666666" points="111.25,-118 0,-118 0,-98 111.25,-98 111.25,-118"/>
<text text-anchor="middle" x="55.62" y="-104.5" font-family="Arial" font-size="10.00">AMainCharacter::Tick</text>
</a>
</g>
</g>
<!-- Node2 -->
<g id="Node000002" class="node">
<title>Node2</title>
<g id="a_Node000002"><a xlink:href="class_a_main_character.html#ac4fdce98dffe67af9794fa6d3a502d76" target="_top" xlink:title=" ">
<polygon fill="white" stroke="#666666" points="308.38,-190 161.12,-190 161.12,-158 308.38,-158 308.38,-190"/>
<text text-anchor="start" x="169.12" y="-176.5" font-family="Arial" font-size="10.00">AMainCharacter::HideCamera</text>
<text text-anchor="middle" x="234.75" y="-164.5" font-family="Arial" font-size="10.00">IfCharacterClose</text>
</a>
</g>
</g>
<!-- Node1&#45;&gt;Node2 -->
<g id="edge1_Node000001_Node000002" class="edge">
<title>Node1&#45;&gt;Node2</title>
<g id="a_edge1_Node000001_Node000002"><a xlink:title=" ">
<path fill="none" stroke="#63b8ff" d="M77.51,-118.48C95.65,-127.34 122.78,-139.98 147.25,-149 152.13,-150.8 157.2,-152.55 162.33,-154.24"/>
<polygon fill="#63b8ff" stroke="#63b8ff" points="160.86,-157.45 171.45,-157.15 162.99,-150.78 160.86,-157.45"/>
</a>
</g>
</g>
<!-- Node3 -->
<g id="Node000003" class="node">
<title>Node3</title>
<g id="a_Node000003"><a xlink:href="class_a_main_character.html#a077ae7a65e9d30ec470d5f7b3a59579e" target="_top" xlink:title=" ">
<polygon fill="white" stroke="#666666" points="296,-140 173.5,-140 173.5,-120 296,-120 296,-140"/>
<text text-anchor="middle" x="234.75" y="-126.5" font-family="Arial" font-size="10.00">AMainCharacter::PollInit</text>
</a>
</g>
</g>
<!-- Node1&#45;&gt;Node3 -->
<g id="edge2_Node000001_Node000003" class="edge">
<title>Node1&#45;&gt;Node3</title>
<g id="a_edge2_Node000001_Node000003"><a xlink:title=" ">
<path fill="none" stroke="#63b8ff" d="M111.7,-114.84C127.54,-116.81 145.06,-118.98 161.76,-121.06"/>
<polygon fill="#63b8ff" stroke="#63b8ff" points="161.31,-124.53 171.66,-122.29 162.17,-117.58 161.31,-124.53"/>
</a>
</g>
</g>
<!-- Node4 -->
<g id="Node000004" class="node">
<title>Node4</title>
<g id="a_Node000004"><a xlink:href="class_a_main_character.html#a909b1b0adf502bef351cceca49e4eb68" target="_top" xlink:title=" ">
<polygon fill="white" stroke="#666666" points="299.75,-102 169.75,-102 169.75,-70 299.75,-70 299.75,-102"/>
<text text-anchor="start" x="177.75" y="-88.5" font-family="Arial" font-size="10.00">AMainCharacter::RotateIn</text>
<text text-anchor="middle" x="234.75" y="-76.5" font-family="Arial" font-size="10.00">Place</text>
</a>
</g>
</g>
<!-- Node1&#45;&gt;Node4 -->
<g id="edge3_Node000001_Node000004" class="edge">
<title>Node1&#45;&gt;Node4</title>
<g id="a_edge3_Node000001_Node000004"><a xlink:title=" ">
<path fill="none" stroke="#63b8ff" d="M111.7,-101.16C126.41,-99.33 142.56,-97.33 158.17,-95.39"/>
<polygon fill="#63b8ff" stroke="#63b8ff" points="158.41,-98.88 167.9,-94.18 157.55,-91.94 158.41,-98.88"/>
</a>
</g>
</g>
<!-- Node11 -->
<g id="Node000011" class="node">
<title>Node11</title>
<g id="a_Node000011"><a xlink:href="class_a_main_character.html#a489b2bbf70c72576dba98e67627a5a2e" target="_top" xlink:title=" ">
<polygon fill="white" stroke="#666666" points="322.25,-52 147.25,-52 147.25,-32 322.25,-32 322.25,-52"/>
<text text-anchor="middle" x="234.75" y="-38.5" font-family="Arial" font-size="10.00">AMainCharacter::UpdateHUDHealth</text>
</a>
</g>
</g>
<!-- Node1&#45;&gt;Node11 -->
<g id="edge12_Node000001_Node000011" class="edge">
<title>Node1&#45;&gt;Node11</title>
<g id="a_edge12_Node000001_Node000011"><a xlink:title=" ">
<path fill="none" stroke="#63b8ff" d="M73.39,-97.6C91.13,-87 120.25,-70.77 147.25,-61 152.94,-58.94 158.93,-57.06 164.99,-55.36"/>
<polygon fill="#63b8ff" stroke="#63b8ff" points="165.67,-58.8 174.45,-52.88 163.89,-52.03 165.67,-58.8"/>
</a>
</g>
</g>
<!-- Node5 -->
<g id="Node000005" class="node">
<title>Node5</title>
<g id="a_Node000005"><a xlink:href="class_a_main_character.html#a6fa9a33c3dd4522ed81944aabc3114b8" target="_top" xlink:title=" ">
<polygon fill="white" stroke="#666666" points="494.25,-96 358.25,-96 358.25,-76 494.25,-76 494.25,-96"/>
<text text-anchor="middle" x="426.25" y="-82.5" font-family="Arial" font-size="10.00">AMainCharacter::AimOffset</text>
</a>
</g>
</g>
<!-- Node4&#45;&gt;Node5 -->
<g id="edge4_Node000004_Node000005" class="edge">
<title>Node4&#45;&gt;Node5</title>
<g id="a_edge4_Node000004_Node000005"><a xlink:title=" ">
<path fill="none" stroke="#63b8ff" d="M300.17,-86C315.11,-86 331.17,-86 346.64,-86"/>
<polygon fill="#63b8ff" stroke="#63b8ff" points="346.26,-89.5 356.26,-86 346.26,-82.5 346.26,-89.5"/>
</a>
</g>
</g>
<!-- Node6 -->
<g id="Node000006" class="node">
<title>Node6</title>
<g id="a_Node000006"><a xlink:href="class_a_main_character.html#a9294b45704fcfc1746e5f4c1433fcf0b" target="_top" xlink:title=" ">
<polygon fill="white" stroke="#666666" points="678.25,-146 544.5,-146 544.5,-114 678.25,-114 678.25,-146"/>
<text text-anchor="start" x="552.5" y="-132.5" font-family="Arial" font-size="10.00">AMainCharacter::Calculate</text>
<text text-anchor="middle" x="611.38" y="-120.5" font-family="Arial" font-size="10.00">AO_Pitch</text>
</a>
</g>
</g>
<!-- Node4&#45;&gt;Node6 -->
<g id="edge8_Node000004_Node000006" class="edge">
<title>Node4&#45;&gt;Node6</title>
<g id="a_edge8_Node000004_Node000006"><a xlink:title=" ">
<path fill="none" stroke="#63b8ff" d="M300.19,-96.68C318.88,-99.59 339.36,-102.6 358.25,-105 416.65,-112.42 482.89,-118.91 532.81,-123.42"/>
<polygon fill="#63b8ff" stroke="#63b8ff" points="532.39,-126.9 542.66,-124.3 533.02,-119.93 532.39,-126.9"/>
</a>
</g>
</g>
<!-- Node9 -->
<g id="Node000009" class="node">
<title>Node9</title>
<g id="a_Node000009"><a xlink:href="class_a_main_character.html#a0d4eb83adaa4bae05412bdc575f9c50b" target="_top" xlink:title=" ">
<polygon fill="white" stroke="#666666" points="487.88,-42 364.62,-42 364.62,-10 487.88,-10 487.88,-42"/>
<text text-anchor="start" x="372.62" y="-28.5" font-family="Arial" font-size="10.00">AMainCharacter::OnRep</text>
<text text-anchor="middle" x="426.25" y="-16.5" font-family="Arial" font-size="10.00">_ReplicatedMovement</text>
</a>
</g>
</g>
<!-- Node4&#45;&gt;Node9 -->
<g id="edge9_Node000004_Node000009" class="edge">
<title>Node4&#45;&gt;Node9</title>
<g id="a_edge9_Node000004_Node000009"><a xlink:title=" ">
<path fill="none" stroke="#63b8ff" d="M294.02,-69.56C303.48,-66.77 313.15,-63.86 322.25,-61 337.04,-56.35 352.93,-51.09 367.7,-46.08"/>
<polygon fill="#63b8ff" stroke="#63b8ff" points="368.46,-49.52 376.79,-42.98 366.2,-42.89 368.46,-49.52"/>
</a>
</g>
</g>
<!-- Node5&#45;&gt;Node6 -->
<g id="edge5_Node000005_Node000006" class="edge">
<title>Node5&#45;&gt;Node6</title>
<g id="a_edge5_Node000005_Node000006"><a xlink:title=" ">
<path fill="none" stroke="#63b8ff" d="M470.65,-96.43C489.29,-100.91 511.66,-106.28 532.98,-111.4"/>
<polygon fill="#63b8ff" stroke="#63b8ff" points="531.99,-114.77 542.53,-113.7 533.63,-107.96 531.99,-114.77"/>
</a>
</g>
</g>
<!-- Node7 -->
<g id="Node000007" class="node">
<title>Node7</title>
<g id="a_Node000007"><a xlink:href="class_a_main_character.html#a9596fe587a29a2671db7db619b16b46d" target="_top" xlink:title=" ">
<polygon fill="white" stroke="#666666" points="862.25,-64 728.5,-64 728.5,-32 862.25,-32 862.25,-64"/>
<text text-anchor="start" x="736.5" y="-50.5" font-family="Arial" font-size="10.00">AMainCharacter::Calculate</text>
<text text-anchor="middle" x="795.38" y="-38.5" font-family="Arial" font-size="10.00">Speed</text>
</a>
</g>
</g>
<!-- Node5&#45;&gt;Node7 -->
<g id="edge6_Node000005_Node000007" class="edge">
<title>Node5&#45;&gt;Node7</title>
<g id="a_edge6_Node000005_Node000007"><a xlink:title=" ">
<path fill="none" stroke="#63b8ff" d="M494.5,-83.28C548.25,-80.61 625.42,-75.63 692.5,-67 700.47,-65.97 708.77,-64.73 717.03,-63.37"/>
<polygon fill="#63b8ff" stroke="#63b8ff" points="717.48,-66.84 726.75,-61.71 716.3,-59.94 717.48,-66.84"/>
</a>
</g>
</g>
<!-- Node8 -->
<g id="Node000008" class="node">
<title>Node8</title>
<g id="a_Node000008"><a xlink:href="class_a_main_character.html#a11a0d4e525d8b74552333de269a1e59d" target="_top" xlink:title=" ">
<polygon fill="white" stroke="#666666" points="683.88,-58 538.88,-58 538.88,-38 683.88,-38 683.88,-58"/>
<text text-anchor="middle" x="611.38" y="-44.5" font-family="Arial" font-size="10.00">AMainCharacter::TurnInPlace</text>
</a>
</g>
</g>
<!-- Node5&#45;&gt;Node8 -->
<g id="edge7_Node000005_Node000008" class="edge">
<title>Node5&#45;&gt;Node8</title>
<g id="a_edge7_Node000005_Node000008"><a xlink:title=" ">
<path fill="none" stroke="#63b8ff" d="M477.77,-75.52C499.79,-70.95 525.8,-65.55 548.92,-60.75"/>
<polygon fill="#63b8ff" stroke="#63b8ff" points="549.45,-64.22 558.53,-58.76 548.03,-57.36 549.45,-64.22"/>
</a>
</g>
</g>
<!-- Node10 -->
<g id="Node000010" class="node">
<title>Node10</title>
<g id="a_Node000010"><a xlink:href="class_a_main_character.html#ad664d0ab39058e928e96c8abf84f36bf" target="_top" xlink:title=" ">
<polygon fill="white" stroke="#666666" points="692.5,-20 530.25,-20 530.25,0 692.5,0 692.5,-20"/>
<text text-anchor="middle" x="611.38" y="-6.5" font-family="Arial" font-size="10.00">AMainCharacter::SimProxiesTurn</text>
</a>
</g>
</g>
<!-- Node9&#45;&gt;Node10 -->
<g id="edge10_Node000009_Node000010" class="edge">
<title>Node9&#45;&gt;Node10</title>
<g id="a_edge10_Node000009_Node000010"><a xlink:title=" ">
<path fill="none" stroke="#63b8ff" d="M488.23,-20.67C498.01,-19.82 508.31,-18.92 518.62,-18.02"/>
<polygon fill="#63b8ff" stroke="#63b8ff" points="518.62,-21.53 528.28,-17.17 518.01,-14.56 518.62,-21.53"/>
</a>
</g>
</g>
<!-- Node10&#45;&gt;Node7 -->
<g id="edge11_Node000010_Node000007" class="edge">
<title>Node10&#45;&gt;Node7</title>
<g id="a_edge11_Node000010_Node000007"><a xlink:title=" ">
<path fill="none" stroke="#63b8ff" d="M662.59,-20.48C679.48,-24.01 698.75,-28.03 717.23,-31.89"/>
<polygon fill="#63b8ff" stroke="#63b8ff" points="716.31,-35.28 726.82,-33.89 717.74,-28.42 716.31,-35.28"/>
</a>
</g>
</g>
</g>
</svg>
