<?xml version="1.0" encoding="UTF-8" standalone="no"?>
<!DOCTYPE svg PUBLIC "-//W3C//DTD SVG 1.1//EN"
 "http://www.w3.org/Graphics/SVG/1.1/DTD/svg11.dtd">
<!-- Generated by graphviz version 12.2.1 (20241206.2353)
 -->
<!-- Title: AMainGameState::UpdateTopScore Pages: 1 -->
<svg width="738pt" height="40pt"
 viewBox="0.00 0.00 738.00 40.00" xmlns="http://www.w3.org/2000/svg" xmlns:xlink="http://www.w3.org/1999/xlink">
<g id="graph0" class="graph" transform="scale(1 1) rotate(0) translate(4 36)">
<title>AMainGameState::UpdateTopScore</title>
<!-- Node1 -->
<g id="Node000001" class="node">
<title>Node1</title>
<g id="a_Node000001"><a xlink:title=" ">
<polygon fill="#999999" stroke="#666666" points="730,-32 583.5,-32 583.5,0 730,0 730,-32"/>
<text text-anchor="start" x="591.5" y="-18.5" font-family="Arial" font-size="10.00">AMainGameState::UpdateTop</text>
<text text-anchor="middle" x="656.75" y="-6.5" font-family="Arial" font-size="10.00">Score</text>
</a>
</g>
</g>
<!-- Node2 -->
<g id="Node000002" class="node">
<title>Node2</title>
<g id="a_Node000002"><a xlink:href="class_a_main_game_mode.html#a67e1cb2f93133f0c044f3f0ed73c970c" target="_top" xlink:title=" ">
<polygon fill="white" stroke="#666666" points="547.5,-26 374,-26 374,-6 547.5,-6 547.5,-26"/>
<text text-anchor="middle" x="460.75" y="-12.5" font-family="Arial" font-size="10.00">AMainGameMode::PlayerEliminated</text>
</a>
</g>
</g>
<!-- Node1&#45;&gt;Node2 -->
<g id="edge1_Node000001_Node000002" class="edge">
<title>Node1&#45;&gt;Node2</title>
<g id="a_edge1_Node000001_Node000002"><a xlink:title=" ">
<path fill="none" stroke="#63b8ff" d="M571.77,-16C563.86,-16 555.84,-16 547.92,-16"/>
<polygon fill="#63b8ff" stroke="#63b8ff" points="571.72,-19.5 581.72,-16 571.72,-12.5 571.72,-19.5"/>
</a>
</g>
</g>
<!-- Node3 -->
<g id="Node000003" class="node">
<title>Node3</title>
<g id="a_Node000003"><a xlink:href="class_a_main_character.html#a33d3267c0046be93c39178a2ed3944b3" target="_top" xlink:title=" ">
<polygon fill="white" stroke="#666666" points="338,-26 172.75,-26 172.75,-6 338,-6 338,-26"/>
<text text-anchor="middle" x="255.38" y="-12.5" font-family="Arial" font-size="10.00">AMainCharacter::ReceiveDamage</text>
</a>
</g>
</g>
<!-- Node2&#45;&gt;Node3 -->
<g id="edge2_Node000002_Node000003" class="edge">
<title>Node2&#45;&gt;Node3</title>
<g id="a_edge2_Node000002_Node000003"><a xlink:title=" ">
<path fill="none" stroke="#63b8ff" d="M362.2,-16C354.18,-16 346.12,-16 338.23,-16"/>
<polygon fill="#63b8ff" stroke="#63b8ff" points="361.99,-19.5 371.99,-16 361.99,-12.5 361.99,-19.5"/>
</a>
</g>
</g>
<!-- Node4 -->
<g id="Node000004" class="node">
<title>Node4</title>
<g id="a_Node000004"><a xlink:href="class_a_main_character.html#a096ef46022cd84777b571482729ed02f" target="_top" xlink:title=" ">
<polygon fill="white" stroke="#666666" points="136.75,-26 0,-26 0,-6 136.75,-6 136.75,-26"/>
<text text-anchor="middle" x="68.38" y="-12.5" font-family="Arial" font-size="10.00">AMainCharacter::BeginPlay</text>
</a>
</g>
</g>
<!-- Node3&#45;&gt;Node4 -->
<g id="edge3_Node000003_Node000004" class="edge">
<title>Node3&#45;&gt;Node4</title>
<g id="a_edge3_Node000003_Node000004"><a xlink:title=" ">
<path fill="none" stroke="#63b8ff" d="M161.05,-16C152.99,-16 144.93,-16 137.13,-16"/>
<polygon fill="#63b8ff" stroke="#63b8ff" points="160.91,-19.5 170.91,-16 160.91,-12.5 160.91,-19.5"/>
</a>
</g>
</g>
</g>
</svg>
