<?xml version="1.0" encoding="UTF-8" standalone="no"?>
<!DOCTYPE svg PUBLIC "-//W3C//DTD SVG 1.1//EN"
 "http://www.w3.org/Graphics/SVG/1.1/DTD/svg11.dtd">
<!-- Generated by graphviz version 12.2.1 (20241206.2353)
 -->
<!-- Title: AMainGameMode::RequestRespawn Pages: 1 -->
<!--zoomable 131 -->

<svg id="main" version="1.1" xmlns="http://www.w3.org/2000/svg" xmlns:xlink="http://www.w3.org/1999/xlink" xml:space="preserve" onload="init(evt)">

<style type="text/css"><![CDATA[
.node, .edge {opacity: 0.7;}
.node.selected, .edge.selected {opacity: 1;}
.edge:hover path { stroke: red; }
.edge:hover polygon { stroke: red; fill: red; }
]]></style>

<defs>
  <circle id="rim" cx="0" cy="0" r="7"/>
  <circle id="rim2" cx="0" cy="0" r="3.5"/>
  <g id="zoomPlus">
    <use xlink:href="#rim" fill="#404040"><set attributeName="fill" to="#808080" begin="zoomplus.mouseover" end="zoomplus.mouseout"/></use>
    <path d="M-4,0h8M0,-4v8" fill="none" stroke="white" stroke-width="1.5" pointer-events="none"/>
  </g>
  <g id="zoomMin">
    <use xlink:href="#rim" fill="#404040"><set attributeName="fill" to="#808080" begin="zoomminus.mouseover" end="zoomminus.mouseout"/></use>
    <path d="M-4,0h8" fill="none" stroke="white" stroke-width="1.5" pointer-events="none"/>
  </g>
  <g id="arrowUp" transform="translate(30 24)">
    <use xlink:href="#rim"/>
    <path pointer-events="none" fill="none" stroke="white" stroke-width="1.5" d="M0,-3.0v7 M-2.5,-0.5L0,-3.0L2.5,-0.5"/>
  </g>
  <g id="arrowRight" transform="rotate(90) translate(36 -43)">
    <use xlink:href="#rim"/>
    <path pointer-events="none" fill="none" stroke="white" stroke-width="1.5" d="M0,-3.0v7 M-2.5,-0.5L0,-3.0L2.5,-0.5"/>
  </g>
  <g id="arrowDown" transform="rotate(180) translate(-30 -48)">
    <use xlink:href="#rim"/>
    <path pointer-events="none" fill="none" stroke="white" stroke-width="1.5" d="M0,-3.0v7 M-2.5,-0.5L0,-3.0L2.5,-0.5"/>
  </g>
  <g id="arrowLeft" transform="rotate(270) translate(-36 17)">
    <use xlink:href="#rim"/>
    <path pointer-events="none" fill="none" stroke="white" stroke-width="1.5" d="M0,-3.0v7 M-2.5,-0.5L0,-3.0L2.5,-0.5"/>
  </g>
  <g id="resetDef">
    <use xlink:href="#rim2" fill="#404040"><set attributeName="fill" to="#808080" begin="reset.mouseover" end="reset.mouseout"/></use>
  </g>
</defs>
<script type="application/ecmascript">
var viewWidth = 1090;
var viewHeight = 131;
var sectionId = 'dynsection-14';
</script>
<script type="application/ecmascript" xlink:href="svg.min.js"/>
<svg id="graph" class="graph">
<g id="viewport">
<title>AMainGameMode::RequestRespawn</title>
<!-- Node1 -->
<g id="Node000001" class="node">
<title>Node1</title>
<g id="a_Node000001"><a xlink:title=" ">
<polygon fill="#999999" stroke="#666666" points="1082.25,-48 904.25,-48 904.25,-28 1082.25,-28 1082.25,-48"/>
<text text-anchor="middle" x="993.25" y="-34.5" font-family="Arial" font-size="10.00">AMainGameMode::RequestRespawn</text>
</a>
</g>
</g>
<!-- Node2 -->
<g id="Node000002" class="node">
<title>Node2</title>
<g id="a_Node000002"><a xlink:href="class_a_main_character.html#aea17dde5a15443622f0bf918c57cce6f" target="_top" xlink:title=" ">
<polygon fill="white" stroke="#666666" points="868.25,-76 731.5,-76 731.5,-44 868.25,-44 868.25,-76"/>
<text text-anchor="start" x="739.5" y="-62.5" font-family="Arial" font-size="10.00">AMainCharacter::ElimTimer</text>
<text text-anchor="middle" x="799.88" y="-50.5" font-family="Arial" font-size="10.00">Finished</text>
</a>
</g>
</g>
<!-- Node1&#45;&gt;Node2 -->
<g id="edge1_Node000001_Node000002" class="edge">
<title>Node1&#45;&gt;Node2</title>
<g id="a_edge1_Node000001_Node000002"><a xlink:title=" ">
<path fill="none" stroke="#63b8ff" d="M892.44,-49.47C884.37,-50.4 876.34,-51.33 868.58,-52.22"/>
<polygon fill="#63b8ff" stroke="#63b8ff" points="892.81,-52.95 902.34,-48.34 892.01,-46 892.81,-52.95"/>
</a>
</g>
</g>
<!-- Node6 -->
<g id="Node000006" class="node">
<title>Node6</title>
<g id="a_Node000006"><a xlink:href="class_a_main_game_mode.html#a3673993b38825474635502e6aad2e05e" target="_top" xlink:title=" ">
<polygon fill="white" stroke="#666666" points="332,-32 178.75,-32 178.75,0 332,0 332,-32"/>
<text text-anchor="start" x="186.75" y="-18.5" font-family="Arial" font-size="10.00">AMainGameMode::FMainGame</text>
<text text-anchor="middle" x="255.38" y="-6.5" font-family="Arial" font-size="10.00">ModeBeginPlayTest</text>
</a>
</g>
</g>
<!-- Node1&#45;&gt;Node6 -->
<g id="edge10_Node000001_Node000006" class="edge">
<title>Node1&#45;&gt;Node6</title>
<g id="a_edge10_Node000001_Node000006"><a xlink:title=" ">
<path fill="none" stroke="#63b8ff" d="M892.48,-35.02C743.52,-30.56 466.24,-22.27 332.46,-18.27"/>
<polygon fill="#63b8ff" stroke="#63b8ff" points="892.24,-38.51 902.34,-35.31 892.45,-31.51 892.24,-38.51"/>
</a>
</g>
</g>
<!-- Node3 -->
<g id="Node000003" class="node">
<title>Node3</title>
<g id="a_Node000003"><a xlink:href="class_a_main_character.html#a9d0b7a05e0580099815730100ad9bfb6" target="_top" xlink:title="Elimination.">
<polygon fill="white" stroke="#666666" points="695.5,-70 583.5,-70 583.5,-50 695.5,-50 695.5,-70"/>
<text text-anchor="middle" x="639.5" y="-56.5" font-family="Arial" font-size="10.00">AMainCharacter::Elim</text>
</a>
</g>
</g>
<!-- Node2&#45;&gt;Node3 -->
<g id="edge2_Node000002_Node000003" class="edge">
<title>Node2&#45;&gt;Node3</title>
<g id="a_edge2_Node000002_Node000003"><a xlink:title=" ">
<path fill="none" stroke="#63b8ff" d="M719.87,-60C711.79,-60 703.71,-60 695.96,-60"/>
<polygon fill="#63b8ff" stroke="#63b8ff" points="719.74,-63.5 729.74,-60 719.74,-56.5 719.74,-63.5"/>
</a>
</g>
</g>
<!-- Node4 -->
<g id="Node000004" class="node">
<title>Node4</title>
<g id="a_Node000004"><a xlink:href="class_a_main_character.html#a501bd7ba0eb90bf0c1da39ec8496f6e0" target="_top" xlink:title=" ">
<polygon fill="white" stroke="#666666" points="535.12,-105 386.38,-105 386.38,-85 535.12,-85 535.12,-105"/>
<text text-anchor="middle" x="460.75" y="-91.5" font-family="Arial" font-size="10.00">AMainCharacter::MulticastFire</text>
</a>
</g>
</g>
<!-- Node3&#45;&gt;Node4 -->
<g id="edge3_Node000003_Node000004" class="edge">
<title>Node3&#45;&gt;Node4</title>
<g id="a_edge3_Node000003_Node000004"><a xlink:title=" ">
<path fill="none" stroke="#63b8ff" d="M574.89,-72.6C555.16,-76.5 533.64,-80.77 514.71,-84.51"/>
<polygon fill="#63b8ff" stroke="#63b8ff" points="575.33,-76.08 584.46,-70.7 573.97,-69.21 575.33,-76.08"/>
</a>
</g>
</g>
<!-- Node5 -->
<g id="Node000005" class="node">
<title>Node5</title>
<g id="a_Node000005"><a xlink:href="class_a_main_game_mode.html#a67e1cb2f93133f0c044f3f0ed73c970c" target="_top" xlink:title=" ">
<polygon fill="white" stroke="#666666" points="547.5,-67 374,-67 374,-47 547.5,-47 547.5,-67"/>
<text text-anchor="middle" x="460.75" y="-53.5" font-family="Arial" font-size="10.00">AMainGameMode::PlayerEliminated</text>
</a>
</g>
</g>
<!-- Node3&#45;&gt;Node5 -->
<g id="edge5_Node000003_Node000005" class="edge">
<title>Node3&#45;&gt;Node5</title>
<g id="a_edge5_Node000003_Node000005"><a xlink:title=" ">
<path fill="none" stroke="#63b8ff" d="M571.76,-58.87C563.91,-58.73 555.82,-58.6 547.75,-58.46"/>
<polygon fill="#63b8ff" stroke="#63b8ff" points="571.49,-62.36 581.55,-59.03 571.61,-55.36 571.49,-62.36"/>
</a>
</g>
</g>
<!-- Node4&#45;&gt;Node4 -->
<g id="edge4_Node000004_Node000004" class="edge">
<title>Node4&#45;&gt;Node4</title>
<g id="a_edge4_Node000004_Node000004"><a xlink:title=" ">
<path fill="none" stroke="#63b8ff" d="M492.68,-116.11C488.87,-120.14 478.23,-123 460.75,-123 429.68,-123 420.21,-113.98 432.35,-105.34"/>
<polygon fill="#63b8ff" stroke="#63b8ff" points="496.06,-115.19 489.62,-106.78 489.41,-117.37 496.06,-115.19"/>
</a>
</g>
</g>
<!-- Node5&#45;&gt;Node6 -->
<g id="edge6_Node000005_Node000006" class="edge">
<title>Node5&#45;&gt;Node6</title>
<g id="a_edge6_Node000005_Node000006"><a xlink:title=" ">
<path fill="none" stroke="#63b8ff" d="M396.84,-44.32C376.43,-40.2 353.57,-35.59 332.32,-31.31"/>
<polygon fill="#63b8ff" stroke="#63b8ff" points="395.93,-47.7 406.42,-46.25 397.31,-40.84 395.93,-47.7"/>
</a>
</g>
</g>
<!-- Node7 -->
<g id="Node000007" class="node">
<title>Node7</title>
<g id="a_Node000007"><a xlink:href="class_a_main_character.html#a33d3267c0046be93c39178a2ed3944b3" target="_top" xlink:title=" ">
<polygon fill="white" stroke="#666666" points="338,-88 172.75,-88 172.75,-68 338,-68 338,-88"/>
<text text-anchor="middle" x="255.38" y="-74.5" font-family="Arial" font-size="10.00">AMainCharacter::ReceiveDamage</text>
</a>
</g>
</g>
<!-- Node5&#45;&gt;Node7 -->
<g id="edge8_Node000005_Node000007" class="edge">
<title>Node5&#45;&gt;Node7</title>
<g id="a_edge8_Node000005_Node000007"><a xlink:title=" ">
<path fill="none" stroke="#63b8ff" d="M362.2,-67.07C354.18,-67.9 346.12,-68.73 338.23,-69.55"/>
<polygon fill="#63b8ff" stroke="#63b8ff" points="362.41,-70.57 372,-66.06 361.69,-63.61 362.41,-70.57"/>
</a>
</g>
</g>
<!-- Node6&#45;&gt;Node6 -->
<g id="edge7_Node000006_Node000006" class="edge">
<title>Node6&#45;&gt;Node6</title>
<g id="a_edge7_Node000006_Node000006"><a xlink:title=" ">
<path fill="none" stroke="#63b8ff" d="M286.54,-43.71C281.34,-47.48 270.95,-50 255.38,-50 226.89,-50 215.76,-41.58 221.99,-32.44"/>
<polygon fill="#63b8ff" stroke="#63b8ff" points="289.97,-44.42 288.47,-33.93 283.1,-43.06 289.97,-44.42"/>
</a>
</g>
</g>
<!-- Node8 -->
<g id="Node000008" class="node">
<title>Node8</title>
<g id="a_Node000008"><a xlink:href="class_a_main_character.html#a096ef46022cd84777b571482729ed02f" target="_top" xlink:title=" ">
<polygon fill="white" stroke="#666666" points="136.75,-88 0,-88 0,-68 136.75,-68 136.75,-88"/>
<text text-anchor="middle" x="68.38" y="-74.5" font-family="Arial" font-size="10.00">AMainCharacter::BeginPlay</text>
</a>
</g>
</g>
<!-- Node7&#45;&gt;Node8 -->
<g id="edge9_Node000007_Node000008" class="edge">
<title>Node7&#45;&gt;Node8</title>
<g id="a_edge9_Node000007_Node000008"><a xlink:title=" ">
<path fill="none" stroke="#63b8ff" d="M161.05,-78C152.99,-78 144.93,-78 137.13,-78"/>
<polygon fill="#63b8ff" stroke="#63b8ff" points="160.91,-81.5 170.91,-78 160.91,-74.5 160.91,-81.5"/>
</a>
</g>
</g>
</g>
</svg>

<g id="navigator" transform="translate(0 0)" fill="#404254">
  <rect fill="#f2f5e9" fill-opacity="0.5" stroke="#606060" stroke-width=".5" x="0" y="0" width="60" height="60"/>
  <use id="zoomplus" xlink:href="#zoomPlus" x="17" y="9" onmousedown="handleZoom(evt,'in')"/>
  <use id="zoomminus" xlink:href="#zoomMin" x="42" y="9" onmousedown="handleZoom(evt,'out')"/>
  <use id="reset" xlink:href="#resetDef" x="30" y="36" onmousedown="handleReset()"/>
   <use id="arrowup" xlink:href="#arrowUp" x="0" y="0" onmousedown="handlePan(0,-1)"/>
  <use id="arrowright" xlink:href="#arrowRight" x="0" y="0" onmousedown="handlePan(1,0)"/>
  <use id="arrowdown" xlink:href="#arrowDown" x="0" y="0" onmousedown="handlePan(0,1)"/>
  <use id="arrowleft" xlink:href="#arrowLeft" x="0" y="0" onmousedown="handlePan(-1,0)"/>
</g>
<svg viewBox="0 0 15 15" width="100%" height="30px" preserveAspectRatio="xMaxYMin meet">
 <g id="arrow_out" transform="scale(0.3 0.3)">
  <a xlink:href="class_a_main_game_mode_a3713d86d5420f9c8fc8c0e5b055955a2_icgraph_org.svg" target="_base">
   <rect id="button" ry="5" rx="5" y="6" x="6" height="38" width="38"
        fill="#f2f5e9" fill-opacity="0.5" stroke="#606060" stroke-width="1.0"/>
   <path id="arrow"
     d="M 11.500037,31.436501 C 11.940474,20.09759 22.043105,11.32322 32.158766,21.979434 L 37.068811,17.246167 C 37.068811,17.246167 37.088388,32 37.088388,32 L 22.160133,31.978069 C 22.160133,31.978069 26.997745,27.140456 26.997745,27.140456 C 18.528582,18.264221 13.291696,25.230495 11.500037,31.436501 z"
     style="fill:#404040;"/>
  </a>
 </g>
</svg>

<style type='text/css'>
<![CDATA[
[data-mouse-over-selected='false'] { opacity: 0.7; }
[data-mouse-over-selected='true']  { opacity: 1.0; }
]]>
</style>
<script type="application/ecmascript"><![CDATA[
document.addEventListener('DOMContentLoaded', (event) => {
  highlightEdges();
  highlightAdjacentNodes();
});
]]></script>
</svg>
