<?xml version="1.0" encoding="UTF-8" standalone="no"?>
<!DOCTYPE svg PUBLIC "-//W3C//DTD SVG 1.1//EN"
 "http://www.w3.org/Graphics/SVG/1.1/DTD/svg11.dtd">
<!-- Generated by graphviz version 12.2.1 (20241206.2353)
 -->
<!-- Title: USettingsMenu Pages: 1 -->
<svg width="130pt" height="228pt"
 viewBox="0.00 0.00 129.50 228.00" xmlns="http://www.w3.org/2000/svg" xmlns:xlink="http://www.w3.org/1999/xlink">
<g id="graph0" class="graph" transform="scale(1 1) rotate(0) translate(4 224)">
<title>USettingsMenu</title>
<!-- Node1 -->
<g id="Node000001" class="node">
<title>Node1</title>
<g id="a_Node000001"><a xlink:title=" ">
<polygon fill="#999999" stroke="none" points="121.5,-132 0,-132 0,0 121.5,0 121.5,-132"/>
<text text-anchor="start" x="27" y="-118.5" font-family="Arial" font-size="10.00">USettingsMenu</text>
<text text-anchor="start" x="4" y="-102.5" font-family="Arial" font-size="10.00">+</text>
<text text-anchor="start" x="14" y="-102.5" font-family="Arial" font-size="10.00">VolumeSlider</text>
<text text-anchor="start" x="4" y="-86.5" font-family="Arial" font-size="10.00">+</text>
<text text-anchor="start" x="14" y="-86.5" font-family="Arial" font-size="10.00">SensitivitySlider</text>
<text text-anchor="start" x="4" y="-70.5" font-family="Arial" font-size="10.00">+</text>
<text text-anchor="start" x="14" y="-70.5" font-family="Arial" font-size="10.00">SlideInAnimation</text>
<text text-anchor="start" x="4" y="-54.5" font-family="Arial" font-size="10.00">+</text>
<text text-anchor="start" x="14" y="-54.5" font-family="Arial" font-size="10.00">OnSensitivityChanged()</text>
<text text-anchor="start" x="4" y="-38.5" font-family="Arial" font-size="10.00">+</text>
<text text-anchor="start" x="14" y="-38.5" font-family="Arial" font-size="10.00">NativeConstruct()</text>
<text text-anchor="start" x="4" y="-22.5" font-family="Arial" font-size="10.00">+</text>
<text text-anchor="start" x="14" y="-22.5" font-family="Arial" font-size="10.00">NativeOnKeyDown()</text>
<text text-anchor="start" x="4" y="-6.5" font-family="Arial" font-size="10.00">+</text>
<text text-anchor="start" x="14" y="-6.5" font-family="Arial" font-size="10.00">OnVolumeChanged()</text>
<polygon fill="#666666" stroke="#666666" points="0,-114 0,-114 121.5,-114 121.5,-114 0,-114"/>
<polygon fill="#666666" stroke="#666666" points="0,-66 0,-66 12,-66 12,-66 0,-66"/>
<polygon fill="#666666" stroke="#666666" points="12,-66 12,-66 121.5,-66 121.5,-66 12,-66"/>
<polygon fill="none" stroke="#666666" points="0,0 0,-132 121.5,-132 121.5,0 0,0"/>
</a>
</g>
</g>
<!-- Node2 -->
<g id="Node000002" class="node">
<title>Node2</title>
<g id="a_Node000002"><a xlink:title=" ">
<polygon fill="white" stroke="none" points="94.38,-220 27.12,-220 27.12,-168 94.38,-168 94.38,-220"/>
<text text-anchor="start" x="31.12" y="-206.5" font-family="Arial" font-size="10.00">UUserWidget</text>
<text text-anchor="start" x="59.25" y="-190.5" font-family="Arial" font-size="10.00"> </text>
<text text-anchor="start" x="59.25" y="-174.5" font-family="Arial" font-size="10.00"> </text>
<polygon fill="#666666" stroke="#666666" points="27.12,-202 27.12,-202 94.38,-202 94.38,-202 27.12,-202"/>
<polygon fill="#666666" stroke="#666666" points="27.12,-186 27.12,-186 94.38,-186 94.38,-186 27.12,-186"/>
<polygon fill="none" stroke="#666666" points="27.12,-168 27.12,-220 94.38,-220 94.38,-168 27.12,-168"/>
</a>
</g>
</g>
<!-- Node2&#45;&gt;Node1 -->
<g id="edge1_Node000001_Node000002" class="edge">
<title>Node2&#45;&gt;Node1</title>
<g id="a_edge1_Node000001_Node000002"><a xlink:title=" ">
<path fill="none" stroke="#63b8ff" d="M60.75,-156.79C60.75,-148.94 60.75,-140.4 60.75,-131.82"/>
<polygon fill="none" stroke="#63b8ff" points="57.25,-156.59 60.75,-166.59 64.25,-156.59 57.25,-156.59"/>
</a>
</g>
</g>
</g>
</svg>
