<?xml version="1.0" encoding="UTF-8" standalone="no"?>
<!DOCTYPE svg PUBLIC "-//W3C//DTD SVG 1.1//EN"
 "http://www.w3.org/Graphics/SVG/1.1/DTD/svg11.dtd">
<!-- Generated by graphviz version 12.2.1 (20241206.2353)
 -->
<!-- Title: APickupSpawnPoint::SpawnPickupTimerFinished Pages: 1 -->
<svg width="451pt" height="90pt"
 viewBox="0.00 0.00 450.50 90.00" xmlns="http://www.w3.org/2000/svg" xmlns:xlink="http://www.w3.org/1999/xlink">
<g id="graph0" class="graph" transform="scale(1 1) rotate(0) translate(4 86)">
<title>APickupSpawnPoint::SpawnPickupTimerFinished</title>
<!-- Node1 -->
<g id="Node000001" class="node">
<title>Node1</title>
<g id="a_Node000001"><a xlink:title=" ">
<polygon fill="#999999" stroke="#666666" points="442.5,-54 305,-54 305,-22 442.5,-22 442.5,-54"/>
<text text-anchor="start" x="313" y="-40.5" font-family="Arial" font-size="10.00">APickupSpawnPoint::</text>
<text text-anchor="middle" x="373.75" y="-28.5" font-family="Arial" font-size="10.00">SpawnPickupTimerFinished</text>
</a>
</g>
</g>
<!-- Node2 -->
<g id="Node000002" class="node">
<title>Node2</title>
<g id="a_Node000002"><a xlink:href="class_a_pickup_spawn_point.html#af0bf24b834398d646efdc4bbe69835a9" target="_top" xlink:title=" ">
<polygon fill="white" stroke="#666666" points="269,-76 147.25,-76 147.25,-44 269,-44 269,-76"/>
<text text-anchor="start" x="155.25" y="-62.5" font-family="Arial" font-size="10.00">APickupSpawnPoint::</text>
<text text-anchor="middle" x="208.12" y="-50.5" font-family="Arial" font-size="10.00">StartSpawnPickupTimer</text>
</a>
</g>
</g>
<!-- Node1&#45;&gt;Node2 -->
<g id="edge1_Node000001_Node000002" class="edge">
<title>Node1&#45;&gt;Node2</title>
<g id="a_edge1_Node000001_Node000002"><a xlink:title=" ">
<path fill="none" stroke="#63b8ff" d="M293.39,-48.67C285.29,-49.76 277.16,-50.85 269.31,-51.91"/>
<polygon fill="#63b8ff" stroke="#63b8ff" points="293.84,-52.14 303.28,-47.34 292.9,-45.2 293.84,-52.14"/>
</a>
</g>
</g>
<!-- Node3 -->
<g id="Node000003" class="node">
<title>Node3</title>
<g id="a_Node000003"><a xlink:href="class_a_pickup_spawn_point.html#aad4900ade96050324280c0e542c63f4d" target="_top" xlink:title=" ">
<polygon fill="white" stroke="#666666" points="111.25,-82 0,-82 0,-50 111.25,-50 111.25,-82"/>
<text text-anchor="start" x="8" y="-68.5" font-family="Arial" font-size="10.00">APickupSpawnPoint::</text>
<text text-anchor="middle" x="55.62" y="-56.5" font-family="Arial" font-size="10.00">BeginPlay</text>
</a>
</g>
</g>
<!-- Node2&#45;&gt;Node3 -->
<g id="edge2_Node000002_Node000003" class="edge">
<title>Node2&#45;&gt;Node3</title>
<g id="a_edge2_Node000002_Node000003"><a xlink:title=" ">
<path fill="none" stroke="#63b8ff" d="M135.51,-62.86C127.48,-63.18 119.4,-63.5 111.63,-63.81"/>
<polygon fill="#63b8ff" stroke="#63b8ff" points="135.41,-66.36 145.27,-62.47 135.13,-59.37 135.41,-66.36"/>
</a>
</g>
</g>
<!-- Node4 -->
<g id="Node000004" class="node">
<title>Node4</title>
<g id="a_Node000004"><a xlink:href="class_a_pickup_spawn_point.html#a001dc948b03105ab7d05ed184af4abf9" target="_top" xlink:title=" ">
<polygon fill="white" stroke="#666666" points="111.25,-32 0,-32 0,0 111.25,0 111.25,-32"/>
<text text-anchor="start" x="8" y="-18.5" font-family="Arial" font-size="10.00">APickupSpawnPoint::</text>
<text text-anchor="middle" x="55.62" y="-6.5" font-family="Arial" font-size="10.00">SpawnPickup</text>
</a>
</g>
</g>
<!-- Node2&#45;&gt;Node4 -->
<g id="edge3_Node000002_Node000004" class="edge">
<title>Node2&#45;&gt;Node4</title>
<g id="a_edge3_Node000002_Node000004"><a xlink:title=" ">
<path fill="none" stroke="#63b8ff" d="M140.07,-40.4C130.59,-37.62 120.93,-34.8 111.71,-32.1"/>
<polygon fill="#63b8ff" stroke="#63b8ff" points="139.05,-43.74 149.63,-43.19 141.02,-37.03 139.05,-43.74"/>
</a>
</g>
</g>
<!-- Node4&#45;&gt;Node1 -->
<g id="edge4_Node000004_Node000001" class="edge">
<title>Node4&#45;&gt;Node1</title>
<g id="a_edge4_Node000004_Node000001"><a xlink:title=" ">
<path fill="none" stroke="#63b8ff" d="M122.94,-20.62C176.22,-24.32 250.77,-29.51 304.54,-33.25"/>
<polygon fill="#63b8ff" stroke="#63b8ff" points="123.3,-17.13 113.08,-19.93 122.82,-24.11 123.3,-17.13"/>
</a>
</g>
</g>
</g>
</svg>
