<?xml version="1.0" encoding="UTF-8" standalone="no"?>
<!DOCTYPE svg PUBLIC "-//W3C//DTD SVG 1.1//EN"
 "http://www.w3.org/Graphics/SVG/1.1/DTD/svg11.dtd">
<!-- Generated by graphviz version 12.2.1 (20241206.2353)
 -->
<!-- Title: AMyPlayerController::HandleMatchHasStarted Pages: 1 -->
<svg width="698pt" height="108pt"
 viewBox="0.00 0.00 698.25 108.00" xmlns="http://www.w3.org/2000/svg" xmlns:xlink="http://www.w3.org/1999/xlink">
<g id="graph0" class="graph" transform="scale(1 1) rotate(0) translate(4 104)">
<title>AMyPlayerController::HandleMatchHasStarted</title>
<!-- Node1 -->
<g id="Node000001" class="node">
<title>Node1</title>
<g id="a_Node000001"><a xlink:title=" ">
<polygon fill="#999999" stroke="#666666" points="690.25,-57 561,-57 561,-25 690.25,-25 690.25,-57"/>
<text text-anchor="start" x="569" y="-43.5" font-family="Arial" font-size="10.00">AMyPlayerController</text>
<text text-anchor="middle" x="625.62" y="-31.5" font-family="Arial" font-size="10.00">::HandleMatchHasStarted</text>
</a>
</g>
</g>
<!-- Node2 -->
<g id="Node000002" class="node">
<title>Node2</title>
<g id="a_Node000002"><a xlink:href="class_a_my_player_controller.html#a58bb90e2c607ae458ec045dbf2822b39" target="_top" xlink:title=" ">
<polygon fill="white" stroke="#666666" points="523.88,-82 417.88,-82 417.88,-50 523.88,-50 523.88,-82"/>
<text text-anchor="start" x="425.88" y="-68.5" font-family="Arial" font-size="10.00">AMyPlayerController</text>
<text text-anchor="middle" x="470.88" y="-56.5" font-family="Arial" font-size="10.00">::OnMatchStateSet</text>
</a>
</g>
</g>
<!-- Node1&#45;&gt;Node2 -->
<g id="edge1_Node000001_Node000002" class="edge">
<title>Node1&#45;&gt;Node2</title>
<g id="a_edge1_Node000001_Node000002"><a xlink:title=" ">
<path fill="none" stroke="#63b8ff" d="M549.44,-53.31C540.81,-54.72 532.16,-56.13 523.93,-57.48"/>
<polygon fill="#63b8ff" stroke="#63b8ff" points="549.93,-56.77 559.24,-51.7 548.8,-49.86 549.93,-56.77"/>
</a>
</g>
</g>
<!-- Node5 -->
<g id="Node000005" class="node">
<title>Node5</title>
<g id="a_Node000005"><a xlink:href="class_a_my_player_controller.html#a6dc3bb158cda98a6fe1dab6933d2ca5d" target="_top" xlink:title=" ">
<polygon fill="white" stroke="#666666" points="525,-32 416.75,-32 416.75,0 525,0 525,-32"/>
<text text-anchor="start" x="424.75" y="-18.5" font-family="Arial" font-size="10.00">AMyPlayerController</text>
<text text-anchor="middle" x="470.88" y="-6.5" font-family="Arial" font-size="10.00">::OnRep_MatchState</text>
</a>
</g>
</g>
<!-- Node1&#45;&gt;Node5 -->
<g id="edge5_Node000001_Node000005" class="edge">
<title>Node1&#45;&gt;Node5</title>
<g id="a_edge5_Node000001_Node000005"><a xlink:title=" ">
<path fill="none" stroke="#63b8ff" d="M549.61,-28.72C541.42,-27.38 533.21,-26.04 525.35,-24.75"/>
<polygon fill="#63b8ff" stroke="#63b8ff" points="548.8,-32.14 559.24,-30.3 549.93,-25.23 548.8,-32.14"/>
</a>
</g>
</g>
<!-- Node3 -->
<g id="Node000003" class="node">
<title>Node3</title>
<g id="a_Node000003"><a xlink:href="class_a_main_game_mode.html#a9ce74e01903ba5be1fe712f629b2aa77" target="_top" xlink:title=" ">
<polygon fill="white" stroke="#666666" points="380.75,-76 202.75,-76 202.75,-56 380.75,-56 380.75,-76"/>
<text text-anchor="middle" x="291.75" y="-62.5" font-family="Arial" font-size="10.00">AMainGameMode::OnMatchStateSet</text>
</a>
</g>
</g>
<!-- Node2&#45;&gt;Node3 -->
<g id="edge2_Node000002_Node000003" class="edge">
<title>Node2&#45;&gt;Node3</title>
<g id="a_edge2_Node000002_Node000003"><a xlink:title=" ">
<path fill="none" stroke="#63b8ff" d="M406.34,-66C398.13,-66 389.62,-66 381.11,-66"/>
<polygon fill="#63b8ff" stroke="#63b8ff" points="406.18,-69.5 416.18,-66 406.18,-62.5 406.18,-69.5"/>
</a>
</g>
</g>
<!-- Node4 -->
<g id="Node000004" class="node">
<title>Node4</title>
<g id="a_Node000004"><a xlink:href="class_a_main_game_mode.html#ad1f68127027609b6b9083e860ffdeaf1" target="_top" xlink:title=" ">
<polygon fill="white" stroke="#666666" points="166.75,-82 0,-82 0,-50 166.75,-50 166.75,-82"/>
<text text-anchor="start" x="8" y="-68.5" font-family="Arial" font-size="10.00">AMainGameMode::GetMusicAudio</text>
<text text-anchor="middle" x="83.38" y="-56.5" font-family="Arial" font-size="10.00">Component</text>
</a>
</g>
</g>
<!-- Node3&#45;&gt;Node4 -->
<g id="edge3_Node000003_Node000004" class="edge">
<title>Node3&#45;&gt;Node4</title>
<g id="a_edge3_Node000003_Node000004"><a xlink:title=" ">
<path fill="none" stroke="#63b8ff" d="M191.02,-66C183,-66 174.94,-66 167.06,-66"/>
<polygon fill="#63b8ff" stroke="#63b8ff" points="190.82,-69.5 200.82,-66 190.82,-62.5 190.82,-69.5"/>
</a>
</g>
</g>
<!-- Node4&#45;&gt;Node4 -->
<g id="edge4_Node000004_Node000004" class="edge">
<title>Node4&#45;&gt;Node4</title>
<g id="a_edge4_Node000004_Node000004"><a xlink:title=" ">
<path fill="none" stroke="#63b8ff" d="M118.34,-93.54C112.64,-97.41 100.98,-100 83.38,-100 51.63,-100 39.23,-91.58 46.17,-82.44"/>
<polygon fill="#63b8ff" stroke="#63b8ff" points="121.74,-94.42 120.28,-83.93 114.88,-93.04 121.74,-94.42"/>
</a>
</g>
</g>
</g>
</svg>
