<?xml version="1.0" encoding="UTF-8" standalone="no"?>
<!DOCTYPE svg PUBLIC "-//W3C//DTD SVG 1.1//EN"
 "http://www.w3.org/Graphics/SVG/1.1/DTD/svg11.dtd">
<!-- Generated by graphviz version 12.2.1 (20241206.2353)
 -->
<!-- Title: AMainGameMode::OnMatchStateSet Pages: 1 -->
<svg width="722pt" height="131pt"
 viewBox="0.00 0.00 721.50 131.00" xmlns="http://www.w3.org/2000/svg" xmlns:xlink="http://www.w3.org/1999/xlink">
<g id="graph0" class="graph" transform="scale(1 1) rotate(0) translate(4 127)">
<title>AMainGameMode::OnMatchStateSet</title>
<!-- Node1 -->
<g id="Node000001" class="node">
<title>Node1</title>
<g id="a_Node000001"><a xlink:title=" ">
<polygon fill="#999999" stroke="#666666" points="178,-51 0,-51 0,-31 178,-31 178,-51"/>
<text text-anchor="middle" x="89" y="-37.5" font-family="Arial" font-size="10.00">AMainGameMode::OnMatchStateSet</text>
</a>
</g>
</g>
<!-- Node2 -->
<g id="Node000002" class="node">
<title>Node2</title>
<g id="a_Node000002"><a xlink:href="class_a_my_player_controller.html#a58bb90e2c607ae458ec045dbf2822b39" target="_top" xlink:title=" ">
<polygon fill="white" stroke="#666666" points="329,-82 223,-82 223,-50 329,-50 329,-82"/>
<text text-anchor="start" x="231" y="-68.5" font-family="Arial" font-size="10.00">AMyPlayerController</text>
<text text-anchor="middle" x="276" y="-56.5" font-family="Arial" font-size="10.00">::OnMatchStateSet</text>
</a>
</g>
</g>
<!-- Node1&#45;&gt;Node2 -->
<g id="edge1_Node000001_Node000002" class="edge">
<title>Node1&#45;&gt;Node2</title>
<g id="a_edge1_Node000001_Node000002"><a xlink:title=" ">
<path fill="none" stroke="#63b8ff" d="M167.65,-51.49C182.24,-53.47 197.34,-55.51 211.44,-57.41"/>
<polygon fill="#63b8ff" stroke="#63b8ff" points="210.62,-60.83 221,-58.7 211.56,-53.9 210.62,-60.83"/>
</a>
</g>
</g>
<!-- Node7 -->
<g id="Node000007" class="node">
<title>Node7</title>
<g id="a_Node000007"><a xlink:href="class_a_my_player_controller.html#a340478fbf93615262721ae64cee4274d" target="_top" xlink:title=" ">
<polygon fill="white" stroke="#666666" points="338,-32 214,-32 214,0 338,0 338,-32"/>
<text text-anchor="start" x="222" y="-18.5" font-family="Arial" font-size="10.00">AMyPlayerController</text>
<text text-anchor="middle" x="276" y="-6.5" font-family="Arial" font-size="10.00">::SetMatchStateUpdated</text>
</a>
</g>
</g>
<!-- Node1&#45;&gt;Node7 -->
<g id="edge6_Node000001_Node000007" class="edge">
<title>Node1&#45;&gt;Node7</title>
<g id="a_edge6_Node000001_Node000007"><a xlink:title=" ">
<path fill="none" stroke="#63b8ff" d="M167.65,-30.51C179.15,-28.95 190.96,-27.36 202.34,-25.82"/>
<polygon fill="#63b8ff" stroke="#63b8ff" points="202.62,-29.31 212.06,-24.5 201.69,-22.38 202.62,-29.31"/>
</a>
</g>
</g>
<!-- Node3 -->
<g id="Node000003" class="node">
<title>Node3</title>
<g id="a_Node000003"><a xlink:href="class_a_my_player_controller.html#a572fee9304cdf938bb02635e9eb91f66" target="_top" xlink:title=" ">
<polygon fill="white" stroke="#666666" points="491.62,-107 385.62,-107 385.62,-75 491.62,-75 491.62,-107"/>
<text text-anchor="start" x="393.62" y="-93.5" font-family="Arial" font-size="10.00">AMyPlayerController</text>
<text text-anchor="middle" x="438.62" y="-81.5" font-family="Arial" font-size="10.00">::HandleCooldown</text>
</a>
</g>
</g>
<!-- Node2&#45;&gt;Node3 -->
<g id="edge2_Node000002_Node000003" class="edge">
<title>Node2&#45;&gt;Node3</title>
<g id="a_edge2_Node000002_Node000003"><a xlink:title=" ">
<path fill="none" stroke="#63b8ff" d="M329.15,-74.12C343.46,-76.34 359.13,-78.78 374,-81.1"/>
<polygon fill="#63b8ff" stroke="#63b8ff" points="373.27,-84.53 383.69,-82.61 374.35,-77.61 373.27,-84.53"/>
</a>
</g>
</g>
<!-- Node6 -->
<g id="Node000006" class="node">
<title>Node6</title>
<g id="a_Node000006"><a xlink:href="class_a_my_player_controller.html#a60eda2b87c5436856db0f5b2167af8a6" target="_top" xlink:title=" ">
<polygon fill="white" stroke="#666666" points="503.25,-57 374,-57 374,-25 503.25,-25 503.25,-57"/>
<text text-anchor="start" x="382" y="-43.5" font-family="Arial" font-size="10.00">AMyPlayerController</text>
<text text-anchor="middle" x="438.62" y="-31.5" font-family="Arial" font-size="10.00">::HandleMatchHasStarted</text>
</a>
</g>
</g>
<!-- Node2&#45;&gt;Node6 -->
<g id="edge5_Node000002_Node000006" class="edge">
<title>Node2&#45;&gt;Node6</title>
<g id="a_edge5_Node000002_Node000006"><a xlink:title=" ">
<path fill="none" stroke="#63b8ff" d="M329.15,-57.88C339.8,-56.23 351.2,-54.45 362.47,-52.7"/>
<polygon fill="#63b8ff" stroke="#63b8ff" points="362.83,-56.18 372.17,-51.19 361.75,-49.27 362.83,-56.18"/>
</a>
</g>
</g>
<!-- Node4 -->
<g id="Node000004" class="node">
<title>Node4</title>
<g id="a_Node000004"><a xlink:href="class_a_main_character.html#afd1dc526cd36c5de139a7e5ff2b48432" target="_top" xlink:title=" ">
<polygon fill="white" stroke="#666666" points="697.75,-123 555,-123 555,-103 697.75,-103 697.75,-123"/>
<text text-anchor="middle" x="626.38" y="-109.5" font-family="Arial" font-size="10.00">AMainCharacter::GetCombat</text>
</a>
</g>
</g>
<!-- Node3&#45;&gt;Node4 -->
<g id="edge3_Node000003_Node000004" class="edge">
<title>Node3&#45;&gt;Node4</title>
<g id="a_edge3_Node000003_Node000004"><a xlink:title=" ">
<path fill="none" stroke="#63b8ff" d="M491.86,-97.19C507.88,-99.08 525.91,-101.22 543.42,-103.29"/>
<polygon fill="#63b8ff" stroke="#63b8ff" points="542.97,-106.76 553.31,-104.47 543.8,-99.81 542.97,-106.76"/>
</a>
</g>
</g>
<!-- Node5 -->
<g id="Node000005" class="node">
<title>Node5</title>
<g id="a_Node000005"><a xlink:href="class_a_my_player_controller.html#a23312ab13b910b000bc7bfaf675a2899" target="_top" xlink:title=" ">
<polygon fill="white" stroke="#666666" points="713.5,-85 539.25,-85 539.25,-53 713.5,-53 713.5,-85"/>
<text text-anchor="start" x="547.25" y="-71.5" font-family="Arial" font-size="10.00">AMyPlayerController</text>
<text text-anchor="middle" x="626.38" y="-59.5" font-family="Arial" font-size="10.00">::SetHUDAnnouncementCountdown</text>
</a>
</g>
</g>
<!-- Node3&#45;&gt;Node5 -->
<g id="edge4_Node000003_Node000005" class="edge">
<title>Node3&#45;&gt;Node5</title>
<g id="a_edge4_Node000003_Node000005"><a xlink:title=" ">
<path fill="none" stroke="#63b8ff" d="M491.86,-84.81C503.12,-83.48 515.36,-82.03 527.72,-80.57"/>
<polygon fill="#63b8ff" stroke="#63b8ff" points="528.06,-84.05 537.58,-79.4 527.24,-77.1 528.06,-84.05"/>
</a>
</g>
</g>
</g>
</svg>
