<?xml version="1.0" encoding="UTF-8" standalone="no"?>
<!DOCTYPE svg PUBLIC "-//W3C//DTD SVG 1.1//EN"
 "http://www.w3.org/Graphics/SVG/1.1/DTD/svg11.dtd">
<!-- Generated by graphviz version 12.2.1 (20241206.2353)
 -->
<!-- Title: AMainCharacter::UpdateHUDHealth Pages: 1 -->
<svg width="557pt" height="134pt"
 viewBox="0.00 0.00 557.00 133.57" xmlns="http://www.w3.org/2000/svg" xmlns:xlink="http://www.w3.org/1999/xlink">
<g id="graph0" class="graph" transform="scale(1 1) rotate(0) translate(4 129.57)">
<title>AMainCharacter::UpdateHUDHealth</title>
<!-- Node1 -->
<g id="Node000001" class="node">
<title>Node1</title>
<g id="a_Node000001"><a xlink:title=" ">
<polygon fill="#999999" stroke="#666666" points="549,-80 374,-80 374,-60 549,-60 549,-80"/>
<text text-anchor="middle" x="461.5" y="-66.5" font-family="Arial" font-size="10.00">AMainCharacter::UpdateHUDHealth</text>
</a>
</g>
</g>
<!-- Node2 -->
<g id="Node000002" class="node">
<title>Node2</title>
<g id="a_Node000002"><a xlink:href="class_a_main_character.html#a096ef46022cd84777b571482729ed02f" target="_top" xlink:title=" ">
<polygon fill="white" stroke="#666666" points="136.75,-102 0,-102 0,-82 136.75,-82 136.75,-102"/>
<text text-anchor="middle" x="68.38" y="-88.5" font-family="Arial" font-size="10.00">AMainCharacter::BeginPlay</text>
</a>
</g>
</g>
<!-- Node1&#45;&gt;Node2 -->
<g id="edge1_Node000001_Node000002" class="edge">
<title>Node1&#45;&gt;Node2</title>
<g id="a_edge1_Node000001_Node000002"><a xlink:title=" ">
<path fill="none" stroke="#63b8ff" d="M430.04,-85.29C405.8,-96.57 370.63,-110.96 338,-117 265.78,-130.38 245.68,-125.69 172.75,-117 149.28,-114.2 123.44,-107.95 103.46,-102.4"/>
<polygon fill="#63b8ff" stroke="#63b8ff" points="431.48,-88.49 439,-81.02 428.47,-82.17 431.48,-88.49"/>
</a>
</g>
</g>
<!-- Node3 -->
<g id="Node000003" class="node">
<title>Node3</title>
<g id="a_Node000003"><a xlink:href="class_a_main_character.html#a81b04850e2ddb2d233bfb612fe0c809e" target="_top" xlink:title=" ">
<polygon fill="white" stroke="#666666" points="317,-108 193.75,-108 193.75,-76 317,-76 317,-108"/>
<text text-anchor="start" x="201.75" y="-94.5" font-family="Arial" font-size="10.00">AMainCharacter::OnRep</text>
<text text-anchor="middle" x="255.38" y="-82.5" font-family="Arial" font-size="10.00">_Health</text>
</a>
</g>
</g>
<!-- Node1&#45;&gt;Node3 -->
<g id="edge2_Node000001_Node000003" class="edge">
<title>Node1&#45;&gt;Node3</title>
<g id="a_edge2_Node000001_Node000003"><a xlink:title=" ">
<path fill="none" stroke="#63b8ff" d="M362.45,-80.57C347.02,-82.23 331.48,-83.91 317.22,-85.44"/>
<polygon fill="#63b8ff" stroke="#63b8ff" points="362.56,-84.08 372.13,-79.52 361.81,-77.12 362.56,-84.08"/>
</a>
</g>
</g>
<!-- Node4 -->
<g id="Node000004" class="node">
<title>Node4</title>
<g id="a_Node000004"><a xlink:href="class_a_main_character.html#a33d3267c0046be93c39178a2ed3944b3" target="_top" xlink:title=" ">
<polygon fill="white" stroke="#666666" points="338,-58 172.75,-58 172.75,-38 338,-38 338,-58"/>
<text text-anchor="middle" x="255.38" y="-44.5" font-family="Arial" font-size="10.00">AMainCharacter::ReceiveDamage</text>
</a>
</g>
</g>
<!-- Node1&#45;&gt;Node4 -->
<g id="edge3_Node000001_Node000004" class="edge">
<title>Node1&#45;&gt;Node4</title>
<g id="a_edge3_Node000001_Node000004"><a xlink:title=" ">
<path fill="none" stroke="#63b8ff" d="M362.31,-59.42C354.27,-58.55 346.2,-57.68 338.3,-56.83"/>
<polygon fill="#63b8ff" stroke="#63b8ff" points="361.81,-62.88 372.13,-60.48 362.56,-55.92 361.81,-62.88"/>
</a>
</g>
</g>
<!-- Node5 -->
<g id="Node000005" class="node">
<title>Node5</title>
<g id="a_Node000005"><a xlink:href="class_a_main_character.html#a44a6be77fb1c8617c144a85fc084ad2b" target="_top" xlink:title=" ">
<polygon fill="white" stroke="#666666" points="311,-20 199.75,-20 199.75,0 311,0 311,-20"/>
<text text-anchor="middle" x="255.38" y="-6.5" font-family="Arial" font-size="10.00">AMainCharacter::Tick</text>
</a>
</g>
</g>
<!-- Node1&#45;&gt;Node5 -->
<g id="edge5_Node000001_Node000005" class="edge">
<title>Node1&#45;&gt;Node5</title>
<g id="a_edge5_Node000001_Node000005"><a xlink:title=" ">
<path fill="none" stroke="#63b8ff" d="M421.27,-55.82C397.37,-47.45 366.13,-36.96 338,-29 327.22,-25.95 315.54,-23.01 304.48,-20.4"/>
<polygon fill="#63b8ff" stroke="#63b8ff" points="420,-59.08 430.6,-59.12 422.34,-52.48 420,-59.08"/>
</a>
</g>
</g>
<!-- Node4&#45;&gt;Node2 -->
<g id="edge4_Node000004_Node000002" class="edge">
<title>Node4&#45;&gt;Node2</title>
<g id="a_edge4_Node000004_Node000002"><a xlink:title=" ">
<path fill="none" stroke="#63b8ff" d="M198.03,-61.05C189.55,-63.03 180.92,-65.06 172.75,-67 152.9,-71.71 130.92,-77.01 112.36,-81.52"/>
<polygon fill="#63b8ff" stroke="#63b8ff" points="198.61,-64.51 207.55,-58.83 197.02,-57.69 198.61,-64.51"/>
</a>
</g>
</g>
</g>
</svg>
