<?xml version="1.0" encoding="UTF-8" standalone="no"?>
<!DOCTYPE svg PUBLIC "-//W3C//DTD SVG 1.1//EN"
 "http://www.w3.org/Graphics/SVG/1.1/DTD/svg11.dtd">
<!-- Generated by graphviz version 12.2.1 (20241206.2353)
 -->
<!-- Title: AMyPlayerController::BeginPlay Pages: 1 -->
<svg width="436pt" height="158pt"
 viewBox="0.00 0.00 435.50 158.00" xmlns="http://www.w3.org/2000/svg" xmlns:xlink="http://www.w3.org/1999/xlink">

<svg id="main" version="1.1" xmlns="http://www.w3.org/2000/svg" xmlns:xlink="http://www.w3.org/1999/xlink" xml:space="preserve">

<style type="text/css"><![CDATA[
.node, .edge {opacity: 0.7;}
.node.selected, .edge.selected {opacity: 1;}
.edge:hover path { stroke: red; }
.edge:hover polygon { stroke: red; fill: red; }
]]></style>
<script type="application/ecmascript" xlink:href="svg.min.js"/>
<svg id="graph" class="graph">
<g id="graph0" class="graph" transform="scale(1 1) rotate(0) translate(4 154)">
<title>AMyPlayerController::BeginPlay</title>
<!-- Node1 -->
<g id="Node000001" class="node">
<title>Node1</title>
<g id="a_Node000001"><a xlink:title=" ">
<polygon fill="#999999" stroke="#666666" points="106,-82 0,-82 0,-50 106,-50 106,-82"/>
<text text-anchor="start" x="8" y="-68.5" font-family="Arial" font-size="10.00">AMyPlayerController</text>
<text text-anchor="middle" x="53" y="-56.5" font-family="Arial" font-size="10.00">::BeginPlay</text>
</a>
</g>
</g>
<!-- Node2 -->
<g id="Node000002" class="node">
<title>Node2</title>
<g id="a_Node000002"><a xlink:href="class_a_my_player_controller.html#a82ed1b7abab5e27703bfa9567fa90efc" target="_top" xlink:title=" ">
<polygon fill="white" stroke="#666666" points="285.5,-132 142,-132 142,-100 285.5,-100 285.5,-132"/>
<text text-anchor="start" x="150" y="-118.5" font-family="Arial" font-size="10.00">AMyPlayerController</text>
<text text-anchor="middle" x="213.75" y="-106.5" font-family="Arial" font-size="10.00">::ServerTryCheckMatchState</text>
</a>
</g>
</g>
<!-- Node1&#45;&gt;Node2 -->
<g id="edge1_Node000001_Node000002" class="edge">
<title>Node1&#45;&gt;Node2</title>
<g id="a_edge1_Node000001_Node000002"><a xlink:title=" ">
<path fill="none" stroke="#63b8ff" d="M105.98,-82.37C119.89,-86.75 135.07,-91.54 149.52,-96.08"/>
<polygon fill="#63b8ff" stroke="#63b8ff" points="148.35,-99.39 158.94,-99.05 150.45,-92.71 148.35,-99.39"/>
</a>
</g>
</g>
<!-- Node3 -->
<g id="Node000003" class="node">
<title>Node3</title>
<g id="a_Node000003"><a xlink:href="class_a_my_player_controller.html#a128da3faf9060eabbd9783b49149eade" target="_top" xlink:title=" ">
<polygon fill="white" stroke="#666666" points="269.75,-82 157.75,-82 157.75,-50 269.75,-50 269.75,-82"/>
<text text-anchor="start" x="165.75" y="-68.5" font-family="Arial" font-size="10.00">AMyPlayerController</text>
<text text-anchor="middle" x="213.75" y="-56.5" font-family="Arial" font-size="10.00">::SetMouseSensitivity</text>
</a>
</g>
</g>
<!-- Node1&#45;&gt;Node3 -->
<g id="edge3_Node000001_Node000003" class="edge">
<title>Node1&#45;&gt;Node3</title>
<g id="a_edge3_Node000001_Node000003"><a xlink:title=" ">
<path fill="none" stroke="#63b8ff" d="M106.42,-66C119.06,-66 132.74,-66 145.94,-66"/>
<polygon fill="#63b8ff" stroke="#63b8ff" points="145.87,-69.5 155.87,-66 145.87,-62.5 145.87,-69.5"/>
</a>
</g>
</g>
<!-- Node4 -->
<g id="Node000004" class="node">
<title>Node4</title>
<g id="a_Node000004"><a xlink:href="class_a_my_player_controller.html#a147aa1a47bf488d0b951ba5370db1753" target="_top" xlink:title=" ">
<polygon fill="white" stroke="#666666" points="266.75,-32 160.75,-32 160.75,0 266.75,0 266.75,-32"/>
<text text-anchor="start" x="168.75" y="-18.5" font-family="Arial" font-size="10.00">AMyPlayerController</text>
<text text-anchor="middle" x="213.75" y="-6.5" font-family="Arial" font-size="10.00">::SetVolume</text>
</a>
</g>
</g>
<!-- Node1&#45;&gt;Node4 -->
<g id="edge4_Node000001_Node000004" class="edge">
<title>Node1&#45;&gt;Node4</title>
<g id="a_edge4_Node000001_Node000004"><a xlink:title=" ">
<path fill="none" stroke="#63b8ff" d="M105.98,-49.63C119.89,-45.25 135.07,-40.46 149.52,-35.92"/>
<polygon fill="#63b8ff" stroke="#63b8ff" points="150.45,-39.29 158.94,-32.95 148.35,-32.61 150.45,-39.29"/>
</a>
</g>
</g>
<!-- Node2&#45;&gt;Node2 -->
<g id="edge2_Node000002_Node000002" class="edge">
<title>Node2&#45;&gt;Node2</title>
<g id="a_edge2_Node000002_Node000002"><a xlink:title=" ">
<path fill="none" stroke="#63b8ff" d="M185.05,-132.44C179.69,-141.58 189.26,-150 213.75,-150 227.14,-150 236.07,-147.48 240.54,-143.71"/>
<polygon fill="#63b8ff" stroke="#63b8ff" points="243.97,-144.38 242.2,-133.93 237.07,-143.21 243.97,-144.38"/>
</a>
</g>
</g>
<!-- Node5 -->
<g id="Node000005" class="node">
<title>Node5</title>
<g id="a_Node000005"><a xlink:href="class_a_my_player_controller.html#a7d744ca0a148f69209448f14d5b521d7" target="_top" xlink:title=" ">
<polygon fill="white" stroke="#666666" points="427.5,-32 321.5,-32 321.5,0 427.5,0 427.5,-32"/>
<text text-anchor="start" x="329.5" y="-18.5" font-family="Arial" font-size="10.00">AMyPlayerController</text>
<text text-anchor="middle" x="374.5" y="-6.5" font-family="Arial" font-size="10.00">::SetVolumeWithMix</text>
</a>
</g>
</g>
<!-- Node4&#45;&gt;Node5 -->
<g id="edge5_Node000004_Node000005" class="edge">
<title>Node4&#45;&gt;Node5</title>
<g id="a_edge5_Node000004_Node000005"><a xlink:title=" ">
<path fill="none" stroke="#63b8ff" d="M267.17,-16C280.85,-16 295.75,-16 309.94,-16"/>
<polygon fill="#63b8ff" stroke="#63b8ff" points="309.62,-19.5 319.62,-16 309.62,-12.5 309.62,-19.5"/>
</a>
</g>
</g>
</g>
</svg>
</svg>

<style type='text/css'>
<![CDATA[
[data-mouse-over-selected='false'] { opacity: 0.7; }
[data-mouse-over-selected='true']  { opacity: 1.0; }
]]>
</style>
<script type="application/ecmascript"><![CDATA[
document.addEventListener('DOMContentLoaded', (event) => {
  highlightEdges();
  highlightAdjacentNodes();
});
]]></script>
</svg>
