<?xml version="1.0" encoding="UTF-8" standalone="no"?>
<!DOCTYPE svg PUBLIC "-//W3C//DTD SVG 1.1//EN"
 "http://www.w3.org/Graphics/SVG/1.1/DTD/svg11.dtd">
<!-- Generated by graphviz version 12.2.1 (20241206.2353)
 -->
<!-- Title: AMainGameMode::Tick Pages: 1 -->
<svg width="316pt" height="58pt"
 viewBox="0.00 0.00 316.00 58.00" xmlns="http://www.w3.org/2000/svg" xmlns:xlink="http://www.w3.org/1999/xlink">
<g id="graph0" class="graph" transform="scale(1 1) rotate(0) translate(4 54)">
<title>AMainGameMode::Tick</title>
<!-- Node1 -->
<g id="Node000001" class="node">
<title>Node1</title>
<g id="a_Node000001"><a xlink:title=" ">
<polygon fill="#999999" stroke="#666666" points="308,-26 189.25,-26 189.25,-6 308,-6 308,-26"/>
<text text-anchor="middle" x="248.62" y="-12.5" font-family="Arial" font-size="10.00">AMainGameMode::Tick</text>
</a>
</g>
</g>
<!-- Node2 -->
<g id="Node000002" class="node">
<title>Node2</title>
<g id="a_Node000002"><a xlink:href="class_a_main_game_mode.html#a3673993b38825474635502e6aad2e05e" target="_top" xlink:title=" ">
<polygon fill="white" stroke="#666666" points="153.25,-32 0,-32 0,0 153.25,0 153.25,-32"/>
<text text-anchor="start" x="8" y="-18.5" font-family="Arial" font-size="10.00">AMainGameMode::FMainGame</text>
<text text-anchor="middle" x="76.62" y="-6.5" font-family="Arial" font-size="10.00">ModeBeginPlayTest</text>
</a>
</g>
</g>
<!-- Node1&#45;&gt;Node2 -->
<g id="edge1_Node000001_Node000002" class="edge">
<title>Node1&#45;&gt;Node2</title>
<g id="a_edge1_Node000001_Node000002"><a xlink:title=" ">
<path fill="none" stroke="#63b8ff" d="M177.67,-16C169.75,-16 161.65,-16 153.65,-16"/>
<polygon fill="#63b8ff" stroke="#63b8ff" points="177.61,-19.5 187.61,-16 177.61,-12.5 177.61,-19.5"/>
</a>
</g>
</g>
<!-- Node2&#45;&gt;Node2 -->
<g id="edge2_Node000002_Node000002" class="edge">
<title>Node2&#45;&gt;Node2</title>
<g id="a_edge2_Node000002_Node000002"><a xlink:title=" ">
<path fill="none" stroke="#63b8ff" d="M105.29,-43.71C100.51,-47.48 90.95,-50 76.62,-50 50.42,-50 40.19,-41.58 45.92,-32.44"/>
<polygon fill="#63b8ff" stroke="#63b8ff" points="108.72,-44.4 107.06,-33.93 101.83,-43.15 108.72,-44.4"/>
</a>
</g>
</g>
</g>
</svg>
