<?xml version="1.0" encoding="UTF-8" standalone="no"?>
<!DOCTYPE svg PUBLIC "-//W3C//DTD SVG 1.1//EN"
 "http://www.w3.org/Graphics/SVG/1.1/DTD/svg11.dtd">
<!-- Generated by graphviz version 12.2.1 (20241206.2353)
 -->
<!-- Title: AProjectileWeapon Pages: 1 -->
<svg width="154pt" height="724pt"
 viewBox="0.00 0.00 154.25 724.00" xmlns="http://www.w3.org/2000/svg" xmlns:xlink="http://www.w3.org/1999/xlink">
<g id="graph0" class="graph" transform="scale(1 1) rotate(0) translate(4 720)">
<title>AProjectileWeapon</title>
<!-- Node1 -->
<g id="Node000001" class="node">
<title>Node1</title>
<g id="a_Node000001"><a xlink:title=" ">
<polygon fill="#999999" stroke="none" points="142.88,-108 3.38,-108 3.38,0 142.88,0 142.88,-108"/>
<text text-anchor="start" x="31.88" y="-94.5" font-family="Arial" font-size="10.00">AProjectileWeapon</text>
<text text-anchor="start" x="8.88" y="-78.5" font-family="Arial" font-size="10.00">&#45;</text>
<text text-anchor="start" x="17.38" y="-78.5" font-family="Arial" font-size="10.00">ProjectileClass</text>
<text text-anchor="start" x="8.88" y="-62.5" font-family="Arial" font-size="10.00">&#45;</text>
<text text-anchor="start" x="17.38" y="-62.5" font-family="Arial" font-size="10.00">ServerSideRewindProjectile</text>
<text text-anchor="start" x="17.38" y="-50.5" font-family="Arial" font-size="10.00">Class</text>
<text text-anchor="start" x="7.38" y="-34.5" font-family="Arial" font-size="10.00">+</text>
<text text-anchor="start" x="17.38" y="-34.5" font-family="Arial" font-size="10.00">Multicast_StartFiring</text>
<text text-anchor="start" x="17.38" y="-22.5" font-family="Arial" font-size="10.00">_Implementation()</text>
<text text-anchor="start" x="7.38" y="-6.5" font-family="Arial" font-size="10.00">+</text>
<text text-anchor="start" x="17.38" y="-6.5" font-family="Arial" font-size="10.00">Fire()</text>
<polygon fill="#666666" stroke="#666666" points="3.38,-90 3.38,-90 142.88,-90 142.88,-90 3.38,-90"/>
<polygon fill="#666666" stroke="#666666" points="3.38,-46 3.38,-46 15.38,-46 15.38,-46 3.38,-46"/>
<polygon fill="#666666" stroke="#666666" points="15.38,-46 15.38,-46 142.88,-46 142.88,-46 15.38,-46"/>
<polygon fill="none" stroke="#666666" points="3.38,0 3.38,-108 142.88,-108 142.88,0 3.38,0"/>
</a>
</g>
</g>
<!-- Node2 -->
<g id="Node000002" class="node">
<title>Node2</title>
<g id="a_Node000002"><a xlink:href="class_a_base_weapon.html" target="_top" xlink:title=" ">
<polygon fill="white" stroke="none" points="146.25,-628 0,-628 0,-144 146.25,-144 146.25,-628"/>
<text text-anchor="start" x="40.88" y="-614.5" font-family="Arial" font-size="10.00">ABaseWeapon</text>
<text text-anchor="start" x="4" y="-598.5" font-family="Arial" font-size="10.00">+</text>
<text text-anchor="start" x="14" y="-598.5" font-family="Arial" font-size="10.00">Sequence</text>
<text text-anchor="start" x="4" y="-582.5" font-family="Arial" font-size="10.00">+</text>
<text text-anchor="start" x="14" y="-582.5" font-family="Arial" font-size="10.00">CrosshairsCenter</text>
<text text-anchor="start" x="4" y="-566.5" font-family="Arial" font-size="10.00">+</text>
<text text-anchor="start" x="14" y="-566.5" font-family="Arial" font-size="10.00">CrosshairsLeft</text>
<text text-anchor="start" x="4" y="-550.5" font-family="Arial" font-size="10.00">+</text>
<text text-anchor="start" x="14" y="-550.5" font-family="Arial" font-size="10.00">CrosshairsRight</text>
<text text-anchor="start" x="4" y="-534.5" font-family="Arial" font-size="10.00">+</text>
<text text-anchor="start" x="14" y="-534.5" font-family="Arial" font-size="10.00">CrosshairsTop</text>
<text text-anchor="start" x="4" y="-518.5" font-family="Arial" font-size="10.00">+</text>
<text text-anchor="start" x="14" y="-518.5" font-family="Arial" font-size="10.00">CrosshairsBottom</text>
<text text-anchor="start" x="4" y="-502.5" font-family="Arial" font-size="10.00">+</text>
<text text-anchor="start" x="14" y="-502.5" font-family="Arial" font-size="10.00">ZoomedFOV</text>
<text text-anchor="start" x="4" y="-486.5" font-family="Arial" font-size="10.00">+</text>
<text text-anchor="start" x="14" y="-486.5" font-family="Arial" font-size="10.00">ZoomInterpSpeed</text>
<text text-anchor="start" x="4" y="-470.5" font-family="Arial" font-size="10.00">+</text>
<text text-anchor="start" x="14" y="-470.5" font-family="Arial" font-size="10.00">FireDelay</text>
<text text-anchor="start" x="4" y="-454.5" font-family="Arial" font-size="10.00">+</text>
<text text-anchor="start" x="14" y="-454.5" font-family="Arial" font-size="10.00">bAutomatic</text>
<text text-anchor="start" x="14" y="-438.5" font-family="Arial" font-size="10.00">and 9 more...</text>
<text text-anchor="start" x="4.38" y="-422.5" font-family="Arial" font-size="10.00">#</text>
<text text-anchor="start" x="14" y="-422.5" font-family="Arial" font-size="10.00">Damage</text>
<text text-anchor="start" x="4.38" y="-406.5" font-family="Arial" font-size="10.00">#</text>
<text text-anchor="start" x="14" y="-406.5" font-family="Arial" font-size="10.00">bUseServerSideRewind</text>
<text text-anchor="start" x="4.38" y="-390.5" font-family="Arial" font-size="10.00">#</text>
<text text-anchor="start" x="14" y="-390.5" font-family="Arial" font-size="10.00">OwnerCharacter</text>
<text text-anchor="start" x="4.38" y="-374.5" font-family="Arial" font-size="10.00">#</text>
<text text-anchor="start" x="14" y="-374.5" font-family="Arial" font-size="10.00">OwnerController</text>
<text text-anchor="start" x="4" y="-358.5" font-family="Arial" font-size="10.00">+</text>
<text text-anchor="start" x="14" y="-358.5" font-family="Arial" font-size="10.00">ABaseWeapon()</text>
<text text-anchor="start" x="4" y="-342.5" font-family="Arial" font-size="10.00">+</text>
<text text-anchor="start" x="14" y="-342.5" font-family="Arial" font-size="10.00">ClientUpdateAmmo()</text>
<text text-anchor="start" x="4" y="-326.5" font-family="Arial" font-size="10.00">+</text>
<text text-anchor="start" x="14" y="-326.5" font-family="Arial" font-size="10.00">SpendRound()</text>
<text text-anchor="start" x="4" y="-310.5" font-family="Arial" font-size="10.00">+</text>
<text text-anchor="start" x="14" y="-310.5" font-family="Arial" font-size="10.00">OnRep_Owner()</text>
<text text-anchor="start" x="4" y="-294.5" font-family="Arial" font-size="10.00">+</text>
<text text-anchor="start" x="14" y="-294.5" font-family="Arial" font-size="10.00">SetHUDAmmo()</text>
<text text-anchor="start" x="4" y="-278.5" font-family="Arial" font-size="10.00">+</text>
<text text-anchor="start" x="14" y="-278.5" font-family="Arial" font-size="10.00">Tick()</text>
<text text-anchor="start" x="4" y="-262.5" font-family="Arial" font-size="10.00">+</text>
<text text-anchor="start" x="14" y="-262.5" font-family="Arial" font-size="10.00">ShowPickupWidget()</text>
<text text-anchor="start" x="4" y="-246.5" font-family="Arial" font-size="10.00">+</text>
<text text-anchor="start" x="14" y="-246.5" font-family="Arial" font-size="10.00">GetLifetimeReplicatedProps()</text>
<text text-anchor="start" x="4" y="-230.5" font-family="Arial" font-size="10.00">+</text>
<text text-anchor="start" x="14" y="-230.5" font-family="Arial" font-size="10.00">Multicast_StartFiring()</text>
<text text-anchor="start" x="4" y="-214.5" font-family="Arial" font-size="10.00">+</text>
<text text-anchor="start" x="14" y="-214.5" font-family="Arial" font-size="10.00">Dropped()</text>
<text text-anchor="start" x="14" y="-198.5" font-family="Arial" font-size="10.00">and 11 more...</text>
<text text-anchor="start" x="4.38" y="-182.5" font-family="Arial" font-size="10.00">#</text>
<text text-anchor="start" x="14" y="-182.5" font-family="Arial" font-size="10.00">BeginPlay()</text>
<text text-anchor="start" x="4.38" y="-166.5" font-family="Arial" font-size="10.00">#</text>
<text text-anchor="start" x="14" y="-166.5" font-family="Arial" font-size="10.00">OnSphereOverlap()</text>
<text text-anchor="start" x="4.38" y="-150.5" font-family="Arial" font-size="10.00">#</text>
<text text-anchor="start" x="14" y="-150.5" font-family="Arial" font-size="10.00">OnSphereEndOverlap()</text>
<polygon fill="#666666" stroke="#666666" points="0,-610 0,-610 146.25,-610 146.25,-610 0,-610"/>
<polygon fill="#666666" stroke="#666666" points="0,-370 0,-370 12,-370 12,-370 0,-370"/>
<polygon fill="#666666" stroke="#666666" points="12,-370 12,-370 146.25,-370 146.25,-370 12,-370"/>
<polygon fill="none" stroke="#666666" points="0,-144 0,-628 146.25,-628 146.25,-144 0,-144"/>
</a>
</g>
</g>
<!-- Node2&#45;&gt;Node1 -->
<g id="edge1_Node000001_Node000002" class="edge">
<title>Node2&#45;&gt;Node1</title>
<g id="a_edge1_Node000001_Node000002"><a xlink:title=" ">
<path fill="none" stroke="#63b8ff" d="M73.12,-132.88C73.12,-124.04 73.12,-115.68 73.12,-107.93"/>
<polygon fill="none" stroke="#63b8ff" points="69.63,-132.79 73.13,-142.79 76.63,-132.79 69.63,-132.79"/>
</a>
</g>
</g>
<!-- Node3 -->
<g id="Node000003" class="node">
<title>Node3</title>
<g id="a_Node000003"><a xlink:title=" ">
<polygon fill="white" stroke="none" points="92.12,-716 54.12,-716 54.12,-664 92.12,-664 92.12,-716"/>
<text text-anchor="start" x="58.12" y="-702.5" font-family="Arial" font-size="10.00">AActor</text>
<text text-anchor="start" x="71.62" y="-686.5" font-family="Arial" font-size="10.00"> </text>
<text text-anchor="start" x="71.62" y="-670.5" font-family="Arial" font-size="10.00"> </text>
<polygon fill="#666666" stroke="#666666" points="54.12,-698 54.12,-698 92.12,-698 92.12,-698 54.12,-698"/>
<polygon fill="#666666" stroke="#666666" points="54.12,-682 54.12,-682 92.12,-682 92.12,-682 54.12,-682"/>
<polygon fill="none" stroke="#666666" points="54.12,-664 54.12,-716 92.12,-716 92.12,-664 54.12,-664"/>
</a>
</g>
</g>
<!-- Node3&#45;&gt;Node2 -->
<g id="edge2_Node000002_Node000003" class="edge">
<title>Node3&#45;&gt;Node2</title>
<g id="a_edge2_Node000002_Node000003"><a xlink:title=" ">
<path fill="none" stroke="#63b8ff" d="M73.12,-652.72C73.12,-645.24 73.12,-636.86 73.12,-627.79"/>
<polygon fill="none" stroke="#63b8ff" points="69.63,-652.52 73.13,-662.52 76.63,-652.52 69.63,-652.52"/>
</a>
</g>
</g>
</g>
</svg>
