<?xml version="1.0" encoding="UTF-8" standalone="no"?>
<!DOCTYPE svg PUBLIC "-//W3C//DTD SVG 1.1//EN"
 "http://www.w3.org/Graphics/SVG/1.1/DTD/svg11.dtd">
<!-- Generated by graphviz version 12.2.1 (20241206.2353)
 -->
<!-- Title: APickupSpawnPoint::SpawnPickup Pages: 1 -->
<svg width="598pt" height="62pt"
 viewBox="0.00 0.00 597.75 62.00" xmlns="http://www.w3.org/2000/svg" xmlns:xlink="http://www.w3.org/1999/xlink">
<g id="graph0" class="graph" transform="scale(1 1) rotate(0) translate(4 58)">
<title>APickupSpawnPoint::SpawnPickup</title>
<!-- Node1 -->
<g id="Node000001" class="node">
<title>Node1</title>
<g id="a_Node000001"><a xlink:title=" ">
<polygon fill="#999999" stroke="#666666" points="589.75,-32 478.5,-32 478.5,0 589.75,0 589.75,-32"/>
<text text-anchor="start" x="486.5" y="-18.5" font-family="Arial" font-size="10.00">APickupSpawnPoint::</text>
<text text-anchor="middle" x="534.12" y="-6.5" font-family="Arial" font-size="10.00">SpawnPickup</text>
</a>
</g>
</g>
<!-- Node2 -->
<g id="Node000002" class="node">
<title>Node2</title>
<g id="a_Node000002"><a xlink:href="class_a_pickup_spawn_point.html#a95e0f3f39e010b2150defbd852441661" target="_top" xlink:title=" ">
<polygon fill="white" stroke="#666666" points="442.5,-54 305,-54 305,-22 442.5,-22 442.5,-54"/>
<text text-anchor="start" x="313" y="-40.5" font-family="Arial" font-size="10.00">APickupSpawnPoint::</text>
<text text-anchor="middle" x="373.75" y="-28.5" font-family="Arial" font-size="10.00">SpawnPickupTimerFinished</text>
</a>
</g>
</g>
<!-- Node1&#45;&gt;Node2 -->
<g id="edge1_Node000001_Node000002" class="edge">
<title>Node1&#45;&gt;Node2</title>
<g id="a_edge1_Node000001_Node000002"><a xlink:title=" ">
<path fill="none" stroke="#63b8ff" d="M466.81,-25.21C458.94,-26.31 450.89,-27.42 443,-28.52"/>
<polygon fill="#63b8ff" stroke="#63b8ff" points="467.26,-28.68 476.68,-23.84 466.29,-21.75 467.26,-28.68"/>
</a>
</g>
</g>
<!-- Node3 -->
<g id="Node000003" class="node">
<title>Node3</title>
<g id="a_Node000003"><a xlink:href="class_a_pickup_spawn_point.html#af0bf24b834398d646efdc4bbe69835a9" target="_top" xlink:title=" ">
<polygon fill="white" stroke="#666666" points="269,-32 147.25,-32 147.25,0 269,0 269,-32"/>
<text text-anchor="start" x="155.25" y="-18.5" font-family="Arial" font-size="10.00">APickupSpawnPoint::</text>
<text text-anchor="middle" x="208.12" y="-6.5" font-family="Arial" font-size="10.00">StartSpawnPickupTimer</text>
</a>
</g>
</g>
<!-- Node2&#45;&gt;Node3 -->
<g id="edge2_Node000002_Node000003" class="edge">
<title>Node2&#45;&gt;Node3</title>
<g id="a_edge2_Node000002_Node000003"><a xlink:title=" ">
<path fill="none" stroke="#63b8ff" d="M293.39,-27.33C285.29,-26.24 277.16,-25.15 269.31,-24.09"/>
<polygon fill="#63b8ff" stroke="#63b8ff" points="292.9,-30.8 303.28,-28.66 293.84,-23.86 292.9,-30.8"/>
</a>
</g>
</g>
<!-- Node3&#45;&gt;Node1 -->
<g id="edge4_Node000003_Node000001" class="edge">
<title>Node3&#45;&gt;Node1</title>
<g id="a_edge4_Node000003_Node000001"><a xlink:title=" ">
<path fill="none" stroke="#63b8ff" d="M280.9,-13.51C289.03,-13.3 297.19,-13.12 305,-13 366.1,-12.04 381.4,-11.99 442.5,-13 453.99,-13.19 466.3,-13.52 478.02,-13.88"/>
<polygon fill="#63b8ff" stroke="#63b8ff" points="280.88,-10.01 270.98,-13.78 281.07,-17.01 280.88,-10.01"/>
</a>
</g>
</g>
<!-- Node4 -->
<g id="Node000004" class="node">
<title>Node4</title>
<g id="a_Node000004"><a xlink:href="class_a_pickup_spawn_point.html#aad4900ade96050324280c0e542c63f4d" target="_top" xlink:title=" ">
<polygon fill="white" stroke="#666666" points="111.25,-32 0,-32 0,0 111.25,0 111.25,-32"/>
<text text-anchor="start" x="8" y="-18.5" font-family="Arial" font-size="10.00">APickupSpawnPoint::</text>
<text text-anchor="middle" x="55.62" y="-6.5" font-family="Arial" font-size="10.00">BeginPlay</text>
</a>
</g>
</g>
<!-- Node3&#45;&gt;Node4 -->
<g id="edge3_Node000003_Node000004" class="edge">
<title>Node3&#45;&gt;Node4</title>
<g id="a_edge3_Node000003_Node000004"><a xlink:title=" ">
<path fill="none" stroke="#63b8ff" d="M135.51,-16C127.48,-16 119.4,-16 111.63,-16"/>
<polygon fill="#63b8ff" stroke="#63b8ff" points="135.26,-19.5 145.26,-16 135.26,-12.5 135.26,-19.5"/>
</a>
</g>
</g>
</g>
</svg>
