<?xml version="1.0" encoding="UTF-8" standalone="no"?>
<!DOCTYPE svg PUBLIC "-//W3C//DTD SVG 1.1//EN"
 "http://www.w3.org/Graphics/SVG/1.1/DTD/svg11.dtd">
<!-- Generated by graphviz version 12.2.1 (20241206.2353)
 -->
<!-- Title: AMyPlayerController::CheckPing Pages: 1 -->
<svg width="278pt" height="158pt"
 viewBox="0.00 0.00 277.75 158.00" xmlns="http://www.w3.org/2000/svg" xmlns:xlink="http://www.w3.org/1999/xlink">
<g id="graph0" class="graph" transform="scale(1 1) rotate(0) translate(4 154)">
<title>AMyPlayerController::CheckPing</title>
<!-- Node1 -->
<g id="Node000001" class="node">
<title>Node1</title>
<g id="a_Node000001"><a xlink:title=" ">
<polygon fill="#999999" stroke="#666666" points="106,-82 0,-82 0,-50 106,-50 106,-82"/>
<text text-anchor="start" x="8" y="-68.5" font-family="Arial" font-size="10.00">AMyPlayerController</text>
<text text-anchor="middle" x="53" y="-56.5" font-family="Arial" font-size="10.00">::CheckPing</text>
</a>
</g>
</g>
<!-- Node2 -->
<g id="Node000002" class="node">
<title>Node2</title>
<g id="a_Node000002"><a xlink:href="class_a_my_player_controller.html#a9db98d926dabd4c014f63e3d20879abd" target="_top" xlink:title=" ">
<polygon fill="white" stroke="#666666" points="258.88,-150 152.88,-150 152.88,-118 258.88,-118 258.88,-150"/>
<text text-anchor="start" x="160.88" y="-136.5" font-family="Arial" font-size="10.00">AMyPlayerController</text>
<text text-anchor="middle" x="205.88" y="-124.5" font-family="Arial" font-size="10.00">::HighPingWarning</text>
</a>
</g>
</g>
<!-- Node1&#45;&gt;Node2 -->
<g id="edge1_Node000001_Node000002" class="edge">
<title>Node1&#45;&gt;Node2</title>
<g id="a_edge1_Node000001_Node000002"><a xlink:title=" ">
<path fill="none" stroke="#63b8ff" d="M85.91,-82.32C102.5,-90.61 123.18,-100.68 142,-109 145.28,-110.45 148.66,-111.91 152.09,-113.35"/>
<polygon fill="#63b8ff" stroke="#63b8ff" points="150.44,-116.46 161.02,-117.05 153.12,-109.99 150.44,-116.46"/>
</a>
</g>
</g>
<!-- Node3 -->
<g id="Node000003" class="node">
<title>Node3</title>
<g id="a_Node000003"><a xlink:href="class_a_my_player_controller.html#a89ce730f701917d573d70cc049e32180" target="_top" xlink:title=" ">
<polygon fill="white" stroke="#666666" points="269.75,-82 142,-82 142,-50 269.75,-50 269.75,-82"/>
<text text-anchor="start" x="150" y="-68.5" font-family="Arial" font-size="10.00">AMyPlayerController</text>
<text text-anchor="middle" x="205.88" y="-56.5" font-family="Arial" font-size="10.00">::ServerReportPingStatus</text>
</a>
</g>
</g>
<!-- Node1&#45;&gt;Node3 -->
<g id="edge2_Node000001_Node000003" class="edge">
<title>Node1&#45;&gt;Node3</title>
<g id="a_edge2_Node000001_Node000003"><a xlink:title=" ">
<path fill="none" stroke="#63b8ff" d="M106.35,-66C114.1,-66 122.21,-66 130.31,-66"/>
<polygon fill="#63b8ff" stroke="#63b8ff" points="130.19,-69.5 140.19,-66 130.19,-62.5 130.19,-69.5"/>
</a>
</g>
</g>
<!-- Node4 -->
<g id="Node000004" class="node">
<title>Node4</title>
<g id="a_Node000004"><a xlink:href="class_a_my_player_controller.html#a857b9e58fbef75850758a1f731fb14b3" target="_top" xlink:title=" ">
<polygon fill="white" stroke="#666666" points="264.5,-32 147.25,-32 147.25,0 264.5,0 264.5,-32"/>
<text text-anchor="start" x="155.25" y="-18.5" font-family="Arial" font-size="10.00">AMyPlayerController</text>
<text text-anchor="middle" x="205.88" y="-6.5" font-family="Arial" font-size="10.00">::StopHighPingWarning</text>
</a>
</g>
</g>
<!-- Node1&#45;&gt;Node4 -->
<g id="edge4_Node000001_Node000004" class="edge">
<title>Node1&#45;&gt;Node4</title>
<g id="a_edge4_Node000001_Node000004"><a xlink:title=" ">
<path fill="none" stroke="#63b8ff" d="M103.4,-49.63C116.49,-45.29 130.77,-40.56 144.37,-36.05"/>
<polygon fill="#63b8ff" stroke="#63b8ff" points="145.28,-39.44 153.67,-32.97 143.07,-32.79 145.28,-39.44"/>
</a>
</g>
</g>
<!-- Node3&#45;&gt;Node3 -->
<g id="edge3_Node000003_Node000003" class="edge">
<title>Node3&#45;&gt;Node3</title>
<g id="a_edge3_Node000003_Node000003"><a xlink:title=" ">
<path fill="none" stroke="#63b8ff" d="M178.58,-82.44C173.49,-91.58 182.59,-100 205.88,-100 218.61,-100 227.1,-97.48 231.35,-93.71"/>
<polygon fill="#63b8ff" stroke="#63b8ff" points="234.79,-94.37 232.93,-83.94 227.88,-93.25 234.79,-94.37"/>
</a>
</g>
</g>
</g>
</svg>
