<?xml version="1.0" encoding="UTF-8" standalone="no"?>
<!DOCTYPE svg PUBLIC "-//W3C//DTD SVG 1.1//EN"
 "http://www.w3.org/Graphics/SVG/1.1/DTD/svg11.dtd">
<!-- Generated by graphviz version 12.2.1 (20241206.2353)
 -->
<!-- Title: UBuffDatabaseManager Pages: 1 -->
<svg width="182pt" height="165pt"
 viewBox="0.00 0.00 181.75 165.00" xmlns="http://www.w3.org/2000/svg" xmlns:xlink="http://www.w3.org/1999/xlink">

<svg id="main" version="1.1" xmlns="http://www.w3.org/2000/svg" xmlns:xlink="http://www.w3.org/1999/xlink" xml:space="preserve">

<style type="text/css"><![CDATA[
.node, .edge {opacity: 0.7;}
.node.selected, .edge.selected {opacity: 1;}
.edge:hover path { stroke: red; }
.edge:hover polygon { stroke: red; fill: red; }
]]></style>
<script type="application/ecmascript" xlink:href="svg.min.js"/>
<svg id="graph" class="graph">
<g id="graph0" class="graph" transform="scale(1 1) rotate(0) translate(4 161)">
<title>UBuffDatabaseManager</title>
<!-- Node1 -->
<g id="Node000001" class="node">
<title>Node1</title>
<g id="a_Node000001"><a xlink:title=" ">
<polygon fill="#999999" stroke="none" points="112.25,-68 0,-68 0,0 112.25,0 112.25,-68"/>
<text text-anchor="start" x="4" y="-54.5" font-family="Arial" font-size="10.00">UBuffDatabaseManager</text>
<text text-anchor="start" x="16.69" y="-38.5" font-family="Arial" font-size="10.00">&#45;</text>
<text text-anchor="start" x="36.38" y="-38.5" font-family="Arial" font-size="10.00">Database</text>
<text text-anchor="start" x="15.19" y="-22.5" font-family="Arial" font-size="10.00">+</text>
<text text-anchor="start" x="36.38" y="-22.5" font-family="Arial" font-size="10.00">LoadBuffs()</text>
<text text-anchor="start" x="15.19" y="-6.5" font-family="Arial" font-size="10.00">+</text>
<text text-anchor="start" x="36.38" y="-6.5" font-family="Arial" font-size="10.00">Get()</text>
<polygon fill="#666666" stroke="#666666" points="0,-50 0,-50 112.25,-50 112.25,-50 0,-50"/>
<polygon fill="#666666" stroke="#666666" points="0,-34 0,-34 34.38,-34 34.38,-34 0,-34"/>
<polygon fill="#666666" stroke="#666666" points="34.38,-34 34.38,-34 112.25,-34 112.25,-34 34.38,-34"/>
<polygon fill="none" stroke="#666666" points="0,0 0,-68 112.25,-68 112.25,0 0,0"/>
</a>
</g>
</g>
<!-- Node1&#45;&gt;Node1 -->
<g id="edge2_Node000001_Node000001" class="edge">
<title>Node1&#45;&gt;Node1</title>
<g id="a_edge2_Node000001_Node000001"><a xlink:title=" ">
<path fill="none" stroke="#63b8ff" d="M112.05,-43.37C122.71,-42.25 130.25,-39.13 130.25,-34 130.25,-31.28 128.12,-29.12 124.53,-27.52"/>
<polygon fill="none" stroke="#63b8ff" points="124.61,-27.54 117.87,-30.08 112.93,-24.83 119.67,-22.29 124.61,-27.54"/>
</a>
</g>
<text text-anchor="middle" x="152" y="-30.5" font-family="Arial" font-size="10.00" fill="grey"> &#45;Instance</text>
</g>
<!-- Node2 -->
<g id="Node000002" class="node">
<title>Node2</title>
<g id="a_Node000002"><a xlink:title=" ">
<polygon fill="white" stroke="none" points="78.12,-157 34.12,-157 34.12,-105 78.12,-105 78.12,-157"/>
<text text-anchor="start" x="38.12" y="-143.5" font-family="Arial" font-size="10.00">UObject</text>
<text text-anchor="start" x="54.62" y="-127.5" font-family="Arial" font-size="10.00"> </text>
<text text-anchor="start" x="54.62" y="-111.5" font-family="Arial" font-size="10.00"> </text>
<polygon fill="#666666" stroke="#666666" points="34.12,-139 34.12,-139 78.12,-139 78.12,-139 34.12,-139"/>
<polygon fill="#666666" stroke="#666666" points="34.12,-123 34.12,-123 78.12,-123 78.12,-123 34.12,-123"/>
<polygon fill="none" stroke="#666666" points="34.12,-105 34.12,-157 78.12,-157 78.12,-105 34.12,-105"/>
</a>
</g>
</g>
<!-- Node2&#45;&gt;Node1 -->
<g id="edge1_Node000001_Node000002" class="edge">
<title>Node2&#45;&gt;Node1</title>
<g id="a_edge1_Node000001_Node000002"><a xlink:title=" ">
<path fill="none" stroke="#63b8ff" d="M56.12,-93.77C56.12,-85.18 56.12,-76.08 56.12,-67.66"/>
<polygon fill="none" stroke="#63b8ff" points="52.63,-93.53 56.13,-103.53 59.63,-93.53 52.63,-93.53"/>
</a>
</g>
</g>
</g>
</svg>
</svg>

<style type='text/css'>
<![CDATA[
[data-mouse-over-selected='false'] { opacity: 0.7; }
[data-mouse-over-selected='true']  { opacity: 1.0; }
]]>
</style>
<script type="application/ecmascript"><![CDATA[
document.addEventListener('DOMContentLoaded', (event) => {
  highlightEdges();
  highlightAdjacentNodes();
});
]]></script>
</svg>
