<?xml version="1.0" encoding="UTF-8" standalone="no"?>
<!DOCTYPE svg PUBLIC "-//W3C//DTD SVG 1.1//EN"
 "http://www.w3.org/Graphics/SVG/1.1/DTD/svg11.dtd">
<!-- Generated by graphviz version 12.2.1 (20241206.2353)
 -->
<!-- Title: AMyPlayerController::ClientJoinMidgame Pages: 1 -->
<svg width="420pt" height="158pt"
 viewBox="0.00 0.00 419.75 158.00" xmlns="http://www.w3.org/2000/svg" xmlns:xlink="http://www.w3.org/1999/xlink">
<g id="graph0" class="graph" transform="scale(1 1) rotate(0) translate(4 154)">
<title>AMyPlayerController::ClientJoinMidgame</title>
<!-- Node1 -->
<g id="Node000001" class="node">
<title>Node1</title>
<g id="a_Node000001"><a xlink:title=" ">
<polygon fill="#999999" stroke="#666666" points="106,-82 0,-82 0,-50 106,-50 106,-82"/>
<text text-anchor="start" x="8" y="-68.5" font-family="Arial" font-size="10.00">AMyPlayerController</text>
<text text-anchor="middle" x="53" y="-56.5" font-family="Arial" font-size="10.00">::ClientJoinMidgame</text>
</a>
</g>
</g>
<!-- Node1&#45;&gt;Node1 -->
<g id="edge6_Node000001_Node000001" class="edge">
<title>Node1&#45;&gt;Node1</title>
<g id="a_edge6_Node000001_Node000001"><a xlink:title=" ">
<path fill="none" stroke="#63b8ff" d="M27.65,-82.44C22.92,-91.58 31.37,-100 53,-100 64.83,-100 72.72,-97.48 76.66,-93.71"/>
<polygon fill="#63b8ff" stroke="#63b8ff" points="80.11,-94.35 78.13,-83.94 73.18,-93.31 80.11,-94.35"/>
</a>
</g>
</g>
<!-- Node2 -->
<g id="Node000002" class="node">
<title>Node2</title>
<g id="a_Node000002"><a xlink:href="class_a_my_player_controller.html#ab60304264b2877374fc0ebb6fcdb7b26" target="_top" xlink:title=" ">
<polygon fill="white" stroke="#666666" points="248,-82 142,-82 142,-50 248,-50 248,-82"/>
<text text-anchor="start" x="150" y="-68.5" font-family="Arial" font-size="10.00">AMyPlayerController</text>
<text text-anchor="middle" x="195" y="-56.5" font-family="Arial" font-size="10.00">::CheckPing</text>
</a>
</g>
</g>
<!-- Node1&#45;&gt;Node2 -->
<g id="edge1_Node000001_Node000002" class="edge">
<title>Node1&#45;&gt;Node2</title>
<g id="a_edge1_Node000001_Node000002"><a xlink:title=" ">
<path fill="none" stroke="#63b8ff" d="M106.13,-66C114.06,-66 122.31,-66 130.45,-66"/>
<polygon fill="#63b8ff" stroke="#63b8ff" points="130.31,-69.5 140.31,-66 130.31,-62.5 130.31,-69.5"/>
</a>
</g>
</g>
<!-- Node3 -->
<g id="Node000003" class="node">
<title>Node3</title>
<g id="a_Node000003"><a xlink:href="class_a_my_player_controller.html#a9db98d926dabd4c014f63e3d20879abd" target="_top" xlink:title=" ">
<polygon fill="white" stroke="#666666" points="400.88,-150 294.88,-150 294.88,-118 400.88,-118 400.88,-150"/>
<text text-anchor="start" x="302.88" y="-136.5" font-family="Arial" font-size="10.00">AMyPlayerController</text>
<text text-anchor="middle" x="347.88" y="-124.5" font-family="Arial" font-size="10.00">::HighPingWarning</text>
</a>
</g>
</g>
<!-- Node1&#45;&gt;Node3 -->
<g id="edge7_Node000001_Node000003" class="edge">
<title>Node1&#45;&gt;Node3</title>
<g id="a_edge7_Node000001_Node000003"><a xlink:title=" ">
<path fill="none" stroke="#63b8ff" d="M106.42,-81.54C118.09,-84.82 130.43,-88.15 142,-91 189.09,-102.62 242.76,-113.81 283.35,-121.86"/>
<polygon fill="#63b8ff" stroke="#63b8ff" points="282.47,-125.25 292.95,-123.75 283.82,-118.38 282.47,-125.25"/>
</a>
</g>
</g>
<!-- Node5 -->
<g id="Node000005" class="node">
<title>Node5</title>
<g id="a_Node000005"><a xlink:href="class_a_my_player_controller.html#a857b9e58fbef75850758a1f731fb14b3" target="_top" xlink:title=" ">
<polygon fill="white" stroke="#666666" points="406.5,-32 289.25,-32 289.25,0 406.5,0 406.5,-32"/>
<text text-anchor="start" x="297.25" y="-18.5" font-family="Arial" font-size="10.00">AMyPlayerController</text>
<text text-anchor="middle" x="347.88" y="-6.5" font-family="Arial" font-size="10.00">::StopHighPingWarning</text>
</a>
</g>
</g>
<!-- Node1&#45;&gt;Node5 -->
<g id="edge8_Node000001_Node000005" class="edge">
<title>Node1&#45;&gt;Node5</title>
<g id="a_edge8_Node000001_Node000005"><a xlink:title=" ">
<path fill="none" stroke="#63b8ff" d="M106.26,-49.71C117.94,-46.48 130.32,-43.36 142,-41 186.85,-31.95 237.93,-25.71 277.87,-21.72"/>
<polygon fill="#63b8ff" stroke="#63b8ff" points="277.97,-25.23 287.58,-20.78 277.29,-18.26 277.97,-25.23"/>
</a>
</g>
</g>
<!-- Node2&#45;&gt;Node3 -->
<g id="edge2_Node000002_Node000003" class="edge">
<title>Node2&#45;&gt;Node3</title>
<g id="a_edge2_Node000002_Node000003"><a xlink:title=" ">
<path fill="none" stroke="#63b8ff" d="M227.91,-82.32C244.5,-90.61 265.18,-100.68 284,-109 287.28,-110.45 290.66,-111.91 294.09,-113.35"/>
<polygon fill="#63b8ff" stroke="#63b8ff" points="292.44,-116.46 303.02,-117.05 295.12,-109.99 292.44,-116.46"/>
</a>
</g>
</g>
<!-- Node4 -->
<g id="Node000004" class="node">
<title>Node4</title>
<g id="a_Node000004"><a xlink:href="class_a_my_player_controller.html#a89ce730f701917d573d70cc049e32180" target="_top" xlink:title=" ">
<polygon fill="white" stroke="#666666" points="411.75,-82 284,-82 284,-50 411.75,-50 411.75,-82"/>
<text text-anchor="start" x="292" y="-68.5" font-family="Arial" font-size="10.00">AMyPlayerController</text>
<text text-anchor="middle" x="347.88" y="-56.5" font-family="Arial" font-size="10.00">::ServerReportPingStatus</text>
</a>
</g>
</g>
<!-- Node2&#45;&gt;Node4 -->
<g id="edge3_Node000002_Node000004" class="edge">
<title>Node2&#45;&gt;Node4</title>
<g id="a_edge3_Node000002_Node000004"><a xlink:title=" ">
<path fill="none" stroke="#63b8ff" d="M248.35,-66C256.1,-66 264.21,-66 272.31,-66"/>
<polygon fill="#63b8ff" stroke="#63b8ff" points="272.19,-69.5 282.19,-66 272.19,-62.5 272.19,-69.5"/>
</a>
</g>
</g>
<!-- Node2&#45;&gt;Node5 -->
<g id="edge5_Node000002_Node000005" class="edge">
<title>Node2&#45;&gt;Node5</title>
<g id="a_edge5_Node000002_Node000005"><a xlink:title=" ">
<path fill="none" stroke="#63b8ff" d="M245.4,-49.63C258.49,-45.29 272.77,-40.56 286.37,-36.05"/>
<polygon fill="#63b8ff" stroke="#63b8ff" points="287.28,-39.44 295.67,-32.97 285.07,-32.79 287.28,-39.44"/>
</a>
</g>
</g>
<!-- Node4&#45;&gt;Node4 -->
<g id="edge4_Node000004_Node000004" class="edge">
<title>Node4&#45;&gt;Node4</title>
<g id="a_edge4_Node000004_Node000004"><a xlink:title=" ">
<path fill="none" stroke="#63b8ff" d="M320.58,-82.44C315.49,-91.58 324.59,-100 347.88,-100 360.61,-100 369.1,-97.48 373.35,-93.71"/>
<polygon fill="#63b8ff" stroke="#63b8ff" points="376.79,-94.37 374.93,-83.94 369.88,-93.25 376.79,-94.37"/>
</a>
</g>
</g>
</g>
</svg>
