<?xml version="1.0" encoding="UTF-8" standalone="no"?>
<!DOCTYPE svg PUBLIC "-//W3C//DTD SVG 1.1//EN"
 "http://www.w3.org/Graphics/SVG/1.1/DTD/svg11.dtd">
<!-- Generated by graphviz version 12.2.1 (20241206.2353)
 -->
<!-- Title: MultiplayerShooter Pages: 1 -->
<!--zoomable 452 -->

<svg id="main" version="1.1" xmlns="http://www.w3.org/2000/svg" xmlns:xlink="http://www.w3.org/1999/xlink" xml:space="preserve" onload="init(evt)">

<style type="text/css"><![CDATA[
.node, .edge {opacity: 0.7;}
.node.selected, .edge.selected {opacity: 1;}
.edge:hover path { stroke: red; }
.edge:hover polygon { stroke: red; fill: red; }
]]></style>

<defs>
  <circle id="rim" cx="0" cy="0" r="7"/>
  <circle id="rim2" cx="0" cy="0" r="3.5"/>
  <g id="zoomPlus">
    <use xlink:href="#rim" fill="#404040"><set attributeName="fill" to="#808080" begin="zoomplus.mouseover" end="zoomplus.mouseout"/></use>
    <path d="M-4,0h8M0,-4v8" fill="none" stroke="white" stroke-width="1.5" pointer-events="none"/>
  </g>
  <g id="zoomMin">
    <use xlink:href="#rim" fill="#404040"><set attributeName="fill" to="#808080" begin="zoomminus.mouseover" end="zoomminus.mouseout"/></use>
    <path d="M-4,0h8" fill="none" stroke="white" stroke-width="1.5" pointer-events="none"/>
  </g>
  <g id="arrowUp" transform="translate(30 24)">
    <use xlink:href="#rim"/>
    <path pointer-events="none" fill="none" stroke="white" stroke-width="1.5" d="M0,-3.0v7 M-2.5,-0.5L0,-3.0L2.5,-0.5"/>
  </g>
  <g id="arrowRight" transform="rotate(90) translate(36 -43)">
    <use xlink:href="#rim"/>
    <path pointer-events="none" fill="none" stroke="white" stroke-width="1.5" d="M0,-3.0v7 M-2.5,-0.5L0,-3.0L2.5,-0.5"/>
  </g>
  <g id="arrowDown" transform="rotate(180) translate(-30 -48)">
    <use xlink:href="#rim"/>
    <path pointer-events="none" fill="none" stroke="white" stroke-width="1.5" d="M0,-3.0v7 M-2.5,-0.5L0,-3.0L2.5,-0.5"/>
  </g>
  <g id="arrowLeft" transform="rotate(270) translate(-36 17)">
    <use xlink:href="#rim"/>
    <path pointer-events="none" fill="none" stroke="white" stroke-width="1.5" d="M0,-3.0v7 M-2.5,-0.5L0,-3.0L2.5,-0.5"/>
  </g>
  <g id="resetDef">
    <use xlink:href="#rim2" fill="#404040"><set attributeName="fill" to="#808080" begin="reset.mouseover" end="reset.mouseout"/></use>
  </g>
</defs>
<script type="application/ecmascript">
var viewWidth = 368;
var viewHeight = 452;
var sectionId = 'dynsection-0';
</script>
<script type="application/ecmascript" xlink:href="svg.min.js"/>
<svg id="graph" class="graph">
<g id="viewport">
<title>MultiplayerShooter</title>
<g id="clust1" class="cluster">
<title>clusterdir_c02b9718131941f5397e8655a258fcab</title>
<g id="a_clust1"><a xlink:href="dir_c02b9718131941f5397e8655a258fcab.html" target="_top">
<polygon fill="#edf0f7" stroke="#404040" stroke-width="2" points="8,-8 8,-436 352,-436 352,-8 8,-8"/>
</a>
</g>
</g>
<!-- dir_c02b9718131941f5397e8655a258fcab -->
<g id="node1" class="node">
<title>dir_c02b9718131941f5397e8655a258fcab</title>
<text text-anchor="middle" x="65" y="-414.5" font-family="Arial" font-size="10.00">MultiplayerShooter</text>
</g>
<!-- dir_cdab84beb5a7d8a89e1f5451fd8e4a5e -->
<g id="node2" class="node">
<title>dir_cdab84beb5a7d8a89e1f5451fd8e4a5e</title>
<g id="a_node2"><a xlink:href="dir_cdab84beb5a7d8a89e1f5451fd8e4a5e.html" target="_top" xlink:title="ActorComponents">
<polygon fill="#a2b4d6" stroke="#404040" points="226.38,-428 131.62,-428 131.62,-408 226.38,-408 226.38,-428"/>
<text text-anchor="middle" x="179" y="-414.5" font-family="Arial" font-size="10.00">ActorComponents</text>
</a>
</g>
</g>
<!-- dir_59fdbc63ddb31bceb51f8b480d15a072 -->
<g id="node3" class="node">
<title>dir_59fdbc63ddb31bceb51f8b480d15a072</title>
<g id="a_node3"><a xlink:href="dir_59fdbc63ddb31bceb51f8b480d15a072.html" target="_top" xlink:title="BaseWeapon">
<polygon fill="#a2b4d6" stroke="#404040" points="188.88,-372 115.12,-372 115.12,-352 188.88,-352 188.88,-372"/>
<text text-anchor="middle" x="152" y="-358.5" font-family="Arial" font-size="10.00">BaseWeapon</text>
</a>
</g>
</g>
<!-- dir_cdab84beb5a7d8a89e1f5451fd8e4a5e&#45;&gt;dir_59fdbc63ddb31bceb51f8b480d15a072 -->
<g id="edge3" class="edge">
<title>dir_cdab84beb5a7d8a89e1f5451fd8e4a5e&#45;&gt;dir_59fdbc63ddb31bceb51f8b480d15a072</title>
<g id="a_edge3"><a xlink:href="dir_000000_000001.html" target="_top">
<path fill="none" stroke="#63b8ff" d="M169.03,-407.59C164.26,-400.78 159.1,-391.32 155.4,-382.86"/>
<polygon fill="#63b8ff" stroke="#63b8ff" points="158.75,-381.83 151.94,-373.71 152.2,-384.31 158.75,-381.83"/>
</a>
</g>
<g id="a_edge3&#45;headlabel"><a xlink:href="dir_000000_000001.html" target="_top" xlink:title="2">
<text text-anchor="middle" x="162.14" y="-379.27" font-family="Arial" font-size="10.00" fill="#63b8ff">2</text>
</a>
</g>
</g>
<!-- dir_eaacba788c0c3855db8e299b71591489 -->
<g id="node7" class="node">
<title>dir_eaacba788c0c3855db8e299b71591489</title>
<g id="a_node7"><a xlink:href="dir_eaacba788c0c3855db8e299b71591489.html" target="_top" xlink:title="HUD">
<polygon fill="#a2b4d6" stroke="#404040" points="324.25,-92 285.75,-92 285.75,-72 324.25,-72 324.25,-92"/>
<text text-anchor="middle" x="305" y="-78.5" font-family="Arial" font-size="10.00">HUD</text>
</a>
</g>
</g>
<!-- dir_cdab84beb5a7d8a89e1f5451fd8e4a5e&#45;&gt;dir_eaacba788c0c3855db8e299b71591489 -->
<g id="edge4" class="edge">
<title>dir_cdab84beb5a7d8a89e1f5451fd8e4a5e&#45;&gt;dir_eaacba788c0c3855db8e299b71591489</title>
<g id="a_edge4"><a xlink:href="dir_000000_000005.html" target="_top">
<path fill="none" stroke="#63b8ff" d="M221.05,-407.56C244.79,-400.91 273.73,-389.89 295,-372 320.44,-350.6 332,-340.24 332,-307 332,-307 332,-307 332,-249 332,-195.35 313.82,-134.11 306.53,-103.17"/>
<polygon fill="#63b8ff" stroke="#63b8ff" points="310.01,-102.75 304.52,-93.69 303.17,-104.2 310.01,-102.75"/>
</a>
</g>
<g id="a_edge4&#45;headlabel"><a xlink:href="dir_000000_000005.html" target="_top" xlink:title="4">
<text text-anchor="middle" x="313.22" y="-100.7" font-family="Arial" font-size="10.00" fill="#63b8ff">4</text>
</a>
</g>
</g>
<!-- dir_1e9f088b6463516d710be25f38de4573 -->
<g id="node8" class="node">
<title>dir_1e9f088b6463516d710be25f38de4573</title>
<g id="a_node8"><a xlink:href="dir_1e9f088b6463516d710be25f38de4573.html" target="_top" xlink:title="MainCharacter">
<polygon fill="#a2b4d6" stroke="#404040" points="188.88,-204 109.12,-204 109.12,-184 188.88,-184 188.88,-204"/>
<text text-anchor="middle" x="149" y="-190.5" font-family="Arial" font-size="10.00">MainCharacter</text>
</a>
</g>
</g>
<!-- dir_cdab84beb5a7d8a89e1f5451fd8e4a5e&#45;&gt;dir_1e9f088b6463516d710be25f38de4573 -->
<g id="edge2" class="edge">
<title>dir_cdab84beb5a7d8a89e1f5451fd8e4a5e&#45;&gt;dir_1e9f088b6463516d710be25f38de4573</title>
<g id="a_edge2"><a xlink:href="dir_000000_000006.html" target="_top">
<path fill="none" stroke="#63b8ff" d="M143.19,-407.63C125.69,-400.59 106.58,-389.16 97,-372 67.54,-319.23 106.04,-246.59 131.19,-213.17"/>
<polygon fill="#63b8ff" stroke="#63b8ff" points="133.69,-215.64 137.22,-205.65 128.23,-211.26 133.69,-215.64"/>
</a>
</g>
<g id="a_edge2&#45;headlabel"><a xlink:href="dir_000000_000006.html" target="_top" xlink:title="3">
<text text-anchor="middle" x="134.6" y="-215.54" font-family="Arial" font-size="10.00" fill="#63b8ff">3</text>
</a>
</g>
</g>
<!-- dir_06934410778debb50bad8a2d723e2921 -->
<g id="node11" class="node">
<title>dir_06934410778debb50bad8a2d723e2921</title>
<g id="a_node11"><a xlink:href="dir_06934410778debb50bad8a2d723e2921.html" target="_top" xlink:title="PlayerController">
<polygon fill="#a2b4d6" stroke="#404040" points="250.88,-316 165.12,-316 165.12,-296 250.88,-296 250.88,-316"/>
<text text-anchor="middle" x="208" y="-302.5" font-family="Arial" font-size="10.00">PlayerController</text>
</a>
</g>
</g>
<!-- dir_cdab84beb5a7d8a89e1f5451fd8e4a5e&#45;&gt;dir_06934410778debb50bad8a2d723e2921 -->
<g id="edge1" class="edge">
<title>dir_cdab84beb5a7d8a89e1f5451fd8e4a5e&#45;&gt;dir_06934410778debb50bad8a2d723e2921</title>
<g id="a_edge1"><a xlink:href="dir_000000_000010.html" target="_top">
<path fill="none" stroke="#63b8ff" d="M176.82,-407.59C179.13,-398.65 185.39,-384.73 189,-372 193.15,-357.35 195.69,-340.32 198.44,-327.37"/>
<polygon fill="#63b8ff" stroke="#63b8ff" points="201.79,-328.43 200.84,-317.88 195,-326.72 201.79,-328.43"/>
</a>
</g>
<g id="a_edge1&#45;headlabel"><a xlink:href="dir_000000_000010.html" target="_top" xlink:title="1">
<text text-anchor="middle" x="204.03" y="-327.64" font-family="Arial" font-size="10.00" fill="#63b8ff">1</text>
</a>
</g>
</g>
<!-- dir_59fdbc63ddb31bceb51f8b480d15a072&#45;&gt;dir_cdab84beb5a7d8a89e1f5451fd8e4a5e -->
<g id="edge7" class="edge">
<title>dir_59fdbc63ddb31bceb51f8b480d15a072&#45;&gt;dir_cdab84beb5a7d8a89e1f5451fd8e4a5e</title>
<g id="a_edge7"><a xlink:href="dir_000001_000000.html" target="_top">
<path fill="none" stroke="#63b8ff" d="M161.89,-372.3C166.66,-379.08 171.82,-388.54 175.55,-397"/>
<polygon fill="#63b8ff" stroke="#63b8ff" points="172.21,-398.07 179.03,-406.18 178.75,-395.59 172.21,-398.07"/>
</a>
</g>
<g id="a_edge7&#45;headlabel"><a xlink:href="dir_000001_000000.html" target="_top" xlink:title="1">
<text text-anchor="middle" x="168.81" y="-393.63" font-family="Arial" font-size="10.00" fill="#63b8ff">1</text>
</a>
</g>
</g>
<!-- dir_59fdbc63ddb31bceb51f8b480d15a072&#45;&gt;dir_1e9f088b6463516d710be25f38de4573 -->
<g id="edge6" class="edge">
<title>dir_59fdbc63ddb31bceb51f8b480d15a072&#45;&gt;dir_1e9f088b6463516d710be25f38de4573</title>
<g id="a_edge6"><a xlink:href="dir_000001_000006.html" target="_top">
<path fill="none" stroke="#63b8ff" d="M148.49,-351.6C143.95,-325.46 142.18,-251.48 144.75,-215.36"/>
<polygon fill="#63b8ff" stroke="#63b8ff" points="148.2,-216.1 145.7,-205.8 141.23,-215.41 148.2,-216.1"/>
</a>
</g>
<g id="a_edge6&#45;headlabel"><a xlink:href="dir_000001_000006.html" target="_top" xlink:title="4">
<text text-anchor="middle" x="150.82" y="-214.95" font-family="Arial" font-size="10.00" fill="#63b8ff">4</text>
</a>
</g>
</g>
<!-- dir_59fdbc63ddb31bceb51f8b480d15a072&#45;&gt;dir_06934410778debb50bad8a2d723e2921 -->
<g id="edge5" class="edge">
<title>dir_59fdbc63ddb31bceb51f8b480d15a072&#45;&gt;dir_06934410778debb50bad8a2d723e2921</title>
<g id="a_edge5"><a xlink:href="dir_000001_000010.html" target="_top">
<path fill="none" stroke="#63b8ff" d="M156.49,-351.59C162.9,-343.93 173.98,-332.91 184.34,-323.75"/>
<polygon fill="#63b8ff" stroke="#63b8ff" points="186.6,-326.42 191.96,-317.28 182.07,-321.08 186.6,-326.42"/>
</a>
</g>
<g id="a_edge5&#45;headlabel"><a xlink:href="dir_000001_000010.html" target="_top" xlink:title="2">
<text text-anchor="middle" x="186.85" y="-326.43" font-family="Arial" font-size="10.00" fill="#63b8ff">2</text>
</a>
</g>
</g>
<!-- dir_18dd65f4df25e7b45add86c00790e4c2 -->
<g id="node4" class="node">
<title>dir_18dd65f4df25e7b45add86c00790e4c2</title>
<g id="a_node4"><a xlink:href="dir_18dd65f4df25e7b45add86c00790e4c2.html" target="_top" xlink:title="Database">
<polygon fill="#a2b4d6" stroke="#404040" points="184,-92 126,-92 126,-72 184,-72 184,-92"/>
<text text-anchor="middle" x="155" y="-78.5" font-family="Arial" font-size="10.00">Database</text>
</a>
</g>
</g>
<!-- dir_cefd025d79cbf022604c265e3101cb6c -->
<g id="node5" class="node">
<title>dir_cefd025d79cbf022604c265e3101cb6c</title>
<g id="a_node5"><a xlink:href="dir_cefd025d79cbf022604c265e3101cb6c.html" target="_top" xlink:title="GameMode">
<polygon fill="#a2b4d6" stroke="#404040" points="222.12,-148 155.88,-148 155.88,-128 222.12,-128 222.12,-148"/>
<text text-anchor="middle" x="189" y="-134.5" font-family="Arial" font-size="10.00">GameMode</text>
</a>
</g>
</g>
<!-- dir_cefd025d79cbf022604c265e3101cb6c&#45;&gt;dir_18dd65f4df25e7b45add86c00790e4c2 -->
<g id="edge9" class="edge">
<title>dir_cefd025d79cbf022604c265e3101cb6c&#45;&gt;dir_18dd65f4df25e7b45add86c00790e4c2</title>
<g id="a_edge9"><a xlink:href="dir_000003_000002.html" target="_top">
<path fill="none" stroke="#63b8ff" d="M183.08,-127.59C178.64,-120.55 172.42,-110.67 166.96,-102"/>
<polygon fill="#63b8ff" stroke="#63b8ff" points="169.95,-100.18 161.66,-93.58 164.03,-103.91 169.95,-100.18"/>
</a>
</g>
<g id="a_edge9&#45;headlabel"><a xlink:href="dir_000003_000002.html" target="_top" xlink:title="1">
<text text-anchor="middle" x="173.46" y="-96.92" font-family="Arial" font-size="10.00" fill="#63b8ff">1</text>
</a>
</g>
</g>
<!-- dir_e117c10730362e694dac0056e64888be -->
<g id="node6" class="node">
<title>dir_e117c10730362e694dac0056e64888be</title>
<g id="a_node6"><a xlink:href="dir_e117c10730362e694dac0056e64888be.html" target="_top" xlink:title="GameState">
<polygon fill="#a2b4d6" stroke="#404040" points="267.75,-92 202.25,-92 202.25,-72 267.75,-72 267.75,-92"/>
<text text-anchor="middle" x="235" y="-78.5" font-family="Arial" font-size="10.00">GameState</text>
</a>
</g>
</g>
<!-- dir_cefd025d79cbf022604c265e3101cb6c&#45;&gt;dir_e117c10730362e694dac0056e64888be -->
<g id="edge13" class="edge">
<title>dir_cefd025d79cbf022604c265e3101cb6c&#45;&gt;dir_e117c10730362e694dac0056e64888be</title>
<g id="a_edge13"><a xlink:href="dir_000003_000004.html" target="_top">
<path fill="none" stroke="#63b8ff" d="M197.01,-127.59C203.28,-120.24 212.17,-109.8 219.78,-100.87"/>
<polygon fill="#63b8ff" stroke="#63b8ff" points="222.28,-103.33 226.1,-93.45 216.95,-98.79 222.28,-103.33"/>
</a>
</g>
<g id="a_edge13&#45;headlabel"><a xlink:href="dir_000003_000004.html" target="_top" xlink:title="1">
<text text-anchor="middle" x="223.09" y="-103.26" font-family="Arial" font-size="10.00" fill="#63b8ff">1</text>
</a>
</g>
</g>
<!-- dir_cefd025d79cbf022604c265e3101cb6c&#45;&gt;dir_eaacba788c0c3855db8e299b71591489 -->
<g id="edge14" class="edge">
<title>dir_cefd025d79cbf022604c265e3101cb6c&#45;&gt;dir_eaacba788c0c3855db8e299b71591489</title>
<g id="a_edge14"><a xlink:href="dir_000003_000005.html" target="_top">
<path fill="none" stroke="#63b8ff" d="M209.21,-127.59C227.45,-119.1 254.52,-106.5 275.24,-96.85"/>
<polygon fill="#63b8ff" stroke="#63b8ff" points="276.45,-100.15 284.04,-92.76 273.5,-93.8 276.45,-100.15"/>
</a>
</g>
<g id="a_edge14&#45;headlabel"><a xlink:href="dir_000003_000005.html" target="_top" xlink:title="1">
<text text-anchor="middle" x="275.76" y="-100.1" font-family="Arial" font-size="10.00" fill="#63b8ff">1</text>
</a>
</g>
</g>
<!-- dir_cefd025d79cbf022604c265e3101cb6c&#45;&gt;dir_1e9f088b6463516d710be25f38de4573 -->
<g id="edge10" class="edge">
<title>dir_cefd025d79cbf022604c265e3101cb6c&#45;&gt;dir_1e9f088b6463516d710be25f38de4573</title>
<g id="a_edge10"><a xlink:href="dir_000003_000006.html" target="_top">
<path fill="none" stroke="#63b8ff" d="M187.36,-148.3C183.41,-155.62 176.07,-166.06 168.74,-175"/>
<polygon fill="#63b8ff" stroke="#63b8ff" points="166.17,-172.62 162.23,-182.45 171.44,-177.22 166.17,-172.62"/>
</a>
</g>
<g id="a_edge10&#45;headlabel"><a xlink:href="dir_000003_000006.html" target="_top" xlink:title="1">
<text text-anchor="middle" x="165.4" y="-165.68" font-family="Arial" font-size="10.00" fill="#63b8ff">1</text>
</a>
</g>
</g>
<!-- dir_da0c534f0486bcd9c68b8aa51e19130b -->
<g id="node10" class="node">
<title>dir_da0c534f0486bcd9c68b8aa51e19130b</title>
<g id="a_node10"><a xlink:href="dir_da0c534f0486bcd9c68b8aa51e19130b.html" target="_top" xlink:title="Pickups">
<polygon fill="#a2b4d6" stroke="#404040" points="107.62,-92 56.38,-92 56.38,-72 107.62,-72 107.62,-92"/>
<text text-anchor="middle" x="82" y="-78.5" font-family="Arial" font-size="10.00">Pickups</text>
</a>
</g>
</g>
<!-- dir_cefd025d79cbf022604c265e3101cb6c&#45;&gt;dir_da0c534f0486bcd9c68b8aa51e19130b -->
<g id="edge12" class="edge">
<title>dir_cefd025d79cbf022604c265e3101cb6c&#45;&gt;dir_da0c534f0486bcd9c68b8aa51e19130b</title>
<g id="a_edge12"><a xlink:href="dir_000003_000009.html" target="_top">
<path fill="none" stroke="#63b8ff" d="M165.1,-127.59C147.13,-119.36 122.88,-107.26 105.11,-97.74"/>
<polygon fill="#63b8ff" stroke="#63b8ff" points="107.28,-94.93 96.83,-93.21 103.92,-101.08 107.28,-94.93"/>
</a>
</g>
<g id="a_edge12&#45;headlabel"><a xlink:href="dir_000003_000009.html" target="_top" xlink:title="1">
<text text-anchor="middle" x="110.47" y="-89.94" font-family="Arial" font-size="10.00" fill="#63b8ff">1</text>
</a>
</g>
</g>
<!-- dir_cefd025d79cbf022604c265e3101cb6c&#45;&gt;dir_06934410778debb50bad8a2d723e2921 -->
<g id="edge8" class="edge">
<title>dir_cefd025d79cbf022604c265e3101cb6c&#45;&gt;dir_06934410778debb50bad8a2d723e2921</title>
<g id="a_edge8"><a xlink:href="dir_000003_000010.html" target="_top">
<path fill="none" stroke="#63b8ff" d="M202.72,-148.44C220.67,-165.36 249.43,-202.58 260,-240 262.42,-248.55 263.31,-251.75 260,-260 255.54,-271.13 246.86,-281.07 237.73,-288.76"/>
<polygon fill="#63b8ff" stroke="#63b8ff" points="235.67,-285.93 229.79,-294.74 239.88,-291.52 235.67,-285.93"/>
</a>
</g>
<g id="a_edge8&#45;headlabel"><a xlink:href="dir_000003_000010.html" target="_top" xlink:title="2">
<text text-anchor="middle" x="235.62" y="-278.91" font-family="Arial" font-size="10.00" fill="#63b8ff">2</text>
</a>
</g>
</g>
<!-- dir_ced7704969fcc53a65b8b968b669f96b -->
<g id="node12" class="node">
<title>dir_ced7704969fcc53a65b8b968b669f96b</title>
<g id="a_node12"><a xlink:href="dir_ced7704969fcc53a65b8b968b669f96b.html" target="_top" xlink:title="PlayerState">
<polygon fill="#a2b4d6" stroke="#404040" points="241.5,-260 174.5,-260 174.5,-240 241.5,-240 241.5,-260"/>
<text text-anchor="middle" x="208" y="-246.5" font-family="Arial" font-size="10.00">PlayerState</text>
</a>
</g>
</g>
<!-- dir_cefd025d79cbf022604c265e3101cb6c&#45;&gt;dir_ced7704969fcc53a65b8b968b669f96b -->
<g id="edge11" class="edge">
<title>dir_cefd025d79cbf022604c265e3101cb6c&#45;&gt;dir_ced7704969fcc53a65b8b968b669f96b</title>
<g id="a_edge11"><a xlink:href="dir_000003_000011.html" target="_top">
<path fill="none" stroke="#63b8ff" d="M190.98,-148.29C192.89,-157.37 195.81,-171.6 198,-184 200.62,-198.84 203.2,-215.66 205.08,-228.47"/>
<polygon fill="#63b8ff" stroke="#63b8ff" points="201.6,-228.83 206.49,-238.22 208.52,-227.83 201.6,-228.83"/>
</a>
</g>
<g id="a_edge11&#45;headlabel"><a xlink:href="dir_000003_000011.html" target="_top" xlink:title="1">
<text text-anchor="middle" x="198.49" y="-223.67" font-family="Arial" font-size="10.00" fill="#63b8ff">1</text>
</a>
</g>
</g>
<!-- dir_e117c10730362e694dac0056e64888be&#45;&gt;dir_ced7704969fcc53a65b8b968b669f96b -->
<g id="edge15" class="edge">
<title>dir_e117c10730362e694dac0056e64888be&#45;&gt;dir_ced7704969fcc53a65b8b968b669f96b</title>
<g id="a_edge15"><a xlink:href="dir_000004_000011.html" target="_top">
<path fill="none" stroke="#63b8ff" d="M234.9,-92.31C234.66,-104.97 233.83,-128.3 231,-148 226.93,-176.3 219.05,-208.41 213.65,-228.68"/>
<polygon fill="#63b8ff" stroke="#63b8ff" points="210.32,-227.6 211.07,-238.17 217.07,-229.44 210.32,-227.6"/>
</a>
</g>
<g id="a_edge15&#45;headlabel"><a xlink:href="dir_000004_000011.html" target="_top" xlink:title="1">
<text text-anchor="middle" x="208.13" y="-221.34" font-family="Arial" font-size="10.00" fill="#63b8ff">1</text>
</a>
</g>
</g>
<!-- dir_eaacba788c0c3855db8e299b71591489&#45;&gt;dir_cdab84beb5a7d8a89e1f5451fd8e4a5e -->
<g id="edge19" class="edge">
<title>dir_eaacba788c0c3855db8e299b71591489&#45;&gt;dir_cdab84beb5a7d8a89e1f5451fd8e4a5e</title>
<g id="a_edge19"><a xlink:href="dir_000005_000000.html" target="_top">
<path fill="none" stroke="#63b8ff" d="M312.69,-92.21C326.46,-117.1 350,-187.96 350,-249 350,-307 350,-307 350,-307 350,-340.24 338.44,-350.6 313,-372 291.94,-389.72 263.35,-400.7 237.91,-407.37"/>
<polygon fill="#63b8ff" stroke="#63b8ff" points="237.23,-403.93 228.34,-409.7 238.88,-410.74 237.23,-403.93"/>
</a>
</g>
<g id="a_edge19&#45;headlabel"><a xlink:href="dir_000005_000000.html" target="_top" xlink:title="1">
<text text-anchor="middle" x="238.58" y="-397.18" font-family="Arial" font-size="10.00" fill="#63b8ff">1</text>
</a>
</g>
</g>
<!-- dir_eaacba788c0c3855db8e299b71591489&#45;&gt;dir_1e9f088b6463516d710be25f38de4573 -->
<g id="edge17" class="edge">
<title>dir_eaacba788c0c3855db8e299b71591489&#45;&gt;dir_1e9f088b6463516d710be25f38de4573</title>
<g id="a_edge17"><a xlink:href="dir_000005_000006.html" target="_top">
<path fill="none" stroke="#63b8ff" d="M301.84,-92.11C291.55,-105.38 265.2,-130.33 240,-148 223.37,-159.65 203.42,-170.66 186.32,-178.87"/>
<polygon fill="#63b8ff" stroke="#63b8ff" points="185.07,-175.59 177.46,-182.97 188.01,-181.94 185.07,-175.59"/>
</a>
</g>
<g id="a_edge17&#45;headlabel"><a xlink:href="dir_000005_000006.html" target="_top" xlink:title="1">
<text text-anchor="middle" x="185.76" y="-168.64" font-family="Arial" font-size="10.00" fill="#63b8ff">1</text>
</a>
</g>
</g>
<!-- dir_a3ef6ce5e7c12fe10fd31b1b6068eb39 -->
<g id="node9" class="node">
<title>dir_a3ef6ce5e7c12fe10fd31b1b6068eb39</title>
<g id="a_node9"><a xlink:href="dir_a3ef6ce5e7c12fe10fd31b1b6068eb39.html" target="_top" xlink:title="Persistence">
<polygon fill="#a2b4d6" stroke="#404040" points="210.88,-36 143.12,-36 143.12,-16 210.88,-16 210.88,-36"/>
<text text-anchor="middle" x="177" y="-22.5" font-family="Arial" font-size="10.00">Persistence</text>
</a>
</g>
</g>
<!-- dir_eaacba788c0c3855db8e299b71591489&#45;&gt;dir_a3ef6ce5e7c12fe10fd31b1b6068eb39 -->
<g id="edge18" class="edge">
<title>dir_eaacba788c0c3855db8e299b71591489&#45;&gt;dir_a3ef6ce5e7c12fe10fd31b1b6068eb39</title>
<g id="a_edge18"><a xlink:href="dir_000005_000008.html" target="_top">
<path fill="none" stroke="#63b8ff" d="M285.28,-72.68C265.09,-64.16 233.37,-50.78 209.47,-40.7"/>
<polygon fill="#63b8ff" stroke="#63b8ff" points="211.08,-37.58 200.5,-36.91 208.35,-44.03 211.08,-37.58"/>
</a>
</g>
<g id="a_edge18&#45;headlabel"><a xlink:href="dir_000005_000008.html" target="_top" xlink:title="1">
<text text-anchor="middle" x="214.1" y="-32.27" font-family="Arial" font-size="10.00" fill="#63b8ff">1</text>
</a>
</g>
</g>
<!-- dir_eaacba788c0c3855db8e299b71591489&#45;&gt;dir_06934410778debb50bad8a2d723e2921 -->
<g id="edge16" class="edge">
<title>dir_eaacba788c0c3855db8e299b71591489&#45;&gt;dir_06934410778debb50bad8a2d723e2921</title>
<g id="a_edge16"><a xlink:href="dir_000005_000010.html" target="_top">
<path fill="none" stroke="#63b8ff" d="M308.97,-92.27C313.63,-119.99 309.44,-203.76 274,-260 266.44,-272 254.51,-282.14 242.76,-289.74"/>
<polygon fill="#63b8ff" stroke="#63b8ff" points="241.14,-286.63 234.33,-294.74 244.71,-292.65 241.14,-286.63"/>
</a>
</g>
<g id="a_edge16&#45;headlabel"><a xlink:href="dir_000005_000010.html" target="_top" xlink:title="2">
<text text-anchor="middle" x="241.48" y="-279.63" font-family="Arial" font-size="10.00" fill="#63b8ff">2</text>
</a>
</g>
</g>
<!-- dir_1e9f088b6463516d710be25f38de4573&#45;&gt;dir_cdab84beb5a7d8a89e1f5451fd8e4a5e -->
<g id="edge23" class="edge">
<title>dir_1e9f088b6463516d710be25f38de4573&#45;&gt;dir_cdab84beb5a7d8a89e1f5451fd8e4a5e</title>
<g id="a_edge23"><a xlink:href="dir_000006_000000.html" target="_top">
<path fill="none" stroke="#63b8ff" d="M146.23,-204.47C132.3,-232.06 82.63,-314.02 115,-372 122.56,-385.54 136.05,-395.51 148.79,-402.58"/>
<polygon fill="#63b8ff" stroke="#63b8ff" points="146.87,-405.53 157.37,-406.95 150.05,-399.29 146.87,-405.53"/>
</a>
</g>
<g id="a_edge23&#45;headlabel"><a xlink:href="dir_000006_000000.html" target="_top" xlink:title="6">
<text text-anchor="middle" x="143.73" y="-403.61" font-family="Arial" font-size="10.00" fill="#63b8ff">6</text>
</a>
</g>
</g>
<!-- dir_1e9f088b6463516d710be25f38de4573&#45;&gt;dir_59fdbc63ddb31bceb51f8b480d15a072 -->
<g id="edge21" class="edge">
<title>dir_1e9f088b6463516d710be25f38de4573&#45;&gt;dir_59fdbc63ddb31bceb51f8b480d15a072</title>
<g id="a_edge21"><a xlink:href="dir_000006_000001.html" target="_top">
<path fill="none" stroke="#63b8ff" d="M152.49,-204.3C157.04,-230.31 158.82,-304.27 156.26,-340.5"/>
<polygon fill="#63b8ff" stroke="#63b8ff" points="152.81,-339.8 155.32,-350.09 159.78,-340.48 152.81,-339.8"/>
</a>
</g>
<g id="a_edge21&#45;headlabel"><a xlink:href="dir_000006_000001.html" target="_top" xlink:title="2">
<text text-anchor="middle" x="150.19" y="-333.95" font-family="Arial" font-size="10.00" fill="#63b8ff">2</text>
</a>
</g>
</g>
<!-- dir_1e9f088b6463516d710be25f38de4573&#45;&gt;dir_cefd025d79cbf022604c265e3101cb6c -->
<g id="edge25" class="edge">
<title>dir_1e9f088b6463516d710be25f38de4573&#45;&gt;dir_cefd025d79cbf022604c265e3101cb6c</title>
<g id="a_edge25"><a xlink:href="dir_000006_000003.html" target="_top">
<path fill="none" stroke="#63b8ff" d="M150.7,-183.59C154.68,-176.24 162.04,-165.8 169.37,-156.87"/>
<polygon fill="#63b8ff" stroke="#63b8ff" points="171.92,-159.27 175.87,-149.44 166.65,-154.66 171.92,-159.27"/>
</a>
</g>
<g id="a_edge25&#45;headlabel"><a xlink:href="dir_000006_000003.html" target="_top" xlink:title="1">
<text text-anchor="middle" x="172.69" y="-159.2" font-family="Arial" font-size="10.00" fill="#63b8ff">1</text>
</a>
</g>
</g>
<!-- dir_1e9f088b6463516d710be25f38de4573&#45;&gt;dir_eaacba788c0c3855db8e299b71591489 -->
<g id="edge26" class="edge">
<title>dir_1e9f088b6463516d710be25f38de4573&#45;&gt;dir_eaacba788c0c3855db8e299b71591489</title>
<g id="a_edge26"><a xlink:href="dir_000006_000005.html" target="_top">
<path fill="none" stroke="#63b8ff" d="M161.78,-183.6C177,-175.2 201.92,-162.07 222,-148 243.15,-133.18 265.1,-113.22 281.39,-99.35"/>
<polygon fill="#63b8ff" stroke="#63b8ff" points="283.21,-102.39 288.66,-93.3 278.73,-97.01 283.21,-102.39"/>
</a>
</g>
<g id="a_edge26&#45;headlabel"><a xlink:href="dir_000006_000005.html" target="_top" xlink:title="1">
<text text-anchor="middle" x="283.42" y="-102.4" font-family="Arial" font-size="10.00" fill="#63b8ff">1</text>
</a>
</g>
</g>
<!-- dir_1e9f088b6463516d710be25f38de4573&#45;&gt;dir_a3ef6ce5e7c12fe10fd31b1b6068eb39 -->
<g id="edge22" class="edge">
<title>dir_1e9f088b6463516d710be25f38de4573&#45;&gt;dir_a3ef6ce5e7c12fe10fd31b1b6068eb39</title>
<g id="a_edge22"><a xlink:href="dir_000006_000008.html" target="_top">
<path fill="none" stroke="#63b8ff" d="M143.61,-183.54C134.47,-167.72 116.08,-136.78 107,-128 80.78,-102.64 25.84,-101.71 47,-72 66.08,-45.21 102.25,-34.22 131.61,-29.78"/>
<polygon fill="#63b8ff" stroke="#63b8ff" points="131.9,-33.27 141.38,-28.53 131.02,-26.33 131.9,-33.27"/>
</a>
</g>
<g id="a_edge22&#45;headlabel"><a xlink:href="dir_000006_000008.html" target="_top" xlink:title="1">
<text text-anchor="middle" x="130.2" y="-32.85" font-family="Arial" font-size="10.00" fill="#63b8ff">1</text>
</a>
</g>
</g>
<!-- dir_1e9f088b6463516d710be25f38de4573&#45;&gt;dir_06934410778debb50bad8a2d723e2921 -->
<g id="edge20" class="edge">
<title>dir_1e9f088b6463516d710be25f38de4573&#45;&gt;dir_06934410778debb50bad8a2d723e2921</title>
<g id="a_edge20"><a xlink:href="dir_000006_000010.html" target="_top">
<path fill="none" stroke="#63b8ff" d="M155.96,-204.36C160.68,-217.49 164.98,-241.81 175,-260 180.57,-270.12 188.92,-279.71 196.04,-287.42"/>
<polygon fill="#63b8ff" stroke="#63b8ff" points="193.43,-289.75 202.8,-294.69 198.55,-284.99 193.43,-289.75"/>
</a>
</g>
<g id="a_edge20&#45;headlabel"><a xlink:href="dir_000006_000010.html" target="_top" xlink:title="1">
<text text-anchor="middle" x="189.93" y="-286.66" font-family="Arial" font-size="10.00" fill="#63b8ff">1</text>
</a>
</g>
</g>
<!-- dir_1e9f088b6463516d710be25f38de4573&#45;&gt;dir_ced7704969fcc53a65b8b968b669f96b -->
<g id="edge24" class="edge">
<title>dir_1e9f088b6463516d710be25f38de4573&#45;&gt;dir_ced7704969fcc53a65b8b968b669f96b</title>
<g id="a_edge24"><a xlink:href="dir_000006_000011.html" target="_top">
<path fill="none" stroke="#63b8ff" d="M164.4,-204.3C173.99,-211.7 185.93,-222.28 195.03,-231.29"/>
<polygon fill="#63b8ff" stroke="#63b8ff" points="192.5,-233.7 201.94,-238.5 197.55,-228.86 192.5,-233.7"/>
</a>
</g>
<g id="a_edge24&#45;headlabel"><a xlink:href="dir_000006_000011.html" target="_top" xlink:title="1">
<text text-anchor="middle" x="189.01" y="-230.67" font-family="Arial" font-size="10.00" fill="#63b8ff">1</text>
</a>
</g>
</g>
<!-- dir_ed555c3d153aba9b9b4a1fc4b7622da7 -->
<g id="node14" class="node">
<title>dir_ed555c3d153aba9b9b4a1fc4b7622da7</title>
<g id="a_node14"><a xlink:href="dir_ed555c3d153aba9b9b4a1fc4b7622da7.html" target="_top" xlink:title="Types">
<polygon fill="#a2b4d6" stroke="#404040" points="98.12,-148 55.88,-148 55.88,-128 98.12,-128 98.12,-148"/>
<text text-anchor="middle" x="77" y="-134.5" font-family="Arial" font-size="10.00">Types</text>
</a>
</g>
</g>
<!-- dir_1e9f088b6463516d710be25f38de4573&#45;&gt;dir_ed555c3d153aba9b9b4a1fc4b7622da7 -->
<g id="edge27" class="edge">
<title>dir_1e9f088b6463516d710be25f38de4573&#45;&gt;dir_ed555c3d153aba9b9b4a1fc4b7622da7</title>
<g id="a_edge27"><a xlink:href="dir_000006_000014.html" target="_top">
<path fill="none" stroke="#63b8ff" d="M136.46,-183.59C126.03,-175.77 110.95,-164.46 98.59,-155.19"/>
<polygon fill="#63b8ff" stroke="#63b8ff" points="100.71,-152.41 90.61,-149.21 96.51,-158.01 100.71,-152.41"/>
</a>
</g>
<g id="a_edge27&#45;headlabel"><a xlink:href="dir_000006_000014.html" target="_top" xlink:title="2">
<text text-anchor="middle" x="104.08" y="-147.88" font-family="Arial" font-size="10.00" fill="#63b8ff">2</text>
</a>
</g>
</g>
<!-- dir_da0c534f0486bcd9c68b8aa51e19130b&#45;&gt;dir_cdab84beb5a7d8a89e1f5451fd8e4a5e -->
<g id="edge29" class="edge">
<title>dir_da0c534f0486bcd9c68b8aa51e19130b&#45;&gt;dir_cdab84beb5a7d8a89e1f5451fd8e4a5e</title>
<g id="a_edge29"><a xlink:href="dir_000009_000000.html" target="_top">
<path fill="none" stroke="#63b8ff" d="M71.56,-92.48C53.18,-110.25 17,-150.63 17,-193 17,-307 17,-307 17,-307 17,-360.35 77.87,-389.62 124.98,-404.3"/>
<polygon fill="#63b8ff" stroke="#63b8ff" points="123.98,-407.65 134.56,-407.12 125.96,-400.93 123.98,-407.65"/>
</a>
</g>
<g id="a_edge29&#45;headlabel"><a xlink:href="dir_000009_000000.html" target="_top" xlink:title="1">
<text text-anchor="middle" x="121.18" y="-406.28" font-family="Arial" font-size="10.00" fill="#63b8ff">1</text>
</a>
</g>
</g>
<!-- dir_da0c534f0486bcd9c68b8aa51e19130b&#45;&gt;dir_cefd025d79cbf022604c265e3101cb6c -->
<g id="edge30" class="edge">
<title>dir_da0c534f0486bcd9c68b8aa51e19130b&#45;&gt;dir_cefd025d79cbf022604c265e3101cb6c</title>
<g id="a_edge30"><a xlink:href="dir_000009_000003.html" target="_top">
<path fill="none" stroke="#63b8ff" d="M106.06,-92.48C123.9,-100.66 147.87,-112.62 165.55,-122.08"/>
<polygon fill="#63b8ff" stroke="#63b8ff" points="163.85,-125.14 174.3,-126.87 167.21,-119 163.85,-125.14"/>
</a>
</g>
<g id="a_edge30&#45;headlabel"><a xlink:href="dir_000009_000003.html" target="_top" xlink:title="1">
<text text-anchor="middle" x="160.66" y="-123.13" font-family="Arial" font-size="10.00" fill="#63b8ff">1</text>
</a>
</g>
</g>
<!-- dir_da0c534f0486bcd9c68b8aa51e19130b&#45;&gt;dir_1e9f088b6463516d710be25f38de4573 -->
<g id="edge28" class="edge">
<title>dir_da0c534f0486bcd9c68b8aa51e19130b&#45;&gt;dir_1e9f088b6463516d710be25f38de4573</title>
<g id="a_edge28"><a xlink:href="dir_000009_000006.html" target="_top">
<path fill="none" stroke="#63b8ff" d="M91.92,-92.24C100.71,-100.85 113.45,-114.36 122,-128 130.85,-142.11 137.93,-159.62 142.61,-172.91"/>
<polygon fill="#63b8ff" stroke="#63b8ff" points="139.25,-173.9 145.75,-182.27 145.89,-171.68 139.25,-173.9"/>
</a>
</g>
<g id="a_edge28&#45;headlabel"><a xlink:href="dir_000009_000006.html" target="_top" xlink:title="3">
<text text-anchor="middle" x="135.9" y="-169.32" font-family="Arial" font-size="10.00" fill="#63b8ff">3</text>
</a>
</g>
</g>
<!-- dir_06934410778debb50bad8a2d723e2921&#45;&gt;dir_cdab84beb5a7d8a89e1f5451fd8e4a5e -->
<g id="edge34" class="edge">
<title>dir_06934410778debb50bad8a2d723e2921&#45;&gt;dir_cdab84beb5a7d8a89e1f5451fd8e4a5e</title>
<g id="a_edge34"><a xlink:href="dir_000010_000000.html" target="_top">
<path fill="none" stroke="#63b8ff" d="M213.36,-316.41C215.15,-329.19 212.48,-352.67 207,-372 204.52,-380.75 200.78,-390.07 196.62,-397.94"/>
<polygon fill="#63b8ff" stroke="#63b8ff" points="193.74,-395.94 191.53,-406.3 199.72,-399.57 193.74,-395.94"/>
</a>
</g>
<g id="a_edge34&#45;headlabel"><a xlink:href="dir_000010_000000.html" target="_top" xlink:title="1">
<text text-anchor="middle" x="192.4" y="-389.18" font-family="Arial" font-size="10.00" fill="#63b8ff">1</text>
</a>
</g>
</g>
<!-- dir_06934410778debb50bad8a2d723e2921&#45;&gt;dir_59fdbc63ddb31bceb51f8b480d15a072 -->
<g id="edge32" class="edge">
<title>dir_06934410778debb50bad8a2d723e2921&#45;&gt;dir_59fdbc63ddb31bceb51f8b480d15a072</title>
<g id="a_edge32"><a xlink:href="dir_000010_000001.html" target="_top">
<path fill="none" stroke="#63b8ff" d="M203.6,-316.3C197.17,-324.01 185.94,-335.17 175.5,-344.4"/>
<polygon fill="#63b8ff" stroke="#63b8ff" points="173.54,-341.48 168.18,-350.61 178.06,-346.81 173.54,-341.48"/>
</a>
</g>
<g id="a_edge32&#45;headlabel"><a xlink:href="dir_000010_000001.html" target="_top" xlink:title="1">
<text text-anchor="middle" x="173.28" y="-334.46" font-family="Arial" font-size="10.00" fill="#63b8ff">1</text>
</a>
</g>
</g>
<!-- dir_06934410778debb50bad8a2d723e2921&#45;&gt;dir_cefd025d79cbf022604c265e3101cb6c -->
<g id="edge36" class="edge">
<title>dir_06934410778debb50bad8a2d723e2921&#45;&gt;dir_cefd025d79cbf022604c265e3101cb6c</title>
<g id="a_edge36"><a xlink:href="dir_000010_000003.html" target="_top">
<path fill="none" stroke="#63b8ff" d="M214.06,-295.66C222.61,-287.56 236.05,-274.84 242,-260 245.31,-251.75 244.42,-248.55 242,-240 233.08,-208.42 211.22,-177 198.17,-157.78"/>
<polygon fill="#63b8ff" stroke="#63b8ff" points="201.25,-156.1 192.8,-149.7 195.42,-159.97 201.25,-156.1"/>
</a>
</g>
<g id="a_edge36&#45;headlabel"><a xlink:href="dir_000010_000003.html" target="_top" xlink:title="2">
<text text-anchor="middle" x="204.77" y="-152.76" font-family="Arial" font-size="10.00" fill="#63b8ff">2</text>
</a>
</g>
</g>
<!-- dir_06934410778debb50bad8a2d723e2921&#45;&gt;dir_e117c10730362e694dac0056e64888be -->
<g id="edge37" class="edge">
<title>dir_06934410778debb50bad8a2d723e2921&#45;&gt;dir_e117c10730362e694dac0056e64888be</title>
<g id="a_edge37"><a xlink:href="dir_000010_000004.html" target="_top">
<path fill="none" stroke="#63b8ff" d="M223.61,-295.77C235.23,-287.9 250.22,-275.44 257,-260 280.4,-206.74 257.61,-136.34 243.82,-102.63"/>
<polygon fill="#63b8ff" stroke="#63b8ff" points="247.16,-101.53 240.01,-93.72 240.72,-104.29 247.16,-101.53"/>
</a>
</g>
<g id="a_edge37&#45;headlabel"><a xlink:href="dir_000010_000004.html" target="_top" xlink:title="1">
<text text-anchor="middle" x="250.59" y="-98.83" font-family="Arial" font-size="10.00" fill="#63b8ff">1</text>
</a>
</g>
</g>
<!-- dir_06934410778debb50bad8a2d723e2921&#45;&gt;dir_eaacba788c0c3855db8e299b71591489 -->
<g id="edge38" class="edge">
<title>dir_06934410778debb50bad8a2d723e2921&#45;&gt;dir_eaacba788c0c3855db8e299b71591489</title>
<g id="a_edge38"><a xlink:href="dir_000010_000005.html" target="_top">
<path fill="none" stroke="#63b8ff" d="M218.23,-295.52C229.49,-287.68 246.32,-275.36 256,-260 287.57,-209.91 294.34,-137.98 299.28,-103.27"/>
<polygon fill="#63b8ff" stroke="#63b8ff" points="302.67,-104.2 300.81,-93.77 295.76,-103.08 302.67,-104.2"/>
</a>
</g>
<g id="a_edge38&#45;headlabel"><a xlink:href="dir_000010_000005.html" target="_top" xlink:title="6">
<text text-anchor="middle" x="305.14" y="-103.2" font-family="Arial" font-size="10.00" fill="#63b8ff">6</text>
</a>
</g>
</g>
<!-- dir_06934410778debb50bad8a2d723e2921&#45;&gt;dir_1e9f088b6463516d710be25f38de4573 -->
<g id="edge31" class="edge">
<title>dir_06934410778debb50bad8a2d723e2921&#45;&gt;dir_1e9f088b6463516d710be25f38de4573</title>
<g id="a_edge31"><a xlink:href="dir_000010_000006.html" target="_top">
<path fill="none" stroke="#63b8ff" d="M189.6,-295.8C178.17,-287.43 164.84,-274.23 157,-260 149.41,-246.22 145.1,-228.91 144.03,-215.62"/>
<polygon fill="#63b8ff" stroke="#63b8ff" points="147.54,-215.87 144.01,-205.87 140.54,-215.88 147.54,-215.87"/>
</a>
</g>
<g id="a_edge31&#45;headlabel"><a xlink:href="dir_000010_000006.html" target="_top" xlink:title="1">
<text text-anchor="middle" x="150.38" y="-214.44" font-family="Arial" font-size="10.00" fill="#63b8ff">1</text>
</a>
</g>
</g>
<!-- dir_06934410778debb50bad8a2d723e2921&#45;&gt;dir_a3ef6ce5e7c12fe10fd31b1b6068eb39 -->
<g id="edge33" class="edge">
<title>dir_06934410778debb50bad8a2d723e2921&#45;&gt;dir_a3ef6ce5e7c12fe10fd31b1b6068eb39</title>
<g id="a_edge33"><a xlink:href="dir_000010_000008.html" target="_top">
<path fill="none" stroke="#63b8ff" d="M196.1,-295.7C184.94,-286.84 167.94,-272.96 154,-260 103.59,-213.12 77.48,-209.73 47,-148 35.84,-125.4 40.01,-117.13 38,-92 37.29,-83.14 32.77,-79.19 38,-72 59.19,-42.86 99.67,-32.2 131.5,-28.49"/>
<polygon fill="#63b8ff" stroke="#63b8ff" points="131.65,-31.99 141.28,-27.56 130.99,-25.02 131.65,-31.99"/>
</a>
</g>
<g id="a_edge33&#45;headlabel"><a xlink:href="dir_000010_000008.html" target="_top" xlink:title="1">
<text text-anchor="middle" x="129.85" y="-31.52" font-family="Arial" font-size="10.00" fill="#63b8ff">1</text>
</a>
</g>
</g>
<!-- dir_06934410778debb50bad8a2d723e2921&#45;&gt;dir_ced7704969fcc53a65b8b968b669f96b -->
<g id="edge35" class="edge">
<title>dir_06934410778debb50bad8a2d723e2921&#45;&gt;dir_ced7704969fcc53a65b8b968b669f96b</title>
<g id="a_edge35"><a xlink:href="dir_000010_000011.html" target="_top">
<path fill="none" stroke="#63b8ff" d="M202.73,-295.59C201.42,-289.01 200.98,-279.96 201.41,-271.73"/>
<polygon fill="#63b8ff" stroke="#63b8ff" points="204.89,-272.14 202.58,-261.8 197.94,-271.33 204.89,-272.14"/>
</a>
</g>
<g id="a_edge35&#45;headlabel"><a xlink:href="dir_000010_000011.html" target="_top" xlink:title="1">
<text text-anchor="middle" x="207.47" y="-271.04" font-family="Arial" font-size="10.00" fill="#63b8ff">1</text>
</a>
</g>
</g>
<!-- dir_ced7704969fcc53a65b8b968b669f96b&#45;&gt;dir_1e9f088b6463516d710be25f38de4573 -->
<g id="edge40" class="edge">
<title>dir_ced7704969fcc53a65b8b968b669f96b&#45;&gt;dir_1e9f088b6463516d710be25f38de4573</title>
<g id="a_edge40"><a xlink:href="dir_000011_000006.html" target="_top">
<path fill="none" stroke="#63b8ff" d="M192.46,-239.59C182.85,-232.16 170.91,-221.58 161.84,-212.58"/>
<polygon fill="#63b8ff" stroke="#63b8ff" points="164.4,-210.2 154.96,-205.39 159.34,-215.04 164.4,-210.2"/>
</a>
</g>
<g id="a_edge40&#45;headlabel"><a xlink:href="dir_000011_000006.html" target="_top" xlink:title="1">
<text text-anchor="middle" x="167.89" y="-206.24" font-family="Arial" font-size="10.00" fill="#63b8ff">1</text>
</a>
</g>
</g>
<!-- dir_ced7704969fcc53a65b8b968b669f96b&#45;&gt;dir_06934410778debb50bad8a2d723e2921 -->
<g id="edge39" class="edge">
<title>dir_ced7704969fcc53a65b8b968b669f96b&#45;&gt;dir_06934410778debb50bad8a2d723e2921</title>
<g id="a_edge39"><a xlink:href="dir_000011_000010.html" target="_top">
<path fill="none" stroke="#63b8ff" d="M213.25,-260.3C214.59,-266.93 215.03,-276.11 214.58,-284.43"/>
<polygon fill="#63b8ff" stroke="#63b8ff" points="211.13,-283.75 213.44,-294.09 218.08,-284.57 211.13,-283.75"/>
</a>
</g>
<g id="a_edge39&#45;headlabel"><a xlink:href="dir_000011_000010.html" target="_top" xlink:title="1">
<text text-anchor="middle" x="208.55" y="-277.85" font-family="Arial" font-size="10.00" fill="#63b8ff">1</text>
</a>
</g>
</g>
<!-- dir_9a4cdbabb612ad4752f10a24e85f35e3 -->
<g id="node13" class="node">
<title>dir_9a4cdbabb612ad4752f10a24e85f35e3</title>
<g id="a_node13"><a xlink:href="dir_9a4cdbabb612ad4752f10a24e85f35e3.html" target="_top" xlink:title="Tests">
<polygon fill="#a2b4d6" stroke="#404040" points="295,-372 255,-372 255,-352 295,-352 295,-372"/>
<text text-anchor="middle" x="275" y="-358.5" font-family="Arial" font-size="10.00">Tests</text>
</a>
</g>
</g>
<!-- dir_9a4cdbabb612ad4752f10a24e85f35e3&#45;&gt;dir_a3ef6ce5e7c12fe10fd31b1b6068eb39 -->
<g id="edge42" class="edge">
<title>dir_9a4cdbabb612ad4752f10a24e85f35e3&#45;&gt;dir_a3ef6ce5e7c12fe10fd31b1b6068eb39</title>
<g id="a_edge42"><a xlink:href="dir_000013_000008.html" target="_top">
<path fill="none" stroke="#63b8ff" d="M281.59,-351.6C307.95,-312.77 401.14,-162.58 333,-72 319.64,-54.24 263.56,-41.29 222.45,-33.96"/>
<polygon fill="#63b8ff" stroke="#63b8ff" points="223.24,-30.54 212.79,-32.3 222.05,-37.44 223.24,-30.54"/>
</a>
</g>
<g id="a_edge42&#45;headlabel"><a xlink:href="dir_000013_000008.html" target="_top" xlink:title="1">
<text text-anchor="middle" x="225.77" y="-24.6" font-family="Arial" font-size="10.00" fill="#63b8ff">1</text>
</a>
</g>
</g>
<!-- dir_9a4cdbabb612ad4752f10a24e85f35e3&#45;&gt;dir_06934410778debb50bad8a2d723e2921 -->
<g id="edge41" class="edge">
<title>dir_9a4cdbabb612ad4752f10a24e85f35e3&#45;&gt;dir_06934410778debb50bad8a2d723e2921</title>
<g id="a_edge41"><a xlink:href="dir_000013_000010.html" target="_top">
<path fill="none" stroke="#63b8ff" d="M263.33,-351.59C253.72,-343.85 239.87,-332.69 228.43,-323.47"/>
<polygon fill="#63b8ff" stroke="#63b8ff" points="230.7,-320.8 220.72,-317.25 226.3,-326.25 230.7,-320.8"/>
</a>
</g>
<g id="a_edge41&#45;headlabel"><a xlink:href="dir_000013_000010.html" target="_top" xlink:title="1">
<text text-anchor="middle" x="234.1" y="-316.39" font-family="Arial" font-size="10.00" fill="#63b8ff">1</text>
</a>
</g>
</g>
</g>
</svg>

<g id="navigator" transform="translate(0 0)" fill="#404254">
  <rect fill="#f2f5e9" fill-opacity="0.5" stroke="#606060" stroke-width=".5" x="0" y="0" width="60" height="60"/>
  <use id="zoomplus" xlink:href="#zoomPlus" x="17" y="9" onmousedown="handleZoom(evt,'in')"/>
  <use id="zoomminus" xlink:href="#zoomMin" x="42" y="9" onmousedown="handleZoom(evt,'out')"/>
  <use id="reset" xlink:href="#resetDef" x="30" y="36" onmousedown="handleReset()"/>
   <use id="arrowup" xlink:href="#arrowUp" x="0" y="0" onmousedown="handlePan(0,-1)"/>
  <use id="arrowright" xlink:href="#arrowRight" x="0" y="0" onmousedown="handlePan(1,0)"/>
  <use id="arrowdown" xlink:href="#arrowDown" x="0" y="0" onmousedown="handlePan(0,1)"/>
  <use id="arrowleft" xlink:href="#arrowLeft" x="0" y="0" onmousedown="handlePan(-1,0)"/>
</g>
<svg viewBox="0 0 15 15" width="100%" height="30px" preserveAspectRatio="xMaxYMin meet">
 <g id="arrow_out" transform="scale(0.3 0.3)">
  <a xlink:href="dir_c02b9718131941f5397e8655a258fcab_dep_org.svg" target="_base">
   <rect id="button" ry="5" rx="5" y="6" x="6" height="38" width="38"
        fill="#f2f5e9" fill-opacity="0.5" stroke="#606060" stroke-width="1.0"/>
   <path id="arrow"
     d="M 11.500037,31.436501 C 11.940474,20.09759 22.043105,11.32322 32.158766,21.979434 L 37.068811,17.246167 C 37.068811,17.246167 37.088388,32 37.088388,32 L 22.160133,31.978069 C 22.160133,31.978069 26.997745,27.140456 26.997745,27.140456 C 18.528582,18.264221 13.291696,25.230495 11.500037,31.436501 z"
     style="fill:#404040;"/>
  </a>
 </g>
</svg>

<style type='text/css'>
<![CDATA[
[data-mouse-over-selected='false'] { opacity: 0.7; }
[data-mouse-over-selected='true']  { opacity: 1.0; }
]]>
</style>
<script type="application/ecmascript"><![CDATA[
document.addEventListener('DOMContentLoaded', (event) => {
  highlightEdges();
  highlightAdjacentNodes();
});
]]></script>
</svg>
