<?xml version="1.0" encoding="UTF-8" standalone="no"?>
<!DOCTYPE svg PUBLIC "-//W3C//DTD SVG 1.1//EN"
 "http://www.w3.org/Graphics/SVG/1.1/DTD/svg11.dtd">
<!-- Generated by graphviz version 12.2.1 (20241206.2353)
 -->
<!-- Title: MultiplayerShooter Pages: 1 -->
<!--zoomable 452 -->

<svg id="main" version="1.1" xmlns="http://www.w3.org/2000/svg" xmlns:xlink="http://www.w3.org/1999/xlink" xml:space="preserve" onload="init(evt)">

<style type="text/css"><![CDATA[
.node, .edge {opacity: 0.7;}
.node.selected, .edge.selected {opacity: 1;}
.edge:hover path { stroke: red; }
.edge:hover polygon { stroke: red; fill: red; }
]]></style>

<defs>
  <circle id="rim" cx="0" cy="0" r="7"/>
  <circle id="rim2" cx="0" cy="0" r="3.5"/>
  <g id="zoomPlus">
    <use xlink:href="#rim" fill="#404040"><set attributeName="fill" to="#808080" begin="zoomplus.mouseover" end="zoomplus.mouseout"/></use>
    <path d="M-4,0h8M0,-4v8" fill="none" stroke="white" stroke-width="1.5" pointer-events="none"/>
  </g>
  <g id="zoomMin">
    <use xlink:href="#rim" fill="#404040"><set attributeName="fill" to="#808080" begin="zoomminus.mouseover" end="zoomminus.mouseout"/></use>
    <path d="M-4,0h8" fill="none" stroke="white" stroke-width="1.5" pointer-events="none"/>
  </g>
  <g id="arrowUp" transform="translate(30 24)">
    <use xlink:href="#rim"/>
    <path pointer-events="none" fill="none" stroke="white" stroke-width="1.5" d="M0,-3.0v7 M-2.5,-0.5L0,-3.0L2.5,-0.5"/>
  </g>
  <g id="arrowRight" transform="rotate(90) translate(36 -43)">
    <use xlink:href="#rim"/>
    <path pointer-events="none" fill="none" stroke="white" stroke-width="1.5" d="M0,-3.0v7 M-2.5,-0.5L0,-3.0L2.5,-0.5"/>
  </g>
  <g id="arrowDown" transform="rotate(180) translate(-30 -48)">
    <use xlink:href="#rim"/>
    <path pointer-events="none" fill="none" stroke="white" stroke-width="1.5" d="M0,-3.0v7 M-2.5,-0.5L0,-3.0L2.5,-0.5"/>
  </g>
  <g id="arrowLeft" transform="rotate(270) translate(-36 17)">
    <use xlink:href="#rim"/>
    <path pointer-events="none" fill="none" stroke="white" stroke-width="1.5" d="M0,-3.0v7 M-2.5,-0.5L0,-3.0L2.5,-0.5"/>
  </g>
  <g id="resetDef">
    <use xlink:href="#rim2" fill="#404040"><set attributeName="fill" to="#808080" begin="reset.mouseover" end="reset.mouseout"/></use>
  </g>
</defs>
<script type="application/ecmascript">
var viewWidth = 348;
var viewHeight = 452;
var sectionId = 'dynsection-0';
</script>
<script type="application/ecmascript" xlink:href="svg.min.js"/>
<svg id="graph" class="graph">
<g id="viewport">
<title>MultiplayerShooter</title>
<g id="clust1" class="cluster">
<title>clusterdir_c02b9718131941f5397e8655a258fcab</title>
<g id="a_clust1"><a xlink:href="dir_c02b9718131941f5397e8655a258fcab.html" target="_top">
<polygon fill="#edf0f7" stroke="#404040" stroke-width="2" points="8,-8 8,-436 332,-436 332,-8 8,-8"/>
</a>
</g>
</g>
<!-- dir_c02b9718131941f5397e8655a258fcab -->
<g id="node1" class="node">
<title>dir_c02b9718131941f5397e8655a258fcab</title>
<text text-anchor="middle" x="69" y="-414.5" font-family="Arial" font-size="10.00">MultiplayerShooter</text>
</g>
<!-- dir_cdab84beb5a7d8a89e1f5451fd8e4a5e -->
<g id="node2" class="node">
<title>dir_cdab84beb5a7d8a89e1f5451fd8e4a5e</title>
<g id="a_node2"><a xlink:href="dir_cdab84beb5a7d8a89e1f5451fd8e4a5e.html" target="_top" xlink:title="ActorComponents">
<polygon fill="#a2b4d6" stroke="#404040" points="234.38,-428 139.62,-428 139.62,-408 234.38,-408 234.38,-428"/>
<text text-anchor="middle" x="187" y="-414.5" font-family="Arial" font-size="10.00">ActorComponents</text>
</a>
</g>
</g>
<!-- dir_59fdbc63ddb31bceb51f8b480d15a072 -->
<g id="node3" class="node">
<title>dir_59fdbc63ddb31bceb51f8b480d15a072</title>
<g id="a_node3"><a xlink:href="dir_59fdbc63ddb31bceb51f8b480d15a072.html" target="_top" xlink:title="BaseWeapon">
<polygon fill="#a2b4d6" stroke="#404040" points="223.88,-372 150.12,-372 150.12,-352 223.88,-352 223.88,-372"/>
<text text-anchor="middle" x="187" y="-358.5" font-family="Arial" font-size="10.00">BaseWeapon</text>
</a>
</g>
</g>
<!-- dir_cdab84beb5a7d8a89e1f5451fd8e4a5e&#45;&gt;dir_59fdbc63ddb31bceb51f8b480d15a072 -->
<g id="edge3" class="edge">
<title>dir_cdab84beb5a7d8a89e1f5451fd8e4a5e&#45;&gt;dir_59fdbc63ddb31bceb51f8b480d15a072</title>
<g id="a_edge3"><a xlink:href="dir_000000_000001.html" target="_top">
<path fill="none" stroke="#63b8ff" d="M181.73,-407.59C180.42,-401.01 179.98,-391.96 180.41,-383.73"/>
<polygon fill="#63b8ff" stroke="#63b8ff" points="183.89,-384.14 181.58,-373.8 176.94,-383.33 183.89,-384.14"/>
</a>
</g>
<g id="a_edge3&#45;headlabel"><a xlink:href="dir_000000_000001.html" target="_top" xlink:title="2">
<text text-anchor="middle" x="186.47" y="-383.04" font-family="Arial" font-size="10.00" fill="#63b8ff">2</text>
</a>
</g>
</g>
<!-- dir_eaacba788c0c3855db8e299b71591489 -->
<g id="node7" class="node">
<title>dir_eaacba788c0c3855db8e299b71591489</title>
<g id="a_node7"><a xlink:href="dir_eaacba788c0c3855db8e299b71591489.html" target="_top" xlink:title="HUD">
<polygon fill="#a2b4d6" stroke="#404040" points="74.25,-92 35.75,-92 35.75,-72 74.25,-72 74.25,-92"/>
<text text-anchor="middle" x="55" y="-78.5" font-family="Arial" font-size="10.00">HUD</text>
</a>
</g>
</g>
<!-- dir_cdab84beb5a7d8a89e1f5451fd8e4a5e&#45;&gt;dir_eaacba788c0c3855db8e299b71591489 -->
<g id="edge4" class="edge">
<title>dir_cdab84beb5a7d8a89e1f5451fd8e4a5e&#45;&gt;dir_eaacba788c0c3855db8e299b71591489</title>
<g id="a_edge4"><a xlink:href="dir_000000_000005.html" target="_top">
<path fill="none" stroke="#63b8ff" d="M139.22,-409.09C86.09,-396.84 8,-367.99 8,-307 8,-307 8,-307 8,-193 8,-159.32 24.12,-122.85 37.84,-101.51"/>
<polygon fill="#63b8ff" stroke="#63b8ff" points="40.54,-103.76 43.44,-93.57 34.82,-99.73 40.54,-103.76"/>
</a>
</g>
<g id="a_edge4&#45;headlabel"><a xlink:href="dir_000000_000005.html" target="_top" xlink:title="4">
<text text-anchor="middle" x="41.66" y="-103.6" font-family="Arial" font-size="10.00" fill="#63b8ff">4</text>
</a>
</g>
</g>
<!-- dir_1e9f088b6463516d710be25f38de4573 -->
<g id="node8" class="node">
<title>dir_1e9f088b6463516d710be25f38de4573</title>
<g id="a_node8"><a xlink:href="dir_1e9f088b6463516d710be25f38de4573.html" target="_top" xlink:title="MainCharacter">
<polygon fill="#a2b4d6" stroke="#404040" points="248.88,-204 169.12,-204 169.12,-184 248.88,-184 248.88,-204"/>
<text text-anchor="middle" x="209" y="-190.5" font-family="Arial" font-size="10.00">MainCharacter</text>
</a>
</g>
</g>
<!-- dir_cdab84beb5a7d8a89e1f5451fd8e4a5e&#45;&gt;dir_1e9f088b6463516d710be25f38de4573 -->
<g id="edge2" class="edge">
<title>dir_cdab84beb5a7d8a89e1f5451fd8e4a5e&#45;&gt;dir_1e9f088b6463516d710be25f38de4573</title>
<g id="a_edge2"><a xlink:href="dir_000000_000006.html" target="_top">
<path fill="none" stroke="#63b8ff" d="M194.35,-407.54C203.6,-399.56 217.68,-387.03 224,-372 246.49,-318.54 223.31,-248.72 212.69,-214.98"/>
<polygon fill="#63b8ff" stroke="#63b8ff" points="216.14,-214.29 209.9,-205.73 209.44,-216.31 216.14,-214.29"/>
</a>
</g>
<g id="a_edge2&#45;headlabel"><a xlink:href="dir_000000_000006.html" target="_top" xlink:title="3">
<text text-anchor="middle" x="219.46" y="-211.96" font-family="Arial" font-size="10.00" fill="#63b8ff">3</text>
</a>
</g>
</g>
<!-- dir_06934410778debb50bad8a2d723e2921 -->
<g id="node11" class="node">
<title>dir_06934410778debb50bad8a2d723e2921</title>
<g id="a_node11"><a xlink:href="dir_06934410778debb50bad8a2d723e2921.html" target="_top" xlink:title="PlayerController">
<polygon fill="#a2b4d6" stroke="#404040" points="173.88,-316 88.12,-316 88.12,-296 173.88,-296 173.88,-316"/>
<text text-anchor="middle" x="131" y="-302.5" font-family="Arial" font-size="10.00">PlayerController</text>
</a>
</g>
</g>
<!-- dir_cdab84beb5a7d8a89e1f5451fd8e4a5e&#45;&gt;dir_06934410778debb50bad8a2d723e2921 -->
<g id="edge1" class="edge">
<title>dir_cdab84beb5a7d8a89e1f5451fd8e4a5e&#45;&gt;dir_06934410778debb50bad8a2d723e2921</title>
<g id="a_edge1"><a xlink:href="dir_000000_000010.html" target="_top">
<path fill="none" stroke="#63b8ff" d="M166.12,-407.58C153.75,-399.45 139.55,-386.71 132,-372 124.96,-358.3 122.57,-340.99 123.19,-327.68"/>
<polygon fill="#63b8ff" stroke="#63b8ff" points="126.64,-328.26 124.46,-317.89 119.7,-327.36 126.64,-328.26"/>
</a>
</g>
<g id="a_edge1&#45;headlabel"><a xlink:href="dir_000000_000010.html" target="_top" xlink:title="1">
<text text-anchor="middle" x="129.19" y="-327.19" font-family="Arial" font-size="10.00" fill="#63b8ff">1</text>
</a>
</g>
</g>
<!-- dir_59fdbc63ddb31bceb51f8b480d15a072&#45;&gt;dir_cdab84beb5a7d8a89e1f5451fd8e4a5e -->
<g id="edge7" class="edge">
<title>dir_59fdbc63ddb31bceb51f8b480d15a072&#45;&gt;dir_cdab84beb5a7d8a89e1f5451fd8e4a5e</title>
<g id="a_edge7"><a xlink:href="dir_000001_000000.html" target="_top">
<path fill="none" stroke="#63b8ff" d="M192.25,-372.3C193.59,-378.93 194.03,-388.11 193.58,-396.43"/>
<polygon fill="#63b8ff" stroke="#63b8ff" points="190.13,-395.75 192.44,-406.09 197.08,-396.57 190.13,-395.75"/>
</a>
</g>
<g id="a_edge7&#45;headlabel"><a xlink:href="dir_000001_000000.html" target="_top" xlink:title="1">
<text text-anchor="middle" x="187.55" y="-389.85" font-family="Arial" font-size="10.00" fill="#63b8ff">1</text>
</a>
</g>
</g>
<!-- dir_59fdbc63ddb31bceb51f8b480d15a072&#45;&gt;dir_1e9f088b6463516d710be25f38de4573 -->
<g id="edge6" class="edge">
<title>dir_59fdbc63ddb31bceb51f8b480d15a072&#45;&gt;dir_1e9f088b6463516d710be25f38de4573</title>
<g id="a_edge6"><a xlink:href="dir_000001_000006.html" target="_top">
<path fill="none" stroke="#63b8ff" d="M183.5,-351.56C182.88,-333.72 189.76,-293.82 194,-260 195.88,-245 197.43,-227.99 199.75,-215.13"/>
<polygon fill="#63b8ff" stroke="#63b8ff" points="203.08,-216.28 201.92,-205.75 196.26,-214.71 203.08,-216.28"/>
</a>
</g>
<g id="a_edge6&#45;headlabel"><a xlink:href="dir_000001_000006.html" target="_top" xlink:title="4">
<text text-anchor="middle" x="205.38" y="-215.45" font-family="Arial" font-size="10.00" fill="#63b8ff">4</text>
</a>
</g>
</g>
<!-- dir_59fdbc63ddb31bceb51f8b480d15a072&#45;&gt;dir_06934410778debb50bad8a2d723e2921 -->
<g id="edge5" class="edge">
<title>dir_59fdbc63ddb31bceb51f8b480d15a072&#45;&gt;dir_06934410778debb50bad8a2d723e2921</title>
<g id="a_edge5"><a xlink:href="dir_000001_000010.html" target="_top">
<path fill="none" stroke="#63b8ff" d="M171.98,-351.59C162.78,-344.16 151.44,-333.58 142.86,-324.58"/>
<polygon fill="#63b8ff" stroke="#63b8ff" points="145.71,-322.51 136.41,-317.42 140.51,-327.19 145.71,-322.51"/>
</a>
</g>
<g id="a_edge5&#45;headlabel"><a xlink:href="dir_000001_000010.html" target="_top" xlink:title="2">
<text text-anchor="middle" x="149.21" y="-318.65" font-family="Arial" font-size="10.00" fill="#63b8ff">2</text>
</a>
</g>
</g>
<!-- dir_18dd65f4df25e7b45add86c00790e4c2 -->
<g id="node4" class="node">
<title>dir_18dd65f4df25e7b45add86c00790e4c2</title>
<g id="a_node4"><a xlink:href="dir_18dd65f4df25e7b45add86c00790e4c2.html" target="_top" xlink:title="Database">
<polygon fill="#a2b4d6" stroke="#404040" points="234,-92 176,-92 176,-72 234,-72 234,-92"/>
<text text-anchor="middle" x="205" y="-78.5" font-family="Arial" font-size="10.00">Database</text>
</a>
</g>
</g>
<!-- dir_cefd025d79cbf022604c265e3101cb6c -->
<g id="node5" class="node">
<title>dir_cefd025d79cbf022604c265e3101cb6c</title>
<g id="a_node5"><a xlink:href="dir_cefd025d79cbf022604c265e3101cb6c.html" target="_top" xlink:title="GameMode">
<polygon fill="#a2b4d6" stroke="#404040" points="204.12,-148 137.88,-148 137.88,-128 204.12,-128 204.12,-148"/>
<text text-anchor="middle" x="171" y="-134.5" font-family="Arial" font-size="10.00">GameMode</text>
</a>
</g>
</g>
<!-- dir_cefd025d79cbf022604c265e3101cb6c&#45;&gt;dir_18dd65f4df25e7b45add86c00790e4c2 -->
<g id="edge9" class="edge">
<title>dir_cefd025d79cbf022604c265e3101cb6c&#45;&gt;dir_18dd65f4df25e7b45add86c00790e4c2</title>
<g id="a_edge9"><a xlink:href="dir_000003_000002.html" target="_top">
<path fill="none" stroke="#63b8ff" d="M176.92,-127.59C181.36,-120.55 187.58,-110.67 193.04,-102"/>
<polygon fill="#63b8ff" stroke="#63b8ff" points="195.97,-103.91 198.34,-93.58 190.05,-100.18 195.97,-103.91"/>
</a>
</g>
<g id="a_edge9&#45;headlabel"><a xlink:href="dir_000003_000002.html" target="_top" xlink:title="1">
<text text-anchor="middle" x="197.27" y="-103.68" font-family="Arial" font-size="10.00" fill="#63b8ff">1</text>
</a>
</g>
</g>
<!-- dir_e117c10730362e694dac0056e64888be -->
<g id="node6" class="node">
<title>dir_e117c10730362e694dac0056e64888be</title>
<g id="a_node6"><a xlink:href="dir_e117c10730362e694dac0056e64888be.html" target="_top" xlink:title="GameState">
<polygon fill="#a2b4d6" stroke="#404040" points="157.75,-92 92.25,-92 92.25,-72 157.75,-72 157.75,-92"/>
<text text-anchor="middle" x="125" y="-78.5" font-family="Arial" font-size="10.00">GameState</text>
</a>
</g>
</g>
<!-- dir_cefd025d79cbf022604c265e3101cb6c&#45;&gt;dir_e117c10730362e694dac0056e64888be -->
<g id="edge13" class="edge">
<title>dir_cefd025d79cbf022604c265e3101cb6c&#45;&gt;dir_e117c10730362e694dac0056e64888be</title>
<g id="a_edge13"><a xlink:href="dir_000003_000004.html" target="_top">
<path fill="none" stroke="#63b8ff" d="M162.99,-127.59C156.72,-120.24 147.83,-109.8 140.22,-100.87"/>
<polygon fill="#63b8ff" stroke="#63b8ff" points="143.05,-98.79 133.9,-93.45 137.72,-103.33 143.05,-98.79"/>
</a>
</g>
<g id="a_edge13&#45;headlabel"><a xlink:href="dir_000003_000004.html" target="_top" xlink:title="1">
<text text-anchor="middle" x="146.56" y="-95.04" font-family="Arial" font-size="10.00" fill="#63b8ff">1</text>
</a>
</g>
</g>
<!-- dir_cefd025d79cbf022604c265e3101cb6c&#45;&gt;dir_eaacba788c0c3855db8e299b71591489 -->
<g id="edge14" class="edge">
<title>dir_cefd025d79cbf022604c265e3101cb6c&#45;&gt;dir_eaacba788c0c3855db8e299b71591489</title>
<g id="a_edge14"><a xlink:href="dir_000003_000005.html" target="_top">
<path fill="none" stroke="#63b8ff" d="M150.79,-127.59C132.55,-119.1 105.48,-106.5 84.76,-96.85"/>
<polygon fill="#63b8ff" stroke="#63b8ff" points="86.5,-93.8 75.96,-92.76 83.55,-100.15 86.5,-93.8"/>
</a>
</g>
<g id="a_edge14&#45;headlabel"><a xlink:href="dir_000003_000005.html" target="_top" xlink:title="1">
<text text-anchor="middle" x="89.59" y="-88.61" font-family="Arial" font-size="10.00" fill="#63b8ff">1</text>
</a>
</g>
</g>
<!-- dir_cefd025d79cbf022604c265e3101cb6c&#45;&gt;dir_1e9f088b6463516d710be25f38de4573 -->
<g id="edge10" class="edge">
<title>dir_cefd025d79cbf022604c265e3101cb6c&#45;&gt;dir_1e9f088b6463516d710be25f38de4573</title>
<g id="a_edge10"><a xlink:href="dir_000003_000006.html" target="_top">
<path fill="none" stroke="#63b8ff" d="M182.79,-148.3C189.15,-155.32 196.51,-165.19 202.02,-173.87"/>
<polygon fill="#63b8ff" stroke="#63b8ff" points="198.86,-175.38 206.89,-182.28 204.92,-171.87 198.86,-175.38"/>
</a>
</g>
<g id="a_edge10&#45;headlabel"><a xlink:href="dir_000003_000006.html" target="_top" xlink:title="1">
<text text-anchor="middle" x="195.36" y="-171.5" font-family="Arial" font-size="10.00" fill="#63b8ff">1</text>
</a>
</g>
</g>
<!-- dir_da0c534f0486bcd9c68b8aa51e19130b -->
<g id="node10" class="node">
<title>dir_da0c534f0486bcd9c68b8aa51e19130b</title>
<g id="a_node10"><a xlink:href="dir_da0c534f0486bcd9c68b8aa51e19130b.html" target="_top" xlink:title="Pickups">
<polygon fill="#a2b4d6" stroke="#404040" points="303.62,-92 252.38,-92 252.38,-72 303.62,-72 303.62,-92"/>
<text text-anchor="middle" x="278" y="-78.5" font-family="Arial" font-size="10.00">Pickups</text>
</a>
</g>
</g>
<!-- dir_cefd025d79cbf022604c265e3101cb6c&#45;&gt;dir_da0c534f0486bcd9c68b8aa51e19130b -->
<g id="edge12" class="edge">
<title>dir_cefd025d79cbf022604c265e3101cb6c&#45;&gt;dir_da0c534f0486bcd9c68b8aa51e19130b</title>
<g id="a_edge12"><a xlink:href="dir_000003_000009.html" target="_top">
<path fill="none" stroke="#63b8ff" d="M184.37,-127.59C199.24,-119.24 223.41,-106.92 243.55,-97.34"/>
<polygon fill="#63b8ff" stroke="#63b8ff" points="244.99,-100.53 252.56,-93.12 242.02,-94.19 244.99,-100.53"/>
</a>
</g>
<g id="a_edge12&#45;headlabel"><a xlink:href="dir_000003_000009.html" target="_top" xlink:title="1">
<text text-anchor="middle" x="244.31" y="-100.48" font-family="Arial" font-size="10.00" fill="#63b8ff">1</text>
</a>
</g>
</g>
<!-- dir_cefd025d79cbf022604c265e3101cb6c&#45;&gt;dir_06934410778debb50bad8a2d723e2921 -->
<g id="edge8" class="edge">
<title>dir_cefd025d79cbf022604c265e3101cb6c&#45;&gt;dir_06934410778debb50bad8a2d723e2921</title>
<g id="a_edge8"><a xlink:href="dir_000003_000010.html" target="_top">
<path fill="none" stroke="#63b8ff" d="M167.9,-148.42C156.97,-165.29 127.75,-202.45 117,-240 112.56,-255.51 119.17,-272.7 125.11,-285.5"/>
<polygon fill="#63b8ff" stroke="#63b8ff" points="121.93,-286.97 129.39,-294.49 128.25,-283.96 121.93,-286.97"/>
</a>
</g>
<g id="a_edge8&#45;headlabel"><a xlink:href="dir_000003_000010.html" target="_top" xlink:title="2">
<text text-anchor="middle" x="118.47" y="-282.81" font-family="Arial" font-size="10.00" fill="#63b8ff">2</text>
</a>
</g>
</g>
<!-- dir_ced7704969fcc53a65b8b968b669f96b -->
<g id="node12" class="node">
<title>dir_ced7704969fcc53a65b8b968b669f96b</title>
<g id="a_node12"><a xlink:href="dir_ced7704969fcc53a65b8b968b669f96b.html" target="_top" xlink:title="PlayerState">
<polygon fill="#a2b4d6" stroke="#404040" points="183.5,-260 116.5,-260 116.5,-240 183.5,-240 183.5,-260"/>
<text text-anchor="middle" x="150" y="-246.5" font-family="Arial" font-size="10.00">PlayerState</text>
</a>
</g>
</g>
<!-- dir_cefd025d79cbf022604c265e3101cb6c&#45;&gt;dir_ced7704969fcc53a65b8b968b669f96b -->
<g id="edge11" class="edge">
<title>dir_cefd025d79cbf022604c265e3101cb6c&#45;&gt;dir_ced7704969fcc53a65b8b968b669f96b</title>
<g id="a_edge11"><a xlink:href="dir_000003_000011.html" target="_top">
<path fill="none" stroke="#63b8ff" d="M168.49,-148.26C166.09,-157.32 162.48,-171.54 160,-184 157.06,-198.78 154.5,-215.6 152.7,-228.43"/>
<polygon fill="#63b8ff" stroke="#63b8ff" points="149.25,-227.82 151.37,-238.2 156.18,-228.76 149.25,-227.82"/>
</a>
</g>
<g id="a_edge11&#45;headlabel"><a xlink:href="dir_000003_000011.html" target="_top" xlink:title="1">
<text text-anchor="middle" x="146.71" y="-221.88" font-family="Arial" font-size="10.00" fill="#63b8ff">1</text>
</a>
</g>
</g>
<!-- dir_e117c10730362e694dac0056e64888be&#45;&gt;dir_ced7704969fcc53a65b8b968b669f96b -->
<g id="edge15" class="edge">
<title>dir_e117c10730362e694dac0056e64888be&#45;&gt;dir_ced7704969fcc53a65b8b968b669f96b</title>
<g id="a_edge15"><a xlink:href="dir_000004_000011.html" target="_top">
<path fill="none" stroke="#63b8ff" d="M125.15,-92.3C125.46,-104.95 126.36,-128.28 129,-148 132.78,-176.22 139.97,-208.35 144.87,-228.64"/>
<polygon fill="#63b8ff" stroke="#63b8ff" points="141.42,-229.27 147.21,-238.14 148.21,-227.59 141.42,-229.27"/>
</a>
</g>
<g id="a_edge15&#45;headlabel"><a xlink:href="dir_000004_000011.html" target="_top" xlink:title="1">
<text text-anchor="middle" x="138.16" y="-224.43" font-family="Arial" font-size="10.00" fill="#63b8ff">1</text>
</a>
</g>
</g>
<!-- dir_eaacba788c0c3855db8e299b71591489&#45;&gt;dir_cdab84beb5a7d8a89e1f5451fd8e4a5e -->
<g id="edge19" class="edge">
<title>dir_eaacba788c0c3855db8e299b71591489&#45;&gt;dir_cdab84beb5a7d8a89e1f5451fd8e4a5e</title>
<g id="a_edge19"><a xlink:href="dir_000005_000000.html" target="_top">
<path fill="none" stroke="#63b8ff" d="M54.48,-92.33C47.82,-110.84 26,-153.8 26,-193 26,-307 26,-307 26,-307 26,-361.19 87.63,-390 134.71,-404.35"/>
<polygon fill="#63b8ff" stroke="#63b8ff" points="133.68,-407.7 144.26,-407.11 135.63,-400.97 133.68,-407.7"/>
</a>
</g>
<g id="a_edge19&#45;headlabel"><a xlink:href="dir_000005_000000.html" target="_top" xlink:title="1">
<text text-anchor="middle" x="130.9" y="-406.35" font-family="Arial" font-size="10.00" fill="#63b8ff">1</text>
</a>
</g>
</g>
<!-- dir_eaacba788c0c3855db8e299b71591489&#45;&gt;dir_1e9f088b6463516d710be25f38de4573 -->
<g id="edge17" class="edge">
<title>dir_eaacba788c0c3855db8e299b71591489&#45;&gt;dir_1e9f088b6463516d710be25f38de4573</title>
<g id="a_edge17"><a xlink:href="dir_000005_000006.html" target="_top">
<path fill="none" stroke="#63b8ff" d="M70.2,-92.3C86.8,-105.57 113.03,-130.3 138,-148 153.8,-159.2 172.62,-169.9 187.08,-178.06"/>
<polygon fill="#63b8ff" stroke="#63b8ff" points="184.98,-180.9 195.41,-182.78 188.43,-174.8 184.98,-180.9"/>
</a>
</g>
<g id="a_edge17&#45;headlabel"><a xlink:href="dir_000005_000006.html" target="_top" xlink:title="1">
<text text-anchor="middle" x="181.77" y="-178.84" font-family="Arial" font-size="10.00" fill="#63b8ff">1</text>
</a>
</g>
</g>
<!-- dir_a3ef6ce5e7c12fe10fd31b1b6068eb39 -->
<g id="node9" class="node">
<title>dir_a3ef6ce5e7c12fe10fd31b1b6068eb39</title>
<g id="a_node9"><a xlink:href="dir_a3ef6ce5e7c12fe10fd31b1b6068eb39.html" target="_top" xlink:title="Persistence">
<polygon fill="#a2b4d6" stroke="#404040" points="88.88,-36 21.12,-36 21.12,-16 88.88,-16 88.88,-36"/>
<text text-anchor="middle" x="55" y="-22.5" font-family="Arial" font-size="10.00">Persistence</text>
</a>
</g>
</g>
<!-- dir_eaacba788c0c3855db8e299b71591489&#45;&gt;dir_a3ef6ce5e7c12fe10fd31b1b6068eb39 -->
<g id="edge18" class="edge">
<title>dir_eaacba788c0c3855db8e299b71591489&#45;&gt;dir_a3ef6ce5e7c12fe10fd31b1b6068eb39</title>
<g id="a_edge18"><a xlink:href="dir_000005_000008.html" target="_top">
<path fill="none" stroke="#63b8ff" d="M55,-71.59C55,-65.01 55,-55.96 55,-47.73"/>
<polygon fill="#63b8ff" stroke="#63b8ff" points="58.5,-47.81 55,-37.81 51.5,-47.81 58.5,-47.81"/>
</a>
</g>
<g id="a_edge18&#45;headlabel"><a xlink:href="dir_000005_000008.html" target="_top" xlink:title="1">
<text text-anchor="middle" x="61.34" y="-46.39" font-family="Arial" font-size="10.00" fill="#63b8ff">1</text>
</a>
</g>
</g>
<!-- dir_eaacba788c0c3855db8e299b71591489&#45;&gt;dir_06934410778debb50bad8a2d723e2921 -->
<g id="edge16" class="edge">
<title>dir_eaacba788c0c3855db8e299b71591489&#45;&gt;dir_06934410778debb50bad8a2d723e2921</title>
<g id="a_edge16"><a xlink:href="dir_000005_000010.html" target="_top">
<path fill="none" stroke="#63b8ff" d="M59.66,-92.32C66.77,-119.47 75.31,-200.38 104,-260 108.58,-269.53 115.52,-278.86 121.45,-286.53"/>
<polygon fill="#63b8ff" stroke="#63b8ff" points="118.59,-288.55 127.46,-294.34 124.13,-284.28 118.59,-288.55"/>
</a>
</g>
<g id="a_edge16&#45;headlabel"><a xlink:href="dir_000005_000010.html" target="_top" xlink:title="2">
<text text-anchor="middle" x="115.07" y="-285.13" font-family="Arial" font-size="10.00" fill="#63b8ff">2</text>
</a>
</g>
</g>
<!-- dir_1e9f088b6463516d710be25f38de4573&#45;&gt;dir_cdab84beb5a7d8a89e1f5451fd8e4a5e -->
<g id="edge23" class="edge">
<title>dir_1e9f088b6463516d710be25f38de4573&#45;&gt;dir_cdab84beb5a7d8a89e1f5451fd8e4a5e</title>
<g id="a_edge23"><a xlink:href="dir_000006_000000.html" target="_top">
<path fill="none" stroke="#63b8ff" d="M217.52,-204.28C234.92,-231.32 267.25,-311.97 242,-372 237.21,-383.39 227.96,-393.34 218.29,-400.97"/>
<polygon fill="#63b8ff" stroke="#63b8ff" points="216.38,-398.03 210.24,-406.67 220.43,-403.75 216.38,-398.03"/>
</a>
</g>
<g id="a_edge23&#45;headlabel"><a xlink:href="dir_000006_000000.html" target="_top" xlink:title="6">
<text text-anchor="middle" x="216.44" y="-391.01" font-family="Arial" font-size="10.00" fill="#63b8ff">6</text>
</a>
</g>
</g>
<!-- dir_1e9f088b6463516d710be25f38de4573&#45;&gt;dir_59fdbc63ddb31bceb51f8b480d15a072 -->
<g id="edge21" class="edge">
<title>dir_1e9f088b6463516d710be25f38de4573&#45;&gt;dir_59fdbc63ddb31bceb51f8b480d15a072</title>
<g id="a_edge21"><a xlink:href="dir_000006_000001.html" target="_top">
<path fill="none" stroke="#63b8ff" d="M214.41,-204.28C216.38,-216.91 214.48,-240.21 212,-260 208.48,-288.14 203.12,-320.49 197.4,-340.84"/>
<polygon fill="#63b8ff" stroke="#63b8ff" points="194.15,-339.53 194.38,-350.12 200.8,-341.7 194.15,-339.53"/>
</a>
</g>
<g id="a_edge21&#45;headlabel"><a xlink:href="dir_000006_000001.html" target="_top" xlink:title="2">
<text text-anchor="middle" x="192.09" y="-333.17" font-family="Arial" font-size="10.00" fill="#63b8ff">2</text>
</a>
</g>
</g>
<!-- dir_1e9f088b6463516d710be25f38de4573&#45;&gt;dir_cefd025d79cbf022604c265e3101cb6c -->
<g id="edge25" class="edge">
<title>dir_1e9f088b6463516d710be25f38de4573&#45;&gt;dir_cefd025d79cbf022604c265e3101cb6c</title>
<g id="a_edge25"><a xlink:href="dir_000006_000003.html" target="_top">
<path fill="none" stroke="#63b8ff" d="M197.11,-183.59C190.74,-176.55 183.39,-166.67 177.89,-158"/>
<polygon fill="#63b8ff" stroke="#63b8ff" points="181.08,-156.53 173.05,-149.61 175.02,-160.02 181.08,-156.53"/>
</a>
</g>
<g id="a_edge25&#45;headlabel"><a xlink:href="dir_000006_000003.html" target="_top" xlink:title="1">
<text text-anchor="middle" x="184.58" y="-153.41" font-family="Arial" font-size="10.00" fill="#63b8ff">1</text>
</a>
</g>
</g>
<!-- dir_1e9f088b6463516d710be25f38de4573&#45;&gt;dir_eaacba788c0c3855db8e299b71591489 -->
<g id="edge26" class="edge">
<title>dir_1e9f088b6463516d710be25f38de4573&#45;&gt;dir_eaacba788c0c3855db8e299b71591489</title>
<g id="a_edge26"><a xlink:href="dir_000006_000005.html" target="_top">
<path fill="none" stroke="#63b8ff" d="M182.42,-183.52C163.94,-175.07 139.63,-161.91 120,-148 99.6,-133.54 78.35,-114.39 65.57,-100.62"/>
<polygon fill="#63b8ff" stroke="#63b8ff" points="68.36,-98.5 59.17,-93.22 63.06,-103.08 68.36,-98.5"/>
</a>
</g>
<g id="a_edge26&#45;headlabel"><a xlink:href="dir_000006_000005.html" target="_top" xlink:title="1">
<text text-anchor="middle" x="71.87" y="-94.72" font-family="Arial" font-size="10.00" fill="#63b8ff">1</text>
</a>
</g>
</g>
<!-- dir_1e9f088b6463516d710be25f38de4573&#45;&gt;dir_a3ef6ce5e7c12fe10fd31b1b6068eb39 -->
<g id="edge22" class="edge">
<title>dir_1e9f088b6463516d710be25f38de4573&#45;&gt;dir_a3ef6ce5e7c12fe10fd31b1b6068eb39</title>
<g id="a_edge22"><a xlink:href="dir_000006_000008.html" target="_top">
<path fill="none" stroke="#63b8ff" d="M228.03,-183.65C266.78,-163.41 348.29,-113.98 313,-72 286.36,-40.32 167.12,-30.94 100.46,-28.16"/>
<polygon fill="#63b8ff" stroke="#63b8ff" points="100.69,-24.67 90.57,-27.79 100.43,-31.67 100.69,-24.67"/>
</a>
</g>
<g id="a_edge22&#45;headlabel"><a xlink:href="dir_000006_000008.html" target="_top" xlink:title="1">
<text text-anchor="middle" x="102.88" y="-18.41" font-family="Arial" font-size="10.00" fill="#63b8ff">1</text>
</a>
</g>
</g>
<!-- dir_1e9f088b6463516d710be25f38de4573&#45;&gt;dir_06934410778debb50bad8a2d723e2921 -->
<g id="edge20" class="edge">
<title>dir_1e9f088b6463516d710be25f38de4573&#45;&gt;dir_06934410778debb50bad8a2d723e2921</title>
<g id="a_edge20"><a xlink:href="dir_000006_000010.html" target="_top">
<path fill="none" stroke="#63b8ff" d="M214.57,-204.2C216.84,-217.56 213.68,-242.64 202,-260 193.62,-272.45 180.59,-282.67 167.85,-290.2"/>
<polygon fill="#63b8ff" stroke="#63b8ff" points="166.25,-287.09 159.13,-294.94 169.59,-293.24 166.25,-287.09"/>
</a>
</g>
<g id="a_edge20&#45;headlabel"><a xlink:href="dir_000006_000010.html" target="_top" xlink:title="1">
<text text-anchor="middle" x="166.72" y="-280.1" font-family="Arial" font-size="10.00" fill="#63b8ff">1</text>
</a>
</g>
</g>
<!-- dir_1e9f088b6463516d710be25f38de4573&#45;&gt;dir_ced7704969fcc53a65b8b968b669f96b -->
<g id="edge24" class="edge">
<title>dir_1e9f088b6463516d710be25f38de4573&#45;&gt;dir_ced7704969fcc53a65b8b968b669f96b</title>
<g id="a_edge24"><a xlink:href="dir_000006_000011.html" target="_top">
<path fill="none" stroke="#63b8ff" d="M204.09,-204.3C197.22,-212.01 185.38,-223.17 174.42,-232.4"/>
<polygon fill="#63b8ff" stroke="#63b8ff" points="172.29,-229.63 166.72,-238.64 176.69,-235.06 172.29,-229.63"/>
</a>
</g>
<g id="a_edge24&#45;headlabel"><a xlink:href="dir_000006_000011.html" target="_top" xlink:title="1">
<text text-anchor="middle" x="172.11" y="-222.61" font-family="Arial" font-size="10.00" fill="#63b8ff">1</text>
</a>
</g>
</g>
<!-- dir_ed555c3d153aba9b9b4a1fc4b7622da7 -->
<g id="node14" class="node">
<title>dir_ed555c3d153aba9b9b4a1fc4b7622da7</title>
<g id="a_node14"><a xlink:href="dir_ed555c3d153aba9b9b4a1fc4b7622da7.html" target="_top" xlink:title="Types">
<polygon fill="#a2b4d6" stroke="#404040" points="264.12,-148 221.88,-148 221.88,-128 264.12,-128 264.12,-148"/>
<text text-anchor="middle" x="243" y="-134.5" font-family="Arial" font-size="10.00">Types</text>
</a>
</g>
</g>
<!-- dir_1e9f088b6463516d710be25f38de4573&#45;&gt;dir_ed555c3d153aba9b9b4a1fc4b7622da7 -->
<g id="edge27" class="edge">
<title>dir_1e9f088b6463516d710be25f38de4573&#45;&gt;dir_ed555c3d153aba9b9b4a1fc4b7622da7</title>
<g id="a_edge27"><a xlink:href="dir_000006_000014.html" target="_top">
<path fill="none" stroke="#63b8ff" d="M214.92,-183.59C219.36,-176.55 225.58,-166.67 231.04,-158"/>
<polygon fill="#63b8ff" stroke="#63b8ff" points="233.97,-159.91 236.34,-149.58 228.05,-156.18 233.97,-159.91"/>
</a>
</g>
<g id="a_edge27&#45;headlabel"><a xlink:href="dir_000006_000014.html" target="_top" xlink:title="2">
<text text-anchor="middle" x="235.27" y="-159.68" font-family="Arial" font-size="10.00" fill="#63b8ff">2</text>
</a>
</g>
</g>
<!-- dir_da0c534f0486bcd9c68b8aa51e19130b&#45;&gt;dir_cdab84beb5a7d8a89e1f5451fd8e4a5e -->
<g id="edge29" class="edge">
<title>dir_da0c534f0486bcd9c68b8aa51e19130b&#45;&gt;dir_cdab84beb5a7d8a89e1f5451fd8e4a5e</title>
<g id="a_edge29"><a xlink:href="dir_000009_000000.html" target="_top">
<path fill="none" stroke="#63b8ff" d="M284.83,-92.47C297.42,-110.88 323,-153.18 323,-193 323,-307 323,-307 323,-307 323,-356.38 268.14,-387.4 228.11,-403.47"/>
<polygon fill="#63b8ff" stroke="#63b8ff" points="227.03,-400.14 218.93,-406.98 229.53,-406.68 227.03,-400.14"/>
</a>
</g>
<g id="a_edge29&#45;headlabel"><a xlink:href="dir_000009_000000.html" target="_top" xlink:title="1">
<text text-anchor="middle" x="227.96" y="-393.24" font-family="Arial" font-size="10.00" fill="#63b8ff">1</text>
</a>
</g>
</g>
<!-- dir_da0c534f0486bcd9c68b8aa51e19130b&#45;&gt;dir_cefd025d79cbf022604c265e3101cb6c -->
<g id="edge30" class="edge">
<title>dir_da0c534f0486bcd9c68b8aa51e19130b&#45;&gt;dir_cefd025d79cbf022604c265e3101cb6c</title>
<g id="a_edge30"><a xlink:href="dir_000009_000003.html" target="_top">
<path fill="none" stroke="#63b8ff" d="M264.5,-92.48C249.57,-100.85 225.39,-113.18 205.28,-122.75"/>
<polygon fill="#63b8ff" stroke="#63b8ff" points="203.85,-119.55 196.28,-126.95 206.82,-125.89 203.85,-119.55"/>
</a>
</g>
<g id="a_edge30&#45;headlabel"><a xlink:href="dir_000009_000003.html" target="_top" xlink:title="1">
<text text-anchor="middle" x="204.54" y="-112.59" font-family="Arial" font-size="10.00" fill="#63b8ff">1</text>
</a>
</g>
</g>
<!-- dir_da0c534f0486bcd9c68b8aa51e19130b&#45;&gt;dir_1e9f088b6463516d710be25f38de4573 -->
<g id="edge28" class="edge">
<title>dir_da0c534f0486bcd9c68b8aa51e19130b&#45;&gt;dir_1e9f088b6463516d710be25f38de4573</title>
<g id="a_edge28"><a xlink:href="dir_000009_000006.html" target="_top">
<path fill="none" stroke="#63b8ff" d="M279.6,-92.1C281.45,-105.35 283.08,-130.29 273,-148 265.76,-160.73 253.26,-170.72 241.23,-178.02"/>
<polygon fill="#63b8ff" stroke="#63b8ff" points="239.71,-174.86 232.67,-182.78 243.11,-180.97 239.71,-174.86"/>
</a>
</g>
<g id="a_edge28&#45;headlabel"><a xlink:href="dir_000009_000006.html" target="_top" xlink:title="3">
<text text-anchor="middle" x="240.14" y="-167.86" font-family="Arial" font-size="10.00" fill="#63b8ff">3</text>
</a>
</g>
</g>
<!-- dir_06934410778debb50bad8a2d723e2921&#45;&gt;dir_cdab84beb5a7d8a89e1f5451fd8e4a5e -->
<g id="edge34" class="edge">
<title>dir_06934410778debb50bad8a2d723e2921&#45;&gt;dir_cdab84beb5a7d8a89e1f5451fd8e4a5e</title>
<g id="a_edge34"><a xlink:href="dir_000010_000000.html" target="_top">
<path fill="none" stroke="#63b8ff" d="M136.61,-316.39C139.51,-329.56 140.71,-353.92 150,-372 155.49,-382.69 164.48,-392.33 172.4,-399.93"/>
<polygon fill="#63b8ff" stroke="#63b8ff" points="169.82,-402.31 179.53,-406.55 174.59,-397.18 169.82,-402.31"/>
</a>
</g>
<g id="a_edge34&#45;headlabel"><a xlink:href="dir_000010_000000.html" target="_top" xlink:title="1">
<text text-anchor="middle" x="166.37" y="-399.48" font-family="Arial" font-size="10.00" fill="#63b8ff">1</text>
</a>
</g>
</g>
<!-- dir_06934410778debb50bad8a2d723e2921&#45;&gt;dir_59fdbc63ddb31bceb51f8b480d15a072 -->
<g id="edge32" class="edge">
<title>dir_06934410778debb50bad8a2d723e2921&#45;&gt;dir_59fdbc63ddb31bceb51f8b480d15a072</title>
<g id="a_edge32"><a xlink:href="dir_000010_000001.html" target="_top">
<path fill="none" stroke="#63b8ff" d="M145.89,-316.3C155.06,-323.7 166.41,-334.28 175.01,-343.29"/>
<polygon fill="#63b8ff" stroke="#63b8ff" points="172.2,-345.39 181.5,-350.47 177.39,-340.7 172.2,-345.39"/>
</a>
</g>
<g id="a_edge32&#45;headlabel"><a xlink:href="dir_000010_000001.html" target="_top" xlink:title="1">
<text text-anchor="middle" x="168.7" y="-342.25" font-family="Arial" font-size="10.00" fill="#63b8ff">1</text>
</a>
</g>
</g>
<!-- dir_06934410778debb50bad8a2d723e2921&#45;&gt;dir_cefd025d79cbf022604c265e3101cb6c -->
<g id="edge36" class="edge">
<title>dir_06934410778debb50bad8a2d723e2921&#45;&gt;dir_cefd025d79cbf022604c265e3101cb6c</title>
<g id="a_edge36"><a xlink:href="dir_000010_000003.html" target="_top">
<path fill="none" stroke="#63b8ff" d="M117.89,-295.86C106.25,-283.38 93.2,-260.25 99,-240 108.28,-207.58 131.32,-175.46 149.14,-156.43"/>
<polygon fill="#63b8ff" stroke="#63b8ff" points="151.48,-159.04 156.07,-149.49 146.53,-154.09 151.48,-159.04"/>
</a>
</g>
<g id="a_edge36&#45;headlabel"><a xlink:href="dir_000010_000003.html" target="_top" xlink:title="2">
<text text-anchor="middle" x="152.02" y="-159.02" font-family="Arial" font-size="10.00" fill="#63b8ff">2</text>
</a>
</g>
</g>
<!-- dir_06934410778debb50bad8a2d723e2921&#45;&gt;dir_e117c10730362e694dac0056e64888be -->
<g id="edge37" class="edge">
<title>dir_06934410778debb50bad8a2d723e2921&#45;&gt;dir_e117c10730362e694dac0056e64888be</title>
<g id="a_edge37"><a xlink:href="dir_000010_000004.html" target="_top">
<path fill="none" stroke="#63b8ff" d="M123.06,-295.75C116.23,-287.14 106.89,-273.62 103,-260 87.17,-204.58 105.99,-136.17 117.44,-102.97"/>
<polygon fill="#63b8ff" stroke="#63b8ff" points="120.63,-104.43 120.74,-93.84 114.05,-102.06 120.63,-104.43"/>
</a>
</g>
<g id="a_edge37&#45;headlabel"><a xlink:href="dir_000010_000004.html" target="_top" xlink:title="1">
<text text-anchor="middle" x="122.6" y="-103.85" font-family="Arial" font-size="10.00" fill="#63b8ff">1</text>
</a>
</g>
</g>
<!-- dir_06934410778debb50bad8a2d723e2921&#45;&gt;dir_eaacba788c0c3855db8e299b71591489 -->
<g id="edge38" class="edge">
<title>dir_06934410778debb50bad8a2d723e2921&#45;&gt;dir_eaacba788c0c3855db8e299b71591489</title>
<g id="a_edge38"><a xlink:href="dir_000010_000005.html" target="_top">
<path fill="none" stroke="#63b8ff" d="M114.15,-295.54C104.05,-287 92.59,-273.7 86,-260 60.56,-207.14 50.97,-137.53 51.09,-103.5"/>
<polygon fill="#63b8ff" stroke="#63b8ff" points="54.57,-103.98 51.53,-93.83 47.58,-103.66 54.57,-103.98"/>
</a>
</g>
<g id="a_edge38&#45;headlabel"><a xlink:href="dir_000010_000005.html" target="_top" xlink:title="6">
<text text-anchor="middle" x="57.31" y="-102.69" font-family="Arial" font-size="10.00" fill="#63b8ff">6</text>
</a>
</g>
</g>
<!-- dir_06934410778debb50bad8a2d723e2921&#45;&gt;dir_1e9f088b6463516d710be25f38de4573 -->
<g id="edge31" class="edge">
<title>dir_06934410778debb50bad8a2d723e2921&#45;&gt;dir_1e9f088b6463516d710be25f38de4573</title>
<g id="a_edge31"><a xlink:href="dir_000010_000006.html" target="_top">
<path fill="none" stroke="#63b8ff" d="M142.94,-295.66C155.28,-287.97 173.38,-275.78 184,-260 192.94,-246.71 196.89,-228.89 200.04,-215.27"/>
<polygon fill="#63b8ff" stroke="#63b8ff" points="203.41,-216.21 202.45,-205.66 196.62,-214.51 203.41,-216.21"/>
</a>
</g>
<g id="a_edge31&#45;headlabel"><a xlink:href="dir_000010_000006.html" target="_top" xlink:title="1">
<text text-anchor="middle" x="205.66" y="-215.43" font-family="Arial" font-size="10.00" fill="#63b8ff">1</text>
</a>
</g>
</g>
<!-- dir_06934410778debb50bad8a2d723e2921&#45;&gt;dir_a3ef6ce5e7c12fe10fd31b1b6068eb39 -->
<g id="edge33" class="edge">
<title>dir_06934410778debb50bad8a2d723e2921&#45;&gt;dir_a3ef6ce5e7c12fe10fd31b1b6068eb39</title>
<g id="a_edge33"><a xlink:href="dir_000010_000008.html" target="_top">
<path fill="none" stroke="#63b8ff" d="M117.88,-295.66C107.13,-287.4 92.24,-274.43 83,-260 40.55,-193.72 39.61,-169.69 27,-92 25.58,-83.23 24.56,-80.55 27,-72 29.71,-62.53 35.05,-53.11 40.35,-45.35"/>
<polygon fill="#63b8ff" stroke="#63b8ff" points="43.04,-47.59 46.16,-37.47 37.41,-43.44 43.04,-47.59"/>
</a>
</g>
<g id="a_edge33&#45;headlabel"><a xlink:href="dir_000010_000008.html" target="_top" xlink:title="1">
<text text-anchor="middle" x="44.09" y="-47.45" font-family="Arial" font-size="10.00" fill="#63b8ff">1</text>
</a>
</g>
</g>
<!-- dir_06934410778debb50bad8a2d723e2921&#45;&gt;dir_ced7704969fcc53a65b8b968b669f96b -->
<g id="edge35" class="edge">
<title>dir_06934410778debb50bad8a2d723e2921&#45;&gt;dir_ced7704969fcc53a65b8b968b669f96b</title>
<g id="a_edge35"><a xlink:href="dir_000010_000011.html" target="_top">
<path fill="none" stroke="#63b8ff" d="M129.04,-295.59C130.09,-288.7 133.05,-279.1 136.6,-270.57"/>
<polygon fill="#63b8ff" stroke="#63b8ff" points="139.7,-272.2 140.83,-261.67 133.38,-269.19 139.7,-272.2"/>
</a>
</g>
<g id="a_edge35&#45;headlabel"><a xlink:href="dir_000010_000011.html" target="_top" xlink:title="1">
<text text-anchor="middle" x="141.37" y="-271.8" font-family="Arial" font-size="10.00" fill="#63b8ff">1</text>
</a>
</g>
</g>
<!-- dir_ced7704969fcc53a65b8b968b669f96b&#45;&gt;dir_1e9f088b6463516d710be25f38de4573 -->
<g id="edge40" class="edge">
<title>dir_ced7704969fcc53a65b8b968b669f96b&#45;&gt;dir_1e9f088b6463516d710be25f38de4573</title>
<g id="a_edge40"><a xlink:href="dir_000011_000006.html" target="_top">
<path fill="none" stroke="#63b8ff" d="M155.01,-239.59C161.92,-231.85 173.78,-220.69 184.74,-211.47"/>
<polygon fill="#63b8ff" stroke="#63b8ff" points="186.85,-214.26 192.42,-205.25 182.44,-208.82 186.85,-214.26"/>
</a>
</g>
<g id="a_edge40&#45;headlabel"><a xlink:href="dir_000011_000006.html" target="_top" xlink:title="1">
<text text-anchor="middle" x="187.02" y="-214.28" font-family="Arial" font-size="10.00" fill="#63b8ff">1</text>
</a>
</g>
</g>
<!-- dir_ced7704969fcc53a65b8b968b669f96b&#45;&gt;dir_06934410778debb50bad8a2d723e2921 -->
<g id="edge39" class="edge">
<title>dir_ced7704969fcc53a65b8b968b669f96b&#45;&gt;dir_06934410778debb50bad8a2d723e2921</title>
<g id="a_edge39"><a xlink:href="dir_000011_000010.html" target="_top">
<path fill="none" stroke="#63b8ff" d="M151.97,-260.3C150.95,-267.16 148,-276.75 144.46,-285.29"/>
<polygon fill="#63b8ff" stroke="#63b8ff" points="141.35,-283.69 140.22,-294.23 147.67,-286.69 141.35,-283.69"/>
</a>
</g>
<g id="a_edge39&#45;headlabel"><a xlink:href="dir_000011_000010.html" target="_top" xlink:title="1">
<text text-anchor="middle" x="139.67" y="-277.09" font-family="Arial" font-size="10.00" fill="#63b8ff">1</text>
</a>
</g>
</g>
<!-- dir_9a4cdbabb612ad4752f10a24e85f35e3 -->
<g id="node13" class="node">
<title>dir_9a4cdbabb612ad4752f10a24e85f35e3</title>
<g id="a_node13"><a xlink:href="dir_9a4cdbabb612ad4752f10a24e85f35e3.html" target="_top" xlink:title="Tests">
<polygon fill="#a2b4d6" stroke="#404040" points="308,-428 268,-428 268,-408 308,-408 308,-428"/>
<text text-anchor="middle" x="288" y="-414.5" font-family="Arial" font-size="10.00">Tests</text>
</a>
</g>
</g>
</g>
</svg>

<g id="navigator" transform="translate(0 0)" fill="#404254">
  <rect fill="#f2f5e9" fill-opacity="0.5" stroke="#606060" stroke-width=".5" x="0" y="0" width="60" height="60"/>
  <use id="zoomplus" xlink:href="#zoomPlus" x="17" y="9" onmousedown="handleZoom(evt,'in')"/>
  <use id="zoomminus" xlink:href="#zoomMin" x="42" y="9" onmousedown="handleZoom(evt,'out')"/>
  <use id="reset" xlink:href="#resetDef" x="30" y="36" onmousedown="handleReset()"/>
   <use id="arrowup" xlink:href="#arrowUp" x="0" y="0" onmousedown="handlePan(0,-1)"/>
  <use id="arrowright" xlink:href="#arrowRight" x="0" y="0" onmousedown="handlePan(1,0)"/>
  <use id="arrowdown" xlink:href="#arrowDown" x="0" y="0" onmousedown="handlePan(0,1)"/>
  <use id="arrowleft" xlink:href="#arrowLeft" x="0" y="0" onmousedown="handlePan(-1,0)"/>
</g>
<svg viewBox="0 0 15 15" width="100%" height="30px" preserveAspectRatio="xMaxYMin meet">
 <g id="arrow_out" transform="scale(0.3 0.3)">
  <a xlink:href="dir_c02b9718131941f5397e8655a258fcab_dep_org.svg" target="_base">
   <rect id="button" ry="5" rx="5" y="6" x="6" height="38" width="38"
        fill="#f2f5e9" fill-opacity="0.5" stroke="#606060" stroke-width="1.0"/>
   <path id="arrow"
     d="M 11.500037,31.436501 C 11.940474,20.09759 22.043105,11.32322 32.158766,21.979434 L 37.068811,17.246167 C 37.068811,17.246167 37.088388,32 37.088388,32 L 22.160133,31.978069 C 22.160133,31.978069 26.997745,27.140456 26.997745,27.140456 C 18.528582,18.264221 13.291696,25.230495 11.500037,31.436501 z"
     style="fill:#404040;"/>
  </a>
 </g>
</svg>

<style type='text/css'>
<![CDATA[
[data-mouse-over-selected='false'] { opacity: 0.7; }
[data-mouse-over-selected='true']  { opacity: 1.0; }
]]>
</style>
<script type="application/ecmascript"><![CDATA[
document.addEventListener('DOMContentLoaded', (event) => {
  highlightEdges();
  highlightAdjacentNodes();
});
]]></script>
</svg>
