<?xml version="1.0" encoding="UTF-8" standalone="no"?>
<!DOCTYPE svg PUBLIC "-//W3C//DTD SVG 1.1//EN"
 "http://www.w3.org/Graphics/SVG/1.1/DTD/svg11.dtd">
<!-- Generated by graphviz version 12.2.1 (20241206.2353)
 -->
<!-- Title: Graphical Class Hierarchy Pages: 1 -->
<svg width="234pt" height="218pt"
 viewBox="0.00 0.00 234.25 218.00" xmlns="http://www.w3.org/2000/svg" xmlns:xlink="http://www.w3.org/1999/xlink">
<g id="graph0" class="graph" transform="scale(1 1) rotate(0) translate(4 214)">
<title>Graphical Class Hierarchy</title>
<!-- Node0 -->
<g id="Node000000" class="node">
<title>Node0</title>
<g id="a_Node000000"><a xlink:title=" ">
<polygon fill="#e0e0e0" stroke="#999999" points="75.25,-115 0,-115 0,-95 75.25,-95 75.25,-115"/>
<text text-anchor="middle" x="37.62" y="-101.5" font-family="Arial" font-size="10.00">UUserWidget</text>
</a>
</g>
</g>
<!-- Node1 -->
<g id="Node000001" class="node">
<title>Node1</title>
<g id="a_Node000001"><a xlink:href="class_u_announcement.html" target="_top" xlink:title=" ">
<polygon fill="white" stroke="#666666" points="213.12,-210 124.38,-210 124.38,-190 213.12,-190 213.12,-210"/>
<text text-anchor="middle" x="168.75" y="-196.5" font-family="Arial" font-size="10.00">UAnnouncement</text>
</a>
</g>
</g>
<!-- Node0&#45;&gt;Node1 -->
<g id="edge20_Node000000_Node000001" class="edge">
<title>Node0&#45;&gt;Node1</title>
<g id="a_edge20_Node000000_Node000001"><a xlink:title=" ">
<path fill="none" stroke="#63b8ff" d="M52.78,-124.46C66.12,-141.54 87.56,-165.94 111.25,-181 116.58,-184.39 122.57,-187.24 128.62,-189.62"/>
<polygon fill="#63b8ff" stroke="#63b8ff" points="55.64,-122.45 46.82,-116.59 50.06,-126.67 55.64,-122.45"/>
</a>
</g>
</g>
<!-- Node2 -->
<g id="Node000002" class="node">
<title>Node2</title>
<g id="a_Node000002"><a xlink:href="class_u_character_overlay.html" target="_top" xlink:title=" ">
<polygon fill="white" stroke="#666666" points="218.75,-172 118.75,-172 118.75,-152 218.75,-152 218.75,-172"/>
<text text-anchor="middle" x="168.75" y="-158.5" font-family="Arial" font-size="10.00">UCharacterOverlay</text>
</a>
</g>
</g>
<!-- Node0&#45;&gt;Node2 -->
<g id="edge21_Node000000_Node000002" class="edge">
<title>Node0&#45;&gt;Node2</title>
<g id="a_edge21_Node000000_Node000002"><a xlink:title=" ">
<path fill="none" stroke="#63b8ff" d="M66.41,-120.85C79.73,-128.11 96.07,-136.52 111.25,-143 118.39,-146.05 126.19,-148.94 133.66,-151.5"/>
<polygon fill="#63b8ff" stroke="#63b8ff" points="68.21,-117.85 57.77,-116.07 64.82,-123.98 68.21,-117.85"/>
</a>
</g>
</g>
<!-- Node3 -->
<g id="Node000003" class="node">
<title>Node3</title>
<g id="a_Node000003"><a xlink:href="class_u_chat.html" target="_top" xlink:title=" ">
<polygon fill="white" stroke="#666666" points="191,-134 146.5,-134 146.5,-114 191,-114 191,-134"/>
<text text-anchor="middle" x="168.75" y="-120.5" font-family="Arial" font-size="10.00">UChat</text>
</a>
</g>
</g>
<!-- Node0&#45;&gt;Node3 -->
<g id="edge22_Node000000_Node000003" class="edge">
<title>Node0&#45;&gt;Node3</title>
<g id="a_edge22_Node000000_Node000003"><a xlink:title=" ">
<path fill="none" stroke="#63b8ff" d="M86.96,-112.11C107.31,-115.11 129.96,-118.44 146.09,-120.81"/>
<polygon fill="#63b8ff" stroke="#63b8ff" points="87.53,-108.66 77.12,-110.66 86.51,-115.58 87.53,-108.66"/>
</a>
</g>
</g>
<!-- Node4 -->
<g id="Node000004" class="node">
<title>Node4</title>
<g id="a_Node000004"><a xlink:href="class_u_chat_message_widget.html" target="_top" xlink:title=" ">
<polygon fill="white" stroke="#666666" points="226.25,-96 111.25,-96 111.25,-76 226.25,-76 226.25,-96"/>
<text text-anchor="middle" x="168.75" y="-82.5" font-family="Arial" font-size="10.00">UChatMessageWidget</text>
</a>
</g>
</g>
<!-- Node0&#45;&gt;Node4 -->
<g id="edge23_Node000000_Node000004" class="edge">
<title>Node0&#45;&gt;Node4</title>
<g id="a_edge23_Node000000_Node000004"><a xlink:title=" ">
<path fill="none" stroke="#63b8ff" d="M86.85,-97.9C94.72,-96.75 102.94,-95.54 110.99,-94.35"/>
<polygon fill="#63b8ff" stroke="#63b8ff" points="86.51,-94.42 77.12,-99.34 87.53,-101.34 86.51,-94.42"/>
</a>
</g>
</g>
<!-- Node5 -->
<g id="Node000005" class="node">
<title>Node5</title>
<g id="a_Node000005"><a xlink:href="class_u_overhead_widget.html" target="_top" xlink:title=" ">
<polygon fill="white" stroke="#666666" points="216.88,-58 120.62,-58 120.62,-38 216.88,-38 216.88,-58"/>
<text text-anchor="middle" x="168.75" y="-44.5" font-family="Arial" font-size="10.00">UOverheadWidget</text>
</a>
</g>
</g>
<!-- Node0&#45;&gt;Node5 -->
<g id="edge24_Node000000_Node000005" class="edge">
<title>Node0&#45;&gt;Node5</title>
<g id="a_edge24_Node000000_Node000005"><a xlink:title=" ">
<path fill="none" stroke="#63b8ff" d="M66.41,-89.15C79.73,-81.89 96.07,-73.48 111.25,-67 118.39,-63.95 126.19,-61.06 133.66,-58.5"/>
<polygon fill="#63b8ff" stroke="#63b8ff" points="64.82,-86.02 57.77,-93.93 68.21,-92.15 64.82,-86.02"/>
</a>
</g>
</g>
<!-- Node6 -->
<g id="Node000006" class="node">
<title>Node6</title>
<g id="a_Node000006"><a xlink:href="class_u_settings_menu.html" target="_top" xlink:title=" ">
<polygon fill="white" stroke="#666666" points="210.5,-20 127,-20 127,0 210.5,0 210.5,-20"/>
<text text-anchor="middle" x="168.75" y="-6.5" font-family="Arial" font-size="10.00">USettingsMenu</text>
</a>
</g>
</g>
<!-- Node0&#45;&gt;Node6 -->
<g id="edge25_Node000000_Node000006" class="edge">
<title>Node0&#45;&gt;Node6</title>
<g id="a_edge25_Node000000_Node000006"><a xlink:title=" ">
<path fill="none" stroke="#63b8ff" d="M52.78,-85.54C66.12,-68.46 87.56,-44.06 111.25,-29 116.58,-25.61 122.57,-22.76 128.62,-20.38"/>
<polygon fill="#63b8ff" stroke="#63b8ff" points="50.06,-83.33 46.82,-93.41 55.64,-87.55 50.06,-83.33"/>
</a>
</g>
</g>
</g>
</svg>
