<?xml version="1.0" encoding="UTF-8" standalone="no"?>
<!DOCTYPE svg PUBLIC "-//W3C//DTD SVG 1.1//EN"
 "http://www.w3.org/Graphics/SVG/1.1/DTD/svg11.dtd">
<!-- Generated by graphviz version 12.2.1 (20241206.2353)
 -->
<!-- Title: Graphical Class Hierarchy Pages: 1 -->
<svg width="330pt" height="180pt"
 viewBox="0.00 0.00 329.75 180.00" xmlns="http://www.w3.org/2000/svg" xmlns:xlink="http://www.w3.org/1999/xlink">
<g id="graph0" class="graph" transform="scale(1 1) rotate(0) translate(4 176)">
<title>Graphical Class Hierarchy</title>
<!-- Node0 -->
<g id="Node000000" class="node">
<title>Node0</title>
<g id="a_Node000000"><a xlink:title=" ">
<polygon fill="#e0e0e0" stroke="#999999" points="46,-77 0,-77 0,-57 46,-57 46,-77"/>
<text text-anchor="middle" x="23" y="-63.5" font-family="Arial" font-size="10.00">AActor</text>
</a>
</g>
</g>
<!-- Node1 -->
<g id="Node000001" class="node">
<title>Node1</title>
<g id="a_Node000001"><a xlink:href="class_a_base_weapon.html" target="_top" xlink:title=" ">
<polygon fill="white" stroke="#666666" points="174.88,-153 94.38,-153 94.38,-133 174.88,-133 174.88,-153"/>
<text text-anchor="middle" x="134.62" y="-139.5" font-family="Arial" font-size="10.00">ABaseWeapon</text>
</a>
</g>
</g>
<!-- Node0&#45;&gt;Node1 -->
<g id="edge1_Node000000_Node000001" class="edge">
<title>Node0&#45;&gt;Node1</title>
<g id="a_edge1_Node000000_Node000001"><a xlink:title=" ">
<path fill="none" stroke="#63b8ff" d="M48.24,-83.8C69.79,-98.74 100.61,-120.11 118.72,-132.67"/>
<polygon fill="#63b8ff" stroke="#63b8ff" points="50.24,-80.93 40.03,-78.11 46.25,-86.69 50.24,-80.93"/>
</a>
</g>
</g>
<!-- Node3 -->
<g id="Node000003" class="node">
<title>Node3</title>
<g id="a_Node000003"><a xlink:href="class_a_pickup.html" target="_top" xlink:title=" ">
<polygon fill="white" stroke="#666666" points="161,-96 108.25,-96 108.25,-76 161,-76 161,-96"/>
<text text-anchor="middle" x="134.62" y="-82.5" font-family="Arial" font-size="10.00">APickup</text>
</a>
</g>
</g>
<!-- Node0&#45;&gt;Node3 -->
<g id="edge3_Node000000_Node000003" class="edge">
<title>Node0&#45;&gt;Node3</title>
<g id="a_edge3_Node000000_Node000003"><a xlink:title=" ">
<path fill="none" stroke="#63b8ff" d="M57.67,-72.84C73.92,-75.65 93.11,-78.98 108.14,-81.58"/>
<polygon fill="#63b8ff" stroke="#63b8ff" points="58.39,-69.41 47.94,-71.15 57.2,-76.31 58.39,-69.41"/>
</a>
</g>
</g>
<!-- Node7 -->
<g id="Node000007" class="node">
<title>Node7</title>
<g id="a_Node000007"><a xlink:href="class_a_pickup_spawn_point.html" target="_top" xlink:title=" ">
<polygon fill="white" stroke="#666666" points="187.25,-58 82,-58 82,-38 187.25,-38 187.25,-58"/>
<text text-anchor="middle" x="134.62" y="-44.5" font-family="Arial" font-size="10.00">APickupSpawnPoint</text>
</a>
</g>
</g>
<!-- Node0&#45;&gt;Node7 -->
<g id="edge7_Node000000_Node000007" class="edge">
<title>Node0&#45;&gt;Node7</title>
<g id="a_edge7_Node000000_Node000007"><a xlink:title=" ">
<path fill="none" stroke="#63b8ff" d="M57.78,-61.15C65.39,-59.83 73.63,-58.4 81.79,-56.98"/>
<polygon fill="#63b8ff" stroke="#63b8ff" points="57.2,-57.69 47.94,-62.85 58.39,-64.59 57.2,-57.69"/>
</a>
</g>
</g>
<!-- Node8 -->
<g id="Node000008" class="node">
<title>Node8</title>
<g id="a_Node000008"><a xlink:href="class_a_projectile.html" target="_top" xlink:title=" ">
<polygon fill="white" stroke="#666666" points="166.25,-20 103,-20 103,0 166.25,0 166.25,-20"/>
<text text-anchor="middle" x="134.62" y="-6.5" font-family="Arial" font-size="10.00">AProjectile</text>
</a>
</g>
</g>
<!-- Node0&#45;&gt;Node8 -->
<g id="edge8_Node000000_Node000008" class="edge">
<title>Node0&#45;&gt;Node8</title>
<g id="a_edge8_Node000000_Node000008"><a xlink:title=" ">
<path fill="none" stroke="#63b8ff" d="M46.93,-50.24C57.31,-43.12 69.94,-35.07 82,-29 88.48,-25.74 95.67,-22.74 102.56,-20.13"/>
<polygon fill="#63b8ff" stroke="#63b8ff" points="45.16,-47.21 39,-55.82 49.19,-52.93 45.16,-47.21"/>
</a>
</g>
</g>
<!-- Node2 -->
<g id="Node000002" class="node">
<title>Node2</title>
<g id="a_Node000002"><a xlink:href="class_a_projectile_weapon.html" target="_top" xlink:title=" ">
<polygon fill="white" stroke="#666666" points="321.75,-172 223.25,-172 223.25,-152 321.75,-152 321.75,-172"/>
<text text-anchor="middle" x="272.5" y="-158.5" font-family="Arial" font-size="10.00">AProjectileWeapon</text>
</a>
</g>
</g>
<!-- Node1&#45;&gt;Node2 -->
<g id="edge2_Node000001_Node000002" class="edge">
<title>Node1&#45;&gt;Node2</title>
<g id="a_edge2_Node000001_Node000002"><a xlink:title=" ">
<path fill="none" stroke="#63b8ff" d="M186.44,-150.11C198.36,-151.77 211.04,-153.55 222.86,-155.2"/>
<polygon fill="#63b8ff" stroke="#63b8ff" points="187.18,-146.67 176.79,-148.76 186.21,-153.61 187.18,-146.67"/>
</a>
</g>
</g>
<!-- Node4 -->
<g id="Node000004" class="node">
<title>Node4</title>
<g id="a_Node000004"><a xlink:href="class_a_damage_pickup.html" target="_top" xlink:title=" ">
<polygon fill="white" stroke="#666666" points="317.25,-134 227.75,-134 227.75,-114 317.25,-114 317.25,-134"/>
<text text-anchor="middle" x="272.5" y="-120.5" font-family="Arial" font-size="10.00">ADamagePickup</text>
</a>
</g>
</g>
<!-- Node3&#45;&gt;Node4 -->
<g id="edge4_Node000003_Node000004" class="edge">
<title>Node3&#45;&gt;Node4</title>
<g id="a_edge4_Node000003_Node000004"><a xlink:title=" ">
<path fill="none" stroke="#63b8ff" d="M172.18,-96.22C191.32,-101.58 214.72,-108.12 233.99,-113.51"/>
<polygon fill="#63b8ff" stroke="#63b8ff" points="173.21,-92.88 162.64,-93.56 171.33,-99.62 173.21,-92.88"/>
</a>
</g>
</g>
<!-- Node5 -->
<g id="Node000005" class="node">
<title>Node5</title>
<g id="a_Node000005"><a xlink:href="class_a_health_pickup.html" target="_top" xlink:title=" ">
<polygon fill="white" stroke="#666666" points="313.12,-96 231.88,-96 231.88,-76 313.12,-76 313.12,-96"/>
<text text-anchor="middle" x="272.5" y="-82.5" font-family="Arial" font-size="10.00">AHealthPickup</text>
</a>
</g>
</g>
<!-- Node3&#45;&gt;Node5 -->
<g id="edge5_Node000003_Node000005" class="edge">
<title>Node3&#45;&gt;Node5</title>
<g id="a_edge5_Node000003_Node000005"><a xlink:title=" ">
<path fill="none" stroke="#63b8ff" d="M172.57,-86C190.86,-86 212.96,-86 231.63,-86"/>
<polygon fill="#63b8ff" stroke="#63b8ff" points="172.7,-82.5 162.7,-86 172.7,-89.5 172.7,-82.5"/>
</a>
</g>
</g>
<!-- Node6 -->
<g id="Node000006" class="node">
<title>Node6</title>
<g id="a_Node000006"><a xlink:href="class_a_speed_pickup.html" target="_top" xlink:title=" ">
<polygon fill="white" stroke="#666666" points="312.75,-58 232.25,-58 232.25,-38 312.75,-38 312.75,-58"/>
<text text-anchor="middle" x="272.5" y="-44.5" font-family="Arial" font-size="10.00">ASpeedPickup</text>
</a>
</g>
</g>
<!-- Node3&#45;&gt;Node6 -->
<g id="edge6_Node000003_Node000006" class="edge">
<title>Node3&#45;&gt;Node6</title>
<g id="a_edge6_Node000003_Node000006"><a xlink:title=" ">
<path fill="none" stroke="#63b8ff" d="M172.18,-75.78C191.32,-70.42 214.72,-63.88 233.99,-58.49"/>
<polygon fill="#63b8ff" stroke="#63b8ff" points="171.33,-72.38 162.64,-78.44 173.21,-79.12 171.33,-72.38"/>
</a>
</g>
</g>
<!-- Node9 -->
<g id="Node000009" class="node">
<title>Node9</title>
<g id="a_Node000009"><a xlink:href="class_a_projectile_bullet.html" target="_top" xlink:title=" ">
<polygon fill="white" stroke="#666666" points="316.5,-20 228.5,-20 228.5,0 316.5,0 316.5,-20"/>
<text text-anchor="middle" x="272.5" y="-6.5" font-family="Arial" font-size="10.00">AProjectileBullet</text>
</a>
</g>
</g>
<!-- Node8&#45;&gt;Node9 -->
<g id="edge9_Node000008_Node000009" class="edge">
<title>Node8&#45;&gt;Node9</title>
<g id="a_edge9_Node000008_Node000009"><a xlink:title=" ">
<path fill="none" stroke="#63b8ff" d="M177.67,-10C193.71,-10 212.02,-10 228.17,-10"/>
<polygon fill="#63b8ff" stroke="#63b8ff" points="177.97,-6.5 167.97,-10 177.97,-13.5 177.97,-6.5"/>
</a>
</g>
</g>
</g>
</svg>
