<?xml version="1.0" encoding="UTF-8" standalone="no"?>
<!DOCTYPE svg PUBLIC "-//W3C//DTD SVG 1.1//EN"
 "http://www.w3.org/Graphics/SVG/1.1/DTD/svg11.dtd">
<!-- Generated by graphviz version 12.2.1 (20241206.2353)
 -->
<!-- Title: FHUDPackage Pages: 1 -->
<svg width="105pt" height="140pt"
 viewBox="0.00 0.00 104.75 140.00" xmlns="http://www.w3.org/2000/svg" xmlns:xlink="http://www.w3.org/1999/xlink">
<g id="graph0" class="graph" transform="scale(1 1) rotate(0) translate(4 136)">
<title>FHUDPackage</title>
<!-- Node1 -->
<g id="Node000001" class="node">
<title>Node1</title>
<g id="a_Node000001"><a xlink:title=" ">
<polygon fill="#999999" stroke="none" points="96.75,-132 0,-132 0,0 96.75,0 96.75,-132"/>
<text text-anchor="start" x="15" y="-118.5" font-family="Arial" font-size="10.00">FHUDPackage</text>
<text text-anchor="start" x="4" y="-102.5" font-family="Arial" font-size="10.00">+</text>
<text text-anchor="start" x="14" y="-102.5" font-family="Arial" font-size="10.00">CrosshairsCenter</text>
<text text-anchor="start" x="4" y="-86.5" font-family="Arial" font-size="10.00">+</text>
<text text-anchor="start" x="14" y="-86.5" font-family="Arial" font-size="10.00">CrosshairsLeft</text>
<text text-anchor="start" x="4" y="-70.5" font-family="Arial" font-size="10.00">+</text>
<text text-anchor="start" x="14" y="-70.5" font-family="Arial" font-size="10.00">CrosshairsRight</text>
<text text-anchor="start" x="4" y="-54.5" font-family="Arial" font-size="10.00">+</text>
<text text-anchor="start" x="14" y="-54.5" font-family="Arial" font-size="10.00">CrosshairsTop</text>
<text text-anchor="start" x="4" y="-38.5" font-family="Arial" font-size="10.00">+</text>
<text text-anchor="start" x="14" y="-38.5" font-family="Arial" font-size="10.00">CrosshairsBottom</text>
<text text-anchor="start" x="4" y="-22.5" font-family="Arial" font-size="10.00">+</text>
<text text-anchor="start" x="14" y="-22.5" font-family="Arial" font-size="10.00">CrosshairSpread</text>
<text text-anchor="start" x="46.88" y="-6.5" font-family="Arial" font-size="10.00"> </text>
<polygon fill="#666666" stroke="#666666" points="0,-114 0,-114 96.75,-114 96.75,-114 0,-114"/>
<polygon fill="#666666" stroke="#666666" points="0,-18 0,-18 12,-18 12,-18 0,-18"/>
<polygon fill="#666666" stroke="#666666" points="12,-18 12,-18 96.75,-18 96.75,-18 12,-18"/>
<polygon fill="none" stroke="#666666" points="0,0 0,-132 96.75,-132 96.75,0 0,0"/>
</a>
</g>
</g>
</g>
</svg>
