<?xml version="1.0" encoding="UTF-8" standalone="no"?>
<!DOCTYPE svg PUBLIC "-//W3C//DTD SVG 1.1//EN"
 "http://www.w3.org/Graphics/SVG/1.1/DTD/svg11.dtd">
<!-- Generated by graphviz version 12.2.1 (20241206.2353)
 -->
<!-- Title: BaseWeapon.cpp Pages: 1 -->
<svg width="1674pt" height="164pt"
 viewBox="0.00 0.00 1673.88 164.00" xmlns="http://www.w3.org/2000/svg" xmlns:xlink="http://www.w3.org/1999/xlink">
<g id="graph0" class="graph" transform="scale(1 1) rotate(0) translate(4 160)">
<title>BaseWeapon.cpp</title>
<!-- Node1 -->
<g id="Node000001" class="node">
<title>Node1</title>
<g id="a_Node000001"><a xlink:title=" ">
<polygon fill="#999999" stroke="#666666" points="984.75,-156 892.25,-156 892.25,-136 984.75,-136 984.75,-156"/>
<text text-anchor="middle" x="938.5" y="-142.5" font-family="Arial" font-size="10.00">BaseWeapon.cpp</text>
</a>
</g>
</g>
<!-- Node2 -->
<g id="Node000002" class="node">
<title>Node2</title>
<g id="a_Node000002"><a xlink:href="_base_weapon_8h.html" target="_top" xlink:title=" ">
<polygon fill="white" stroke="#666666" points="200.5,-88 118.5,-88 118.5,-68 200.5,-68 200.5,-88"/>
<text text-anchor="middle" x="159.5" y="-74.5" font-family="Arial" font-size="10.00">BaseWeapon.h</text>
</a>
</g>
</g>
<!-- Node1&#45;&gt;Node2 -->
<g id="edge1_Node000001_Node000002" class="edge">
<title>Node1&#45;&gt;Node2</title>
<g id="a_edge1_Node000001_Node000002"><a xlink:title=" ">
<path fill="none" stroke="#63b8ff" d="M891.91,-144.16C752.48,-141.33 340.07,-130.52 209.5,-100 202.28,-98.31 194.77,-95.68 187.83,-92.83"/>
<polygon fill="#63b8ff" stroke="#63b8ff" points="189.47,-89.73 178.91,-88.91 186.66,-96.14 189.47,-89.73"/>
</a>
</g>
</g>
<!-- Node6 -->
<g id="Node000006" class="node">
<title>Node6</title>
<g id="a_Node000006"><a xlink:title=" ">
<polygon fill="#e0e0e0" stroke="#999999" points="382.38,-88 218.62,-88 218.62,-68 382.38,-68 382.38,-88"/>
<text text-anchor="middle" x="300.5" y="-74.5" font-family="Arial" font-size="10.00">Components/SphereComponent.h</text>
</a>
</g>
</g>
<!-- Node1&#45;&gt;Node6 -->
<g id="edge5_Node000001_Node000006" class="edge">
<title>Node1&#45;&gt;Node6</title>
<g id="a_edge5_Node000001_Node000006"><a xlink:title=" ">
<path fill="none" stroke="#63b8ff" d="M891.77,-143.44C796.94,-139.76 575.33,-128.62 391.5,-100 376.96,-97.74 361.3,-94.44 347.13,-91.13"/>
<polygon fill="#63b8ff" stroke="#63b8ff" points="348.15,-87.77 337.61,-88.84 346.52,-94.58 348.15,-87.77"/>
</a>
</g>
</g>
<!-- Node7 -->
<g id="Node000007" class="node">
<title>Node7</title>
<g id="a_Node000007"><a xlink:title=" ">
<polygon fill="#e0e0e0" stroke="#999999" points="564.38,-88 400.62,-88 400.62,-68 564.38,-68 564.38,-88"/>
<text text-anchor="middle" x="482.5" y="-74.5" font-family="Arial" font-size="10.00">Components/WidgetComponent.h</text>
</a>
</g>
</g>
<!-- Node1&#45;&gt;Node7 -->
<g id="edge6_Node000001_Node000007" class="edge">
<title>Node1&#45;&gt;Node7</title>
<g id="a_edge6_Node000001_Node000007"><a xlink:title=" ">
<path fill="none" stroke="#63b8ff" d="M891.89,-140.82C822.27,-134.23 687.15,-120.06 573.5,-100 559.53,-97.53 544.48,-94.3 530.72,-91.11"/>
<polygon fill="#63b8ff" stroke="#63b8ff" points="531.52,-87.71 520.98,-88.81 529.91,-94.52 531.52,-87.71"/>
</a>
</g>
</g>
<!-- Node8 -->
<g id="Node000008" class="node">
<title>Node8</title>
<g id="a_Node000008"><a xlink:title=" ">
<polygon fill="#e0e0e0" stroke="#999999" points="740.38,-94 582.62,-94 582.62,-62 740.38,-62 740.38,-94"/>
<text text-anchor="start" x="590.62" y="-80.5" font-family="Arial" font-size="10.00">MultiplayerShooter</text>
<text text-anchor="middle" x="661.5" y="-68.5" font-family="Arial" font-size="10.00">/MainCharacter/MainCharacter.h</text>
</a>
</g>
</g>
<!-- Node1&#45;&gt;Node8 -->
<g id="edge7_Node000001_Node000008" class="edge">
<title>Node1&#45;&gt;Node8</title>
<g id="a_edge7_Node000001_Node000008"><a xlink:title=" ">
<path fill="none" stroke="#63b8ff" d="M898.68,-135.52C860.43,-126.42 801.01,-112.28 749.5,-100 745.52,-99.05 741.44,-98.08 737.33,-97.1"/>
<polygon fill="#63b8ff" stroke="#63b8ff" points="738.39,-93.75 727.85,-94.84 736.76,-100.56 738.39,-93.75"/>
</a>
</g>
</g>
<!-- Node9 -->
<g id="Node000009" class="node">
<title>Node9</title>
<g id="a_Node000009"><a xlink:title=" ">
<polygon fill="#e0e0e0" stroke="#999999" points="866.62,-88 758.38,-88 758.38,-68 866.62,-68 866.62,-88"/>
<text text-anchor="middle" x="812.5" y="-74.5" font-family="Arial" font-size="10.00">Net/UnrealNetwork.h</text>
</a>
</g>
</g>
<!-- Node1&#45;&gt;Node9 -->
<g id="edge8_Node000001_Node000009" class="edge">
<title>Node1&#45;&gt;Node9</title>
<g id="a_edge8_Node000001_Node000009"><a xlink:title=" ">
<path fill="none" stroke="#63b8ff" d="M920.45,-135.54C899.58,-124.61 864.99,-106.5 840.6,-93.72"/>
<polygon fill="#63b8ff" stroke="#63b8ff" points="842.34,-90.68 831.86,-89.14 839.09,-96.88 842.34,-90.68"/>
</a>
</g>
</g>
<!-- Node10 -->
<g id="Node000010" class="node">
<title>Node10</title>
<g id="a_Node000010"><a xlink:title=" ">
<polygon fill="#e0e0e0" stroke="#999999" points="992.62,-88 884.38,-88 884.38,-68 992.62,-68 992.62,-88"/>
<text text-anchor="middle" x="938.5" y="-74.5" font-family="Arial" font-size="10.00">NiagaraComponent.h</text>
</a>
</g>
</g>
<!-- Node1&#45;&gt;Node10 -->
<g id="edge9_Node000001_Node000010" class="edge">
<title>Node1&#45;&gt;Node10</title>
<g id="a_edge9_Node000001_Node000010"><a xlink:title=" ">
<path fill="none" stroke="#63b8ff" d="M938.5,-135.54C938.5,-126.23 938.5,-111.7 938.5,-99.7"/>
<polygon fill="#63b8ff" stroke="#63b8ff" points="942,-99.95 938.5,-89.95 935,-99.95 942,-99.95"/>
</a>
</g>
</g>
<!-- Node11 -->
<g id="Node000011" class="node">
<title>Node11</title>
<g id="a_Node000011"><a xlink:title=" ">
<polygon fill="#e0e0e0" stroke="#999999" points="1102.38,-88 1010.62,-88 1010.62,-68 1102.38,-68 1102.38,-88"/>
<text text-anchor="middle" x="1056.5" y="-74.5" font-family="Arial" font-size="10.00">NiagaraSystem.h</text>
</a>
</g>
</g>
<!-- Node1&#45;&gt;Node11 -->
<g id="edge10_Node000001_Node000011" class="edge">
<title>Node1&#45;&gt;Node11</title>
<g id="a_edge10_Node000001_Node000011"><a xlink:title=" ">
<path fill="none" stroke="#63b8ff" d="M955.41,-135.54C974.86,-124.66 1007.05,-106.66 1029.88,-93.89"/>
<polygon fill="#63b8ff" stroke="#63b8ff" points="1031.28,-97.11 1038.3,-89.18 1027.87,-91 1031.28,-97.11"/>
</a>
</g>
</g>
<!-- Node12 -->
<g id="Node000012" class="node">
<title>Node12</title>
<g id="a_Node000012"><a xlink:title=" ">
<polygon fill="#e0e0e0" stroke="#999999" points="1244.5,-88 1120.5,-88 1120.5,-68 1244.5,-68 1244.5,-88"/>
<text text-anchor="middle" x="1182.5" y="-74.5" font-family="Arial" font-size="10.00">NiagaraFunctionLibrary.h</text>
</a>
</g>
</g>
<!-- Node1&#45;&gt;Node12 -->
<g id="edge11_Node000001_Node000012" class="edge">
<title>Node1&#45;&gt;Node12</title>
<g id="a_edge11_Node000001_Node000012"><a xlink:title=" ">
<path fill="none" stroke="#63b8ff" d="M976.39,-135.53C1011.51,-126.66 1065.15,-112.88 1111.5,-100 1120.94,-97.38 1131.04,-94.46 1140.59,-91.65"/>
<polygon fill="#63b8ff" stroke="#63b8ff" points="1141.42,-95.05 1150.01,-88.85 1139.43,-88.34 1141.42,-95.05"/>
</a>
</g>
</g>
<!-- Node13 -->
<g id="Node000013" class="node">
<title>Node13</title>
<g id="a_Node000013"><a xlink:title=" ">
<polygon fill="#e0e0e0" stroke="#999999" points="1396,-88 1263,-88 1263,-68 1396,-68 1396,-88"/>
<text text-anchor="middle" x="1329.5" y="-74.5" font-family="Arial" font-size="10.00">Kismet/GameplayStatics.h</text>
</a>
</g>
</g>
<!-- Node1&#45;&gt;Node13 -->
<g id="edge12_Node000001_Node000013" class="edge">
<title>Node1&#45;&gt;Node13</title>
<g id="a_edge12_Node000001_Node000013"><a xlink:title=" ">
<path fill="none" stroke="#63b8ff" d="M984.99,-140.24C1046.73,-133.49 1159,-119.72 1253.5,-100 1264.76,-97.65 1276.81,-94.58 1287.92,-91.52"/>
<polygon fill="#63b8ff" stroke="#63b8ff" points="1288.53,-94.98 1297.2,-88.9 1286.63,-88.25 1288.53,-94.98"/>
</a>
</g>
</g>
<!-- Node14 -->
<g id="Node000014" class="node">
<title>Node14</title>
<g id="a_Node000014"><a xlink:title=" ">
<polygon fill="#e0e0e0" stroke="#999999" points="1547,-100 1414,-100 1414,-56 1547,-56 1547,-100"/>
<text text-anchor="start" x="1422" y="-86.5" font-family="Arial" font-size="10.00">MultiplayerShooter</text>
<text text-anchor="start" x="1422" y="-74.5" font-family="Arial" font-size="10.00">/PlayerController/MyPlayer</text>
<text text-anchor="middle" x="1480.5" y="-62.5" font-family="Arial" font-size="10.00">Controller.h</text>
</a>
</g>
</g>
<!-- Node1&#45;&gt;Node14 -->
<g id="edge13_Node000001_Node000014" class="edge">
<title>Node1&#45;&gt;Node14</title>
<g id="a_edge13_Node000001_Node000014"><a xlink:title=" ">
<path fill="none" stroke="#63b8ff" d="M984.95,-143.25C1067.35,-139.55 1244.61,-128.95 1402.26,-100.45"/>
<polygon fill="#63b8ff" stroke="#63b8ff" points="1402.89,-103.9 1412.09,-98.64 1401.62,-97.01 1402.89,-103.9"/>
</a>
</g>
</g>
<!-- Node15 -->
<g id="Node000015" class="node">
<title>Node15</title>
<g id="a_Node000015"><a xlink:title=" ">
<polygon fill="#e0e0e0" stroke="#999999" points="1665.88,-88 1565.12,-88 1565.12,-68 1665.88,-68 1665.88,-88"/>
<text text-anchor="middle" x="1615.5" y="-74.5" font-family="Arial" font-size="10.00">Sound/SoundCue.h</text>
</a>
</g>
</g>
<!-- Node1&#45;&gt;Node15 -->
<g id="edge14_Node000001_Node000015" class="edge">
<title>Node1&#45;&gt;Node15</title>
<g id="a_edge14_Node000001_Node000015"><a xlink:title=" ">
<path fill="none" stroke="#63b8ff" d="M985.22,-145.85C1089.13,-146.82 1346.75,-144.12 1556.5,-100 1565.23,-98.16 1574.42,-95.35 1582.89,-92.37"/>
<polygon fill="#63b8ff" stroke="#63b8ff" points="1583.92,-95.72 1592.08,-88.95 1581.48,-89.16 1583.92,-95.72"/>
</a>
</g>
</g>
<!-- Node3 -->
<g id="Node000003" class="node">
<title>Node3</title>
<g id="a_Node000003"><a xlink:title=" ">
<polygon fill="#e0e0e0" stroke="#999999" points="79,-20 0,-20 0,0 79,0 79,-20"/>
<text text-anchor="middle" x="39.5" y="-6.5" font-family="Arial" font-size="10.00">CoreMinimal.h</text>
</a>
</g>
</g>
<!-- Node2&#45;&gt;Node3 -->
<g id="edge2_Node000002_Node000003" class="edge">
<title>Node2&#45;&gt;Node3</title>
<g id="a_edge2_Node000002_Node000003"><a xlink:title=" ">
<path fill="none" stroke="#63b8ff" d="M142.31,-67.54C122.52,-56.66 89.79,-38.66 66.58,-25.89"/>
<polygon fill="#63b8ff" stroke="#63b8ff" points="68.44,-22.92 57.99,-21.17 65.06,-29.05 68.44,-22.92"/>
</a>
</g>
</g>
<!-- Node4 -->
<g id="Node000004" class="node">
<title>Node4</title>
<g id="a_Node000004"><a xlink:title=" ">
<polygon fill="#e0e0e0" stroke="#999999" points="222.25,-20 96.75,-20 96.75,0 222.25,0 222.25,-20"/>
<text text-anchor="middle" x="159.5" y="-6.5" font-family="Arial" font-size="10.00">GameFramework/Actor.h</text>
</a>
</g>
</g>
<!-- Node2&#45;&gt;Node4 -->
<g id="edge3_Node000002_Node000004" class="edge">
<title>Node2&#45;&gt;Node4</title>
<g id="a_edge3_Node000002_Node000004"><a xlink:title=" ">
<path fill="none" stroke="#63b8ff" d="M159.5,-67.54C159.5,-58.23 159.5,-43.7 159.5,-31.7"/>
<polygon fill="#63b8ff" stroke="#63b8ff" points="163,-31.95 159.5,-21.95 156,-31.95 163,-31.95"/>
</a>
</g>
</g>
<!-- Node5 -->
<g id="Node000005" class="node">
<title>Node5</title>
<g id="a_Node000005"><a xlink:title=" ">
<polygon fill="#e0e0e0" stroke="#999999" points="368.38,-20 240.62,-20 240.62,0 368.38,0 368.38,-20"/>
<text text-anchor="middle" x="304.5" y="-6.5" font-family="Arial" font-size="10.00">BaseWeapon.generated.h</text>
</a>
</g>
</g>
<!-- Node2&#45;&gt;Node5 -->
<g id="edge4_Node000002_Node000005" class="edge">
<title>Node2&#45;&gt;Node5</title>
<g id="a_edge4_Node000002_Node000005"><a xlink:title=" ">
<path fill="none" stroke="#63b8ff" d="M180.27,-67.54C204.61,-56.47 245.17,-38.01 273.29,-25.21"/>
<polygon fill="#63b8ff" stroke="#63b8ff" points="274.73,-28.39 282.39,-21.07 271.83,-22.02 274.73,-28.39"/>
</a>
</g>
</g>
</g>
</svg>
