<?xml version="1.0" encoding="UTF-8" standalone="no"?>
<!DOCTYPE svg PUBLIC "-//W3C//DTD SVG 1.1//EN"
 "http://www.w3.org/Graphics/SVG/1.1/DTD/svg11.dtd">
<!-- Generated by graphviz version 12.2.1 (20241206.2353)
 -->
<!-- Title: BaseWeapon.h Pages: 1 -->
<svg width="260pt" height="164pt"
 viewBox="0.00 0.00 259.50 164.00" xmlns="http://www.w3.org/2000/svg" xmlns:xlink="http://www.w3.org/1999/xlink">

<svg id="main" version="1.1" xmlns="http://www.w3.org/2000/svg" xmlns:xlink="http://www.w3.org/1999/xlink" xml:space="preserve">

<style type="text/css"><![CDATA[
.node, .edge {opacity: 0.7;}
.node.selected, .edge.selected {opacity: 1;}
.edge:hover path { stroke: red; }
.edge:hover polygon { stroke: red; fill: red; }
]]></style>
<script type="application/ecmascript" xlink:href="svg.min.js"/>
<svg id="graph" class="graph">
<g id="graph0" class="graph" transform="scale(1 1) rotate(0) translate(4 160)">
<title>BaseWeapon.h</title>
<!-- Node1 -->
<g id="Node000001" class="node">
<title>Node1</title>
<g id="a_Node000001"><a xlink:title=" ">
<polygon fill="#999999" stroke="#666666" points="154.25,-156 72.25,-156 72.25,-136 154.25,-136 154.25,-156"/>
<text text-anchor="middle" x="113.25" y="-142.5" font-family="Arial" font-size="10.00">BaseWeapon.h</text>
</a>
</g>
</g>
<!-- Node2 -->
<g id="Node000002" class="node">
<title>Node2</title>
<g id="a_Node000002"><a xlink:href="_base_weapon_8cpp.html" target="_top" xlink:title=" ">
<polygon fill="white" stroke="#666666" points="92.5,-94 0,-94 0,-74 92.5,-74 92.5,-94"/>
<text text-anchor="middle" x="46.25" y="-80.5" font-family="Arial" font-size="10.00">BaseWeapon.cpp</text>
</a>
</g>
</g>
<!-- Node1&#45;&gt;Node2 -->
<g id="edge1_Node000001_Node000002" class="edge">
<title>Node1&#45;&gt;Node2</title>
<g id="a_edge1_Node000001_Node000002"><a xlink:title=" ">
<path fill="none" stroke="#63b8ff" d="M94.52,-128.22C82.18,-117.18 66.51,-103.14 56.43,-94.11"/>
<polygon fill="#63b8ff" stroke="#63b8ff" points="91.87,-130.55 101.65,-134.62 96.54,-125.34 91.87,-130.55"/>
</a>
</g>
</g>
<!-- Node3 -->
<g id="Node000003" class="node">
<title>Node3</title>
<g id="a_Node000003"><a xlink:href="_projectile_weapon_8h.html" target="_top" xlink:title=" ">
<polygon fill="white" stroke="#666666" points="251.5,-100 111,-100 111,-68 251.5,-68 251.5,-100"/>
<text text-anchor="start" x="119" y="-86.5" font-family="Arial" font-size="10.00">ProjectileWeapons/Projectile</text>
<text text-anchor="middle" x="181.25" y="-74.5" font-family="Arial" font-size="10.00">Weapon.h</text>
</a>
</g>
</g>
<!-- Node1&#45;&gt;Node3 -->
<g id="edge2_Node000001_Node000003" class="edge">
<title>Node1&#45;&gt;Node3</title>
<g id="a_edge2_Node000001_Node000003"><a xlink:title=" ">
<path fill="none" stroke="#63b8ff" d="M132.24,-128.24C142.14,-119.51 154.17,-108.9 163.83,-100.37"/>
<polygon fill="#63b8ff" stroke="#63b8ff" points="130.19,-125.38 125.01,-134.62 134.82,-130.63 130.19,-125.38"/>
</a>
</g>
</g>
<!-- Node4 -->
<g id="Node000004" class="node">
<title>Node4</title>
<g id="a_Node000004"><a xlink:href="_projectile_weapon_8cpp.html" target="_top" xlink:title=" ">
<polygon fill="white" stroke="#666666" points="251.5,-32 111,-32 111,0 251.5,0 251.5,-32"/>
<text text-anchor="start" x="119" y="-18.5" font-family="Arial" font-size="10.00">ProjectileWeapons/Projectile</text>
<text text-anchor="middle" x="181.25" y="-6.5" font-family="Arial" font-size="10.00">Weapon.cpp</text>
</a>
</g>
</g>
<!-- Node3&#45;&gt;Node4 -->
<g id="edge3_Node000003_Node000004" class="edge">
<title>Node3&#45;&gt;Node4</title>
<g id="a_edge3_Node000003_Node000004"><a xlink:title=" ">
<path fill="none" stroke="#63b8ff" d="M181.25,-56.31C181.25,-48.12 181.25,-39.38 181.25,-32.22"/>
<polygon fill="#63b8ff" stroke="#63b8ff" points="177.75,-56.18 181.25,-66.18 184.75,-56.18 177.75,-56.18"/>
</a>
</g>
</g>
</g>
</svg>
</svg>

<style type='text/css'>
<![CDATA[
[data-mouse-over-selected='false'] { opacity: 0.7; }
[data-mouse-over-selected='true']  { opacity: 1.0; }
]]>
</style>
<script type="application/ecmascript"><![CDATA[
document.addEventListener('DOMContentLoaded', (event) => {
  highlightEdges();
  highlightAdjacentNodes();
});
]]></script>
</svg>
