<?xml version="1.0" encoding="UTF-8" standalone="no"?>
<!DOCTYPE svg PUBLIC "-//W3C//DTD SVG 1.1//EN"
 "http://www.w3.org/Graphics/SVG/1.1/DTD/svg11.dtd">
<!-- Generated by graphviz version 12.2.1 (20241206.2353)
 -->
<!-- Title: ProjectileWeapons/ProjectileBullet.h Pages: 1 -->
<svg width="359pt" height="152pt"
 viewBox="0.00 0.00 358.75 152.00" xmlns="http://www.w3.org/2000/svg" xmlns:xlink="http://www.w3.org/1999/xlink">

<svg id="main" version="1.1" xmlns="http://www.w3.org/2000/svg" xmlns:xlink="http://www.w3.org/1999/xlink" xml:space="preserve">

<style type="text/css"><![CDATA[
.node, .edge {opacity: 0.7;}
.node.selected, .edge.selected {opacity: 1;}
.edge:hover path { stroke: red; }
.edge:hover polygon { stroke: red; fill: red; }
]]></style>
<script type="application/ecmascript" xlink:href="svg.min.js"/>
<svg id="graph" class="graph">
<g id="graph0" class="graph" transform="scale(1 1) rotate(0) translate(4 148)">
<title>ProjectileWeapons/ProjectileBullet.h</title>
<!-- Node1 -->
<g id="Node000001" class="node">
<title>Node1</title>
<g id="a_Node000001"><a xlink:title=" ">
<polygon fill="#999999" stroke="#666666" points="214.75,-144 74.25,-144 74.25,-112 214.75,-112 214.75,-144"/>
<text text-anchor="start" x="82.25" y="-130.5" font-family="Arial" font-size="10.00">ProjectileWeapons/Projectile</text>
<text text-anchor="middle" x="144.5" y="-118.5" font-family="Arial" font-size="10.00">Bullet.h</text>
</a>
</g>
</g>
<!-- Node2 -->
<g id="Node000002" class="node">
<title>Node2</title>
<g id="a_Node000002"><a xlink:title=" ">
<polygon fill="#e0e0e0" stroke="#999999" points="79,-20 0,-20 0,0 79,0 79,-20"/>
<text text-anchor="middle" x="39.5" y="-6.5" font-family="Arial" font-size="10.00">CoreMinimal.h</text>
</a>
</g>
</g>
<!-- Node1&#45;&gt;Node2 -->
<g id="edge1_Node000001_Node000002" class="edge">
<title>Node1&#45;&gt;Node2</title>
<g id="a_edge1_Node000001_Node000002"><a xlink:title=" ">
<path fill="none" stroke="#63b8ff" d="M130.77,-111.84C111.43,-90.46 76.2,-51.55 55.63,-28.82"/>
<polygon fill="#63b8ff" stroke="#63b8ff" points="58.36,-26.62 49.06,-21.56 53.17,-31.32 58.36,-26.62"/>
</a>
</g>
</g>
<!-- Node3 -->
<g id="Node000003" class="node">
<title>Node3</title>
<g id="a_Node000003"><a xlink:href="_projectile_8h.html" target="_top" xlink:title=" ">
<polygon fill="white" stroke="#666666" points="176.88,-76 112.12,-76 112.12,-56 176.88,-56 176.88,-76"/>
<text text-anchor="middle" x="144.5" y="-62.5" font-family="Arial" font-size="10.00">Projectile.h</text>
</a>
</g>
</g>
<!-- Node1&#45;&gt;Node3 -->
<g id="edge2_Node000001_Node000003" class="edge">
<title>Node1&#45;&gt;Node3</title>
<g id="a_edge2_Node000001_Node000003"><a xlink:title=" ">
<path fill="none" stroke="#63b8ff" d="M144.5,-111.55C144.5,-104.34 144.5,-95.66 144.5,-87.88"/>
<polygon fill="#63b8ff" stroke="#63b8ff" points="148,-87.92 144.5,-77.92 141,-87.92 148,-87.92"/>
</a>
</g>
</g>
<!-- Node6 -->
<g id="Node000006" class="node">
<title>Node6</title>
<g id="a_Node000006"><a xlink:title=" ">
<polygon fill="#e0e0e0" stroke="#999999" points="330.12,-76 194.88,-76 194.88,-56 330.12,-56 330.12,-76"/>
<text text-anchor="middle" x="262.5" y="-62.5" font-family="Arial" font-size="10.00">ProjectileBullet.generated.h</text>
</a>
</g>
</g>
<!-- Node1&#45;&gt;Node6 -->
<g id="edge6_Node000001_Node000006" class="edge">
<title>Node1&#45;&gt;Node6</title>
<g id="a_edge6_Node000001_Node000006"><a xlink:title=" ">
<path fill="none" stroke="#63b8ff" d="M174.89,-111.55C193.07,-102.3 216.03,-90.63 233.89,-81.55"/>
<polygon fill="#63b8ff" stroke="#63b8ff" points="235.32,-84.75 242.65,-77.09 232.15,-78.51 235.32,-84.75"/>
</a>
</g>
</g>
<!-- Node3&#45;&gt;Node2 -->
<g id="edge3_Node000003_Node000002" class="edge">
<title>Node3&#45;&gt;Node2</title>
<g id="a_edge3_Node000003_Node000002"><a xlink:title=" ">
<path fill="none" stroke="#63b8ff" d="M126.21,-55.59C110.2,-47.36 86.67,-35.26 68.16,-25.74"/>
<polygon fill="#63b8ff" stroke="#63b8ff" points="69.77,-22.63 59.28,-21.17 66.57,-28.86 69.77,-22.63"/>
</a>
</g>
</g>
<!-- Node4 -->
<g id="Node000004" class="node">
<title>Node4</title>
<g id="a_Node000004"><a xlink:title=" ">
<polygon fill="#e0e0e0" stroke="#999999" points="222.25,-20 96.75,-20 96.75,0 222.25,0 222.25,-20"/>
<text text-anchor="middle" x="159.5" y="-6.5" font-family="Arial" font-size="10.00">GameFramework/Actor.h</text>
</a>
</g>
</g>
<!-- Node3&#45;&gt;Node4 -->
<g id="edge4_Node000003_Node000004" class="edge">
<title>Node3&#45;&gt;Node4</title>
<g id="a_edge4_Node000003_Node000004"><a xlink:title=" ">
<path fill="none" stroke="#63b8ff" d="M147.11,-55.59C148.98,-48.86 151.57,-39.53 153.9,-31.15"/>
<polygon fill="#63b8ff" stroke="#63b8ff" points="157.21,-32.33 156.51,-21.76 150.46,-30.46 157.21,-32.33"/>
</a>
</g>
</g>
<!-- Node5 -->
<g id="Node000005" class="node">
<title>Node5</title>
<g id="a_Node000005"><a xlink:title=" ">
<polygon fill="#e0e0e0" stroke="#999999" points="350.75,-20 240.25,-20 240.25,0 350.75,0 350.75,-20"/>
<text text-anchor="middle" x="295.5" y="-6.5" font-family="Arial" font-size="10.00">Projectile.generated.h</text>
</a>
</g>
</g>
<!-- Node3&#45;&gt;Node5 -->
<g id="edge5_Node000003_Node000005" class="edge">
<title>Node3&#45;&gt;Node5</title>
<g id="a_edge5_Node000003_Node000005"><a xlink:title=" ">
<path fill="none" stroke="#63b8ff" d="M170.8,-55.59C195.01,-46.94 231.18,-34 258.34,-24.29"/>
<polygon fill="#63b8ff" stroke="#63b8ff" points="259.33,-27.65 267.57,-20.99 256.97,-21.06 259.33,-27.65"/>
</a>
</g>
</g>
</g>
</svg>
</svg>

<style type='text/css'>
<![CDATA[
[data-mouse-over-selected='false'] { opacity: 0.7; }
[data-mouse-over-selected='true']  { opacity: 1.0; }
]]>
</style>
<script type="application/ecmascript"><![CDATA[
document.addEventListener('DOMContentLoaded', (event) => {
  highlightEdges();
  highlightAdjacentNodes();
});
]]></script>
</svg>
