<?xml version="1.0" encoding="UTF-8" standalone="no"?>
<!DOCTYPE svg PUBLIC "-//W3C//DTD SVG 1.1//EN"
 "http://www.w3.org/Graphics/SVG/1.1/DTD/svg11.dtd">
<!-- Generated by graphviz version 12.2.1 (20241206.2353)
 -->
<!-- Title: ProjectileWeapons/ProjectileWeapon.h Pages: 1 -->
<svg width="399pt" height="164pt"
 viewBox="0.00 0.00 399.38 164.00" xmlns="http://www.w3.org/2000/svg" xmlns:xlink="http://www.w3.org/1999/xlink">

<svg id="main" version="1.1" xmlns="http://www.w3.org/2000/svg" xmlns:xlink="http://www.w3.org/1999/xlink" xml:space="preserve">

<style type="text/css"><![CDATA[
.node, .edge {opacity: 0.7;}
.node.selected, .edge.selected {opacity: 1;}
.edge:hover path { stroke: red; }
.edge:hover polygon { stroke: red; fill: red; }
]]></style>
<script type="application/ecmascript" xlink:href="svg.min.js"/>
<svg id="graph" class="graph">
<g id="graph0" class="graph" transform="scale(1 1) rotate(0) translate(4 160)">
<title>ProjectileWeapons/ProjectileWeapon.h</title>
<!-- Node1 -->
<g id="Node000001" class="node">
<title>Node1</title>
<g id="a_Node000001"><a xlink:title=" ">
<polygon fill="#999999" stroke="#666666" points="224.75,-156 84.25,-156 84.25,-124 224.75,-124 224.75,-156"/>
<text text-anchor="start" x="92.25" y="-142.5" font-family="Arial" font-size="10.00">ProjectileWeapons/Projectile</text>
<text text-anchor="middle" x="154.5" y="-130.5" font-family="Arial" font-size="10.00">Weapon.h</text>
</a>
</g>
</g>
<!-- Node2 -->
<g id="Node000002" class="node">
<title>Node2</title>
<g id="a_Node000002"><a xlink:title=" ">
<polygon fill="#e0e0e0" stroke="#999999" points="79,-20 0,-20 0,0 79,0 79,-20"/>
<text text-anchor="middle" x="39.5" y="-6.5" font-family="Arial" font-size="10.00">CoreMinimal.h</text>
</a>
</g>
</g>
<!-- Node1&#45;&gt;Node2 -->
<g id="edge1_Node000001_Node000002" class="edge">
<title>Node1&#45;&gt;Node2</title>
<g id="a_edge1_Node000001_Node000002"><a xlink:title=" ">
<path fill="none" stroke="#63b8ff" d="M119.94,-123.6C103.82,-115.02 85.39,-103.01 72.5,-88 58.16,-71.31 49.25,-47.46 44.35,-30.73"/>
<polygon fill="#63b8ff" stroke="#63b8ff" points="47.84,-30.23 41.87,-21.48 41.08,-32.05 47.84,-30.23"/>
</a>
</g>
</g>
<!-- Node3 -->
<g id="Node000003" class="node">
<title>Node3</title>
<g id="a_Node000003"><a xlink:href="_base_weapon_8h.html" target="_top" xlink:title=" ">
<polygon fill="white" stroke="#666666" points="227.38,-88 81.62,-88 81.62,-56 227.38,-56 227.38,-88"/>
<text text-anchor="start" x="89.62" y="-74.5" font-family="Arial" font-size="10.00">MultiplayerShooter</text>
<text text-anchor="middle" x="154.5" y="-62.5" font-family="Arial" font-size="10.00">/BaseWeapon/BaseWeapon.h</text>
</a>
</g>
</g>
<!-- Node1&#45;&gt;Node3 -->
<g id="edge2_Node000001_Node000003" class="edge">
<title>Node1&#45;&gt;Node3</title>
<g id="a_edge2_Node000001_Node000003"><a xlink:title=" ">
<path fill="none" stroke="#63b8ff" d="M154.5,-123.69C154.5,-116.53 154.5,-107.79 154.5,-99.59"/>
<polygon fill="#63b8ff" stroke="#63b8ff" points="158,-99.74 154.5,-89.74 151,-99.74 158,-99.74"/>
</a>
</g>
</g>
<!-- Node6 -->
<g id="Node000006" class="node">
<title>Node6</title>
<g id="a_Node000006"><a xlink:title=" ">
<polygon fill="#e0e0e0" stroke="#999999" points="391.38,-82 245.62,-82 245.62,-62 391.38,-62 391.38,-82"/>
<text text-anchor="middle" x="318.5" y="-68.5" font-family="Arial" font-size="10.00">ProjectileWeapon.generated.h</text>
</a>
</g>
</g>
<!-- Node1&#45;&gt;Node6 -->
<g id="edge6_Node000001_Node000006" class="edge">
<title>Node1&#45;&gt;Node6</title>
<g id="a_edge6_Node000001_Node000006"><a xlink:title=" ">
<path fill="none" stroke="#63b8ff" d="M192.95,-123.53C220.74,-112.34 257.94,-97.37 284.62,-86.64"/>
<polygon fill="#63b8ff" stroke="#63b8ff" points="285.62,-90.01 293.59,-83.03 283.01,-83.51 285.62,-90.01"/>
</a>
</g>
</g>
<!-- Node3&#45;&gt;Node2 -->
<g id="edge3_Node000003_Node000002" class="edge">
<title>Node3&#45;&gt;Node2</title>
<g id="a_edge3_Node000003_Node000002"><a xlink:title=" ">
<path fill="none" stroke="#63b8ff" d="M124.88,-55.55C107.25,-46.35 85,-34.74 67.63,-25.68"/>
<polygon fill="#63b8ff" stroke="#63b8ff" points="69.36,-22.63 58.87,-21.11 66.12,-28.84 69.36,-22.63"/>
</a>
</g>
</g>
<!-- Node4 -->
<g id="Node000004" class="node">
<title>Node4</title>
<g id="a_Node000004"><a xlink:title=" ">
<polygon fill="#e0e0e0" stroke="#999999" points="222.25,-20 96.75,-20 96.75,0 222.25,0 222.25,-20"/>
<text text-anchor="middle" x="159.5" y="-6.5" font-family="Arial" font-size="10.00">GameFramework/Actor.h</text>
</a>
</g>
</g>
<!-- Node3&#45;&gt;Node4 -->
<g id="edge4_Node000003_Node000004" class="edge">
<title>Node3&#45;&gt;Node4</title>
<g id="a_edge4_Node000003_Node000004"><a xlink:title=" ">
<path fill="none" stroke="#63b8ff" d="M155.79,-55.55C156.4,-48.26 157.13,-39.45 157.78,-31.6"/>
<polygon fill="#63b8ff" stroke="#63b8ff" points="161.25,-32.17 158.59,-21.92 154.27,-31.59 161.25,-32.17"/>
</a>
</g>
</g>
<!-- Node5 -->
<g id="Node000005" class="node">
<title>Node5</title>
<g id="a_Node000005"><a xlink:title=" ">
<polygon fill="#e0e0e0" stroke="#999999" points="368.38,-20 240.62,-20 240.62,0 368.38,0 368.38,-20"/>
<text text-anchor="middle" x="304.5" y="-6.5" font-family="Arial" font-size="10.00">BaseWeapon.generated.h</text>
</a>
</g>
</g>
<!-- Node3&#45;&gt;Node5 -->
<g id="edge5_Node000003_Node000005" class="edge">
<title>Node3&#45;&gt;Node5</title>
<g id="a_edge5_Node000003_Node000005"><a xlink:title=" ">
<path fill="none" stroke="#63b8ff" d="M193.13,-55.55C217,-46 247.36,-33.86 270.35,-24.66"/>
<polygon fill="#63b8ff" stroke="#63b8ff" points="271.59,-27.93 279.57,-20.97 268.99,-21.43 271.59,-27.93"/>
</a>
</g>
</g>
</g>
</svg>
</svg>

<style type='text/css'>
<![CDATA[
[data-mouse-over-selected='false'] { opacity: 0.7; }
[data-mouse-over-selected='true']  { opacity: 1.0; }
]]>
</style>
<script type="application/ecmascript"><![CDATA[
document.addEventListener('DOMContentLoaded', (event) => {
  highlightEdges();
  highlightAdjacentNodes();
});
]]></script>
</svg>
