<?xml version="1.0" encoding="UTF-8" standalone="no"?>
<!DOCTYPE svg PUBLIC "-//W3C//DTD SVG 1.1//EN"
 "http://www.w3.org/Graphics/SVG/1.1/DTD/svg11.dtd">
<!-- Generated by graphviz version 12.2.1 (20241206.2353)
 -->
<!-- Title: ProjectileWeapons/Projectile.h Pages: 1 -->
<svg width="485pt" height="164pt"
 viewBox="0.00 0.00 484.88 164.00" xmlns="http://www.w3.org/2000/svg" xmlns:xlink="http://www.w3.org/1999/xlink">

<svg id="main" version="1.1" xmlns="http://www.w3.org/2000/svg" xmlns:xlink="http://www.w3.org/1999/xlink" xml:space="preserve">

<style type="text/css"><![CDATA[
.node, .edge {opacity: 0.7;}
.node.selected, .edge.selected {opacity: 1;}
.edge:hover path { stroke: red; }
.edge:hover polygon { stroke: red; fill: red; }
]]></style>
<script type="application/ecmascript" xlink:href="svg.min.js"/>
<svg id="graph" class="graph">
<g id="graph0" class="graph" transform="scale(1 1) rotate(0) translate(4 160)">
<title>ProjectileWeapons/Projectile.h</title>
<!-- Node1 -->
<g id="Node000001" class="node">
<title>Node1</title>
<g id="a_Node000001"><a xlink:title=" ">
<polygon fill="#999999" stroke="#666666" points="322,-156 173.25,-156 173.25,-136 322,-136 322,-156"/>
<text text-anchor="middle" x="247.62" y="-142.5" font-family="Arial" font-size="10.00">ProjectileWeapons/Projectile.h</text>
</a>
</g>
</g>
<!-- Node2 -->
<g id="Node000002" class="node">
<title>Node2</title>
<g id="a_Node000002"><a xlink:href="_projectile_8cpp.html" target="_top" xlink:title=" ">
<polygon fill="white" stroke="#666666" points="159.25,-94 0,-94 0,-74 159.25,-74 159.25,-94"/>
<text text-anchor="middle" x="79.62" y="-80.5" font-family="Arial" font-size="10.00">ProjectileWeapons/Projectile.cpp</text>
</a>
</g>
</g>
<!-- Node1&#45;&gt;Node2 -->
<g id="edge1_Node000001_Node000002" class="edge">
<title>Node1&#45;&gt;Node2</title>
<g id="a_edge1_Node000001_Node000002"><a xlink:title=" ">
<path fill="none" stroke="#63b8ff" d="M210.77,-131.84C179.08,-120.52 134.15,-104.47 105.97,-94.41"/>
<polygon fill="#63b8ff" stroke="#63b8ff" points="209.36,-135.05 219.95,-135.12 211.71,-128.46 209.36,-135.05"/>
</a>
</g>
</g>
<!-- Node3 -->
<g id="Node000003" class="node">
<title>Node3</title>
<g id="a_Node000003"><a xlink:href="_projectile_bullet_8h.html" target="_top" xlink:title=" ">
<polygon fill="white" stroke="#666666" points="317.88,-100 177.38,-100 177.38,-68 317.88,-68 317.88,-100"/>
<text text-anchor="start" x="185.38" y="-86.5" font-family="Arial" font-size="10.00">ProjectileWeapons/Projectile</text>
<text text-anchor="middle" x="247.62" y="-74.5" font-family="Arial" font-size="10.00">Bullet.h</text>
</a>
</g>
</g>
<!-- Node1&#45;&gt;Node3 -->
<g id="edge2_Node000001_Node000003" class="edge">
<title>Node1&#45;&gt;Node3</title>
<g id="a_edge2_Node000001_Node000003"><a xlink:title=" ">
<path fill="none" stroke="#63b8ff" d="M247.62,-124.31C247.62,-116.37 247.62,-107.46 247.62,-100.14"/>
<polygon fill="#63b8ff" stroke="#63b8ff" points="244.13,-124.11 247.63,-134.11 251.13,-124.11 244.13,-124.11"/>
</a>
</g>
</g>
<!-- Node5 -->
<g id="Node000005" class="node">
<title>Node5</title>
<g id="a_Node000005"><a xlink:href="_projectile_weapon_8cpp.html" target="_top" xlink:title=" ">
<polygon fill="white" stroke="#666666" points="476.88,-100 336.38,-100 336.38,-68 476.88,-68 476.88,-100"/>
<text text-anchor="start" x="344.38" y="-86.5" font-family="Arial" font-size="10.00">ProjectileWeapons/Projectile</text>
<text text-anchor="middle" x="406.62" y="-74.5" font-family="Arial" font-size="10.00">Weapon.cpp</text>
</a>
</g>
</g>
<!-- Node1&#45;&gt;Node5 -->
<g id="edge4_Node000001_Node000005" class="edge">
<title>Node1&#45;&gt;Node5</title>
<g id="a_edge4_Node000001_Node000005"><a xlink:title=" ">
<path fill="none" stroke="#63b8ff" d="M283.07,-131.63C307.49,-122.41 340.02,-110.13 365.58,-100.49"/>
<polygon fill="#63b8ff" stroke="#63b8ff" points="282.01,-128.29 273.88,-135.09 284.48,-134.83 282.01,-128.29"/>
</a>
</g>
</g>
<!-- Node4 -->
<g id="Node000004" class="node">
<title>Node4</title>
<g id="a_Node000004"><a xlink:href="_projectile_bullet_8cpp.html" target="_top" xlink:title=" ">
<polygon fill="white" stroke="#666666" points="317.88,-32 177.38,-32 177.38,0 317.88,0 317.88,-32"/>
<text text-anchor="start" x="185.38" y="-18.5" font-family="Arial" font-size="10.00">ProjectileWeapons/Projectile</text>
<text text-anchor="middle" x="247.62" y="-6.5" font-family="Arial" font-size="10.00">Bullet.cpp</text>
</a>
</g>
</g>
<!-- Node3&#45;&gt;Node4 -->
<g id="edge3_Node000003_Node000004" class="edge">
<title>Node3&#45;&gt;Node4</title>
<g id="a_edge3_Node000003_Node000004"><a xlink:title=" ">
<path fill="none" stroke="#63b8ff" d="M247.62,-56.31C247.62,-48.12 247.62,-39.38 247.62,-32.22"/>
<polygon fill="#63b8ff" stroke="#63b8ff" points="244.13,-56.18 247.63,-66.18 251.13,-56.18 244.13,-56.18"/>
</a>
</g>
</g>
</g>
</svg>
</svg>

<style type='text/css'>
<![CDATA[
[data-mouse-over-selected='false'] { opacity: 0.7; }
[data-mouse-over-selected='true']  { opacity: 1.0; }
]]>
</style>
<script type="application/ecmascript"><![CDATA[
document.addEventListener('DOMContentLoaded', (event) => {
  highlightEdges();
  highlightAdjacentNodes();
});
]]></script>
</svg>
