<?xml version="1.0" encoding="UTF-8" standalone="no"?>
<!DOCTYPE svg PUBLIC "-//W3C//DTD SVG 1.1//EN"
 "http://www.w3.org/Graphics/SVG/1.1/DTD/svg11.dtd">
<!-- Generated by graphviz version 12.2.1 (20241206.2353)
 -->
<!-- Title: ProjectileWeapons/ProjectileWeapon.cpp Pages: 1 -->
<svg width="760pt" height="232pt"
 viewBox="0.00 0.00 759.75 232.00" xmlns="http://www.w3.org/2000/svg" xmlns:xlink="http://www.w3.org/1999/xlink">
<g id="graph0" class="graph" transform="scale(1 1) rotate(0) translate(4 228)">
<title>ProjectileWeapons/ProjectileWeapon.cpp</title>
<!-- Node1 -->
<g id="Node000001" class="node">
<title>Node1</title>
<g id="a_Node000001"><a xlink:title=" ">
<polygon fill="#999999" stroke="#666666" points="521.12,-224 380.62,-224 380.62,-192 521.12,-192 521.12,-224"/>
<text text-anchor="start" x="388.62" y="-210.5" font-family="Arial" font-size="10.00">ProjectileWeapons/Projectile</text>
<text text-anchor="middle" x="450.88" y="-198.5" font-family="Arial" font-size="10.00">Weapon.cpp</text>
</a>
</g>
</g>
<!-- Node2 -->
<g id="Node000002" class="node">
<title>Node2</title>
<g id="a_Node000002"><a xlink:href="_projectile_weapon_8h.html" target="_top" xlink:title=" ">
<polygon fill="white" stroke="#666666" points="308.88,-150 208.88,-150 208.88,-130 308.88,-130 308.88,-150"/>
<text text-anchor="middle" x="258.88" y="-136.5" font-family="Arial" font-size="10.00">ProjectileWeapon.h</text>
</a>
</g>
</g>
<!-- Node1&#45;&gt;Node2 -->
<g id="edge1_Node000001_Node000002" class="edge">
<title>Node1&#45;&gt;Node2</title>
<g id="a_edge1_Node000001_Node000002"><a xlink:title=" ">
<path fill="none" stroke="#63b8ff" d="M405.86,-191.53C372.74,-180.14 328.23,-164.84 296.89,-154.07"/>
<polygon fill="#63b8ff" stroke="#63b8ff" points="298.42,-150.89 287.83,-150.95 296.15,-157.51 298.42,-150.89"/>
</a>
</g>
</g>
<!-- Node8 -->
<g id="Node000008" class="node">
<title>Node8</title>
<g id="a_Node000008"><a xlink:title=" ">
<polygon fill="#e0e0e0" stroke="#999999" points="575.5,-150 428.25,-150 428.25,-130 575.5,-130 575.5,-150"/>
<text text-anchor="middle" x="501.88" y="-136.5" font-family="Arial" font-size="10.00">Engine/SkeletalMeshSocket.h</text>
</a>
</g>
</g>
<!-- Node1&#45;&gt;Node8 -->
<g id="edge8_Node000001_Node000008" class="edge">
<title>Node1&#45;&gt;Node8</title>
<g id="a_edge8_Node000001_Node000008"><a xlink:title=" ">
<path fill="none" stroke="#63b8ff" d="M462.7,-191.69C470.2,-182 479.92,-169.41 487.81,-159.2"/>
<polygon fill="#63b8ff" stroke="#63b8ff" points="490.41,-161.57 493.75,-151.51 484.87,-157.29 490.41,-161.57"/>
</a>
</g>
</g>
<!-- Node9 -->
<g id="Node000009" class="node">
<title>Node9</title>
<g id="a_Node000009"><a xlink:href="_projectile_8h.html" target="_top" xlink:title=" ">
<polygon fill="white" stroke="#666666" points="496.25,-82 431.5,-82 431.5,-62 496.25,-62 496.25,-82"/>
<text text-anchor="middle" x="463.88" y="-68.5" font-family="Arial" font-size="10.00">Projectile.h</text>
</a>
</g>
</g>
<!-- Node1&#45;&gt;Node9 -->
<g id="edge9_Node000001_Node000009" class="edge">
<title>Node1&#45;&gt;Node9</title>
<g id="a_edge9_Node000001_Node000009"><a xlink:title=" ">
<path fill="none" stroke="#63b8ff" d="M437.98,-191.59C430.83,-182.01 422.63,-169.06 418.88,-156 414.94,-142.33 413.85,-137.3 418.88,-124 423.81,-110.94 433.79,-99.07 443.09,-90.07"/>
<polygon fill="#63b8ff" stroke="#63b8ff" points="445.41,-92.69 450.5,-83.39 440.73,-87.49 445.41,-92.69"/>
</a>
</g>
</g>
<!-- Node11 -->
<g id="Node000011" class="node">
<title>Node11</title>
<g id="a_Node000011"><a xlink:title=" ">
<polygon fill="#e0e0e0" stroke="#999999" points="751.75,-156 594,-156 594,-124 751.75,-124 751.75,-156"/>
<text text-anchor="start" x="602" y="-142.5" font-family="Arial" font-size="10.00">MultiplayerShooter</text>
<text text-anchor="middle" x="672.88" y="-130.5" font-family="Arial" font-size="10.00">/MainCharacter/MainCharacter.h</text>
</a>
</g>
</g>
<!-- Node1&#45;&gt;Node11 -->
<g id="edge13_Node000001_Node000011" class="edge">
<title>Node1&#45;&gt;Node11</title>
<g id="a_edge13_Node000001_Node000011"><a xlink:title=" ">
<path fill="none" stroke="#63b8ff" d="M502.92,-191.53C534.96,-182 576.22,-169.74 610.06,-159.67"/>
<polygon fill="#63b8ff" stroke="#63b8ff" points="610.73,-163.13 619.32,-156.92 608.73,-156.42 610.73,-163.13"/>
</a>
</g>
</g>
<!-- Node3 -->
<g id="Node000003" class="node">
<title>Node3</title>
<g id="a_Node000003"><a xlink:title=" ">
<polygon fill="#e0e0e0" stroke="#999999" points="224.38,-20 145.38,-20 145.38,0 224.38,0 224.38,-20"/>
<text text-anchor="middle" x="184.88" y="-6.5" font-family="Arial" font-size="10.00">CoreMinimal.h</text>
</a>
</g>
</g>
<!-- Node2&#45;&gt;Node3 -->
<g id="edge2_Node000002_Node000003" class="edge">
<title>Node2&#45;&gt;Node3</title>
<g id="a_edge2_Node000002_Node000003"><a xlink:title=" ">
<path fill="none" stroke="#63b8ff" d="M208.74,-138.3C170.74,-134.79 120.77,-123.18 94.88,-88 86.44,-76.55 87.4,-68.1 94.88,-56 103.9,-41.39 119.27,-31.37 134.78,-24.56"/>
<polygon fill="#63b8ff" stroke="#63b8ff" points="136.03,-27.83 144.05,-20.9 133.46,-21.31 136.03,-27.83"/>
</a>
</g>
</g>
<!-- Node4 -->
<g id="Node000004" class="node">
<title>Node4</title>
<g id="a_Node000004"><a xlink:href="_base_weapon_8h.html" target="_top" xlink:title=" ">
<polygon fill="white" stroke="#666666" points="249.75,-88 104,-88 104,-56 249.75,-56 249.75,-88"/>
<text text-anchor="start" x="112" y="-74.5" font-family="Arial" font-size="10.00">MultiplayerShooter</text>
<text text-anchor="middle" x="176.88" y="-62.5" font-family="Arial" font-size="10.00">/BaseWeapon/BaseWeapon.h</text>
</a>
</g>
</g>
<!-- Node2&#45;&gt;Node4 -->
<g id="edge3_Node000002_Node000004" class="edge">
<title>Node2&#45;&gt;Node4</title>
<g id="a_edge3_Node000002_Node000004"><a xlink:title=" ">
<path fill="none" stroke="#63b8ff" d="M247.13,-129.54C236.05,-120.63 219.03,-106.93 204.52,-95.25"/>
<polygon fill="#63b8ff" stroke="#63b8ff" points="207.05,-92.79 197.06,-89.25 202.66,-98.25 207.05,-92.79"/>
</a>
</g>
</g>
<!-- Node7 -->
<g id="Node000007" class="node">
<title>Node7</title>
<g id="a_Node000007"><a xlink:title=" ">
<polygon fill="#e0e0e0" stroke="#999999" points="413.75,-82 268,-82 268,-62 413.75,-62 413.75,-82"/>
<text text-anchor="middle" x="340.88" y="-68.5" font-family="Arial" font-size="10.00">ProjectileWeapon.generated.h</text>
</a>
</g>
</g>
<!-- Node2&#45;&gt;Node7 -->
<g id="edge7_Node000002_Node000007" class="edge">
<title>Node2&#45;&gt;Node7</title>
<g id="a_edge7_Node000002_Node000007"><a xlink:title=" ">
<path fill="none" stroke="#63b8ff" d="M270.62,-129.54C283.53,-119.15 304.51,-102.27 320.19,-89.65"/>
<polygon fill="#63b8ff" stroke="#63b8ff" points="322.37,-92.38 327.97,-83.39 317.98,-86.93 322.37,-92.38"/>
</a>
</g>
</g>
<!-- Node4&#45;&gt;Node3 -->
<g id="edge4_Node000004_Node000003" class="edge">
<title>Node4&#45;&gt;Node3</title>
<g id="a_edge4_Node000004_Node000003"><a xlink:title=" ">
<path fill="none" stroke="#63b8ff" d="M178.94,-55.55C179.91,-48.26 181.08,-39.45 182.13,-31.6"/>
<polygon fill="#63b8ff" stroke="#63b8ff" points="185.57,-32.28 183.42,-21.91 178.63,-31.36 185.57,-32.28"/>
</a>
</g>
</g>
<!-- Node5 -->
<g id="Node000005" class="node">
<title>Node5</title>
<g id="a_Node000005"><a xlink:title=" ">
<polygon fill="#e0e0e0" stroke="#999999" points="382.62,-20 257.12,-20 257.12,0 382.62,0 382.62,-20"/>
<text text-anchor="middle" x="319.88" y="-6.5" font-family="Arial" font-size="10.00">GameFramework/Actor.h</text>
</a>
</g>
</g>
<!-- Node4&#45;&gt;Node5 -->
<g id="edge5_Node000004_Node000005" class="edge">
<title>Node4&#45;&gt;Node5</title>
<g id="a_edge5_Node000004_Node000005"><a xlink:title=" ">
<path fill="none" stroke="#63b8ff" d="M213.7,-55.55C236.35,-46.04 265.14,-33.97 287.02,-24.79"/>
<polygon fill="#63b8ff" stroke="#63b8ff" points="288.19,-28.09 296.06,-20.99 285.48,-21.64 288.19,-28.09"/>
</a>
</g>
</g>
<!-- Node6 -->
<g id="Node000006" class="node">
<title>Node6</title>
<g id="a_Node000006"><a xlink:title=" ">
<polygon fill="#e0e0e0" stroke="#999999" points="127.75,-20 0,-20 0,0 127.75,0 127.75,-20"/>
<text text-anchor="middle" x="63.88" y="-6.5" font-family="Arial" font-size="10.00">BaseWeapon.generated.h</text>
</a>
</g>
</g>
<!-- Node4&#45;&gt;Node6 -->
<g id="edge6_Node000004_Node000006" class="edge">
<title>Node4&#45;&gt;Node6</title>
<g id="a_edge6_Node000004_Node000006"><a xlink:title=" ">
<path fill="none" stroke="#63b8ff" d="M147.77,-55.55C130.45,-46.35 108.58,-34.74 91.51,-25.68"/>
<polygon fill="#63b8ff" stroke="#63b8ff" points="93.4,-22.72 82.93,-21.12 90.12,-28.9 93.4,-22.72"/>
</a>
</g>
</g>
<!-- Node9&#45;&gt;Node3 -->
<g id="edge10_Node000009_Node000003" class="edge">
<title>Node9&#45;&gt;Node3</title>
<g id="a_edge10_Node000009_Node000003"><a xlink:title=" ">
<path fill="none" stroke="#63b8ff" d="M440.24,-61.61C434.61,-59.58 428.57,-57.57 422.88,-56 359.26,-38.48 284.21,-25.53 235.64,-18.13"/>
<polygon fill="#63b8ff" stroke="#63b8ff" points="236.4,-14.7 225.99,-16.68 235.36,-21.63 236.4,-14.7"/>
</a>
</g>
</g>
<!-- Node9&#45;&gt;Node5 -->
<g id="edge11_Node000009_Node000005" class="edge">
<title>Node9&#45;&gt;Node5</title>
<g id="a_edge11_Node000009_Node000005"><a xlink:title=" ">
<path fill="none" stroke="#63b8ff" d="M441.38,-61.62C417.6,-51.72 379.86,-35.99 352.75,-24.7"/>
<polygon fill="#63b8ff" stroke="#63b8ff" points="354.19,-21.51 343.61,-20.89 351.5,-27.97 354.19,-21.51"/>
</a>
</g>
</g>
<!-- Node10 -->
<g id="Node000010" class="node">
<title>Node10</title>
<g id="a_Node000010"><a xlink:title=" ">
<polygon fill="#e0e0e0" stroke="#999999" points="519.12,-20 408.62,-20 408.62,0 519.12,0 519.12,-20"/>
<text text-anchor="middle" x="463.88" y="-6.5" font-family="Arial" font-size="10.00">Projectile.generated.h</text>
</a>
</g>
</g>
<!-- Node9&#45;&gt;Node10 -->
<g id="edge12_Node000009_Node000010" class="edge">
<title>Node9&#45;&gt;Node10</title>
<g id="a_edge12_Node000009_Node000010"><a xlink:title=" ">
<path fill="none" stroke="#63b8ff" d="M463.88,-61.62C463.88,-53.56 463.88,-41.65 463.88,-31.41"/>
<polygon fill="#63b8ff" stroke="#63b8ff" points="467.38,-31.63 463.88,-21.63 460.38,-31.63 467.38,-31.63"/>
</a>
</g>
</g>
</g>
</svg>
