<?xml version="1.0" encoding="UTF-8" standalone="no"?>
<!DOCTYPE svg PUBLIC "-//W3C//DTD SVG 1.1//EN"
 "http://www.w3.org/Graphics/SVG/1.1/DTD/svg11.dtd">
<!-- Generated by graphviz version 12.2.1 (20241206.2353)
 -->
<!-- Title: ABaseWeapon::BeginPlay Pages: 1 -->
<svg width="339pt" height="78pt"
 viewBox="0.00 0.00 338.50 78.00" xmlns="http://www.w3.org/2000/svg" xmlns:xlink="http://www.w3.org/1999/xlink">
<g id="graph0" class="graph" transform="scale(1 1) rotate(0) translate(4 74)">
<title>ABaseWeapon::BeginPlay</title>
<!-- Node1 -->
<g id="Node000001" class="node">
<title>Node1</title>
<g id="a_Node000001"><a xlink:title=" ">
<polygon fill="#999999" stroke="#666666" points="130.75,-42 0,-42 0,-22 130.75,-22 130.75,-42"/>
<text text-anchor="middle" x="65.38" y="-28.5" font-family="Arial" font-size="10.00">ABaseWeapon::BeginPlay</text>
</a>
</g>
</g>
<!-- Node2 -->
<g id="Node000002" class="node">
<title>Node2</title>
<g id="a_Node000002"><a xlink:href="class_a_base_weapon.html#ad77388ee16e510acd1991a7e041d4a91" target="_top" xlink:title=" ">
<polygon fill="white" stroke="#666666" points="322.25,-70 175,-70 175,-38 322.25,-38 322.25,-70"/>
<text text-anchor="start" x="183" y="-56.5" font-family="Arial" font-size="10.00">ABaseWeapon::OnSphereEnd</text>
<text text-anchor="middle" x="248.62" y="-44.5" font-family="Arial" font-size="10.00">Overlap</text>
</a>
</g>
</g>
<!-- Node1&#45;&gt;Node2 -->
<g id="edge1_Node000001_Node000002" class="edge">
<title>Node1&#45;&gt;Node2</title>
<g id="a_edge1_Node000001_Node000002"><a xlink:title=" ">
<path fill="none" stroke="#63b8ff" d="M131.04,-39.85C141.53,-41.12 152.53,-42.46 163.4,-43.78"/>
<polygon fill="#63b8ff" stroke="#63b8ff" points="162.8,-47.23 173.15,-44.96 163.65,-40.28 162.8,-47.23"/>
</a>
</g>
</g>
<!-- Node3 -->
<g id="Node000003" class="node">
<title>Node3</title>
<g id="a_Node000003"><a xlink:href="class_a_base_weapon.html#a961a7c76a6ab11f316c2e4fa2ccf2c39" target="_top" xlink:title=" ">
<polygon fill="white" stroke="#666666" points="330.5,-20 166.75,-20 166.75,0 330.5,0 330.5,-20"/>
<text text-anchor="middle" x="248.62" y="-6.5" font-family="Arial" font-size="10.00">ABaseWeapon::OnSphereOverlap</text>
</a>
</g>
</g>
<!-- Node1&#45;&gt;Node3 -->
<g id="edge2_Node000001_Node000003" class="edge">
<title>Node1&#45;&gt;Node3</title>
<g id="a_edge2_Node000001_Node000003"><a xlink:title=" ">
<path fill="none" stroke="#63b8ff" d="M131.04,-24.15C138.94,-23.19 147.13,-22.2 155.33,-21.2"/>
<polygon fill="#63b8ff" stroke="#63b8ff" points="155.49,-24.71 165,-20.03 154.65,-17.76 155.49,-24.71"/>
</a>
</g>
</g>
</g>
</svg>
