<?xml version="1.0" encoding="UTF-8" standalone="no"?>
<!DOCTYPE svg PUBLIC "-//W3C//DTD SVG 1.1//EN"
 "http://www.w3.org/Graphics/SVG/1.1/DTD/svg11.dtd">
<!-- Generated by graphviz version 12.2.1 (20241206.2353)
 -->
<!-- Title: ABaseWeapon::SpendRound Pages: 1 -->
<svg width="359pt" height="84pt"
 viewBox="0.00 0.00 358.75 84.00" xmlns="http://www.w3.org/2000/svg" xmlns:xlink="http://www.w3.org/1999/xlink">

<svg id="main" version="1.1" xmlns="http://www.w3.org/2000/svg" xmlns:xlink="http://www.w3.org/1999/xlink" xml:space="preserve">

<style type="text/css"><![CDATA[
.node, .edge {opacity: 0.7;}
.node.selected, .edge.selected {opacity: 1;}
.edge:hover path { stroke: red; }
.edge:hover polygon { stroke: red; fill: red; }
]]></style>
<script type="application/ecmascript" xlink:href="svg.min.js"/>
<svg id="graph" class="graph">
<g id="graph0" class="graph" transform="scale(1 1) rotate(0) translate(4 80)">
<title>ABaseWeapon::SpendRound</title>
<!-- Node1 -->
<g id="Node000001" class="node">
<title>Node1</title>
<g id="a_Node000001"><a xlink:title=" ">
<polygon fill="#999999" stroke="#666666" points="350.75,-58 208,-58 208,-38 350.75,-38 350.75,-58"/>
<text text-anchor="middle" x="279.38" y="-44.5" font-family="Arial" font-size="10.00">ABaseWeapon::SpendRound</text>
</a>
</g>
</g>
<!-- Node2 -->
<g id="Node000002" class="node">
<title>Node2</title>
<g id="a_Node000002"><a xlink:href="class_a_base_weapon.html#a87839af8ca6d3be01b6521ce105772e2" target="_top" xlink:title=" ">
<polygon fill="white" stroke="#666666" points="172,-58 0,-58 0,-38 172,-38 172,-58"/>
<text text-anchor="middle" x="86" y="-44.5" font-family="Arial" font-size="10.00">ABaseWeapon::ClientUpdateAmmo</text>
</a>
</g>
</g>
<!-- Node1&#45;&gt;Node2 -->
<g id="edge1_Node000001_Node000002" class="edge">
<title>Node1&#45;&gt;Node2</title>
<g id="a_edge1_Node000001_Node000002"><a xlink:title=" ">
<path fill="none" stroke="#63b8ff" d="M196.2,-41.31C188.3,-41.24 180.27,-41.23 172.34,-41.29"/>
<polygon fill="#63b8ff" stroke="#63b8ff" points="196.1,-44.81 206.14,-41.44 196.19,-37.81 196.1,-44.81"/>
</a>
</g>
</g>
<!-- Node3 -->
<g id="Node000003" class="node">
<title>Node3</title>
<g id="a_Node000003"><a xlink:href="class_a_base_weapon.html#a106c429cae78229f74086bb175e1cf7e" target="_top" xlink:title=" ">
<polygon fill="white" stroke="#666666" points="137.5,-20 34.5,-20 34.5,0 137.5,0 137.5,-20"/>
<text text-anchor="middle" x="86" y="-6.5" font-family="Arial" font-size="10.00">ABaseWeapon::Fire</text>
</a>
</g>
</g>
<!-- Node1&#45;&gt;Node3 -->
<g id="edge4_Node000001_Node000003" class="edge">
<title>Node1&#45;&gt;Node3</title>
<g id="a_edge4_Node000001_Node000003"><a xlink:title=" ">
<path fill="none" stroke="#63b8ff" d="M214.4,-35.3C189.53,-30.36 161.44,-24.78 137.98,-20.12"/>
<polygon fill="#63b8ff" stroke="#63b8ff" points="213.6,-38.71 224.09,-37.22 214.96,-31.84 213.6,-38.71"/>
</a>
</g>
</g>
<!-- Node2&#45;&gt;Node1 -->
<g id="edge3_Node000002_Node000001" class="edge">
<title>Node2&#45;&gt;Node1</title>
<g id="a_edge3_Node000002_Node000001"><a xlink:title=" ">
<path fill="none" stroke="#63b8ff" d="M183.72,-54.75C191.79,-54.74 199.84,-54.67 207.66,-54.54"/>
<polygon fill="#63b8ff" stroke="#63b8ff" points="183.86,-51.25 173.85,-54.72 183.84,-58.25 183.86,-51.25"/>
</a>
</g>
</g>
<!-- Node2&#45;&gt;Node2 -->
<g id="edge2_Node000002_Node000002" class="edge">
<title>Node2&#45;&gt;Node2</title>
<g id="a_edge2_Node000002_Node000002"><a xlink:title=" ">
<path fill="none" stroke="#63b8ff" d="M120.54,-69.11C116.42,-73.14 104.91,-76 86,-76 52.39,-76 42.14,-66.98 55.27,-58.34"/>
<polygon fill="#63b8ff" stroke="#63b8ff" points="123.87,-68.02 117.23,-59.77 117.27,-70.36 123.87,-68.02"/>
</a>
</g>
</g>
</g>
</svg>
</svg>

<style type='text/css'>
<![CDATA[
[data-mouse-over-selected='false'] { opacity: 0.7; }
[data-mouse-over-selected='true']  { opacity: 1.0; }
]]>
</style>
<script type="application/ecmascript"><![CDATA[
document.addEventListener('DOMContentLoaded', (event) => {
  highlightEdges();
  highlightAdjacentNodes();
});
]]></script>
</svg>
