<?xml version="1.0" encoding="UTF-8" standalone="no"?>
<!DOCTYPE svg PUBLIC "-//W3C//DTD SVG 1.1//EN"
 "http://www.w3.org/Graphics/SVG/1.1/DTD/svg11.dtd">
<!-- Generated by graphviz version 12.2.1 (20241206.2353)
 -->
<!-- Title: ABaseWeapon::SpendRound Pages: 1 -->
<svg width="359pt" height="84pt"
 viewBox="0.00 0.00 358.75 84.00" xmlns="http://www.w3.org/2000/svg" xmlns:xlink="http://www.w3.org/1999/xlink">

<svg id="main" version="1.1" xmlns="http://www.w3.org/2000/svg" xmlns:xlink="http://www.w3.org/1999/xlink" xml:space="preserve">

<style type="text/css"><![CDATA[
.node, .edge {opacity: 0.7;}
.node.selected, .edge.selected {opacity: 1;}
.edge:hover path { stroke: red; }
.edge:hover polygon { stroke: red; fill: red; }
]]></style>
<script type="application/ecmascript" xlink:href="svg.min.js"/>
<svg id="graph" class="graph">
<g id="graph0" class="graph" transform="scale(1 1) rotate(0) translate(4 80)">
<title>ABaseWeapon::SpendRound</title>
<!-- Node1 -->
<g id="Node000001" class="node">
<title>Node1</title>
<g id="a_Node000001"><a xlink:title=" ">
<polygon fill="#999999" stroke="#666666" points="142.75,-58 0,-58 0,-38 142.75,-38 142.75,-58"/>
<text text-anchor="middle" x="71.38" y="-44.5" font-family="Arial" font-size="10.00">ABaseWeapon::SpendRound</text>
</a>
</g>
</g>
<!-- Node2 -->
<g id="Node000002" class="node">
<title>Node2</title>
<g id="a_Node000002"><a xlink:href="class_a_base_weapon.html#a87839af8ca6d3be01b6521ce105772e2" target="_top" xlink:title=" ">
<polygon fill="white" stroke="#666666" points="350.75,-58 178.75,-58 178.75,-38 350.75,-38 350.75,-58"/>
<text text-anchor="middle" x="264.75" y="-44.5" font-family="Arial" font-size="10.00">ABaseWeapon::ClientUpdateAmmo</text>
</a>
</g>
</g>
<!-- Node1&#45;&gt;Node2 -->
<g id="edge1_Node000001_Node000002" class="edge">
<title>Node1&#45;&gt;Node2</title>
<g id="a_edge1_Node000001_Node000002"><a xlink:title=" ">
<path fill="none" stroke="#63b8ff" d="M143.09,-41.46C150.91,-41.33 158.96,-41.26 167.03,-41.25"/>
<polygon fill="#63b8ff" stroke="#63b8ff" points="166.89,-44.75 176.9,-41.28 166.91,-37.75 166.89,-44.75"/>
</a>
</g>
</g>
<!-- Node3 -->
<g id="Node000003" class="node">
<title>Node3</title>
<g id="a_Node000003"><a xlink:href="class_a_base_weapon.html#a87d9c1d39b25aae299790b857b07182d" target="_top" xlink:title=" ">
<polygon fill="white" stroke="#666666" points="341,-20 188.5,-20 188.5,0 341,0 341,-20"/>
<text text-anchor="middle" x="264.75" y="-6.5" font-family="Arial" font-size="10.00">ABaseWeapon::SetHUDAmmo</text>
</a>
</g>
</g>
<!-- Node1&#45;&gt;Node3 -->
<g id="edge4_Node000001_Node000003" class="edge">
<title>Node1&#45;&gt;Node3</title>
<g id="a_edge4_Node000001_Node000003"><a xlink:title=" ">
<path fill="none" stroke="#63b8ff" d="M125.18,-37.52C148.29,-32.93 175.61,-27.5 199.86,-22.69"/>
<polygon fill="#63b8ff" stroke="#63b8ff" points="200.51,-26.13 209.64,-20.74 199.15,-19.26 200.51,-26.13"/>
</a>
</g>
</g>
<!-- Node2&#45;&gt;Node1 -->
<g id="edge3_Node000002_Node000001" class="edge">
<title>Node2&#45;&gt;Node1</title>
<g id="a_edge3_Node000002_Node000001"><a xlink:title=" ">
<path fill="none" stroke="#63b8ff" d="M178.41,-54.71C170.48,-54.77 162.45,-54.76 154.55,-54.69"/>
<polygon fill="#63b8ff" stroke="#63b8ff" points="154.65,-51.19 144.61,-54.56 154.56,-58.19 154.65,-51.19"/>
</a>
</g>
</g>
<!-- Node2&#45;&gt;Node2 -->
<g id="edge2_Node000002_Node000002" class="edge">
<title>Node2&#45;&gt;Node2</title>
<g id="a_edge2_Node000002_Node000002"><a xlink:title=" ">
<path fill="none" stroke="#63b8ff" d="M234.02,-58.34C220.89,-66.98 231.14,-76 264.75,-76 283.66,-76 295.17,-73.14 299.29,-69.11"/>
<polygon fill="#63b8ff" stroke="#63b8ff" points="302.62,-68.02 295.98,-59.77 296.02,-70.36 302.62,-68.02"/>
</a>
</g>
</g>
</g>
</svg>
</svg>

<style type='text/css'>
<![CDATA[
[data-mouse-over-selected='false'] { opacity: 0.7; }
[data-mouse-over-selected='true']  { opacity: 1.0; }
]]>
</style>
<script type="application/ecmascript"><![CDATA[
document.addEventListener('DOMContentLoaded', (event) => {
  highlightEdges();
  highlightAdjacentNodes();
});
]]></script>
</svg>
