<?xml version="1.0" encoding="UTF-8" standalone="no"?>
<!DOCTYPE svg PUBLIC "-//W3C//DTD SVG 1.1//EN"
 "http://www.w3.org/Graphics/SVG/1.1/DTD/svg11.dtd">
<!-- Generated by graphviz version 12.2.1 (20241206.2353)
 -->
<!-- Title: ABaseWeapon::ShowPickupWidget Pages: 1 -->
<svg width="698pt" height="84pt"
 viewBox="0.00 0.00 697.50 84.00" xmlns="http://www.w3.org/2000/svg" xmlns:xlink="http://www.w3.org/1999/xlink">
<g id="graph0" class="graph" transform="scale(1 1) rotate(0) translate(4 80)">
<title>ABaseWeapon::ShowPickupWidget</title>
<!-- Node1 -->
<g id="Node000001" class="node">
<title>Node1</title>
<g id="a_Node000001"><a xlink:title=" ">
<polygon fill="#999999" stroke="#666666" points="689.5,-48 517.5,-48 517.5,-28 689.5,-28 689.5,-48"/>
<text text-anchor="middle" x="603.5" y="-34.5" font-family="Arial" font-size="10.00">ABaseWeapon::ShowPickupWidget</text>
</a>
</g>
</g>
<!-- Node2 -->
<g id="Node000002" class="node">
<title>Node2</title>
<g id="a_Node000002"><a xlink:href="class_a_base_weapon.html#a6a2f8355b56bb3093877f0747ec77fd9" target="_top" xlink:title=" ">
<polygon fill="white" stroke="#666666" points="460.12,-76 342.88,-76 342.88,-44 460.12,-44 460.12,-76"/>
<text text-anchor="start" x="350.88" y="-62.5" font-family="Arial" font-size="10.00">ABaseWeapon::OnRep</text>
<text text-anchor="middle" x="401.5" y="-50.5" font-family="Arial" font-size="10.00">_WeaponState</text>
</a>
</g>
</g>
<!-- Node1&#45;&gt;Node2 -->
<g id="edge1_Node000001_Node000002" class="edge">
<title>Node1&#45;&gt;Node2</title>
<g id="a_edge1_Node000001_Node000002"><a xlink:title=" ">
<path fill="none" stroke="#63b8ff" d="M505.84,-48.63C490.32,-50.34 474.7,-52.06 460.46,-53.62"/>
<polygon fill="#63b8ff" stroke="#63b8ff" points="506.04,-52.13 515.6,-47.56 505.27,-45.17 506.04,-52.13"/>
</a>
</g>
</g>
<!-- Node3 -->
<g id="Node000003" class="node">
<title>Node3</title>
<g id="a_Node000003"><a xlink:href="class_a_base_weapon.html#aae35128d6be3419b9168545b83b85ef3" target="_top" xlink:title=" ">
<polygon fill="white" stroke="#666666" points="481.5,-26 321.5,-26 321.5,-6 481.5,-6 481.5,-26"/>
<text text-anchor="middle" x="401.5" y="-12.5" font-family="Arial" font-size="10.00">ABaseWeapon::SetWeaponState</text>
</a>
</g>
</g>
<!-- Node1&#45;&gt;Node3 -->
<g id="edge2_Node000001_Node000003" class="edge">
<title>Node1&#45;&gt;Node3</title>
<g id="a_edge2_Node000001_Node000003"><a xlink:title=" ">
<path fill="none" stroke="#63b8ff" d="M505.82,-27.36C497.81,-26.48 489.77,-25.6 481.91,-24.73"/>
<polygon fill="#63b8ff" stroke="#63b8ff" points="505.27,-30.83 515.6,-28.44 506.04,-23.87 505.27,-30.83"/>
</a>
</g>
</g>
<!-- Node4 -->
<g id="Node000004" class="node">
<title>Node4</title>
<g id="a_Node000004"><a xlink:href="class_a_base_weapon.html#a25b946563e149541edc2fa7b4ddd6aff" target="_top" xlink:title=" ">
<polygon fill="white" stroke="#666666" points="285.5,-26 162.25,-26 162.25,-6 285.5,-6 285.5,-26"/>
<text text-anchor="middle" x="223.88" y="-12.5" font-family="Arial" font-size="10.00">ABaseWeapon::Dropped</text>
</a>
</g>
</g>
<!-- Node3&#45;&gt;Node4 -->
<g id="edge3_Node000003_Node000004" class="edge">
<title>Node3&#45;&gt;Node4</title>
<g id="a_edge3_Node000003_Node000004"><a xlink:title=" ">
<path fill="none" stroke="#63b8ff" d="M309.77,-16C301.71,-16 293.68,-16 285.96,-16"/>
<polygon fill="#63b8ff" stroke="#63b8ff" points="309.65,-19.5 319.65,-16 309.65,-12.5 309.65,-19.5"/>
</a>
</g>
</g>
<!-- Node5 -->
<g id="Node000005" class="node">
<title>Node5</title>
<g id="a_Node000005"><a xlink:href="class_a_base_weapon.html#aae5c981a3ac5618a7a2fb82f5e288b8e" target="_top" xlink:title=" ">
<polygon fill="white" stroke="#666666" points="126.25,-32 0,-32 0,0 126.25,0 126.25,-32"/>
<text text-anchor="start" x="8" y="-18.5" font-family="Arial" font-size="10.00">ABaseWeapon::Multicast</text>
<text text-anchor="middle" x="63.12" y="-6.5" font-family="Arial" font-size="10.00">_StartFiring</text>
</a>
</g>
</g>
<!-- Node4&#45;&gt;Node5 -->
<g id="edge4_Node000004_Node000005" class="edge">
<title>Node4&#45;&gt;Node5</title>
<g id="a_edge4_Node000004_Node000005"><a xlink:title=" ">
<path fill="none" stroke="#63b8ff" d="M150.45,-16C142.53,-16 134.51,-16 126.72,-16"/>
<polygon fill="#63b8ff" stroke="#63b8ff" points="150.44,-19.5 160.44,-16 150.44,-12.5 150.44,-19.5"/>
</a>
</g>
</g>
<!-- Node5&#45;&gt;Node5 -->
<g id="edge5_Node000005_Node000005" class="edge">
<title>Node5&#45;&gt;Node5</title>
<g id="a_edge5_Node000005_Node000005"><a xlink:title=" ">
<path fill="none" stroke="#63b8ff" d="M89.91,-43.71C85.45,-47.48 76.52,-50 63.12,-50 38.64,-50 29.07,-41.58 34.43,-32.44"/>
<polygon fill="#63b8ff" stroke="#63b8ff" points="93.35,-44.38 91.57,-33.93 86.45,-43.21 93.35,-44.38"/>
</a>
</g>
</g>
</g>
</svg>
