<?xml version="1.0" encoding="UTF-8" standalone="no"?>
<!DOCTYPE svg PUBLIC "-//W3C//DTD SVG 1.1//EN"
 "http://www.w3.org/Graphics/SVG/1.1/DTD/svg11.dtd">
<!-- Generated by graphviz version 12.2.1 (20241206.2353)
 -->
<!-- Title: ABaseWeapon Pages: 1 -->
<svg width="154pt" height="580pt"
 viewBox="0.00 0.00 154.25 580.00" xmlns="http://www.w3.org/2000/svg" xmlns:xlink="http://www.w3.org/1999/xlink">
<g id="graph0" class="graph" transform="scale(1 1) rotate(0) translate(4 576)">
<title>ABaseWeapon</title>
<!-- Node1 -->
<g id="Node000001" class="node">
<title>Node1</title>
<g id="a_Node000001"><a xlink:title=" ">
<polygon fill="#999999" stroke="none" points="146.25,-484 0,-484 0,0 146.25,0 146.25,-484"/>
<text text-anchor="start" x="40.88" y="-470.5" font-family="Arial" font-size="10.00">ABaseWeapon</text>
<text text-anchor="start" x="4" y="-454.5" font-family="Arial" font-size="10.00">+</text>
<text text-anchor="start" x="14" y="-454.5" font-family="Arial" font-size="10.00">Sequence</text>
<text text-anchor="start" x="4" y="-438.5" font-family="Arial" font-size="10.00">+</text>
<text text-anchor="start" x="14" y="-438.5" font-family="Arial" font-size="10.00">CrosshairsCenter</text>
<text text-anchor="start" x="4" y="-422.5" font-family="Arial" font-size="10.00">+</text>
<text text-anchor="start" x="14" y="-422.5" font-family="Arial" font-size="10.00">CrosshairsLeft</text>
<text text-anchor="start" x="4" y="-406.5" font-family="Arial" font-size="10.00">+</text>
<text text-anchor="start" x="14" y="-406.5" font-family="Arial" font-size="10.00">CrosshairsRight</text>
<text text-anchor="start" x="4" y="-390.5" font-family="Arial" font-size="10.00">+</text>
<text text-anchor="start" x="14" y="-390.5" font-family="Arial" font-size="10.00">CrosshairsTop</text>
<text text-anchor="start" x="4" y="-374.5" font-family="Arial" font-size="10.00">+</text>
<text text-anchor="start" x="14" y="-374.5" font-family="Arial" font-size="10.00">CrosshairsBottom</text>
<text text-anchor="start" x="4" y="-358.5" font-family="Arial" font-size="10.00">+</text>
<text text-anchor="start" x="14" y="-358.5" font-family="Arial" font-size="10.00">ZoomedFOV</text>
<text text-anchor="start" x="4" y="-342.5" font-family="Arial" font-size="10.00">+</text>
<text text-anchor="start" x="14" y="-342.5" font-family="Arial" font-size="10.00">ZoomInterpSpeed</text>
<text text-anchor="start" x="4" y="-326.5" font-family="Arial" font-size="10.00">+</text>
<text text-anchor="start" x="14" y="-326.5" font-family="Arial" font-size="10.00">FireDelay</text>
<text text-anchor="start" x="4" y="-310.5" font-family="Arial" font-size="10.00">+</text>
<text text-anchor="start" x="14" y="-310.5" font-family="Arial" font-size="10.00">bAutomatic</text>
<text text-anchor="start" x="14" y="-294.5" font-family="Arial" font-size="10.00">and 9 more...</text>
<text text-anchor="start" x="4.38" y="-278.5" font-family="Arial" font-size="10.00">#</text>
<text text-anchor="start" x="14" y="-278.5" font-family="Arial" font-size="10.00">Damage</text>
<text text-anchor="start" x="4.38" y="-262.5" font-family="Arial" font-size="10.00">#</text>
<text text-anchor="start" x="14" y="-262.5" font-family="Arial" font-size="10.00">bUseServerSideRewind</text>
<text text-anchor="start" x="4.38" y="-246.5" font-family="Arial" font-size="10.00">#</text>
<text text-anchor="start" x="14" y="-246.5" font-family="Arial" font-size="10.00">OwnerCharacter</text>
<text text-anchor="start" x="4.38" y="-230.5" font-family="Arial" font-size="10.00">#</text>
<text text-anchor="start" x="14" y="-230.5" font-family="Arial" font-size="10.00">OwnerController</text>
<text text-anchor="start" x="4" y="-214.5" font-family="Arial" font-size="10.00">+</text>
<text text-anchor="start" x="14" y="-214.5" font-family="Arial" font-size="10.00">ABaseWeapon()</text>
<text text-anchor="start" x="4" y="-198.5" font-family="Arial" font-size="10.00">+</text>
<text text-anchor="start" x="14" y="-198.5" font-family="Arial" font-size="10.00">ClientUpdateAmmo()</text>
<text text-anchor="start" x="4" y="-182.5" font-family="Arial" font-size="10.00">+</text>
<text text-anchor="start" x="14" y="-182.5" font-family="Arial" font-size="10.00">SpendRound()</text>
<text text-anchor="start" x="4" y="-166.5" font-family="Arial" font-size="10.00">+</text>
<text text-anchor="start" x="14" y="-166.5" font-family="Arial" font-size="10.00">OnRep_Owner()</text>
<text text-anchor="start" x="4" y="-150.5" font-family="Arial" font-size="10.00">+</text>
<text text-anchor="start" x="14" y="-150.5" font-family="Arial" font-size="10.00">SetHUDAmmo()</text>
<text text-anchor="start" x="4" y="-134.5" font-family="Arial" font-size="10.00">+</text>
<text text-anchor="start" x="14" y="-134.5" font-family="Arial" font-size="10.00">Tick()</text>
<text text-anchor="start" x="4" y="-118.5" font-family="Arial" font-size="10.00">+</text>
<text text-anchor="start" x="14" y="-118.5" font-family="Arial" font-size="10.00">ShowPickupWidget()</text>
<text text-anchor="start" x="4" y="-102.5" font-family="Arial" font-size="10.00">+</text>
<text text-anchor="start" x="14" y="-102.5" font-family="Arial" font-size="10.00">GetLifetimeReplicatedProps()</text>
<text text-anchor="start" x="4" y="-86.5" font-family="Arial" font-size="10.00">+</text>
<text text-anchor="start" x="14" y="-86.5" font-family="Arial" font-size="10.00">Multicast_StartFiring()</text>
<text text-anchor="start" x="4" y="-70.5" font-family="Arial" font-size="10.00">+</text>
<text text-anchor="start" x="14" y="-70.5" font-family="Arial" font-size="10.00">Dropped()</text>
<text text-anchor="start" x="14" y="-54.5" font-family="Arial" font-size="10.00">and 9 more...</text>
<text text-anchor="start" x="4.38" y="-38.5" font-family="Arial" font-size="10.00">#</text>
<text text-anchor="start" x="14" y="-38.5" font-family="Arial" font-size="10.00">BeginPlay()</text>
<text text-anchor="start" x="4.38" y="-22.5" font-family="Arial" font-size="10.00">#</text>
<text text-anchor="start" x="14" y="-22.5" font-family="Arial" font-size="10.00">OnSphereOverlap()</text>
<text text-anchor="start" x="4.38" y="-6.5" font-family="Arial" font-size="10.00">#</text>
<text text-anchor="start" x="14" y="-6.5" font-family="Arial" font-size="10.00">OnSphereEndOverlap()</text>
<polygon fill="#666666" stroke="#666666" points="0,-466 0,-466 146.25,-466 146.25,-466 0,-466"/>
<polygon fill="#666666" stroke="#666666" points="0,-226 0,-226 12,-226 12,-226 0,-226"/>
<polygon fill="#666666" stroke="#666666" points="12,-226 12,-226 146.25,-226 146.25,-226 12,-226"/>
<polygon fill="none" stroke="#666666" points="0,0 0,-484 146.25,-484 146.25,0 0,0"/>
</a>
</g>
</g>
<!-- Node2 -->
<g id="Node000002" class="node">
<title>Node2</title>
<g id="a_Node000002"><a xlink:title=" ">
<polygon fill="white" stroke="none" points="92.12,-572 54.12,-572 54.12,-520 92.12,-520 92.12,-572"/>
<text text-anchor="start" x="58.12" y="-558.5" font-family="Arial" font-size="10.00">AActor</text>
<text text-anchor="start" x="71.62" y="-542.5" font-family="Arial" font-size="10.00"> </text>
<text text-anchor="start" x="71.62" y="-526.5" font-family="Arial" font-size="10.00"> </text>
<polygon fill="#666666" stroke="#666666" points="54.12,-554 54.12,-554 92.12,-554 92.12,-554 54.12,-554"/>
<polygon fill="#666666" stroke="#666666" points="54.12,-538 54.12,-538 92.12,-538 92.12,-538 54.12,-538"/>
<polygon fill="none" stroke="#666666" points="54.12,-520 54.12,-572 92.12,-572 92.12,-520 54.12,-520"/>
</a>
</g>
</g>
<!-- Node2&#45;&gt;Node1 -->
<g id="edge1_Node000001_Node000002" class="edge">
<title>Node2&#45;&gt;Node1</title>
<g id="a_edge1_Node000001_Node000002"><a xlink:title=" ">
<path fill="none" stroke="#63b8ff" d="M73.12,-508.72C73.12,-501.24 73.12,-492.86 73.12,-483.79"/>
<polygon fill="none" stroke="#63b8ff" points="69.63,-508.52 73.13,-518.52 76.63,-508.52 69.63,-508.52"/>
</a>
</g>
</g>
</g>
</svg>
