<?xml version="1.0" encoding="UTF-8" standalone="no"?>
<!DOCTYPE svg PUBLIC "-//W3C//DTD SVG 1.1//EN"
 "http://www.w3.org/Graphics/SVG/1.1/DTD/svg11.dtd">
<!-- Generated by graphviz version 12.2.1 (20241206.2353)
 -->
<!-- Title: ABaseWeapon::Fire Pages: 1 -->
<svg width="498pt" height="84pt"
 viewBox="0.00 0.00 497.75 84.00" xmlns="http://www.w3.org/2000/svg" xmlns:xlink="http://www.w3.org/1999/xlink">
<g id="graph0" class="graph" transform="scale(1 1) rotate(0) translate(4 80)">
<title>ABaseWeapon::Fire</title>
<!-- Node1 -->
<g id="Node000001" class="node">
<title>Node1</title>
<g id="a_Node000001"><a xlink:title=" ">
<polygon fill="#999999" stroke="#666666" points="103,-58 0,-58 0,-38 103,-38 103,-58"/>
<text text-anchor="middle" x="51.5" y="-44.5" font-family="Arial" font-size="10.00">ABaseWeapon::Fire</text>
</a>
</g>
</g>
<!-- Node2 -->
<g id="Node000002" class="node">
<title>Node2</title>
<g id="a_Node000002"><a xlink:href="class_a_base_weapon.html#aca65357c857be2de97da359100804be2" target="_top" xlink:title=" ">
<polygon fill="white" stroke="#666666" points="281.75,-58 139,-58 139,-38 281.75,-38 281.75,-58"/>
<text text-anchor="middle" x="210.38" y="-44.5" font-family="Arial" font-size="10.00">ABaseWeapon::SpendRound</text>
</a>
</g>
</g>
<!-- Node1&#45;&gt;Node2 -->
<g id="edge1_Node000001_Node000002" class="edge">
<title>Node1&#45;&gt;Node2</title>
<g id="a_edge1_Node000001_Node000002"><a xlink:title=" ">
<path fill="none" stroke="#63b8ff" d="M103.43,-48C111.09,-48 119.16,-48 127.27,-48"/>
<polygon fill="#63b8ff" stroke="#63b8ff" points="127.23,-51.5 137.23,-48 127.23,-44.5 127.23,-51.5"/>
</a>
</g>
</g>
<!-- Node3 -->
<g id="Node000003" class="node">
<title>Node3</title>
<g id="a_Node000003"><a xlink:href="class_a_base_weapon.html#a87839af8ca6d3be01b6521ce105772e2" target="_top" xlink:title=" ">
<polygon fill="white" stroke="#666666" points="489.75,-58 317.75,-58 317.75,-38 489.75,-38 489.75,-58"/>
<text text-anchor="middle" x="403.75" y="-44.5" font-family="Arial" font-size="10.00">ABaseWeapon::ClientUpdateAmmo</text>
</a>
</g>
</g>
<!-- Node2&#45;&gt;Node3 -->
<g id="edge2_Node000002_Node000003" class="edge">
<title>Node2&#45;&gt;Node3</title>
<g id="a_edge2_Node000002_Node000003"><a xlink:title=" ">
<path fill="none" stroke="#63b8ff" d="M282.09,-41.46C289.91,-41.33 297.96,-41.26 306.03,-41.25"/>
<polygon fill="#63b8ff" stroke="#63b8ff" points="305.89,-44.75 315.9,-41.28 305.91,-37.75 305.89,-44.75"/>
</a>
</g>
</g>
<!-- Node4 -->
<g id="Node000004" class="node">
<title>Node4</title>
<g id="a_Node000004"><a xlink:href="class_a_base_weapon.html#a87d9c1d39b25aae299790b857b07182d" target="_top" xlink:title=" ">
<polygon fill="white" stroke="#666666" points="480,-20 327.5,-20 327.5,0 480,0 480,-20"/>
<text text-anchor="middle" x="403.75" y="-6.5" font-family="Arial" font-size="10.00">ABaseWeapon::SetHUDAmmo</text>
</a>
</g>
</g>
<!-- Node2&#45;&gt;Node4 -->
<g id="edge5_Node000002_Node000004" class="edge">
<title>Node2&#45;&gt;Node4</title>
<g id="a_edge5_Node000002_Node000004"><a xlink:title=" ">
<path fill="none" stroke="#63b8ff" d="M264.18,-37.52C287.29,-32.93 314.61,-27.5 338.86,-22.69"/>
<polygon fill="#63b8ff" stroke="#63b8ff" points="339.51,-26.13 348.64,-20.74 338.15,-19.26 339.51,-26.13"/>
</a>
</g>
</g>
<!-- Node3&#45;&gt;Node2 -->
<g id="edge4_Node000003_Node000002" class="edge">
<title>Node3&#45;&gt;Node2</title>
<g id="a_edge4_Node000003_Node000002"><a xlink:title=" ">
<path fill="none" stroke="#63b8ff" d="M317.41,-54.71C309.48,-54.77 301.45,-54.76 293.55,-54.69"/>
<polygon fill="#63b8ff" stroke="#63b8ff" points="293.65,-51.19 283.61,-54.56 293.56,-58.19 293.65,-51.19"/>
</a>
</g>
</g>
<!-- Node3&#45;&gt;Node3 -->
<g id="edge3_Node000003_Node000003" class="edge">
<title>Node3&#45;&gt;Node3</title>
<g id="a_edge3_Node000003_Node000003"><a xlink:title=" ">
<path fill="none" stroke="#63b8ff" d="M373.02,-58.34C359.89,-66.98 370.14,-76 403.75,-76 422.66,-76 434.17,-73.14 438.29,-69.11"/>
<polygon fill="#63b8ff" stroke="#63b8ff" points="441.62,-68.02 434.98,-59.77 435.02,-70.36 441.62,-68.02"/>
</a>
</g>
</g>
</g>
</svg>
