<?xml version="1.0" encoding="UTF-8" standalone="no"?>
<!DOCTYPE svg PUBLIC "-//W3C//DTD SVG 1.1//EN"
 "http://www.w3.org/Graphics/SVG/1.1/DTD/svg11.dtd">
<!-- Generated by graphviz version 12.2.1 (20241206.2353)
 -->
<!-- Title: ABaseWeapon::ClientUpdateAmmo Pages: 1 -->
<svg width="547pt" height="46pt"
 viewBox="0.00 0.00 547.25 46.00" xmlns="http://www.w3.org/2000/svg" xmlns:xlink="http://www.w3.org/1999/xlink">
<g id="graph0" class="graph" transform="scale(1 1) rotate(0) translate(4 42)">
<title>ABaseWeapon::ClientUpdateAmmo</title>
<!-- Node1 -->
<g id="Node000001" class="node">
<title>Node1</title>
<g id="a_Node000001"><a xlink:title=" ">
<polygon fill="#999999" stroke="#666666" points="172,-20 0,-20 0,0 172,0 172,-20"/>
<text text-anchor="middle" x="86" y="-6.5" font-family="Arial" font-size="10.00">ABaseWeapon::ClientUpdateAmmo</text>
</a>
</g>
</g>
<!-- Node1&#45;&gt;Node1 -->
<g id="edge1_Node000001_Node000001" class="edge">
<title>Node1&#45;&gt;Node1</title>
<g id="a_edge1_Node000001_Node000001"><a xlink:title=" ">
<path fill="none" stroke="#63b8ff" d="M55.27,-20.34C42.14,-28.98 52.39,-38 86,-38 104.91,-38 116.42,-35.14 120.54,-31.11"/>
<polygon fill="#63b8ff" stroke="#63b8ff" points="123.87,-30.02 117.23,-21.77 117.27,-32.36 123.87,-30.02"/>
</a>
</g>
</g>
<!-- Node2 -->
<g id="Node000002" class="node">
<title>Node2</title>
<g id="a_Node000002"><a xlink:href="class_a_base_weapon.html#aca65357c857be2de97da359100804be2" target="_top" xlink:title=" ">
<polygon fill="white" stroke="#666666" points="350.75,-20 208,-20 208,0 350.75,0 350.75,-20"/>
<text text-anchor="middle" x="279.38" y="-6.5" font-family="Arial" font-size="10.00">ABaseWeapon::SpendRound</text>
</a>
</g>
</g>
<!-- Node1&#45;&gt;Node2 -->
<g id="edge2_Node000001_Node000002" class="edge">
<title>Node1&#45;&gt;Node2</title>
<g id="a_edge2_Node000001_Node000002"><a xlink:title=" ">
<path fill="none" stroke="#63b8ff" d="M172.33,-3.29C180.24,-3.23 188.23,-3.24 196.11,-3.31"/>
<polygon fill="#63b8ff" stroke="#63b8ff" points="195.97,-6.81 206.02,-3.44 196.06,0.19 195.97,-6.81"/>
</a>
</g>
</g>
<!-- Node2&#45;&gt;Node1 -->
<g id="edge3_Node000002_Node000001" class="edge">
<title>Node2&#45;&gt;Node1</title>
<g id="a_edge3_Node000002_Node000001"><a xlink:title=" ">
<path fill="none" stroke="#63b8ff" d="M207.53,-16.54C199.74,-16.68 191.71,-16.74 183.68,-16.75"/>
<polygon fill="#63b8ff" stroke="#63b8ff" points="183.86,-13.25 173.85,-16.72 183.84,-20.25 183.86,-13.25"/>
</a>
</g>
</g>
<!-- Node3 -->
<g id="Node000003" class="node">
<title>Node3</title>
<g id="a_Node000003"><a xlink:href="class_a_base_weapon.html#a87d9c1d39b25aae299790b857b07182d" target="_top" xlink:title=" ">
<polygon fill="white" stroke="#666666" points="539.25,-20 386.75,-20 386.75,0 539.25,0 539.25,-20"/>
<text text-anchor="middle" x="463" y="-6.5" font-family="Arial" font-size="10.00">ABaseWeapon::SetHUDAmmo</text>
</a>
</g>
</g>
<!-- Node2&#45;&gt;Node3 -->
<g id="edge4_Node000002_Node000003" class="edge">
<title>Node2&#45;&gt;Node3</title>
<g id="a_edge4_Node000002_Node000003"><a xlink:title=" ">
<path fill="none" stroke="#63b8ff" d="M351.12,-10C358.97,-10 367.03,-10 375.06,-10"/>
<polygon fill="#63b8ff" stroke="#63b8ff" points="374.83,-13.5 384.83,-10 374.83,-6.5 374.83,-13.5"/>
</a>
</g>
</g>
</g>
</svg>
