<?xml version="1.0" encoding="UTF-8" standalone="no"?>
<!DOCTYPE svg PUBLIC "-//W3C//DTD SVG 1.1//EN"
 "http://www.w3.org/Graphics/SVG/1.1/DTD/svg11.dtd">
<!-- Generated by graphviz version 12.2.1 (20241206.2353)
 -->
<!-- Title: ABaseWeapon::Multicast_StartFiring Pages: 1 -->
<svg width="698pt" height="58pt"
 viewBox="0.00 0.00 697.50 58.00" xmlns="http://www.w3.org/2000/svg" xmlns:xlink="http://www.w3.org/1999/xlink">
<g id="graph0" class="graph" transform="scale(1 1) rotate(0) translate(4 54)">
<title>ABaseWeapon::Multicast_StartFiring</title>
<!-- Node1 -->
<g id="Node000001" class="node">
<title>Node1</title>
<g id="a_Node000001"><a xlink:title=" ">
<polygon fill="#999999" stroke="#666666" points="126.25,-32 0,-32 0,0 126.25,0 126.25,-32"/>
<text text-anchor="start" x="8" y="-18.5" font-family="Arial" font-size="10.00">ABaseWeapon::Multicast</text>
<text text-anchor="middle" x="63.12" y="-6.5" font-family="Arial" font-size="10.00">_StartFiring</text>
</a>
</g>
</g>
<!-- Node1&#45;&gt;Node1 -->
<g id="edge4_Node000001_Node000001" class="edge">
<title>Node1&#45;&gt;Node1</title>
<g id="a_edge4_Node000001_Node000001"><a xlink:title=" ">
<path fill="none" stroke="#63b8ff" d="M34.43,-32.44C29.07,-41.58 38.64,-50 63.12,-50 76.52,-50 85.45,-47.48 89.91,-43.71"/>
<polygon fill="#63b8ff" stroke="#63b8ff" points="93.35,-44.38 91.57,-33.93 86.45,-43.21 93.35,-44.38"/>
</a>
</g>
</g>
<!-- Node2 -->
<g id="Node000002" class="node">
<title>Node2</title>
<g id="a_Node000002"><a xlink:href="class_a_base_weapon.html#a25b946563e149541edc2fa7b4ddd6aff" target="_top" xlink:title=" ">
<polygon fill="white" stroke="#666666" points="285.5,-26 162.25,-26 162.25,-6 285.5,-6 285.5,-26"/>
<text text-anchor="middle" x="223.88" y="-12.5" font-family="Arial" font-size="10.00">ABaseWeapon::Dropped</text>
</a>
</g>
</g>
<!-- Node1&#45;&gt;Node2 -->
<g id="edge1_Node000001_Node000002" class="edge">
<title>Node1&#45;&gt;Node2</title>
<g id="a_edge1_Node000001_Node000002"><a xlink:title=" ">
<path fill="none" stroke="#63b8ff" d="M126.41,-16C134.32,-16 142.47,-16 150.52,-16"/>
<polygon fill="#63b8ff" stroke="#63b8ff" points="150.3,-19.5 160.29,-16 150.29,-12.5 150.3,-19.5"/>
</a>
</g>
</g>
<!-- Node3 -->
<g id="Node000003" class="node">
<title>Node3</title>
<g id="a_Node000003"><a xlink:href="class_a_base_weapon.html#aae35128d6be3419b9168545b83b85ef3" target="_top" xlink:title=" ">
<polygon fill="white" stroke="#666666" points="481.5,-26 321.5,-26 321.5,-6 481.5,-6 481.5,-26"/>
<text text-anchor="middle" x="401.5" y="-12.5" font-family="Arial" font-size="10.00">ABaseWeapon::SetWeaponState</text>
</a>
</g>
</g>
<!-- Node2&#45;&gt;Node3 -->
<g id="edge2_Node000002_Node000003" class="edge">
<title>Node2&#45;&gt;Node3</title>
<g id="a_edge2_Node000002_Node000003"><a xlink:title=" ">
<path fill="none" stroke="#63b8ff" d="M285.81,-16C293.55,-16 301.6,-16 309.69,-16"/>
<polygon fill="#63b8ff" stroke="#63b8ff" points="309.6,-19.5 319.6,-16 309.6,-12.5 309.6,-19.5"/>
</a>
</g>
</g>
<!-- Node4 -->
<g id="Node000004" class="node">
<title>Node4</title>
<g id="a_Node000004"><a xlink:href="class_a_base_weapon.html#ab36fec83b451fb0e7850ba06f4e6d2b2" target="_top" xlink:title=" ">
<polygon fill="white" stroke="#666666" points="689.5,-26 517.5,-26 517.5,-6 689.5,-6 689.5,-26"/>
<text text-anchor="middle" x="603.5" y="-12.5" font-family="Arial" font-size="10.00">ABaseWeapon::ShowPickupWidget</text>
</a>
</g>
</g>
<!-- Node3&#45;&gt;Node4 -->
<g id="edge3_Node000003_Node000004" class="edge">
<title>Node3&#45;&gt;Node4</title>
<g id="a_edge3_Node000003_Node000004"><a xlink:title=" ">
<path fill="none" stroke="#63b8ff" d="M481.83,-16C489.69,-16 497.73,-16 505.73,-16"/>
<polygon fill="#63b8ff" stroke="#63b8ff" points="505.5,-19.5 515.5,-16 505.5,-12.5 505.5,-19.5"/>
</a>
</g>
</g>
</g>
</svg>
