<?xml version="1.0" encoding="UTF-8" standalone="no"?>
<!DOCTYPE svg PUBLIC "-//W3C//DTD SVG 1.1//EN"
 "http://www.w3.org/Graphics/SVG/1.1/DTD/svg11.dtd">
<!-- Generated by graphviz version 12.2.1 (20241206.2353)
 -->
<!-- Title: Graphical Class Hierarchy Pages: 1 -->
<svg width="305pt" height="66pt"
 viewBox="0.00 0.00 305.00 66.00" xmlns="http://www.w3.org/2000/svg" xmlns:xlink="http://www.w3.org/1999/xlink">
<g id="graph0" class="graph" transform="scale(1 1) rotate(0) translate(4 62)">
<title>Graphical Class Hierarchy</title>
<!-- Node0 -->
<g id="Node000000" class="node">
<title>Node0</title>
<g id="a_Node000000"><a xlink:title=" ">
<polygon fill="#e0e0e0" stroke="#999999" points="46,-39 0,-39 0,-19 46,-19 46,-39"/>
<text text-anchor="middle" x="23" y="-25.5" font-family="Arial" font-size="10.00">AActor</text>
</a>
</g>
</g>
<!-- Node1 -->
<g id="Node000001" class="node">
<title>Node1</title>
<g id="a_Node000001"><a xlink:href="class_a_base_weapon.html" target="_top" xlink:title=" ">
<polygon fill="white" stroke="#666666" points="162.5,-58 82,-58 82,-38 162.5,-38 162.5,-58"/>
<text text-anchor="middle" x="122.25" y="-44.5" font-family="Arial" font-size="10.00">ABaseWeapon</text>
</a>
</g>
</g>
<!-- Node0&#45;&gt;Node1 -->
<g id="edge1_Node000000_Node000001" class="edge">
<title>Node0&#45;&gt;Node1</title>
<g id="a_edge1_Node000000_Node000001"><a xlink:title=" ">
<path fill="none" stroke="#63b8ff" d="M57.1,-35.47C65.01,-37.01 73.53,-38.68 81.69,-40.27"/>
<polygon fill="#63b8ff" stroke="#63b8ff" points="58.04,-32.08 47.55,-33.6 56.7,-38.95 58.04,-32.08"/>
</a>
</g>
</g>
<!-- Node3 -->
<g id="Node000003" class="node">
<title>Node3</title>
<g id="a_Node000003"><a xlink:href="class_a_projectile.html" target="_top" xlink:title=" ">
<polygon fill="white" stroke="#666666" points="153.88,-20 90.62,-20 90.62,0 153.88,0 153.88,-20"/>
<text text-anchor="middle" x="122.25" y="-6.5" font-family="Arial" font-size="10.00">AProjectile</text>
</a>
</g>
</g>
<!-- Node0&#45;&gt;Node3 -->
<g id="edge3_Node000000_Node000003" class="edge">
<title>Node0&#45;&gt;Node3</title>
<g id="a_edge3_Node000000_Node000003"><a xlink:title=" ">
<path fill="none" stroke="#63b8ff" d="M57.19,-22.52C67.95,-20.41 79.84,-18.09 90.42,-16.02"/>
<polygon fill="#63b8ff" stroke="#63b8ff" points="56.7,-19.05 47.55,-24.4 58.04,-25.92 56.7,-19.05"/>
</a>
</g>
</g>
<!-- Node2 -->
<g id="Node000002" class="node">
<title>Node2</title>
<g id="a_Node000002"><a xlink:href="class_a_projectile_weapon.html" target="_top" xlink:title=" ">
<polygon fill="white" stroke="#666666" points="297,-58 198.5,-58 198.5,-38 297,-38 297,-58"/>
<text text-anchor="middle" x="247.75" y="-44.5" font-family="Arial" font-size="10.00">AProjectileWeapon</text>
</a>
</g>
</g>
<!-- Node1&#45;&gt;Node2 -->
<g id="edge2_Node000001_Node000002" class="edge">
<title>Node1&#45;&gt;Node2</title>
<g id="a_edge2_Node000001_Node000002"><a xlink:title=" ">
<path fill="none" stroke="#63b8ff" d="M174.09,-48C182.06,-48 190.27,-48 198.18,-48"/>
<polygon fill="#63b8ff" stroke="#63b8ff" points="174.18,-44.5 164.18,-48 174.18,-51.5 174.18,-44.5"/>
</a>
</g>
</g>
<!-- Node4 -->
<g id="Node000004" class="node">
<title>Node4</title>
<g id="a_Node000004"><a xlink:href="class_a_projectile_bullet.html" target="_top" xlink:title=" ">
<polygon fill="white" stroke="#666666" points="291.75,-20 203.75,-20 203.75,0 291.75,0 291.75,-20"/>
<text text-anchor="middle" x="247.75" y="-6.5" font-family="Arial" font-size="10.00">AProjectileBullet</text>
</a>
</g>
</g>
<!-- Node3&#45;&gt;Node4 -->
<g id="edge4_Node000003_Node000004" class="edge">
<title>Node3&#45;&gt;Node4</title>
<g id="a_edge4_Node000003_Node000004"><a xlink:title=" ">
<path fill="none" stroke="#63b8ff" d="M165.39,-10C177.6,-10 190.96,-10 203.26,-10"/>
<polygon fill="#63b8ff" stroke="#63b8ff" points="165.61,-6.5 155.61,-10 165.61,-13.5 165.61,-6.5"/>
</a>
</g>
</g>
</g>
</svg>
