<?xml version="1.0" encoding="UTF-8" standalone="no"?>
<!DOCTYPE svg PUBLIC "-//W3C//DTD SVG 1.1//EN"
 "http://www.w3.org/Graphics/SVG/1.1/DTD/svg11.dtd">
<!-- Generated by graphviz version 12.2.1 (20241206.2353)
 -->
<!-- Title: MyPlayerController.h Pages: 1 -->
<svg width="575pt" height="84pt"
 viewBox="0.00 0.00 575.12 84.00" xmlns="http://www.w3.org/2000/svg" xmlns:xlink="http://www.w3.org/1999/xlink">
<g id="graph0" class="graph" transform="scale(1 1) rotate(0) translate(4 80)">
<title>MyPlayerController.h</title>
<!-- Node1 -->
<g id="Node000001" class="node">
<title>Node1</title>
<g id="a_Node000001"><a xlink:title=" ">
<polygon fill="#999999" stroke="#666666" points="316.25,-76 208.75,-76 208.75,-56 316.25,-56 316.25,-76"/>
<text text-anchor="middle" x="262.5" y="-62.5" font-family="Arial" font-size="10.00">MyPlayerController.h</text>
</a>
</g>
</g>
<!-- Node2 -->
<g id="Node000002" class="node">
<title>Node2</title>
<g id="a_Node000002"><a xlink:title=" ">
<polygon fill="#e0e0e0" stroke="#999999" points="79,-20 0,-20 0,0 79,0 79,-20"/>
<text text-anchor="middle" x="39.5" y="-6.5" font-family="Arial" font-size="10.00">CoreMinimal.h</text>
</a>
</g>
</g>
<!-- Node1&#45;&gt;Node2 -->
<g id="edge1_Node000001_Node000002" class="edge">
<title>Node1&#45;&gt;Node2</title>
<g id="a_edge1_Node000001_Node000002"><a xlink:title=" ">
<path fill="none" stroke="#63b8ff" d="M223.4,-55.53C186.18,-46.52 129.99,-32.91 89.52,-23.11"/>
<polygon fill="#63b8ff" stroke="#63b8ff" points="90.57,-19.77 80.02,-20.81 88.92,-26.57 90.57,-19.77"/>
</a>
</g>
</g>
<!-- Node3 -->
<g id="Node000003" class="node">
<title>Node3</title>
<g id="a_Node000003"><a xlink:title=" ">
<polygon fill="#e0e0e0" stroke="#999999" points="269.5,-20 97.5,-20 97.5,0 269.5,0 269.5,-20"/>
<text text-anchor="middle" x="183.5" y="-6.5" font-family="Arial" font-size="10.00">GameFramework/PlayerController.h</text>
</a>
</g>
</g>
<!-- Node1&#45;&gt;Node3 -->
<g id="edge2_Node000001_Node000003" class="edge">
<title>Node1&#45;&gt;Node3</title>
<g id="a_edge2_Node000001_Node000003"><a xlink:title=" ">
<path fill="none" stroke="#63b8ff" d="M248.74,-55.59C237.14,-47.67 220.3,-36.16 206.64,-26.82"/>
<polygon fill="#63b8ff" stroke="#63b8ff" points="208.85,-24.09 198.62,-21.33 204.9,-29.87 208.85,-24.09"/>
</a>
</g>
</g>
<!-- Node4 -->
<g id="Node000004" class="node">
<title>Node4</title>
<g id="a_Node000004"><a xlink:title=" ">
<polygon fill="#e0e0e0" stroke="#999999" points="395.62,-20 287.38,-20 287.38,0 395.62,0 395.62,-20"/>
<text text-anchor="middle" x="341.5" y="-6.5" font-family="Arial" font-size="10.00">Sound/SoundClass.h</text>
</a>
</g>
</g>
<!-- Node1&#45;&gt;Node4 -->
<g id="edge3_Node000001_Node000004" class="edge">
<title>Node1&#45;&gt;Node4</title>
<g id="a_edge3_Node000001_Node000004"><a xlink:title=" ">
<path fill="none" stroke="#63b8ff" d="M276.26,-55.59C287.86,-47.67 304.7,-36.16 318.36,-26.82"/>
<polygon fill="#63b8ff" stroke="#63b8ff" points="320.1,-29.87 326.38,-21.33 316.15,-24.09 320.1,-29.87"/>
</a>
</g>
</g>
<!-- Node5 -->
<g id="Node000005" class="node">
<title>Node5</title>
<g id="a_Node000005"><a xlink:title=" ">
<polygon fill="#e0e0e0" stroke="#999999" points="567.12,-20 413.88,-20 413.88,0 567.12,0 567.12,-20"/>
<text text-anchor="middle" x="490.5" y="-6.5" font-family="Arial" font-size="10.00">MyPlayerController.generated.h</text>
</a>
</g>
</g>
<!-- Node1&#45;&gt;Node5 -->
<g id="edge4_Node000001_Node000005" class="edge">
<title>Node1&#45;&gt;Node5</title>
<g id="a_edge4_Node000001_Node000005"><a xlink:title=" ">
<path fill="none" stroke="#63b8ff" d="M302.48,-55.53C340.61,-46.5 398.22,-32.85 439.62,-23.05"/>
<polygon fill="#63b8ff" stroke="#63b8ff" points="440.17,-26.52 449.1,-20.81 438.56,-19.7 440.17,-26.52"/>
</a>
</g>
</g>
</g>
</svg>
