<?xml version="1.0" encoding="UTF-8" standalone="no"?>
<!DOCTYPE svg PUBLIC "-//W3C//DTD SVG 1.1//EN"
 "http://www.w3.org/Graphics/SVG/1.1/DTD/svg11.dtd">
<!-- Generated by graphviz version 12.2.1 (20241206.2353)
 -->
<!-- Title: MyPlayerController.cpp Pages: 1 -->
<!--zoomable 152 -->

<svg id="main" version="1.1" xmlns="http://www.w3.org/2000/svg" xmlns:xlink="http://www.w3.org/1999/xlink" xml:space="preserve" onload="init(evt)">

<style type="text/css"><![CDATA[
.node, .edge {opacity: 0.7;}
.node.selected, .edge.selected {opacity: 1;}
.edge:hover path { stroke: red; }
.edge:hover polygon { stroke: red; fill: red; }
]]></style>

<defs>
  <circle id="rim" cx="0" cy="0" r="7"/>
  <circle id="rim2" cx="0" cy="0" r="3.5"/>
  <g id="zoomPlus">
    <use xlink:href="#rim" fill="#404040"><set attributeName="fill" to="#808080" begin="zoomplus.mouseover" end="zoomplus.mouseout"/></use>
    <path d="M-4,0h8M0,-4v8" fill="none" stroke="white" stroke-width="1.5" pointer-events="none"/>
  </g>
  <g id="zoomMin">
    <use xlink:href="#rim" fill="#404040"><set attributeName="fill" to="#808080" begin="zoomminus.mouseover" end="zoomminus.mouseout"/></use>
    <path d="M-4,0h8" fill="none" stroke="white" stroke-width="1.5" pointer-events="none"/>
  </g>
  <g id="arrowUp" transform="translate(30 24)">
    <use xlink:href="#rim"/>
    <path pointer-events="none" fill="none" stroke="white" stroke-width="1.5" d="M0,-3.0v7 M-2.5,-0.5L0,-3.0L2.5,-0.5"/>
  </g>
  <g id="arrowRight" transform="rotate(90) translate(36 -43)">
    <use xlink:href="#rim"/>
    <path pointer-events="none" fill="none" stroke="white" stroke-width="1.5" d="M0,-3.0v7 M-2.5,-0.5L0,-3.0L2.5,-0.5"/>
  </g>
  <g id="arrowDown" transform="rotate(180) translate(-30 -48)">
    <use xlink:href="#rim"/>
    <path pointer-events="none" fill="none" stroke="white" stroke-width="1.5" d="M0,-3.0v7 M-2.5,-0.5L0,-3.0L2.5,-0.5"/>
  </g>
  <g id="arrowLeft" transform="rotate(270) translate(-36 17)">
    <use xlink:href="#rim"/>
    <path pointer-events="none" fill="none" stroke="white" stroke-width="1.5" d="M0,-3.0v7 M-2.5,-0.5L0,-3.0L2.5,-0.5"/>
  </g>
  <g id="resetDef">
    <use xlink:href="#rim2" fill="#404040"><set attributeName="fill" to="#808080" begin="reset.mouseover" end="reset.mouseout"/></use>
  </g>
</defs>
<script type="application/ecmascript">
var viewWidth = 3986;
var viewHeight = 152;
var sectionId = 'dynsection-0';
</script>
<script type="application/ecmascript" xlink:href="svg.min.js"/>
<svg id="graph" class="graph">
<g id="viewport">
<title>MyPlayerController.cpp</title>
<!-- Node1 -->
<g id="Node000001" class="node">
<title>Node1</title>
<g id="a_Node000001"><a xlink:title=" ">
<polygon fill="#999999" stroke="#666666" points="2091.5,-144 1973.5,-144 1973.5,-124 2091.5,-124 2091.5,-144"/>
<text text-anchor="middle" x="2032.5" y="-130.5" font-family="Arial" font-size="10.00">MyPlayerController.cpp</text>
</a>
</g>
</g>
<!-- Node2 -->
<g id="Node000002" class="node">
<title>Node2</title>
<g id="a_Node000002"><a xlink:href="_my_player_controller_8h.html" target="_top" xlink:title=" ">
<polygon fill="white" stroke="#666666" points="316.25,-82 208.75,-82 208.75,-62 316.25,-62 316.25,-82"/>
<text text-anchor="middle" x="262.5" y="-68.5" font-family="Arial" font-size="10.00">MyPlayerController.h</text>
</a>
</g>
</g>
<!-- Node1&#45;&gt;Node2 -->
<g id="edge1_Node000001_Node000002" class="edge">
<title>Node1&#45;&gt;Node2</title>
<g id="a_edge1_Node000001_Node000002"><a xlink:title=" ">
<path fill="none" stroke="#63b8ff" d="M1973.27,-133.09C1711.18,-133.21 654.18,-130.99 325.5,-88 319.73,-87.24 313.71,-86.18 307.78,-84.96"/>
<polygon fill="#63b8ff" stroke="#63b8ff" points="308.59,-81.56 298.07,-82.81 307.07,-88.39 308.59,-81.56"/>
</a>
</g>
</g>
<!-- Node7 -->
<g id="Node000007" class="node">
<title>Node7</title>
<g id="a_Node000007"><a xlink:title=" ">
<polygon fill="#e0e0e0" stroke="#999999" points="414.38,-82 334.62,-82 334.62,-62 414.38,-62 414.38,-82"/>
<text text-anchor="middle" x="374.5" y="-68.5" font-family="Arial" font-size="10.00">AudioDevice.h</text>
</a>
</g>
</g>
<!-- Node1&#45;&gt;Node7 -->
<g id="edge6_Node000001_Node000007" class="edge">
<title>Node1&#45;&gt;Node7</title>
<g id="a_edge6_Node000001_Node000007"><a xlink:title=" ">
<path fill="none" stroke="#63b8ff" d="M1973.35,-132.29C1701.48,-128.89 578.45,-113.4 423.5,-88 419.65,-87.37 415.69,-86.51 411.75,-85.53"/>
<polygon fill="#63b8ff" stroke="#63b8ff" points="412.92,-82.22 402.35,-82.91 411.04,-88.97 412.92,-82.22"/>
</a>
</g>
</g>
<!-- Node8 -->
<g id="Node000008" class="node">
<title>Node8</title>
<g id="a_Node000008"><a xlink:title=" ">
<polygon fill="#e0e0e0" stroke="#999999" points="529,-88 432,-88 432,-56 529,-56 529,-88"/>
<text text-anchor="start" x="440" y="-74.5" font-family="Arial" font-size="10.00">MultiplayerShooter</text>
<text text-anchor="middle" x="480.5" y="-62.5" font-family="Arial" font-size="10.00">/HUD/MainHUD.h</text>
</a>
</g>
</g>
<!-- Node1&#45;&gt;Node8 -->
<g id="edge7_Node000001_Node000008" class="edge">
<title>Node1&#45;&gt;Node8</title>
<g id="a_edge7_Node000001_Node000008"><a xlink:title=" ">
<path fill="none" stroke="#63b8ff" d="M1973.05,-133.01C1734.31,-132.78 843.9,-129.23 540.46,-88.18"/>
<polygon fill="#63b8ff" stroke="#63b8ff" points="541.37,-84.78 530.98,-86.85 540.4,-91.71 541.37,-84.78"/>
</a>
</g>
</g>
<!-- Node9 -->
<g id="Node000009" class="node">
<title>Node9</title>
<g id="a_Node000009"><a xlink:title=" ">
<polygon fill="#e0e0e0" stroke="#999999" points="678.25,-88 546.75,-88 546.75,-56 678.25,-56 678.25,-88"/>
<text text-anchor="start" x="554.75" y="-74.5" font-family="Arial" font-size="10.00">MultiplayerShooter</text>
<text text-anchor="middle" x="612.5" y="-62.5" font-family="Arial" font-size="10.00">//HUD/CharacterOverlay.h</text>
</a>
</g>
</g>
<!-- Node1&#45;&gt;Node9 -->
<g id="edge8_Node000001_Node000009" class="edge">
<title>Node1&#45;&gt;Node9</title>
<g id="a_edge8_Node000001_Node000009"><a xlink:title=" ">
<path fill="none" stroke="#63b8ff" d="M1973.03,-132.31C1750.19,-129.51 963.83,-117.82 689.76,-88.09"/>
<polygon fill="#63b8ff" stroke="#63b8ff" points="690.49,-84.65 680.16,-87.01 689.71,-91.61 690.49,-84.65"/>
</a>
</g>
</g>
<!-- Node10 -->
<g id="Node000010" class="node">
<title>Node10</title>
<g id="a_Node000010"><a xlink:title=" ">
<polygon fill="#e0e0e0" stroke="#999999" points="832.88,-82 696.12,-82 696.12,-62 832.88,-62 832.88,-82"/>
<text text-anchor="middle" x="764.5" y="-68.5" font-family="Arial" font-size="10.00">Components/ProgressBar.h</text>
</a>
</g>
</g>
<!-- Node1&#45;&gt;Node10 -->
<g id="edge9_Node000001_Node000010" class="edge">
<title>Node1&#45;&gt;Node10</title>
<g id="a_edge9_Node000001_Node000010"><a xlink:title=" ">
<path fill="none" stroke="#63b8ff" d="M1973.22,-131.95C1764.64,-128.08 1065.24,-113.48 842.5,-88 834.68,-87.11 826.47,-85.86 818.43,-84.47"/>
<polygon fill="#63b8ff" stroke="#63b8ff" points="819.19,-81.06 808.72,-82.7 817.93,-87.94 819.19,-81.06"/>
</a>
</g>
</g>
<!-- Node11 -->
<g id="Node000011" class="node">
<title>Node11</title>
<g id="a_Node000011"><a xlink:title=" ">
<polygon fill="#e0e0e0" stroke="#999999" points="975.88,-82 851.12,-82 851.12,-62 975.88,-62 975.88,-82"/>
<text text-anchor="middle" x="913.5" y="-68.5" font-family="Arial" font-size="10.00">Components/ScrollBox.h</text>
</a>
</g>
</g>
<!-- Node1&#45;&gt;Node11 -->
<g id="edge10_Node000001_Node000011" class="edge">
<title>Node1&#45;&gt;Node11</title>
<g id="a_edge10_Node000001_Node000011"><a xlink:title=" ">
<path fill="none" stroke="#63b8ff" d="M1973.08,-131.74C1780.97,-127.47 1177.94,-112.42 984.5,-88 977.77,-87.15 970.74,-86 963.82,-84.7"/>
<polygon fill="#63b8ff" stroke="#63b8ff" points="964.71,-81.31 954.22,-82.79 963.35,-88.18 964.71,-81.31"/>
</a>
</g>
</g>
<!-- Node12 -->
<g id="Node000012" class="node">
<title>Node12</title>
<g id="a_Node000012"><a xlink:title=" ">
<polygon fill="#e0e0e0" stroke="#999999" points="1101.25,-82 993.75,-82 993.75,-62 1101.25,-62 1101.25,-82"/>
<text text-anchor="middle" x="1047.5" y="-68.5" font-family="Arial" font-size="10.00">Components/Slider.h</text>
</a>
</g>
</g>
<!-- Node1&#45;&gt;Node12 -->
<g id="edge11_Node000001_Node000012" class="edge">
<title>Node1&#45;&gt;Node12</title>
<g id="a_edge11_Node000001_Node000012"><a xlink:title=" ">
<path fill="none" stroke="#63b8ff" d="M1973.19,-131.54C1796.92,-126.97 1278.09,-111.83 1110.5,-88 1104.87,-87.2 1099.01,-86.13 1093.22,-84.93"/>
<polygon fill="#63b8ff" stroke="#63b8ff" points="1094.27,-81.58 1083.75,-82.82 1092.75,-88.41 1094.27,-81.58"/>
</a>
</g>
</g>
<!-- Node13 -->
<g id="Node000013" class="node">
<title>Node13</title>
<g id="a_Node000013"><a xlink:title=" ">
<polygon fill="#e0e0e0" stroke="#999999" points="1245.62,-82 1119.38,-82 1119.38,-62 1245.62,-62 1245.62,-82"/>
<text text-anchor="middle" x="1182.5" y="-68.5" font-family="Arial" font-size="10.00">Components/TextBlock.h</text>
</a>
</g>
</g>
<!-- Node1&#45;&gt;Node13 -->
<g id="edge12_Node000001_Node000013" class="edge">
<title>Node1&#45;&gt;Node13</title>
<g id="a_edge12_Node000001_Node000013"><a xlink:title=" ">
<path fill="none" stroke="#63b8ff" d="M1973.17,-132.55C1842.67,-130.9 1521.07,-123.28 1254.5,-88 1247.77,-87.11 1240.73,-85.94 1233.8,-84.65"/>
<polygon fill="#63b8ff" stroke="#63b8ff" points="1234.66,-81.25 1224.17,-82.76 1233.31,-88.12 1234.66,-81.25"/>
</a>
</g>
</g>
<!-- Node14 -->
<g id="Node000014" class="node">
<title>Node14</title>
<g id="a_Node000014"><a xlink:title=" ">
<polygon fill="#e0e0e0" stroke="#999999" points="1445.75,-88 1263.25,-88 1263.25,-56 1445.75,-56 1445.75,-88"/>
<text text-anchor="start" x="1271.25" y="-74.5" font-family="Arial" font-size="10.00">GameFramework/CharacterMovement</text>
<text text-anchor="middle" x="1354.5" y="-62.5" font-family="Arial" font-size="10.00">Component.h</text>
</a>
</g>
</g>
<!-- Node1&#45;&gt;Node14 -->
<g id="edge13_Node000001_Node000014" class="edge">
<title>Node1&#45;&gt;Node14</title>
<g id="a_edge13_Node000001_Node000014"><a xlink:title=" ">
<path fill="none" stroke="#63b8ff" d="M1973.29,-129.79C1870.48,-123.9 1652.04,-110.05 1457.33,-88.27"/>
<polygon fill="#63b8ff" stroke="#63b8ff" points="1457.85,-84.81 1447.52,-87.16 1457.07,-91.76 1457.85,-84.81"/>
</a>
</g>
</g>
<!-- Node15 -->
<g id="Node000015" class="node">
<title>Node15</title>
<g id="a_Node000015"><a xlink:title=" ">
<polygon fill="#e0e0e0" stroke="#999999" points="1621.38,-88 1463.62,-88 1463.62,-56 1621.38,-56 1621.38,-88"/>
<text text-anchor="start" x="1471.62" y="-74.5" font-family="Arial" font-size="10.00">MultiplayerShooter</text>
<text text-anchor="middle" x="1542.5" y="-62.5" font-family="Arial" font-size="10.00">/MainCharacter/MainCharacter.h</text>
</a>
</g>
</g>
<!-- Node1&#45;&gt;Node15 -->
<g id="edge14_Node000001_Node000015" class="edge">
<title>Node1&#45;&gt;Node15</title>
<g id="a_edge14_Node000001_Node000015"><a xlink:title=" ">
<path fill="none" stroke="#63b8ff" d="M1973.11,-127.43C1896.77,-120.02 1759.88,-105.95 1632.71,-88.26"/>
<polygon fill="#63b8ff" stroke="#63b8ff" points="1633.51,-84.84 1623.12,-86.92 1632.54,-91.77 1633.51,-84.84"/>
</a>
</g>
</g>
<!-- Node16 -->
<g id="Node000016" class="node">
<title>Node16</title>
<g id="a_Node000016"><a xlink:title=" ">
<polygon fill="#e0e0e0" stroke="#999999" points="1747.62,-82 1639.38,-82 1639.38,-62 1747.62,-62 1747.62,-82"/>
<text text-anchor="middle" x="1693.5" y="-68.5" font-family="Arial" font-size="10.00">Net/UnrealNetwork.h</text>
</a>
</g>
</g>
<!-- Node1&#45;&gt;Node16 -->
<g id="edge15_Node000001_Node000016" class="edge">
<title>Node1&#45;&gt;Node16</title>
<g id="a_edge15_Node000001_Node000016"><a xlink:title=" ">
<path fill="none" stroke="#63b8ff" d="M1973.05,-124.57C1917.01,-116.33 1830.76,-102.87 1756.5,-88 1751.91,-87.08 1747.15,-86.06 1742.39,-85.01"/>
<polygon fill="#63b8ff" stroke="#63b8ff" points="1743.39,-81.64 1732.86,-82.82 1741.82,-88.47 1743.39,-81.64"/>
</a>
</g>
</g>
<!-- Node17 -->
<g id="Node000017" class="node">
<title>Node17</title>
<g id="a_Node000017"><a xlink:title=" ">
<polygon fill="#e0e0e0" stroke="#999999" points="1917.38,-88 1765.62,-88 1765.62,-56 1917.38,-56 1917.38,-88"/>
<text text-anchor="start" x="1773.62" y="-74.5" font-family="Arial" font-size="10.00">MultiplayerShooter</text>
<text text-anchor="middle" x="1841.5" y="-62.5" font-family="Arial" font-size="10.00">/GameMode/MainGameMode.h</text>
</a>
</g>
</g>
<!-- Node1&#45;&gt;Node17 -->
<g id="edge16_Node000001_Node000017" class="edge">
<title>Node1&#45;&gt;Node17</title>
<g id="a_edge16_Node000001_Node000017"><a xlink:title=" ">
<path fill="none" stroke="#63b8ff" d="M2002.66,-123.62C1975.67,-115.15 1935.14,-102.42 1901.47,-91.84"/>
<polygon fill="#63b8ff" stroke="#63b8ff" points="1902.84,-88.6 1892.26,-88.94 1900.75,-95.28 1902.84,-88.6"/>
</a>
</g>
</g>
<!-- Node18 -->
<g id="Node000018" class="node">
<title>Node18</title>
<g id="a_Node000018"><a xlink:title=" ">
<polygon fill="#e0e0e0" stroke="#999999" points="2129.38,-88 1935.62,-88 1935.62,-56 2129.38,-56 2129.38,-88"/>
<text text-anchor="start" x="1943.62" y="-74.5" font-family="Arial" font-size="10.00">MultiplayerShooter</text>
<text text-anchor="middle" x="2032.5" y="-62.5" font-family="Arial" font-size="10.00">/ActorComponents/CombatComponent.h</text>
</a>
</g>
</g>
<!-- Node1&#45;&gt;Node18 -->
<g id="edge17_Node000001_Node000018" class="edge">
<title>Node1&#45;&gt;Node18</title>
<g id="a_edge17_Node000001_Node000018"><a xlink:title=" ">
<path fill="none" stroke="#63b8ff" d="M2032.5,-123.62C2032.5,-117.1 2032.5,-108.05 2032.5,-99.4"/>
<polygon fill="#63b8ff" stroke="#63b8ff" points="2036,-99.65 2032.5,-89.65 2029,-99.65 2036,-99.65"/>
</a>
</g>
</g>
<!-- Node19 -->
<g id="Node000019" class="node">
<title>Node19</title>
<g id="a_Node000019"><a xlink:title=" ">
<polygon fill="#e0e0e0" stroke="#999999" points="2293.38,-88 2147.62,-88 2147.62,-56 2293.38,-56 2293.38,-88"/>
<text text-anchor="start" x="2155.62" y="-74.5" font-family="Arial" font-size="10.00">MultiplayerShooter</text>
<text text-anchor="middle" x="2220.5" y="-62.5" font-family="Arial" font-size="10.00">/BaseWeapon/BaseWeapon.h</text>
</a>
</g>
</g>
<!-- Node1&#45;&gt;Node19 -->
<g id="edge18_Node000001_Node000019" class="edge">
<title>Node1&#45;&gt;Node19</title>
<g id="a_edge18_Node000001_Node000019"><a xlink:title=" ">
<path fill="none" stroke="#63b8ff" d="M2061.88,-123.62C2088.32,-115.19 2127.99,-102.53 2161.04,-91.98"/>
<polygon fill="#63b8ff" stroke="#63b8ff" points="2162.06,-95.33 2170.52,-88.95 2159.93,-88.66 2162.06,-95.33"/>
</a>
</g>
</g>
<!-- Node20 -->
<g id="Node000020" class="node">
<title>Node20</title>
<g id="a_Node000020"><a xlink:title=" ">
<polygon fill="#e0e0e0" stroke="#999999" points="2429.5,-88 2311.5,-88 2311.5,-56 2429.5,-56 2429.5,-88"/>
<text text-anchor="start" x="2319.5" y="-74.5" font-family="Arial" font-size="10.00">MultiplayerShooter</text>
<text text-anchor="middle" x="2370.5" y="-62.5" font-family="Arial" font-size="10.00">/HUD/Announcement.h</text>
</a>
</g>
</g>
<!-- Node1&#45;&gt;Node20 -->
<g id="edge19_Node000001_Node000020" class="edge">
<title>Node1&#45;&gt;Node20</title>
<g id="a_edge19_Node000001_Node000020"><a xlink:title=" ">
<path fill="none" stroke="#63b8ff" d="M2091.91,-124.01C2144.27,-115.88 2222.85,-103.18 2300.28,-88.37"/>
<polygon fill="#63b8ff" stroke="#63b8ff" points="2300.56,-91.89 2309.71,-86.56 2299.23,-85.01 2300.56,-91.89"/>
</a>
</g>
</g>
<!-- Node21 -->
<g id="Node000021" class="node">
<title>Node21</title>
<g id="a_Node000021"><a xlink:title=" ">
<polygon fill="#e0e0e0" stroke="#999999" points="2581,-82 2448,-82 2448,-62 2581,-62 2581,-82"/>
<text text-anchor="middle" x="2514.5" y="-68.5" font-family="Arial" font-size="10.00">Kismet/GameplayStatics.h</text>
</a>
</g>
</g>
<!-- Node1&#45;&gt;Node21 -->
<g id="edge20_Node000001_Node000021" class="edge">
<title>Node1&#45;&gt;Node21</title>
<g id="a_edge20_Node000001_Node000021"><a xlink:title=" ">
<path fill="none" stroke="#63b8ff" d="M2091.88,-128C2171.15,-120.97 2315.84,-106.87 2438.5,-88 2445.06,-86.99 2451.91,-85.81 2458.7,-84.57"/>
<polygon fill="#63b8ff" stroke="#63b8ff" points="2459.34,-88.01 2468.52,-82.72 2458.04,-81.13 2459.34,-88.01"/>
</a>
</g>
</g>
<!-- Node22 -->
<g id="Node000022" class="node">
<title>Node22</title>
<g id="a_Node000022"><a xlink:title=" ">
<polygon fill="#e0e0e0" stroke="#999999" points="2715.75,-82 2599.25,-82 2599.25,-62 2715.75,-62 2715.75,-82"/>
<text text-anchor="middle" x="2657.5" y="-68.5" font-family="Arial" font-size="10.00">Math/UnitConversion.h</text>
</a>
</g>
</g>
<!-- Node1&#45;&gt;Node22 -->
<g id="edge21_Node000001_Node000022" class="edge">
<title>Node1&#45;&gt;Node22</title>
<g id="a_edge21_Node000001_Node000022"><a xlink:title=" ">
<path fill="none" stroke="#63b8ff" d="M2091.87,-130.94C2194.17,-126.78 2410.09,-115.33 2590.5,-88 2596.25,-87.13 2602.23,-86.05 2608.16,-84.86"/>
<polygon fill="#63b8ff" stroke="#63b8ff" points="2608.86,-88.29 2617.93,-82.81 2607.42,-81.44 2608.86,-88.29"/>
</a>
</g>
</g>
<!-- Node23 -->
<g id="Node000023" class="node">
<title>Node23</title>
<g id="a_Node000023"><a xlink:title=" ">
<polygon fill="#e0e0e0" stroke="#999999" points="2891,-88 2734,-88 2734,-56 2891,-56 2891,-88"/>
<text text-anchor="start" x="2742" y="-74.5" font-family="Arial" font-size="10.00">MultiplayerShooter</text>
<text text-anchor="middle" x="2812.5" y="-62.5" font-family="Arial" font-size="10.00">/GameMode/LobbyGameMode.h</text>
</a>
</g>
</g>
<!-- Node1&#45;&gt;Node23 -->
<g id="edge22_Node000001_Node000023" class="edge">
<title>Node1&#45;&gt;Node23</title>
<g id="a_edge22_Node000001_Node000023"><a xlink:title=" ">
<path fill="none" stroke="#63b8ff" d="M2091.93,-131.22C2210,-127.22 2482.64,-115.74 2722.48,-88.14"/>
<polygon fill="#63b8ff" stroke="#63b8ff" points="2722.84,-91.63 2732.37,-86.99 2722.04,-84.67 2722.84,-91.63"/>
</a>
</g>
</g>
<!-- Node24 -->
<g id="Node000024" class="node">
<title>Node24</title>
<g id="a_Node000024"><a xlink:title=" ">
<polygon fill="#e0e0e0" stroke="#999999" points="3059.62,-88 2909.38,-88 2909.38,-56 3059.62,-56 3059.62,-88"/>
<text text-anchor="start" x="2917.38" y="-74.5" font-family="Arial" font-size="10.00">MultiplayerShooter</text>
<text text-anchor="middle" x="2984.5" y="-62.5" font-family="Arial" font-size="10.00">/GameState/MainGameState.h</text>
</a>
</g>
</g>
<!-- Node1&#45;&gt;Node24 -->
<g id="edge23_Node000001_Node000024" class="edge">
<title>Node1&#45;&gt;Node24</title>
<g id="a_edge23_Node000001_Node000024"><a xlink:title=" ">
<path fill="none" stroke="#63b8ff" d="M2091.91,-132.47C2231.04,-130.69 2588.98,-122.92 2897.59,-88.24"/>
<polygon fill="#63b8ff" stroke="#63b8ff" points="2897.96,-91.72 2907.51,-87.11 2897.17,-84.76 2897.96,-91.72"/>
</a>
</g>
</g>
<!-- Node25 -->
<g id="Node000025" class="node">
<title>Node25</title>
<g id="a_Node000025"><a xlink:title=" ">
<polygon fill="#e0e0e0" stroke="#999999" points="3175,-88 3078,-88 3078,-56 3175,-56 3175,-88"/>
<text text-anchor="start" x="3086" y="-74.5" font-family="Arial" font-size="10.00">MultiplayerShooter</text>
<text text-anchor="middle" x="3126.5" y="-62.5" font-family="Arial" font-size="10.00">/HUD/Chat.h</text>
</a>
</g>
</g>
<!-- Node1&#45;&gt;Node25 -->
<g id="edge24_Node000001_Node000025" class="edge">
<title>Node1&#45;&gt;Node25</title>
<g id="a_edge24_Node000001_Node000025"><a xlink:title=" ">
<path fill="none" stroke="#63b8ff" d="M2091.96,-132.06C2279.29,-128.83 2856.71,-116.88 3066.4,-88.03"/>
<polygon fill="#63b8ff" stroke="#63b8ff" points="3066.7,-91.52 3076.1,-86.63 3065.71,-84.59 3066.7,-91.52"/>
</a>
</g>
</g>
<!-- Node26 -->
<g id="Node000026" class="node">
<title>Node26</title>
<g id="a_Node000026"><a xlink:title=" ">
<polygon fill="#e0e0e0" stroke="#999999" points="3337.62,-88 3193.38,-88 3193.38,-56 3337.62,-56 3337.62,-88"/>
<text text-anchor="start" x="3201.38" y="-74.5" font-family="Arial" font-size="10.00">MultiplayerShooter</text>
<text text-anchor="middle" x="3265.5" y="-62.5" font-family="Arial" font-size="10.00">/HUD/ChatMessageWidget.h</text>
</a>
</g>
</g>
<!-- Node1&#45;&gt;Node26 -->
<g id="edge25_Node000001_Node000026" class="edge">
<title>Node1&#45;&gt;Node26</title>
<g id="a_edge25_Node000001_Node000026"><a xlink:title=" ">
<path fill="none" stroke="#63b8ff" d="M2092,-131.81C2293.17,-127.61 2947.97,-112.47 3182,-88.13"/>
<polygon fill="#63b8ff" stroke="#63b8ff" points="3182.08,-91.65 3191.65,-87.09 3181.33,-84.69 3182.08,-91.65"/>
</a>
</g>
</g>
<!-- Node27 -->
<g id="Node000027" class="node">
<title>Node27</title>
<g id="a_Node000027"><a xlink:title=" ">
<polygon fill="#e0e0e0" stroke="#999999" points="3468.88,-88 3356.12,-88 3356.12,-56 3468.88,-56 3468.88,-88"/>
<text text-anchor="start" x="3364.12" y="-74.5" font-family="Arial" font-size="10.00">MultiplayerShooter</text>
<text text-anchor="middle" x="3412.5" y="-62.5" font-family="Arial" font-size="10.00">/HUD/SettingsMenu.h</text>
</a>
</g>
</g>
<!-- Node1&#45;&gt;Node27 -->
<g id="edge26_Node000001_Node000027" class="edge">
<title>Node1&#45;&gt;Node27</title>
<g id="a_edge26_Node000001_Node000027"><a xlink:title=" ">
<path fill="none" stroke="#63b8ff" d="M2091.76,-132.46C2310.98,-130.24 3076.66,-120.38 3344.51,-88.02"/>
<polygon fill="#63b8ff" stroke="#63b8ff" points="3344.75,-91.52 3354.24,-86.8 3343.88,-84.58 3344.75,-91.52"/>
</a>
</g>
</g>
<!-- Node28 -->
<g id="Node000028" class="node">
<title>Node28</title>
<g id="a_Node000028"><a xlink:title=" ">
<polygon fill="#e0e0e0" stroke="#999999" points="3653.88,-88 3487.12,-88 3487.12,-56 3653.88,-56 3653.88,-88"/>
<text text-anchor="start" x="3495.12" y="-74.5" font-family="Arial" font-size="10.00">MultiplayerShooter</text>
<text text-anchor="middle" x="3570.5" y="-62.5" font-family="Arial" font-size="10.00">/Persistence/SettingsSaveGame.h</text>
</a>
</g>
</g>
<!-- Node1&#45;&gt;Node28 -->
<g id="edge27_Node000001_Node000028" class="edge">
<title>Node1&#45;&gt;Node28</title>
<g id="a_edge27_Node000001_Node000028"><a xlink:title=" ">
<path fill="none" stroke="#63b8ff" d="M2091.86,-132.17C2325.09,-128.76 3179.81,-114.77 3475.54,-88.07"/>
<polygon fill="#63b8ff" stroke="#63b8ff" points="3475.52,-91.58 3485.16,-87.17 3474.87,-84.61 3475.52,-91.58"/>
</a>
</g>
</g>
<!-- Node29 -->
<g id="Node000029" class="node">
<title>Node29</title>
<g id="a_Node000029"><a xlink:title=" ">
<polygon fill="#e0e0e0" stroke="#999999" points="3825.12,-88 3671.88,-88 3671.88,-56 3825.12,-56 3825.12,-88"/>
<text text-anchor="start" x="3679.88" y="-74.5" font-family="Arial" font-size="10.00">MultiplayerShooter</text>
<text text-anchor="middle" x="3748.5" y="-62.5" font-family="Arial" font-size="10.00">/PlayerState/MainPlayerState.h</text>
</a>
</g>
</g>
<!-- Node1&#45;&gt;Node29 -->
<g id="edge28_Node000001_Node000029" class="edge">
<title>Node1&#45;&gt;Node29</title>
<g id="a_edge28_Node000001_Node000029"><a xlink:title=" ">
<path fill="none" stroke="#63b8ff" d="M2091.97,-132.52C2344.06,-130.28 3326.38,-119.76 3660.55,-88.06"/>
<polygon fill="#63b8ff" stroke="#63b8ff" points="3660.56,-91.57 3670.18,-87.11 3659.88,-84.6 3660.56,-91.57"/>
</a>
</g>
</g>
<!-- Node30 -->
<g id="Node000030" class="node">
<title>Node30</title>
<g id="a_Node000030"><a xlink:title=" ">
<polygon fill="#e0e0e0" stroke="#999999" points="3977.75,-88 3843.25,-88 3843.25,-56 3977.75,-56 3977.75,-88"/>
<text text-anchor="start" x="3851.25" y="-74.5" font-family="Arial" font-size="10.00">Sections/MovieSceneLevel</text>
<text text-anchor="middle" x="3910.5" y="-62.5" font-family="Arial" font-size="10.00">VisibilitySection.h</text>
</a>
</g>
</g>
<!-- Node1&#45;&gt;Node30 -->
<g id="edge29_Node000001_Node000030" class="edge">
<title>Node1&#45;&gt;Node30</title>
<g id="a_edge29_Node000001_Node000030"><a xlink:title=" ">
<path fill="none" stroke="#63b8ff" d="M2091.78,-132.87C2359.97,-132.1 3462.41,-126.65 3831.8,-88.14"/>
<polygon fill="#63b8ff" stroke="#63b8ff" points="3831.97,-91.64 3841.54,-87.09 3831.23,-84.68 3831.97,-91.64"/>
</a>
</g>
</g>
<!-- Node3 -->
<g id="Node000003" class="node">
<title>Node3</title>
<g id="a_Node000003"><a xlink:title=" ">
<polygon fill="#e0e0e0" stroke="#999999" points="79,-20 0,-20 0,0 79,0 79,-20"/>
<text text-anchor="middle" x="39.5" y="-6.5" font-family="Arial" font-size="10.00">CoreMinimal.h</text>
</a>
</g>
</g>
<!-- Node2&#45;&gt;Node3 -->
<g id="edge2_Node000002_Node000003" class="edge">
<title>Node2&#45;&gt;Node3</title>
<g id="a_edge2_Node000002_Node000003"><a xlink:title=" ">
<path fill="none" stroke="#63b8ff" d="M227.66,-61.62C189.39,-51.33 127.79,-34.75 85.56,-23.39"/>
<polygon fill="#63b8ff" stroke="#63b8ff" points="86.49,-20.02 75.93,-20.8 84.68,-26.78 86.49,-20.02"/>
</a>
</g>
</g>
<!-- Node4 -->
<g id="Node000004" class="node">
<title>Node4</title>
<g id="a_Node000004"><a xlink:title=" ">
<polygon fill="#e0e0e0" stroke="#999999" points="269.5,-20 97.5,-20 97.5,0 269.5,0 269.5,-20"/>
<text text-anchor="middle" x="183.5" y="-6.5" font-family="Arial" font-size="10.00">GameFramework/PlayerController.h</text>
</a>
</g>
</g>
<!-- Node2&#45;&gt;Node4 -->
<g id="edge3_Node000002_Node000004" class="edge">
<title>Node2&#45;&gt;Node4</title>
<g id="a_edge3_Node000002_Node000004"><a xlink:title=" ">
<path fill="none" stroke="#63b8ff" d="M250.16,-61.62C237.98,-52.38 219.14,-38.07 204.59,-27.01"/>
<polygon fill="#63b8ff" stroke="#63b8ff" points="207.04,-24.49 196.96,-21.22 202.81,-30.06 207.04,-24.49"/>
</a>
</g>
</g>
<!-- Node5 -->
<g id="Node000005" class="node">
<title>Node5</title>
<g id="a_Node000005"><a xlink:title=" ">
<polygon fill="#e0e0e0" stroke="#999999" points="395.62,-20 287.38,-20 287.38,0 395.62,0 395.62,-20"/>
<text text-anchor="middle" x="341.5" y="-6.5" font-family="Arial" font-size="10.00">Sound/SoundClass.h</text>
</a>
</g>
</g>
<!-- Node2&#45;&gt;Node5 -->
<g id="edge4_Node000002_Node000005" class="edge">
<title>Node2&#45;&gt;Node5</title>
<g id="a_edge4_Node000002_Node000005"><a xlink:title=" ">
<path fill="none" stroke="#63b8ff" d="M274.84,-61.62C287.02,-52.38 305.86,-38.07 320.41,-27.01"/>
<polygon fill="#63b8ff" stroke="#63b8ff" points="322.19,-30.06 328.04,-21.22 317.96,-24.49 322.19,-30.06"/>
</a>
</g>
</g>
<!-- Node6 -->
<g id="Node000006" class="node">
<title>Node6</title>
<g id="a_Node000006"><a xlink:title=" ">
<polygon fill="#e0e0e0" stroke="#999999" points="567.12,-20 413.88,-20 413.88,0 567.12,0 567.12,-20"/>
<text text-anchor="middle" x="490.5" y="-6.5" font-family="Arial" font-size="10.00">MyPlayerController.generated.h</text>
</a>
</g>
</g>
<!-- Node2&#45;&gt;Node6 -->
<g id="edge5_Node000002_Node000006" class="edge">
<title>Node2&#45;&gt;Node6</title>
<g id="a_edge5_Node000002_Node000006"><a xlink:title=" ">
<path fill="none" stroke="#63b8ff" d="M298.38,-61.56C337.52,-51.26 400.33,-34.73 443.41,-23.39"/>
<polygon fill="#63b8ff" stroke="#63b8ff" points="444.21,-26.8 452.99,-20.87 442.43,-20.03 444.21,-26.8"/>
</a>
</g>
</g>
</g>
</svg>

<g id="navigator" transform="translate(0 0)" fill="#404254">
  <rect fill="#f2f5e9" fill-opacity="0.5" stroke="#606060" stroke-width=".5" x="0" y="0" width="60" height="60"/>
  <use id="zoomplus" xlink:href="#zoomPlus" x="17" y="9" onmousedown="handleZoom(evt,'in')"/>
  <use id="zoomminus" xlink:href="#zoomMin" x="42" y="9" onmousedown="handleZoom(evt,'out')"/>
  <use id="reset" xlink:href="#resetDef" x="30" y="36" onmousedown="handleReset()"/>
   <use id="arrowup" xlink:href="#arrowUp" x="0" y="0" onmousedown="handlePan(0,-1)"/>
  <use id="arrowright" xlink:href="#arrowRight" x="0" y="0" onmousedown="handlePan(1,0)"/>
  <use id="arrowdown" xlink:href="#arrowDown" x="0" y="0" onmousedown="handlePan(0,1)"/>
  <use id="arrowleft" xlink:href="#arrowLeft" x="0" y="0" onmousedown="handlePan(-1,0)"/>
</g>
<svg viewBox="0 0 15 15" width="100%" height="30px" preserveAspectRatio="xMaxYMin meet">
 <g id="arrow_out" transform="scale(0.3 0.3)">
  <a xlink:href="_my_player_controller_8cpp__incl_org.svg" target="_base">
   <rect id="button" ry="5" rx="5" y="6" x="6" height="38" width="38"
        fill="#f2f5e9" fill-opacity="0.5" stroke="#606060" stroke-width="1.0"/>
   <path id="arrow"
     d="M 11.500037,31.436501 C 11.940474,20.09759 22.043105,11.32322 32.158766,21.979434 L 37.068811,17.246167 C 37.068811,17.246167 37.088388,32 37.088388,32 L 22.160133,31.978069 C 22.160133,31.978069 26.997745,27.140456 26.997745,27.140456 C 18.528582,18.264221 13.291696,25.230495 11.500037,31.436501 z"
     style="fill:#404040;"/>
  </a>
 </g>
</svg>

<style type='text/css'>
<![CDATA[
[data-mouse-over-selected='false'] { opacity: 0.7; }
[data-mouse-over-selected='true']  { opacity: 1.0; }
]]>
</style>
<script type="application/ecmascript"><![CDATA[
document.addEventListener('DOMContentLoaded', (event) => {
  highlightEdges();
  highlightAdjacentNodes();
});
]]></script>
</svg>
