<?xml version="1.0" encoding="UTF-8" standalone="no"?>
<!DOCTYPE svg PUBLIC "-//W3C//DTD SVG 1.1//EN"
 "http://www.w3.org/Graphics/SVG/1.1/DTD/svg11.dtd">
<!-- Generated by graphviz version 12.2.1 (20241206.2353)
 -->
<!-- Title: AMyPlayerController::ServerReportPingStatus Pages: 1 -->
<svg width="420pt" height="108pt"
 viewBox="0.00 0.00 419.75 108.00" xmlns="http://www.w3.org/2000/svg" xmlns:xlink="http://www.w3.org/1999/xlink">
<g id="graph0" class="graph" transform="scale(1 1) rotate(0) translate(4 104)">
<title>AMyPlayerController::ServerReportPingStatus</title>
<!-- Node1 -->
<g id="Node000001" class="node">
<title>Node1</title>
<g id="a_Node000001"><a xlink:title=" ">
<polygon fill="#999999" stroke="#666666" points="411.75,-57 284,-57 284,-25 411.75,-25 411.75,-57"/>
<text text-anchor="start" x="292" y="-43.5" font-family="Arial" font-size="10.00">AMyPlayerController</text>
<text text-anchor="middle" x="347.88" y="-31.5" font-family="Arial" font-size="10.00">::ServerReportPingStatus</text>
</a>
</g>
</g>
<!-- Node1&#45;&gt;Node1 -->
<g id="edge5_Node000001_Node000001" class="edge">
<title>Node1&#45;&gt;Node1</title>
<g id="a_edge5_Node000001_Node000001"><a xlink:title=" ">
<path fill="none" stroke="#63b8ff" d="M373.35,-68.71C369.1,-72.48 360.61,-75 347.88,-75 324.59,-75 315.49,-66.58 320.58,-57.44"/>
<polygon fill="#63b8ff" stroke="#63b8ff" points="376.79,-69.37 374.93,-58.94 369.88,-68.25 376.79,-69.37"/>
</a>
</g>
</g>
<!-- Node2 -->
<g id="Node000002" class="node">
<title>Node2</title>
<g id="a_Node000002"><a xlink:href="class_a_my_player_controller.html#ab60304264b2877374fc0ebb6fcdb7b26" target="_top" xlink:title=" ">
<polygon fill="white" stroke="#666666" points="248,-57 142,-57 142,-25 248,-25 248,-57"/>
<text text-anchor="start" x="150" y="-43.5" font-family="Arial" font-size="10.00">AMyPlayerController</text>
<text text-anchor="middle" x="195" y="-31.5" font-family="Arial" font-size="10.00">::CheckPing</text>
</a>
</g>
</g>
<!-- Node1&#45;&gt;Node2 -->
<g id="edge1_Node000001_Node000002" class="edge">
<title>Node1&#45;&gt;Node2</title>
<g id="a_edge1_Node000001_Node000002"><a xlink:title=" ">
<path fill="none" stroke="#63b8ff" d="M272.35,-41C264.24,-41 256.11,-41 248.35,-41"/>
<polygon fill="#63b8ff" stroke="#63b8ff" points="272.25,-44.5 282.25,-41 272.25,-37.5 272.25,-44.5"/>
</a>
</g>
</g>
<!-- Node3 -->
<g id="Node000003" class="node">
<title>Node3</title>
<g id="a_Node000003"><a xlink:href="class_a_my_player_controller.html#a024c5466e70a2cabb7aa26cbd558778f" target="_top" xlink:title=" ">
<polygon fill="white" stroke="#666666" points="106,-82 0,-82 0,-50 106,-50 106,-82"/>
<text text-anchor="start" x="8" y="-68.5" font-family="Arial" font-size="10.00">AMyPlayerController</text>
<text text-anchor="middle" x="53" y="-56.5" font-family="Arial" font-size="10.00">::ClientJoinMidgame</text>
</a>
</g>
</g>
<!-- Node2&#45;&gt;Node3 -->
<g id="edge2_Node000002_Node000003" class="edge">
<title>Node2&#45;&gt;Node3</title>
<g id="a_edge2_Node000002_Node000003"><a xlink:title=" ">
<path fill="none" stroke="#63b8ff" d="M130.77,-52.29C122.55,-53.76 114.19,-55.25 106.17,-56.68"/>
<polygon fill="#63b8ff" stroke="#63b8ff" points="131.15,-55.78 140.38,-50.58 129.92,-48.89 131.15,-55.78"/>
</a>
</g>
</g>
<!-- Node4 -->
<g id="Node000004" class="node">
<title>Node4</title>
<g id="a_Node000004"><a xlink:href="class_a_my_player_controller.html#ad0cd7f4f1cfcf6d8abd038d6a090f87e" target="_top" xlink:title=" ">
<polygon fill="white" stroke="#666666" points="106,-32 0,-32 0,0 106,0 106,-32"/>
<text text-anchor="start" x="8" y="-18.5" font-family="Arial" font-size="10.00">AMyPlayerController</text>
<text text-anchor="middle" x="53" y="-6.5" font-family="Arial" font-size="10.00">::Tick</text>
</a>
</g>
</g>
<!-- Node2&#45;&gt;Node4 -->
<g id="edge4_Node000002_Node000004" class="edge">
<title>Node2&#45;&gt;Node4</title>
<g id="a_edge4_Node000002_Node000004"><a xlink:title=" ">
<path fill="none" stroke="#63b8ff" d="M130.77,-29.71C122.55,-28.24 114.19,-26.75 106.17,-25.32"/>
<polygon fill="#63b8ff" stroke="#63b8ff" points="129.92,-33.11 140.38,-31.42 131.15,-26.22 129.92,-33.11"/>
</a>
</g>
</g>
<!-- Node3&#45;&gt;Node3 -->
<g id="edge3_Node000003_Node000003" class="edge">
<title>Node3&#45;&gt;Node3</title>
<g id="a_edge3_Node000003_Node000003"><a xlink:title=" ">
<path fill="none" stroke="#63b8ff" d="M76.66,-93.71C72.72,-97.48 64.83,-100 53,-100 31.37,-100 22.92,-91.58 27.65,-82.44"/>
<polygon fill="#63b8ff" stroke="#63b8ff" points="80.11,-94.35 78.13,-83.94 73.18,-93.31 80.11,-94.35"/>
</a>
</g>
</g>
</g>
</svg>
