<?xml version="1.0" encoding="UTF-8" standalone="no"?>
<!DOCTYPE svg PUBLIC "-//W3C//DTD SVG 1.1//EN"
 "http://www.w3.org/Graphics/SVG/1.1/DTD/svg11.dtd">
<!-- Generated by graphviz version 12.2.1 (20241206.2353)
 -->
<!-- Title: AMyPlayerController::ServerRequestServerTime Pages: 1 -->
<svg width="430pt" height="90pt"
 viewBox="0.00 0.00 429.50 90.00" xmlns="http://www.w3.org/2000/svg" xmlns:xlink="http://www.w3.org/1999/xlink">
<g id="graph0" class="graph" transform="scale(1 1) rotate(0) translate(4 86)">
<title>AMyPlayerController::ServerRequestServerTime</title>
<!-- Node1 -->
<g id="Node000001" class="node">
<title>Node1</title>
<g id="a_Node000001"><a xlink:title="Sync time between client and server.">
<polygon fill="#999999" stroke="#666666" points="421.5,-57 284,-57 284,-25 421.5,-25 421.5,-57"/>
<text text-anchor="start" x="292" y="-43.5" font-family="Arial" font-size="10.00">AMyPlayerController</text>
<text text-anchor="middle" x="352.75" y="-31.5" font-family="Arial" font-size="10.00">::ServerRequestServerTime</text>
</a>
</g>
</g>
<!-- Node1&#45;&gt;Node1 -->
<g id="edge4_Node000001_Node000001" class="edge">
<title>Node1&#45;&gt;Node1</title>
<g id="a_edge4_Node000001_Node000001"><a xlink:title=" ">
<path fill="none" stroke="#63b8ff" d="M379.04,-68.71C374.66,-72.48 365.89,-75 352.75,-75 328.72,-75 319.33,-66.58 324.59,-57.44"/>
<polygon fill="#63b8ff" stroke="#63b8ff" points="382.48,-69.37 380.66,-58.94 375.57,-68.23 382.48,-69.37"/>
</a>
</g>
</g>
<!-- Node2 -->
<g id="Node000002" class="node">
<title>Node2</title>
<g id="a_Node000002"><a xlink:href="class_a_my_player_controller.html#aef5597dc7824ce9dafdd5eeb6a520d10" target="_top" xlink:title=" ">
<polygon fill="white" stroke="#666666" points="248,-82 142,-82 142,-50 248,-50 248,-82"/>
<text text-anchor="start" x="150" y="-68.5" font-family="Arial" font-size="10.00">AMyPlayerController</text>
<text text-anchor="middle" x="195" y="-56.5" font-family="Arial" font-size="10.00">::CheckTimeSync</text>
</a>
</g>
</g>
<!-- Node1&#45;&gt;Node2 -->
<g id="edge1_Node000001_Node000002" class="edge">
<title>Node1&#45;&gt;Node2</title>
<g id="a_edge1_Node000001_Node000002"><a xlink:title=" ">
<path fill="none" stroke="#63b8ff" d="M272.61,-53.7C264.32,-55.03 256.05,-56.36 248.18,-57.62"/>
<polygon fill="#63b8ff" stroke="#63b8ff" points="273.08,-57.17 282.39,-52.13 271.97,-50.26 273.08,-57.17"/>
</a>
</g>
</g>
<!-- Node4 -->
<g id="Node000004" class="node">
<title>Node4</title>
<g id="a_Node000004"><a xlink:href="class_a_my_player_controller.html#a618b30d21bc865060f549035a7dba47b" target="_top" xlink:title=" ">
<polygon fill="white" stroke="#666666" points="248,-32 142,-32 142,0 248,0 248,-32"/>
<text text-anchor="start" x="150" y="-18.5" font-family="Arial" font-size="10.00">AMyPlayerController</text>
<text text-anchor="middle" x="195" y="-6.5" font-family="Arial" font-size="10.00">::ReceivedPlayer</text>
</a>
</g>
</g>
<!-- Node1&#45;&gt;Node4 -->
<g id="edge3_Node000001_Node000004" class="edge">
<title>Node1&#45;&gt;Node4</title>
<g id="a_edge3_Node000001_Node000004"><a xlink:title=" ">
<path fill="none" stroke="#63b8ff" d="M272.61,-28.3C264.32,-26.97 256.05,-25.64 248.18,-24.38"/>
<polygon fill="#63b8ff" stroke="#63b8ff" points="271.97,-31.74 282.39,-29.87 273.08,-24.83 271.97,-31.74"/>
</a>
</g>
</g>
<!-- Node3 -->
<g id="Node000003" class="node">
<title>Node3</title>
<g id="a_Node000003"><a xlink:href="class_a_my_player_controller.html#ad0cd7f4f1cfcf6d8abd038d6a090f87e" target="_top" xlink:title=" ">
<polygon fill="white" stroke="#666666" points="106,-82 0,-82 0,-50 106,-50 106,-82"/>
<text text-anchor="start" x="8" y="-68.5" font-family="Arial" font-size="10.00">AMyPlayerController</text>
<text text-anchor="middle" x="53" y="-56.5" font-family="Arial" font-size="10.00">::Tick</text>
</a>
</g>
</g>
<!-- Node2&#45;&gt;Node3 -->
<g id="edge2_Node000002_Node000003" class="edge">
<title>Node2&#45;&gt;Node3</title>
<g id="a_edge2_Node000002_Node000003"><a xlink:title=" ">
<path fill="none" stroke="#63b8ff" d="M130.49,-66C122.36,-66 114.1,-66 106.17,-66"/>
<polygon fill="#63b8ff" stroke="#63b8ff" points="130.36,-69.5 140.36,-66 130.36,-62.5 130.36,-69.5"/>
</a>
</g>
</g>
</g>
</svg>
