<?xml version="1.0" encoding="UTF-8" standalone="no"?>
<!DOCTYPE svg PUBLIC "-//W3C//DTD SVG 1.1//EN"
 "http://www.w3.org/Graphics/SVG/1.1/DTD/svg11.dtd">
<!-- Generated by graphviz version 12.2.1 (20241206.2353)
 -->
<!-- Title: AMyPlayerController::SetHUDAnnouncementCountdown Pages: 1 -->
<svg width="469pt" height="140pt"
 viewBox="0.00 0.00 468.50 140.00" xmlns="http://www.w3.org/2000/svg" xmlns:xlink="http://www.w3.org/1999/xlink">

<svg id="main" version="1.1" xmlns="http://www.w3.org/2000/svg" xmlns:xlink="http://www.w3.org/1999/xlink" xml:space="preserve">

<style type="text/css"><![CDATA[
.node, .edge {opacity: 0.7;}
.node.selected, .edge.selected {opacity: 1;}
.edge:hover path { stroke: red; }
.edge:hover polygon { stroke: red; fill: red; }
]]></style>
<script type="application/ecmascript" xlink:href="svg.min.js"/>
<svg id="graph" class="graph">
<g id="graph0" class="graph" transform="scale(1 1) rotate(0) translate(4 136)">
<title>AMyPlayerController::SetHUDAnnouncementCountdown</title>
<!-- Node1 -->
<g id="Node000001" class="node">
<title>Node1</title>
<g id="a_Node000001"><a xlink:title=" ">
<polygon fill="#999999" stroke="#666666" points="460.5,-57 286.25,-57 286.25,-25 460.5,-25 460.5,-57"/>
<text text-anchor="start" x="294.25" y="-43.5" font-family="Arial" font-size="10.00">AMyPlayerController</text>
<text text-anchor="middle" x="373.38" y="-31.5" font-family="Arial" font-size="10.00">::SetHUDAnnouncementCountdown</text>
</a>
</g>
</g>
<!-- Node2 -->
<g id="Node000002" class="node">
<title>Node2</title>
<g id="a_Node000002"><a xlink:href="class_a_my_player_controller.html#a572fee9304cdf938bb02635e9eb91f66" target="_top" xlink:title=" ">
<polygon fill="white" stroke="#666666" points="250.25,-82 144.25,-82 144.25,-50 250.25,-50 250.25,-82"/>
<text text-anchor="start" x="152.25" y="-68.5" font-family="Arial" font-size="10.00">AMyPlayerController</text>
<text text-anchor="middle" x="197.25" y="-56.5" font-family="Arial" font-size="10.00">::HandleCooldown</text>
</a>
</g>
</g>
<!-- Node1&#45;&gt;Node2 -->
<g id="edge1_Node000001_Node000002" class="edge">
<title>Node1&#45;&gt;Node2</title>
<g id="a_edge1_Node000001_Node000002"><a xlink:title=" ">
<path fill="none" stroke="#63b8ff" d="M274.48,-55.05C266.21,-56.24 258.07,-57.41 250.36,-58.52"/>
<polygon fill="#63b8ff" stroke="#63b8ff" points="274.92,-58.53 284.32,-53.64 273.93,-51.6 274.92,-58.53"/>
</a>
</g>
</g>
<!-- Node5 -->
<g id="Node000005" class="node">
<title>Node5</title>
<g id="a_Node000005"><a xlink:href="class_a_my_player_controller.html#a5e7f3a4755da2121e0e81ac727883566" target="_top" xlink:title=" ">
<polygon fill="white" stroke="#666666" points="250.25,-32 144.25,-32 144.25,0 250.25,0 250.25,-32"/>
<text text-anchor="start" x="152.25" y="-18.5" font-family="Arial" font-size="10.00">AMyPlayerController</text>
<text text-anchor="middle" x="197.25" y="-6.5" font-family="Arial" font-size="10.00">::SetHUDTime</text>
</a>
</g>
</g>
<!-- Node1&#45;&gt;Node5 -->
<g id="edge4_Node000001_Node000005" class="edge">
<title>Node1&#45;&gt;Node5</title>
<g id="a_edge4_Node000001_Node000005"><a xlink:title=" ">
<path fill="none" stroke="#63b8ff" d="M274.48,-26.95C266.21,-25.76 258.07,-24.59 250.36,-23.48"/>
<polygon fill="#63b8ff" stroke="#63b8ff" points="273.93,-30.4 284.32,-28.36 274.92,-23.47 273.93,-30.4"/>
</a>
</g>
</g>
<!-- Node3 -->
<g id="Node000003" class="node">
<title>Node3</title>
<g id="a_Node000003"><a xlink:href="class_a_my_player_controller.html#a58bb90e2c607ae458ec045dbf2822b39" target="_top" xlink:title=" ">
<polygon fill="white" stroke="#666666" points="107.12,-132 1.12,-132 1.12,-100 107.12,-100 107.12,-132"/>
<text text-anchor="start" x="9.12" y="-118.5" font-family="Arial" font-size="10.00">AMyPlayerController</text>
<text text-anchor="middle" x="54.12" y="-106.5" font-family="Arial" font-size="10.00">::OnMatchStateSet</text>
</a>
</g>
</g>
<!-- Node2&#45;&gt;Node3 -->
<g id="edge2_Node000002_Node000003" class="edge">
<title>Node2&#45;&gt;Node3</title>
<g id="a_edge2_Node000002_Node000003"><a xlink:title=" ">
<path fill="none" stroke="#63b8ff" d="M139.2,-86.21C126.65,-90.66 113.51,-95.32 101.44,-99.59"/>
<polygon fill="#63b8ff" stroke="#63b8ff" points="140.36,-89.52 148.61,-82.88 138.02,-82.92 140.36,-89.52"/>
</a>
</g>
</g>
<!-- Node4 -->
<g id="Node000004" class="node">
<title>Node4</title>
<g id="a_Node000004"><a xlink:href="class_a_my_player_controller.html#a6dc3bb158cda98a6fe1dab6933d2ca5d" target="_top" xlink:title=" ">
<polygon fill="white" stroke="#666666" points="108.25,-82 0,-82 0,-50 108.25,-50 108.25,-82"/>
<text text-anchor="start" x="8" y="-68.5" font-family="Arial" font-size="10.00">AMyPlayerController</text>
<text text-anchor="middle" x="54.12" y="-56.5" font-family="Arial" font-size="10.00">::OnRep_MatchState</text>
</a>
</g>
</g>
<!-- Node2&#45;&gt;Node4 -->
<g id="edge3_Node000002_Node000004" class="edge">
<title>Node2&#45;&gt;Node4</title>
<g id="a_edge3_Node000002_Node000004"><a xlink:title=" ">
<path fill="none" stroke="#63b8ff" d="M132.76,-66C124.65,-66 116.41,-66 108.48,-66"/>
<polygon fill="#63b8ff" stroke="#63b8ff" points="132.59,-69.5 142.59,-66 132.59,-62.5 132.59,-69.5"/>
</a>
</g>
</g>
<!-- Node6 -->
<g id="Node000006" class="node">
<title>Node6</title>
<g id="a_Node000006"><a xlink:href="class_a_my_player_controller.html#ad0cd7f4f1cfcf6d8abd038d6a090f87e" target="_top" xlink:title=" ">
<polygon fill="white" stroke="#666666" points="107.12,-32 1.12,-32 1.12,0 107.12,0 107.12,-32"/>
<text text-anchor="start" x="9.12" y="-18.5" font-family="Arial" font-size="10.00">AMyPlayerController</text>
<text text-anchor="middle" x="54.12" y="-6.5" font-family="Arial" font-size="10.00">::Tick</text>
</a>
</g>
</g>
<!-- Node5&#45;&gt;Node6 -->
<g id="edge5_Node000005_Node000006" class="edge">
<title>Node5&#45;&gt;Node6</title>
<g id="a_edge5_Node000005_Node000006"><a xlink:title=" ">
<path fill="none" stroke="#63b8ff" d="M132.74,-16C124.31,-16 115.74,-16 107.53,-16"/>
<polygon fill="#63b8ff" stroke="#63b8ff" points="132.59,-19.5 142.59,-16 132.59,-12.5 132.59,-19.5"/>
</a>
</g>
</g>
</g>
</svg>
</svg>

<style type='text/css'>
<![CDATA[
[data-mouse-over-selected='false'] { opacity: 0.7; }
[data-mouse-over-selected='true']  { opacity: 1.0; }
]]>
</style>
<script type="application/ecmascript"><![CDATA[
document.addEventListener('DOMContentLoaded', (event) => {
  highlightEdges();
  highlightAdjacentNodes();
});
]]></script>
</svg>
