<?xml version="1.0" encoding="UTF-8" standalone="no"?>
<!DOCTYPE svg PUBLIC "-//W3C//DTD SVG 1.1//EN"
 "http://www.w3.org/Graphics/SVG/1.1/DTD/svg11.dtd">
<!-- Generated by graphviz version 12.2.1 (20241206.2353)
 -->
<!-- Title: AMyPlayerController::StopHighPingWarning Pages: 1 -->
<svg width="409pt" height="108pt"
 viewBox="0.00 0.00 409.25 108.00" xmlns="http://www.w3.org/2000/svg" xmlns:xlink="http://www.w3.org/1999/xlink">

<svg id="main" version="1.1" xmlns="http://www.w3.org/2000/svg" xmlns:xlink="http://www.w3.org/1999/xlink" xml:space="preserve">

<style type="text/css"><![CDATA[
.node, .edge {opacity: 0.7;}
.node.selected, .edge.selected {opacity: 1;}
.edge:hover path { stroke: red; }
.edge:hover polygon { stroke: red; fill: red; }
]]></style>
<script type="application/ecmascript" xlink:href="svg.min.js"/>
<svg id="graph" class="graph">
<g id="graph0" class="graph" transform="scale(1 1) rotate(0) translate(4 104)">
<title>AMyPlayerController::StopHighPingWarning</title>
<!-- Node1 -->
<g id="Node000001" class="node">
<title>Node1</title>
<g id="a_Node000001"><a xlink:title=" ">
<polygon fill="#999999" stroke="#666666" points="401.25,-60 284,-60 284,-28 401.25,-28 401.25,-60"/>
<text text-anchor="start" x="292" y="-46.5" font-family="Arial" font-size="10.00">AMyPlayerController</text>
<text text-anchor="middle" x="342.62" y="-34.5" font-family="Arial" font-size="10.00">::StopHighPingWarning</text>
</a>
</g>
</g>
<!-- Node2 -->
<g id="Node000002" class="node">
<title>Node2</title>
<g id="a_Node000002"><a xlink:href="class_a_my_player_controller.html#ab60304264b2877374fc0ebb6fcdb7b26" target="_top" xlink:title=" ">
<polygon fill="white" stroke="#666666" points="248,-38 142,-38 142,-6 248,-6 248,-38"/>
<text text-anchor="start" x="150" y="-24.5" font-family="Arial" font-size="10.00">AMyPlayerController</text>
<text text-anchor="middle" x="195" y="-12.5" font-family="Arial" font-size="10.00">::CheckPing</text>
</a>
</g>
</g>
<!-- Node1&#45;&gt;Node2 -->
<g id="edge1_Node000001_Node000002" class="edge">
<title>Node1&#45;&gt;Node2</title>
<g id="a_edge1_Node000001_Node000002"><a xlink:title=" ">
<path fill="none" stroke="#63b8ff" d="M272.53,-33.56C264.31,-32.32 256.04,-31.07 248.11,-29.87"/>
<polygon fill="#63b8ff" stroke="#63b8ff" points="271.74,-36.98 282.16,-35.02 272.79,-30.06 271.74,-36.98"/>
</a>
</g>
</g>
<!-- Node3 -->
<g id="Node000003" class="node">
<title>Node3</title>
<g id="a_Node000003"><a xlink:href="class_a_my_player_controller.html#a024c5466e70a2cabb7aa26cbd558778f" target="_top" xlink:title=" ">
<polygon fill="white" stroke="#666666" points="106,-82 0,-82 0,-50 106,-50 106,-82"/>
<text text-anchor="start" x="8" y="-68.5" font-family="Arial" font-size="10.00">AMyPlayerController</text>
<text text-anchor="middle" x="53" y="-56.5" font-family="Arial" font-size="10.00">::ClientJoinMidgame</text>
</a>
</g>
</g>
<!-- Node1&#45;&gt;Node3 -->
<g id="edge5_Node000001_Node000003" class="edge">
<title>Node1&#45;&gt;Node3</title>
<g id="a_edge5_Node000001_Node000003"><a xlink:title=" ">
<path fill="none" stroke="#63b8ff" d="M272.5,-49.29C221.45,-53.19 153.03,-58.43 106.44,-61.99"/>
<polygon fill="#63b8ff" stroke="#63b8ff" points="272.55,-52.79 282.26,-48.54 272.02,-45.81 272.55,-52.79"/>
</a>
</g>
</g>
<!-- Node2&#45;&gt;Node3 -->
<g id="edge2_Node000002_Node000003" class="edge">
<title>Node2&#45;&gt;Node3</title>
<g id="a_edge2_Node000002_Node000003"><a xlink:title=" ">
<path fill="none" stroke="#63b8ff" d="M131.05,-41.78C122.74,-44.4 114.28,-47.05 106.17,-49.6"/>
<polygon fill="#63b8ff" stroke="#63b8ff" points="131.93,-45.18 140.43,-38.84 129.84,-38.5 131.93,-45.18"/>
</a>
</g>
</g>
<!-- Node4 -->
<g id="Node000004" class="node">
<title>Node4</title>
<g id="a_Node000004"><a xlink:href="class_a_my_player_controller.html#ad0cd7f4f1cfcf6d8abd038d6a090f87e" target="_top" xlink:title=" ">
<polygon fill="white" stroke="#666666" points="106,-32 0,-32 0,0 106,0 106,-32"/>
<text text-anchor="start" x="8" y="-18.5" font-family="Arial" font-size="10.00">AMyPlayerController</text>
<text text-anchor="middle" x="53" y="-6.5" font-family="Arial" font-size="10.00">::Tick</text>
</a>
</g>
</g>
<!-- Node2&#45;&gt;Node4 -->
<g id="edge4_Node000002_Node000004" class="edge">
<title>Node2&#45;&gt;Node4</title>
<g id="a_edge4_Node000002_Node000004"><a xlink:title=" ">
<path fill="none" stroke="#63b8ff" d="M130.49,-19.28C122.36,-18.93 114.1,-18.58 106.17,-18.24"/>
<polygon fill="#63b8ff" stroke="#63b8ff" points="130.22,-22.77 140.36,-19.7 130.52,-15.78 130.22,-22.77"/>
</a>
</g>
</g>
<!-- Node3&#45;&gt;Node3 -->
<g id="edge3_Node000003_Node000003" class="edge">
<title>Node3&#45;&gt;Node3</title>
<g id="a_edge3_Node000003_Node000003"><a xlink:title=" ">
<path fill="none" stroke="#63b8ff" d="M76.66,-93.71C72.72,-97.48 64.83,-100 53,-100 31.37,-100 22.92,-91.58 27.65,-82.44"/>
<polygon fill="#63b8ff" stroke="#63b8ff" points="80.11,-94.35 78.13,-83.94 73.18,-93.31 80.11,-94.35"/>
</a>
</g>
</g>
</g>
</svg>
</svg>

<style type='text/css'>
<![CDATA[
[data-mouse-over-selected='false'] { opacity: 0.7; }
[data-mouse-over-selected='true']  { opacity: 1.0; }
]]>
</style>
<script type="application/ecmascript"><![CDATA[
document.addEventListener('DOMContentLoaded', (event) => {
  highlightEdges();
  highlightAdjacentNodes();
});
]]></script>
</svg>
